<svg xmlns="http://www.w3.org/2000/svg" xmlns:xlink="http://www.w3.org/1999/xlink" id="Calque_1" x="0" y="0" version="1.1" viewBox="0 0 40 40" xml:space="preserve" style="enable-background:new 0 0 40 40"><style type="text/css">.st0{fill:#fff}</style><g><path d="M20,0.5C9.2,0.5,0.5,9.3,0.5,20.1c0,9.7,7,17.7,16.3,19.2V24.2H12v-5.5h4.7v-4c0-4.7,2.9-7.2,7-7.2 c2,0,3.7,0.1,4.2,0.2v4.9l-2.9,0c-2.3,0-2.7,1.1-2.7,2.7v3.5h5.4l-0.7,5.5h-4.7v15.3c9.7-1.2,17.2-9.4,17.2-19.4 C39.5,9.3,30.8,0.5,20,0.5z" class="st0"/></g></svg>