<svg xmlns="http://www.w3.org/2000/svg" xmlns:xlink="http://www.w3.org/1999/xlink" id="Calque_1" x="0" y="0" version="1.1" viewBox="0 0 40 40" xml:space="preserve" style="enable-background:new 0 0 40 40"><style type="text/css">.st0{fill:#fff}</style><g><g id="Instagram"><path d="M5.2,11.5c-0.4,0-0.8-0.4-0.8-0.8V3.4c0-0.4,0.4-0.8,0.8-0.8S6,3,6,3.4v7.3C6,11.1,5.6,11.5,5.2,11.5z" class="st0"/><path d="M7.9,11.5c-0.4,0-0.8-0.4-0.8-0.8V2.8C7.1,2.4,7.4,2,7.9,2s0.8,0.4,0.8,0.8v7.9C8.7,11.1,8.3,11.5,7.9,11.5z" class="st0"/><path d="M10.6,11.5c-0.4,0-0.8-0.4-0.8-0.8V2.8c0-0.4,0.4-0.8,0.8-0.8s0.8,0.4,0.8,0.8v7.9 C11.4,11.1,11,11.5,10.6,11.5z" class="st0"/><path d="M30.7,39.7H10.3c-6.1,0-9.6-3.2-9.6-8.8V10.8C0.7,4.9,4.1,1,9.2,1h22.2c3.8,0,7.9,3.6,7.9,9.5v20.2 C39.3,35.7,35.5,39.7,30.7,39.7z M9.2,2.6c-5.1,0-6.9,4.4-6.9,8.2v20.1c0,5.9,4.3,7.2,8,7.2h20.4c4,0,7-3.1,7-7.3V10.5 c0-4.9-3.3-7.9-6.3-7.9H9.2z" class="st0"/><path d="M20,13.3c-3.4,0-6.2,2.8-6.2,6.2s2.8,6.2,6.2,6.2c3.4,0,6.2-2.8,6.2-6.2S23.4,13.3,20,13.3z M20,22.5 c-1.7,0-3.1-1.4-3.1-3.1s1.4-3.1,3.1-3.1s3.1,1.4,3.1,3.1S21.7,22.5,20,22.5z" class="st0"/><path d="M20,29.3c-5.4,0-9.8-4.4-9.8-9.8s4.4-9.8,9.8-9.8s9.8,4.4,9.8,9.8S25.4,29.3,20,29.3z M20,11.3 c-4.5,0-8.2,3.7-8.2,8.2s3.7,8.2,8.2,8.2s8.2-3.7,8.2-8.2S24.5,11.3,20,11.3z" class="st0"/><rect width="11.3" height="1.7" x="27.2" y="13" class="st0"/><rect width="10.7" height="1.7" x="1.9" y="13" class="st0"/><path d="M34,9.2c0,1-0.8,1.8-1.8,1.8h-2.6c-1,0-1.8-0.8-1.8-1.8V6.5c0-1,0.8-1.8,1.8-1.8h2.6c1,0,1.8,0.8,1.8,1.8V9.2 z" class="st0"/></g></g></svg>