<?xml version="1.0" encoding="utf-8"?>
<!-- Generator: Adobe Illustrator 21.0.2, SVG Export Plug-In . SVG Version: 6.00 Build 0)  -->
<svg version="1.1" id="Calque_1" xmlns="http://www.w3.org/2000/svg" xmlns:xlink="http://www.w3.org/1999/xlink" x="0px" y="0px"
	 viewBox="0 0 100 45.4" style="enable-background:new 0 0 100 45.4;" xml:space="preserve">
<style type="text/css">
	.st0{fill:#FFFFFF;}
</style>
<g>
	<polygon class="st0" points="22.7,23.2 27,23.2 21.3,0 20.2,0 13.5,15.4 13.4,15.3 6.7,0 5.7,0 0,23.2 4.3,23.2 7.3,10 7.3,10.2 
		12.9,23.2 14.1,23.2 19.7,10 	"/>
	<g>
		<path class="st0" d="M79.7,30.4c0-0.2,0-0.4,0.1-0.6s0.2-0.3,0.4-0.4c0.2-0.1,0.4-0.2,0.6-0.2s0.5-0.1,0.7-0.1c0.1,0,0.2,0,0.4,0
			c0.1,0,0.3,0,0.4,0.1c0.1,0,0.3,0.1,0.4,0.1c0.1,0.1,0.3,0.1,0.4,0.2s0.2,0.2,0.3,0.4c0.1,0.1,0.1,0.3,0.1,0.5h-1
			c0-0.1,0-0.2-0.1-0.2c0-0.1-0.1-0.1-0.2-0.2s-0.2-0.1-0.3-0.1c-0.1,0-0.3-0.1-0.5-0.1c-0.3,0-0.5,0-0.7,0.1s-0.3,0.2-0.3,0.4
			c0,0.1,0,0.2,0.1,0.3c0.1,0.1,0.2,0.1,0.4,0.2c0.1,0,0.3,0.1,0.5,0.1s0.4,0,0.6,0.1c0.2,0,0.4,0.1,0.6,0.1s0.4,0.1,0.5,0.2
			s0.3,0.2,0.4,0.3c0.1,0.1,0.1,0.3,0.1,0.5c0,0.3-0.1,0.5-0.2,0.7s-0.3,0.3-0.5,0.4c-0.2,0.1-0.4,0.2-0.6,0.2s-0.5,0.1-0.7,0.1
			c-0.4,0-0.7,0-1-0.1s-0.5-0.2-0.7-0.3s-0.3-0.3-0.4-0.5s-0.1-0.4-0.1-0.6h0.9c0,0.3,0.1,0.5,0.3,0.6c0.2,0.1,0.5,0.2,0.9,0.2
			c0.1,0,0.3,0,0.4,0s0.2-0.1,0.3-0.1c0.1,0,0.2-0.1,0.2-0.2c0.1-0.1,0.1-0.2,0.1-0.3s0-0.2-0.1-0.3c-0.1-0.1-0.2-0.1-0.3-0.2
			s-0.3-0.1-0.5-0.1s-0.4-0.1-0.6-0.1s-0.4-0.1-0.6-0.1s-0.4-0.1-0.5-0.2s-0.3-0.2-0.3-0.3C79.7,30.8,79.7,30.6,79.7,30.4z"/>
		<path class="st0" d="M84.3,29.2h2.3c0.4,0,0.7,0.1,1,0.2s0.5,0.3,0.6,0.4c0.2,0.2,0.3,0.4,0.3,0.7c0.1,0.3,0.1,0.5,0.1,0.8
			c0,0.2,0,0.5-0.1,0.7c-0.1,0.2-0.2,0.5-0.3,0.7c-0.1,0.2-0.3,0.4-0.6,0.5c-0.2,0.1-0.5,0.2-0.9,0.2h-2.5L84.3,29.2L84.3,29.2z
			 M85.2,32.7h1.2c0.2,0,0.3,0,0.5,0s0.3-0.1,0.4-0.2c0.1-0.1,0.2-0.2,0.3-0.4c0.1-0.2,0.1-0.4,0.1-0.7c0-0.3,0-0.6-0.1-0.8
			c-0.1-0.2-0.2-0.3-0.3-0.4c-0.1-0.1-0.3-0.1-0.4-0.2c-0.2,0-0.3,0-0.4,0h-1.2L85.2,32.7L85.2,32.7z"/>
		<path class="st0" d="M89.4,29.2h0.9v1.9l2.1-1.9h1.2l-1.9,1.7l2.1,2.5h-1.2l-1.6-2L90.3,32v1.3h-0.9V29.2L89.4,29.2z"/>
		<path class="st0" d="M94.3,29.2h2.6c0.3,0,0.5,0,0.6,0.1c0.2,0.1,0.3,0.2,0.4,0.3c0.1,0.1,0.2,0.3,0.2,0.4c0,0.2,0.1,0.3,0.1,0.5
			s0,0.3-0.1,0.5s-0.1,0.3-0.2,0.4s-0.2,0.2-0.4,0.3c-0.2,0.1-0.4,0.1-0.6,0.1h-1.7v1.6h-0.9V29.2L94.3,29.2z M95.2,31.1h1.4
			c0.1,0,0.2,0,0.3,0c0.1,0,0.2-0.1,0.2-0.1c0.1,0,0.1-0.1,0.1-0.2s0.1-0.2,0.1-0.3c0-0.1,0-0.2-0.1-0.3c0-0.1-0.1-0.1-0.2-0.2
			s-0.1-0.1-0.2-0.1s-0.2,0-0.3,0H95L95.2,31.1L95.2,31.1L95.2,31.1z"/>
	</g>
	<g>
		<path class="st0" d="M60.6,35.2h3.6v0.6h-2.8v1H64v0.6h-2.6v1.1h2.8v0.6h-3.7v-3.9H60.6z"/>
		<path class="st0" d="M66.2,37.2l-1.6-2h1.1l1,1.4l1.1-1.4h1.1l-1.6,2l1.7,2.1h-1.1l-1.1-1.5l-1.1,1.5h-1.1L66.2,37.2z"/>
		<path class="st0" d="M72.9,36.7c0-0.3-0.2-0.6-0.4-0.7c-0.2-0.2-0.5-0.3-0.9-0.3c-0.2,0-0.4,0-0.6,0.1s-0.3,0.2-0.4,0.3
			s-0.2,0.3-0.3,0.5c-0.1,0.2-0.1,0.4-0.1,0.7c0,0.2,0,0.4,0.1,0.6c0.1,0.2,0.2,0.3,0.3,0.5c0.1,0.1,0.3,0.2,0.5,0.3
			s0.4,0.1,0.6,0.1s0.4,0,0.6-0.1s0.3-0.2,0.4-0.3s0.2-0.2,0.2-0.3C73,38,73,37.9,73,37.7h0.9c0,0.2-0.1,0.4-0.2,0.6
			c-0.1,0.2-0.2,0.4-0.4,0.5c-0.2,0.2-0.4,0.3-0.7,0.4c-0.3,0.1-0.7,0.1-1.1,0.1s-0.7-0.1-1-0.2c-0.3-0.1-0.5-0.3-0.7-0.5
			s-0.3-0.4-0.4-0.7s-0.1-0.5-0.1-0.8s0-0.6,0.1-0.8c0.1-0.3,0.2-0.5,0.4-0.7c0.2-0.2,0.4-0.4,0.7-0.5c0.3-0.1,0.6-0.2,1.1-0.2
			c0.4,0,0.7,0,1,0.1s0.5,0.2,0.7,0.4c0.2,0.1,0.3,0.3,0.4,0.5s0.2,0.4,0.2,0.6L72.9,36.7L72.9,36.7L72.9,36.7z"/>
		<path class="st0" d="M74.7,35.2h0.9v3.5h2.5v0.7h-3.4V35.2z"/>
		<path class="st0" d="M78.7,35.2h0.9v2.3c0,0.1,0,0.3,0,0.4c0,0.2,0.1,0.3,0.1,0.4c0.1,0.1,0.2,0.2,0.3,0.3
			c0.2,0.1,0.4,0.1,0.7,0.1c0.3,0,0.5,0,0.7-0.1s0.3-0.2,0.4-0.3s0.1-0.3,0.1-0.4c0-0.1,0-0.3,0-0.4v-2.3h0.9v2.4c0,0.1,0,0.2,0,0.4
			c0,0.1,0,0.3-0.1,0.4c0,0.1-0.1,0.3-0.2,0.4c-0.1,0.1-0.2,0.2-0.3,0.4c-0.2,0.1-0.3,0.2-0.6,0.2c-0.2,0.1-0.5,0.1-0.9,0.1
			s-0.6,0-0.9-0.1c-0.2-0.1-0.4-0.1-0.6-0.2c-0.2-0.1-0.3-0.2-0.4-0.4c-0.1-0.1-0.1-0.3-0.2-0.4s-0.1-0.3-0.1-0.4c0-0.1,0-0.3,0-0.4
			L78.7,35.2L78.7,35.2z"/>
		<path class="st0" d="M83.5,36.4c0-0.2,0-0.4,0.1-0.6c0.1-0.2,0.2-0.3,0.4-0.4c0.2-0.1,0.4-0.2,0.6-0.2s0.5-0.1,0.7-0.1
			c0.1,0,0.2,0,0.4,0c0.1,0,0.3,0,0.4,0.1c0.1,0,0.3,0.1,0.4,0.1c0.1,0.1,0.3,0.1,0.4,0.2c0.1,0.1,0.2,0.2,0.3,0.4
			c0.1,0.1,0.1,0.3,0.1,0.5h-0.9c0-0.1,0-0.2-0.1-0.2c0-0.1-0.1-0.1-0.2-0.2c-0.1-0.1-0.2-0.1-0.3-0.2c-0.1,0-0.3-0.1-0.5-0.1
			c-0.3,0-0.5,0-0.7,0.1s-0.3,0.2-0.3,0.4c0,0.1,0,0.2,0.1,0.3s0.2,0.1,0.4,0.2c0.1,0,0.3,0.1,0.5,0.1s0.4,0,0.6,0.1
			c0.2,0,0.4,0.1,0.6,0.1s0.4,0.1,0.5,0.2c0.1,0.1,0.3,0.2,0.4,0.3s0.1,0.3,0.1,0.5c0,0.3-0.1,0.5-0.2,0.7S87,39,86.8,39.1
			c-0.2,0.1-0.4,0.2-0.6,0.2s-0.5,0.1-0.7,0.1c-0.4,0-0.7,0-1-0.1S84,39.1,83.8,39s-0.3-0.3-0.4-0.5s-0.1-0.4-0.1-0.6h0.9
			c0,0.3,0.1,0.5,0.3,0.6c0.2,0.1,0.5,0.2,0.9,0.2c0.1,0,0.3,0,0.4,0s0.2-0.1,0.3-0.1c0.1,0,0.2-0.1,0.2-0.2
			c0.1-0.1,0.1-0.2,0.1-0.3s0-0.2-0.1-0.3s-0.2-0.1-0.3-0.2c-0.1,0-0.3-0.1-0.5-0.1s-0.4-0.1-0.6-0.1s-0.4-0.1-0.6-0.1
			s-0.4-0.1-0.5-0.2c-0.1-0.1-0.3-0.2-0.4-0.3C83.5,36.7,83.5,36.6,83.5,36.4z"/>
		<path class="st0" d="M88.1,35.2H89v4.1h-0.9V35.2z"/>
		<path class="st0" d="M89.4,35.2h1l1.4,3.3l1.3-3.3H94l-1.8,4.1h-0.9L89.4,35.2z"/>
		<path class="st0" d="M94.5,35.2h3.6v0.6h-2.7v1H98v0.6h-2.6v1.1h2.8v0.6h-3.7C94.5,39.1,94.5,35.2,94.5,35.2z"/>
	</g>
	<g>
		<path class="st0" d="M60.6,41.2h2.6c0.3,0,0.5,0,0.6,0.1c0.2,0.1,0.3,0.2,0.4,0.3s0.2,0.3,0.2,0.4c0,0.2,0.1,0.3,0.1,0.5
			s0,0.3-0.1,0.5c-0.1,0.1-0.1,0.3-0.2,0.4c-0.1,0.1-0.3,0.2-0.4,0.3c-0.2,0.1-0.4,0.1-0.6,0.1h-1.7v1.6h-0.9L60.6,41.2L60.6,41.2z
			 M61.5,43.1h1.4c0.1,0,0.2,0,0.3,0s0.2-0.1,0.2-0.1s0.1-0.1,0.1-0.2c0-0.1,0-0.2,0-0.3s0-0.2-0.1-0.3c0-0.1-0.1-0.1-0.2-0.2
			c-0.1,0-0.1-0.1-0.2-0.1s-0.2,0-0.3,0h-1.5L61.5,43.1L61.5,43.1L61.5,43.1z"/>
		<path class="st0" d="M65.6,41.2h2.6c0.3,0,0.5,0,0.7,0.1s0.3,0.1,0.4,0.2c0.1,0.1,0.2,0.2,0.2,0.4s0.1,0.3,0.1,0.4
			c0,0.3-0.1,0.5-0.2,0.7s-0.3,0.3-0.5,0.3l0,0c0.1,0,0.2,0.1,0.3,0.1s0.1,0.1,0.2,0.2s0.1,0.2,0.1,0.3s0,0.3,0,0.4
			c0,0.1,0,0.1,0,0.2c0,0.1,0,0.2,0,0.2c0,0.1,0,0.2,0.1,0.2c0,0.1,0.1,0.2,0.1,0.2h-0.9c0-0.1-0.1-0.1-0.1-0.2s0-0.2,0-0.4
			c0-0.1,0-0.3,0-0.4c0-0.1,0-0.2-0.1-0.3s-0.1-0.2-0.2-0.2c-0.1-0.1-0.2-0.1-0.4-0.1h-1.5v1.6h-0.9L65.6,41.2L65.6,41.2L65.6,41.2z
			 M68,43c0.2,0,0.4,0,0.6-0.1c0.1-0.1,0.2-0.2,0.2-0.5c0-0.2-0.1-0.4-0.2-0.5s-0.3-0.1-0.5-0.1h-1.5V43H68L68,43z"/>
		<path class="st0" d="M73,45.4c-0.4,0-0.8-0.1-1.1-0.2c-0.3-0.1-0.6-0.3-0.8-0.5c-0.2-0.2-0.3-0.4-0.4-0.7s-0.1-0.5-0.1-0.8
			s0-0.6,0.1-0.8c0.1-0.3,0.2-0.5,0.4-0.7c0.2-0.2,0.5-0.4,0.8-0.5S72.6,41,73,41s0.8,0.1,1.1,0.2c0.3,0.1,0.6,0.3,0.8,0.5
			c0.2,0.2,0.3,0.4,0.4,0.7s0.1,0.5,0.1,0.8s0,0.6-0.1,0.8c-0.1,0.3-0.2,0.5-0.4,0.7c-0.2,0.2-0.4,0.4-0.8,0.5
			C73.9,45.4,73.5,45.4,73,45.4z M73,44.8c0.2,0,0.5,0,0.7-0.1s0.4-0.2,0.5-0.3s0.2-0.3,0.3-0.5c0.1-0.2,0.1-0.4,0.1-0.6
			c0-0.2,0-0.4-0.1-0.6c-0.1-0.2-0.2-0.4-0.3-0.5c-0.1-0.1-0.3-0.2-0.5-0.3s-0.4-0.1-0.7-0.1c-0.2,0-0.5,0-0.7,0.1s-0.4,0.2-0.5,0.3
			s-0.2,0.3-0.3,0.5c-0.1,0.2-0.1,0.4-0.1,0.6c0,0.2,0,0.4,0.1,0.6c0.1,0.2,0.2,0.3,0.3,0.5c0.1,0.1,0.3,0.2,0.5,0.3
			C72.6,44.7,72.8,44.8,73,44.8z"/>
		<path class="st0" d="M81,45.3h-0.5l-0.1-0.5c-0.2,0.2-0.4,0.4-0.7,0.5c-0.3,0.1-0.6,0.2-0.9,0.2c-0.4,0-0.8-0.1-1.1-0.2
			c-0.3-0.1-0.6-0.3-0.8-0.5c-0.2-0.2-0.3-0.4-0.4-0.7s-0.1-0.5-0.1-0.8s0-0.6,0.1-0.8c0.1-0.3,0.2-0.5,0.4-0.7
			c0.2-0.2,0.5-0.4,0.8-0.5s0.7-0.2,1.1-0.2c0.3,0,0.6,0,0.9,0.1s0.5,0.2,0.7,0.3s0.3,0.3,0.4,0.5s0.2,0.4,0.2,0.6h-1
			c0-0.1-0.1-0.3-0.2-0.4c-0.1-0.1-0.2-0.2-0.3-0.3c-0.1-0.1-0.2-0.1-0.4-0.1c-0.1,0-0.3,0-0.4,0c-0.3,0-0.5,0-0.7,0.1
			s-0.3,0.2-0.5,0.3c-0.1,0.1-0.2,0.3-0.3,0.5c-0.1,0.2-0.1,0.4-0.1,0.6c0,0.3,0,0.5,0.1,0.7s0.2,0.3,0.3,0.5
			c0.1,0.1,0.3,0.2,0.5,0.3s0.4,0.1,0.5,0.1c0.2,0,0.4,0,0.6-0.1c0.2,0,0.3-0.1,0.4-0.2c0.1-0.1,0.2-0.2,0.3-0.3
			c0.1-0.1,0.1-0.3,0.2-0.5h-1.2V43H81V45.3L81,45.3L81,45.3z"/>
		<path class="st0" d="M82.3,41.2h2.6c0.3,0,0.5,0,0.7,0.1s0.3,0.1,0.4,0.2c0.1,0.1,0.2,0.2,0.2,0.4c0,0.1,0.1,0.3,0.1,0.4
			c0,0.3-0.1,0.5-0.2,0.7s-0.3,0.3-0.5,0.3l0,0c0.1,0,0.2,0.1,0.3,0.1c0.1,0.1,0.1,0.1,0.2,0.2c0,0.1,0.1,0.2,0.1,0.3s0,0.3,0,0.4
			c0,0.1,0,0.1,0,0.2c0,0.1,0,0.2,0,0.2c0,0.1,0,0.2,0.1,0.2c0,0.1,0.1,0.2,0.1,0.2h-0.9c0-0.1-0.1-0.1-0.1-0.2c0-0.1,0-0.2,0-0.4
			c0-0.1,0-0.3,0-0.4c0-0.1-0.1-0.2-0.1-0.3c-0.1-0.1-0.1-0.2-0.2-0.2c-0.1-0.1-0.2-0.1-0.4-0.1h-1.5v1.6h-0.9L82.3,41.2L82.3,41.2
			L82.3,41.2z M84.7,43c0.2,0,0.4,0,0.6-0.1c0.1-0.1,0.2-0.2,0.2-0.5c0-0.2-0.1-0.4-0.2-0.5s-0.3-0.1-0.6-0.1h-1.5V43H84.7L84.7,43z
			"/>
		<path class="st0" d="M88.9,41.2h1l1.9,4.1h-1l-0.4-1h-2l-0.4,1h-1L88.9,41.2z M90.1,43.6l-0.7-1.7l-0.7,1.7H90.1z"/>
		<path class="st0" d="M92.6,41.2h1.3l1.5,3.2l1.5-3.2H98v4.1h-0.8v-3.4l0,0l-1.5,3.4H95l-1.5-3.4l0,0v3.4h-0.8L92.6,41.2L92.6,41.2
			z"/>
	</g>
	<path class="st0" d="M35.3,23.4c-4.6,0-7.6-2.5-7.6-6.2c0-3.9,2.7-5.9,7.7-5.9h5.2c-0.5-3.5-3.3-4.7-5.8-4.7
		c-0.7,0-2.5,0.2-4.2,1.6l-0.1,0.1l-2.7-2.5l0.1-0.1C30.1,3.9,32.4,3,35,3c3.4,0,6,1.3,7.8,3.8l0,0c2.3-2.7,4.4-3.7,7.7-3.8h0.1
		c2.6,0,7.4,1.3,7.5,6.2c0,1.7-0.5,3-1.5,4c-1.3,1.3-3.4,1.9-6.2,1.9h-5.3c0.4,2.8,2.6,4.7,5.6,4.7h0.1c0.2,0,1.1,0,2-0.3
		c1-0.3,1.9-0.9,2.3-1.3l0.1-0.1l2.7,2.5l-0.1,0.1c-1.9,1.6-3.8,2.4-5.9,2.6c-2,0.2-4.1-0.1-5.7-0.9c-1.4-0.7-2.9-2.2-3.4-2.7
		C40.7,22.2,38.3,23.4,35.3,23.4 M34.9,14.6c-2.4,0-3.6,0.8-3.6,2.5c0,1.3,1.6,2.8,3.9,2.8c3.3,0,5.3-2,5.3-5.3L34.9,14.6L34.9,14.6
		z M45.1,11.6h5.6c2.4,0,3.6-0.8,3.6-2.5c0-1.3-1.6-2.8-3.9-2.8C47.2,6.3,45.2,8.3,45.1,11.6"/>
	<path class="st0" d="M69,30c-4.4,0-7.7-2.2-9-5.9l-0.1-0.2h4V24c1,1.7,2.7,2.6,4.9,2.6c3.7,0,6.1-2.3,6.2-5.9
		c-1.7,1.6-3.8,2.5-6.2,2.5c-5.7,0-10.1-4.3-10.1-10c0-2.7,1-5.2,2.8-7c1.9-2,4.2-2.9,7.1-2.9c2.5,0,4.6,0.8,6.4,2.5v-2h3.8v15.8
		C78.8,26.1,75.1,30,69,30 M68.9,6.8c-3.5,0-6.3,2.8-6.3,6.3c0,3.7,2.8,6.5,6.4,6.5c3.3,0,6.2-2.9,6.2-6.3
		C75.2,9.7,72.4,6.8,68.9,6.8"/>
	<path class="st0" d="M90.1,23c-2.8,0-5.2-1-7.1-3c-1.8-1.8-2.9-4.5-2.9-7.1c0-2.7,0.9-5,2.7-6.9c2-2,4.4-3.1,7.2-3.1
		c3.4,0,6.4,1.6,8.3,4.4c1.1,1.7,1.6,3.7,1.6,6.4v0.7H84.1c0.6,3,3,4.9,6,4.9c2.2,0,4.1-1.1,5.1-3v-0.1h4.2l-0.1,0.2
		C97.6,20.7,94.3,23,90.1,23 M84.2,11.1h11.7c-0.9-2.9-3-4.6-5.8-4.6C87.3,6.5,85,8.3,84.2,11.1"/>
</g>
</svg>
