<?xml version="1.0" encoding="utf-8"?>
<!-- Generator: Adobe Illustrator 21.0.2, SVG Export Plug-In . SVG Version: 6.00 Build 0)  -->
<svg version="1.1" id="Calque_1" xmlns="http://www.w3.org/2000/svg" xmlns:xlink="http://www.w3.org/1999/xlink" x="0px" y="0px"
	 viewBox="0 0 40 40" style="enable-background:new 0 0 40 40;" xml:space="preserve">
<style type="text/css">
	.st0{fill:#FFFFFF;}
</style>
<g>
	<g>
		<path class="st0" d="M39.8,8.6c-1.5,0.6-3,1.1-4.7,1.3c1.7-1,3-2.6,3.6-4.5c-1.6,0.9-3.3,1.6-5.2,2c-1.5-1.6-3.6-2.6-5.9-2.6
			c-4.5,0-8.1,3.6-8.1,8.1c0,0.6,0.1,1.3,0.2,1.8C13,14.4,7,11.2,3,6.3c-0.7,1.2-1.1,2.6-1.1,4.1c0,2.8,1.4,5.3,3.6,6.8
			c-1.3,0-2.6-0.4-3.7-1v0.1c0,3.9,2.8,7.2,6.5,8c-0.7,0.2-1.4,0.3-2.1,0.3c-0.5,0-1-0.1-1.5-0.2c1,3.2,4,5.6,7.6,5.6
			C9.5,32.1,6,33.4,2.2,33.4c-0.7,0-1.3,0-1.9-0.1c3.6,2.3,7.9,3.7,12.4,3.7c14.9,0,23.1-12.4,23.1-23.1l0-1.1
			C37.3,11.6,38.7,10.2,39.8,8.6z"/>
	</g>
</g>
</svg>
