<?xml version="1.0" encoding="utf-8"?>
<!-- Generator: Adobe Illustrator 20.0.0, SVG Export Plug-In . SVG Version: 6.00 Build 0)  -->
<svg version="1.1" xmlns="http://www.w3.org/2000/svg" xmlns:xlink="http://www.w3.org/1999/xlink" x="0px" y="0px"
	 viewBox="0 0 442.94376 188.27763" enable-background="new 0 0 442.94376 188.27763" xml:space="preserve">
<g id="Guides" display="none">
</g>
<g id="footer">
	<g id="RS">
	</g>
</g>
<g id="contact">
	<g id="Réseaux_Sociaux">
	</g>
	<g id="form">
		<g id="btn_valider">
		</g>
	</g>
</g>
<g id="les_offres">
	<g id="personnalisation">
		<g id="thème_complet">
		</g>
		<g id="logo">
		</g>
		<g id="couleurs">
		</g>
		<g id="image_banniere">
		</g>
	</g>
	<g id="détail_flexiweb_plus">
		<g id="btn_voir_la_video">
		</g>
		<g id="timeline_1_">
			<g id="_x35__1_">
			</g>
			<g id="_x34__1_">
			</g>
			<g id="_x33__1_">
			</g>
			<g id="_x32__1_">
			</g>
			<g id="_x31__1_">
			</g>
		</g>
		<g id="etape_5">
		</g>
		<g id="etape_4">
		</g>
		<g id="etape_3">
		</g>
		<g id="etape_2">
		</g>
		<g id="etape_1">
		</g>
	</g>
	<g id="tableau">
		<g id="optiweb">
			<g id="btn_je_m_x27_inscris_3_">
			</g>
		</g>
		<g id="flexiweb__x2B_">
			<g id="btn_je_m_x27_inscris_2_">
			</g>
		</g>
		<g id="flexiweb">
			<g id="btn_je_m_x27_inscris_1_">
			</g>
		</g>
		<g id="ecoweb">
			<g id="btn_je_m_x27_inscris">
			</g>
		</g>
	</g>
</g>
<g id="photo_bkgd_pharma">
</g>
<g id="chiffres">
	<g id="_x35_0_x25_">
	</g>
	<g id="_x37_3_x25_">
	</g>
	<g id="_x37_2_x25_">
	</g>
	<g id="_x38_5_x25_">
		<g id="illu_ordi_85_x25__1_">
			<path fill="#545454" d="M321.27707,139c0,5.52284-4.47714,10-10,10h-169c-5.52286,0-10-4.47716-10-10V16
				c0-5.52285,4.47714-10,10-10h169c5.52286,0,10,4.47715,10,10V139z"/>
			<polygon fill="#545454" points="254.69164,177 247.4505,149 233.1812,149 220.61569,149 206.34639,149 199.10524,177 
				191.27707,177 191.27707,182 220.61569,182 233.1812,182 263.27707,182 263.27707,177 			"/>
			<polygon fill="#3A3A3A" fill-opacity="0.33" points="259.03995,177.78355 259.03995,177.71263 254.69164,177.71263 
				247.4505,148.74808 233.1812,148.74808 220.61569,148.74808 206.54625,148.74808 227.95354,181.12022 233.1812,181.12022 
				263.21063,181.12022 263.21063,177.78355 			"/>
			<path fill="#BBBBBA" d="M312.59912,17c-0.11066-2-1.29117-3-2.74747-3H144.79712c-1.4563,0-2.63681,1-2.74745,3h0.2274v3h2.52005
				h165.05453h2.42542v-3H312.59912z"/>
			<circle fill="#E74344" cx="145.11617" cy="17.16522" r="0.95839"/>
			<circle fill="#F7EA51" cx="148.47052" cy="17.16522" r="0.95839"/>
			<circle fill="#62B12F" cx="152.26984" cy="17.16522" r="0.95839"/>
			<rect x="142.27707" y="20" fill="#FFFFFF" width="170" height="111"/>
			<rect x="152.27707" y="29" opacity="0.17" fill="#666666" width="149" height="102"/>
			<g>
				<rect x="153.02625" y="46.56652" fill="none" width="148.17291" height="19.91899"/>
				<path fill="#00A071" d="M180.7709,47.25293h2.2793c1.79199,0,2.99902,0.59717,2.99902,2.35254
					c0,1.68262-1.19434,2.4751-2.9502,2.4751h-1.31641v3.16992h-1.01172V47.25293z M182.97696,51.25146
					c1.38965,0,2.06055-0.51172,2.06055-1.646c0-1.1582-0.70703-1.53613-2.10938-1.53613h-1.14551v3.18213H182.97696z"/>
				<path fill="#00A071" d="M187.57559,46.56982h0.99902v2.36523l-0.03613,1.21924c0.56055-0.53662,1.1582-0.9751,1.97461-0.9751
					c1.24414,0,1.80469,0.8042,1.80469,2.31641v3.75488h-1v-3.62109c0-1.10938-0.34082-1.58496-1.12109-1.58496
					c-0.60938,0-1.02441,0.31738-1.62207,0.91455v4.2915h-0.99902V46.56982z"/>
				<path fill="#00A071" d="M193.84317,53.71436c0-1.29248,1.10938-1.93848,3.63379-2.21875
					c0-0.75586-0.24414-1.48779-1.21973-1.48779c-0.68262,0-1.30469,0.31738-1.76758,0.63428l-0.39063-0.69482
					c0.54883-0.35352,1.37793-0.76807,2.3291-0.76807c1.45117,0,2.06055,0.96289,2.06055,2.43799v3.6333h-0.8291l-0.08594-0.70703
					h-0.03613c-0.56055,0.46338-1.21875,0.85352-1.96289,0.85352C194.58731,55.39697,193.84317,54.7749,193.84317,53.71436z
					 M197.47696,53.7998v-1.646c-1.97559,0.24365-2.6582,0.73145-2.6582,1.4873c0,0.67041,0.46289,0.95117,1.04883,0.95117
					C196.43985,54.59229,196.90372,54.31152,197.47696,53.7998z"/>
				<path fill="#00A071" d="M200.35587,49.3252h0.8291l0.08496,1.07275h0.03711c0.40137-0.74365,1.01172-1.21875,1.68164-1.21875
					c0.25684,0,0.43945,0.03613,0.63477,0.12158l-0.19531,0.87793c-0.19531-0.06104-0.3291-0.09766-0.57324-0.09766
					c-0.5,0-1.09766,0.36572-1.5,1.36572v3.80371h-0.99902V49.3252z"/>
				<path fill="#00A071" d="M204.58731,49.3252h0.8291l0.08496,0.85352h0.03613c0.5127-0.56104,1.13477-0.99951,1.8418-0.99951
					c0.90137,0,1.38965,0.42627,1.63379,1.13379c0.62109-0.6709,1.23047-1.13379,1.9502-1.13379
					c1.21875,0,1.80469,0.8042,1.80469,2.31641v3.75488h-1v-3.62109c0-1.10938-0.35352-1.58496-1.09766-1.58496
					c-0.46289,0-0.93848,0.30518-1.4873,0.91455v4.2915h-0.99902v-3.62109c0-1.10938-0.35352-1.58496-1.10938-1.58496
					c-0.43945,0-0.93945,0.30518-1.48828,0.91455v4.2915h-0.99902V49.3252z"/>
				<path fill="#00A071" d="M214.33047,53.71436c0-1.29248,1.10938-1.93848,3.63379-2.21875
					c0-0.75586-0.24414-1.48779-1.21973-1.48779c-0.68262,0-1.30469,0.31738-1.76758,0.63428l-0.39063-0.69482
					c0.54883-0.35352,1.37793-0.76807,2.3291-0.76807c1.45117,0,2.06055,0.96289,2.06055,2.43799v3.6333h-0.8291l-0.08594-0.70703
					h-0.03613c-0.56055,0.46338-1.21875,0.85352-1.96289,0.85352C215.07462,55.39697,214.33047,54.7749,214.33047,53.71436z
					 M217.96426,53.7998v-1.646c-1.97559,0.24365-2.6582,0.73145-2.6582,1.4873c0,0.67041,0.46289,0.95117,1.04883,0.95117
					C216.92715,54.59229,217.39102,54.31152,217.96426,53.7998z"/>
				<path fill="#00A071" d="M220.40372,52.30029c0-1.9873,1.3291-3.12109,2.85352-3.12109
					c0.78027,0,1.31641,0.31689,1.73047,0.69482l-0.51172,0.6582c-0.34082-0.30469-0.70703-0.52441-1.18262-0.52441
					c-1.07324,0-1.85352,0.92676-1.85352,2.29248c0,1.35303,0.74414,2.26758,1.8291,2.26758
					c0.54883,0,1.02441-0.26855,1.38965-0.59766l0.43945,0.6709c-0.53711,0.4751-1.20703,0.75586-1.91406,0.75586
					C221.61075,55.39697,220.40372,54.26318,220.40372,52.30029z"/>
				<path fill="#00A071" d="M226.22012,47.45996c0-0.39014,0.30566-0.646,0.69531-0.646c0.39063,0,0.69531,0.25586,0.69531,0.646
					c0,0.37793-0.30469,0.646-0.69531,0.646C226.52579,48.10596,226.22012,47.83789,226.22012,47.45996z M226.40372,49.3252h0.99902
					v5.92529h-0.99902V49.3252z"/>
				<path fill="#00A071" d="M228.96426,52.30029c0-1.93848,1.30469-3.12109,2.6582-3.12109
					c1.51172,0,2.36523,1.08496,2.36523,2.7793c0,0.20752-0.0127,0.42676-0.03711,0.57324h-3.99805
					c0.07227,1.25586,0.84082,2.06055,1.97461,2.06055c0.56055,0,1.03613-0.18311,1.47559-0.46338l0.35352,0.6582
					c-0.5127,0.3291-1.14648,0.60986-1.95117,0.60986C230.22012,55.39697,228.96426,54.23877,228.96426,52.30029z
					 M233.10977,51.8125c0-1.19482-0.53613-1.84082-1.46289-1.84082c-0.8291,0-1.58496,0.67041-1.70703,1.84082H233.10977z"/>
				<path fill="#00A071" d="M237.98965,47.25293h1.99902c2.46289,0,3.7793,1.42627,3.7793,3.96191
					c0,2.54834-1.31641,4.03564-3.73047,4.03564h-2.04785V47.25293z M239.91544,54.42139c1.86523,0,2.80469-1.18262,2.80469-3.20654
					c0-2.01172-0.93945-3.1333-2.80469-3.1333h-0.91406v6.33984H239.91544z"/>
				<path fill="#00A071" d="M245.30606,53.08057V49.3252h1.0127v3.62109c0,1.10938,0.3291,1.58496,1.10938,1.58496
					c0.60938,0,1.03613-0.30469,1.59668-1V49.3252h1v5.92529h-0.8291l-0.08594-0.92676h-0.03613
					c-0.54883,0.64648-1.13379,1.07324-1.9502,1.07324C245.86758,55.39697,245.30606,54.59229,245.30606,53.08057z"/>
				<path fill="#00A071" d="M252.02579,49.3252h0.8291l0.08496,1.07275h0.03711c0.40137-0.74365,1.01172-1.21875,1.68164-1.21875
					c0.25684,0,0.43945,0.03613,0.63477,0.12158l-0.19531,0.87793c-0.19531-0.06104-0.3291-0.09766-0.57324-0.09766
					c-0.5,0-1.09766,0.36572-1.5,1.36572v3.80371h-0.99902V49.3252z"/>
				<path fill="#00A071" d="M255.59805,53.71436c0-1.29248,1.10938-1.93848,3.63379-2.21875
					c0-0.75586-0.24414-1.48779-1.21973-1.48779c-0.68262,0-1.30469,0.31738-1.76758,0.63428l-0.39063-0.69482
					c0.54883-0.35352,1.37793-0.76807,2.3291-0.76807c1.45117,0,2.06055,0.96289,2.06055,2.43799v3.6333h-0.8291l-0.08594-0.70703
					h-0.03613c-0.56055,0.46338-1.21875,0.85352-1.96289,0.85352C256.34219,55.39697,255.59805,54.7749,255.59805,53.71436z
					 M259.23184,53.7998v-1.646c-1.97559,0.24365-2.6582,0.73145-2.6582,1.4873c0,0.67041,0.46289,0.95117,1.04883,0.95117
					C258.19473,54.59229,258.6586,54.31152,259.23184,53.7998z"/>
				<path fill="#00A071" d="M262.11075,49.3252h0.8291l0.08496,0.85352h0.03613c0.56152-0.56104,1.1709-0.99951,1.9873-0.99951
					c1.24414,0,1.80469,0.8042,1.80469,2.31641v3.75488h-1v-3.62109c0-1.10938-0.34082-1.58496-1.12109-1.58496
					c-0.60938,0-1.02441,0.31738-1.62207,0.91455v4.2915h-0.99902V49.3252z"/>
				<path fill="#00A071" d="M268.35489,52.30029c0-1.92627,1.21875-3.12109,2.57227-3.12109
					c0.68262,0,1.13379,0.25586,1.6582,0.68262l-0.04883-1.01221v-2.27979h1.01172v8.68066h-0.8291l-0.08496-0.69482h-0.03711
					c-0.46289,0.45117-1.09668,0.84131-1.79199,0.84131C269.31778,55.39697,268.35489,54.27539,268.35489,52.30029z
					 M272.53653,53.73877v-3.09668c-0.5-0.45117-0.95117-0.62207-1.43848-0.62207c-0.95117,0-1.70703,0.91455-1.70703,2.26807
					c0,1.41406,0.59766,2.26758,1.63379,2.26758C271.57364,54.55566,272.04922,54.28711,272.53653,53.73877z"/>
			</g>
			<rect x="225.27707" y="34" fill="#00A071" width="4" height="10"/>
			
				<rect x="225.77707" y="33.5" transform="matrix(6.123234e-17 -1 1 6.123234e-17 188.77707 265.77707)" fill="#00A071" width="3" height="10"/>
			<rect x="172.27707" y="66" fill="#FFFFFF" width="109" height="65"/>
			<rect x="172.27707" y="65" fill="#00A071" width="109" height="1"/>
			<g>
				<rect x="172.84361" y="69.29721" fill="none" width="108.53819" height="11.11127"/>
				<path fill="#00A071" d="M181.26212,69.63916h1.01367c0.75684,0,1.24023,0.28418,1.24023,0.91064
					c0,0.39258-0.20508,0.70557-0.58008,0.81934v0.02295c0.4834,0.07959,0.80762,0.38672,0.80762,0.90479
					c0,0.72266-0.5459,1.09277-1.39355,1.09277h-1.08789V69.63916z M182.17325,71.28955c0.76855,0,1.08105-0.27344,1.08105-0.71143
					c0-0.5293-0.36426-0.72314-1.05273-0.72314h-0.67773v1.43457H182.17325z M182.28165,73.17334
					c0.74512,0,1.20605-0.27295,1.20605-0.87061c0-0.54102-0.43848-0.79688-1.20605-0.79688h-0.75781v1.66748H182.28165z"/>
				<path fill="#00A071" d="M184.42618,69.77539c0-0.14209,0.10254-0.22754,0.22754-0.22754s0.22754,0.08545,0.22754,0.22754
					c0,0.13086-0.10254,0.22217-0.22754,0.22217S184.42618,69.90625,184.42618,69.77539z M184.52286,70.65771h0.25098v2.73193
					h-0.25098V70.65771z"/>
				<path fill="#00A071" d="M185.59805,72.0293c0-0.89355,0.58105-1.43994,1.18945-1.43994
					c0.64941,0,1.04785,0.46094,1.04785,1.26367c0,0.06836,0,0.13672-0.01172,0.20459h-1.96973
					c0.01172,0.68896,0.41602,1.18408,1.03027,1.18408c0.2959,0,0.5293-0.09668,0.73438-0.24463l0.10254,0.19336
					c-0.2168,0.13086-0.46094,0.26758-0.85938,0.26758C186.16153,73.45801,185.59805,72.92285,185.59805,72.0293z
					 M187.5961,71.85303c0-0.7002-0.31348-1.04736-0.80273-1.04736c-0.4668,0-0.88184,0.39258-0.93945,1.04736H187.5961z"/>
				<path fill="#00A071" d="M188.57462,70.65771h0.2168l0.02246,0.42139h0.0166c0.2793-0.2793,0.56348-0.48975,0.93945-0.48975
					c0.56348,0,0.8252,0.34131,0.8252,1.04736v1.75293h-0.25V71.6709c0-0.58057-0.18262-0.854-0.62598-0.854
					c-0.3252,0-0.55859,0.1709-0.89355,0.51221v2.06055h-0.25098V70.65771z"/>
				<path fill="#00A071" d="M191.14688,70.65771h0.27344l0.61426,1.71338c0.08594,0.26172,0.1875,0.53467,0.27344,0.78516h0.02246
					c0.09082-0.25049,0.18848-0.52344,0.2793-0.78516l0.61426-1.71338h0.25586l-1.0127,2.73193h-0.2959L191.14688,70.65771z"/>
				<path fill="#00A071" d="M193.84415,72.0293c0-0.89355,0.58105-1.43994,1.18945-1.43994
					c0.64941,0,1.04785,0.46094,1.04785,1.26367c0,0.06836,0,0.13672-0.01172,0.20459h-1.96973
					c0.01172,0.68896,0.41602,1.18408,1.03027,1.18408c0.2959,0,0.5293-0.09668,0.73438-0.24463l0.10254,0.19336
					c-0.2168,0.13086-0.46094,0.26758-0.85938,0.26758C194.40762,73.45801,193.84415,72.92285,193.84415,72.0293z
					 M195.84219,71.85303c0-0.7002-0.31348-1.04736-0.80273-1.04736c-0.4668,0-0.88184,0.39258-0.93945,1.04736H195.84219z"/>
				<path fill="#00A071" d="M196.82071,70.65771h0.2168l0.02246,0.42139h0.0166c0.2793-0.2793,0.56348-0.48975,0.93945-0.48975
					c0.56348,0,0.8252,0.34131,0.8252,1.04736v1.75293h-0.25V71.6709c0-0.58057-0.18262-0.854-0.62598-0.854
					c-0.3252,0-0.55859,0.1709-0.89355,0.51221v2.06055h-0.25098V70.65771z"/>
				<path fill="#00A071" d="M199.80801,72.41064v-1.75293h0.25098v1.71875c0,0.58057,0.18164,0.854,0.62012,0.854
					c0.32422,0,0.56348-0.1709,0.88184-0.55811v-2.01465h0.25098v2.73193h-0.21094l-0.02832-0.45508h-0.01172
					c-0.2666,0.31299-0.55176,0.52344-0.92773,0.52344C200.06973,73.45801,199.80801,73.11621,199.80801,72.41064z"/>
				<path fill="#00A071" d="M202.63126,72.0293c0-0.89355,0.58105-1.43994,1.18945-1.43994
					c0.64941,0,1.04785,0.46094,1.04785,1.26367c0,0.06836,0,0.13672-0.01172,0.20459h-1.96973
					c0.01172,0.68896,0.41602,1.18408,1.03027,1.18408c0.2959,0,0.5293-0.09668,0.73438-0.24463l0.10254,0.19336
					c-0.2168,0.13086-0.46094,0.26758-0.85938,0.26758C203.19473,73.45801,202.63126,72.92285,202.63126,72.0293z
					 M204.6293,71.85303c0-0.7002-0.31348-1.04736-0.80273-1.04736c-0.4668,0-0.88184,0.39258-0.93945,1.04736H204.6293z"/>
				<path fill="#00A071" d="M206.40469,73.08252l0.14844-0.18799c0.2334,0.19336,0.47852,0.34717,0.87109,0.34717
					c0.42676,0,0.64844-0.25049,0.64844-0.54053c0-0.3418-0.35254-0.48975-0.66602-0.60352
					c-0.41504-0.14795-0.87012-0.31299-0.87012-0.77979c0-0.39844,0.3125-0.72852,0.88184-0.72852
					c0.29004,0,0.58008,0.11963,0.7793,0.28467l-0.13672,0.17627c-0.18164-0.13623-0.375-0.24463-0.6543-0.24463
					c-0.4209,0-0.61426,0.24463-0.61426,0.49512c0,0.31299,0.31836,0.43262,0.64258,0.55225
					c0.42676,0.15918,0.89355,0.30176,0.89355,0.83643c0,0.41016-0.33008,0.76855-0.92188,0.76855
					C207.00235,73.45801,206.64981,73.28711,206.40469,73.08252z"/>
				<path fill="#00A071" d="M209.01114,72.41064v-1.75293h0.25098v1.71875c0,0.58057,0.18164,0.854,0.62012,0.854
					c0.32422,0,0.56348-0.1709,0.88184-0.55811v-2.01465h0.25098v2.73193h-0.21094l-0.02832-0.45508h-0.01172
					c-0.2666,0.31299-0.55176,0.52344-0.92773,0.52344C209.27286,73.45801,209.01114,73.11621,209.01114,72.41064z"/>
				<path fill="#00A071" d="M212.06192,70.65771h0.2168l0.02246,0.50635h0.0166c0.18262-0.33545,0.4502-0.57471,0.77441-0.57471
					c0.10254,0,0.18262,0.01123,0.27344,0.05713l-0.05664,0.22754c-0.0918-0.03418-0.14258-0.04541-0.25098-0.04541
					c-0.24512,0-0.53516,0.1875-0.74512,0.69971v1.86133h-0.25098V70.65771z"/>
				<path fill="#00A071" d="M215.0043,73.02539v-3.72803h0.25098v3.76221c0,0.11963,0.05078,0.17627,0.11914,0.17627
					c0.02246,0,0.0459,0,0.10254-0.01123l0.0459,0.20508c-0.05176,0.01709-0.10254,0.02832-0.18262,0.02832
					C215.11856,73.45801,215.0043,73.32129,215.0043,73.02539z"/>
				<path fill="#00A071" d="M216.1254,72.0293c0-0.89355,0.58105-1.43994,1.18945-1.43994
					c0.64941,0,1.04785,0.46094,1.04785,1.26367c0,0.06836,0,0.13672-0.01172,0.20459h-1.96973
					c0.01172,0.68896,0.41602,1.18408,1.03027,1.18408c0.2959,0,0.5293-0.09668,0.73438-0.24463l0.10254,0.19336
					c-0.2168,0.13086-0.46094,0.26758-0.85938,0.26758C216.68887,73.45801,216.1254,72.92285,216.1254,72.0293z M218.12344,71.85303
					c0-0.7002-0.31348-1.04736-0.80273-1.04736c-0.4668,0-0.88184,0.39258-0.93945,1.04736H218.12344z"/>
				<path fill="#00A071" d="M219.89883,73.08252l0.14844-0.18799c0.2334,0.19336,0.47852,0.34717,0.87109,0.34717
					c0.42676,0,0.64844-0.25049,0.64844-0.54053c0-0.3418-0.35254-0.48975-0.66602-0.60352
					c-0.41504-0.14795-0.87012-0.31299-0.87012-0.77979c0-0.39844,0.3125-0.72852,0.88184-0.72852
					c0.29004,0,0.58008,0.11963,0.7793,0.28467l-0.13672,0.17627c-0.18164-0.13623-0.375-0.24463-0.6543-0.24463
					c-0.4209,0-0.61426,0.24463-0.61426,0.49512c0,0.31299,0.31836,0.43262,0.64258,0.55225
					c0.42676,0.15918,0.89355,0.30176,0.89355,0.83643c0,0.41016-0.33008,0.76855-0.92188,0.76855
					C220.49649,73.45801,220.14395,73.28711,219.89883,73.08252z"/>
				<path fill="#00A071" d="M222.44864,69.77539c0-0.14209,0.10254-0.22754,0.22754-0.22754s0.22754,0.08545,0.22754,0.22754
					c0,0.13086-0.10254,0.22217-0.22754,0.22217S222.44864,69.90625,222.44864,69.77539z M222.54532,70.65771h0.25098v2.73193
					h-0.25098V70.65771z"/>
				<path fill="#00A071" d="M223.91055,72.63281v-1.75879h-0.42676v-0.19336l0.43262-0.02295l0.03418-0.79102h0.2168v0.79102
					h0.79102v0.21631h-0.79102v1.78125c0,0.34717,0.08496,0.58057,0.46094,0.58057c0.10254,0,0.24414-0.03955,0.34082-0.08545
					l0.06836,0.20508c-0.15918,0.05713-0.33008,0.10254-0.44336,0.10254C224.06485,73.45801,223.91055,73.12207,223.91055,72.63281z
					"/>
				<path fill="#00A071" d="M225.3334,72.0293c0-0.89355,0.58105-1.43994,1.18945-1.43994
					c0.64941,0,1.04785,0.46094,1.04785,1.26367c0,0.06836,0,0.13672-0.01172,0.20459h-1.96973
					c0.01172,0.68896,0.41602,1.18408,1.03027,1.18408c0.2959,0,0.5293-0.09668,0.73438-0.24463l0.10254,0.19336
					c-0.2168,0.13086-0.46094,0.26758-0.85938,0.26758C225.89688,73.45801,225.3334,72.92285,225.3334,72.0293z M227.33145,71.85303
					c0-0.7002-0.31348-1.04736-0.80273-1.04736c-0.4668,0-0.88184,0.39258-0.93945,1.04736H227.33145z"/>
				<path fill="#00A071" d="M229.2211,72.0293c0-0.88232,0.56348-1.43994,1.21191-1.43994
					c0.33008,0,0.55273,0.12549,0.82617,0.33594l-0.01172-0.50098v-1.12695h0.25v4.09229h-0.21582l-0.02246-0.35303h-0.01758
					c-0.22168,0.22217-0.52344,0.42139-0.8877,0.42139C229.66544,73.45801,229.2211,72.95117,229.2211,72.0293z M231.24747,72.78613
					v-1.62207c-0.29004-0.25586-0.5293-0.35254-0.79688-0.35254c-0.54688,0-0.96191,0.5293-0.96191,1.21777
					c0,0.72266,0.31836,1.20654,0.89941,1.20654C230.68985,73.23584,230.95743,73.07666,231.24747,72.78613z"/>
				<path fill="#00A071" d="M232.3168,72.0293c0-0.89355,0.58105-1.43994,1.18945-1.43994
					c0.64941,0,1.04785,0.46094,1.04785,1.26367c0,0.06836,0,0.13672-0.01172,0.20459h-1.96973
					c0.01172,0.68896,0.41602,1.18408,1.03027,1.18408c0.2959,0,0.5293-0.09668,0.73438-0.24463l0.10254,0.19336
					c-0.2168,0.13086-0.46094,0.26758-0.85938,0.26758C232.88028,73.45801,232.3168,72.92285,232.3168,72.0293z M234.31485,71.85303
					c0-0.7002-0.31348-1.04736-0.80273-1.04736c-0.4668,0-0.88184,0.39258-0.93945,1.04736H234.31485z"/>
				<path fill="#00A071" d="M235.97696,70.65771h0.27344l0.61426,1.71338c0.08594,0.26172,0.1875,0.53467,0.27344,0.78516h0.02246
					c0.09082-0.25049,0.18848-0.52344,0.2793-0.78516l0.61426-1.71338h0.25586l-1.0127,2.73193h-0.2959L235.97696,70.65771z"/>
				<path fill="#00A071" d="M238.67422,72.0293c0-0.91602,0.56934-1.43994,1.22363-1.43994
					c0.66016,0,1.22949,0.52393,1.22949,1.43994c0,0.90527-0.56934,1.42871-1.22949,1.42871
					C239.24356,73.45801,238.67422,72.93457,238.67422,72.0293z M240.86563,72.0293c0-0.72266-0.41602-1.21777-0.96777-1.21777
					s-0.96191,0.49512-0.96191,1.21777c0,0.71729,0.41016,1.20654,0.96191,1.20654S240.86563,72.74658,240.86563,72.0293z"/>
				<path fill="#00A071" d="M241.94083,72.63281v-1.75879h-0.42676v-0.19336l0.43262-0.02295l0.03418-0.79102h0.2168v0.79102
					h0.79102v0.21631h-0.79102v1.78125c0,0.34717,0.08496,0.58057,0.46094,0.58057c0.10254,0,0.24414-0.03955,0.34082-0.08545
					l0.06836,0.20508c-0.15918,0.05713-0.33008,0.10254-0.44336,0.10254C242.09512,73.45801,241.94083,73.12207,241.94083,72.63281z
					"/>
				<path fill="#00A071" d="M243.65372,70.65771h0.2168l0.02246,0.50635h0.0166c0.18262-0.33545,0.4502-0.57471,0.77441-0.57471
					c0.10254,0,0.18262,0.01123,0.27344,0.05713l-0.05664,0.22754c-0.0918-0.03418-0.14258-0.04541-0.25098-0.04541
					c-0.24512,0-0.53516,0.1875-0.74512,0.69971v1.86133h-0.25098V70.65771z"/>
				<path fill="#00A071" d="M245.17325,72.0293c0-0.89355,0.58105-1.43994,1.18945-1.43994
					c0.64941,0,1.04785,0.46094,1.04785,1.26367c0,0.06836,0,0.13672-0.01172,0.20459h-1.96973
					c0.01172,0.68896,0.41602,1.18408,1.03027,1.18408c0.2959,0,0.5293-0.09668,0.73438-0.24463l0.10254,0.19336
					c-0.2168,0.13086-0.46094,0.26758-0.85938,0.26758C245.73672,73.45801,245.17325,72.92285,245.17325,72.0293z
					 M247.1713,71.85303c0-0.7002-0.31348-1.04736-0.80273-1.04736c-0.4668,0-0.88184,0.39258-0.93945,1.04736H247.1713z"/>
				<path fill="#00A071" d="M249.3168,69.63916h0.94531c0.84766,0,1.36035,0.27295,1.36035,1.04688
					c0,0.73438-0.50098,1.09277-1.33789,1.09277h-0.70605v1.61084h-0.26172V69.63916z M250.22208,71.55713
					c0.7627,0,1.13281-0.25635,1.13281-0.87109c0-0.63184-0.38184-0.8252-1.15527-0.8252h-0.62109v1.69629H250.22208z"/>
				<path fill="#00A071" d="M252.41251,69.29736h0.25098v1.78711c0.28418-0.28467,0.56836-0.49512,0.94434-0.49512
					c0.56348,0,0.8252,0.34131,0.8252,1.04736v1.75293h-0.25V71.6709c0-0.58057-0.18262-0.854-0.62598-0.854
					c-0.3252,0-0.55859,0.1709-0.89355,0.51221v2.06055h-0.25098V69.29736z"/>
				<path fill="#00A071" d="M255.22403,72.70654c0-0.60303,0.54688-0.89355,1.76465-1.03027
					c0.00586-0.41504-0.1084-0.86475-0.64941-0.86475c-0.36426,0-0.68262,0.18213-0.87012,0.31836l-0.11426-0.1875
					c0.19336-0.13672,0.5752-0.35303,1.01855-0.35303c0.64355,0,0.86523,0.4668,0.86523,1.05322v1.74707h-0.21582l-0.02344-0.35303
					h-0.0166c-0.2793,0.22217-0.60938,0.42139-0.96777,0.42139C255.58243,73.45801,255.22403,73.22461,255.22403,72.70654z
					 M256.98868,72.79785v-0.92773c-1.12695,0.13086-1.50879,0.39258-1.50879,0.8252c0,0.39258,0.26758,0.54639,0.58105,0.54639
					C256.37344,73.2417,256.64688,73.08789,256.98868,72.79785z"/>
				<path fill="#00A071" d="M258.21133,70.65771h0.2168l0.02246,0.50635h0.0166c0.18262-0.33545,0.4502-0.57471,0.77441-0.57471
					c0.10254,0,0.18262,0.01123,0.27344,0.05713l-0.05664,0.22754c-0.0918-0.03418-0.14258-0.04541-0.25098-0.04541
					c-0.24414,0-0.53516,0.1875-0.74512,0.69971v1.86133h-0.25098V70.65771z"/>
				<path fill="#00A071" d="M260.01505,70.65771h0.2168l0.02246,0.42139h0.0166c0.24512-0.2793,0.55859-0.48975,0.86035-0.48975
					c0.4375,0,0.66016,0.22217,0.75684,0.55762c0.3125-0.34131,0.61426-0.55762,0.92773-0.55762
					c0.5459,0,0.81934,0.34131,0.81934,1.04736v1.75293h-0.25586V71.6709c0-0.58057-0.19434-0.854-0.60938-0.854
					c-0.25586,0-0.51758,0.1709-0.81934,0.51221v2.06055h-0.25098V71.6709c0-0.58057-0.19336-0.854-0.61426-0.854
					c-0.24512,0-0.51758,0.1709-0.81934,0.51221v2.06055h-0.25098V70.65771z"/>
				<path fill="#00A071" d="M264.44278,72.70654c0-0.60303,0.54688-0.89355,1.76465-1.03027
					c0.00586-0.41504-0.1084-0.86475-0.64941-0.86475c-0.36426,0-0.68262,0.18213-0.87012,0.31836l-0.11426-0.1875
					c0.19336-0.13672,0.5752-0.35303,1.01855-0.35303c0.64355,0,0.86523,0.4668,0.86523,1.05322v1.74707h-0.21582l-0.02344-0.35303
					h-0.0166c-0.2793,0.22217-0.60938,0.42139-0.96777,0.42139C264.80118,73.45801,264.44278,73.22461,264.44278,72.70654z
					 M266.20743,72.79785v-0.92773c-1.12695,0.13086-1.50879,0.39258-1.50879,0.8252c0,0.39258,0.26758,0.54639,0.58105,0.54639
					C265.59219,73.2417,265.86563,73.08789,266.20743,72.79785z"/>
				<path fill="#00A071" d="M267.20255,72.0293c0-0.91602,0.58105-1.43994,1.24609-1.43994
					c0.37598,0,0.61523,0.16504,0.80273,0.33594l-0.14746,0.17627c-0.17676-0.16504-0.38184-0.29004-0.64941-0.29004
					c-0.55762,0-0.99023,0.49512-0.99023,1.21777c0,0.71729,0.39258,1.20654,0.99023,1.20654
					c0.29004,0,0.54102-0.14209,0.72852-0.31299l0.13086,0.17676c-0.2334,0.20459-0.52344,0.3584-0.87012,0.3584
					C267.7377,73.45801,267.20255,72.93457,267.20255,72.0293z"/>
				<path fill="#00A071" d="M269.88907,69.77539c0-0.14209,0.10254-0.22754,0.22754-0.22754s0.22754,0.08545,0.22754,0.22754
					c0,0.13086-0.10254,0.22217-0.22754,0.22217S269.88907,69.90625,269.88907,69.77539z M269.98575,70.65771h0.25098v2.73193
					h-0.25098V70.65771z"/>
				<path fill="#00A071" d="M271.06094,72.0293c0-0.89355,0.58105-1.43994,1.18945-1.43994
					c0.64941,0,1.04785,0.46094,1.04785,1.26367c0,0.06836,0,0.13672-0.01172,0.20459h-1.96973
					c0.01172,0.68896,0.41602,1.18408,1.03027,1.18408c0.2959,0,0.5293-0.09668,0.73438-0.24463l0.10254,0.19336
					c-0.2168,0.13086-0.46094,0.26758-0.85938,0.26758C271.62442,73.45801,271.06094,72.92285,271.06094,72.0293z
					 M273.05899,71.85303c0-0.7002-0.31348-1.04736-0.80273-1.04736c-0.4668,0-0.88184,0.39258-0.93945,1.04736H273.05899z"/>
			</g>
			<rect x="182.27707" y="96" opacity="0.56" fill="#515151" width="88" height="1"/>
			<rect x="182.27707" y="101" opacity="0.56" fill="#515151" width="88" height="1"/>
			<rect x="182.27707" y="107" opacity="0.56" fill="#515151" width="88" height="1"/>
			<rect x="182.27707" y="112" opacity="0.56" fill="#515151" width="88" height="1"/>
			<rect x="182.27707" y="117" opacity="0.56" fill="#515151" width="88" height="1"/>
			<rect x="182.27707" y="86" opacity="0.56" fill="#515151" width="88" height="1"/>
			<rect x="182.27707" y="91" opacity="0.56" fill="#515151" width="88" height="1"/>
		</g>
	</g>
</g>
<g id="map__x2B__testimoniaux">
	<g id="testimoniaux">
	</g>
	<g id="map">
		<g id="cursor_clients">
		</g>
	</g>
</g>
<g id="_x36__bonnes_raisons_de_choisir">
	<g id="coût">
	</g>
	<g id="accompagnement">
	</g>
	<g id="satisfaction">
	</g>
	<g id="fidelisation">
	</g>
	<g id="expertise">
	</g>
	<g id="dev_service_de_proximité">
	</g>
	<g id="timeline">
	</g>
</g>
<g id="les_garanties">
	<g id="borders">
	</g>
</g>
<g id="les_objectifs">
	<g id="Augmenter">
	</g>
	<g id="Connecter">
	</g>
	<g id="Gagner">
	</g>
	<g id="Simplifier">
	</g>
	<g id="Aider">
	</g>
	<g id="Innover">
	</g>
</g>
<g id="actualités">
	<g id="btn_voir_toutes_les_actus">
	</g>
	<g id="hover_article">
	</g>
</g>
<g id="à_propos">
	<g id="btn_video_président">
	</g>
</g>
<g id="click_to_call">
</g>
<g id="home">
	<g id="bouton_téléchargez_le_livre_blanc">
	</g>
	<g id="header">
	</g>
</g>
<g id="illustration_72_x25_">
	<g id="Calque_73">
	</g>
	<g id="Calque_74">
	</g>
</g>
</svg>
