<?xml version="1.0" encoding="utf-8"?>
<!-- Generator: Adobe Illustrator 20.0.0, SVG Export Plug-In . SVG Version: 6.00 Build 0)  -->
<svg version="1.1" xmlns="http://www.w3.org/2000/svg" xmlns:xlink="http://www.w3.org/1999/xlink" x="0px" y="0px"
	 viewBox="0 0 442.94376 188.27763" enable-background="new 0 0 442.94376 188.27763" xml:space="preserve">
<g id="Guides" display="none">
</g>
<g id="footer">
	<g id="RS">
	</g>
</g>
<g id="contact">
	<g id="Réseaux_Sociaux">
	</g>
	<g id="form">
		<g id="btn_valider">
		</g>
	</g>
</g>
<g id="les_offres">
	<g id="personnalisation">
		<g id="thème_complet">
		</g>
		<g id="logo">
		</g>
		<g id="couleurs">
		</g>
		<g id="image_banniere">
		</g>
	</g>
	<g id="détail_flexiweb_plus">
		<g id="btn_voir_la_video">
		</g>
		<g id="timeline_1_">
			<g id="_x35__1_">
			</g>
			<g id="_x34__1_">
			</g>
			<g id="_x33__1_">
			</g>
			<g id="_x32__1_">
			</g>
			<g id="_x31__1_">
			</g>
		</g>
		<g id="etape_5">
		</g>
		<g id="etape_4">
		</g>
		<g id="etape_3">
		</g>
		<g id="etape_2">
		</g>
		<g id="etape_1">
		</g>
	</g>
	<g id="tableau">
		<g id="optiweb">
			<g id="btn_je_m_x27_inscris_3_">
			</g>
		</g>
		<g id="flexiweb__x2B_">
			<g id="btn_je_m_x27_inscris_2_">
			</g>
		</g>
		<g id="flexiweb">
			<g id="btn_je_m_x27_inscris_1_">
			</g>
		</g>
		<g id="ecoweb">
			<g id="btn_je_m_x27_inscris">
			</g>
		</g>
	</g>
</g>
<g id="photo_bkgd_pharma">
</g>
<g id="chiffres">
	<g id="_x35_0_x25_">
	</g>
	<g id="_x37_3_x25_">
	</g>
	<g id="_x37_2_x25_">
	</g>
	<g id="_x38_5_x25_">
	</g>
</g>
<g id="map__x2B__testimoniaux">
	<g id="testimoniaux">
	</g>
	<g id="map">
		<g id="cursor_clients">
		</g>
	</g>
</g>
<g id="_x36__bonnes_raisons_de_choisir">
	<g id="coût">
	</g>
	<g id="accompagnement">
	</g>
	<g id="satisfaction">
	</g>
	<g id="fidelisation">
	</g>
	<g id="expertise">
	</g>
	<g id="dev_service_de_proximité">
	</g>
	<g id="timeline">
	</g>
</g>
<g id="les_garanties">
	<g id="borders">
	</g>
</g>
<g id="les_objectifs">
	<g id="Augmenter">
	</g>
	<g id="Connecter">
	</g>
	<g id="Gagner">
	</g>
	<g id="Simplifier">
	</g>
	<g id="Aider">
	</g>
	<g id="Innover">
	</g>
</g>
<g id="actualités">
	<g id="btn_voir_toutes_les_actus">
	</g>
	<g id="hover_article">
	</g>
</g>
<g id="à_propos">
	<g id="btn_video_président">
	</g>
</g>
<g id="click_to_call">
</g>
<g id="home">
	<g id="bouton_téléchargez_le_livre_blanc">
	</g>
	<g id="header">
	</g>
</g>
<g id="illustration_72_x25_">
	<g id="Calque_73">
	</g>
	<g id="Calque_74">
	</g>
	<path fill="#545454" d="M301.61783,151.76662h-172.8333c-5.49999,0-9.99999-4.5-9.99999-10V15.50931c0-5.5,4.5-10,9.99999-10
		h172.8333c5.5,0,10,4.5,10,10v126.25731C311.61783,147.26662,307.11783,151.76662,301.61783,151.76662z"/>
	<polygon fill="#545454" points="243.16853,181.3663 235.76862,151.76662 221.18642,151.76662 208.34537,151.76662 
		193.76317,151.76662 186.36325,181.3663 178.52803,181.3663 178.52803,184.84862 208.34537,184.84862 221.18642,184.84862 
		251.87433,184.84862 251.87433,181.3663 	"/>
	<polygon fill="#3A3A3A" fill-opacity="0.33" points="247.61218,181.43878 247.61218,181.3663 243.16853,181.3663 
		235.76862,151.76662 221.18642,151.76662 208.34537,151.76662 193.96742,151.76662 215.84413,184.84862 221.18642,184.84862 
		251.87433,184.84862 251.87433,181.43878 	"/>
	<path fill="#BBBBBA" d="M302.34583,17.04448c-0.1131-1.45911-1.31949-2.61174-2.80771-2.61174H130.86424
		c-1.48822,0-2.69463,1.15263-2.80769,2.61174h-0.02211v3.04788h2.8298h168.67387h2.8298v-3.04788H302.34583z"/>
	<circle fill="#E74344" cx="131.19029" cy="17.2984" r="0.9794"/>
	<circle fill="#F7EA51" cx="134.61819" cy="17.2984" r="0.9794"/>
	<circle fill="#62B12F" cx="138.50082" cy="17.2984" r="0.9794"/>
	<rect x="128.03444" y="20.09236" fill="#EFEFEF" width="174.33348" height="113.17445"/>
	<path id="lannière_arriere_3_" fill="#F9F9F9" d="M293.78699,56.98844c12.29639,0,22.4718,17.21393,22.11713,41.31948
		c-0.00754,0.5118-0.00629,1.02205-0.01685,1.52977c0.05554,0.40535-0.03299,1.25492,0.66898,1.30145
		c0.58694,0.03889,0.53384-0.78278,0.61389-1.06383c0.09067-1.42823-0.12854-2.83246-0.12854-4.30184
		c0-22.15203-10.27515-40.15361-23.28473-40.15361c0,0-3.01797,0.12861-5.03589,2.04739
		c-2.01794,1.91878,0.9935,1.56532,0.9935,1.56532"/>
	<rect id="arriere_sac_3_" x="261.85336" y="87.85082" fill="#059367" width="68.45037" height="7.47093"/>
	<path id="main_3_" fill="#E9CDA0" d="M286.03329,88.04486c0,0,7.35388-9.58526,8.66891-16.16235
		c1.31506-6.5771-2.55719-11.13996-2.55719-11.13996h-6.10599c-0.02054-1.68737-3.77621-2.74975-3.77621-2.74975l-4.85791-0.98499
		c0,0,2.57462-1.27918,4.38379-1.75046c1.39166,0,3.20087-0.47128,3.20087-0.47128s5.91461-2.76035,5.77545-6.73255
		s-3.54877-2.49104-3.54877-2.49104l-4.66214,1.78751c0,0-0.90457,0-3.82712,0.03028
		c-2.85294-0.2693-5.28836,1.34651-5.28836,1.34651s0,0-6.33215,3.23162c-6.33212,3.23162-10.64633,9.68888-10.64633,9.68888
		h-2.02892c0,0-5.63602,0-6.10568,0l1.17622,24.51247h8.41965l5.21878,1.41383c0,0,4.8013,1.88512,10.71594,1.81779
		C279.77075,89.32404,286.03329,88.04486,286.03329,88.04486"/>
	<path id="ombre_paume_1_" opacity="0.31" fill="#D9A878" d="M277.39618,57.01368c0,0-1.87875,0.74058-2.01794,1.61581
		c-0.13916,0.87523,0,5.11674-1.80917,7.94441c-1.80917,2.82767-2.1571,4.10686-7.3063,6.93452
		c1.60043,1.41383,4.45337,3.56825,3.96628,7.27116c-0.48709,3.7029-3.30817,5.9482-3.30817,5.9482s-0.68716,0.80791-2.8848,1.12098
		c0,0,4.83215,1.8574,10.91254,1.51695s10.53909-1.21564,10.53909-1.21564s3.7348-3.29057,6.39636-9.67809
		c1.34921-1.86828,2.00925-3.96378,2.00925-3.96378s0.88721-2.32273,1.43518-4.64546s-2.66159-8.5335-2.66159-8.5335
		l-9.78525-3.20638L277.39618,57.01368z"/>
	<polygon id="sac_pliure_arriere_gauche_2_" fill="#068255" points="330.30374,87.85082 330.30374,93.10067 324.88388,90.67767 	"/>
	<polyline id="sac_pliure_arriere_dorite_3_" fill="#068255" points="267.38367,90.67766 261.85336,87.85082 261.85336,93.10066 	
		"/>
	<polygon id="sac_pliure_1er_plan_gauche_2_" fill="#1BBF80" points="335.93839,93.10067 324.87781,90.67767 324.87781,96.73517 	
		"/>
	<polygon id="sac_pliure_1er_plan_droite_3_" fill="#1BBF80" points="256.32309,93.10066 267.38367,90.67766 267.38367,96.73517 	
		"/>
	<polyline id="sac_face_3_" fill="#00A071" points="335.93839,93.10067 335.93839,184.97289 256.21875,184.97289 
		256.21875,93.10067 335.93839,93.10067 	"/>
	<ellipse id="trou_1_3_" fill="#494949" cx="318.87796" cy="100.67255" rx="1.56518" ry="1.51438"/>
	<ellipse id="trou_2_3_" fill="#494949" cx="273.27914" cy="100.67255" rx="1.56518" ry="1.51438"/>
	<path id="lannière_3_" fill="#FCFCFC" d="M319.49179,99.97432c-0.08005,0.28106-0.02695,1.10271-0.61389,1.06384
		c-0.70197-0.04653-0.61343-0.89611-0.66898-1.30146c0.01056-0.50771,0.01291-1.01793,0.01685-1.52977
		c0.17786-23.25423-9.96823-41.50411-22.26462-41.50411c-12.29642,0-21.86282,17.40553-22.26468,41.50411
		c-0.0087,0.52263,0.0069,1.04273,0.01788,1.56059c0,0.26782,0.13116,1.27147-0.43524,1.27188
		c-0.64795,0.00063-0.52188-0.68661-0.62643-1.24934c-0.08313-1.36846-0.1301-2.75533-0.1301-4.16143
		c0-22.15203,10.54633-40.10976,23.55597-40.10976c13.00958,0,23.55588,17.95773,23.55588,40.10976
		C319.63443,97.09801,319.58246,98.54609,319.49179,99.97432z"/>
	<polygon id="croix_pharmacie_3_" fill="#FFFFFF" points="278.89188,149 289.54675,149 289.54675,138.34512 300.40265,138.34512 
		300.40265,149 311.05753,149 311.05753,159.85591 300.40265,159.85591 300.40265,170.51079 289.54675,170.51079 
		289.54675,159.85591 278.89188,159.85591 	"/>
	<path id="auriculaire_3_" fill="#E9CDA0" d="M293.22919,85.69154c0,0,0.27835-4.01991-3.75754-4.43368
		c-4.03586,0-10.08966,0-10.08966,0s-3.40961-0.21178-3.75754,2.88519c-0.3479,3.09698,2.57782,3.39121,2.57782,3.39121
		l10.91483,0.78297C289.1171,88.31723,292.67252,88.04793,293.22919,85.69154z"/>
	<path id="ongle_auriculaire_1_" fill="#EEDEBF" d="M280.52219,82.35699l-2.25327-0.03931c0,0-1.8721,0.10423-2.01871,1.91994
		s0.86224,2.17962,0.86224,2.17962s2.04373,0.45718,2.99283,0.26975c0.94907-0.18743,1.15366-2.01915,1.15366-2.01915
		S281.30728,82.70073,280.52219,82.35699z"/>
	<path id="annulaire_1_" fill="#E9CDA0" d="M297.58423,77.27278c0,0-0.06958-3.29895-2.9921-3.50093
		c-2.92252-0.20197-14.07648-0.67325-14.07648-0.67325s-3.92258-0.03944-4.5354,2.86714
		c-0.69193,3.28178,2.66757,4.49197,2.66757,4.49197s0.8446,0.5853,10.09924,0.78728
		C294.45297,81.24499,296.81882,81.64893,297.58423,77.27278z"/>
	<path id="ongle_annulaire_1_" fill="#EEDEBF" d="M281.39099,74.24729l-2.5752-0.04492c0,0-2.13959,0.11913-2.30713,2.19426
		c-0.16757,2.07513,0.98541,2.49104,0.98541,2.49104s2.33575,0.52251,3.42044,0.3083s1.31848-2.30764,1.31848-2.30764
		S282.28824,74.64014,281.39099,74.24729z"/>
	<path id="majeur_1_" fill="#E9CDA0" d="M299.74133,69.32837c0,0,0.27835-3.9722-4.10544-4.03953
		c-4.38379-0.06732-13.08179,0-13.08179,0s-4.3819-0.57973-5.21878,2.49104c-1.10764,4.06409,2.57458,4.91476,2.57458,4.91476
		l14.32263,0.70268C294.23254,73.39733,299.60217,73.03127,299.74133,69.32837z"/>
	<path id="ongle_majeur_1_" fill="#EEDEBF" d="M283.0585,66.42528l-2.79071-0.04868c0,0-2.31863,0.1291-2.50021,2.3779
		s1.0679,2.69951,1.0679,2.69951s2.53125,0.56624,3.7067,0.3341s1.42883-2.50076,1.42883-2.50076
		S284.03085,66.85101,283.0585,66.42528z"/>
	<path id="index_1_" fill="#E9CDA0" d="M298.90634,60.39202c0,0,0.13916-3.63557-4.59256-3.50093
		c-4.73169,0.13465-9.11548,0.40395-9.11548,0.40395s-4.38379,0.06733-4.66211,3.7029
		c-0.27835,3.63557,2.36584,3.90488,2.36584,3.90488l11.64362,0.18822C294.54565,65.09105,299.11508,64.36423,298.90634,60.39202z"
		/>
	<path id="ongle_index_3_" fill="#EEDEBF" d="M286.17371,58.52136l-2.78708,0.1459c0,0-2.30301,0.29033-2.31674,2.54594
		c-0.0137,2.25562,1.26608,2.61808,1.26608,2.61808s2.5668,0.38839,3.72192,0.07495s1.23895-2.59383,1.23895-2.59383
		S287.17523,58.87823,286.17371,58.52136z"/>
	<path id="ongle_pouce_1_" fill="#EEDEBF" d="M288.09439,45.29218c0,0,0.1044,2.62569-3.49658,3.88805
		c-3.60095,1.26235-4.74908-1.16137-4.74908-1.16137v-0.60052L288.09439,45.29218z"/>
	
		<rect id="chemise" x="240.57224" y="60.8674" transform="matrix(-1 -4.486956e-11 4.486956e-11 -1 489.94153 148.40475)" fill="#E5E5E5" width="8.79706" height="26.66995"/>
	
		<rect id="blouse" x="128.05508" y="59.01161" transform="matrix(-1 -4.489399e-11 4.489399e-11 -1 368.62732 148.40474)" fill="#FCFCFC" width="112.51714" height="30.38153"/>
	<rect id="ombre_blouse" x="128.05508" y="74.20239" opacity="0.05" fill="#525252" width="112.51714" height="15.19074"/>
	<rect id="ombre_chemise" x="240.57224" y="74.20237" opacity="0.16" fill="#525252" width="8.79708" height="13.33498"/>
</g>
</svg>
