<svg xmlns="http://www.w3.org/2000/svg" xmlns:xlink="http://www.w3.org/1999/xlink" x="0" y="0" enable-background="new 0 0 442.944 188.278" version="1.1" viewBox="0 0 442.944 188.278" xml:space="preserve"><g id="illustration_72_x25_"><rect id="etagere" width="194.411" height="2.688" x="130.379" y="60.829" fill="#CBB9B7"/><rect id="bkgd_boite_medicament_1_" width="7.498" height="13.317" x="170.8" y="47.586" fill="#F4F4F4"/><path fill="#F43768" d="M178.29799,50.80922c0,1.45521-0.45869,2.60812-1.76616,3.41155 c-1.45097,0.89162-3.2951,0.37199-4.52992,0.10717c-0.40938-0.0878-0.82668,0.01069-1.20172,0.18148v6.31503h7.4978V50.80922z"/><rect width="5.448" height="1.505" x="171.857" y="48.583" fill="#F43768"/><rect id="bkgd_boite_medicament_2_" width="7.498" height="13.317" x="163.317" y="47.608" fill="#F4F4F4"/><path fill="#F43768" d="M170.81487,50.83093c0,1.45521-0.45869,2.60812-1.76616,3.41155 c-1.45097,0.89162-3.2951,0.37199-4.52994,0.10717c-0.40936-0.0878-0.82666,0.01069-1.20171,0.18148v6.31503h7.4978V50.83093z"/><rect width="5.448" height="1.505" x="164.374" y="48.605" fill="#F43768"/><rect id="bkgd_boite_medicament_3_" width="7.498" height="13.317" x="155.892" y="47.63" fill="#F4F4F4"/><path fill="#F43768" d="M163.39005,50.85265c0,1.45521-0.45869,2.60812-1.76616,3.41155 c-1.45097,0.89162-3.2951,0.37199-4.52992,0.10717c-0.40936-0.0878-0.82668,0.01069-1.20172,0.18148v6.31503h7.4978V50.85265z"/><rect width="5.448" height="1.505" x="156.949" y="48.626" fill="#F43768"/><rect id="bkgd_boite_medicament_8_" width="7.498" height="13.317" x="148.412" y="47.586" fill="#F4F4F4"/><path fill="#F43768" d="M155.90985,50.80922c0,1.45521-0.45869,2.60812-1.76616,3.41155 c-1.45096,0.89162-3.2951,0.37199-4.52992,0.10717c-0.40936-0.0878-0.82666,0.01069-1.20172,0.18148v6.31503h7.4978V50.80922z"/><rect width="5.448" height="1.505" x="149.468" y="48.583" fill="#F43768"/><rect id="bkgd_boite_medicament_7_" width="7.498" height="13.317" x="140.929" y="47.608" fill="#F4F4F4"/><path fill="#F43768" d="M148.42673,50.83093c0,1.45521-0.45869,2.60812-1.76616,3.41155 c-1.45097,0.89162-3.2951,0.37199-4.52992,0.10717c-0.40936-0.0878-0.82668,0.01069-1.20172,0.18148v6.31503h7.4978V50.83093z"/><rect width="5.448" height="1.505" x="141.985" y="48.605" fill="#F43768"/><rect id="bkgd_boite_medicament_15_" width="7.498" height="13.317" x="170.738" y="34.247" fill="#F4F4F4"/><path fill="#F43768" d="M178.23579,37.47039c0,1.45521-0.45869,2.60812-1.76616,3.41155 c-1.45097,0.89162-3.2951,0.37199-4.52992,0.10717c-0.40936-0.0878-0.82668,0.01069-1.20172,0.18148v6.31503h7.4978V37.47039z"/><rect width="5.448" height="1.505" x="171.794" y="35.244" fill="#F43768"/><rect id="bkgd_boite_medicament_14_" width="7.498" height="13.317" x="163.255" y="34.269" fill="#F4F4F4"/><path fill="#F43768" d="M170.75267,37.4921c0,1.45521-0.45869,2.60812-1.76616,3.41155 c-1.45097,0.89162-3.2951,0.37199-4.52992,0.10717c-0.40936-0.0878-0.82668,0.01069-1.20172,0.18148v6.31503h7.4978V37.4921z"/><rect width="5.448" height="1.505" x="164.311" y="35.266" fill="#F43768"/><rect id="bkgd_boite_medicament_13_" width="7.498" height="13.317" x="155.83" y="34.291" fill="#F4F4F4"/><path fill="#F43768" d="M163.32787,37.51381c0,1.45521-0.45871,2.60812-1.76616,3.41155 c-1.45097,0.89162-3.2951,0.37199-4.52994,0.10717c-0.40936-0.0878-0.82666,0.01069-1.20171,0.18148v6.31503h7.4978V37.51381z"/><rect width="5.448" height="1.505" x="156.887" y="35.287" fill="#F43768"/><rect width="6.001" height="6.001" x="220.001" y="54.801" fill="#F7F7F7"/><rect width="1.433" height="1.703" x="222.285" y="54.801" fill="#37DAE2"/><rect width="6.001" height="6.001" x="226.109" y="54.801" fill="#F7F7F7"/><rect width="1.433" height="1.703" x="228.393" y="54.801" fill="#37DAE2"/><rect width="6.001" height="6.001" x="232.217" y="54.801" fill="#F7F7F7"/><rect width="1.433" height="1.703" x="234.501" y="54.801" fill="#37DAE2"/><rect width="6.001" height="6.001" x="238.318" y="54.801" fill="#F7F7F7"/><rect width="1.433" height="1.703" x="240.603" y="54.801" fill="#37DAE2"/><rect width="6.001" height="6.001" x="244.403" y="54.801" fill="#F7F7F7"/><rect width="1.433" height="1.703" x="246.687" y="54.801" fill="#37DAE2"/><rect width="6.001" height="6.001" x="250.511" y="54.801" fill="#F7F7F7"/><rect width="1.433" height="1.703" x="252.796" y="54.801" fill="#37DAE2"/><rect width="6.001" height="6.001" x="256.62" y="54.801" fill="#F7F7F7"/><rect width="1.433" height="1.703" x="258.904" y="54.801" fill="#37DAE2"/><rect width="6.001" height="6.001" x="262.721" y="54.801" fill="#F7F7F7"/><rect width="1.433" height="1.703" x="265.005" y="54.801" fill="#37DAE2"/><rect width="6.001" height="6.001" x="220.001" y="48.757" fill="#F7F7F7"/><rect width="1.433" height="1.703" x="222.285" y="48.757" fill="#37DAE2"/><rect width="6.001" height="6.001" x="226.109" y="48.757" fill="#F7F7F7"/><rect width="1.433" height="1.703" x="228.393" y="48.757" fill="#37DAE2"/><rect width="6.001" height="6.001" x="232.217" y="48.757" fill="#F7F7F7"/><rect width="1.433" height="1.703" x="234.501" y="48.757" fill="#37DAE2"/><rect width="6.001" height="6.001" x="238.318" y="48.757" fill="#F7F7F7"/><rect width="1.433" height="1.703" x="240.603" y="48.757" fill="#37DAE2"/><rect width="6.001" height="6.001" x="244.403" y="48.757" fill="#F7F7F7"/><rect width="1.433" height="1.703" x="246.687" y="48.757" fill="#37DAE2"/><rect width="6.001" height="6.001" x="250.511" y="48.757" fill="#F7F7F7"/><rect width="1.433" height="1.703" x="252.796" y="48.757" fill="#37DAE2"/><rect width="6.001" height="6.001" x="220.001" y="42.678" fill="#F7F7F7"/><rect width="1.433" height="1.703" x="222.285" y="42.678" fill="#37DAE2"/><rect width="6.001" height="6.001" x="226.109" y="42.678" fill="#F7F7F7"/><rect width="1.433" height="1.703" x="228.393" y="42.678" fill="#37DAE2"/><rect width="6.001" height="6.001" x="232.217" y="42.678" fill="#F7F7F7"/><rect width="1.433" height="1.703" x="234.501" y="42.678" fill="#37DAE2"/><rect width="6.001" height="6.001" x="238.318" y="42.678" fill="#F7F7F7"/><rect width="1.433" height="1.703" x="240.603" y="42.678" fill="#37DAE2"/><rect width="6.001" height="6.001" x="244.403" y="42.678" fill="#F7F7F7"/><rect width="1.433" height="1.703" x="246.687" y="42.678" fill="#37DAE2"/><rect width="6.001" height="6.001" x="250.511" y="42.678" fill="#F7F7F7"/><rect width="1.433" height="1.703" x="252.796" y="42.678" fill="#37DAE2"/><rect width="6.001" height="6.001" x="256.62" y="48.757" fill="#F7F7F7"/><rect width="1.433" height="1.703" x="258.904" y="48.757" fill="#37DAE2"/><rect width="6.001" height="6.001" x="262.721" y="48.757" fill="#F7F7F7"/><rect width="1.433" height="1.703" x="265.005" y="48.757" fill="#37DAE2"/><path id="bkgd_flacon" fill="#F5A75C" d="M183.60834,53.21742v4.65354v1.90812v0.21409c0,0.40118,0.32823,0.72942,0.7294,0.72942 h2.95851c0.40117,0,0.7294-0.32824,0.7294-0.72942v-0.21409v-1.90812v-4.65354H183.60834z"/><rect id="bouchon" width="4.996" height=".708" x="183.319" y="52.51" fill="#F4FAFF"/><rect id="ombre_bouchon" width="2.498" height=".708" x="185.817" y="52.51" fill="#111" opacity=".05"/><rect id="ombre_sous_bouchon_14_" width="4.417" height=".172" x="183.608" y="53.217" fill="#111" opacity=".18"/><rect id="etiquette" width="4.417" height="3.26" x="183.608" y="54.611" fill="#FDFDFD"/><rect id="nom_medicament" width="2.831" height=".214" x="184.477" y="54.976" fill="#3D3D3D"/><rect id="texte_6_" width="2.316" height=".094" x="185.528" y="55.807" fill="#3D3D3D"/><rect id="texte_5_" width="2.316" height=".094" x="185.528" y="56.147" fill="#3D3D3D"/><rect id="texte_4_" width="2.316" height=".094" x="185.528" y="56.498" fill="#3D3D3D"/><rect id="texte" width="2.316" height=".094" x="185.528" y="56.833" fill="#3D3D3D"/><path id="ombre_droite" fill="#111" d="M187.29625,60.72259H185.817v-7.50517h2.20865v4.65354v1.90812v0.2141 C188.02565,60.39435,187.69742,60.72259,187.29625,60.72259z" opacity=".11"/><path id="bkgd_flacon_32_" fill="#F5A75C" d="M186.28305,44.98486v4.65354v1.90812v0.21409 c0,0.40118,0.32823,0.72941,0.7294,0.72941h2.95851c0.40117,0,0.7294-0.32824,0.7294-0.72941v-0.21409V49.6384v-4.65354H186.28305z"/><rect id="bouchon_32_" width="4.996" height=".708" x="185.994" y="44.277" fill="#F4FAFF"/><rect id="ombre_bouchon_34_" width="2.498" height=".708" x="188.492" y="44.277" fill="#111" opacity=".05"/><rect id="ombre_sous_bouchon_35_" width="4.417" height=".172" x="186.283" y="44.985" fill="#111" opacity=".18"/><rect id="etiquette_32_" width="4.417" height="3.26" x="186.283" y="46.379" fill="#FDFDFD"/><rect id="nom_medicament_16_" width="2.831" height=".214" x="187.151" y="46.743" fill="#3D3D3D"/><rect id="texte_67_" width="2.316" height=".094" x="188.202" y="47.574" fill="#3D3D3D"/><rect id="texte_66_" width="2.316" height=".094" x="188.202" y="47.914" fill="#3D3D3D"/><rect id="texte_65_" width="2.316" height=".094" x="188.202" y="48.266" fill="#3D3D3D"/><rect id="texte_64_" width="2.316" height=".094" x="188.202" y="48.6" fill="#3D3D3D"/><path id="ombre_droite_32_" fill="#111" d="M189.97096,52.49002h-1.47925v-7.50516h2.20865v4.65354v1.90812 v0.21409C190.70036,52.16179,190.37213,52.49002,189.97096,52.49002z" opacity=".11"/><path id="bkgd_flacon_1_" fill="#F5A75C" d="M188.95776,53.21742v4.65354v1.90812v0.21409 c0,0.40118,0.32823,0.72942,0.72942,0.72942h2.9585c0.40117,0,0.7294-0.32824,0.7294-0.72942v-0.21409v-1.90812v-4.65354H188.95776 z"/><rect id="bouchon_1_" width="4.996" height=".708" x="188.668" y="52.51" fill="#F4FAFF"/><rect id="ombre_bouchon_13_" width="2.498" height=".708" x="191.166" y="52.51" fill="#111" opacity=".05"/><rect id="ombre_sous_bouchon_13_" width="4.417" height=".172" x="188.958" y="53.217" fill="#111" opacity=".18"/><rect id="etiquette_1_" width="4.417" height="3.26" x="188.958" y="54.611" fill="#FDFDFD"/><rect id="nom_medicament_1_" width="2.831" height=".214" x="189.826" y="54.976" fill="#3D3D3D"/><rect id="texte_18_" width="2.316" height=".094" x="190.877" y="55.807" fill="#3D3D3D"/><rect id="texte_17_" width="2.316" height=".094" x="190.877" y="56.147" fill="#3D3D3D"/><rect id="texte_16_" width="2.316" height=".094" x="190.877" y="56.498" fill="#3D3D3D"/><rect id="texte_7_" width="2.316" height=".094" x="190.877" y="56.833" fill="#3D3D3D"/><path id="ombre_droite_1_" fill="#111" d="M192.64568,60.72259h-1.47925v-7.50517h2.20866v4.65354v1.90812 v0.2141C193.37509,60.39435,193.04684,60.72259,192.64568,60.72259z" opacity=".11"/><path id="bkgd_flacon_16_" fill="#F5A75C" d="M194.23772,53.21742v4.65354v1.90812v0.21409 c0,0.40118,0.32823,0.72942,0.72942,0.72942h2.9585c0.40117,0,0.72942-0.32824,0.72942-0.72942v-0.21409v-1.90812v-4.65354 H194.23772z"/><rect id="bouchon_16_" width="4.996" height=".708" x="193.948" y="52.51" fill="#F4FAFF"/><rect id="ombre_bouchon_18_" width="2.498" height=".708" x="196.446" y="52.51" fill="#111" opacity=".05"/><rect id="ombre_sous_bouchon_19_" width="4.417" height=".172" x="194.238" y="53.217" fill="#111" opacity=".18"/><rect id="etiquette_16_" width="4.417" height="3.26" x="194.238" y="54.611" fill="#FDFDFD"/><rect id="nom_medicament_4_" width="2.831" height=".214" x="195.106" y="54.976" fill="#3D3D3D"/><rect id="texte_22_" width="2.316" height=".094" x="196.157" y="55.807" fill="#3D3D3D"/><rect id="texte_21_" width="2.316" height=".094" x="196.157" y="56.147" fill="#3D3D3D"/><rect id="texte_20_" width="2.316" height=".094" x="196.157" y="56.498" fill="#3D3D3D"/><rect id="texte_19_" width="2.316" height=".094" x="196.157" y="56.833" fill="#3D3D3D"/><path id="ombre_droite_16_" fill="#111" d="M197.92563,60.72259h-1.47925v-7.50517h2.20866v4.65354v1.90812 v0.2141C198.65504,60.39435,198.3268,60.72259,197.92563,60.72259z" opacity=".11"/><path id="bkgd_flacon_23_" fill="#F5A75C" d="M199.51767,53.21742v4.65354v1.90812v0.21409 c0,0.40118,0.32823,0.72942,0.72942,0.72942h2.9585c0.40117,0,0.72942-0.32824,0.72942-0.72942v-0.21409v-1.90812v-4.65354 H199.51767z"/><rect id="bouchon_23_" width="4.996" height=".708" x="199.228" y="52.51" fill="#F4FAFF"/><rect id="ombre_bouchon_26_" width="2.498" height=".708" x="201.726" y="52.51" fill="#111" opacity=".05"/><rect id="ombre_sous_bouchon_27_" width="4.417" height=".172" x="199.518" y="53.217" fill="#111" opacity=".18"/><rect id="etiquette_23_" width="4.417" height="3.26" x="199.518" y="54.611" fill="#FDFDFD"/><rect id="nom_medicament_8_" width="2.831" height=".214" x="200.386" y="54.976" fill="#3D3D3D"/><rect id="texte_38_" width="2.316" height=".094" x="201.437" y="55.807" fill="#3D3D3D"/><rect id="texte_37_" width="2.316" height=".094" x="201.437" y="56.147" fill="#3D3D3D"/><rect id="texte_36_" width="2.316" height=".094" x="201.437" y="56.498" fill="#3D3D3D"/><rect id="texte_35_" width="2.316" height=".094" x="201.437" y="56.833" fill="#3D3D3D"/><path id="ombre_droite_23_" fill="#111" d="M203.20558,60.72259h-1.47925v-7.50517h2.20866v4.65354v1.90812 v0.2141C203.935,60.39435,203.60675,60.72259,203.20558,60.72259z" opacity=".11"/><path id="bkgd_flacon_20_" fill="#F5A75C" d="M204.8671,53.21742v4.65354v1.90812v0.21409 c0,0.40118,0.32823,0.72942,0.72942,0.72942h2.9585c0.40118,0,0.72942-0.32824,0.72942-0.72942v-0.21409v-1.90812v-4.65354 H204.8671z"/><rect id="bouchon_20_" width="4.996" height=".708" x="204.578" y="52.51" fill="#F4FAFF"/><rect id="ombre_bouchon_23_" width="2.498" height=".708" x="207.076" y="52.51" fill="#111" opacity=".05"/><rect id="ombre_sous_bouchon_24_" width="4.417" height=".172" x="204.867" y="53.217" fill="#111" opacity=".18"/><rect id="etiquette_20_" width="4.417" height="3.26" x="204.867" y="54.611" fill="#FDFDFD"/><rect id="nom_medicament_6_" width="2.831" height=".214" x="205.736" y="54.976" fill="#3D3D3D"/><rect id="texte_34_" width="2.316" height=".094" x="206.786" y="55.807" fill="#3D3D3D"/><rect id="texte_33_" width="2.316" height=".094" x="206.786" y="56.147" fill="#3D3D3D"/><rect id="texte_32_" width="2.316" height=".094" x="206.786" y="56.498" fill="#3D3D3D"/><rect id="texte_27_" width="2.316" height=".094" x="206.786" y="56.833" fill="#3D3D3D"/><path id="ombre_droite_20_" fill="#111" d="M208.55501,60.72259h-1.47925v-7.50517h2.20866v4.65354v1.90812 v0.2141C209.28442,60.39435,208.95619,60.72259,208.55501,60.72259z" opacity=".11"/><path id="bkgd_flacon_18_" fill="#F5A75C" d="M210.14705,53.21742v4.65354v1.90812v0.21409 c0,0.40118,0.32823,0.72942,0.72942,0.72942h2.9585c0.40118,0,0.72942-0.32824,0.72942-0.72942v-0.21409v-1.90812v-4.65354 H210.14705z"/><rect id="bouchon_18_" width="4.996" height=".708" x="209.858" y="52.51" fill="#F4FAFF"/><rect id="ombre_bouchon_20_" width="2.498" height=".708" x="212.356" y="52.51" fill="#111" opacity=".05"/><rect id="ombre_sous_bouchon_22_" width="4.417" height=".172" x="210.147" y="53.217" fill="#111" opacity=".18"/><rect id="etiquette_18_" width="4.417" height="3.26" x="210.147" y="54.611" fill="#FDFDFD"/><rect id="nom_medicament_5_" width="2.831" height=".214" x="211.016" y="54.976" fill="#3D3D3D"/><rect id="texte_26_" width="2.316" height=".094" x="212.066" y="55.807" fill="#3D3D3D"/><rect id="texte_25_" width="2.316" height=".094" x="212.066" y="56.147" fill="#3D3D3D"/><rect id="texte_24_" width="2.316" height=".094" x="212.066" y="56.498" fill="#3D3D3D"/><rect id="texte_23_" width="2.316" height=".094" x="212.066" y="56.833" fill="#3D3D3D"/><path id="ombre_droite_18_" fill="#111" d="M213.83496,60.72259h-1.47925v-7.50517h2.20866v4.65354v1.90812 v0.2141C214.56438,60.39435,214.23615,60.72259,213.83496,60.72259z" opacity=".11"/><path id="bkgd_flacon_30_" fill="#F5A75C" d="M191.59773,44.98486v4.65354v1.90812v0.21409 c0,0.40118,0.32823,0.72941,0.72942,0.72941h2.9585c0.40118,0,0.72942-0.32824,0.72942-0.72941v-0.21409V49.6384v-4.65354 H191.59773z"/><rect id="bouchon_30_" width="4.996" height=".708" x="191.308" y="44.277" fill="#F4FAFF"/><rect id="ombre_bouchon_32_" width="2.498" height=".708" x="193.806" y="44.277" fill="#111" opacity=".05"/><rect id="ombre_sous_bouchon_33_" width="4.417" height=".172" x="191.598" y="44.985" fill="#111" opacity=".18"/><rect id="etiquette_30_" width="4.417" height="3.26" x="191.598" y="46.379" fill="#FDFDFD"/><rect id="nom_medicament_15_" width="2.831" height=".214" x="192.466" y="46.743" fill="#3D3D3D"/><rect id="texte_63_" width="2.316" height=".094" x="193.517" y="47.574" fill="#3D3D3D"/><rect id="texte_62_" width="2.316" height=".094" x="193.517" y="47.914" fill="#3D3D3D"/><rect id="texte_61_" width="2.316" height=".094" x="193.517" y="48.266" fill="#3D3D3D"/><rect id="texte_60_" width="2.316" height=".094" x="193.517" y="48.6" fill="#3D3D3D"/><path id="ombre_droite_30_" fill="#111" d="M195.28564,52.49002h-1.47925v-7.50516h2.20866v4.65354v1.90812 v0.21409C196.01506,52.16179,195.68683,52.49002,195.28564,52.49002z" opacity=".11"/><path id="bkgd_flacon_28_" fill="#F5A75C" d="M196.94716,44.98486v4.65354v1.90812v0.21409 c0,0.40118,0.32825,0.72941,0.72942,0.72941h2.9585c0.40118,0,0.72942-0.32824,0.72942-0.72941v-0.21409V49.6384v-4.65354 H196.94716z"/><rect id="bouchon_28_" width="4.996" height=".708" x="196.658" y="44.277" fill="#F4FAFF"/><rect id="ombre_bouchon_30_" width="2.498" height=".708" x="199.156" y="44.277" fill="#111" opacity=".05"/><rect id="ombre_sous_bouchon_31_" width="4.417" height=".172" x="196.947" y="44.985" fill="#111" opacity=".18"/><rect id="etiquette_28_" width="4.417" height="3.26" x="196.947" y="46.379" fill="#FDFDFD"/><rect id="nom_medicament_10_" width="2.831" height=".214" x="197.816" y="46.743" fill="#3D3D3D"/><rect id="texte_59_" width="2.316" height=".094" x="198.866" y="47.574" fill="#3D3D3D"/><rect id="texte_58_" width="2.316" height=".094" x="198.866" y="47.914" fill="#3D3D3D"/><rect id="texte_57_" width="2.316" height=".094" x="198.866" y="48.266" fill="#3D3D3D"/><rect id="texte_43_" width="2.316" height=".094" x="198.866" y="48.6" fill="#3D3D3D"/><path id="ombre_droite_28_" fill="#111" d="M200.63507,52.49002h-1.47925v-7.50516h2.20866v4.65354v1.90812 v0.21409C201.36449,52.16179,201.03625,52.49002,200.63507,52.49002z" opacity=".11"/><path id="bkgd_flacon_26_" fill="#F5A75C" d="M202.22711,44.98486v4.65354v1.90812v0.21409 c0,0.40118,0.32825,0.72941,0.72942,0.72941h2.9585c0.40118,0,0.72942-0.32824,0.72942-0.72941v-0.21409V49.6384v-4.65354 H202.22711z"/><rect id="bouchon_26_" width="4.996" height=".708" x="201.938" y="44.277" fill="#F4FAFF"/><rect id="ombre_bouchon_28_" width="2.498" height=".708" x="204.436" y="44.277" fill="#111" opacity=".05"/><rect id="ombre_sous_bouchon_29_" width="4.417" height=".172" x="202.227" y="44.985" fill="#111" opacity=".18"/><rect id="etiquette_26_" width="4.417" height="3.26" x="202.227" y="46.379" fill="#FDFDFD"/><rect id="nom_medicament_9_" width="2.831" height=".214" x="203.096" y="46.743" fill="#3D3D3D"/><rect id="texte_42_" width="2.316" height=".094" x="204.146" y="47.574" fill="#3D3D3D"/><rect id="texte_41_" width="2.316" height=".094" x="204.146" y="47.914" fill="#3D3D3D"/><rect id="texte_40_" width="2.316" height=".094" x="204.146" y="48.266" fill="#3D3D3D"/><rect id="texte_39_" width="2.316" height=".094" x="204.146" y="48.6" fill="#3D3D3D"/><path id="ombre_droite_26_" fill="#111" d="M205.91502,52.49002h-1.47925v-7.50516h2.20866v4.65354v1.90812 v0.21409C206.64444,52.16179,206.31621,52.49002,205.91502,52.49002z" opacity=".11"/><rect id="bkgd_boite_1_" width="6.705" height="13.872" x="275.422" y="50.555" fill="#F4F4F4" transform="matrix(-1.836970e-16 1 -1 -1.836970e-16 336.26547 -221.28328)"/><linearGradient id="gradient_2_" x1="-1504.868" x2="-1496.979" y1="-1628.514" y2="-1620.624" gradientTransform="matrix(6.123234e-17 1 -1 6.123234e-17 -1345.79468 1558.41443)" gradientUnits="userSpaceOnUse"><stop offset="0" style="stop-color:#ff55f6"/><stop offset=".131" style="stop-color:#fb54f6"/><stop offset=".257" style="stop-color:#f052f7"/><stop offset=".382" style="stop-color:#dc4ef7"/><stop offset=".505" style="stop-color:#c149f8"/><stop offset=".627" style="stop-color:#9e43f9"/><stop offset=".749" style="stop-color:#733bfb"/><stop offset=".871" style="stop-color:#3f31fd"/><stop offset=".989" style="stop-color:#0626ff"/><stop offset="1" style="stop-color:#0025ff"/></linearGradient><polygon id="gradient_1_" fill="url(#gradient_2_)" fill-opacity=".41" points="271.838 58.444 271.838 56.538 285.711 56.538 285.711 58.444" opacity=".91"/><rect id="bkgd_boite_3_" width="6.705" height="13.872" x="289.369" y="50.555" fill="#F4F4F4" transform="matrix(-1.836970e-16 1 -1 -1.836970e-16 350.21219 -235.23001)"/><linearGradient id="gradient_3_" x1="-1504.868" x2="-1496.979" y1="-1642.46" y2="-1634.571" gradientTransform="matrix(6.123234e-17 1 -1 6.123234e-17 -1345.79468 1558.41443)" gradientUnits="userSpaceOnUse"><stop offset="0" style="stop-color:#ff55f6"/><stop offset=".131" style="stop-color:#fb54f6"/><stop offset=".257" style="stop-color:#f052f7"/><stop offset=".382" style="stop-color:#dc4ef7"/><stop offset=".505" style="stop-color:#c149f8"/><stop offset=".627" style="stop-color:#9e43f9"/><stop offset=".749" style="stop-color:#733bfb"/><stop offset=".871" style="stop-color:#3f31fd"/><stop offset=".989" style="stop-color:#0626ff"/><stop offset="1" style="stop-color:#0025ff"/></linearGradient><polygon id="gradient_18_" fill="url(#gradient_3_)" fill-opacity=".41" points="285.785 58.444 285.785 56.538 299.657 56.538 299.657 58.444" opacity=".91"/><rect id="bkgd_boite_4_" width="6.705" height="13.872" x="303.315" y="50.555" fill="#F4F4F4" transform="matrix(-1.836970e-16 1 -1 -1.836970e-16 364.15891 -249.17673)"/><linearGradient id="gradient_4_" x1="-1504.868" x2="-1496.979" y1="-1656.407" y2="-1648.518" gradientTransform="matrix(6.123234e-17 1 -1 6.123234e-17 -1345.79468 1558.41443)" gradientUnits="userSpaceOnUse"><stop offset="0" style="stop-color:#ff55f6"/><stop offset=".131" style="stop-color:#fb54f6"/><stop offset=".257" style="stop-color:#f052f7"/><stop offset=".382" style="stop-color:#dc4ef7"/><stop offset=".505" style="stop-color:#c149f8"/><stop offset=".627" style="stop-color:#9e43f9"/><stop offset=".749" style="stop-color:#733bfb"/><stop offset=".871" style="stop-color:#3f31fd"/><stop offset=".989" style="stop-color:#0626ff"/><stop offset="1" style="stop-color:#0025ff"/></linearGradient><polygon id="gradient_21_" fill="url(#gradient_4_)" fill-opacity=".41" points="299.732 58.444 299.732 56.538 313.604 56.538 313.604 58.444" opacity=".91"/><rect id="bkgd_boite_8_" width="6.705" height="13.872" x="275.424" y="43.786" fill="#F4F4F4" transform="matrix(-1.836970e-16 1 -1 -1.836970e-16 329.49857 -228.05385)"/><linearGradient id="gradient_5_" x1="-1511.637" x2="-1503.748" y1="-1628.515" y2="-1620.626" gradientTransform="matrix(6.123234e-17 1 -1 6.123234e-17 -1345.79468 1558.41443)" gradientUnits="userSpaceOnUse"><stop offset="0" style="stop-color:#ff55f6"/><stop offset=".131" style="stop-color:#fb54f6"/><stop offset=".257" style="stop-color:#f052f7"/><stop offset=".382" style="stop-color:#dc4ef7"/><stop offset=".505" style="stop-color:#c149f8"/><stop offset=".627" style="stop-color:#9e43f9"/><stop offset=".749" style="stop-color:#733bfb"/><stop offset=".871" style="stop-color:#3f31fd"/><stop offset=".989" style="stop-color:#0626ff"/><stop offset="1" style="stop-color:#0025ff"/></linearGradient><polygon id="gradient_28_" fill="url(#gradient_5_)" fill-opacity=".41" points="271.84 51.675 271.84 49.769 285.712 49.769 285.712 51.675" opacity=".91"/><rect id="bkgd_boite_7_" width="6.705" height="13.872" x="289.37" y="43.786" fill="#F4F4F4" transform="matrix(-1.836970e-16 1 -1 -1.836970e-16 343.44531 -242.00056)"/><linearGradient id="gradient_6_" x1="-1511.637" x2="-1503.748" y1="-1642.462" y2="-1634.573" gradientTransform="matrix(6.123234e-17 1 -1 6.123234e-17 -1345.79468 1558.41443)" gradientUnits="userSpaceOnUse"><stop offset="0" style="stop-color:#ff55f6"/><stop offset=".131" style="stop-color:#fb54f6"/><stop offset=".257" style="stop-color:#f052f7"/><stop offset=".382" style="stop-color:#dc4ef7"/><stop offset=".505" style="stop-color:#c149f8"/><stop offset=".627" style="stop-color:#9e43f9"/><stop offset=".749" style="stop-color:#733bfb"/><stop offset=".871" style="stop-color:#3f31fd"/><stop offset=".989" style="stop-color:#0626ff"/><stop offset="1" style="stop-color:#0025ff"/></linearGradient><polygon id="gradient_26_" fill="url(#gradient_6_)" fill-opacity=".41" points="285.787 51.675 285.787 49.769 299.659 49.769 299.659 51.675" opacity=".91"/><rect id="bkgd_boite_5_" width="6.705" height="13.872" x="303.317" y="43.786" fill="#F4F4F4" transform="matrix(-1.836970e-16 1 -1 -1.836970e-16 357.39203 -255.9473)"/><linearGradient id="gradient_7_" x1="-1511.637" x2="-1503.748" y1="-1656.409" y2="-1648.52" gradientTransform="matrix(6.123234e-17 1 -1 6.123234e-17 -1345.79468 1558.41443)" gradientUnits="userSpaceOnUse"><stop offset="0" style="stop-color:#ff55f6"/><stop offset=".131" style="stop-color:#fb54f6"/><stop offset=".257" style="stop-color:#f052f7"/><stop offset=".382" style="stop-color:#dc4ef7"/><stop offset=".505" style="stop-color:#c149f8"/><stop offset=".627" style="stop-color:#9e43f9"/><stop offset=".749" style="stop-color:#733bfb"/><stop offset=".871" style="stop-color:#3f31fd"/><stop offset=".989" style="stop-color:#0626ff"/><stop offset="1" style="stop-color:#0025ff"/></linearGradient><polygon id="gradient_23_" fill="url(#gradient_7_)" fill-opacity=".41" points="299.733 51.675 299.733 49.769 313.606 49.769 313.606 51.675" opacity=".91"/><rect id="bkgd_boite_12_" width="6.705" height="13.872" x="289.369" y="37.008" fill="#F4F4F4" transform="matrix(-1.836970e-16 1 -1 -1.836970e-16 336.66492 -248.77727)"/><linearGradient id="gradient_8_" x1="-1518.415" x2="-1510.526" y1="-1642.46" y2="-1634.571" gradientTransform="matrix(6.123234e-17 1 -1 6.123234e-17 -1345.79468 1558.41443)" gradientUnits="userSpaceOnUse"><stop offset="0" style="stop-color:#ff55f6"/><stop offset=".131" style="stop-color:#fb54f6"/><stop offset=".257" style="stop-color:#f052f7"/><stop offset=".382" style="stop-color:#dc4ef7"/><stop offset=".505" style="stop-color:#c149f8"/><stop offset=".627" style="stop-color:#9e43f9"/><stop offset=".749" style="stop-color:#733bfb"/><stop offset=".871" style="stop-color:#3f31fd"/><stop offset=".989" style="stop-color:#0626ff"/><stop offset="1" style="stop-color:#0025ff"/></linearGradient><polygon id="gradient_39_" fill="url(#gradient_8_)" fill-opacity=".41" points="285.785 44.897 285.785 42.991 299.657 42.991 299.657 44.897" opacity=".91"/><polygon fill="#D5D5D5" points="165.601 72.258 174.188 72.296 175.093 73.459 164.476 73.499"/><polygon fill="#F7CDAD" points="166.642 67.162 166.642 70.351 166.658 79.172 172.402 79.172 172.386 67.162"/><rect width="8.984" height="4.345" x="165.596" y="73.372" fill="#F7CDAD"/><path fill="#00A071" d="M165.62593,73.82386c0,0,0.4958,3.57872,4.15854,3.57872c3.66275,0,4.34515-3.57872,4.34515-3.57872 l-3.83865,8.31174l-0.41322,0.37854l-4.43842-7.51736L165.62593,73.82386z"/><path fill="#6F819B" d="M159.25195,115.38371c0,0,0.85094,14.83958,8.59891,14.87403 c10.11359,0.04498,10.8333-7.43701,10.8333-7.43701l1.67932-7.43702H159.25195z"/><rect width="21.059" height=".213" x="159.212" y="118.583" fill="#0A0A0A" opacity=".13"/><path fill="#F7CDAD" d="M169.57278,68.67422c0.93132-0.05481,7.16458-0.69183,8.57758-7.95197 c0.3689-7.43012,0.42162-7.7463,0.42162-7.7463s0.31618-5.16417-2.31868-7.32471c-2.54359-2.08578-5.52866-3.41286-6.68051-3.51266 V42.1322c-0.01845,0.00019-0.03889,0.00178-0.05858,0.00282c-0.01968-0.00104-0.04022-0.00262-0.05867-0.00282v0.00637 c-1.15178,0.09981-4.13692,1.42688-6.68051,3.51266c-2.63478,2.16054-2.3186,7.32471-2.3186,7.32471 s0.05272,0.31617,0.42154,7.7463c1.41307,7.26015,7.64626,7.89716,8.57758,7.95197 C169.45554,68.67422,169.5244,68.6773,169.57278,68.67422z"/><path fill="#F9E57C" d="M159.75703,55.66925v-3.74141c0,0,0-10.06491,9.7545-10.2757c5.44086,0,9.86296,4.83641,9.758,10.47488 c-0.09573,5.14243-0.00348,3.54223-0.00348,3.54223s-1.54713-0.34253-1.54713,0.36887c-0.07904-1.58088,0-4.74263,0-4.74263 s-1.90112-0.84825-1.81801-3.87315c0.81113-4.81253-12.94414-8.01141-12.647,2.05514 c-0.25951,1.03759-1.81801,1.9761-1.81801,1.9761v4.58454C161.4359,56.03812,160.86365,55.98543,159.75703,55.66925z"/><path fill="#F7CDAD" d="M161.9734,60.88615h-1.47112c-0.76578,0-0.98338-0.62654-0.98338-1.39231l-0.40894-2.90654 c0-0.76577,0.62654-1.39231,1.39232-1.39231h1.06218c0.76576,0,1.3923,0.62654,1.3923,1.39231v2.90654 C162.95677,60.25961,162.73917,60.88615,161.9734,60.88615z"/><path fill="#3B3936" d="M164.43997,53.17783v2.30428c0,0.45468,0.36859,0.82327,0.82327,0.82327h0.00729 c0.45468,0,0.82326-0.36859,0.82326-0.82327v-2.30428H164.43997z"/><circle cx="165.267" cy="55.341" r=".337" fill="#A19990"/><rect width="3.781" height=".793" x="163.373" y="52.843" fill="#E8BA69"/><path fill="#3B3936" d="M173.8855,53.18654v2.28685c0,0.45468-0.36859,0.82327-0.82327,0.82327l0,0 c-0.45467,0-0.82326-0.36859-0.82326-0.82327v-2.28685H173.8855z"/><circle cx="173.1" cy="55.341" r=".337" fill="#A19990"/><rect width="3.781" height=".793" x="171.172" y="52.843" fill="#E8BA69"/><path fill="#FFF" d="M156.80821,76.50737c0,0-2.11967,5.35325-3.88847,25.60425 c1.04112,4.71564,5.02339,1.91582,5.02339,1.91582s1.08058-14.99048,1.29633-16.26426 C159.45518,86.4894,156.80821,76.50737,156.80821,76.50737z"/><path fill="#FFF" d="M183.31055,77.19767l-2.94707,8.88665l2.17409,14.10315c0,0,0.13321,4.16269,2.09044,4.16267 c2.64983-0.00001,2.84653-1.32603,2.84653-1.32603S186.88263,84.78167,183.31055,77.19767z"/><path fill="#FCFCFC" d="M157.73476,121.83553l-4.55226,0.05404c0,0-0.87497-17.83537-0.21548-20.31447 c1.99911-2.53821,5.05641-0.50582,5.05641-0.50582L157.73476,121.83553z"/><path fill="#FCFCFC" d="M181.65211,122.53712l4.56178-0.03245c0,0,2.00677-20.27388,1.07062-22.77698 c-0.93614-2.5031-4.54224-0.55329-4.54224-0.55329L181.65211,122.53712z"/><path fill="#FFF" d="M178.86537,73.82629c0,0,3.64098-0.26846,5.05363,4.83942c-1.16826,3.5302-3.55553,7.41861-3.55553,7.41861 L178.86537,73.82629z"/><path fill="#FFF" d="M158.61389,83.67588c-0.06195-0.27836-2.4138-4.8406-2.4138-4.8406s0-3.35701,2.52867-4.16723 C158.72876,80.53838,158.61389,83.67588,158.61389,83.67588z"/><path fill="#FFF" d="M180.77049,136.49695c-0.00601-0.70857,0.10966-17.91382,0.10966-17.91382l-0.51666-31.45564v-4.58503 c0.05019-6.66758-0.77379-8.65587-0.77379-8.65587s-2.23671-0.46468-5.70421-0.82736 c-0.82326,1.49935-2.55785,9.29232-3.98668,9.2758c0,0-3.58231-6.69683-4.96881-8.89278 c-3.24207,0.4698-6.9066,1.12613-6.9066,1.69296c0,5.38131,1.27687,16.79953,2.03906,25.93628 c0,0-0.76155,12.39526-0.94057,16.79199c-0.05737,1.409-0.22115,2.56842-0.21516,4.13177l-0.19327,14.50168 C158.71347,136.49695,179.67755,136.49695,180.77049,136.49695z"/><path fill="#F7CDAD" d="M177.11064,61.09505h1.47112c0.76578,0,0.98338-0.62654,0.98338-1.39231l0.40894-2.90654 c0-0.76577-0.62654-1.39231-1.39232-1.39231h-1.06218c-0.76576,0-1.3923,0.62654-1.3923,1.39231v2.90654 C176.12727,60.46851,176.34488,61.09505,177.11064,61.09505z"/><path fill="#BA9379" d="M166.64227,62.7189h5.74385c0,0-0.68504,2.42401-2.87193,2.4767 C167.32732,65.2483,166.64227,62.7189,166.64227,62.7189z"/><path fill="#F9E57C" d="M173.25327,62.18713v5.44592c0,0-1.81937,1.04591-3.79773,1.04117 c-1.65881-0.00397-3.65965-1.0305-3.65965-1.0305v-5.46077h0.69975l0.14664,3.93862c0,0,0,1.25955,2.09258,1.49947 c0.01999-2.19244,0-2.29919,0-2.29919s0.77934,0.35987,1.53946,0.01999c0,0.71975,0.05998,2.23863,0.05998,2.23863 s2.15924-0.17935,2.17923-1.53887c0-1.29955,0-3.85865,0-3.85865L173.25327,62.18713z"/><path fill="#F9E57C" d="M165.79588,62.18294l3.19887-1.08789c0,0,0.41986,0.94794-0.11995,1.08789 c-0.53981,0.13995-2.47914,0.13995-2.47914,0.13995L165.79588,62.18294z"/><path fill="#F9E57C" d="M173.25327,62.1888l-3.19888-1.08789c0,0-0.41985,0.94208,0.11996,1.08203 c0.53981,0.13995,2.47913,0.14581,2.47913,0.14581L173.25327,62.1888z"/><polygon fill="#D5D5D5" points="174.273 72.349 172.159 77.624 169.975 82.484 173.412 78.837 172.799 77.438 175.633 76.614 175.633 73.633"/><polyline fill="#D5D5D5" points="164.241 76.64 167.075 77.464 166.462 78.863 169.899 82.51 167.715 77.65 165.601 72.375 164.241 73.597"/><polygon fill="#FFF" points="164.241 73.48 165.601 72.258 167.715 77.533 169.899 82.394 166.462 78.746 167.075 77.347 164.241 76.523"/><circle cx="169.933" cy="83.852" r=".505" fill="#EEE" stroke="#D5D5D5" stroke-miterlimit="10" stroke-width=".5"/><circle cx="169.933" cy="86.61" r=".505" fill="#EEE" stroke="#D5D5D5" stroke-miterlimit="10" stroke-width=".5"/><circle cx="169.933" cy="89.369" r=".505" fill="#EEE" stroke="#D5D5D5" stroke-miterlimit="10" stroke-width=".5"/><circle cx="169.933" cy="92.127" r=".505" fill="#EEE" stroke="#D5D5D5" stroke-miterlimit="10" stroke-width=".5"/><circle cx="169.933" cy="94.886" r=".505" fill="#EEE" stroke="#D5D5D5" stroke-miterlimit="10" stroke-width=".5"/><circle cx="169.933" cy="97.644" r=".505" fill="#EEE" stroke="#D5D5D5" stroke-miterlimit="10" stroke-width=".5"/><circle cx="169.933" cy="100.402" r=".505" fill="#EEE" stroke="#D5D5D5" stroke-miterlimit="10" stroke-width=".5"/><circle cx="169.933" cy="103.161" r=".505" fill="#EEE" stroke="#D5D5D5" stroke-miterlimit="10" stroke-width=".5"/><circle cx="169.933" cy="105.919" r=".505" fill="#EEE" stroke="#D5D5D5" stroke-miterlimit="10" stroke-width=".5"/><circle cx="169.933" cy="108.708" r=".505" fill="#EEE" stroke="#D5D5D5" stroke-miterlimit="10" stroke-width=".5"/><circle cx="169.933" cy="111.466" r=".505" fill="#EEE" stroke="#D5D5D5" stroke-miterlimit="10" stroke-width=".5"/><circle cx="169.933" cy="114.225" r=".505" fill="#EEE" stroke="#D5D5D5" stroke-miterlimit="10" stroke-width=".5"/><circle cx="169.933" cy="116.983" r=".505" fill="#EEE" stroke="#D5D5D5" stroke-miterlimit="10" stroke-width=".5"/><circle cx="169.933" cy="119.742" r=".505" fill="#EEE" stroke="#D5D5D5" stroke-miterlimit="10" stroke-width=".5"/><circle cx="169.933" cy="122.5" r=".505" fill="#EEE" stroke="#D5D5D5" stroke-miterlimit="10" stroke-width=".5"/><circle cx="169.933" cy="125.259" r=".505" fill="#EEE" stroke="#D5D5D5" stroke-miterlimit="10" stroke-width=".5"/><circle cx="169.933" cy="128.017" r=".505" fill="#EEE" stroke="#D5D5D5" stroke-miterlimit="10" stroke-width=".5"/><path fill="#0A0A0A" d="M187.28963,99.47172c-0.32025-5.13035-1.26686-15.08521-3.4575-21.03254 c-1.13374-4.61533-4.96677-4.68933-4.96677-4.68933l-0.21887-0.0442c-1.05743-0.21758-2.09863-0.36616-4.235-0.58963 c-1.53629,3.72189-3.88214,8.57351-4.51266,9.27752l0.22699,0.74802c-0.14664-0.4079-0.22699-0.6311-0.22699-0.6311v53.9865 h10.87169c0,0,0.24084-18.31715,0.04166-22.07115l-0.44867-27.43146v-1.11961l2.0872,14.08623c0,0,0.11578,0.77281,0.2077,1.38834 l-1.00629,21.18784l4.56178-0.03245C186.2139,122.50468,188.27643,102.38893,187.28963,99.47172z" opacity=".04"/><polygon fill="#FFF" points="175.548 73.518 174.188 72.296 172.073 77.572 169.89 82.432 173.327 78.784 172.714 77.386 175.548 76.561"/><rect id="comptoir" width="211.332" height="73.846" x="121.918" y="110.377" fill="#F2F2F2"/><rect id="haut_comptoir" width="218.557" height="4.379" x="118.305" y="106.188" fill="#E5E5E5"/><rect id="ombre_haut_comptoir" width="211.332" height="2.586" x="121.918" y="110.377" fill="#1E1E1E" opacity=".18"/><g id="illu_pharma_comptoir_73_x25_"><rect width="133" height="27" x="162" y="12" fill="#00A071"/><g><rect width="150.359" height="22.829" x="152.405" y="21.036" fill="none"/><path fill="#FFF" d="M172.67645,28.88232l-1.74121-3.05176h-1.31055v3.05176h-0.91406v-7.22656h2.25781 c1.47656,0,2.53418,0.52832,2.53418,2.02637c0,1.12402-0.63867,1.80664-1.61914,2.0498l1.82813,3.15039H172.67645z M169.62469,25.08154h1.21191c1.12402,0,1.75195-0.46289,1.75195-1.39941c0-0.94727-0.62793-1.28906-1.75195-1.28906h-1.21191 V25.08154z"/><path fill="#FFF" d="M174.98114,21.65576h4.16406v0.77051h-3.25v2.26953h2.74316v0.78223h-2.74316v2.62207h3.36035v0.78223 h-4.27441V21.65576z"/><path fill="#FFF" d="M182.28778,22.42627h-2.18164v-0.77051h5.28809v0.77051h-2.18164v6.45605h-0.9248V22.42627z"/><path fill="#FFF" d="M190.66278,28.88232l-1.74121-3.05176h-1.31055v3.05176h-0.91406v-7.22656h2.25781 c1.47656,0,2.53418,0.52832,2.53418,2.02637c0,1.12402-0.63867,1.80664-1.61914,2.0498l1.82813,3.15039H190.66278z M187.61102,25.08154h1.21191c1.12402,0,1.75195-0.46289,1.75195-1.39941c0-0.94727-0.62793-1.28906-1.75195-1.28906h-1.21191 V25.08154z"/><path fill="#FFF" d="M196.22821,26.6792h-2.63281l-0.69336,2.20313h-0.93652l2.44531-7.22656h1.03516l2.44629,7.22656 h-0.98047L196.22821,26.6792z M195.99774,25.94092l-0.3418-1.10156c-0.26465-0.80469-0.49609-1.59766-0.72754-2.43457h-0.04395 c-0.21973,0.83691-0.45117,1.62988-0.71582,2.43457l-0.3418,1.10156H195.99774z"/><path fill="#FFF" d="M198.91864,21.65576h0.91406v7.22656h-0.91406V21.65576z"/><path fill="#FFF" d="M203.31512,22.42627h-2.18066v-0.77051h5.28809v0.77051h-2.18164v6.45605h-0.92578V22.42627z"/><path fill="#FFF" d="M206.7663,27.9458l0.55078-0.63867c0.51758,0.54004,1.24414,0.90332,1.99414,0.90332 c0.94727,0,1.50879-0.47363,1.50879-1.17871c0-0.73828-0.51758-0.96973-1.20117-1.27832l-1.03516-0.45117 c-0.68262-0.28711-1.46484-0.80469-1.46484-1.8623c0-1.10156,0.95801-1.91699,2.26953-1.91699 c0.8584,0,1.61914,0.36328,2.13672,0.89258l-0.49609,0.59473c-0.44043-0.41895-0.96875-0.68262-1.64063-0.68262 c-0.80469,0-1.34473,0.40723-1.34473,1.05762c0,0.69336,0.62793,0.95801,1.20117,1.2002l1.02441,0.44141 c0.83691,0.36328,1.4873,0.85938,1.4873,1.92773c0,1.14551-0.93652,2.05957-2.45703,2.05957 C208.28583,29.01416,207.39423,28.59619,206.7663,27.9458z"/><path fill="#FFF" d="M214.96552,25.23584c0-2.31348,1.2666-3.71289,3.08496-3.71289c1.81738,0,3.0957,1.41016,3.0957,3.71289 c0,2.32422-1.27832,3.77832-3.0957,3.77832C216.23212,29.01416,214.96552,27.56006,214.96552,25.23584z M220.18719,25.23584 c0-1.7959-0.84766-2.9082-2.13672-2.9082s-2.1377,1.1123-2.1377,2.9082c0,1.80664,0.84863,2.97461,2.1377,2.97461 S220.18719,27.04248,220.18719,25.23584z"/><path fill="#FFF" d="M226.66766,28.88232l-1.74023-3.05176h-1.31152v3.05176h-0.91406v-7.22656h2.25879 c1.47559,0,2.5332,0.52832,2.5332,2.02637c0,1.12402-0.63867,1.80664-1.61914,2.0498l1.8291,3.15039H226.66766z M223.61591,25.08154h1.21191c1.12402,0,1.75195-0.46289,1.75195-1.39941c0-0.94727-0.62793-1.28906-1.75195-1.28906h-1.21191 V25.08154z"/><path fill="#FFF" d="M228.97333,21.65576h1.80664c2.22559,0,3.41504,1.28809,3.41504,3.58008 c0,2.30273-1.18945,3.64648-3.37109,3.64648h-1.85059V21.65576z M230.71356,28.1333c1.68555,0,2.53418-1.06836,2.53418-2.89746 c0-1.81836-0.84863-2.83105-2.53418-2.83105h-0.82617v5.72852H230.71356z"/><path fill="#FFF" d="M235.33173,25.23584c0-2.31348,1.26758-3.71289,3.08496-3.71289c1.81836,0,3.0957,1.41016,3.0957,3.71289 c0,2.32422-1.27734,3.77832-3.0957,3.77832C236.5993,29.01416,235.33173,27.56006,235.33173,25.23584z M240.55438,25.23584 c0-1.7959-0.84863-2.9082-2.1377-2.9082s-2.13672,1.1123-2.13672,2.9082c0,1.80664,0.84766,2.97461,2.13672,2.97461 S240.55438,27.04248,240.55438,25.23584z"/><path fill="#FFF" d="M243.06903,21.65576h0.94727l2.61035,4.53809l0.78223,1.49902h0.04492 c-0.04492-0.72754-0.11035-1.54297-0.11035-2.30273v-3.73438h0.87012v7.22656h-0.94727l-2.62207-4.5498l-0.78223-1.4873h-0.04395 c0.05469,0.72656,0.12109,1.49805,0.12109,2.25879v3.77832h-0.87012V21.65576z"/><path fill="#FFF" d="M250.19891,21.65576h0.94727l2.61133,4.53809l0.78223,1.49902h0.04395 c-0.04395-0.72754-0.11035-1.54297-0.11035-2.30273v-3.73438h0.87012v7.22656h-0.94727l-2.62207-4.5498l-0.78223-1.4873h-0.04395 c0.05566,0.72656,0.12109,1.49805,0.12109,2.25879v3.77832h-0.87012V21.65576z"/><path fill="#FFF" d="M260.63446,26.6792h-2.63281l-0.69434,2.20313h-0.93652l2.44629-7.22656h1.03516l2.44531,7.22656 h-0.98047L260.63446,26.6792z M260.40302,25.94092l-0.3418-1.10156c-0.26367-0.80469-0.49512-1.59766-0.72656-2.43457h-0.04395 c-0.2207,0.83691-0.45215,1.62988-0.7168,2.43457l-0.34082,1.10156H260.40302z"/><path fill="#FFF" d="M263.32489,21.65576h0.94727l2.61133,4.53809l0.78223,1.49902h0.04395 c-0.04395-0.72754-0.11035-1.54297-0.11035-2.30273v-3.73438h0.87012v7.22656h-0.94727l-2.62207-4.5498l-0.78223-1.4873h-0.04395 c0.05566,0.72656,0.12109,1.49805,0.12109,2.25879v3.77832h-0.87012V21.65576z"/><path fill="#FFF" d="M270.0368,25.26904c0-2.3252,1.36621-3.74609,3.20605-3.74609c0.88086,0,1.56445,0.41895,1.98242,0.89258 l-0.49512,0.59473c-0.38574-0.40723-0.85938-0.68262-1.47656-0.68262c-1.36621,0-2.26953,1.12305-2.26953,2.91895 c0,1.81836,0.87012,2.96387,2.23633,2.96387c0.69434,0,1.21191-0.30859,1.6748-0.81543l0.50684,0.57324 c-0.57324,0.66113-1.27832,1.0459-2.21484,1.0459C271.38055,29.01416,270.0368,27.62646,270.0368,25.26904z"/><path fill="#FFF" d="M276.74872,21.65576h4.16406v0.77051h-3.25v2.26953h2.74316v0.78223h-2.74316v2.62207h3.36035v0.78223 h-4.27441V21.65576z"/><path fill="#FFF" d="M282.02802,27.9458l0.55078-0.63867c0.51758,0.54004,1.24414,0.90332,1.99414,0.90332 c0.94727,0,1.50879-0.47363,1.50879-1.17871c0-0.73828-0.51758-0.96973-1.20117-1.27832l-1.03516-0.45117 c-0.68262-0.28711-1.46484-0.80469-1.46484-1.8623c0-1.10156,0.95801-1.91699,2.26953-1.91699 c0.8584,0,1.61914,0.36328,2.13672,0.89258l-0.49609,0.59473c-0.44043-0.41895-0.96875-0.68262-1.64063-0.68262 c-0.80469,0-1.34473,0.40723-1.34473,1.05762c0,0.69336,0.62793,0.95801,1.20117,1.2002l1.02441,0.44141 c0.83691,0.36328,1.4873,0.85938,1.4873,1.92773c0,1.14551-0.93652,2.05957-2.45703,2.05957 C283.54755,29.01416,282.65594,28.59619,282.02802,27.9458z"/></g><path fill="#444" d="M164.84566,13.60065h0.46651c0.30467,0,0.55396,0.24928,0.55396,0.55397v0.4665 c0,0.30468-0.24928,0.55397-0.55396,0.55397h-0.46651c-0.30469,0-0.55397-0.24929-0.55397-0.55397v-0.4665 C164.29169,13.84993,164.54097,13.60065,164.84566,13.60065z"/><path fill="#EFEFEF" d="M165,0v14.41888C165,14.63386,165.25475,15,165.03058,15h-0.11826C164.68814,15,164,14.63386,164,14.41888 V0"/><path fill="#444" d="M292.67035,13.60065h0.46649c0.30469,0,0.55399,0.24928,0.55399,0.55397v0.4665 c0,0.30468-0.2493,0.55397-0.55399,0.55397h-0.46649c-0.30469,0-0.55399-0.24929-0.55399-0.55397v-0.4665 C292.11636,13.84993,292.36566,13.60065,292.67035,13.60065z"/><path fill="#EFEFEF" d="M293,0v14.41888C293,14.63386,293.16708,15,292.94293,15h-0.07443C292.64432,15,292,14.63386,292,14.41888 V0"/></g></g></svg>