<?xml version="1.0" encoding="utf-8"?>
<!-- Generator: Adobe Illustrator 20.0.0, SVG Export Plug-In . SVG Version: 6.00 Build 0)  -->
<svg version="1.1" xmlns="http://www.w3.org/2000/svg" xmlns:xlink="http://www.w3.org/1999/xlink" x="0px" y="0px"
	 viewBox="0 0 442.94376 188.27763" enable-background="new 0 0 442.94376 188.27763" xml:space="preserve">
<g id="Guides" display="none">
</g>
<g id="footer">
	<g id="RS">
	</g>
</g>
<g id="contact">
	<g id="Réseaux_Sociaux">
	</g>
	<g id="form">
		<g id="btn_valider">
		</g>
	</g>
</g>
<g id="les_offres">
	<g id="personnalisation">
		<g id="thème_complet">
		</g>
		<g id="logo">
		</g>
		<g id="couleurs">
		</g>
		<g id="image_banniere">
		</g>
	</g>
	<g id="détail_flexiweb_plus">
		<g id="btn_voir_la_video">
		</g>
		<g id="timeline_1_">
			<g id="_x35__1_">
			</g>
			<g id="_x34__1_">
			</g>
			<g id="_x33__1_">
			</g>
			<g id="_x32__1_">
			</g>
			<g id="_x31__1_">
			</g>
		</g>
		<g id="etape_5">
		</g>
		<g id="etape_4">
		</g>
		<g id="etape_3">
		</g>
		<g id="etape_2">
		</g>
		<g id="etape_1">
		</g>
	</g>
	<g id="tableau">
		<g id="optiweb">
			<g id="btn_je_m_x27_inscris_3_">
			</g>
		</g>
		<g id="flexiweb__x2B_">
			<g id="btn_je_m_x27_inscris_2_">
			</g>
		</g>
		<g id="flexiweb">
			<g id="btn_je_m_x27_inscris_1_">
			</g>
		</g>
		<g id="ecoweb">
			<g id="btn_je_m_x27_inscris">
			</g>
		</g>
	</g>
</g>
<g id="photo_bkgd_pharma">
</g>
<g id="chiffres">
	<g id="_x35_0_x25_">
	</g>
	<g id="_x37_3_x25_">
	</g>
	<g id="_x37_2_x25_">
	</g>
	<g id="_x38_5_x25_">
	</g>
</g>
<g id="map__x2B__testimoniaux">
	<g id="testimoniaux">
	</g>
	<g id="map">
		<g id="cursor_clients">
		</g>
	</g>
</g>
<g id="_x36__bonnes_raisons_de_choisir">
	<g id="coût">
	</g>
	<g id="accompagnement">
	</g>
	<g id="satisfaction">
	</g>
	<g id="fidelisation">
	</g>
	<g id="expertise">
	</g>
	<g id="dev_service_de_proximité">
	</g>
	<g id="timeline">
	</g>
</g>
<g id="les_garanties">
	<g id="borders">
	</g>
</g>
<g id="les_objectifs">
	<g id="Augmenter">
	</g>
	<g id="Connecter">
	</g>
	<g id="Gagner">
	</g>
	<g id="Simplifier">
	</g>
	<g id="Aider">
	</g>
	<g id="Innover">
	</g>
</g>
<g id="actualités">
	<g id="btn_voir_toutes_les_actus">
	</g>
	<g id="hover_article">
	</g>
</g>
<g id="à_propos">
	<g id="btn_video_président">
	</g>
</g>
<g id="click_to_call">
</g>
<g id="home">
	<g id="bouton_téléchargez_le_livre_blanc">
	</g>
	<g id="header">
	</g>
</g>
<g id="illustration_72_x25_">
	<g id="Calque_73">
	</g>
	<g id="Calque_74">
	</g>
	<rect id="etagere" x="130.37875" y="60.82859" fill="#CBB9B7" width="194.41075" height="2.68836"/>
	<rect id="bkgd_boite_medicament_1_" x="170.80019" y="47.58608" fill="#F4F4F4" width="7.4978" height="13.31724"/>
	<path fill="#F43768" d="M178.29799,50.80922c0,1.45521-0.45869,2.60812-1.76616,3.41155
		c-1.45097,0.89162-3.2951,0.37199-4.52992,0.10717c-0.40938-0.0878-0.82668,0.01069-1.20172,0.18148v6.31503h7.4978V50.80922z"/>
	<rect x="171.85663" y="48.58283" fill="#F43768" width="5.44775" height="1.50547"/>
	<rect id="bkgd_boite_medicament_2_" x="163.31706" y="47.6078" fill="#F4F4F4" width="7.4978" height="13.31724"/>
	<path fill="#F43768" d="M170.81487,50.83093c0,1.45521-0.45869,2.60812-1.76616,3.41155
		c-1.45097,0.89162-3.2951,0.37199-4.52994,0.10717c-0.40936-0.0878-0.82666,0.01069-1.20171,0.18148v6.31503h7.4978V50.83093z"/>
	<rect x="164.3735" y="48.60454" fill="#F43768" width="5.44775" height="1.50547"/>
	<rect id="bkgd_boite_medicament_3_" x="155.89224" y="47.62951" fill="#F4F4F4" width="7.4978" height="13.31724"/>
	<path fill="#F43768" d="M163.39005,50.85265c0,1.45521-0.45869,2.60812-1.76616,3.41155
		c-1.45097,0.89162-3.2951,0.37199-4.52992,0.10717c-0.40936-0.0878-0.82668,0.01069-1.20172,0.18148v6.31503h7.4978V50.85265z"/>
	<rect x="156.94868" y="48.62626" fill="#F43768" width="5.44775" height="1.50547"/>
	<rect id="bkgd_boite_medicament_8_" x="148.41205" y="47.58608" fill="#F4F4F4" width="7.4978" height="13.31724"/>
	<path fill="#F43768" d="M155.90985,50.80922c0,1.45521-0.45869,2.60812-1.76616,3.41155
		c-1.45096,0.89162-3.2951,0.37199-4.52992,0.10717c-0.40936-0.0878-0.82666,0.01069-1.20172,0.18148v6.31503h7.4978V50.80922z"/>
	<rect x="149.46849" y="48.58283" fill="#F43768" width="5.44775" height="1.50547"/>
	<rect id="bkgd_boite_medicament_7_" x="140.92892" y="47.6078" fill="#F4F4F4" width="7.4978" height="13.31724"/>
	<path fill="#F43768" d="M148.42673,50.83093c0,1.45521-0.45869,2.60812-1.76616,3.41155
		c-1.45097,0.89162-3.2951,0.37199-4.52992,0.10717c-0.40936-0.0878-0.82668,0.01069-1.20172,0.18148v6.31503h7.4978V50.83093z"/>
	<rect x="141.98537" y="48.60454" fill="#F43768" width="5.44775" height="1.50547"/>
	<rect id="bkgd_boite_medicament_15_" x="170.73799" y="34.24725" fill="#F4F4F4" width="7.4978" height="13.31724"/>
	<path fill="#F43768" d="M178.23579,37.47039c0,1.45521-0.45869,2.60812-1.76616,3.41155
		c-1.45097,0.89162-3.2951,0.37199-4.52992,0.10717c-0.40936-0.0878-0.82668,0.01069-1.20172,0.18148v6.31503h7.4978V37.47039z"/>
	<rect x="171.79443" y="35.244" fill="#F43768" width="5.44775" height="1.50547"/>
	<rect id="bkgd_boite_medicament_14_" x="163.25487" y="34.26896" fill="#F4F4F4" width="7.4978" height="13.31724"/>
	<path fill="#F43768" d="M170.75267,37.4921c0,1.45521-0.45869,2.60812-1.76616,3.41155
		c-1.45097,0.89162-3.2951,0.37199-4.52992,0.10717c-0.40936-0.0878-0.82668,0.01069-1.20172,0.18148v6.31503h7.4978V37.4921z"/>
	<rect x="164.31131" y="35.26571" fill="#F43768" width="5.44775" height="1.50547"/>
	<rect id="bkgd_boite_medicament_13_" x="155.83006" y="34.29068" fill="#F4F4F4" width="7.4978" height="13.31724"/>
	<path fill="#F43768" d="M163.32787,37.51381c0,1.45521-0.45871,2.60812-1.76616,3.41155
		c-1.45097,0.89162-3.2951,0.37199-4.52994,0.10717c-0.40936-0.0878-0.82666,0.01069-1.20171,0.18148v6.31503h7.4978V37.51381z"/>
	<rect x="156.88651" y="35.28742" fill="#F43768" width="5.44775" height="1.50547"/>
	<rect x="220.00064" y="54.80118" fill="#F7F7F7" width="6.00121" height="6.00121"/>
	<rect x="222.2849" y="54.80118" fill="#37DAE2" width="1.43268" height="1.70289"/>
	<rect x="226.10893" y="54.80118" fill="#F7F7F7" width="6.00121" height="6.00121"/>
	<rect x="228.3932" y="54.80118" fill="#37DAE2" width="1.43268" height="1.70289"/>
	<rect x="232.21722" y="54.80118" fill="#F7F7F7" width="6.00121" height="6.00121"/>
	<rect x="234.5015" y="54.80118" fill="#37DAE2" width="1.43268" height="1.70289"/>
	<rect x="238.31831" y="54.80118" fill="#F7F7F7" width="6.00121" height="6.00121"/>
	<rect x="240.60258" y="54.80118" fill="#37DAE2" width="1.43268" height="1.70289"/>
	<rect x="244.40306" y="54.80118" fill="#F7F7F7" width="6.00121" height="6.00121"/>
	<rect x="246.68733" y="54.80118" fill="#37DAE2" width="1.43268" height="1.70289"/>
	<rect x="250.51135" y="54.80118" fill="#F7F7F7" width="6.00121" height="6.00121"/>
	<rect x="252.79562" y="54.80118" fill="#37DAE2" width="1.43268" height="1.70289"/>
	<rect x="256.61966" y="54.80118" fill="#F7F7F7" width="6.00121" height="6.00121"/>
	<rect x="258.90393" y="54.80118" fill="#37DAE2" width="1.43268" height="1.70289"/>
	<rect x="262.72073" y="54.80118" fill="#F7F7F7" width="6.00121" height="6.00121"/>
	<rect x="265.005" y="54.80118" fill="#37DAE2" width="1.43268" height="1.70289"/>
	<rect x="220.00064" y="48.75702" fill="#F7F7F7" width="6.00121" height="6.00121"/>
	<rect x="222.2849" y="48.75702" fill="#37DAE2" width="1.43268" height="1.70289"/>
	<rect x="226.10893" y="48.75702" fill="#F7F7F7" width="6.00121" height="6.00121"/>
	<rect x="228.3932" y="48.75702" fill="#37DAE2" width="1.43268" height="1.70289"/>
	<rect x="232.21722" y="48.75702" fill="#F7F7F7" width="6.00121" height="6.00121"/>
	<rect x="234.5015" y="48.75702" fill="#37DAE2" width="1.43268" height="1.70289"/>
	<rect x="238.31831" y="48.75702" fill="#F7F7F7" width="6.00121" height="6.00121"/>
	<rect x="240.60258" y="48.75702" fill="#37DAE2" width="1.43268" height="1.70289"/>
	<rect x="244.40306" y="48.75702" fill="#F7F7F7" width="6.00121" height="6.00121"/>
	<rect x="246.68733" y="48.75702" fill="#37DAE2" width="1.43268" height="1.70289"/>
	<rect x="250.51135" y="48.75702" fill="#F7F7F7" width="6.00121" height="6.00121"/>
	<rect x="252.79562" y="48.75702" fill="#37DAE2" width="1.43268" height="1.70289"/>
	<rect x="220.00064" y="42.67812" fill="#F7F7F7" width="6.00121" height="6.00121"/>
	<rect x="222.2849" y="42.67812" fill="#37DAE2" width="1.43268" height="1.70289"/>
	<rect x="226.10893" y="42.67812" fill="#F7F7F7" width="6.00121" height="6.00121"/>
	<rect x="228.3932" y="42.67812" fill="#37DAE2" width="1.43268" height="1.70289"/>
	<rect x="232.21722" y="42.67812" fill="#F7F7F7" width="6.00121" height="6.00121"/>
	<rect x="234.5015" y="42.67812" fill="#37DAE2" width="1.43268" height="1.70289"/>
	<rect x="238.31831" y="42.67812" fill="#F7F7F7" width="6.00121" height="6.00121"/>
	<rect x="240.60258" y="42.67812" fill="#37DAE2" width="1.43268" height="1.70289"/>
	<rect x="244.40306" y="42.67812" fill="#F7F7F7" width="6.00121" height="6.00121"/>
	<rect x="246.68733" y="42.67812" fill="#37DAE2" width="1.43268" height="1.70289"/>
	<rect x="250.51135" y="42.67812" fill="#F7F7F7" width="6.00121" height="6.00121"/>
	<rect x="252.79562" y="42.67812" fill="#37DAE2" width="1.43268" height="1.70289"/>
	<rect x="256.61966" y="48.75702" fill="#F7F7F7" width="6.00121" height="6.00121"/>
	<rect x="258.90393" y="48.75702" fill="#37DAE2" width="1.43268" height="1.70289"/>
	<rect x="262.72073" y="48.75702" fill="#F7F7F7" width="6.00121" height="6.00121"/>
	<rect x="265.005" y="48.75702" fill="#37DAE2" width="1.43268" height="1.70289"/>
	<path id="bkgd_flacon" fill="#F5A75C" d="M183.60834,53.21742v4.65354v1.90812v0.21409c0,0.40118,0.32823,0.72942,0.7294,0.72942
		h2.95851c0.40117,0,0.7294-0.32824,0.7294-0.72942v-0.21409v-1.90812v-4.65354H183.60834z"/>
	<rect id="bouchon" x="183.31885" y="52.50979" fill="#F4FAFF" width="4.99629" height="0.70763"/>
	<rect id="ombre_bouchon" x="185.817" y="52.50979" opacity="0.05" fill="#111111" width="2.49815" height="0.70763"/>
	<rect id="ombre_sous_bouchon_14_" x="183.60834" y="53.21742" opacity="0.18" fill="#111111" width="4.41733" height="0.17155"/>
	<rect id="etiquette" x="183.60834" y="54.61124" fill="#FDFDFD" width="4.41733" height="3.25973"/>
	<rect id="nom_medicament" x="184.47679" y="54.97578" fill="#3D3D3D" width="2.83052" height="0.21443"/>
	<rect id="texte_6_" x="185.52751" y="55.80658" fill="#3D3D3D" width="2.31588" height="0.09406"/>
	<rect id="texte_5_" x="185.52751" y="56.14704" fill="#3D3D3D" width="2.31588" height="0.09406"/>
	<rect id="texte_4_" x="185.52751" y="56.49825" fill="#3D3D3D" width="2.31588" height="0.09406"/>
	<rect id="texte" x="185.52751" y="56.83306" fill="#3D3D3D" width="2.31588" height="0.09406"/>
	<path id="ombre_droite" opacity="0.11" fill="#111111" d="M187.29625,60.72259H185.817v-7.50517h2.20865v4.65354v1.90812v0.2141
		C188.02565,60.39435,187.69742,60.72259,187.29625,60.72259z"/>
	<path id="bkgd_flacon_32_" fill="#F5A75C" d="M186.28305,44.98486v4.65354v1.90812v0.21409
		c0,0.40118,0.32823,0.72941,0.7294,0.72941h2.95851c0.40117,0,0.7294-0.32824,0.7294-0.72941v-0.21409V49.6384v-4.65354H186.28305z
		"/>
	<rect id="bouchon_32_" x="185.99356" y="44.27723" fill="#F4FAFF" width="4.99629" height="0.70763"/>
	<rect id="ombre_bouchon_34_" x="188.49171" y="44.27723" opacity="0.05" fill="#111111" width="2.49815" height="0.70763"/>
	<rect id="ombre_sous_bouchon_35_" x="186.28305" y="44.98486" opacity="0.18" fill="#111111" width="4.41733" height="0.17155"/>
	<rect id="etiquette_32_" x="186.28305" y="46.37868" fill="#FDFDFD" width="4.41733" height="3.25973"/>
	<rect id="nom_medicament_16_" x="187.1515" y="46.74321" fill="#3D3D3D" width="2.83052" height="0.21443"/>
	<rect id="texte_67_" x="188.20222" y="47.57402" fill="#3D3D3D" width="2.31588" height="0.09406"/>
	<rect id="texte_66_" x="188.20222" y="47.91448" fill="#3D3D3D" width="2.31588" height="0.09406"/>
	<rect id="texte_65_" x="188.20222" y="48.26569" fill="#3D3D3D" width="2.31588" height="0.09406"/>
	<rect id="texte_64_" x="188.20222" y="48.6005" fill="#3D3D3D" width="2.31588" height="0.09406"/>
	<path id="ombre_droite_32_" opacity="0.11" fill="#111111" d="M189.97096,52.49002h-1.47925v-7.50516h2.20865v4.65354v1.90812
		v0.21409C190.70036,52.16179,190.37213,52.49002,189.97096,52.49002z"/>
	<path id="bkgd_flacon_1_" fill="#F5A75C" d="M188.95776,53.21742v4.65354v1.90812v0.21409
		c0,0.40118,0.32823,0.72942,0.72942,0.72942h2.9585c0.40117,0,0.7294-0.32824,0.7294-0.72942v-0.21409v-1.90812v-4.65354H188.95776
		z"/>
	<rect id="bouchon_1_" x="188.66827" y="52.50979" fill="#F4FAFF" width="4.99629" height="0.70763"/>
	<rect id="ombre_bouchon_13_" x="191.16643" y="52.50979" opacity="0.05" fill="#111111" width="2.49815" height="0.70763"/>
	<rect id="ombre_sous_bouchon_13_" x="188.95776" y="53.21742" opacity="0.18" fill="#111111" width="4.41733" height="0.17155"/>
	<rect id="etiquette_1_" x="188.95776" y="54.61124" fill="#FDFDFD" width="4.41733" height="3.25973"/>
	<rect id="nom_medicament_1_" x="189.82622" y="54.97578" fill="#3D3D3D" width="2.83052" height="0.21443"/>
	<rect id="texte_18_" x="190.87694" y="55.80658" fill="#3D3D3D" width="2.31588" height="0.09406"/>
	<rect id="texte_17_" x="190.87694" y="56.14704" fill="#3D3D3D" width="2.31588" height="0.09406"/>
	<rect id="texte_16_" x="190.87694" y="56.49825" fill="#3D3D3D" width="2.31588" height="0.09406"/>
	<rect id="texte_7_" x="190.87694" y="56.83306" fill="#3D3D3D" width="2.31588" height="0.09406"/>
	<path id="ombre_droite_1_" opacity="0.11" fill="#111111" d="M192.64568,60.72259h-1.47925v-7.50517h2.20866v4.65354v1.90812
		v0.2141C193.37509,60.39435,193.04684,60.72259,192.64568,60.72259z"/>
	<path id="bkgd_flacon_16_" fill="#F5A75C" d="M194.23772,53.21742v4.65354v1.90812v0.21409
		c0,0.40118,0.32823,0.72942,0.72942,0.72942h2.9585c0.40117,0,0.72942-0.32824,0.72942-0.72942v-0.21409v-1.90812v-4.65354
		H194.23772z"/>
	<rect id="bouchon_16_" x="193.94823" y="52.50979" fill="#F4FAFF" width="4.99629" height="0.70763"/>
	<rect id="ombre_bouchon_18_" x="196.44638" y="52.50979" opacity="0.05" fill="#111111" width="2.49815" height="0.70763"/>
	<rect id="ombre_sous_bouchon_19_" x="194.23772" y="53.21742" opacity="0.18" fill="#111111" width="4.41733" height="0.17155"/>
	<rect id="etiquette_16_" x="194.23772" y="54.61124" fill="#FDFDFD" width="4.41733" height="3.25973"/>
	<rect id="nom_medicament_4_" x="195.10617" y="54.97578" fill="#3D3D3D" width="2.83052" height="0.21443"/>
	<rect id="texte_22_" x="196.15689" y="55.80658" fill="#3D3D3D" width="2.31588" height="0.09406"/>
	<rect id="texte_21_" x="196.15689" y="56.14704" fill="#3D3D3D" width="2.31588" height="0.09406"/>
	<rect id="texte_20_" x="196.15689" y="56.49825" fill="#3D3D3D" width="2.31588" height="0.09406"/>
	<rect id="texte_19_" x="196.15689" y="56.83306" fill="#3D3D3D" width="2.31588" height="0.09406"/>
	<path id="ombre_droite_16_" opacity="0.11" fill="#111111" d="M197.92563,60.72259h-1.47925v-7.50517h2.20866v4.65354v1.90812
		v0.2141C198.65504,60.39435,198.3268,60.72259,197.92563,60.72259z"/>
	<path id="bkgd_flacon_23_" fill="#F5A75C" d="M199.51767,53.21742v4.65354v1.90812v0.21409
		c0,0.40118,0.32823,0.72942,0.72942,0.72942h2.9585c0.40117,0,0.72942-0.32824,0.72942-0.72942v-0.21409v-1.90812v-4.65354
		H199.51767z"/>
	<rect id="bouchon_23_" x="199.22818" y="52.50979" fill="#F4FAFF" width="4.99629" height="0.70763"/>
	<rect id="ombre_bouchon_26_" x="201.72633" y="52.50979" opacity="0.05" fill="#111111" width="2.49815" height="0.70763"/>
	<rect id="ombre_sous_bouchon_27_" x="199.51767" y="53.21742" opacity="0.18" fill="#111111" width="4.41733" height="0.17155"/>
	<rect id="etiquette_23_" x="199.51767" y="54.61124" fill="#FDFDFD" width="4.41733" height="3.25973"/>
	<rect id="nom_medicament_8_" x="200.38612" y="54.97578" fill="#3D3D3D" width="2.83052" height="0.21443"/>
	<rect id="texte_38_" x="201.43684" y="55.80658" fill="#3D3D3D" width="2.31588" height="0.09406"/>
	<rect id="texte_37_" x="201.43684" y="56.14704" fill="#3D3D3D" width="2.31588" height="0.09406"/>
	<rect id="texte_36_" x="201.43684" y="56.49825" fill="#3D3D3D" width="2.31588" height="0.09406"/>
	<rect id="texte_35_" x="201.43684" y="56.83306" fill="#3D3D3D" width="2.31588" height="0.09406"/>
	<path id="ombre_droite_23_" opacity="0.11" fill="#111111" d="M203.20558,60.72259h-1.47925v-7.50517h2.20866v4.65354v1.90812
		v0.2141C203.935,60.39435,203.60675,60.72259,203.20558,60.72259z"/>
	<path id="bkgd_flacon_20_" fill="#F5A75C" d="M204.8671,53.21742v4.65354v1.90812v0.21409
		c0,0.40118,0.32823,0.72942,0.72942,0.72942h2.9585c0.40118,0,0.72942-0.32824,0.72942-0.72942v-0.21409v-1.90812v-4.65354
		H204.8671z"/>
	<rect id="bouchon_20_" x="204.57761" y="52.50979" fill="#F4FAFF" width="4.99629" height="0.70763"/>
	<rect id="ombre_bouchon_23_" x="207.07576" y="52.50979" opacity="0.05" fill="#111111" width="2.49815" height="0.70763"/>
	<rect id="ombre_sous_bouchon_24_" x="204.8671" y="53.21742" opacity="0.18" fill="#111111" width="4.41733" height="0.17155"/>
	<rect id="etiquette_20_" x="204.8671" y="54.61124" fill="#FDFDFD" width="4.41733" height="3.25973"/>
	<rect id="nom_medicament_6_" x="205.73555" y="54.97578" fill="#3D3D3D" width="2.83052" height="0.21443"/>
	<rect id="texte_34_" x="206.78627" y="55.80658" fill="#3D3D3D" width="2.31588" height="0.09406"/>
	<rect id="texte_33_" x="206.78627" y="56.14704" fill="#3D3D3D" width="2.31588" height="0.09406"/>
	<rect id="texte_32_" x="206.78627" y="56.49825" fill="#3D3D3D" width="2.31588" height="0.09406"/>
	<rect id="texte_27_" x="206.78627" y="56.83306" fill="#3D3D3D" width="2.31588" height="0.09406"/>
	<path id="ombre_droite_20_" opacity="0.11" fill="#111111" d="M208.55501,60.72259h-1.47925v-7.50517h2.20866v4.65354v1.90812
		v0.2141C209.28442,60.39435,208.95619,60.72259,208.55501,60.72259z"/>
	<path id="bkgd_flacon_18_" fill="#F5A75C" d="M210.14705,53.21742v4.65354v1.90812v0.21409
		c0,0.40118,0.32823,0.72942,0.72942,0.72942h2.9585c0.40118,0,0.72942-0.32824,0.72942-0.72942v-0.21409v-1.90812v-4.65354
		H210.14705z"/>
	<rect id="bouchon_18_" x="209.85756" y="52.50979" fill="#F4FAFF" width="4.99629" height="0.70763"/>
	<rect id="ombre_bouchon_20_" x="212.35571" y="52.50979" opacity="0.05" fill="#111111" width="2.49815" height="0.70763"/>
	<rect id="ombre_sous_bouchon_22_" x="210.14705" y="53.21742" opacity="0.18" fill="#111111" width="4.41733" height="0.17155"/>
	<rect id="etiquette_18_" x="210.14705" y="54.61124" fill="#FDFDFD" width="4.41733" height="3.25973"/>
	<rect id="nom_medicament_5_" x="211.0155" y="54.97578" fill="#3D3D3D" width="2.83052" height="0.21443"/>
	<rect id="texte_26_" x="212.06622" y="55.80658" fill="#3D3D3D" width="2.31588" height="0.09406"/>
	<rect id="texte_25_" x="212.06622" y="56.14704" fill="#3D3D3D" width="2.31588" height="0.09406"/>
	<rect id="texte_24_" x="212.06622" y="56.49825" fill="#3D3D3D" width="2.31588" height="0.09406"/>
	<rect id="texte_23_" x="212.06622" y="56.83306" fill="#3D3D3D" width="2.31588" height="0.09406"/>
	<path id="ombre_droite_18_" opacity="0.11" fill="#111111" d="M213.83496,60.72259h-1.47925v-7.50517h2.20866v4.65354v1.90812
		v0.2141C214.56438,60.39435,214.23615,60.72259,213.83496,60.72259z"/>
	<path id="bkgd_flacon_30_" fill="#F5A75C" d="M191.59773,44.98486v4.65354v1.90812v0.21409
		c0,0.40118,0.32823,0.72941,0.72942,0.72941h2.9585c0.40118,0,0.72942-0.32824,0.72942-0.72941v-0.21409V49.6384v-4.65354
		H191.59773z"/>
	<rect id="bouchon_30_" x="191.30826" y="44.27723" fill="#F4FAFF" width="4.99629" height="0.70763"/>
	<rect id="ombre_bouchon_32_" x="193.8064" y="44.27723" opacity="0.05" fill="#111111" width="2.49815" height="0.70763"/>
	<rect id="ombre_sous_bouchon_33_" x="191.59773" y="44.98486" opacity="0.18" fill="#111111" width="4.41733" height="0.17155"/>
	<rect id="etiquette_30_" x="191.59773" y="46.37868" fill="#FDFDFD" width="4.41733" height="3.25973"/>
	<rect id="nom_medicament_15_" x="192.46619" y="46.74321" fill="#3D3D3D" width="2.83052" height="0.21443"/>
	<rect id="texte_63_" x="193.51691" y="47.57402" fill="#3D3D3D" width="2.31588" height="0.09406"/>
	<rect id="texte_62_" x="193.51691" y="47.91448" fill="#3D3D3D" width="2.31588" height="0.09406"/>
	<rect id="texte_61_" x="193.51691" y="48.26569" fill="#3D3D3D" width="2.31588" height="0.09406"/>
	<rect id="texte_60_" x="193.51691" y="48.6005" fill="#3D3D3D" width="2.31588" height="0.09406"/>
	<path id="ombre_droite_30_" opacity="0.11" fill="#111111" d="M195.28564,52.49002h-1.47925v-7.50516h2.20866v4.65354v1.90812
		v0.21409C196.01506,52.16179,195.68683,52.49002,195.28564,52.49002z"/>
	<path id="bkgd_flacon_28_" fill="#F5A75C" d="M196.94716,44.98486v4.65354v1.90812v0.21409
		c0,0.40118,0.32825,0.72941,0.72942,0.72941h2.9585c0.40118,0,0.72942-0.32824,0.72942-0.72941v-0.21409V49.6384v-4.65354
		H196.94716z"/>
	<rect id="bouchon_28_" x="196.65768" y="44.27723" fill="#F4FAFF" width="4.99629" height="0.70763"/>
	<rect id="ombre_bouchon_30_" x="199.15582" y="44.27723" opacity="0.05" fill="#111111" width="2.49815" height="0.70763"/>
	<rect id="ombre_sous_bouchon_31_" x="196.94716" y="44.98486" opacity="0.18" fill="#111111" width="4.41733" height="0.17155"/>
	<rect id="etiquette_28_" x="196.94716" y="46.37868" fill="#FDFDFD" width="4.41733" height="3.25973"/>
	<rect id="nom_medicament_10_" x="197.81561" y="46.74321" fill="#3D3D3D" width="2.83052" height="0.21443"/>
	<rect id="texte_59_" x="198.86635" y="47.57402" fill="#3D3D3D" width="2.31588" height="0.09406"/>
	<rect id="texte_58_" x="198.86635" y="47.91448" fill="#3D3D3D" width="2.31588" height="0.09406"/>
	<rect id="texte_57_" x="198.86635" y="48.26569" fill="#3D3D3D" width="2.31588" height="0.09406"/>
	<rect id="texte_43_" x="198.86635" y="48.6005" fill="#3D3D3D" width="2.31588" height="0.09406"/>
	<path id="ombre_droite_28_" opacity="0.11" fill="#111111" d="M200.63507,52.49002h-1.47925v-7.50516h2.20866v4.65354v1.90812
		v0.21409C201.36449,52.16179,201.03625,52.49002,200.63507,52.49002z"/>
	<path id="bkgd_flacon_26_" fill="#F5A75C" d="M202.22711,44.98486v4.65354v1.90812v0.21409
		c0,0.40118,0.32825,0.72941,0.72942,0.72941h2.9585c0.40118,0,0.72942-0.32824,0.72942-0.72941v-0.21409V49.6384v-4.65354
		H202.22711z"/>
	<rect id="bouchon_26_" x="201.93764" y="44.27723" fill="#F4FAFF" width="4.99629" height="0.70763"/>
	<rect id="ombre_bouchon_28_" x="204.43578" y="44.27723" opacity="0.05" fill="#111111" width="2.49815" height="0.70763"/>
	<rect id="ombre_sous_bouchon_29_" x="202.22711" y="44.98486" opacity="0.18" fill="#111111" width="4.41733" height="0.17155"/>
	<rect id="etiquette_26_" x="202.22711" y="46.37868" fill="#FDFDFD" width="4.41733" height="3.25973"/>
	<rect id="nom_medicament_9_" x="203.09557" y="46.74321" fill="#3D3D3D" width="2.83052" height="0.21443"/>
	<rect id="texte_42_" x="204.1463" y="47.57402" fill="#3D3D3D" width="2.31588" height="0.09406"/>
	<rect id="texte_41_" x="204.1463" y="47.91448" fill="#3D3D3D" width="2.31588" height="0.09406"/>
	<rect id="texte_40_" x="204.1463" y="48.26569" fill="#3D3D3D" width="2.31588" height="0.09406"/>
	<rect id="texte_39_" x="204.1463" y="48.6005" fill="#3D3D3D" width="2.31588" height="0.09406"/>
	<path id="ombre_droite_26_" opacity="0.11" fill="#111111" d="M205.91502,52.49002h-1.47925v-7.50516h2.20866v4.65354v1.90812
		v0.21409C206.64444,52.16179,206.31621,52.49002,205.91502,52.49002z"/>
	
		<rect id="bkgd_boite_1_" x="275.42194" y="50.5549" transform="matrix(-1.836970e-16 1 -1 -1.836970e-16 336.26547 -221.28328)" fill="#F4F4F4" width="6.70489" height="13.87237"/>
	
		<linearGradient id="gradient_2_" gradientUnits="userSpaceOnUse" x1="-1504.86804" y1="-1628.51367" x2="-1496.97876" y2="-1620.62439" gradientTransform="matrix(6.123234e-17 1 -1 6.123234e-17 -1345.79468 1558.41443)">
		<stop  offset="0" style="stop-color:#FF55F6"/>
		<stop  offset="0.13111" style="stop-color:#FB54F6"/>
		<stop  offset="0.25738" style="stop-color:#F052F7"/>
		<stop  offset="0.38178" style="stop-color:#DC4EF7"/>
		<stop  offset="0.50501" style="stop-color:#C149F8"/>
		<stop  offset="0.62742" style="stop-color:#9E43F9"/>
		<stop  offset="0.74922" style="stop-color:#733BFB"/>
		<stop  offset="0.87061" style="stop-color:#3F31FD"/>
		<stop  offset="0.9888" style="stop-color:#0626FF"/>
		<stop  offset="1" style="stop-color:#0025FF"/>
	</linearGradient>
	<polygon id="gradient_1_" opacity="0.91" fill="url(#gradient_2_)" fill-opacity="0.41" points="271.8382,58.44414 
		271.8382,56.53804 285.71057,56.53804 285.71057,58.44414 	"/>
	
		<rect id="bkgd_boite_3_" x="289.36865" y="50.5549" transform="matrix(-1.836970e-16 1 -1 -1.836970e-16 350.21219 -235.23001)" fill="#F4F4F4" width="6.70489" height="13.87237"/>
	
		<linearGradient id="gradient_3_" gradientUnits="userSpaceOnUse" x1="-1504.86804" y1="-1642.46045" x2="-1496.97876" y2="-1634.57117" gradientTransform="matrix(6.123234e-17 1 -1 6.123234e-17 -1345.79468 1558.41443)">
		<stop  offset="0" style="stop-color:#FF55F6"/>
		<stop  offset="0.13111" style="stop-color:#FB54F6"/>
		<stop  offset="0.25738" style="stop-color:#F052F7"/>
		<stop  offset="0.38178" style="stop-color:#DC4EF7"/>
		<stop  offset="0.50501" style="stop-color:#C149F8"/>
		<stop  offset="0.62742" style="stop-color:#9E43F9"/>
		<stop  offset="0.74922" style="stop-color:#733BFB"/>
		<stop  offset="0.87061" style="stop-color:#3F31FD"/>
		<stop  offset="0.9888" style="stop-color:#0626FF"/>
		<stop  offset="1" style="stop-color:#0025FF"/>
	</linearGradient>
	<polygon id="gradient_18_" opacity="0.91" fill="url(#gradient_3_)" fill-opacity="0.41" points="285.78491,58.44414 
		285.78491,56.53804 299.65729,56.53804 299.65729,58.44414 	"/>
	
		<rect id="bkgd_boite_4_" x="303.31537" y="50.5549" transform="matrix(-1.836970e-16 1 -1 -1.836970e-16 364.15891 -249.17673)" fill="#F4F4F4" width="6.70489" height="13.87237"/>
	
		<linearGradient id="gradient_4_" gradientUnits="userSpaceOnUse" x1="-1504.86804" y1="-1656.4071" x2="-1496.97876" y2="-1648.51782" gradientTransform="matrix(6.123234e-17 1 -1 6.123234e-17 -1345.79468 1558.41443)">
		<stop  offset="0" style="stop-color:#FF55F6"/>
		<stop  offset="0.13111" style="stop-color:#FB54F6"/>
		<stop  offset="0.25738" style="stop-color:#F052F7"/>
		<stop  offset="0.38178" style="stop-color:#DC4EF7"/>
		<stop  offset="0.50501" style="stop-color:#C149F8"/>
		<stop  offset="0.62742" style="stop-color:#9E43F9"/>
		<stop  offset="0.74922" style="stop-color:#733BFB"/>
		<stop  offset="0.87061" style="stop-color:#3F31FD"/>
		<stop  offset="0.9888" style="stop-color:#0626FF"/>
		<stop  offset="1" style="stop-color:#0025FF"/>
	</linearGradient>
	<polygon id="gradient_21_" opacity="0.91" fill="url(#gradient_4_)" fill-opacity="0.41" points="299.73163,58.44414 
		299.73163,56.53804 313.604,56.53804 313.604,58.44414 	"/>
	
		<rect id="bkgd_boite_8_" x="275.42377" y="43.78618" transform="matrix(-1.836970e-16 1 -1 -1.836970e-16 329.49857 -228.05385)" fill="#F4F4F4" width="6.70489" height="13.87237"/>
	
		<linearGradient id="gradient_5_" gradientUnits="userSpaceOnUse" x1="-1511.63672" y1="-1628.5155" x2="-1503.74756" y2="-1620.62622" gradientTransform="matrix(6.123234e-17 1 -1 6.123234e-17 -1345.79468 1558.41443)">
		<stop  offset="0" style="stop-color:#FF55F6"/>
		<stop  offset="0.13111" style="stop-color:#FB54F6"/>
		<stop  offset="0.25738" style="stop-color:#F052F7"/>
		<stop  offset="0.38178" style="stop-color:#DC4EF7"/>
		<stop  offset="0.50501" style="stop-color:#C149F8"/>
		<stop  offset="0.62742" style="stop-color:#9E43F9"/>
		<stop  offset="0.74922" style="stop-color:#733BFB"/>
		<stop  offset="0.87061" style="stop-color:#3F31FD"/>
		<stop  offset="0.9888" style="stop-color:#0626FF"/>
		<stop  offset="1" style="stop-color:#0025FF"/>
	</linearGradient>
	<polygon id="gradient_28_" opacity="0.91" fill="url(#gradient_5_)" fill-opacity="0.41" points="271.84003,51.67542 
		271.84003,49.76931 285.7124,49.76931 285.7124,51.67542 	"/>
	
		<rect id="bkgd_boite_7_" x="289.37048" y="43.78618" transform="matrix(-1.836970e-16 1 -1 -1.836970e-16 343.44531 -242.00056)" fill="#F4F4F4" width="6.70489" height="13.87237"/>
	
		<linearGradient id="gradient_6_" gradientUnits="userSpaceOnUse" x1="-1511.63672" y1="-1642.46228" x2="-1503.74756" y2="-1634.573" gradientTransform="matrix(6.123234e-17 1 -1 6.123234e-17 -1345.79468 1558.41443)">
		<stop  offset="0" style="stop-color:#FF55F6"/>
		<stop  offset="0.13111" style="stop-color:#FB54F6"/>
		<stop  offset="0.25738" style="stop-color:#F052F7"/>
		<stop  offset="0.38178" style="stop-color:#DC4EF7"/>
		<stop  offset="0.50501" style="stop-color:#C149F8"/>
		<stop  offset="0.62742" style="stop-color:#9E43F9"/>
		<stop  offset="0.74922" style="stop-color:#733BFB"/>
		<stop  offset="0.87061" style="stop-color:#3F31FD"/>
		<stop  offset="0.9888" style="stop-color:#0626FF"/>
		<stop  offset="1" style="stop-color:#0025FF"/>
	</linearGradient>
	<polygon id="gradient_26_" opacity="0.91" fill="url(#gradient_6_)" fill-opacity="0.41" points="285.78674,51.67542 
		285.78674,49.76931 299.65912,49.76931 299.65912,51.67542 	"/>
	
		<rect id="bkgd_boite_5_" x="303.3172" y="43.78618" transform="matrix(-1.836970e-16 1 -1 -1.836970e-16 357.39203 -255.9473)" fill="#F4F4F4" width="6.70489" height="13.87237"/>
	
		<linearGradient id="gradient_7_" gradientUnits="userSpaceOnUse" x1="-1511.63672" y1="-1656.40894" x2="-1503.74756" y2="-1648.51978" gradientTransform="matrix(6.123234e-17 1 -1 6.123234e-17 -1345.79468 1558.41443)">
		<stop  offset="0" style="stop-color:#FF55F6"/>
		<stop  offset="0.13111" style="stop-color:#FB54F6"/>
		<stop  offset="0.25738" style="stop-color:#F052F7"/>
		<stop  offset="0.38178" style="stop-color:#DC4EF7"/>
		<stop  offset="0.50501" style="stop-color:#C149F8"/>
		<stop  offset="0.62742" style="stop-color:#9E43F9"/>
		<stop  offset="0.74922" style="stop-color:#733BFB"/>
		<stop  offset="0.87061" style="stop-color:#3F31FD"/>
		<stop  offset="0.9888" style="stop-color:#0626FF"/>
		<stop  offset="1" style="stop-color:#0025FF"/>
	</linearGradient>
	<polygon id="gradient_23_" opacity="0.91" fill="url(#gradient_7_)" fill-opacity="0.41" points="299.73346,51.67542 
		299.73346,49.76931 313.60583,49.76931 313.60583,51.67542 	"/>
	
		<rect id="bkgd_boite_12_" x="289.36865" y="37.00765" transform="matrix(-1.836970e-16 1 -1 -1.836970e-16 336.66492 -248.77727)" fill="#F4F4F4" width="6.70489" height="13.87237"/>
	
		<linearGradient id="gradient_8_" gradientUnits="userSpaceOnUse" x1="-1518.41528" y1="-1642.46045" x2="-1510.526" y2="-1634.57117" gradientTransform="matrix(6.123234e-17 1 -1 6.123234e-17 -1345.79468 1558.41443)">
		<stop  offset="0" style="stop-color:#FF55F6"/>
		<stop  offset="0.13111" style="stop-color:#FB54F6"/>
		<stop  offset="0.25738" style="stop-color:#F052F7"/>
		<stop  offset="0.38178" style="stop-color:#DC4EF7"/>
		<stop  offset="0.50501" style="stop-color:#C149F8"/>
		<stop  offset="0.62742" style="stop-color:#9E43F9"/>
		<stop  offset="0.74922" style="stop-color:#733BFB"/>
		<stop  offset="0.87061" style="stop-color:#3F31FD"/>
		<stop  offset="0.9888" style="stop-color:#0626FF"/>
		<stop  offset="1" style="stop-color:#0025FF"/>
	</linearGradient>
	<polygon id="gradient_39_" opacity="0.91" fill="url(#gradient_8_)" fill-opacity="0.41" points="285.78491,44.89688 
		285.78491,42.99078 299.65729,42.99078 299.65729,44.89688 	"/>
	<polygon fill="#D5D5D5" points="165.60098,72.25783 174.18768,72.29633 175.09261,73.45898 164.47633,73.49896 	"/>
	<polygon fill="#F7CDAD" points="166.64227,67.1619 166.64227,70.35097 166.65811,79.17197 172.40196,79.17197 172.38612,67.1619 	
		"/>
	<rect x="165.59595" y="73.37234" fill="#F7CDAD" width="8.98351" height="4.34514"/>
	<path fill="#00A071" d="M165.62593,73.82386c0,0,0.4958,3.57872,4.15854,3.57872c3.66275,0,4.34515-3.57872,4.34515-3.57872
		l-3.83865,8.31174l-0.41322,0.37854l-4.43842-7.51736L165.62593,73.82386z"/>
	<path fill="#6F819B" d="M159.25195,115.38371c0,0,0.85094,14.83958,8.59891,14.87403
		c10.11359,0.04498,10.8333-7.43701,10.8333-7.43701l1.67932-7.43702H159.25195z"/>
	<rect x="159.21234" y="118.58313" opacity="0.13" fill="#0A0A0A" width="21.05927" height="0.21326"/>
	<path fill="#F7CDAD" d="M169.57278,68.67422c0.93132-0.05481,7.16458-0.69183,8.57758-7.95197
		c0.3689-7.43012,0.42162-7.7463,0.42162-7.7463s0.31618-5.16417-2.31868-7.32471c-2.54359-2.08578-5.52866-3.41286-6.68051-3.51266
		V42.1322c-0.01845,0.00019-0.03889,0.00178-0.05858,0.00282c-0.01968-0.00104-0.04022-0.00262-0.05867-0.00282v0.00637
		c-1.15178,0.09981-4.13692,1.42688-6.68051,3.51266c-2.63478,2.16054-2.3186,7.32471-2.3186,7.32471
		s0.05272,0.31617,0.42154,7.7463c1.41307,7.26015,7.64626,7.89716,8.57758,7.95197
		C169.45554,68.67422,169.5244,68.6773,169.57278,68.67422z"/>
	<path fill="#F9E57C" d="M159.75703,55.66925v-3.74141c0,0,0-10.06491,9.7545-10.2757c5.44086,0,9.86296,4.83641,9.758,10.47488
		c-0.09573,5.14243-0.00348,3.54223-0.00348,3.54223s-1.54713-0.34253-1.54713,0.36887c-0.07904-1.58088,0-4.74263,0-4.74263
		s-1.90112-0.84825-1.81801-3.87315c0.81113-4.81253-12.94414-8.01141-12.647,2.05514
		c-0.25951,1.03759-1.81801,1.9761-1.81801,1.9761v4.58454C161.4359,56.03812,160.86365,55.98543,159.75703,55.66925z"/>
	<path fill="#F7CDAD" d="M161.9734,60.88615h-1.47112c-0.76578,0-0.98338-0.62654-0.98338-1.39231l-0.40894-2.90654
		c0-0.76577,0.62654-1.39231,1.39232-1.39231h1.06218c0.76576,0,1.3923,0.62654,1.3923,1.39231v2.90654
		C162.95677,60.25961,162.73917,60.88615,161.9734,60.88615z"/>
	<path fill="#3B3936" d="M164.43997,53.17783v2.30428c0,0.45468,0.36859,0.82327,0.82327,0.82327h0.00729
		c0.45468,0,0.82326-0.36859,0.82326-0.82327v-2.30428H164.43997z"/>
	<circle fill="#A19990" cx="165.26689" cy="55.34064" r="0.33689"/>
	<rect x="163.37277" y="52.84317" fill="#E8BA69" width="3.78093" height="0.79278"/>
	<path fill="#3B3936" d="M173.8855,53.18654v2.28685c0,0.45468-0.36859,0.82327-0.82327,0.82327l0,0
		c-0.45467,0-0.82326-0.36859-0.82326-0.82327v-2.28685H173.8855z"/>
	<circle fill="#A19990" cx="173.09973" cy="55.34064" r="0.33689"/>
	<rect x="171.17177" y="52.84317" fill="#E8BA69" width="3.78093" height="0.79278"/>
	<path fill="#FFFFFF" d="M156.80821,76.50737c0,0-2.11967,5.35325-3.88847,25.60425
		c1.04112,4.71564,5.02339,1.91582,5.02339,1.91582s1.08058-14.99048,1.29633-16.26426
		C159.45518,86.4894,156.80821,76.50737,156.80821,76.50737z"/>
	<path fill="#FFFFFF" d="M183.31055,77.19767l-2.94707,8.88665l2.17409,14.10315c0,0,0.13321,4.16269,2.09044,4.16267
		c2.64983-0.00001,2.84653-1.32603,2.84653-1.32603S186.88263,84.78167,183.31055,77.19767z"/>
	<path fill="#FCFCFC" d="M157.73476,121.83553l-4.55226,0.05404c0,0-0.87497-17.83537-0.21548-20.31447
		c1.99911-2.53821,5.05641-0.50582,5.05641-0.50582L157.73476,121.83553z"/>
	<path fill="#FCFCFC" d="M181.65211,122.53712l4.56178-0.03245c0,0,2.00677-20.27388,1.07062-22.77698
		c-0.93614-2.5031-4.54224-0.55329-4.54224-0.55329L181.65211,122.53712z"/>
	<path fill="#FFFFFF" d="M178.86537,73.82629c0,0,3.64098-0.26846,5.05363,4.83942c-1.16826,3.5302-3.55553,7.41861-3.55553,7.41861
		L178.86537,73.82629z"/>
	<path fill="#FFFFFF" d="M158.61389,83.67588c-0.06195-0.27836-2.4138-4.8406-2.4138-4.8406s0-3.35701,2.52867-4.16723
		C158.72876,80.53838,158.61389,83.67588,158.61389,83.67588z"/>
	<path fill="#FFFFFF" d="M180.77049,136.49695c-0.00601-0.70857,0.10966-17.91382,0.10966-17.91382l-0.51666-31.45564v-4.58503
		c0.05019-6.66758-0.77379-8.65587-0.77379-8.65587s-2.23671-0.46468-5.70421-0.82736
		c-0.82326,1.49935-2.55785,9.29232-3.98668,9.2758c0,0-3.58231-6.69683-4.96881-8.89278
		c-3.24207,0.4698-6.9066,1.12613-6.9066,1.69296c0,5.38131,1.27687,16.79953,2.03906,25.93628
		c0,0-0.76155,12.39526-0.94057,16.79199c-0.05737,1.409-0.22115,2.56842-0.21516,4.13177l-0.19327,14.50168
		C158.71347,136.49695,179.67755,136.49695,180.77049,136.49695z"/>
	<path fill="#F7CDAD" d="M177.11064,61.09505h1.47112c0.76578,0,0.98338-0.62654,0.98338-1.39231l0.40894-2.90654
		c0-0.76577-0.62654-1.39231-1.39232-1.39231h-1.06218c-0.76576,0-1.3923,0.62654-1.3923,1.39231v2.90654
		C176.12727,60.46851,176.34488,61.09505,177.11064,61.09505z"/>
	<path fill="#BA9379" d="M166.64227,62.7189h5.74385c0,0-0.68504,2.42401-2.87193,2.4767
		C167.32732,65.2483,166.64227,62.7189,166.64227,62.7189z"/>
	<path fill="#F9E57C" d="M173.25327,62.18713v5.44592c0,0-1.81937,1.04591-3.79773,1.04117
		c-1.65881-0.00397-3.65965-1.0305-3.65965-1.0305v-5.46077h0.69975l0.14664,3.93862c0,0,0,1.25955,2.09258,1.49947
		c0.01999-2.19244,0-2.29919,0-2.29919s0.77934,0.35987,1.53946,0.01999c0,0.71975,0.05998,2.23863,0.05998,2.23863
		s2.15924-0.17935,2.17923-1.53887c0-1.29955,0-3.85865,0-3.85865L173.25327,62.18713z"/>
	<path fill="#F9E57C" d="M165.79588,62.18294l3.19887-1.08789c0,0,0.41986,0.94794-0.11995,1.08789
		c-0.53981,0.13995-2.47914,0.13995-2.47914,0.13995L165.79588,62.18294z"/>
	<path fill="#F9E57C" d="M173.25327,62.1888l-3.19888-1.08789c0,0-0.41985,0.94208,0.11996,1.08203
		c0.53981,0.13995,2.47913,0.14581,2.47913,0.14581L173.25327,62.1888z"/>
	<polygon fill="#D5D5D5" points="174.27299,72.34863 172.15868,77.62415 169.97516,82.48432 173.41246,78.83662 172.79939,77.43784 
		175.63335,76.61377 175.63335,73.63277 	"/>
	<polyline fill="#D5D5D5" points="164.24065,76.63992 167.0746,77.46398 166.46152,78.86277 169.89882,82.51047 167.7153,77.6503 
		165.60098,72.37477 164.24065,73.59657 	"/>
	<polygon fill="#FFFFFF" points="164.24065,73.47963 165.60098,72.25783 167.7153,77.53336 169.89882,82.39352 166.46152,78.74583 
		167.0746,77.34704 164.24065,76.52297 	"/>
	<circle fill="#EEEEEE" stroke="#D5D5D5" stroke-width="0.5" stroke-miterlimit="10" cx="169.9325" cy="83.85157" r="0.50519"/>
	<circle fill="#EEEEEE" stroke="#D5D5D5" stroke-width="0.5" stroke-miterlimit="10" cx="169.9325" cy="86.61005" r="0.50519"/>
	<circle fill="#EEEEEE" stroke="#D5D5D5" stroke-width="0.5" stroke-miterlimit="10" cx="169.9325" cy="89.36855" r="0.50519"/>
	<circle fill="#EEEEEE" stroke="#D5D5D5" stroke-width="0.5" stroke-miterlimit="10" cx="169.9325" cy="92.12703" r="0.50519"/>
	<circle fill="#EEEEEE" stroke="#D5D5D5" stroke-width="0.5" stroke-miterlimit="10" cx="169.9325" cy="94.88551" r="0.50519"/>
	<circle fill="#EEEEEE" stroke="#D5D5D5" stroke-width="0.5" stroke-miterlimit="10" cx="169.9325" cy="97.644" r="0.50519"/>
	<circle fill="#EEEEEE" stroke="#D5D5D5" stroke-width="0.5" stroke-miterlimit="10" cx="169.9325" cy="100.40249" r="0.50519"/>
	<circle fill="#EEEEEE" stroke="#D5D5D5" stroke-width="0.5" stroke-miterlimit="10" cx="169.9325" cy="103.16098" r="0.50519"/>
	<circle fill="#EEEEEE" stroke="#D5D5D5" stroke-width="0.5" stroke-miterlimit="10" cx="169.9325" cy="105.91946" r="0.50519"/>
	<circle fill="#EEEEEE" stroke="#D5D5D5" stroke-width="0.5" stroke-miterlimit="10" cx="169.9325" cy="108.70769" r="0.50519"/>
	<circle fill="#EEEEEE" stroke="#D5D5D5" stroke-width="0.5" stroke-miterlimit="10" cx="169.9325" cy="111.46617" r="0.50519"/>
	<circle fill="#EEEEEE" stroke="#D5D5D5" stroke-width="0.5" stroke-miterlimit="10" cx="169.9325" cy="114.22466" r="0.50519"/>
	<circle fill="#EEEEEE" stroke="#D5D5D5" stroke-width="0.5" stroke-miterlimit="10" cx="169.9325" cy="116.98315" r="0.50519"/>
	<circle fill="#EEEEEE" stroke="#D5D5D5" stroke-width="0.5" stroke-miterlimit="10" cx="169.9325" cy="119.74163" r="0.50519"/>
	<circle fill="#EEEEEE" stroke="#D5D5D5" stroke-width="0.5" stroke-miterlimit="10" cx="169.9325" cy="122.50012" r="0.50519"/>
	<circle fill="#EEEEEE" stroke="#D5D5D5" stroke-width="0.5" stroke-miterlimit="10" cx="169.9325" cy="125.25861" r="0.50519"/>
	<circle fill="#EEEEEE" stroke="#D5D5D5" stroke-width="0.5" stroke-miterlimit="10" cx="169.9325" cy="128.01709" r="0.50519"/>
	<path opacity="0.04" fill="#0A0A0A" d="M187.28963,99.47172c-0.32025-5.13035-1.26686-15.08521-3.4575-21.03254
		c-1.13374-4.61533-4.96677-4.68933-4.96677-4.68933l-0.21887-0.0442c-1.05743-0.21758-2.09863-0.36616-4.235-0.58963
		c-1.53629,3.72189-3.88214,8.57351-4.51266,9.27752l0.22699,0.74802c-0.14664-0.4079-0.22699-0.6311-0.22699-0.6311v53.9865
		h10.87169c0,0,0.24084-18.31715,0.04166-22.07115l-0.44867-27.43146v-1.11961l2.0872,14.08623c0,0,0.11578,0.77281,0.2077,1.38834
		l-1.00629,21.18784l4.56178-0.03245C186.2139,122.50468,188.27643,102.38893,187.28963,99.47172z"/>
	<polygon fill="#FFFFFF" points="175.54802,73.51814 174.18768,72.29633 172.07336,77.57187 169.88985,82.43203 173.32713,78.78433 
		172.71407,77.38554 175.54802,76.56148 	"/>
	<rect id="comptoir" x="121.91833" y="110.37682" fill="#F2F2F2" width="211.3316" height="73.84554"/>
	<rect id="haut_comptoir" x="118.30544" y="106.18848" fill="#E5E5E5" width="218.55739" height="4.37898"/>
	<rect id="ombre_haut_comptoir" x="121.91833" y="110.37682" opacity="0.18" fill="#1E1E1E" width="211.3316" height="2.58609"/>
	<g id="illu_pharma_comptoir_73_x25_">
		<rect x="162" y="12" fill="#00A071" width="133" height="27"/>
		<g>
			<rect x="152.40472" y="21.03592" fill="none" width="150.35884" height="22.82935"/>
			<path fill="#FFFFFF" d="M172.67645,28.88232l-1.74121-3.05176h-1.31055v3.05176h-0.91406v-7.22656h2.25781
				c1.47656,0,2.53418,0.52832,2.53418,2.02637c0,1.12402-0.63867,1.80664-1.61914,2.0498l1.82813,3.15039H172.67645z
				 M169.62469,25.08154h1.21191c1.12402,0,1.75195-0.46289,1.75195-1.39941c0-0.94727-0.62793-1.28906-1.75195-1.28906h-1.21191
				V25.08154z"/>
			<path fill="#FFFFFF" d="M174.98114,21.65576h4.16406v0.77051h-3.25v2.26953h2.74316v0.78223h-2.74316v2.62207h3.36035v0.78223
				h-4.27441V21.65576z"/>
			<path fill="#FFFFFF" d="M182.28778,22.42627h-2.18164v-0.77051h5.28809v0.77051h-2.18164v6.45605h-0.9248V22.42627z"/>
			<path fill="#FFFFFF" d="M190.66278,28.88232l-1.74121-3.05176h-1.31055v3.05176h-0.91406v-7.22656h2.25781
				c1.47656,0,2.53418,0.52832,2.53418,2.02637c0,1.12402-0.63867,1.80664-1.61914,2.0498l1.82813,3.15039H190.66278z
				 M187.61102,25.08154h1.21191c1.12402,0,1.75195-0.46289,1.75195-1.39941c0-0.94727-0.62793-1.28906-1.75195-1.28906h-1.21191
				V25.08154z"/>
			<path fill="#FFFFFF" d="M196.22821,26.6792h-2.63281l-0.69336,2.20313h-0.93652l2.44531-7.22656h1.03516l2.44629,7.22656
				h-0.98047L196.22821,26.6792z M195.99774,25.94092l-0.3418-1.10156c-0.26465-0.80469-0.49609-1.59766-0.72754-2.43457h-0.04395
				c-0.21973,0.83691-0.45117,1.62988-0.71582,2.43457l-0.3418,1.10156H195.99774z"/>
			<path fill="#FFFFFF" d="M198.91864,21.65576h0.91406v7.22656h-0.91406V21.65576z"/>
			<path fill="#FFFFFF" d="M203.31512,22.42627h-2.18066v-0.77051h5.28809v0.77051h-2.18164v6.45605h-0.92578V22.42627z"/>
			<path fill="#FFFFFF" d="M206.7663,27.9458l0.55078-0.63867c0.51758,0.54004,1.24414,0.90332,1.99414,0.90332
				c0.94727,0,1.50879-0.47363,1.50879-1.17871c0-0.73828-0.51758-0.96973-1.20117-1.27832l-1.03516-0.45117
				c-0.68262-0.28711-1.46484-0.80469-1.46484-1.8623c0-1.10156,0.95801-1.91699,2.26953-1.91699
				c0.8584,0,1.61914,0.36328,2.13672,0.89258l-0.49609,0.59473c-0.44043-0.41895-0.96875-0.68262-1.64063-0.68262
				c-0.80469,0-1.34473,0.40723-1.34473,1.05762c0,0.69336,0.62793,0.95801,1.20117,1.2002l1.02441,0.44141
				c0.83691,0.36328,1.4873,0.85938,1.4873,1.92773c0,1.14551-0.93652,2.05957-2.45703,2.05957
				C208.28583,29.01416,207.39423,28.59619,206.7663,27.9458z"/>
			<path fill="#FFFFFF" d="M214.96552,25.23584c0-2.31348,1.2666-3.71289,3.08496-3.71289c1.81738,0,3.0957,1.41016,3.0957,3.71289
				c0,2.32422-1.27832,3.77832-3.0957,3.77832C216.23212,29.01416,214.96552,27.56006,214.96552,25.23584z M220.18719,25.23584
				c0-1.7959-0.84766-2.9082-2.13672-2.9082s-2.1377,1.1123-2.1377,2.9082c0,1.80664,0.84863,2.97461,2.1377,2.97461
				S220.18719,27.04248,220.18719,25.23584z"/>
			<path fill="#FFFFFF" d="M226.66766,28.88232l-1.74023-3.05176h-1.31152v3.05176h-0.91406v-7.22656h2.25879
				c1.47559,0,2.5332,0.52832,2.5332,2.02637c0,1.12402-0.63867,1.80664-1.61914,2.0498l1.8291,3.15039H226.66766z
				 M223.61591,25.08154h1.21191c1.12402,0,1.75195-0.46289,1.75195-1.39941c0-0.94727-0.62793-1.28906-1.75195-1.28906h-1.21191
				V25.08154z"/>
			<path fill="#FFFFFF" d="M228.97333,21.65576h1.80664c2.22559,0,3.41504,1.28809,3.41504,3.58008
				c0,2.30273-1.18945,3.64648-3.37109,3.64648h-1.85059V21.65576z M230.71356,28.1333c1.68555,0,2.53418-1.06836,2.53418-2.89746
				c0-1.81836-0.84863-2.83105-2.53418-2.83105h-0.82617v5.72852H230.71356z"/>
			<path fill="#FFFFFF" d="M235.33173,25.23584c0-2.31348,1.26758-3.71289,3.08496-3.71289c1.81836,0,3.0957,1.41016,3.0957,3.71289
				c0,2.32422-1.27734,3.77832-3.0957,3.77832C236.5993,29.01416,235.33173,27.56006,235.33173,25.23584z M240.55438,25.23584
				c0-1.7959-0.84863-2.9082-2.1377-2.9082s-2.13672,1.1123-2.13672,2.9082c0,1.80664,0.84766,2.97461,2.13672,2.97461
				S240.55438,27.04248,240.55438,25.23584z"/>
			<path fill="#FFFFFF" d="M243.06903,21.65576h0.94727l2.61035,4.53809l0.78223,1.49902h0.04492
				c-0.04492-0.72754-0.11035-1.54297-0.11035-2.30273v-3.73438h0.87012v7.22656h-0.94727l-2.62207-4.5498l-0.78223-1.4873h-0.04395
				c0.05469,0.72656,0.12109,1.49805,0.12109,2.25879v3.77832h-0.87012V21.65576z"/>
			<path fill="#FFFFFF" d="M250.19891,21.65576h0.94727l2.61133,4.53809l0.78223,1.49902h0.04395
				c-0.04395-0.72754-0.11035-1.54297-0.11035-2.30273v-3.73438h0.87012v7.22656h-0.94727l-2.62207-4.5498l-0.78223-1.4873h-0.04395
				c0.05566,0.72656,0.12109,1.49805,0.12109,2.25879v3.77832h-0.87012V21.65576z"/>
			<path fill="#FFFFFF" d="M260.63446,26.6792h-2.63281l-0.69434,2.20313h-0.93652l2.44629-7.22656h1.03516l2.44531,7.22656
				h-0.98047L260.63446,26.6792z M260.40302,25.94092l-0.3418-1.10156c-0.26367-0.80469-0.49512-1.59766-0.72656-2.43457h-0.04395
				c-0.2207,0.83691-0.45215,1.62988-0.7168,2.43457l-0.34082,1.10156H260.40302z"/>
			<path fill="#FFFFFF" d="M263.32489,21.65576h0.94727l2.61133,4.53809l0.78223,1.49902h0.04395
				c-0.04395-0.72754-0.11035-1.54297-0.11035-2.30273v-3.73438h0.87012v7.22656h-0.94727l-2.62207-4.5498l-0.78223-1.4873h-0.04395
				c0.05566,0.72656,0.12109,1.49805,0.12109,2.25879v3.77832h-0.87012V21.65576z"/>
			<path fill="#FFFFFF" d="M270.0368,25.26904c0-2.3252,1.36621-3.74609,3.20605-3.74609c0.88086,0,1.56445,0.41895,1.98242,0.89258
				l-0.49512,0.59473c-0.38574-0.40723-0.85938-0.68262-1.47656-0.68262c-1.36621,0-2.26953,1.12305-2.26953,2.91895
				c0,1.81836,0.87012,2.96387,2.23633,2.96387c0.69434,0,1.21191-0.30859,1.6748-0.81543l0.50684,0.57324
				c-0.57324,0.66113-1.27832,1.0459-2.21484,1.0459C271.38055,29.01416,270.0368,27.62646,270.0368,25.26904z"/>
			<path fill="#FFFFFF" d="M276.74872,21.65576h4.16406v0.77051h-3.25v2.26953h2.74316v0.78223h-2.74316v2.62207h3.36035v0.78223
				h-4.27441V21.65576z"/>
			<path fill="#FFFFFF" d="M282.02802,27.9458l0.55078-0.63867c0.51758,0.54004,1.24414,0.90332,1.99414,0.90332
				c0.94727,0,1.50879-0.47363,1.50879-1.17871c0-0.73828-0.51758-0.96973-1.20117-1.27832l-1.03516-0.45117
				c-0.68262-0.28711-1.46484-0.80469-1.46484-1.8623c0-1.10156,0.95801-1.91699,2.26953-1.91699
				c0.8584,0,1.61914,0.36328,2.13672,0.89258l-0.49609,0.59473c-0.44043-0.41895-0.96875-0.68262-1.64063-0.68262
				c-0.80469,0-1.34473,0.40723-1.34473,1.05762c0,0.69336,0.62793,0.95801,1.20117,1.2002l1.02441,0.44141
				c0.83691,0.36328,1.4873,0.85938,1.4873,1.92773c0,1.14551-0.93652,2.05957-2.45703,2.05957
				C283.54755,29.01416,282.65594,28.59619,282.02802,27.9458z"/>
		</g>
		<path fill="#444444" d="M164.84566,13.60065h0.46651c0.30467,0,0.55396,0.24928,0.55396,0.55397v0.4665
			c0,0.30468-0.24928,0.55397-0.55396,0.55397h-0.46651c-0.30469,0-0.55397-0.24929-0.55397-0.55397v-0.4665
			C164.29169,13.84993,164.54097,13.60065,164.84566,13.60065z"/>
		<path fill="#EFEFEF" d="M165,0v14.41888C165,14.63386,165.25475,15,165.03058,15h-0.11826C164.68814,15,164,14.63386,164,14.41888
			V0"/>
		<path fill="#444444" d="M292.67035,13.60065h0.46649c0.30469,0,0.55399,0.24928,0.55399,0.55397v0.4665
			c0,0.30468-0.2493,0.55397-0.55399,0.55397h-0.46649c-0.30469,0-0.55399-0.24929-0.55399-0.55397v-0.4665
			C292.11636,13.84993,292.36566,13.60065,292.67035,13.60065z"/>
		<path fill="#EFEFEF" d="M293,0v14.41888C293,14.63386,293.16708,15,292.94293,15h-0.07443C292.64432,15,292,14.63386,292,14.41888
			V0"/>
	</g>
</g>
</svg>
