<svg xmlns="http://www.w3.org/2000/svg" xmlns:xlink="http://www.w3.org/1999/xlink" x="0" y="0" enable-background="new 0 0 442.944 188.278" version="1.1" viewBox="0 0 442.944 188.278" xml:space="preserve"><g id="illustration_72_x25_"><g id="Calque_73"><polygon id="tour_pardieu_3_" fill="#E5E5E5" points="225.669 97.369 225.669 96.759 212.901 83.532 200.675 96.759 200.695 96.759 200.695 97.369 199.844 97.369 199.844 175.604 226.5 175.604 226.5 97.369"/><polygon id="tour_incity_2_3_" fill="#E5E5E5" points="92.695 175.433 69.462 175.433 69.462 97.019 92.695 84.047"/><path id="tour_incity_3_" fill="#E5E5E5" d="M48.00111,83.20974l-0.90321-23.92209c0,0-0.49169,15.83772-0.58737,24.75436 l-6.2002,3.4619v88.02046H66.389V72.94283L48.00111,83.20974z"/><g id="rebord_trottoir_4_"><rect width="437.445" height="1.427" x="2.239" y="183.927" fill="#AAA"/></g><g id="trottoir_4_"><rect width="437.553" height="9.086" x="2.074" y="175.277" fill="#919191"/></g><rect id="mur_17_" width="44.952" height="68.073" x="389.032" y="108.103" fill="#F7F7B2"/><g id="brique_7_4_"><path fill="#EFEDA5" d="M432.23135,167.89828h-11.91895c-0.29227,0-0.5314,0.2318-0.5314,0.51509 c0,0.28331,0.23914,0.51509,0.5314,0.51509h2.39542c0.29227,0,0.53143,0.23181,0.53143,0.51511s-0.23917,0.51509-0.53143,0.51509 h-0.11081c-0.29227,0-0.5314,0.2318-0.5314,0.51511c0,0.28329,0.23914,0.51509,0.5314,0.51509h7.31277 c0.29236,0,0.53149-0.2318,0.53149-0.51509c0-0.28331-0.23914-0.51511-0.53149-0.51511h-2.17023 c-0.29224,0-0.53149-0.2318-0.53149-0.51509c0-0.28331,0.23926-0.51511,0.53149-0.51511h4.49179 c0.29233,0,0.53149-0.23178,0.53149-0.51509C432.76285,168.13008,432.52368,167.89828,432.23135,167.89828z"/></g><path id="brique_6_4_" fill="#EFEDA5" d="M418.30408,160.83211h-7.79681v3.09056h5.47528 c0.29236,0,0.53149-0.23178,0.53149-0.51509c0-0.28329-0.23914-0.51509-0.53149-0.51509h-2.1702 c-0.2923,0-0.53152-0.2318-0.53152-0.51511c0-0.28329,0.23923-0.51509,0.53152-0.51509h4.49173 c0.29236,0,0.53149-0.2318,0.53149-0.51509C418.83557,161.06389,418.59644,160.83211,418.30408,160.83211z"/><path id="brique_5_4_" fill="#EFEDA5" d="M433.28812,154.3513h0.69598v-1.03018h-2.44168 c-0.29236,0-0.53149-0.2318-0.53149-0.51509c0-0.28331,0.23914-0.51509,0.53149-0.51509h2.44168v-1.0302h-10.33762 c-0.2923,0-0.53143,0.23178-0.53143,0.51509c0,0.28329,0.23914,0.51511,0.53143,0.51511h1.91928 c0.2923,0,0.53143,0.23178,0.53143,0.51509c0,0.28329-0.23914,0.51509-0.53143,0.51509h-1.2254 c-0.29227,0-0.5314,0.2318-0.5314,0.51509c0,0.28331,0.23914,0.51509,0.5314,0.51509h3.91605 c0.29221,0,0.53143,0.2318,0.53143,0.51511c0,0.28329-0.23923,0.51509-0.53143,0.51509h-5.6618 c-0.29236,0-0.53149,0.2318-0.53149,0.51509s0.23914,0.51509,0.53149,0.51509h2.39542c0.29227,0,0.5314,0.23181,0.5314,0.51509 c0,0.28331-0.23914,0.51511-0.5314,0.51511h-0.11081c-0.2923,0-0.53143,0.2318-0.53143,0.51511 c0,0.28329,0.23914,0.51508,0.53143,0.51508h7.31277c0.2923,0,0.53143-0.23178,0.53143-0.51508 c0-0.28331-0.23914-0.51511-0.53143-0.51511h-2.1702c-0.29236,0-0.53152-0.2318-0.53152-0.51511 c0-0.28329,0.23917-0.51509,0.53152-0.51509h3.96231v-1.03018h-0.69598c-0.2923,0-0.53143-0.2318-0.53143-0.51509 C432.75668,154.5831,432.99582,154.3513,433.28812,154.3513z"/><g id="brique_4_4_"><path fill="#EFEDA5" d="M396.41516,144.03197h-2.1702c-0.2923,0-0.53152-0.2318-0.53152-0.51509h-1.39639v-1.54529h-3.28525 v1.03018h0.1814c0.29227,0,0.5314,0.2318,0.5314,0.51511c0,0.28329-0.23914,0.51509-0.5314,0.51509h-0.11081 c-0.02414,0-0.04724,0.00388-0.07059,0.00694v1.01631c0.02335,0.00307,0.04645,0.00694,0.07059,0.00694h7.31277 c0.29236,0,0.53152-0.2318,0.53152-0.51511C396.94669,144.26376,396.70752,144.03197,396.41516,144.03197z"/><path fill="#EFEDA5" d="M398.73669,141.97159h-0.10959v1.03018h0.10959c0.29236,0,0.53149-0.23178,0.53149-0.51509 C399.26819,142.20338,399.02905,141.97159,398.73669,141.97159z"/></g><g id="brique_3_4_"><path fill="#EFEDA5" d="M430.0011,126.76987h-11.91891c-0.29227,0-0.5314,0.2318-0.5314,0.5151s0.23914,0.51509,0.5314,0.51509 h2.39542c0.29227,0,0.53143,0.2318,0.53143,0.5151s-0.23917,0.51509-0.53143,0.51509h-0.11081 c-0.29227,0-0.5314,0.2318-0.5314,0.51511c0,0.28329,0.23914,0.51509,0.5314,0.51509h7.31277 c0.29236,0,0.53149-0.2318,0.53149-0.51509c0-0.28331-0.23914-0.51511-0.53149-0.51511h-2.17023 c-0.29224,0-0.53149-0.2318-0.53149-0.51509c0-0.28331,0.23926-0.5151,0.53149-0.5151h4.49176 c0.29236,0,0.53152-0.23179,0.53152-0.51509S430.29346,126.76987,430.0011,126.76987z"/></g><g id="brique_2_4_"><path fill="#EFEDA5" d="M405.24945,112.64811h-4.71689c-0.29233,0-0.53149-0.2318-0.53149-0.5151 c0-0.28331,0.23917-0.51509,0.53149-0.51509h4.02298c0.29233,0,0.53149-0.2318,0.53149-0.51511s-0.23917-0.51509-0.53149-0.51509 h-11.91885c-0.29233,0-0.53149,0.23179-0.53149,0.51509s0.23917,0.51511,0.53149,0.51511h1.91925 c0.29227,0,0.53143,0.23179,0.53143,0.51509c0,0.28329-0.23917,0.5151-0.53143,0.5151h-1.2254 c-0.29227,0-0.53143,0.23179-0.53143,0.51509s0.23917,0.51509,0.53143,0.51509h3.91602c0.29227,0,0.53143,0.2318,0.53143,0.5151 s-0.23917,0.51509-0.53143,0.51509h-5.66174c-0.29236,0-0.53149,0.23179-0.53149,0.51509s0.23914,0.5151,0.53149,0.5151h2.39532 c0.29236,0,0.53149,0.2318,0.53149,0.51509c0,0.2833-0.23914,0.51511-0.53149,0.51511h-0.11072 c-0.29236,0-0.53152,0.23179-0.53152,0.51509s0.23917,0.5151,0.53152,0.5151h7.31277c0.29227,0,0.5314-0.2318,0.5314-0.5151 s-0.23914-0.51509-0.5314-0.51509h-2.17023c-0.29236,0-0.53149-0.2318-0.53149-0.51511s0.23914-0.51509,0.53149-0.51509h4.49167 c0.29236,0,0.53149-0.2318,0.53149-0.5151s-0.23914-0.51509-0.53149-0.51509h-1.22531 c-0.29236,0-0.53143-0.23179-0.53143-0.51509s0.23907-0.5151,0.53143-0.5151h2.97113c0.29236,0,0.53149-0.23179,0.53149-0.51509 S405.54181,112.64811,405.24945,112.64811z"/></g><path id="brique_1_haut_4_" fill="#EFEDA5" d="M418.42361,108.3914c0,0.28329,0.23914,0.51508,0.5314,0.51508h3.91605 c0.2923,0,0.53143,0.23179,0.53143,0.5151c0,0.2833-0.23914,0.5151-0.53143,0.5151h-5.66171 c-0.29236,0-0.53149,0.23179-0.53149,0.51508c0,0.28331,0.23914,0.5151,0.53149,0.5151h2.39532 c0.29236,0,0.53149,0.2318,0.53149,0.5151s-0.23914,0.5151-0.53149,0.5151h-0.11075c-0.29236,0-0.53149,0.23179-0.53149,0.5151 c0,0.28329,0.23914,0.5151,0.53149,0.5151h7.31281c0.29218,0,0.5314-0.2318,0.5314-0.5151c0-0.28331-0.23923-0.5151-0.5314-0.5151 h-2.17029c-0.2923,0-0.53143-0.2318-0.53143-0.5151c0-0.28331,0.23914-0.5151,0.53143-0.5151h4.49173 c0.29236,0,0.53149-0.23179,0.53149-0.5151c0-0.28329-0.23914-0.51508-0.53149-0.51508h-1.22534 c-0.29236,0-0.5314-0.2318-0.5314-0.5151c0-0.28331,0.23904-0.5151,0.5314-0.5151h2.97119 c0.29227,0,0.53149-0.23179,0.53149-0.51508c0-0.08833-0.02542-0.17038-0.06628-0.24323H418.4899 C418.44904,108.22102,418.42361,108.30308,418.42361,108.3914z"/><g id="rebord_milieu_12_"><rect width="45.606" height="2.753" x="388.711" y="147.761" fill="#D7D7D8"/></g><g id="ombre_rebord_milieu_8_" opacity=".19"><g><rect width="44.952" height=".693" x="389.032" y="150.515" fill="#222323"/></g></g><g id="ombre_rebord_toit_13_" opacity=".19"><g><rect width="44.952" height=".693" x="389.032" y="108.103" fill="#222323"/></g></g><g id="rebord_toit_29_"><rect width="46.062" height="2.753" x="388.577" y="105.395" fill="#D7D7D8"/></g><g id="arriere_porte_8_"><rect width="18.347" height="20.452" x="392.16" y="155.724" fill="#555B65"/></g><g id="porte_droite_11_"><rect width="8.334" height="19.772" x="401.796" y="156.064" fill="#CFCEC1"/></g><g id="ombre_porte_droite_15_"><polyline fill="#A5BBB2" points="401.796 175.836 401.796 156.064 410.129 156.064"/></g><g id="poignee_droite_4_"><path fill="#555B65" d="M402.99927,164.27953c-0.17932,0-0.32471,0.14088-0.32471,0.31467v2.98943 c0,0.17378,0.14539,0.31468,0.32471,0.31468c0.17929,0,0.32468-0.1409,0.32468-0.31468v-2.98943 C403.32394,164.42041,403.17856,164.27953,402.99927,164.27953z"/></g><g id="porte_gauche_11_"><rect width="8.334" height="19.772" x="392.651" y="156.064" fill="#CFCEC1"/></g><g id="ombre_porte_gauche_15_"><polyline fill="#A5BBB2" points="392.651 175.776 392.651 156.004 400.985 156.004"/></g><g id="poignee_gauche_4_"><path fill="#555B65" d="M399.65768,164.27951c-0.17932,0-0.32468,0.1409-0.32468,0.31468v2.98943 c0,0.17377,0.14536,0.31467,0.32468,0.31467c0.17929,0,0.32468-0.1409,0.32468-0.31467v-2.98943 C399.98236,164.42041,399.83698,164.27951,399.65768,164.27951z"/></g><g id="fenetre_10_4_"><rect width="6.177" height="11.328" x="423.184" y="155.637" fill="#CFCEC1"/><path fill="#474341" d="M429.42694,167.03152h-6.31006V155.5705h6.31006V167.03152z M423.25015,166.89825h6.04355v-11.19449 h-6.04355V166.89825z"/></g><g id="ombre_fenetre_10_4_"><polyline fill="#A5BBB2" points="423.327 166.827 423.327 155.775 429.217 155.775"/></g><g id="fenetre_9_4_"><rect width="6.177" height="11.328" x="413.014" y="155.637" fill="#CFCEC1"/><path fill="#474341" d="M419.25711,167.03152h-6.31006V155.5705h6.31006V167.03152z M413.08032,166.89825h6.04355v-11.19449 h-6.04355V166.89825z"/></g><g id="ombre_fenetre_9_4_"><polyline fill="#A5BBB2" points="413.157 166.827 413.157 155.775 419.047 155.775"/></g><g id="fenetre_8_4_"><rect width="6.177" height="11.328" x="423.184" y="132.011" fill="#CFCEC1"/><path fill="#474341" d="M429.42694,143.40509h-6.31006v-11.46101h6.31006V143.40509z M423.25015,143.27184h6.04355v-11.19449 h-6.04355V143.27184z"/></g><g id="ombre_fenetre_8_4_"><polyline fill="#A5BBB2" points="423.327 143.201 423.327 132.148 429.217 132.148"/></g><g id="fenetre_7_4_"><rect width="6.177" height="11.328" x="413.014" y="132.011" fill="#CFCEC1"/><path fill="#474341" d="M419.25711,143.40509h-6.31006v-11.46101h6.31006V143.40509z M413.08032,143.27184h6.04355v-11.19449 h-6.04355V143.27184z"/></g><g id="ombre_fenetre_7_4_"><polyline fill="#A5BBB2" points="413.157 143.201 413.157 132.148 419.047 132.148"/></g><g id="fenetre_6_8_"><rect width="6.177" height="11.328" x="402.765" y="132.011" fill="#CFCEC1"/><path fill="#474341" d="M409.00873,143.40509h-6.31006v-11.46101h6.31006V143.40509z M402.83194,143.27184h6.04352v-11.19449 h-6.04352V143.27184z"/></g><g id="ombre_fenetre_6_8_"><polyline fill="#A5BBB2" points="402.909 143.201 402.909 132.148 408.799 132.148"/></g><g id="fenetre_5_8_"><rect width="6.177" height="11.328" x="392.384" y="132.011" fill="#CFCEC1"/><path fill="#474341" d="M398.62708,143.40509h-6.31006v-11.46101h6.31006V143.40509z M392.45029,143.27184h6.04352v-11.19449 h-6.04352V143.27184z"/></g><g id="ombre_fenetre_5_8_"><polyline fill="#A5BBB2" points="392.527 143.201 392.527 132.148 398.417 132.148"/></g><g id="fenetre__4_4_"><rect width="6.177" height="11.328" x="423.184" y="113.094" fill="#CFCEC1"/><path fill="#474341" d="M429.42694,124.48827h-6.31006v-11.46102h6.31006V124.48827z M423.25015,124.35501h6.04355v-11.19449 h-6.04355V124.35501z"/></g><g id="ombre_fenetre_4_8_"><polyline fill="#A5BBB2" points="423.327 124.284 423.327 113.231 429.217 113.231"/></g><g id="fenetre__3_4_"><rect width="6.177" height="11.328" x="413.014" y="113.094" fill="#CFCEC1"/><path fill="#474341" d="M419.25711,124.48827h-6.31006v-11.46102h6.31006V124.48827z M413.08032,124.35501h6.04355v-11.19449 h-6.04355V124.35501z"/></g><g id="ombre_fenetre_3_16_"><polyline fill="#A5BBB2" points="413.157 124.284 413.157 113.231 419.047 113.231"/></g><g id="fenetre_2_16_"><rect width="6.177" height="11.328" x="402.765" y="113.094" fill="#CFCEC1"/><path fill="#474341" d="M409.00873,124.48827h-6.31006v-11.46102h6.31006V124.48827z M402.83194,124.35501h6.04352v-11.19449 h-6.04352V124.35501z"/></g><g id="ombre_fenetre_2_16_"><polyline fill="#A5BBB2" points="402.909 124.284 402.909 113.231 408.799 113.231"/></g><g id="fenetre_1_16_"><rect width="6.177" height="11.328" x="392.384" y="113.094" fill="#CFCEC1"/><path fill="#474341" d="M398.62708,124.48827h-6.31006v-11.46102h6.31006V124.48827z M392.45029,124.35501h6.04352v-11.19449 h-6.04352V124.35501z"/></g><g id="ombre_fenetre_1_16_"><polyline fill="#A5BBB2" points="392.527 124.284 392.527 113.231 398.417 113.231"/></g><g id="mur_16_"><rect width="34.09" height="51.036" x="354.915" y="125.141" fill="#F9F9F9"/></g><g id="arriere_porte_droite_7_"><rect width="9.174" height="20.452" x="371.781" y="155.772" fill="#555B65"/></g><g id="porte_droite_10_"><rect width="8.334" height="19.772" x="372.202" y="156.112" fill="#CFCEC1"/></g><g id="ombre_porte_droite_14_"><polyline fill="#A5BBB2" points="372.202 175.884 372.202 156.112 380.535 156.112"/></g><g id="poignee_porte_droite_8_"><path fill="#555B65" d="M373.40497,164.32709c-0.17929,0-0.32468,0.1409-0.32468,0.31468v2.98943 c0,0.17377,0.14539,0.31467,0.32468,0.31467c0.17932,0,0.32471-0.1409,0.32471-0.31467v-2.98943 C373.72968,164.46799,373.58429,164.32709,373.40497,164.32709z"/></g><g id="arriere_porte_gauche_7_"><rect width="9.174" height="20.452" x="362.62" y="155.772" fill="#555B65"/></g><g id="porte_gauche_10_"><rect width="8.334" height="19.772" x="363.111" y="156.112" fill="#CFCEC1"/></g><g id="ombre_porte_gauche_14_"><polyline fill="#A5BBB2" points="363.057 175.884 363.057 156.112 371.391 156.112"/></g><g id="poignee_porte_gauche_8_"><path fill="#555B65" d="M370.11755,164.32709c-0.17929,0-0.32468,0.1409-0.32468,0.31468v2.98943 c0,0.17377,0.14539,0.31467,0.32468,0.31467c0.17932,0,0.32468-0.1409,0.32468-0.31467v-2.98943 C370.44223,164.46799,370.29688,164.32709,370.11755,164.32709z"/></g><rect id="ombre_plaque_médecin_5_" width="4.104" height=".074" x="357.535" y="163.315" fill="#222323" opacity=".35"/><rect id="plaque_médecin_5_" width="4.104" height="2.795" x="357.535" y="160.52" fill="#F4DA6E"/><g id="médecin_4_"><path d="M358.05853,161.60211h0.08832l0.11325,0.31401l0.04196,0.11952h0.00351l0.04111-0.11952l0.1124-0.31401h0.08743v0.58521 h-0.0705v-0.32201c0-0.05177,0.00626-0.12132,0.0098-0.1731h-0.00354l-0.04642,0.13026l-0.1124,0.30594h-0.04282 l-0.11237-0.30594l-0.04645-0.13026h-0.00351c0.00351,0.05177,0.00894,0.12132,0.00894,0.1731v0.32201h-0.06873V161.60211z"/><path d="M358.86053,161.74304c0.11057,0,0.17307,0.07944,0.17307,0.20343c0,0.01514-0.00095,0.02942-0.00266,0.04016h-0.2926 c0.00534,0.09363,0.06149,0.15253,0.14444,0.15253c0.04111,0,0.07584-0.01341,0.108-0.03387l0.02588,0.04816 c-0.03748,0.02408-0.08392,0.04454-0.14273,0.04454c-0.116,0-0.20792-0.0847-0.20792-0.22656 C358.66602,161.82962,358.76147,161.74304,358.86053,161.74304z M358.96936,161.9384c0-0.0883-0.03928-0.13733-0.10703-0.13733 c-0.0607,0-0.116,0.04996-0.12494,0.13733H358.96936z M358.8587,161.67615h-0.05615l0.08118-0.12579h0.07584L358.8587,161.67615z"/><path d="M359.29767,161.74304c0.04996,0,0.08298,0.01874,0.12131,0.04996l-0.0036-0.07404v-0.16681h0.07404v0.63516h-0.06061 l-0.00629-0.05081h-0.00266c-0.03391,0.03293-0.08032,0.06148-0.13113,0.06148c-0.10886,0-0.17929-0.08203-0.17929-0.22656 C359.10944,161.83049,359.19861,161.74304,359.29767,161.74304z M359.30481,162.13651c0.04013,0,0.07489-0.01968,0.11057-0.05977 v-0.22664c-0.03653-0.03302-0.06955-0.04549-0.10526-0.04549c-0.06955,0-0.12491,0.06689-0.12491,0.16594 C359.18521,162.07399,359.22897,162.13651,359.30481,162.13651z"/><path d="M359.7981,161.74304c0.11066,0,0.1731,0.07944,0.1731,0.20343c0,0.01514-0.00095,0.02942-0.00269,0.04016h-0.2926 c0.00534,0.09363,0.06155,0.15253,0.14447,0.15253c0.04108,0,0.07584-0.01341,0.10797-0.03387l0.02588,0.04816 c-0.03748,0.02408-0.08389,0.04454-0.14273,0.04454c-0.11597,0-0.20789-0.0847-0.20789-0.22656 C359.60361,161.82962,359.69904,161.74304,359.7981,161.74304z M359.90695,161.9384c0-0.0883-0.03931-0.13733-0.10706-0.13733 c-0.0607,0-0.116,0.04996-0.12494,0.13733H359.90695z"/><path d="M360.25485,161.74304c0.05707,0,0.09723,0.02408,0.12665,0.05176l-0.03656,0.04729 c-0.02588-0.02226-0.05261-0.03835-0.08743-0.03835c-0.07849,0-0.13559,0.06776-0.13559,0.16768 c0,0.09904,0.05441,0.16594,0.13379,0.16594c0.04108,0,0.07584-0.02054,0.10172-0.04369l0.03302,0.04816 c-0.03922,0.03482-0.08926,0.05615-0.14093,0.05615c-0.11514,0-0.20343-0.0829-0.20343-0.22656 C360.04608,161.82602,360.14331,161.74304,360.25485,161.74304z"/><path d="M360.47162,161.61725c0-0.02855,0.02234-0.04729,0.05087-0.04729c0.02856,0,0.05084,0.01874,0.05084,0.04729 c0,0.02768-0.02228,0.04729-0.05084,0.04729C360.49396,161.66454,360.47162,161.64493,360.47162,161.61725z M360.48502,161.75378 h0.07309v0.43353h-0.07309V161.75378z"/><path d="M360.70444,161.75378h0.06064l0.00629,0.06242h0.00266c0.04102-0.04102,0.08563-0.07317,0.14539-0.07317 c0.09097,0,0.13208,0.0589,0.13208,0.16948v0.2748h-0.07318v-0.26492c0-0.08124-0.02499-0.11598-0.08209-0.11598 c-0.04456,0-0.07489,0.02321-0.11865,0.06689v0.31401h-0.07312V161.75378z"/></g><g id="rebord_milieu_11_"><rect width="34.91" height="2.753" x="354.442" y="148.357" fill="#555B65"/></g><g id="ombre_rebord_milieu_7_" opacity=".36"><g><rect width="34.09" height=".693" x="354.915" y="151.111" fill="#222323"/></g></g><g id="fenetre_1_15_"><rect width="6.177" height="11.328" x="358.659" y="131.23" fill="#CFCEC1"/><path fill="#474341" d="M364.90234,142.6243h-6.31006v-11.46101h6.31006V142.6243z M358.72552,142.49103h6.04355v-11.19449 h-6.04355V142.49103z"/></g><g id="ombre_fenetre_1_15_"><polyline fill="#A5BBB2" points="358.802 142.42 358.802 131.367 364.692 131.367"/></g><g id="fenetre_2_15_"><rect width="6.177" height="11.328" x="369.041" y="131.23" fill="#CFCEC1"/><path fill="#474341" d="M375.284,142.6243h-6.31006v-11.46101h6.31006V142.6243z M369.10721,142.49103h6.04352v-11.19449 h-6.04352V142.49103z"/></g><g id="ombre_fenetre_2_15_"><polyline fill="#A5BBB2" points="369.184 142.42 369.184 131.367 375.074 131.367"/></g><g id="fenetre_3_12_"><rect width="6.177" height="11.328" x="379.289" y="131.23" fill="#CFCEC1"/><path fill="#474341" d="M385.53238,142.6243h-6.31006v-11.46101h6.31006V142.6243z M379.35559,142.49103h6.04355v-11.19449 h-6.04355V142.49103z"/></g><g id="ombre_fenetre_3_15_"><polyline fill="#A5BBB2" points="379.432 142.42 379.432 131.367 385.322 131.367"/></g><g id="rebord_toit_28_"><rect width="34.91" height="2.753" x="354.442" y="123.236" fill="#555B65"/></g><g><rect width="55.276" height="137.024" x="299.768" y="39.1" fill="#F9F9F9"/></g><g><rect width="6.492" height="11.905" x="305.823" y="62.513" fill="#CFCEC1"/><path fill="#474341" d="M312.38403,74.48768h-6.63156V62.44268h6.63156V74.48768z M305.89252,74.34763h6.35147V62.58273h-6.35147 V74.34763z"/></g><g><polyline fill="#A5BBB2" points="305.973 74.273 305.973 62.657 312.163 62.657"/></g><g><rect width="6.492" height="11.905" x="318.285" y="62.513" fill="#CFCEC1"/><path fill="#474341" d="M324.84628,74.48768h-6.63156V62.44268h6.63156V74.48768z M318.35477,74.34763h6.35147V62.58273h-6.35147 V74.34763z"/></g><g><polyline fill="#A5BBB2" points="318.435 74.273 318.435 62.657 324.626 62.657"/></g><g><rect width="6.492" height="11.905" x="330.747" y="62.513" fill="#CFCEC1"/><path fill="#474341" d="M337.30853,74.48768h-6.63159V62.44268h6.63159V74.48768z M330.81699,74.34763h6.35147V62.58273h-6.35147 V74.34763z"/></g><g><polyline fill="#A5BBB2" points="330.898 74.273 330.898 62.657 337.088 62.657"/></g><g><rect width="6.492" height="11.905" x="343.209" y="62.513" fill="#CFCEC1"/><path fill="#474341" d="M349.77069,74.48768h-6.63156V62.44268h6.63156V74.48768z M343.27917,74.34763h6.35147V62.58273h-6.35147 V74.34763z"/></g><g><polyline fill="#A5BBB2" points="343.36 74.273 343.36 62.657 349.55 62.657"/></g><g><rect width="6.492" height="11.905" x="305.823" y="81.886" fill="#CFCEC1"/><path fill="#474341" d="M312.38403,93.86073h-6.63156v-12.045h6.63156V93.86073z M305.89252,93.72068h6.35147V81.95579h-6.35147 V93.72068z"/></g><g><polyline fill="#A5BBB2" points="305.973 93.646 305.973 82.03 312.163 82.03"/></g><g><rect width="6.492" height="11.905" x="318.285" y="81.886" fill="#CFCEC1"/><path fill="#474341" d="M324.84628,93.86073h-6.63156v-12.045h6.63156V93.86073z M318.35477,93.72068h6.35147V81.95579h-6.35147 V93.72068z"/></g><g><polyline fill="#A5BBB2" points="318.435 93.646 318.435 82.03 324.626 82.03"/></g><g><rect width="6.492" height="11.905" x="330.747" y="81.886" fill="#CFCEC1"/><path fill="#474341" d="M337.30853,93.86073h-6.63159v-12.045h6.63159V93.86073z M330.81699,93.72068h6.35147V81.95579h-6.35147 V93.72068z"/></g><g><polyline fill="#A5BBB2" points="330.898 93.646 330.898 82.03 337.088 82.03"/></g><g><rect width="6.492" height="11.905" x="343.209" y="81.886" fill="#CFCEC1"/><path fill="#474341" d="M349.77069,93.86073h-6.63156v-12.045h6.63156V93.86073z M343.27917,93.72068h6.35147V81.95579h-6.35147 V93.72068z"/></g><g><polyline fill="#A5BBB2" points="343.36 93.646 343.36 82.03 349.55 82.03"/></g><g><rect width="6.492" height="11.905" x="305.823" y="100.822" fill="#CFCEC1"/><path fill="#474341" d="M312.38403,112.79681h-6.63156v-12.04496h6.63156V112.79681z M305.89252,112.65677h6.35147v-11.76486 h-6.35147V112.65677z"/></g><g><polyline fill="#A5BBB2" points="305.973 112.582 305.973 100.966 312.163 100.966"/></g><g><rect width="6.492" height="11.905" x="318.285" y="100.822" fill="#CFCEC1"/><path fill="#474341" d="M324.84628,112.79681h-6.63156v-12.04496h6.63156V112.79681z M318.35477,112.65677h6.35147v-11.76486 h-6.35147V112.65677z"/></g><g><polyline fill="#A5BBB2" points="318.435 112.582 318.435 100.966 324.626 100.966"/></g><g><rect width="6.492" height="11.905" x="330.747" y="100.822" fill="#CFCEC1"/><path fill="#474341" d="M337.30853,112.79681h-6.63159v-12.04496h6.63159V112.79681z M330.81699,112.65677h6.35147v-11.76486 h-6.35147V112.65677z"/></g><g><polyline fill="#A5BBB2" points="330.898 112.582 330.898 100.966 337.088 100.966"/></g><g><rect width="6.492" height="11.905" x="343.209" y="100.822" fill="#CFCEC1"/><path fill="#474341" d="M349.77069,112.79681h-6.63156v-12.04496h6.63156V112.79681z M343.27917,112.65677h6.35147v-11.76486 h-6.35147V112.65677z"/></g><g><polyline fill="#A5BBB2" points="343.36 112.582 343.36 100.966 349.55 100.966"/></g><g><rect width="6.492" height="11.905" x="305.823" y="119.321" fill="#CFCEC1"/><path fill="#474341" d="M312.38403,131.29596h-6.63156v-12.04503h6.63156V131.29596z M305.89252,131.15591h6.35147v-11.76493 h-6.35147V131.15591z"/></g><g><polyline fill="#A5BBB2" points="305.973 131.081 305.973 119.465 312.163 119.465"/></g><g><rect width="6.492" height="11.905" x="318.285" y="119.321" fill="#CFCEC1"/><path fill="#474341" d="M324.84628,131.29596h-6.63156v-12.04503h6.63156V131.29596z M318.35477,131.15591h6.35147v-11.76493 h-6.35147V131.15591z"/></g><g><polyline fill="#A5BBB2" points="318.435 131.081 318.435 119.465 324.626 119.465"/></g><g><rect width="6.492" height="11.905" x="330.747" y="119.321" fill="#CFCEC1"/><path fill="#474341" d="M337.30853,131.29596h-6.63159v-12.04503h6.63159V131.29596z M330.81699,131.15591h6.35147v-11.76493 h-6.35147V131.15591z"/></g><g><polyline fill="#A5BBB2" points="330.898 131.081 330.898 119.465 337.088 119.465"/></g><g><rect width="6.492" height="11.905" x="343.209" y="119.321" fill="#CFCEC1"/><path fill="#474341" d="M349.77069,131.29596h-6.63156v-12.04503h6.63156V131.29596z M343.27917,131.15591h6.35147v-11.76493 h-6.35147V131.15591z"/></g><g><polyline fill="#A5BBB2" points="343.36 131.081 343.36 119.465 349.55 119.465"/></g><g><rect width="6.492" height="11.905" x="305.823" y="137.674" fill="#CFCEC1"/><path fill="#474341" d="M312.38403,149.64938h-6.63156v-12.04503h6.63156V149.64938z M305.89252,149.50934h6.35147V137.7444 h-6.35147V149.50934z"/></g><g><polyline fill="#A5BBB2" points="305.973 149.435 305.973 137.819 312.163 137.819"/></g><g><rect width="12.462" height="10.656" x="305.823" y="155.553" fill="#CFCEC1"/><path fill="#474341" d="M318.35477,166.27913h-12.60229v-10.79648h12.60229V166.27913z M305.89252,166.13907h12.3222V155.6227 h-12.3222V166.13907z"/></g><g><polyline fill="#A5BBB2" points="306.112 166.08 306.112 155.682 317.996 155.682"/></g><g><rect width="12.462" height="10.656" x="337.274" y="155.553" fill="#CFCEC1"/><path fill="#474341" d="M349.80658,166.27913h-12.60226v-10.79648h12.60226V166.27913z M337.34436,166.13907h12.32217V155.6227 h-12.32217V166.13907z"/></g><g><polyline fill="#A5BBB2" points="337.563 166.08 337.563 155.682 349.447 155.682"/></g><g><rect width="6.492" height="11.905" x="318.285" y="137.674" fill="#CFCEC1"/><path fill="#474341" d="M324.84628,149.64938h-6.63156v-12.04503h6.63156V149.64938z M318.35477,149.50934h6.35147V137.7444 h-6.35147V149.50934z"/></g><g><polyline fill="#A5BBB2" points="318.435 149.435 318.435 137.819 324.626 137.819"/></g><g><rect width="6.492" height="11.905" x="330.747" y="137.674" fill="#CFCEC1"/><path fill="#474341" d="M337.30853,149.64938h-6.63159v-12.04503h6.63159V149.64938z M330.81699,149.50934h6.35147V137.7444 h-6.35147V149.50934z"/></g><g><polyline fill="#A5BBB2" points="330.898 149.435 330.898 137.819 337.088 137.819"/></g><g><rect width="6.492" height="11.905" x="343.209" y="137.674" fill="#CFCEC1"/><path fill="#474341" d="M349.77069,149.64938h-6.63156v-12.04503h6.63156V149.64938z M343.27917,149.50934h6.35147V137.7444 h-6.35147V149.50934z"/></g><g><polyline fill="#A5BBB2" points="343.36 149.435 343.36 137.819 349.55 137.819"/></g><g><rect width="6.492" height="11.905" x="305.823" y="43.721" fill="#CFCEC1"/><path fill="#474341" d="M312.38403,55.69577h-6.63156V43.65078h6.63156V55.69577z M305.89252,55.55573h6.35147V43.79083h-6.35147 V55.55573z"/></g><g><polyline fill="#A5BBB2" points="305.973 55.481 305.973 43.865 312.163 43.865"/></g><g id="fenetre_1-2_7_"><rect id="fenetre_1-2_8_" width="6.492" height="11.905" x="318.285" y="43.721" fill="#CFCEC1"/><path fill="#474341" d="M324.84628,55.69576h-6.63156V43.65076h6.63156V55.69576z M318.35477,55.55571h6.35147v-11.7649h-6.35147 V55.55571z"/></g><g id="ombre_fenetre_1-2_4_"><polyline fill="#A5BBB2" points="318.435 55.481 318.435 43.865 324.626 43.865"/></g><g id="fenetre_1-3_4_"><rect width="6.492" height="11.905" x="330.747" y="43.721" fill="#CFCEC1"/><path fill="#474341" d="M337.3085,55.69577h-6.63156V43.65078h6.63156V55.69577z M330.81699,55.55573h6.35147V43.79083h-6.35147 V55.55573z"/></g><g id="ombre_fenetre_1-3_4_"><polyline fill="#A5BBB2" points="330.898 55.481 330.898 43.865 337.088 43.865"/></g><g id="fenetre_1-4_4_"><rect width="6.492" height="11.905" x="343.209" y="43.721" fill="#CFCEC1"/><path fill="#474341" d="M349.77069,55.69577h-6.63156V43.65078h6.63156V55.69577z M343.27917,55.55573h6.35147V43.79083h-6.35147 V55.55573z"/></g><g id="ombre_fenetre_1-4_4_"><polyline fill="#A5BBB2" points="343.36 55.481 343.36 43.865 349.55 43.865"/></g><g><rect width="12.236" height="19.955" x="321.53" y="155.553" fill="#466463"/></g><g><polygon fill="#283839" points="321.53 155.553 322.259 156.352 322.259 175.547 321.53 176.101"/></g><g><polygon fill="#333439" points="333.766 156.357 333.766 155.553 321.521 155.553 322.257 156.352"/></g><polygon fill="#919191" points="321.406 176.199 322.259 175.503 333.766 175.503 333.766 176.199"/><g opacity=".36"><g><rect width="55.276" height="1.457" x="299.768" y="37.732" fill="#222323"/></g></g><g><rect width="58.513" height="1.912" x="298.15" y="34.363" fill="#575757"/></g><g><rect width="58.513" height="1.457" x="298.15" y="36.275" fill="#3B7172"/></g><g><rect width="55.276" height="121.948" x="244.584" y="54.097" fill="#F9F9F9"/></g><g><rect width="6.492" height="11.905" x="250.639" y="62.434" fill="#CFCEC1"/><path fill="#474341" d="M257.20029,74.40853h-6.63158v-12.045h6.63158V74.40853z M250.70876,74.26848h6.35149v-11.7649h-6.35149 V74.26848z"/></g><g><polyline fill="#A5BBB2" points="250.789 74.194 250.789 62.578 256.98 62.578"/></g><g><rect width="6.492" height="11.905" x="263.101" y="62.434" fill="#CFCEC1"/><path fill="#474341" d="M269.66251,74.40853h-6.63156v-12.045h6.63156V74.40853z M263.17099,74.26848h6.35147v-11.7649h-6.35147 V74.26848z"/></g><g><polyline fill="#A5BBB2" points="263.252 74.194 263.252 62.578 269.442 62.578"/></g><g><rect width="6.492" height="11.905" x="275.563" y="62.434" fill="#CFCEC1"/><path fill="#474341" d="M282.12476,74.40853h-6.63156v-12.045h6.63156V74.40853z M275.63324,74.26848h6.35147v-11.7649h-6.35147 V74.26848z"/></g><g><polyline fill="#A5BBB2" points="275.714 74.194 275.714 62.578 281.904 62.578"/></g><g><rect width="6.492" height="11.905" x="288.025" y="62.434" fill="#CFCEC1"/><path fill="#474341" d="M294.58691,74.40853h-6.63156v-12.045h6.63156V74.40853z M288.0954,74.26848h6.35147v-11.7649h-6.35147 V74.26848z"/></g><g><polyline fill="#A5BBB2" points="288.176 74.194 288.176 62.578 294.366 62.578"/></g><g><rect width="6.492" height="11.905" x="250.639" y="81.807" fill="#CFCEC1"/><path fill="#474341" d="M257.20029,93.78159h-6.63158v-12.045h6.63158V93.78159z M250.70876,93.64153h6.35149V81.87664h-6.35149 V93.64153z"/></g><g><polyline fill="#A5BBB2" points="250.789 93.567 250.789 81.951 256.98 81.951"/></g><g><rect width="6.492" height="11.905" x="263.101" y="81.807" fill="#CFCEC1"/><path fill="#474341" d="M269.66251,93.78159h-6.63156v-12.045h6.63156V93.78159z M263.17099,93.64153h6.35147V81.87664h-6.35147 V93.64153z"/></g><g><polyline fill="#A5BBB2" points="263.252 93.567 263.252 81.951 269.442 81.951"/></g><g><rect width="6.492" height="11.905" x="275.563" y="81.807" fill="#CFCEC1"/><path fill="#474341" d="M282.12476,93.78159h-6.63156v-12.045h6.63156V93.78159z M275.63324,93.64153h6.35147V81.87664h-6.35147 V93.64153z"/></g><g><polyline fill="#A5BBB2" points="275.714 93.567 275.714 81.951 281.904 81.951"/></g><g><rect width="6.492" height="11.905" x="288.025" y="81.807" fill="#CFCEC1"/><path fill="#474341" d="M294.58691,93.78159h-6.63156v-12.045h6.63156V93.78159z M288.0954,93.64153h6.35147V81.87664h-6.35147 V93.64153z"/></g><g><polyline fill="#A5BBB2" points="288.176 93.567 288.176 81.951 294.366 81.951"/></g><g><rect width="6.492" height="11.905" x="250.639" y="100.743" fill="#CFCEC1"/><path fill="#474341" d="M257.20029,112.71767h-6.63158v-12.04496h6.63158V112.71767z M250.70876,112.57761h6.35149v-11.76485 h-6.35149V112.57761z"/></g><g><polyline fill="#A5BBB2" points="250.789 112.503 250.789 100.887 256.98 100.887"/></g><g><rect width="6.492" height="11.905" x="263.101" y="100.743" fill="#CFCEC1"/><path fill="#474341" d="M269.66251,112.71767h-6.63156v-12.04496h6.63156V112.71767z M263.17099,112.57761h6.35147v-11.76485 h-6.35147V112.57761z"/></g><g><polyline fill="#A5BBB2" points="263.252 112.503 263.252 100.887 269.442 100.887"/></g><g><rect width="6.492" height="11.905" x="275.563" y="100.743" fill="#CFCEC1"/><path fill="#474341" d="M282.12476,112.71767h-6.63156v-12.04496h6.63156V112.71767z M275.63324,112.57761h6.35147v-11.76485 h-6.35147V112.57761z"/></g><g><polyline fill="#A5BBB2" points="275.714 112.503 275.714 100.887 281.904 100.887"/></g><g><rect width="6.492" height="11.905" x="288.025" y="100.743" fill="#CFCEC1"/><path fill="#474341" d="M294.58691,112.71767h-6.63156v-12.04496h6.63156V112.71767z M288.0954,112.57761h6.35147v-11.76485 h-6.35147V112.57761z"/></g><g><polyline fill="#A5BBB2" points="288.176 112.503 288.176 100.887 294.366 100.887"/></g><g><rect width="6.492" height="11.905" x="250.639" y="119.242" fill="#CFCEC1"/><path fill="#474341" d="M257.20029,131.21681h-6.63158v-12.04503h6.63158V131.21681z M250.70876,131.07677h6.35149v-11.76493 h-6.35149V131.07677z"/></g><g><polyline fill="#A5BBB2" points="250.789 131.002 250.789 119.386 256.98 119.386"/></g><g><rect width="6.492" height="11.905" x="263.101" y="119.242" fill="#CFCEC1"/><path fill="#474341" d="M269.66251,131.21681h-6.63156v-12.04503h6.63156V131.21681z M263.17099,131.07677h6.35147v-11.76493 h-6.35147V131.07677z"/></g><g><polyline fill="#A5BBB2" points="263.252 131.002 263.252 119.386 269.442 119.386"/></g><g><rect width="6.492" height="11.905" x="275.563" y="119.242" fill="#CFCEC1"/><path fill="#474341" d="M282.12476,131.21681h-6.63156v-12.04503h6.63156V131.21681z M275.63324,131.07677h6.35147v-11.76493 h-6.35147V131.07677z"/></g><g><polyline fill="#A5BBB2" points="275.714 131.002 275.714 119.386 281.904 119.386"/></g><g><rect width="6.492" height="11.905" x="288.025" y="119.242" fill="#CFCEC1"/><path fill="#474341" d="M294.58691,131.21681h-6.63156v-12.04503h6.63156V131.21681z M288.0954,131.07677h6.35147v-11.76493 h-6.35147V131.07677z"/></g><g><polyline fill="#A5BBB2" points="288.176 131.002 288.176 119.386 294.366 119.386"/></g><g><rect width="6.492" height="11.905" x="250.639" y="137.595" fill="#CFCEC1"/><path fill="#474341" d="M257.20029,149.57024h-6.63158v-12.04503h6.63158V149.57024z M250.70876,149.43018h6.35149v-11.76492 h-6.35149V149.43018z"/></g><g><polyline fill="#A5BBB2" points="250.789 149.356 250.789 137.74 256.98 137.74"/></g><g><rect width="12.462" height="10.656" x="250.639" y="155.474" fill="#CFCEC1"/><path fill="#474341" d="M263.17099,166.19998h-12.60228v-10.79649h12.60228V166.19998z M250.70876,166.05992h12.32219v-10.51637 h-12.32219V166.05992z"/></g><g><polyline fill="#A5BBB2" points="250.928 166.001 250.928 155.603 262.812 155.603"/></g><g><rect width="12.462" height="10.656" x="282.091" y="155.474" fill="#CFCEC1"/><path fill="#474341" d="M294.62283,166.19998h-12.60229v-10.79649h12.60229V166.19998z M282.16058,166.05992h12.3222v-10.51637 h-12.3222V166.05992z"/></g><g><polyline fill="#A5BBB2" points="282.38 166.001 282.38 155.603 294.264 155.603"/></g><g><rect width="6.492" height="11.905" x="263.101" y="137.595" fill="#CFCEC1"/><path fill="#474341" d="M269.66251,149.57024h-6.63156v-12.04503h6.63156V149.57024z M263.17099,149.43018h6.35147v-11.76492 h-6.35147V149.43018z"/></g><g><polyline fill="#A5BBB2" points="263.252 149.356 263.252 137.74 269.442 137.74"/></g><g><rect width="6.492" height="11.905" x="275.563" y="137.595" fill="#CFCEC1"/><path fill="#474341" d="M282.12476,149.57024h-6.63156v-12.04503h6.63156V149.57024z M275.63324,149.43018h6.35147v-11.76492 h-6.35147V149.43018z"/></g><g><polyline fill="#A5BBB2" points="275.714 149.356 275.714 137.74 281.904 137.74"/></g><g><rect width="6.492" height="11.905" x="288.025" y="137.595" fill="#CFCEC1"/><path fill="#474341" d="M294.58691,149.57024h-6.63156v-12.04503h6.63156V149.57024z M288.0954,149.43018h6.35147v-11.76492 h-6.35147V149.43018z"/></g><g><polyline fill="#A5BBB2" points="288.176 149.356 288.176 137.74 294.366 137.74"/></g><g><rect width="12.236" height="19.955" x="266.347" y="155.474" fill="#466463"/></g><g><polygon fill="#283839" points="266.347 155.474 267.075 156.273 267.075 175.467 266.347 176.022"/></g><g><polygon fill="#333439" points="278.582 156.278 278.582 155.474 266.338 155.474 267.073 156.273"/></g><polygon fill="#919191" points="266.222 176.124 267.075 175.428 278.582 175.428 278.582 176.124"/><g opacity=".36"><g><rect width="55.276" height="1.457" x="244.584" y="56.204" fill="#222323"/></g></g><g><rect width="58.513" height="1.912" x="242.966" y="52.835" fill="#575757"/></g><g><rect width="58.513" height="1.457" x="242.966" y="54.747" fill="#3B7172"/></g><g id="mur_15_"><rect width="41.199" height="73.916" x="130.465" y="101.925" fill="#868686"/></g><g><path fill="#7A7A7A" d="M164.24886,141.2177h-5.34395c-0.33121,0-0.60216-0.26262-0.60216-0.58357 c0-0.32097,0.27095-0.58357,0.60216-0.58357h4.55779c0.33121,0,0.60214-0.26262,0.60214-0.58357 c0-0.32097-0.27094-0.58357-0.60214-0.58357h-13.50333c-0.33121,0-0.60216,0.2626-0.60216,0.58357 c0,0.32095,0.27095,0.58357,0.60216,0.58357h2.17439c0.33112,0,0.60207,0.2626,0.60207,0.58357 c0,0.32095-0.27095,0.58357-0.60207,0.58357h-1.38832c-0.33112,0-0.60207,0.2626-0.60207,0.58357 c0,0.32095,0.27095,0.58356,0.60207,0.58356h4.43663c0.33112,0,0.60207,0.26262,0.60207,0.58357 c0,0.32097-0.27095,0.58357-0.60207,0.58357h-6.41444c-0.33121,0-0.60214,0.2626-0.60214,0.58357 s0.27094,0.58357,0.60214,0.58357h2.71378c0.33121,0,0.60216,0.26262,0.60216,0.58357s-0.27095,0.58357-0.60216,0.58357h-0.12546 c-0.33121,0-0.60214,0.2626-0.60214,0.58357s0.27094,0.58357,0.60214,0.58357h8.28493c0.33113,0,0.60207-0.2626,0.60207-0.58357 s-0.27094-0.58357-0.60207-0.58357h-2.45872c-0.33121,0-0.60214-0.26262-0.60214-0.58357 c0-0.32097,0.27094-0.58357,0.60214-0.58357h5.08881c0.33121,0,0.60216-0.2626,0.60216-0.58357s-0.27095-0.58357-0.60216-0.58357 h-1.38823c-0.33121,0-0.60207-0.2626-0.60207-0.58357c0-0.32095,0.27086-0.58357,0.60207-0.58357h3.36613 c0.33121,0,0.60216-0.2626,0.60216-0.58356C164.85101,141.4803,164.58006,141.2177,164.24886,141.2177z"/></g><g><path fill="#7A7A7A" d="M149.29707,154.96555h-13.50342c-0.33112,0-0.60207,0.26262-0.60207,0.58357v0.00002 c0,0.32095,0.27095,0.58356,0.60207,0.58356h4.43663c0.33112,0,0.60207,0.2626,0.60207,0.58357 c0,0.32095-0.27095,0.58357-0.60207,0.58357h-0.17503c-0.33112,0-0.60216,0.2626-0.60216,0.58357 s0.27104,0.58357,0.60216,0.58357h8.28493c0.33121,0,0.60216-0.2626,0.60216-0.58357s-0.27095-0.58357-0.60216-0.58357h-2.40924 c-0.33112,0-0.60216-0.26262-0.60216-0.58357c0-0.32097,0.27104-0.58357,0.60216-0.58357h3.36613 c0.33112,0,0.60216-0.2626,0.60216-0.58356v-0.00002C149.89923,155.22816,149.62819,154.96555,149.29707,154.96555z"/></g><g><path fill="#7A7A7A" d="M165.147,123.29146h-13.5034c-0.33112,0-0.60207,0.2626-0.60207,0.58357 c0,0.32096,0.27095,0.58356,0.60207,0.58356h2.71387c0.33112,0,0.60207,0.26262,0.60207,0.58357 c0,0.32097-0.27095,0.58358-0.60207,0.58358h-0.12555c-0.33112,0-0.60207,0.2626-0.60207,0.58357 c0,0.32096,0.27095,0.58356,0.60207,0.58356h8.28493c0.33121,0,0.60216-0.2626,0.60216-0.58356 c0-0.32097-0.27095-0.58357-0.60216-0.58357h-2.45872c-0.33112,0-0.60216-0.26261-0.60216-0.58358 c0-0.32096,0.27104-0.58357,0.60216-0.58357h5.08888c0.33121,0,0.60216-0.2626,0.60216-0.58356 C165.74916,123.55406,165.47821,123.29146,165.147,123.29146z"/></g><g><path fill="#7A7A7A" d="M148.53899,117.27114h-13.50342c-0.33112,0-0.60207,0.2626-0.60207,0.58356 c0,0.32097,0.27095,0.58357,0.60207,0.58357h2.71387c0.33112,0,0.60207,0.26262,0.60207,0.58357 c0,0.32096-0.27095,0.58358-0.60207,0.58358h-0.12555c-0.33112,0-0.60207,0.2626-0.60207,0.58356 c0,0.32097,0.27095,0.58357,0.60207,0.58357h8.28493c0.33121,0,0.60216-0.2626,0.60216-0.58357 c0-0.32096-0.27095-0.58356-0.60216-0.58356h-2.45872c-0.33112,0-0.60216-0.26262-0.60216-0.58358 c0-0.32097,0.27104-0.58357,0.60216-0.58357h5.0889c0.33121,0,0.60214-0.2626,0.60214-0.58357 C149.14113,117.53374,148.87019,117.27114,148.53899,117.27114z"/></g><g><path fill="#7A7A7A" d="M167.70139,162.60291h3.93964v-1.16714h-11.58417c-0.33121,0-0.60214,0.2626-0.60214,0.58357 s0.27094,0.58357,0.60214,0.58357h1.94379c0.33121,0,0.60214,0.2626,0.60214,0.58356c0,0.32097-0.27094,0.58357-0.60214,0.58357 h0.1559c-0.33121,0-0.60216,0.2626-0.60216,0.58357s0.27095,0.58357,0.60216,0.58357h1.64687 c0.26161,0.06348,0.45749,0.29207,0.45749,0.56447c0,0.27242-0.19597,0.50101-0.45749,0.56448h-5.70406 c-0.33121,0-0.60216,0.2626-0.60216,0.58357c0,0.32095,0.27095,0.58357,0.60216,0.58357h13.50331 c0.01312,0,0.02542-0.00296,0.03836-0.00378v-1.15959c-0.01294-0.00081-0.02524-0.00377-0.03836-0.00377h-1.31746 c-0.26152-0.06348-0.45747-0.29207-0.45747-0.56448c0-0.2724,0.19595-0.50099,0.45747-0.56447h0.15617 c0.33121,0,0.60216-0.2626,0.60216-0.58357s-0.27095-0.58357-0.60216-0.58357h-2.73999 c-0.33121,0-0.60216-0.2626-0.60216-0.58357C167.09923,162.86551,167.37018,162.60291,167.70139,162.60291z"/></g><g><g><path fill="#7A7A7A" d="M131.0777,136.77905h-0.12546c-0.19362,0-0.36479,0.09123-0.47516,0.22992v0.70729 c0.11037,0.13869,0.28154,0.22992,0.47516,0.22992h8.28484c0.33121,0,0.60216-0.2626,0.60216-0.58356 c0-0.32097-0.27095-0.58357-0.60216-0.58357h-2.45872c-0.33112,0-0.60205-0.2626-0.60205-0.58357 s0.27094-0.58357,0.60205-0.58357h5.0889c0.33121,0,0.60216-0.2626,0.60216-0.58357c0-0.32095-0.27095-0.58357-0.60216-0.58357 h-1.38823c-0.33121,0-0.60216-0.2626-0.60216-0.58356c0-0.32098,0.27095-0.58359,0.60216-0.58359h3.36613 c0.33112,0,0.60207-0.2626,0.60207-0.58357c0-0.32095-0.27095-0.58357-0.60207-0.58357h-5.34395 c-0.33121,0-0.60216-0.2626-0.60216-0.58356c0-0.32097,0.27095-0.58357,0.60216-0.58357h4.55777 c0.33121,0,0.60216-0.2626,0.60216-0.58357s-0.27095-0.58357-0.60216-0.58357h-12.58189v1.16714h1.25288 c0.33121,0,0.60216,0.26262,0.60216,0.58357s-0.27095,0.58356-0.60216,0.58356h-1.25288v1.16714h4.30119 c0.33121,0,0.60216,0.26262,0.60216,0.58359c0,0.32095-0.27095,0.58356-0.60216,0.58356h-4.30119v1.16714h0.60062 c0.33121,0,0.60216,0.2626,0.60216,0.58357S131.40891,136.77905,131.0777,136.77905z"/></g></g><g id="brique_1_"><path fill="#7A7A7A" d="M167.64055,106.60217h-15.17767c-0.33112,0-0.60207,0.2626-0.60207,0.58357v0.13286 c0,0.32097,0.27095,0.58357,0.60207,0.58357h2.87363c0.33112,0,0.60207,0.2626,0.60207,0.58357 c0,0.32096-0.27095,0.58356-0.60207,0.58356h-1.38832c-0.33112,0-0.60207,0.2626-0.60207,0.58357 c0,0.32096,0.27095,0.58357,0.60207,0.58357h4.43663c0.33112,0,0.60207,0.26261,0.60207,0.58356 c0,0.32097-0.27095,0.58357-0.60207,0.58357h-6.41444c-0.33121,0-0.60214,0.26261-0.60214,0.58358 c0,0.32096,0.27094,0.58357,0.60214,0.58357h2.71378c0.33121,0,0.60216,0.2626,0.60216,0.58356 c0,0.32095-0.27095,0.58357-0.60216,0.58357h-0.12546c-0.33121,0-0.60214,0.2626-0.60214,0.58356 c0,0.32097,0.27094,0.58357,0.60214,0.58357h8.28493c0.33113,0,0.60207-0.2626,0.60207-0.58357 c0-0.32096-0.27094-0.58356-0.60207-0.58356h-2.45872c-0.33121,0-0.60214-0.26262-0.60214-0.58357 c0-0.32098,0.27094-0.58356,0.60214-0.58356h5.08881c0.33121,0,0.60216-0.26261,0.60216-0.58357 c0-0.32097-0.27095-0.58358-0.60216-0.58358h-1.38823c-0.33121,0-0.60207-0.2626-0.60207-0.58357 c0-0.32096,0.27086-0.58356,0.60207-0.58356h3.36613c0.33121,0,0.60216-0.26261,0.60216-0.58357 c0-0.32097-0.27095-0.58357-0.60216-0.58357h-5.34395c-0.33121,0-0.60214-0.2626-0.60214-0.58356 c0-0.32097,0.27094-0.58357,0.60214-0.58357h5.5329c0.33121,0,0.60216-0.2626,0.60216-0.58357v-0.13286 C168.24271,106.86477,167.97176,106.60217,167.64055,106.60217z"/></g><g id="ombre_batiment_1_" opacity=".2"><rect width="7.847" height="74.121" x="163.794" y="100.759" fill="#333"/></g><g id="rebord_toit_27_"><rect width="42.272" height="2.288" x="129.354" y="100.835" fill="#555B65"/></g><g id="buisson_1_3_"><path fill="#96B556" d="M136.72383,163.43065c0,0-1.68597,2.94119-1.68597,5.43675c0,2.82236,1.68597,5.87497,1.68597,5.87497 s1.68597-3.0229,1.68597-5.87497C138.40981,166.43126,136.72383,163.43065,136.72383,163.43065z"/></g><g id="ombre_buisson_1_3_" opacity=".63"><path fill="#717D36" d="M138.42676,168.8674c0-2.43614-1.68604-5.43675-1.68604-5.43675v11.31171 C136.74072,174.74236,138.42676,171.71947,138.42676,168.8674z"/></g><g id="buisson_2_3_"><path fill="#96B556" d="M141.70668,163.43065c0,0-1.68597,2.94119-1.68597,5.43675c0,2.82236,1.68597,5.87497,1.68597,5.87497 s1.68596-3.0229,1.68596-5.87497C143.39264,166.43126,141.70668,163.43065,141.70668,163.43065z"/></g><g id="ombre_buisson_2_3_" opacity=".63"><path fill="#717D36" d="M143.3927,168.8674c0-2.43614-1.68602-5.43675-1.68602-5.43675v11.31171 C141.70668,174.74236,143.3927,171.71947,143.3927,168.8674z"/></g><g id="buisson_3_3_"><path fill="#96B556" d="M146.55,163.43065c0,0-1.68596,2.94119-1.68596,5.43675c0,2.82236,1.68596,5.87497,1.68596,5.87497 s1.68597-3.0229,1.68597-5.87497C148.23598,166.43126,146.55,163.43065,146.55,163.43065z"/></g><g id="ombre_buisson_3_3_" opacity=".63"><path fill="#717D36" d="M148.26712,168.8674c0-2.43614-1.68604-5.43675-1.68604-5.43675v11.31171 C146.58109,174.74236,148.26712,171.71947,148.26712,168.8674z"/></g><g id="buisson_4_3_"><path fill="#96B556" d="M151.47154,163.43065c0,0-1.68597,2.94119-1.68597,5.43675c0,2.82236,1.68597,5.87497,1.68597,5.87497 s1.68597-3.0229,1.68597-5.87497C153.15752,166.43126,151.47154,163.43065,151.47154,163.43065z"/></g><g id="ombre_buisson_4_3_" opacity=".63"><path fill="#717D36" d="M153.15758,168.8674c0-2.43614-1.68604-5.43675-1.68604-5.43675v11.31171 C151.47154,174.74236,153.15758,171.71947,153.15758,168.8674z"/></g><g id="buisson_5_3_"><path fill="#96B556" d="M156.31488,163.43065c0,0-1.68597,2.94119-1.68597,5.43675c0,2.82236,1.68597,5.87497,1.68597,5.87497 s1.68596-3.0229,1.68596-5.87497C158.00084,166.43126,156.31488,163.43065,156.31488,163.43065z"/></g><g id="ombre_buisson_5_3_" opacity=".63"><path fill="#717D36" d="M158.0009,168.8674c0-2.43614-1.68602-5.43675-1.68602-5.43675v11.31171 C156.31488,174.74236,158.0009,171.71947,158.0009,168.8674z"/></g><g id="buisson_6_3_"><path fill="#96B556" d="M161.36964,163.43065c0,0-1.68597,2.94119-1.68597,5.43675c0,2.82236,1.68597,5.87497,1.68597,5.87497 s1.68596-3.0229,1.68596-5.87497C163.0556,166.43126,161.36964,163.43065,161.36964,163.43065z"/></g><g id="ombre_buisson_6_3_" opacity=".63"><path fill="#717D36" d="M163.05566,168.8674c0-2.43614-1.68602-5.43675-1.68602-5.43675v11.31171 C161.36964,174.74236,163.05566,171.71947,163.05566,168.8674z"/></g><g id="buisson_7_3_"><path fill="#96B556" d="M166.21297,163.43065c0,0-1.68597,2.94119-1.68597,5.43675c0,2.82236,1.68597,5.87497,1.68597,5.87497 s1.68597-3.0229,1.68597-5.87497C167.89894,166.43126,166.21297,163.43065,166.21297,163.43065z"/></g><g id="ombre_buisson_7_3_" opacity=".63"><path fill="#717D36" d="M167.899,168.8674c0-2.43614-1.68604-5.43675-1.68604-5.43675v11.31171 C166.21297,174.74236,167.899,171.71947,167.899,168.8674z"/></g><g id="base_buissons_3_"><rect width="34.578" height="2.139" x="134.357" y="172.758" fill="#96B556"/></g><g id="rebord_bas_mur_2_"><rect width="41.199" height="1.852" x="130.442" y="174.157" fill="#BAA18A"/></g><g id="mur_14_"><rect width="38.622" height="57.82" x="205.916" y="118.224" fill="#F9F9F9"/></g><g id="arriere_porte_4_"><rect width="20.786" height="23.171" x="214.44" y="152.83" fill="#555B65"/></g><g id="vitre_porte_gauche_2_"><rect width="9.441" height="22.401" x="214.997" y="153.215" fill="#CFCEC1"/></g><g id="ombre_porte_gauche_13_"><polyline fill="#A5BBB2" points="214.935 175.615 214.935 153.215 224.377 153.215"/></g><g id="vitre_porte_droite_3_"><rect width="9.441" height="22.401" x="225.357" y="153.215" fill="#CFCEC1"/></g><g id="ombre_porte_droite_13_"><polyline fill="#A5BBB2" points="225.357 175.615 225.357 153.215 234.798 153.215"/></g><g id="poignee_porte_gauche_7_"><path fill="#555B65" d="M222.93431,162.52196c-0.20316,0-0.36786,0.15962-0.36786,0.35651v3.38683 c0,0.19688,0.1647,0.35652,0.36786,0.35652c0.20314,0,0.36784-0.15964,0.36784-0.35652v-3.38683 C223.30215,162.68158,223.13745,162.52196,222.93431,162.52196z"/></g><g id="poignee_porte_droite_7_"><path fill="#555B65" d="M226.72011,162.52196c-0.20316,0-0.36786,0.15964-0.36786,0.35651v3.38684 c0,0.19687,0.1647,0.35651,0.36786,0.35651c0.20314,0,0.36784-0.15964,0.36784-0.35651v-3.38684 C227.08795,162.68159,226.92325,162.52196,226.72011,162.52196z"/></g><g id="fenetre_3_11_"><rect width="6.998" height="12.834" x="221.92" y="125.122" fill="#CFCEC1"/><path fill="#474341" d="M228.99295,138.0316h-7.14891v-12.98463h7.14891V138.0316z M221.99503,137.88062h6.84694v-12.68266 h-6.84694V137.88062z"/></g><g id="ombre_fenetre_3_14_"><polyline fill="#A5BBB2" points="222.082 137.8 222.082 125.278 228.755 125.278"/></g><g id="fenetre_2_14_"><rect width="6.998" height="12.834" x="233.53" y="125.122" fill="#CFCEC1"/><path fill="#474341" d="M240.60376,138.0316h-7.14891v-12.98463h7.14891V138.0316z M233.60582,137.88062h6.84695v-12.68266 h-6.84695V137.88062z"/></g><g id="ombre_fenetre_2_14_"><polyline fill="#A5BBB2" points="233.693 137.8 233.693 125.278 240.366 125.278"/></g><g id="fenetre_1_14_"><rect width="6.998" height="12.834" x="210.429" y="125.122" fill="#CFCEC1"/><path fill="#474341" d="M217.50273,138.0316h-7.14893v-12.98463h7.14893V138.0316z M210.50479,137.88062h6.84695v-12.68266 h-6.84695V137.88062z"/></g><g id="ombre_fenetre_1_14_"><polyline fill="#A5BBB2" points="210.592 137.8 210.592 125.278 217.265 125.278"/></g><g id="rebord_milieu_10_"><rect width="39.728" height="3.119" x="205.851" y="144.527" fill="#555B65"/></g><g id="rebord_toit_26_"><rect width="39.728" height="3.119" x="205.851" y="116.065" fill="#555B65"/></g><g id="rebord_mur_bas_3_"><rect width="35.926" height="5.466" x="170.736" y="170.522" fill="#EACF9E"/></g><g id="ombre_rebord_mur_bas_3_"><rect width="35.926" height="1.129" x="170.736" y="170.522" fill="#FFF0D9"/></g><g id="arriere_mur_3_"><rect width="34.21" height="87.107" x="171.641" y="83.415" fill="#375066"/></g><g id="vitre_1_1_"><rect width="4.905" height="16.281" x="171.733" y="84.782" fill="#16618D"/></g><g id="vitre_2_1_"><rect width="4.905" height="16.281" x="177.557" y="84.782" fill="#136997"/></g><g id="vitre_3_1_"><rect width="4.905" height="16.281" x="183.381" y="84.782" fill="#136997"/></g><g id="vitre_4_1_"><rect width="4.905" height="16.281" x="189.206" y="84.782" fill="#136997"/></g><g id="vitre_5_1_"><rect width="4.905" height="16.281" x="195.03" y="84.782" fill="#15628F"/></g><g id="vitre_6_1_"><rect width="4.905" height="16.281" x="200.854" y="84.782" fill="#15628F"/></g><g id="vitre_7_1_"><rect width="4.905" height="16.281" x="171.733" y="101.983" fill="#1773AF"/></g><g id="vitre_8_1_"><rect width="4.905" height="16.281" x="177.557" y="101.983" fill="#1773AF"/></g><g id="vitre_9_1_"><rect width="4.905" height="16.281" x="183.381" y="101.983" fill="#1773AF"/></g><g id="vitre_10_1_"><rect width="4.905" height="16.281" x="189.206" y="101.983" fill="#1773AF"/></g><g id="vitre_11_1_"><rect width="4.905" height="16.281" x="195.03" y="101.983" fill="#1773AF"/></g><g id="vitre_12_1_"><rect width="4.905" height="16.281" x="200.854" y="101.983" fill="#1773AF"/></g><g id="vitre_13_1_"><rect width="4.905" height="16.281" x="171.733" y="119.185" fill="#1B7AAF"/></g><g id="vitre_14_1_"><rect width="4.905" height="16.281" x="177.557" y="119.185" fill="#1B7AAF"/></g><g id="vitre_15_1_"><rect width="4.905" height="16.281" x="183.381" y="119.185" fill="#4F8DB8"/></g><g id="vitre_16_1_"><rect width="4.905" height="16.281" x="189.206" y="119.185" fill="#4F8DB8"/></g><g id="vitre__17_1_"><rect width="4.905" height="16.281" x="195.03" y="119.185" fill="#1B7AAF"/></g><g id="vitre_18_1_"><rect width="4.905" height="16.281" x="200.854" y="119.185" fill="#1B7AAF"/></g><g id="vitre_19_1_"><rect width="4.905" height="16.281" x="171.733" y="136.386" fill="#4185B4"/></g><g id="vitre_20_1_"><rect width="4.905" height="16.281" x="177.557" y="136.386" fill="#5795AD"/></g><g id="vitre_21_1_"><rect width="4.905" height="16.281" x="183.381" y="136.386" fill="#5795AD"/></g><g id="vitre_22_1_"><rect width="4.905" height="16.281" x="189.206" y="136.386" fill="#4F8DB8"/></g><g id="vitre_23_1_"><rect width="4.905" height="16.281" x="195.03" y="136.386" fill="#4F8DB8"/></g><g id="vitre_24_1_"><rect width="4.905" height="16.281" x="200.854" y="136.386" fill="#4185B4"/></g><g id="vitre_25_1_"><rect width="4.905" height="16.281" x="171.733" y="153.588" fill="#5795AD"/></g><g id="vitre_26_1_"><rect width="4.905" height="16.281" x="177.557" y="153.588" fill="#5795AD"/></g><g id="vitre_27_1_"><polyline fill="#64A6B2" points="183.381 159.827 183.381 153.588 188.286 153.588 188.286 169.869 183.381 169.869 183.381 159.827"/></g><g id="vitre_28_1_"><rect width="4.905" height="16.281" x="189.206" y="153.588" fill="#629DB2"/></g><g id="vitre_29_1_"><rect width="4.905" height="16.281" x="195.03" y="153.588" fill="#5795AD"/></g><g id="vitre_30_1_"><rect width="4.905" height="16.281" x="200.854" y="153.588" fill="#5795AD"/></g><g id="rebord_toit_25_"><rect width="35.589" height="2.169" x="170.875" y="81.246" fill="#889AAC"/></g><g id="mur_13_"><rect width="71.018" height="52.367" x="59.592" y="123.661" fill="#F9F9F9"/></g><g id="rebord_toit_24_"><rect width="73.99" height="2.056" x="58.322" y="122.811" fill="#007953"/></g><g id="ombre_rebord_toit_12_" opacity=".36"><g><rect width="71.018" height="1.136" x="59.592" y="124.867" fill="#212222"/></g></g><polygon id="toit_1_" fill="#009066" points="126.814 108.606 118.496 108.606 72.138 108.606 63.821 108.606 58.322 122.811 72.138 122.811 118.496 122.811 132.312 122.811"/><g id="arriere_3_"><rect width="18.934" height="20.396" x="85.301" y="155.634" fill="#7C7C7C"/></g><rect id="arriere_porte_gauche_6_" width="9.157" height="19.987" x="85.611" y="155.982" fill="#7C7C7C"/><g id="porte_gauche_9_"><rect width="8.257" height="19.59" x="86.11" y="156.379" fill="#DFDFDF"/></g><g id="ombre_porte_gauche_12_"><polyline fill="#B6D0C2" points="86.056 175.969 86.056 156.379 94.313 156.379"/></g><rect id="arriere_porte_droite_6_" width="9.157" height="19.987" x="94.747" y="155.982" fill="#7C7C7C"/><g id="porte_droite_9_"><rect width="8.257" height="19.59" x="95.197" y="156.379" fill="#DFDFDF"/></g><g id="ombre_porte_droite_12_"><polyline fill="#B6D0C2" points="95.197 175.969 95.197 156.379 103.454 156.379"/></g><g id="baie_6_1_"><rect width="6.12" height="19.303" x="119.383" y="155.748" fill="#DFDFDF"/><path fill="#DFDFDF" d="M125.56908,175.16434h-6.25198v-19.53006h6.25198V175.16434z M119.44913,174.93726h5.98791v-19.0759 h-5.98791V174.93726z"/></g><g id="ombre_baie_6_1_"><polyline fill="#B6D0C2" points="119.525 174.817 119.525 155.982 125.361 155.982"/></g><g id="baie_5_1_"><rect width="6.12" height="19.303" x="112.396" y="155.748" fill="#DFDFDF"/><path fill="#DFDFDF" d="M118.58145,175.16435h-6.25198v-19.53004h6.25198V175.16435z M112.46151,174.93727h5.98791v-19.0759 h-5.98791V174.93727z"/></g><g id="ombre_baie_5_1_"><polyline fill="#B6D0C2" points="112.538 174.817 112.538 155.982 118.373 155.982"/></g><g id="baie_4_1_"><rect width="6.12" height="19.303" x="105.228" y="155.748" fill="#DFDFDF"/><path fill="#DFDFDF" d="M111.41388,175.16437h-6.25198v-19.53004h6.25198V175.16437z M105.29394,174.93729h5.98791V155.8614 h-5.98791V174.93729z"/></g><g id="ombre_baie_4_1_"><polyline fill="#B6D0C2" points="105.37 174.817 105.37 155.982 111.206 155.982"/></g><g id="baie_3_1_"><rect width="6.12" height="19.303" x="77.887" y="155.748" fill="#DFDFDF"/><path fill="#DFDFDF" d="M84.07295,175.16434h-6.25198v-19.53006h6.25198V175.16434z M77.95301,174.93726h5.98791v-19.0759 h-5.98791V174.93726z"/></g><g id="ombre_baie_3_1_"><polyline fill="#B6D0C2" points="78.029 174.817 78.029 155.982 83.865 155.982"/></g><g id="baie_2_1_"><rect width="6.12" height="19.303" x="70.899" y="155.748" fill="#DFDFDF"/><path fill="#DFDFDF" d="M77.08532,175.16435h-6.25197v-19.53004h6.25197V175.16435z M70.96538,174.93727h5.98792v-19.0759 h-5.98792V174.93727z"/></g><g id="ombre_baie_2_1_"><polyline fill="#B6D0C2" points="71.041 174.817 71.041 155.982 76.877 155.982"/></g><g id="baie_1_1_"><rect width="6.12" height="19.303" x="63.732" y="155.748" fill="#DFDFDF"/><path fill="#DFDFDF" d="M69.91775,175.16437h-6.25197v-19.53004h6.25197V175.16437z M63.79781,174.93729h5.9879V155.8614h-5.9879 V174.93729z"/></g><g id="ombre_baie_1_1_"><polyline fill="#B6D0C2" points="63.874 174.817 63.874 155.982 69.71 155.982"/></g><g id="ombre_pancarte_3_" opacity=".15"><g><rect width="62.51" height=".329" x="63.666" y="153.718" fill="#212222"/></g></g><g id="pancarte_3_"><rect width="62.51" height="7.979" x="63.666" y="145.739" fill="#FFF"/></g><g id="PHARMACIE_3_"><path fill="#56CC25" d="M82.72001,147.43884h1.54055c1.00137,0,1.73669,0.35013,1.73669,1.41449 c0,1.01538-0.75634,1.48457-1.73669,1.48457h-0.72823v1.68062h-0.81232V147.43884z M84.19057,149.68668 c0.68626,0,1.00838-0.27313,1.00838-0.83334c0-0.57423-0.34313-0.76328-1.00838-0.76328h-0.65823v1.59662H84.19057z"/><path fill="#56CC25" d="M86.83778,147.43884h0.81232v1.84163h1.84864v-1.84163h0.81232v4.57968h-0.81232v-2.03076H87.6501 v2.03076h-0.81232V147.43884z"/><path fill="#56CC25" d="M93.58147,150.77905h-1.53354l-0.35715,1.23947h-0.83334l1.49859-4.57968h0.95231l1.49158,4.57968 h-0.86129L93.58147,150.77905z M93.39943,150.14185l-0.16109-0.56021c-0.14008-0.4832-0.28006-1.00836-0.41312-1.5126h-0.02804 c-0.12605,0.51125-0.25912,1.0294-0.40611,1.5126l-0.1611,0.56021H93.39943z"/><path fill="#56CC25" d="M97.8393,152.01852l-0.98743-1.79266h-0.69318v1.79266h-0.81232v-4.57968h1.54055 c0.95239,0,1.68763,0.33612,1.68763,1.35851c0,0.70029-0.36416,1.12042-0.91736,1.30946l1.09248,1.91171H97.8393z M96.15868,149.58163h0.64422c0.6302,0,0.96632-0.26613,0.96632-0.78429c0-0.52525-0.33613-0.70729-0.96632-0.70729h-0.64422 V149.58163z"/><path fill="#56CC25" d="M99.5201,147.43884h0.88932l0.82634,2.25484l0.30109,0.8683h0.02803l0.30109-0.8683l0.80531-2.25484 h0.89633v4.57968h-0.76327v-2.09375c0-0.42714,0.06299-1.03641,0.10503-1.45654h-0.02803l-0.37116,1.04333l-0.7913,2.07982 h-0.37108l-0.79131-2.07982l-0.36415-1.04333h-0.02803c0.03503,0.42014,0.09802,1.0294,0.09802,1.45654v2.09375H99.5201 V147.43884z"/><path fill="#56CC25" d="M106.8381,150.77905h-1.53355l-0.35715,1.23947h-0.83334l1.49859-4.57968h0.95231l1.49158,4.57968 h-0.86129L106.8381,150.77905z M106.65607,150.14185l-0.1611-0.56021c-0.14007-0.4832-0.28014-1.00836-0.41312-1.5126h-0.02803 c-0.12606,0.51125-0.25912,1.0294-0.40612,1.5126l-0.16109,0.56021H106.65607z"/><path fill="#56CC25" d="M110.40266,147.35483c0.56021,0,1.01538,0.27306,1.30254,0.58115l-0.44817,0.50423 c-0.2381-0.23109-0.49722-0.37817-0.84736-0.37817c-0.74925,0-1.28844,0.63029-1.28844,1.65968 c0,1.04333,0.49714,1.67361,1.26041,1.67361c0.4062,0,0.70728-0.16811,0.96641-0.45517l0.44817,0.49713 c-0.37116,0.42715-0.84736,0.66525-1.4285,0.66525c-1.16247,0-2.07982-0.84027-2.07982-2.35988 C108.2879,148.24416,109.22627,147.35483,110.40266,147.35483z"/><path fill="#56CC25" d="M112.54573,147.43884h0.81232v4.57968h-0.81232V147.43884z"/><path fill="#56CC25" d="M114.4995,147.43884h2.75198v0.68626h-1.93966v1.16937h1.64558v0.68628h-1.64558v1.3515h2.00974v0.68626 h-2.82206V147.43884z"/></g><polygon id="logo_pharmacie_3_" fill="#56CC25" points="79.463 148.487 77.664 148.487 77.664 146.689 75.182 146.689 75.182 148.487 73.383 148.487 73.383 150.97 75.182 150.97 75.182 152.769 77.664 152.769 77.664 150.97 79.463 150.97"/><g id="fenetre_5_7_"><rect width="6.12" height="11.223" x="108.95" y="129.225" fill="#DFDFDF"/><path fill="#DFDFDF" d="M115.1363,140.51408h-6.25198v-11.35556h6.25198V140.51408z M109.01636,140.38205h5.98791v-11.09149 h-5.98791V140.38205z"/></g><g id="ombre_fenetre_5_7_"><polyline fill="#B6D0C2" points="109.092 140.312 109.092 129.361 114.928 129.361"/></g><g id="fenetre_6_7_"><rect width="6.12" height="11.223" x="119.383" y="129.225" fill="#DFDFDF"/><path fill="#DFDFDF" d="M125.56908,140.51408h-6.25198v-11.35556h6.25198V140.51408z M119.44914,140.38205h5.98791v-11.09149 h-5.98791V140.38205z"/></g><g id="ombre_fenetre_6_7_"><polyline fill="#B6D0C2" points="119.525 140.312 119.525 129.361 125.361 129.361"/></g><g id="fenetre_4_2_"><rect width="6.12" height="11.223" x="98.004" y="129.225" fill="#DFDFDF"/><path fill="#DFDFDF" d="M104.19003,140.5141h-6.25198v-11.35556h6.25198V140.5141z M98.07008,140.38206h5.98791v-11.09149 h-5.98791V140.38206z"/></g><g id="ombre_fenetre_4_7_"><polyline fill="#B6D0C2" points="98.146 140.312 98.146 129.361 103.982 129.361"/></g><g id="fenetre_3_6_"><rect width="6.12" height="11.223" x="87.058" y="129.225" fill="#DFDFDF"/><path fill="#DFDFDF" d="M93.24376,140.5141h-6.25198v-11.35556h6.25198V140.5141z M87.12382,140.38206h5.98791v-11.09149 h-5.98791V140.38206z"/></g><g id="ombre_fenetre_3_13_"><polyline fill="#B6D0C2" points="87.169 140.312 87.169 129.361 93.005 129.361"/></g><g id="fenetre_2_13_"><rect width="6.12" height="11.223" x="76.112" y="129.022" fill="#DFDFDF"/><path fill="#DFDFDF" d="M82.29749,140.31184h-6.25198V128.9563h6.25198V140.31184z M76.17755,140.17982h5.98791v-11.09149 h-5.98791V140.17982z"/></g><g id="ombre_fenetre_2_13_"><polyline fill="#B6D0C2" points="76.254 140.11 76.254 129.159 82.09 129.159"/></g><g id="fenetre_1_13_"><rect width="6.12" height="11.223" x="65.165" y="129.022" fill="#DFDFDF"/><path fill="#DFDFDF" d="M71.35122,140.31184h-6.25198V128.9563h6.25198V140.31184z M65.23128,140.17982h5.98791v-11.09149 h-5.98791V140.17982z"/></g><g id="ombre_fenetre_1_13_"><polyline fill="#B6D0C2" points="65.307 140.11 65.307 129.159 71.143 129.159"/></g><rect id="mur_arriere_4_" width="49.501" height="28.201" x="8.478" y="141.78" fill="#FFF"/><polygon id="mur_avant_4_" fill="#A5ADA2" points="54.372 169.925 11.363 169.925 11.403 144.004 54.412 144.004"/><rect id="rebord_bas_4_" width="52.702" height="6.138" x="6.876" y="169.912" fill="#373538"/><rect id="porte_3_" width="12.761" height="23.292" x="41.037" y="152.396" fill="#CFCEC1" stroke="#231F20" stroke-miterlimit="10"/><g id="ombre_vitre_droite_16_"><polyline fill="#A5BBB2" points="41.387 175.318 41.447 152.404 53.746 152.404"/></g><rect id="pancarte_ouverture_porte_4_" width="4.415" height="2.622" x="45.194" y="157.618" fill="#E8E8E5"/><rect id="poignee_porte_3_" width="12.617" height="1.997" x="41.094" y="162.772" fill="#E8E8E5"/><rect id="ombre_poignee_porte_4_" width="12.617" height=".221" x="41.119" y="164.769" fill="#303030" opacity=".33"/><rect id="vitrine_3_" width="28.251" height="15.93" x="12.143" y="152.396" fill="#CFCEC1" stroke="#231F20" stroke-miterlimit="10"/><g id="ombre_vitre_droite_15_"><polyline fill="#A5BBB2" points="12.529 167.951 12.529 152.401 21.517 152.401"/></g><g id="ombre_vitre_droite_14_"><polyline fill="#A5BBB2" points="21.517 168.32 21.517 152.401 30.812 152.401"/></g><g id="ombre_vitre_droite_5_"><polyline fill="#A5BBB2" points="31.015 168.32 31.015 152.401 40.311 152.401"/></g><line id="séparation_verticale_vitre_9_" x1="21.526" x2="21.526" y1="152.404" y2="168.323" fill="none" stroke="#231F20" stroke-miterlimit="10"/><line id="séparation_verticale_vitre_6_" x1="31.015" x2="31.015" y1="152.44" y2="168.359" fill="none" stroke="#231F20" stroke-miterlimit="10"/><line id="separation_horizontale_vitre_4_" x1="12.115" x2="40.394" y1="160.399" y2="160.399" fill="none" stroke="#231F20" stroke-miterlimit="10"/><polygon id="base_store_blanche_4_" fill="#F4F4F4" points="11.784 144.758 5.615 152.396 59.582 152.396 53.413 144.758"/><polygon id="bande_rouge_6_4_" fill="#E9582E" points="50.595 152.408 55.093 152.395 49.486 144.758 45.756 144.758"/><polygon id="bande_rouge_5_4_" fill="#E9582E" points="41.599 152.402 46.097 152.388 42.322 144.751 39.063 144.751"/><polygon id="bande_rouge_4_4_" fill="#E9582E" points="35.874 144.752 32.603 144.752 32.603 152.408 37.101 152.408"/><polygon id="bande_rouge_3_4_" fill="#E9582E" points="28.071 152.408 23.573 152.395 25.417 144.757 29.055 144.752"/><polygon id="bande_rouge_2_4_" fill="#E9582E" points="19.109 152.408 14.611 152.395 19.109 144.758 22.723 144.758"/><polygon id="bande_rouge_1_4_" fill="#E9582E" points="11.784 144.758 5.615 152.396 10.113 152.408 15.514 144.758"/><path fill="#E5E5E5" d="M59.59155,152.40797c0,1.09782-1.00702,1.98869-2.2487,1.98869 c-1.24227,0-2.24929-0.89087-2.24929-1.98869"/><path fill="#C24117" d="M55.09368,152.40797c0,1.09782-1.00702,1.98869-2.24929,1.98869c-1.24168,0-2.2487-0.89087-2.2487-1.98869"/><path fill="#E5E5E5" d="M50.59558,152.40797c0,1.09782-1.00702,1.98869-2.2487,1.98869 c-1.24227,0-2.24929-0.89087-2.24929-1.98869"/><path fill="#C24117" d="M46.09753,152.40797c0,1.09782-1.00702,1.98869-2.2487,1.98869 c-1.24226,0-2.24928-0.89087-2.24928-1.98869"/><path fill="#E5E5E5" d="M41.59944,152.40797c0,1.09782-1.00702,1.98869-2.2487,1.98869 c-1.24226,0-2.24928-0.89087-2.24928-1.98869"/><path fill="#C24117" d="M37.10139,152.40797c0,1.09782-1.00702,1.98869-2.24929,1.98869c-1.24168,0-2.2487-0.89087-2.2487-1.98869"/><path fill="#E5E5E5" d="M32.60329,152.40797c0,1.09782-1.00702,1.98869-2.24929,1.98869c-1.24167,0-2.2487-0.89087-2.2487-1.98869"/><path fill="#C24117" d="M28.10526,152.40797c0,1.09782-1.00702,1.98869-2.2487,1.98869 c-1.24227,0-2.24928-0.89087-2.24928-1.98869"/><path fill="#E5E5E5" d="M23.60715,152.40797c0,1.09782-1.00702,1.98869-2.24929,1.98869c-1.24168,0-2.2487-0.89087-2.2487-1.98869"/><path fill="#C24117" d="M19.10911,152.40797c0,1.09782-1.00702,1.98869-2.24929,1.98869c-1.24168,0-2.2487-0.89087-2.2487-1.98869"/><path fill="#E5E5E5" d="M14.6109,152.40797c0,1.09782-1.00702,1.98869-2.2487,1.98869c-1.24227,0-2.24929-0.89087-2.24929-1.98869"/><path fill="#C24117" d="M10.11297,152.40797c0,1.09782-1.00702,1.98869-2.24929,1.98869c-1.24168,0-2.2487-0.89087-2.2487-1.98869"/><rect id="ombre_rebord_toit_1_" width="49.501" height=".52" x="8.478" y="141.78" fill="#303030" opacity=".33"/><rect id="rebord_toit_1_" width="52.702" height="3.215" x="6.876" y="138.565" fill="#707070"/><rect id="arriere_pancarte_3_" width="20.262" height="5.845" x="22.697" y="135.042" fill="#FFF" stroke="#E9582E" stroke-miterlimit="10"/><g id="epicerie_4_"><path fill="#E9582E" d="M25.34403,136.62932h1.54799v0.28668h-1.20398v0.84363h1.01561v0.29076h-1.01561v0.97467H26.933v0.29076 h-1.58897V136.62932z M26.21632,136.42456h-0.28256l0.3604-0.45868h0.38495L26.21632,136.42456z"/><path fill="#E9582E" d="M27.48194,136.62932h0.82723c0.59384,0,0.99106,0.20065,0.99106,0.79037 c0,0.56517-0.40542,0.83134-0.99106,0.83134h-0.48322v1.06477h-0.34401V136.62932z M28.26415,137.97255 c0.47094,0,0.69618-0.17198,0.69618-0.55286c0-0.38902-0.23343-0.51601-0.69618-0.51601h-0.4382v1.06886H28.26415z"/><path fill="#E9582E" d="M29.82058,136.62932h0.34401v2.68649h-0.34401V136.62932z"/><path fill="#E9582E" d="M31.92155,136.58018c0.31943,0,0.57333,0.15559,0.73304,0.33171l-0.19249,0.21704 c-0.14332-0.15152-0.31531-0.24979-0.53647-0.24979c-0.51192,0-0.85181,0.41769-0.85181,1.08524 c0,0.67572,0.32354,1.10161,0.83542,1.10161c0.2539,0,0.44232-0.10646,0.6143-0.29897l0.19249,0.20889 c-0.20889,0.2457-0.47506,0.38902-0.81499,0.38902c-0.67571,0-1.17944-0.51599-1.17944-1.3924 C30.7216,137.10846,31.23352,136.58018,31.92155,136.58018z"/><path fill="#E9582E" d="M33.19537,136.62932h1.54799v0.28668h-1.20398v0.84363h1.01561v0.29076h-1.01561v0.97467h1.24496v0.29076 h-1.58897V136.62932z"/><path fill="#E9582E" d="M36.80758,139.31581l-0.64708-1.13438h-0.48322v1.13438h-0.34401v-2.68649h0.84362 c0.54466,0,0.93781,0.19658,0.93781,0.75356c0,0.41769-0.23751,0.66751-0.60199,0.7617l0.68391,1.17123H36.80758z M35.67728,137.90294h0.45047c0.41773,0,0.64705-0.17198,0.64705-0.52007c0-0.3522-0.22932-0.47919-0.64705-0.47919h-0.45047 V137.90294z"/><path fill="#E9582E" d="M37.69234,136.62932h0.34401v2.68649h-0.34401V136.62932z"/><path fill="#E9582E" d="M38.749,136.62932h1.54799v0.28668h-1.20398v0.84363h1.0156v0.29076h-1.0156v0.97467h1.24496v0.29076 H38.749V136.62932z"/></g><g id="trond_4_"><polygon fill="#AD6A15" points="300.68 177.568 298.146 177.568 298.146 166.772 298.146 158.076 300.68 158.076"/></g><g id="droite_6_"><path fill="#AD6A15" d="M300.36484,165.7664h3.09808c0,0,1.35541,0.06305,1.35541-1.53806c0-1.60112,0-6.51486,0-6.51486h1.98471 v7.12218c0,0,0.0968,3.0918-2.61401,3.0918s-3.82419,0-3.82419,0V165.7664z"/></g><g id="branche_gauche_8_"><path fill="#AD6A15" d="M298.14618,162.91217h-2.91345c0,0-1.27463,0.15723-1.27463-0.98273s0-4.63844,0-4.63844h-1.86642 v5.07085c0,0-0.09103,2.20129,2.45822,2.20129s3.59628,0,3.59628,0V162.91217z"/></g><g id="boule_arriere_plan_8_"><circle cx="297.052" cy="151.106" r="9.653" fill="#6F9738"/></g><g id="boule_bas_gauche_9_"><ellipse cx="288.07" cy="153.014" fill="#A1C75D" rx="4.888" ry="4.91"/></g><g id="boule_second_plan_8_"><circle cx="302.654" cy="147.311" r="7.472" fill="#85B348"/></g><g id="boule_haut_8_"><ellipse cx="301.231" cy="138.668" fill="#A1C75D" rx="6.049" ry="6.077"/></g><g id="boule_bas_droite_8_"><ellipse cx="306.705" cy="155.491" fill="#A1C75D" rx="6.404" ry="6.434"/></g><g id="trond_3_"><polygon fill="#AD6A15" points="134.384 177.568 131.85 177.568 131.85 166.772 131.85 158.076 134.384 158.076"/></g><g id="droite_3_"><path fill="#AD6A15" d="M134.06911,165.7664h3.09807c0,0,1.35541,0.06305,1.35541-1.53806c0-1.60112,0-6.51486,0-6.51486h1.98471 v7.12218c0,0,0.09682,3.0918-2.614,3.0918s-3.82419,0-3.82419,0V165.7664z"/></g><g id="branche_gauche_7_"><path fill="#AD6A15" d="M132.3121,162.77367h-2.91345c0,0-1.27463,0.15724-1.27463-0.98273c0-1.13995,0-4.63844,0-4.63844 h-1.86642v5.07085c0,0-0.09104,2.20129,2.45822,2.20129c2.54926,0,3.59628,0,3.59628,0V162.77367z"/></g><g id="boule_arriere_plan_7_"><circle cx="131.218" cy="150.967" r="9.653" fill="#6F9738"/></g><g id="boule_bas_gauche_2_"><ellipse cx="122.236" cy="152.875" fill="#A1C75D" rx="4.888" ry="4.91"/></g><g id="boule_second_plan_7_"><circle cx="136.358" cy="147.311" r="7.472" fill="#85B348"/></g><g id="boule_haut_7_"><ellipse cx="134.936" cy="138.668" fill="#A1C75D" rx="6.049" ry="6.077"/></g><g id="boule_bas_droite_7_"><ellipse cx="140.41" cy="155.491" fill="#A1C75D" rx="6.404" ry="6.434"/></g></g><g id="Calque_74"><g id="illu_city_72_x25__2_"><g><g><path fill="none" stroke="#00A071" stroke-miterlimit="10" stroke-width="3" d="M375.7941,112.89824 c0,0-0.65039-1.09497-1.896-2.9375"/><path fill="none" stroke="#00A071" stroke-dasharray="6.888 6.888" stroke-miterlimit="10" stroke-width="3" d="M369.86856,104.37798c-8.62402-11.25317-26.12817-30.1311-48.9751-34.24463 c-33.0354-5.94751-62.6936,1.89624-74.87488-11.32983c-12.56775-13.64575-18.41211-29.3999-7.1582-44.72803 c6.12952-7.72754,19.47717-10.55737,28.19519,1.21973s3.67065,54.98852-42.09521,52.51904 c-34.6189-1.86792-52.24866-9.13842-52.24866-9.13842s-14.74597-4.91528-25.26501-6.21313"/><path fill="none" stroke="#00A071" stroke-miterlimit="10" stroke-width="3" d="M144.01981,52.17168 c-1.30835-0.05005-2.48987-0.00903-3.4917,0.14697"/></g></g><polygon fill="#CECECE" points="131.361 49.958 137.788 54.871 111.662 76.338"/><polygon fill="#E0E0E0" points="131.643 54.595 137.883 54.86 111.662 76.338"/><polygon fill="#EFEFEF" points="130.36 41.002 111.595 76.518 131.361 49.958"/><polygon fill="#EFEFEF" points="133.122 67.122 111.595 76.518 131.643 54.595"/></g></g></g></svg>