<?xml version="1.0" encoding="utf-8"?>
<!-- Generator: Adobe Illustrator 20.0.0, SVG Export Plug-In . SVG Version: 6.00 Build 0)  -->
<svg version="1.1" xmlns="http://www.w3.org/2000/svg" xmlns:xlink="http://www.w3.org/1999/xlink" x="0px" y="0px"
	 viewBox="0 0 442.94376 188.27763" enable-background="new 0 0 442.94376 188.27763" xml:space="preserve">
<g id="Guides" display="none">
</g>
<g id="footer">
	<g id="RS">
	</g>
</g>
<g id="contact">
	<g id="Réseaux_Sociaux">
	</g>
	<g id="form">
		<g id="btn_valider">
		</g>
	</g>
</g>
<g id="les_offres">
	<g id="personnalisation">
		<g id="thème_complet">
		</g>
		<g id="logo">
		</g>
		<g id="couleurs">
		</g>
		<g id="image_banniere">
		</g>
	</g>
	<g id="détail_flexiweb_plus">
		<g id="btn_voir_la_video">
		</g>
		<g id="timeline_1_">
			<g id="_x35__1_">
			</g>
			<g id="_x34__1_">
			</g>
			<g id="_x33__1_">
			</g>
			<g id="_x32__1_">
			</g>
			<g id="_x31__1_">
			</g>
		</g>
		<g id="etape_5">
		</g>
		<g id="etape_4">
		</g>
		<g id="etape_3">
		</g>
		<g id="etape_2">
		</g>
		<g id="etape_1">
		</g>
	</g>
	<g id="tableau">
		<g id="optiweb">
			<g id="btn_je_m_x27_inscris_3_">
			</g>
		</g>
		<g id="flexiweb__x2B_">
			<g id="btn_je_m_x27_inscris_2_">
			</g>
		</g>
		<g id="flexiweb">
			<g id="btn_je_m_x27_inscris_1_">
			</g>
		</g>
		<g id="ecoweb">
			<g id="btn_je_m_x27_inscris">
			</g>
		</g>
	</g>
</g>
<g id="photo_bkgd_pharma">
</g>
<g id="chiffres">
	<g id="_x35_0_x25_">
	</g>
	<g id="_x37_3_x25_">
	</g>
	<g id="_x37_2_x25_">
	</g>
	<g id="_x38_5_x25_">
	</g>
</g>
<g id="map__x2B__testimoniaux">
	<g id="testimoniaux">
	</g>
	<g id="map">
		<g id="cursor_clients">
		</g>
	</g>
</g>
<g id="_x36__bonnes_raisons_de_choisir">
	<g id="coût">
	</g>
	<g id="accompagnement">
	</g>
	<g id="satisfaction">
	</g>
	<g id="fidelisation">
	</g>
	<g id="expertise">
	</g>
	<g id="dev_service_de_proximité">
	</g>
	<g id="timeline">
	</g>
</g>
<g id="les_garanties">
	<g id="borders">
	</g>
</g>
<g id="les_objectifs">
	<g id="Augmenter">
	</g>
	<g id="Connecter">
	</g>
	<g id="Gagner">
	</g>
	<g id="Simplifier">
	</g>
	<g id="Aider">
	</g>
	<g id="Innover">
	</g>
</g>
<g id="actualités">
	<g id="btn_voir_toutes_les_actus">
	</g>
	<g id="hover_article">
	</g>
</g>
<g id="à_propos">
	<g id="btn_video_président">
	</g>
</g>
<g id="click_to_call">
</g>
<g id="home">
	<g id="bouton_téléchargez_le_livre_blanc">
	</g>
	<g id="header">
	</g>
</g>
<g id="illustration_72_x25_">
	<g id="Calque_73">
		<polygon id="tour_pardieu_3_" fill="#E5E5E5" points="225.66875,97.36855 225.66875,96.75949 212.90138,83.5323 
			200.67503,96.75949 200.69525,96.75949 200.69525,97.36855 199.8438,97.36855 199.8438,175.60391 226.49998,175.60391 
			226.49998,97.36855 		"/>
		<polygon id="tour_incity_2_3_" fill="#E5E5E5" points="92.69473,175.43312 69.46214,175.43312 69.46214,97.01869 
			92.69473,84.04673 		"/>
		<path id="tour_incity_3_" fill="#E5E5E5" d="M48.00111,83.20974l-0.90321-23.92209c0,0-0.49169,15.83772-0.58737,24.75436
			l-6.2002,3.4619v88.02046H66.389V72.94283L48.00111,83.20974z"/>
		<g id="rebord_trottoir_4_">
			<rect x="2.23936" y="183.9265" fill="#AAAAAA" width="437.44495" height="1.42731"/>
		</g>
		<g id="trottoir_4_">
			<rect x="2.07438" y="175.27658" fill="#919191" width="437.55328" height="9.08574"/>
		</g>
		<rect id="mur_17_" x="389.0318" y="108.10269" fill="#F7F7B2" width="44.95229" height="68.07345"/>
		<g id="brique_7_4_">
			<path fill="#EFEDA5" d="M432.23135,167.89828h-11.91895c-0.29227,0-0.5314,0.2318-0.5314,0.51509
				c0,0.28331,0.23914,0.51509,0.5314,0.51509h2.39542c0.29227,0,0.53143,0.23181,0.53143,0.51511s-0.23917,0.51509-0.53143,0.51509
				h-0.11081c-0.29227,0-0.5314,0.2318-0.5314,0.51511c0,0.28329,0.23914,0.51509,0.5314,0.51509h7.31277
				c0.29236,0,0.53149-0.2318,0.53149-0.51509c0-0.28331-0.23914-0.51511-0.53149-0.51511h-2.17023
				c-0.29224,0-0.53149-0.2318-0.53149-0.51509c0-0.28331,0.23926-0.51511,0.53149-0.51511h4.49179
				c0.29233,0,0.53149-0.23178,0.53149-0.51509C432.76285,168.13008,432.52368,167.89828,432.23135,167.89828z"/>
		</g>
		<path id="brique_6_4_" fill="#EFEDA5" d="M418.30408,160.83211h-7.79681v3.09056h5.47528
			c0.29236,0,0.53149-0.23178,0.53149-0.51509c0-0.28329-0.23914-0.51509-0.53149-0.51509h-2.1702
			c-0.2923,0-0.53152-0.2318-0.53152-0.51511c0-0.28329,0.23923-0.51509,0.53152-0.51509h4.49173
			c0.29236,0,0.53149-0.2318,0.53149-0.51509C418.83557,161.06389,418.59644,160.83211,418.30408,160.83211z"/>
		<path id="brique_5_4_" fill="#EFEDA5" d="M433.28812,154.3513h0.69598v-1.03018h-2.44168
			c-0.29236,0-0.53149-0.2318-0.53149-0.51509c0-0.28331,0.23914-0.51509,0.53149-0.51509h2.44168v-1.0302h-10.33762
			c-0.2923,0-0.53143,0.23178-0.53143,0.51509c0,0.28329,0.23914,0.51511,0.53143,0.51511h1.91928
			c0.2923,0,0.53143,0.23178,0.53143,0.51509c0,0.28329-0.23914,0.51509-0.53143,0.51509h-1.2254
			c-0.29227,0-0.5314,0.2318-0.5314,0.51509c0,0.28331,0.23914,0.51509,0.5314,0.51509h3.91605
			c0.29221,0,0.53143,0.2318,0.53143,0.51511c0,0.28329-0.23923,0.51509-0.53143,0.51509h-5.6618
			c-0.29236,0-0.53149,0.2318-0.53149,0.51509s0.23914,0.51509,0.53149,0.51509h2.39542c0.29227,0,0.5314,0.23181,0.5314,0.51509
			c0,0.28331-0.23914,0.51511-0.5314,0.51511h-0.11081c-0.2923,0-0.53143,0.2318-0.53143,0.51511
			c0,0.28329,0.23914,0.51508,0.53143,0.51508h7.31277c0.2923,0,0.53143-0.23178,0.53143-0.51508
			c0-0.28331-0.23914-0.51511-0.53143-0.51511h-2.1702c-0.29236,0-0.53152-0.2318-0.53152-0.51511
			c0-0.28329,0.23917-0.51509,0.53152-0.51509h3.96231v-1.03018h-0.69598c-0.2923,0-0.53143-0.2318-0.53143-0.51509
			C432.75668,154.5831,432.99582,154.3513,433.28812,154.3513z"/>
		<g id="brique_4_4_">
			<path fill="#EFEDA5" d="M396.41516,144.03197h-2.1702c-0.2923,0-0.53152-0.2318-0.53152-0.51509h-1.39639v-1.54529h-3.28525
				v1.03018h0.1814c0.29227,0,0.5314,0.2318,0.5314,0.51511c0,0.28329-0.23914,0.51509-0.5314,0.51509h-0.11081
				c-0.02414,0-0.04724,0.00388-0.07059,0.00694v1.01631c0.02335,0.00307,0.04645,0.00694,0.07059,0.00694h7.31277
				c0.29236,0,0.53152-0.2318,0.53152-0.51511C396.94669,144.26376,396.70752,144.03197,396.41516,144.03197z"/>
			<path fill="#EFEDA5" d="M398.73669,141.97159h-0.10959v1.03018h0.10959c0.29236,0,0.53149-0.23178,0.53149-0.51509
				C399.26819,142.20338,399.02905,141.97159,398.73669,141.97159z"/>
		</g>
		<g id="brique_3_4_">
			<path fill="#EFEDA5" d="M430.0011,126.76987h-11.91891c-0.29227,0-0.5314,0.2318-0.5314,0.5151s0.23914,0.51509,0.5314,0.51509
				h2.39542c0.29227,0,0.53143,0.2318,0.53143,0.5151s-0.23917,0.51509-0.53143,0.51509h-0.11081
				c-0.29227,0-0.5314,0.2318-0.5314,0.51511c0,0.28329,0.23914,0.51509,0.5314,0.51509h7.31277
				c0.29236,0,0.53149-0.2318,0.53149-0.51509c0-0.28331-0.23914-0.51511-0.53149-0.51511h-2.17023
				c-0.29224,0-0.53149-0.2318-0.53149-0.51509c0-0.28331,0.23926-0.5151,0.53149-0.5151h4.49176
				c0.29236,0,0.53152-0.23179,0.53152-0.51509S430.29346,126.76987,430.0011,126.76987z"/>
		</g>
		<g id="brique_2_4_">
			<path fill="#EFEDA5" d="M405.24945,112.64811h-4.71689c-0.29233,0-0.53149-0.2318-0.53149-0.5151
				c0-0.28331,0.23917-0.51509,0.53149-0.51509h4.02298c0.29233,0,0.53149-0.2318,0.53149-0.51511s-0.23917-0.51509-0.53149-0.51509
				h-11.91885c-0.29233,0-0.53149,0.23179-0.53149,0.51509s0.23917,0.51511,0.53149,0.51511h1.91925
				c0.29227,0,0.53143,0.23179,0.53143,0.51509c0,0.28329-0.23917,0.5151-0.53143,0.5151h-1.2254
				c-0.29227,0-0.53143,0.23179-0.53143,0.51509s0.23917,0.51509,0.53143,0.51509h3.91602c0.29227,0,0.53143,0.2318,0.53143,0.5151
				s-0.23917,0.51509-0.53143,0.51509h-5.66174c-0.29236,0-0.53149,0.23179-0.53149,0.51509s0.23914,0.5151,0.53149,0.5151h2.39532
				c0.29236,0,0.53149,0.2318,0.53149,0.51509c0,0.2833-0.23914,0.51511-0.53149,0.51511h-0.11072
				c-0.29236,0-0.53152,0.23179-0.53152,0.51509s0.23917,0.5151,0.53152,0.5151h7.31277c0.29227,0,0.5314-0.2318,0.5314-0.5151
				s-0.23914-0.51509-0.5314-0.51509h-2.17023c-0.29236,0-0.53149-0.2318-0.53149-0.51511s0.23914-0.51509,0.53149-0.51509h4.49167
				c0.29236,0,0.53149-0.2318,0.53149-0.5151s-0.23914-0.51509-0.53149-0.51509h-1.22531
				c-0.29236,0-0.53143-0.23179-0.53143-0.51509s0.23907-0.5151,0.53143-0.5151h2.97113c0.29236,0,0.53149-0.23179,0.53149-0.51509
				S405.54181,112.64811,405.24945,112.64811z"/>
		</g>
		<path id="brique_1_haut_4_" fill="#EFEDA5" d="M418.42361,108.3914c0,0.28329,0.23914,0.51508,0.5314,0.51508h3.91605
			c0.2923,0,0.53143,0.23179,0.53143,0.5151c0,0.2833-0.23914,0.5151-0.53143,0.5151h-5.66171
			c-0.29236,0-0.53149,0.23179-0.53149,0.51508c0,0.28331,0.23914,0.5151,0.53149,0.5151h2.39532
			c0.29236,0,0.53149,0.2318,0.53149,0.5151s-0.23914,0.5151-0.53149,0.5151h-0.11075c-0.29236,0-0.53149,0.23179-0.53149,0.5151
			c0,0.28329,0.23914,0.5151,0.53149,0.5151h7.31281c0.29218,0,0.5314-0.2318,0.5314-0.5151c0-0.28331-0.23923-0.5151-0.5314-0.5151
			h-2.17029c-0.2923,0-0.53143-0.2318-0.53143-0.5151c0-0.28331,0.23914-0.5151,0.53143-0.5151h4.49173
			c0.29236,0,0.53149-0.23179,0.53149-0.5151c0-0.28329-0.23914-0.51508-0.53149-0.51508h-1.22534
			c-0.29236,0-0.5314-0.2318-0.5314-0.5151c0-0.28331,0.23904-0.5151,0.5314-0.5151h2.97119
			c0.29227,0,0.53149-0.23179,0.53149-0.51508c0-0.08833-0.02542-0.17038-0.06628-0.24323H418.4899
			C418.44904,108.22102,418.42361,108.30308,418.42361,108.3914z"/>
		<g id="rebord_milieu_12_">
			<rect x="388.71057" y="147.76138" fill="#D7D7D8" width="45.60648" height="2.75341"/>
		</g>
		<g id="ombre_rebord_milieu_8_" opacity="0.19">
			<g>
				<rect x="389.0318" y="150.5148" fill="#222323" width="44.95229" height="0.69303"/>
			</g>
		</g>
		<g id="ombre_rebord_toit_13_" opacity="0.19">
			<g>
				<rect x="389.0318" y="108.10269" fill="#222323" width="44.95229" height="0.69303"/>
			</g>
		</g>
		<g id="rebord_toit_29_">
			<rect x="388.57669" y="105.39477" fill="#D7D7D8" width="46.06159" height="2.75341"/>
		</g>
		<g id="arriere_porte_8_">
			<rect x="392.15994" y="155.72441" fill="#555B65" width="18.34732" height="20.45174"/>
		</g>
		<g id="porte_droite_11_">
			<rect x="401.79581" y="156.06421" fill="#CFCEC1" width="8.33357" height="19.77214"/>
		</g>
		<g id="ombre_porte_droite_15_">
			<polyline fill="#A5BBB2" points="401.79581,175.83635 401.79581,156.06421 410.12939,156.06421 			"/>
		</g>
		<g id="poignee_droite_4_">
			<path fill="#555B65" d="M402.99927,164.27953c-0.17932,0-0.32471,0.14088-0.32471,0.31467v2.98943
				c0,0.17378,0.14539,0.31468,0.32471,0.31468c0.17929,0,0.32468-0.1409,0.32468-0.31468v-2.98943
				C403.32394,164.42041,403.17856,164.27953,402.99927,164.27953z"/>
		</g>
		<g id="porte_gauche_11_">
			<rect x="392.65137" y="156.06421" fill="#CFCEC1" width="8.33357" height="19.77214"/>
		</g>
		<g id="ombre_porte_gauche_15_">
			<polyline fill="#A5BBB2" points="392.65137,175.7765 392.65137,156.00436 400.98492,156.00436 			"/>
		</g>
		<g id="poignee_gauche_4_">
			<path fill="#555B65" d="M399.65768,164.27951c-0.17932,0-0.32468,0.1409-0.32468,0.31468v2.98943
				c0,0.17377,0.14536,0.31467,0.32468,0.31467c0.17929,0,0.32468-0.1409,0.32468-0.31467v-2.98943
				C399.98236,164.42041,399.83698,164.27951,399.65768,164.27951z"/>
		</g>
		<g id="fenetre_10_4_">
			<rect x="423.18353" y="155.63715" fill="#CFCEC1" width="6.17679" height="11.32773"/>
			<path fill="#474341" d="M429.42694,167.03152h-6.31006V155.5705h6.31006V167.03152z M423.25015,166.89825h6.04355v-11.19449
				h-6.04355V166.89825z"/>
		</g>
		<g id="ombre_fenetre_10_4_">
			<polyline fill="#A5BBB2" points="423.32684,166.82741 423.32684,155.77463 429.21701,155.77463 			"/>
		</g>
		<g id="fenetre_9_4_">
			<rect x="413.0137" y="155.63715" fill="#CFCEC1" width="6.17679" height="11.32773"/>
			<path fill="#474341" d="M419.25711,167.03152h-6.31006V155.5705h6.31006V167.03152z M413.08032,166.89825h6.04355v-11.19449
				h-6.04355V166.89825z"/>
		</g>
		<g id="ombre_fenetre_9_4_">
			<polyline fill="#A5BBB2" points="413.15701,166.82741 413.15701,155.77463 419.04718,155.77463 			"/>
		</g>
		<g id="fenetre_8_4_">
			<rect x="423.18353" y="132.01073" fill="#CFCEC1" width="6.17679" height="11.32773"/>
			<path fill="#474341" d="M429.42694,143.40509h-6.31006v-11.46101h6.31006V143.40509z M423.25015,143.27184h6.04355v-11.19449
				h-6.04355V143.27184z"/>
		</g>
		<g id="ombre_fenetre_8_4_">
			<polyline fill="#A5BBB2" points="423.32684,143.20099 423.32684,132.14819 429.21701,132.14819 			"/>
		</g>
		<g id="fenetre_7_4_">
			<rect x="413.0137" y="132.01073" fill="#CFCEC1" width="6.17679" height="11.32773"/>
			<path fill="#474341" d="M419.25711,143.40509h-6.31006v-11.46101h6.31006V143.40509z M413.08032,143.27184h6.04355v-11.19449
				h-6.04355V143.27184z"/>
		</g>
		<g id="ombre_fenetre_7_4_">
			<polyline fill="#A5BBB2" points="413.15701,143.20099 413.15701,132.14819 419.04718,132.14819 			"/>
		</g>
		<g id="fenetre_6_8_">
			<rect x="402.76532" y="132.01073" fill="#CFCEC1" width="6.17679" height="11.32773"/>
			<path fill="#474341" d="M409.00873,143.40509h-6.31006v-11.46101h6.31006V143.40509z M402.83194,143.27184h6.04352v-11.19449
				h-6.04352V143.27184z"/>
		</g>
		<g id="ombre_fenetre_6_8_">
			<polyline fill="#A5BBB2" points="402.90863,143.20099 402.90863,132.14819 408.79877,132.14819 			"/>
		</g>
		<g id="fenetre_5_8_">
			<rect x="392.38367" y="132.01073" fill="#CFCEC1" width="6.17679" height="11.32773"/>
			<path fill="#474341" d="M398.62708,143.40509h-6.31006v-11.46101h6.31006V143.40509z M392.45029,143.27184h6.04352v-11.19449
				h-6.04352V143.27184z"/>
		</g>
		<g id="ombre_fenetre_5_8_">
			<polyline fill="#A5BBB2" points="392.52698,143.20099 392.52698,132.14819 398.41711,132.14819 			"/>
		</g>
		<g id="fenetre__4_4_">
			<rect x="423.18353" y="113.09391" fill="#CFCEC1" width="6.17679" height="11.32773"/>
			<path fill="#474341" d="M429.42694,124.48827h-6.31006v-11.46102h6.31006V124.48827z M423.25015,124.35501h6.04355v-11.19449
				h-6.04355V124.35501z"/>
		</g>
		<g id="ombre_fenetre_4_8_">
			<polyline fill="#A5BBB2" points="423.32684,124.28416 423.32684,113.23138 429.21701,113.23138 			"/>
		</g>
		<g id="fenetre__3_4_">
			<rect x="413.0137" y="113.09391" fill="#CFCEC1" width="6.17679" height="11.32773"/>
			<path fill="#474341" d="M419.25711,124.48827h-6.31006v-11.46102h6.31006V124.48827z M413.08032,124.35501h6.04355v-11.19449
				h-6.04355V124.35501z"/>
		</g>
		<g id="ombre_fenetre_3_16_">
			<polyline fill="#A5BBB2" points="413.15701,124.28416 413.15701,113.23138 419.04718,113.23138 			"/>
		</g>
		<g id="fenetre_2_16_">
			<rect x="402.76532" y="113.09391" fill="#CFCEC1" width="6.17679" height="11.32773"/>
			<path fill="#474341" d="M409.00873,124.48827h-6.31006v-11.46102h6.31006V124.48827z M402.83194,124.35501h6.04352v-11.19449
				h-6.04352V124.35501z"/>
		</g>
		<g id="ombre_fenetre_2_16_">
			<polyline fill="#A5BBB2" points="402.90863,124.28416 402.90863,113.23138 408.79877,113.23138 			"/>
		</g>
		<g id="fenetre_1_16_">
			<rect x="392.38367" y="113.09391" fill="#CFCEC1" width="6.17679" height="11.32773"/>
			<path fill="#474341" d="M398.62708,124.48827h-6.31006v-11.46102h6.31006V124.48827z M392.45029,124.35501h6.04352v-11.19449
				h-6.04352V124.35501z"/>
		</g>
		<g id="ombre_fenetre_1_16_">
			<polyline fill="#A5BBB2" points="392.52698,124.28416 392.52698,113.23138 398.41711,113.23138 			"/>
		</g>
		<g id="mur_16_">
			<rect x="354.91483" y="125.14058" fill="#F9F9F9" width="34.09019" height="51.03556"/>
		</g>
		<g id="arriere_porte_droite_7_">
			<rect x="371.78149" y="155.77197" fill="#555B65" width="9.17366" height="20.45174"/>
		</g>
		<g id="porte_droite_10_">
			<rect x="372.20154" y="156.11179" fill="#CFCEC1" width="8.33357" height="19.77214"/>
		</g>
		<g id="ombre_porte_droite_14_">
			<polyline fill="#A5BBB2" points="372.20154,175.88393 372.20154,156.11179 380.53513,156.11179 			"/>
		</g>
		<g id="poignee_porte_droite_8_">
			<path fill="#555B65" d="M373.40497,164.32709c-0.17929,0-0.32468,0.1409-0.32468,0.31468v2.98943
				c0,0.17377,0.14539,0.31467,0.32468,0.31467c0.17932,0,0.32471-0.1409,0.32471-0.31467v-2.98943
				C373.72968,164.46799,373.58429,164.32709,373.40497,164.32709z"/>
		</g>
		<g id="arriere_porte_gauche_7_">
			<rect x="362.61981" y="155.77197" fill="#555B65" width="9.17366" height="20.45174"/>
		</g>
		<g id="porte_gauche_10_">
			<rect x="363.11124" y="156.11179" fill="#CFCEC1" width="8.33357" height="19.77214"/>
		</g>
		<g id="ombre_porte_gauche_14_">
			<polyline fill="#A5BBB2" points="363.05713,175.88393 363.05713,156.11179 371.39069,156.11179 			"/>
		</g>
		<g id="poignee_porte_gauche_8_">
			<path fill="#555B65" d="M370.11755,164.32709c-0.17929,0-0.32468,0.1409-0.32468,0.31468v2.98943
				c0,0.17377,0.14539,0.31467,0.32468,0.31467c0.17932,0,0.32468-0.1409,0.32468-0.31467v-2.98943
				C370.44223,164.46799,370.29688,164.32709,370.11755,164.32709z"/>
		</g>
		
			<rect id="ombre_plaque_médecin_5_" x="357.53488" y="163.31543" opacity="0.35" fill="#222323" width="4.10362" height="0.07434"/>
		<rect id="plaque_médecin_5_" x="357.53488" y="160.52022" fill="#F4DA6E" width="4.10362" height="2.79522"/>
		<g id="médecin_4_">
			<path d="M358.05853,161.60211h0.08832l0.11325,0.31401l0.04196,0.11952h0.00351l0.04111-0.11952l0.1124-0.31401h0.08743v0.58521
				h-0.0705v-0.32201c0-0.05177,0.00626-0.12132,0.0098-0.1731h-0.00354l-0.04642,0.13026l-0.1124,0.30594h-0.04282
				l-0.11237-0.30594l-0.04645-0.13026h-0.00351c0.00351,0.05177,0.00894,0.12132,0.00894,0.1731v0.32201h-0.06873V161.60211z"/>
			<path d="M358.86053,161.74304c0.11057,0,0.17307,0.07944,0.17307,0.20343c0,0.01514-0.00095,0.02942-0.00266,0.04016h-0.2926
				c0.00534,0.09363,0.06149,0.15253,0.14444,0.15253c0.04111,0,0.07584-0.01341,0.108-0.03387l0.02588,0.04816
				c-0.03748,0.02408-0.08392,0.04454-0.14273,0.04454c-0.116,0-0.20792-0.0847-0.20792-0.22656
				C358.66602,161.82962,358.76147,161.74304,358.86053,161.74304z M358.96936,161.9384c0-0.0883-0.03928-0.13733-0.10703-0.13733
				c-0.0607,0-0.116,0.04996-0.12494,0.13733H358.96936z M358.8587,161.67615h-0.05615l0.08118-0.12579h0.07584L358.8587,161.67615z
				"/>
			<path d="M359.29767,161.74304c0.04996,0,0.08298,0.01874,0.12131,0.04996l-0.0036-0.07404v-0.16681h0.07404v0.63516h-0.06061
				l-0.00629-0.05081h-0.00266c-0.03391,0.03293-0.08032,0.06148-0.13113,0.06148c-0.10886,0-0.17929-0.08203-0.17929-0.22656
				C359.10944,161.83049,359.19861,161.74304,359.29767,161.74304z M359.30481,162.13651c0.04013,0,0.07489-0.01968,0.11057-0.05977
				v-0.22664c-0.03653-0.03302-0.06955-0.04549-0.10526-0.04549c-0.06955,0-0.12491,0.06689-0.12491,0.16594
				C359.18521,162.07399,359.22897,162.13651,359.30481,162.13651z"/>
			<path d="M359.7981,161.74304c0.11066,0,0.1731,0.07944,0.1731,0.20343c0,0.01514-0.00095,0.02942-0.00269,0.04016h-0.2926
				c0.00534,0.09363,0.06155,0.15253,0.14447,0.15253c0.04108,0,0.07584-0.01341,0.10797-0.03387l0.02588,0.04816
				c-0.03748,0.02408-0.08389,0.04454-0.14273,0.04454c-0.11597,0-0.20789-0.0847-0.20789-0.22656
				C359.60361,161.82962,359.69904,161.74304,359.7981,161.74304z M359.90695,161.9384c0-0.0883-0.03931-0.13733-0.10706-0.13733
				c-0.0607,0-0.116,0.04996-0.12494,0.13733H359.90695z"/>
			<path d="M360.25485,161.74304c0.05707,0,0.09723,0.02408,0.12665,0.05176l-0.03656,0.04729
				c-0.02588-0.02226-0.05261-0.03835-0.08743-0.03835c-0.07849,0-0.13559,0.06776-0.13559,0.16768
				c0,0.09904,0.05441,0.16594,0.13379,0.16594c0.04108,0,0.07584-0.02054,0.10172-0.04369l0.03302,0.04816
				c-0.03922,0.03482-0.08926,0.05615-0.14093,0.05615c-0.11514,0-0.20343-0.0829-0.20343-0.22656
				C360.04608,161.82602,360.14331,161.74304,360.25485,161.74304z"/>
			<path d="M360.47162,161.61725c0-0.02855,0.02234-0.04729,0.05087-0.04729c0.02856,0,0.05084,0.01874,0.05084,0.04729
				c0,0.02768-0.02228,0.04729-0.05084,0.04729C360.49396,161.66454,360.47162,161.64493,360.47162,161.61725z M360.48502,161.75378
				h0.07309v0.43353h-0.07309V161.75378z"/>
			<path d="M360.70444,161.75378h0.06064l0.00629,0.06242h0.00266c0.04102-0.04102,0.08563-0.07317,0.14539-0.07317
				c0.09097,0,0.13208,0.0589,0.13208,0.16948v0.2748h-0.07318v-0.26492c0-0.08124-0.02499-0.11598-0.08209-0.11598
				c-0.04456,0-0.07489,0.02321-0.11865,0.06689v0.31401h-0.07312V161.75378z"/>
		</g>
		<g id="rebord_milieu_11_">
			<rect x="354.44232" y="148.35728" fill="#555B65" width="34.91047" height="2.75341"/>
		</g>
		<g id="ombre_rebord_milieu_7_" opacity="0.36">
			<g>
				<rect x="354.91483" y="151.1107" fill="#222323" width="34.09019" height="0.69303"/>
			</g>
		</g>
		<g id="fenetre_1_15_">
			<rect x="358.65891" y="131.22993" fill="#CFCEC1" width="6.17679" height="11.32773"/>
			<path fill="#474341" d="M364.90234,142.6243h-6.31006v-11.46101h6.31006V142.6243z M358.72552,142.49103h6.04355v-11.19449
				h-6.04355V142.49103z"/>
		</g>
		<g id="ombre_fenetre_1_15_">
			<polyline fill="#A5BBB2" points="358.80225,142.42018 358.80225,131.3674 364.69238,131.3674 			"/>
		</g>
		<g id="fenetre_2_15_">
			<rect x="369.04056" y="131.22993" fill="#CFCEC1" width="6.17679" height="11.32773"/>
			<path fill="#474341" d="M375.284,142.6243h-6.31006v-11.46101h6.31006V142.6243z M369.10721,142.49103h6.04352v-11.19449
				h-6.04352V142.49103z"/>
		</g>
		<g id="ombre_fenetre_2_15_">
			<polyline fill="#A5BBB2" points="369.1839,142.42018 369.1839,131.3674 375.07404,131.3674 			"/>
		</g>
		<g id="fenetre_3_12_">
			<rect x="379.28897" y="131.22993" fill="#CFCEC1" width="6.17679" height="11.32773"/>
			<path fill="#474341" d="M385.53238,142.6243h-6.31006v-11.46101h6.31006V142.6243z M379.35559,142.49103h6.04355v-11.19449
				h-6.04355V142.49103z"/>
		</g>
		<g id="ombre_fenetre_3_15_">
			<polyline fill="#A5BBB2" points="379.43228,142.42018 379.43228,131.3674 385.32242,131.3674 			"/>
		</g>
		<g id="rebord_toit_28_">
			<rect x="354.44232" y="123.23566" fill="#555B65" width="34.91047" height="2.75341"/>
		</g>
		<g>
			<rect x="299.76797" y="39.1005" fill="#F9F9F9" width="55.27605" height="137.02361"/>
		</g>
		<g>
			<rect x="305.82251" y="62.51269" fill="#CFCEC1" width="6.49153" height="11.90494"/>
			<path fill="#474341" d="M312.38403,74.48768h-6.63156V62.44268h6.63156V74.48768z M305.89252,74.34763h6.35147V62.58273h-6.35147
				V74.34763z"/>
		</g>
		<g>
			<polyline fill="#A5BBB2" points="305.97314,74.27316 305.97314,62.65717 312.16342,62.65717 			"/>
		</g>
		<g>
			<rect x="318.28473" y="62.51269" fill="#CFCEC1" width="6.49153" height="11.90494"/>
			<path fill="#474341" d="M324.84628,74.48768h-6.63156V62.44268h6.63156V74.48768z M318.35477,74.34763h6.35147V62.58273h-6.35147
				V74.34763z"/>
		</g>
		<g>
			<polyline fill="#A5BBB2" points="318.43536,74.27316 318.43536,62.65717 324.62564,62.65717 			"/>
		</g>
		<g>
			<rect x="330.74695" y="62.51269" fill="#CFCEC1" width="6.49153" height="11.90494"/>
			<path fill="#474341" d="M337.30853,74.48768h-6.63159V62.44268h6.63159V74.48768z M330.81699,74.34763h6.35147V62.58273h-6.35147
				V74.34763z"/>
		</g>
		<g>
			<polyline fill="#A5BBB2" points="330.89755,74.27316 330.89755,62.65717 337.08786,62.65717 			"/>
		</g>
		<g>
			<rect x="343.20917" y="62.51269" fill="#CFCEC1" width="6.49153" height="11.90494"/>
			<path fill="#474341" d="M349.77069,74.48768h-6.63156V62.44268h6.63156V74.48768z M343.27917,74.34763h6.35147V62.58273h-6.35147
				V74.34763z"/>
		</g>
		<g>
			<polyline fill="#A5BBB2" points="343.35977,74.27316 343.35977,62.65717 349.55008,62.65717 			"/>
		</g>
		<g>
			<rect x="305.82251" y="81.88577" fill="#CFCEC1" width="6.49153" height="11.90494"/>
			<path fill="#474341" d="M312.38403,93.86073h-6.63156v-12.045h6.63156V93.86073z M305.89252,93.72068h6.35147V81.95579h-6.35147
				V93.72068z"/>
		</g>
		<g>
			<polyline fill="#A5BBB2" points="305.97314,93.64623 305.97314,82.03025 312.16342,82.03025 			"/>
		</g>
		<g>
			<rect x="318.28473" y="81.88577" fill="#CFCEC1" width="6.49153" height="11.90494"/>
			<path fill="#474341" d="M324.84628,93.86073h-6.63156v-12.045h6.63156V93.86073z M318.35477,93.72068h6.35147V81.95579h-6.35147
				V93.72068z"/>
		</g>
		<g>
			<polyline fill="#A5BBB2" points="318.43536,93.64623 318.43536,82.03025 324.62564,82.03025 			"/>
		</g>
		<g>
			<rect x="330.74695" y="81.88577" fill="#CFCEC1" width="6.49153" height="11.90494"/>
			<path fill="#474341" d="M337.30853,93.86073h-6.63159v-12.045h6.63159V93.86073z M330.81699,93.72068h6.35147V81.95579h-6.35147
				V93.72068z"/>
		</g>
		<g>
			<polyline fill="#A5BBB2" points="330.89755,93.64623 330.89755,82.03025 337.08786,82.03025 			"/>
		</g>
		<g>
			<rect x="343.20917" y="81.88577" fill="#CFCEC1" width="6.49153" height="11.90494"/>
			<path fill="#474341" d="M349.77069,93.86073h-6.63156v-12.045h6.63156V93.86073z M343.27917,93.72068h6.35147V81.95579h-6.35147
				V93.72068z"/>
		</g>
		<g>
			<polyline fill="#A5BBB2" points="343.35977,93.64623 343.35977,82.03025 349.55008,82.03025 			"/>
		</g>
		<g>
			<rect x="305.82251" y="100.82186" fill="#CFCEC1" width="6.49153" height="11.90494"/>
			<path fill="#474341" d="M312.38403,112.79681h-6.63156v-12.04496h6.63156V112.79681z M305.89252,112.65677h6.35147v-11.76486
				h-6.35147V112.65677z"/>
		</g>
		<g>
			<polyline fill="#A5BBB2" points="305.97314,112.58232 305.97314,100.96634 312.16342,100.96634 			"/>
		</g>
		<g>
			<rect x="318.28473" y="100.82186" fill="#CFCEC1" width="6.49153" height="11.90494"/>
			<path fill="#474341" d="M324.84628,112.79681h-6.63156v-12.04496h6.63156V112.79681z M318.35477,112.65677h6.35147v-11.76486
				h-6.35147V112.65677z"/>
		</g>
		<g>
			<polyline fill="#A5BBB2" points="318.43536,112.58232 318.43536,100.96634 324.62564,100.96634 			"/>
		</g>
		<g>
			<rect x="330.74695" y="100.82186" fill="#CFCEC1" width="6.49153" height="11.90494"/>
			<path fill="#474341" d="M337.30853,112.79681h-6.63159v-12.04496h6.63159V112.79681z M330.81699,112.65677h6.35147v-11.76486
				h-6.35147V112.65677z"/>
		</g>
		<g>
			<polyline fill="#A5BBB2" points="330.89755,112.58232 330.89755,100.96634 337.08786,100.96634 			"/>
		</g>
		<g>
			<rect x="343.20917" y="100.82186" fill="#CFCEC1" width="6.49153" height="11.90494"/>
			<path fill="#474341" d="M349.77069,112.79681h-6.63156v-12.04496h6.63156V112.79681z M343.27917,112.65677h6.35147v-11.76486
				h-6.35147V112.65677z"/>
		</g>
		<g>
			<polyline fill="#A5BBB2" points="343.35977,112.58232 343.35977,100.96634 349.55008,100.96634 			"/>
		</g>
		<g>
			<rect x="305.82251" y="119.32096" fill="#CFCEC1" width="6.49153" height="11.90494"/>
			<path fill="#474341" d="M312.38403,131.29596h-6.63156v-12.04503h6.63156V131.29596z M305.89252,131.15591h6.35147v-11.76493
				h-6.35147V131.15591z"/>
		</g>
		<g>
			<polyline fill="#A5BBB2" points="305.97314,131.08144 305.97314,119.46545 312.16342,119.46545 			"/>
		</g>
		<g>
			<rect x="318.28473" y="119.32096" fill="#CFCEC1" width="6.49153" height="11.90494"/>
			<path fill="#474341" d="M324.84628,131.29596h-6.63156v-12.04503h6.63156V131.29596z M318.35477,131.15591h6.35147v-11.76493
				h-6.35147V131.15591z"/>
		</g>
		<g>
			<polyline fill="#A5BBB2" points="318.43536,131.08144 318.43536,119.46545 324.62564,119.46545 			"/>
		</g>
		<g>
			<rect x="330.74695" y="119.32096" fill="#CFCEC1" width="6.49153" height="11.90494"/>
			<path fill="#474341" d="M337.30853,131.29596h-6.63159v-12.04503h6.63159V131.29596z M330.81699,131.15591h6.35147v-11.76493
				h-6.35147V131.15591z"/>
		</g>
		<g>
			<polyline fill="#A5BBB2" points="330.89755,131.08144 330.89755,119.46545 337.08786,119.46545 			"/>
		</g>
		<g>
			<rect x="343.20917" y="119.32096" fill="#CFCEC1" width="6.49153" height="11.90494"/>
			<path fill="#474341" d="M349.77069,131.29596h-6.63156v-12.04503h6.63156V131.29596z M343.27917,131.15591h6.35147v-11.76493
				h-6.35147V131.15591z"/>
		</g>
		<g>
			<polyline fill="#A5BBB2" points="343.35977,131.08144 343.35977,119.46545 349.55008,119.46545 			"/>
		</g>
		<g>
			<rect x="305.82251" y="137.67441" fill="#CFCEC1" width="6.49153" height="11.90494"/>
			<path fill="#474341" d="M312.38403,149.64938h-6.63156v-12.04503h6.63156V149.64938z M305.89252,149.50934h6.35147V137.7444
				h-6.35147V149.50934z"/>
		</g>
		<g>
			<polyline fill="#A5BBB2" points="305.97314,149.43488 305.97314,137.81889 312.16342,137.81889 			"/>
		</g>
		<g>
			<rect x="305.82251" y="155.55269" fill="#CFCEC1" width="12.46221" height="10.65644"/>
			<path fill="#474341" d="M318.35477,166.27913h-12.60229v-10.79648h12.60229V166.27913z M305.89252,166.13907h12.3222V155.6227
				h-12.3222V166.13907z"/>
		</g>
		<g>
			<polyline fill="#A5BBB2" points="306.11166,166.07979 306.11166,155.68201 317.99557,155.68201 			"/>
		</g>
		<g>
			<rect x="337.27432" y="155.55269" fill="#CFCEC1" width="12.46221" height="10.65644"/>
			<path fill="#474341" d="M349.80658,166.27913h-12.60226v-10.79648h12.60226V166.27913z M337.34436,166.13907h12.32217V155.6227
				h-12.32217V166.13907z"/>
		</g>
		<g>
			<polyline fill="#A5BBB2" points="337.56348,166.07979 337.56348,155.68201 349.44739,155.68201 			"/>
		</g>
		<g>
			<rect x="318.28473" y="137.67441" fill="#CFCEC1" width="6.49153" height="11.90494"/>
			<path fill="#474341" d="M324.84628,149.64938h-6.63156v-12.04503h6.63156V149.64938z M318.35477,149.50934h6.35147V137.7444
				h-6.35147V149.50934z"/>
		</g>
		<g>
			<polyline fill="#A5BBB2" points="318.43536,149.43488 318.43536,137.81889 324.62564,137.81889 			"/>
		</g>
		<g>
			<rect x="330.74695" y="137.67441" fill="#CFCEC1" width="6.49153" height="11.90494"/>
			<path fill="#474341" d="M337.30853,149.64938h-6.63159v-12.04503h6.63159V149.64938z M330.81699,149.50934h6.35147V137.7444
				h-6.35147V149.50934z"/>
		</g>
		<g>
			<polyline fill="#A5BBB2" points="330.89755,149.43488 330.89755,137.81889 337.08786,137.81889 			"/>
		</g>
		<g>
			<rect x="343.20917" y="137.67441" fill="#CFCEC1" width="6.49153" height="11.90494"/>
			<path fill="#474341" d="M349.77069,149.64938h-6.63156v-12.04503h6.63156V149.64938z M343.27917,149.50934h6.35147V137.7444
				h-6.35147V149.50934z"/>
		</g>
		<g>
			<polyline fill="#A5BBB2" points="343.35977,149.43488 343.35977,137.81889 349.55008,137.81889 			"/>
		</g>
		<g>
			<rect x="305.82251" y="43.72079" fill="#CFCEC1" width="6.49153" height="11.90494"/>
			<path fill="#474341" d="M312.38403,55.69577h-6.63156V43.65078h6.63156V55.69577z M305.89252,55.55573h6.35147V43.79083h-6.35147
				V55.55573z"/>
		</g>
		<g>
			<polyline fill="#A5BBB2" points="305.97314,55.48125 305.97314,43.86527 312.16342,43.86527 			"/>
		</g>
		<g id="fenetre_1-2_7_">
			<rect id="fenetre_1-2_8_" x="318.28476" y="43.72078" fill="#CFCEC1" width="6.49153" height="11.90494"/>
			<path fill="#474341" d="M324.84628,55.69576h-6.63156V43.65076h6.63156V55.69576z M318.35477,55.55571h6.35147v-11.7649h-6.35147
				V55.55571z"/>
		</g>
		<g id="ombre_fenetre_1-2_4_">
			<polyline fill="#A5BBB2" points="318.43536,55.48124 318.43536,43.86525 324.62567,43.86525 			"/>
		</g>
		<g id="fenetre_1-3_4_">
			<rect x="330.74698" y="43.72079" fill="#CFCEC1" width="6.49153" height="11.90494"/>
			<path fill="#474341" d="M337.3085,55.69577h-6.63156V43.65078h6.63156V55.69577z M330.81699,55.55573h6.35147V43.79083h-6.35147
				V55.55573z"/>
		</g>
		<g id="ombre_fenetre_1-3_4_">
			<polyline fill="#A5BBB2" points="330.89758,55.48125 330.89758,43.86527 337.08789,43.86527 			"/>
		</g>
		<g id="fenetre_1-4_4_">
			<rect x="343.20917" y="43.72079" fill="#CFCEC1" width="6.49153" height="11.90494"/>
			<path fill="#474341" d="M349.77069,55.69577h-6.63156V43.65078h6.63156V55.69577z M343.27917,55.55573h6.35147V43.79083h-6.35147
				V55.55573z"/>
		</g>
		<g id="ombre_fenetre_1-4_4_">
			<polyline fill="#A5BBB2" points="343.35977,55.48125 343.35977,43.86527 349.55008,43.86527 			"/>
		</g>
		<g>
			<rect x="321.53049" y="155.55269" fill="#466463" width="12.23563" height="19.9548"/>
		</g>
		<g>
			<polygon fill="#283839" points="321.53049,155.55269 322.25882,156.35226 322.25882,175.54659 321.53049,176.10135 			"/>
		</g>
		<g>
			<polygon fill="#333439" points="333.76611,156.3575 333.76611,155.55269 321.52148,155.55269 322.2569,156.35223 			"/>
		</g>
		<polygon fill="#919191" points="321.40552,176.19925 322.25882,175.50348 333.76611,175.50348 333.76611,176.19925 		"/>
		<g opacity="0.36">
			<g>
				<rect x="299.76797" y="37.7317" fill="#222323" width="55.27605" height="1.45662"/>
			</g>
		</g>
		<g>
			<rect x="298.14972" y="34.36327" fill="#575757" width="58.5126" height="1.91182"/>
		</g>
		<g>
			<rect x="298.14972" y="36.27508" fill="#3B7172" width="58.5126" height="1.45662"/>
		</g>
		<g>
			<rect x="244.58421" y="54.09708" fill="#F9F9F9" width="55.27605" height="121.94787"/>
		</g>
		<g>
			<rect x="250.63876" y="62.43354" fill="#CFCEC1" width="6.49153" height="11.90494"/>
			<path fill="#474341" d="M257.20029,74.40853h-6.63158v-12.045h6.63158V74.40853z M250.70876,74.26848h6.35149v-11.7649h-6.35149
				V74.26848z"/>
		</g>
		<g>
			<polyline fill="#A5BBB2" points="250.78937,74.19401 250.78937,62.57802 256.97968,62.57802 			"/>
		</g>
		<g>
			<rect x="263.10098" y="62.43354" fill="#CFCEC1" width="6.49153" height="11.90494"/>
			<path fill="#474341" d="M269.66251,74.40853h-6.63156v-12.045h6.63156V74.40853z M263.17099,74.26848h6.35147v-11.7649h-6.35147
				V74.26848z"/>
		</g>
		<g>
			<polyline fill="#A5BBB2" points="263.25159,74.19401 263.25159,62.57802 269.44189,62.57802 			"/>
		</g>
		<g>
			<rect x="275.56317" y="62.43354" fill="#CFCEC1" width="6.49153" height="11.90494"/>
			<path fill="#474341" d="M282.12476,74.40853h-6.63156v-12.045h6.63156V74.40853z M275.63324,74.26848h6.35147v-11.7649h-6.35147
				V74.26848z"/>
		</g>
		<g>
			<polyline fill="#A5BBB2" points="275.71381,74.19401 275.71381,62.57802 281.90408,62.57802 			"/>
		</g>
		<g>
			<rect x="288.02539" y="62.43354" fill="#CFCEC1" width="6.49153" height="11.90494"/>
			<path fill="#474341" d="M294.58691,74.40853h-6.63156v-12.045h6.63156V74.40853z M288.0954,74.26848h6.35147v-11.7649h-6.35147
				V74.26848z"/>
		</g>
		<g>
			<polyline fill="#A5BBB2" points="288.17603,74.19401 288.17603,62.57802 294.3663,62.57802 			"/>
		</g>
		<g>
			<rect x="250.63876" y="81.80662" fill="#CFCEC1" width="6.49153" height="11.90494"/>
			<path fill="#474341" d="M257.20029,93.78159h-6.63158v-12.045h6.63158V93.78159z M250.70876,93.64153h6.35149V81.87664h-6.35149
				V93.64153z"/>
		</g>
		<g>
			<polyline fill="#A5BBB2" points="250.78937,93.56709 250.78937,81.9511 256.97968,81.9511 			"/>
		</g>
		<g>
			<rect x="263.10098" y="81.80662" fill="#CFCEC1" width="6.49153" height="11.90494"/>
			<path fill="#474341" d="M269.66251,93.78159h-6.63156v-12.045h6.63156V93.78159z M263.17099,93.64153h6.35147V81.87664h-6.35147
				V93.64153z"/>
		</g>
		<g>
			<polyline fill="#A5BBB2" points="263.25159,93.56709 263.25159,81.9511 269.44189,81.9511 			"/>
		</g>
		<g>
			<rect x="275.56317" y="81.80662" fill="#CFCEC1" width="6.49153" height="11.90494"/>
			<path fill="#474341" d="M282.12476,93.78159h-6.63156v-12.045h6.63156V93.78159z M275.63324,93.64153h6.35147V81.87664h-6.35147
				V93.64153z"/>
		</g>
		<g>
			<polyline fill="#A5BBB2" points="275.71381,93.56709 275.71381,81.9511 281.90408,81.9511 			"/>
		</g>
		<g>
			<rect x="288.02539" y="81.80662" fill="#CFCEC1" width="6.49153" height="11.90494"/>
			<path fill="#474341" d="M294.58691,93.78159h-6.63156v-12.045h6.63156V93.78159z M288.0954,93.64153h6.35147V81.87664h-6.35147
				V93.64153z"/>
		</g>
		<g>
			<polyline fill="#A5BBB2" points="288.17603,93.56709 288.17603,81.9511 294.3663,81.9511 			"/>
		</g>
		<g>
			<rect x="250.63876" y="100.74271" fill="#CFCEC1" width="6.49153" height="11.90494"/>
			<path fill="#474341" d="M257.20029,112.71767h-6.63158v-12.04496h6.63158V112.71767z M250.70876,112.57761h6.35149v-11.76485
				h-6.35149V112.57761z"/>
		</g>
		<g>
			<polyline fill="#A5BBB2" points="250.78937,112.50317 250.78937,100.88719 256.97968,100.88719 			"/>
		</g>
		<g>
			<rect x="263.10098" y="100.74271" fill="#CFCEC1" width="6.49153" height="11.90494"/>
			<path fill="#474341" d="M269.66251,112.71767h-6.63156v-12.04496h6.63156V112.71767z M263.17099,112.57761h6.35147v-11.76485
				h-6.35147V112.57761z"/>
		</g>
		<g>
			<polyline fill="#A5BBB2" points="263.25159,112.50317 263.25159,100.88719 269.44189,100.88719 			"/>
		</g>
		<g>
			<rect x="275.56317" y="100.74271" fill="#CFCEC1" width="6.49153" height="11.90494"/>
			<path fill="#474341" d="M282.12476,112.71767h-6.63156v-12.04496h6.63156V112.71767z M275.63324,112.57761h6.35147v-11.76485
				h-6.35147V112.57761z"/>
		</g>
		<g>
			<polyline fill="#A5BBB2" points="275.71381,112.50317 275.71381,100.88719 281.90408,100.88719 			"/>
		</g>
		<g>
			<rect x="288.02539" y="100.74271" fill="#CFCEC1" width="6.49153" height="11.90494"/>
			<path fill="#474341" d="M294.58691,112.71767h-6.63156v-12.04496h6.63156V112.71767z M288.0954,112.57761h6.35147v-11.76485
				h-6.35147V112.57761z"/>
		</g>
		<g>
			<polyline fill="#A5BBB2" points="288.17603,112.50317 288.17603,100.88719 294.3663,100.88719 			"/>
		</g>
		<g>
			<rect x="250.63876" y="119.24181" fill="#CFCEC1" width="6.49153" height="11.90494"/>
			<path fill="#474341" d="M257.20029,131.21681h-6.63158v-12.04503h6.63158V131.21681z M250.70876,131.07677h6.35149v-11.76493
				h-6.35149V131.07677z"/>
		</g>
		<g>
			<polyline fill="#A5BBB2" points="250.78937,131.00227 250.78937,119.38629 256.97968,119.38629 			"/>
		</g>
		<g>
			<rect x="263.10098" y="119.24181" fill="#CFCEC1" width="6.49153" height="11.90494"/>
			<path fill="#474341" d="M269.66251,131.21681h-6.63156v-12.04503h6.63156V131.21681z M263.17099,131.07677h6.35147v-11.76493
				h-6.35147V131.07677z"/>
		</g>
		<g>
			<polyline fill="#A5BBB2" points="263.25159,131.00227 263.25159,119.38629 269.44189,119.38629 			"/>
		</g>
		<g>
			<rect x="275.56317" y="119.24181" fill="#CFCEC1" width="6.49153" height="11.90494"/>
			<path fill="#474341" d="M282.12476,131.21681h-6.63156v-12.04503h6.63156V131.21681z M275.63324,131.07677h6.35147v-11.76493
				h-6.35147V131.07677z"/>
		</g>
		<g>
			<polyline fill="#A5BBB2" points="275.71381,131.00227 275.71381,119.38629 281.90408,119.38629 			"/>
		</g>
		<g>
			<rect x="288.02539" y="119.24181" fill="#CFCEC1" width="6.49153" height="11.90494"/>
			<path fill="#474341" d="M294.58691,131.21681h-6.63156v-12.04503h6.63156V131.21681z M288.0954,131.07677h6.35147v-11.76493
				h-6.35147V131.07677z"/>
		</g>
		<g>
			<polyline fill="#A5BBB2" points="288.17603,131.00227 288.17603,119.38629 294.3663,119.38629 			"/>
		</g>
		<g>
			<rect x="250.63876" y="137.59526" fill="#CFCEC1" width="6.49153" height="11.90494"/>
			<path fill="#474341" d="M257.20029,149.57024h-6.63158v-12.04503h6.63158V149.57024z M250.70876,149.43018h6.35149v-11.76492
				h-6.35149V149.43018z"/>
		</g>
		<g>
			<polyline fill="#A5BBB2" points="250.78937,149.35573 250.78937,137.73973 256.97968,137.73973 			"/>
		</g>
		<g>
			<rect x="250.63876" y="155.47354" fill="#CFCEC1" width="12.46221" height="10.65644"/>
			<path fill="#474341" d="M263.17099,166.19998h-12.60228v-10.79649h12.60228V166.19998z M250.70876,166.05992h12.32219v-10.51637
				h-12.32219V166.05992z"/>
		</g>
		<g>
			<polyline fill="#A5BBB2" points="250.9279,166.00064 250.9279,155.60286 262.81183,155.60286 			"/>
		</g>
		<g>
			<rect x="282.09058" y="155.47354" fill="#CFCEC1" width="12.46221" height="10.65644"/>
			<path fill="#474341" d="M294.62283,166.19998h-12.60229v-10.79649h12.60229V166.19998z M282.16058,166.05992h12.3222v-10.51637
				h-12.3222V166.05992z"/>
		</g>
		<g>
			<polyline fill="#A5BBB2" points="282.37973,166.00064 282.37973,155.60286 294.26364,155.60286 			"/>
		</g>
		<g>
			<rect x="263.10098" y="137.59526" fill="#CFCEC1" width="6.49153" height="11.90494"/>
			<path fill="#474341" d="M269.66251,149.57024h-6.63156v-12.04503h6.63156V149.57024z M263.17099,149.43018h6.35147v-11.76492
				h-6.35147V149.43018z"/>
		</g>
		<g>
			<polyline fill="#A5BBB2" points="263.25159,149.35573 263.25159,137.73973 269.44189,137.73973 			"/>
		</g>
		<g>
			<rect x="275.56317" y="137.59526" fill="#CFCEC1" width="6.49153" height="11.90494"/>
			<path fill="#474341" d="M282.12476,149.57024h-6.63156v-12.04503h6.63156V149.57024z M275.63324,149.43018h6.35147v-11.76492
				h-6.35147V149.43018z"/>
		</g>
		<g>
			<polyline fill="#A5BBB2" points="275.71381,149.35573 275.71381,137.73973 281.90408,137.73973 			"/>
		</g>
		<g>
			<rect x="288.02539" y="137.59526" fill="#CFCEC1" width="6.49153" height="11.90494"/>
			<path fill="#474341" d="M294.58691,149.57024h-6.63156v-12.04503h6.63156V149.57024z M288.0954,149.43018h6.35147v-11.76492
				h-6.35147V149.43018z"/>
		</g>
		<g>
			<polyline fill="#A5BBB2" points="288.17603,149.35573 288.17603,137.73973 294.3663,137.73973 			"/>
		</g>
		<g>
			<rect x="266.34674" y="155.47354" fill="#466463" width="12.23563" height="19.9548"/>
		</g>
		<g>
			<polygon fill="#283839" points="266.34674,155.47354 267.07504,156.27312 267.07504,175.46744 266.34671,176.0222 			"/>
		</g>
		<g>
			<polygon fill="#333439" points="278.58237,156.27834 278.58237,155.47354 266.33774,155.47354 267.07315,156.27309 			"/>
		</g>
		<polygon fill="#919191" points="266.22177,176.1241 267.07504,175.42833 278.58237,175.42833 278.58237,176.1241 		"/>
		<g opacity="0.36">
			<g>
				<rect x="244.58421" y="56.20353" fill="#222323" width="55.27605" height="1.45662"/>
			</g>
		</g>
		<g>
			<rect x="242.96594" y="52.8351" fill="#575757" width="58.5126" height="1.91182"/>
		</g>
		<g>
			<rect x="242.96594" y="54.74691" fill="#3B7172" width="58.5126" height="1.45662"/>
		</g>
		<g id="mur_15_">
			<rect x="130.46504" y="101.92534" fill="#868686" width="41.19897" height="73.91612"/>
		</g>
		<g>
			<path fill="#7A7A7A" d="M164.24886,141.2177h-5.34395c-0.33121,0-0.60216-0.26262-0.60216-0.58357
				c0-0.32097,0.27095-0.58357,0.60216-0.58357h4.55779c0.33121,0,0.60214-0.26262,0.60214-0.58357
				c0-0.32097-0.27094-0.58357-0.60214-0.58357h-13.50333c-0.33121,0-0.60216,0.2626-0.60216,0.58357
				c0,0.32095,0.27095,0.58357,0.60216,0.58357h2.17439c0.33112,0,0.60207,0.2626,0.60207,0.58357
				c0,0.32095-0.27095,0.58357-0.60207,0.58357h-1.38832c-0.33112,0-0.60207,0.2626-0.60207,0.58357
				c0,0.32095,0.27095,0.58356,0.60207,0.58356h4.43663c0.33112,0,0.60207,0.26262,0.60207,0.58357
				c0,0.32097-0.27095,0.58357-0.60207,0.58357h-6.41444c-0.33121,0-0.60214,0.2626-0.60214,0.58357
				s0.27094,0.58357,0.60214,0.58357h2.71378c0.33121,0,0.60216,0.26262,0.60216,0.58357s-0.27095,0.58357-0.60216,0.58357h-0.12546
				c-0.33121,0-0.60214,0.2626-0.60214,0.58357s0.27094,0.58357,0.60214,0.58357h8.28493c0.33113,0,0.60207-0.2626,0.60207-0.58357
				s-0.27094-0.58357-0.60207-0.58357h-2.45872c-0.33121,0-0.60214-0.26262-0.60214-0.58357
				c0-0.32097,0.27094-0.58357,0.60214-0.58357h5.08881c0.33121,0,0.60216-0.2626,0.60216-0.58357s-0.27095-0.58357-0.60216-0.58357
				h-1.38823c-0.33121,0-0.60207-0.2626-0.60207-0.58357c0-0.32095,0.27086-0.58357,0.60207-0.58357h3.36613
				c0.33121,0,0.60216-0.2626,0.60216-0.58356C164.85101,141.4803,164.58006,141.2177,164.24886,141.2177z"/>
		</g>
		<g>
			<path fill="#7A7A7A" d="M149.29707,154.96555h-13.50342c-0.33112,0-0.60207,0.26262-0.60207,0.58357v0.00002
				c0,0.32095,0.27095,0.58356,0.60207,0.58356h4.43663c0.33112,0,0.60207,0.2626,0.60207,0.58357
				c0,0.32095-0.27095,0.58357-0.60207,0.58357h-0.17503c-0.33112,0-0.60216,0.2626-0.60216,0.58357
				s0.27104,0.58357,0.60216,0.58357h8.28493c0.33121,0,0.60216-0.2626,0.60216-0.58357s-0.27095-0.58357-0.60216-0.58357h-2.40924
				c-0.33112,0-0.60216-0.26262-0.60216-0.58357c0-0.32097,0.27104-0.58357,0.60216-0.58357h3.36613
				c0.33112,0,0.60216-0.2626,0.60216-0.58356v-0.00002C149.89923,155.22816,149.62819,154.96555,149.29707,154.96555z"/>
		</g>
		<g>
			<path fill="#7A7A7A" d="M165.147,123.29146h-13.5034c-0.33112,0-0.60207,0.2626-0.60207,0.58357
				c0,0.32096,0.27095,0.58356,0.60207,0.58356h2.71387c0.33112,0,0.60207,0.26262,0.60207,0.58357
				c0,0.32097-0.27095,0.58358-0.60207,0.58358h-0.12555c-0.33112,0-0.60207,0.2626-0.60207,0.58357
				c0,0.32096,0.27095,0.58356,0.60207,0.58356h8.28493c0.33121,0,0.60216-0.2626,0.60216-0.58356
				c0-0.32097-0.27095-0.58357-0.60216-0.58357h-2.45872c-0.33112,0-0.60216-0.26261-0.60216-0.58358
				c0-0.32096,0.27104-0.58357,0.60216-0.58357h5.08888c0.33121,0,0.60216-0.2626,0.60216-0.58356
				C165.74916,123.55406,165.47821,123.29146,165.147,123.29146z"/>
		</g>
		<g>
			<path fill="#7A7A7A" d="M148.53899,117.27114h-13.50342c-0.33112,0-0.60207,0.2626-0.60207,0.58356
				c0,0.32097,0.27095,0.58357,0.60207,0.58357h2.71387c0.33112,0,0.60207,0.26262,0.60207,0.58357
				c0,0.32096-0.27095,0.58358-0.60207,0.58358h-0.12555c-0.33112,0-0.60207,0.2626-0.60207,0.58356
				c0,0.32097,0.27095,0.58357,0.60207,0.58357h8.28493c0.33121,0,0.60216-0.2626,0.60216-0.58357
				c0-0.32096-0.27095-0.58356-0.60216-0.58356h-2.45872c-0.33112,0-0.60216-0.26262-0.60216-0.58358
				c0-0.32097,0.27104-0.58357,0.60216-0.58357h5.0889c0.33121,0,0.60214-0.2626,0.60214-0.58357
				C149.14113,117.53374,148.87019,117.27114,148.53899,117.27114z"/>
		</g>
		<g>
			<path fill="#7A7A7A" d="M167.70139,162.60291h3.93964v-1.16714h-11.58417c-0.33121,0-0.60214,0.2626-0.60214,0.58357
				s0.27094,0.58357,0.60214,0.58357h1.94379c0.33121,0,0.60214,0.2626,0.60214,0.58356c0,0.32097-0.27094,0.58357-0.60214,0.58357
				h0.1559c-0.33121,0-0.60216,0.2626-0.60216,0.58357s0.27095,0.58357,0.60216,0.58357h1.64687
				c0.26161,0.06348,0.45749,0.29207,0.45749,0.56447c0,0.27242-0.19597,0.50101-0.45749,0.56448h-5.70406
				c-0.33121,0-0.60216,0.2626-0.60216,0.58357c0,0.32095,0.27095,0.58357,0.60216,0.58357h13.50331
				c0.01312,0,0.02542-0.00296,0.03836-0.00378v-1.15959c-0.01294-0.00081-0.02524-0.00377-0.03836-0.00377h-1.31746
				c-0.26152-0.06348-0.45747-0.29207-0.45747-0.56448c0-0.2724,0.19595-0.50099,0.45747-0.56447h0.15617
				c0.33121,0,0.60216-0.2626,0.60216-0.58357s-0.27095-0.58357-0.60216-0.58357h-2.73999
				c-0.33121,0-0.60216-0.2626-0.60216-0.58357C167.09923,162.86551,167.37018,162.60291,167.70139,162.60291z"/>
		</g>
		<g>
			<g>
				<path fill="#7A7A7A" d="M131.0777,136.77905h-0.12546c-0.19362,0-0.36479,0.09123-0.47516,0.22992v0.70729
					c0.11037,0.13869,0.28154,0.22992,0.47516,0.22992h8.28484c0.33121,0,0.60216-0.2626,0.60216-0.58356
					c0-0.32097-0.27095-0.58357-0.60216-0.58357h-2.45872c-0.33112,0-0.60205-0.2626-0.60205-0.58357
					s0.27094-0.58357,0.60205-0.58357h5.0889c0.33121,0,0.60216-0.2626,0.60216-0.58357c0-0.32095-0.27095-0.58357-0.60216-0.58357
					h-1.38823c-0.33121,0-0.60216-0.2626-0.60216-0.58356c0-0.32098,0.27095-0.58359,0.60216-0.58359h3.36613
					c0.33112,0,0.60207-0.2626,0.60207-0.58357c0-0.32095-0.27095-0.58357-0.60207-0.58357h-5.34395
					c-0.33121,0-0.60216-0.2626-0.60216-0.58356c0-0.32097,0.27095-0.58357,0.60216-0.58357h4.55777
					c0.33121,0,0.60216-0.2626,0.60216-0.58357s-0.27095-0.58357-0.60216-0.58357h-12.58189v1.16714h1.25288
					c0.33121,0,0.60216,0.26262,0.60216,0.58357s-0.27095,0.58356-0.60216,0.58356h-1.25288v1.16714h4.30119
					c0.33121,0,0.60216,0.26262,0.60216,0.58359c0,0.32095-0.27095,0.58356-0.60216,0.58356h-4.30119v1.16714h0.60062
					c0.33121,0,0.60216,0.2626,0.60216,0.58357S131.40891,136.77905,131.0777,136.77905z"/>
			</g>
		</g>
		<g id="brique_1_">
			<path fill="#7A7A7A" d="M167.64055,106.60217h-15.17767c-0.33112,0-0.60207,0.2626-0.60207,0.58357v0.13286
				c0,0.32097,0.27095,0.58357,0.60207,0.58357h2.87363c0.33112,0,0.60207,0.2626,0.60207,0.58357
				c0,0.32096-0.27095,0.58356-0.60207,0.58356h-1.38832c-0.33112,0-0.60207,0.2626-0.60207,0.58357
				c0,0.32096,0.27095,0.58357,0.60207,0.58357h4.43663c0.33112,0,0.60207,0.26261,0.60207,0.58356
				c0,0.32097-0.27095,0.58357-0.60207,0.58357h-6.41444c-0.33121,0-0.60214,0.26261-0.60214,0.58358
				c0,0.32096,0.27094,0.58357,0.60214,0.58357h2.71378c0.33121,0,0.60216,0.2626,0.60216,0.58356
				c0,0.32095-0.27095,0.58357-0.60216,0.58357h-0.12546c-0.33121,0-0.60214,0.2626-0.60214,0.58356
				c0,0.32097,0.27094,0.58357,0.60214,0.58357h8.28493c0.33113,0,0.60207-0.2626,0.60207-0.58357
				c0-0.32096-0.27094-0.58356-0.60207-0.58356h-2.45872c-0.33121,0-0.60214-0.26262-0.60214-0.58357
				c0-0.32098,0.27094-0.58356,0.60214-0.58356h5.08881c0.33121,0,0.60216-0.26261,0.60216-0.58357
				c0-0.32097-0.27095-0.58358-0.60216-0.58358h-1.38823c-0.33121,0-0.60207-0.2626-0.60207-0.58357
				c0-0.32096,0.27086-0.58356,0.60207-0.58356h3.36613c0.33121,0,0.60216-0.26261,0.60216-0.58357
				c0-0.32097-0.27095-0.58357-0.60216-0.58357h-5.34395c-0.33121,0-0.60214-0.2626-0.60214-0.58356
				c0-0.32097,0.27094-0.58357,0.60214-0.58357h5.5329c0.33121,0,0.60216-0.2626,0.60216-0.58357v-0.13286
				C168.24271,106.86477,167.97176,106.60217,167.64055,106.60217z"/>
		</g>
		<g id="ombre_batiment_1_" opacity="0.2">
			<rect x="163.79359" y="100.75926" fill="#333333" width="7.84742" height="74.1206"/>
		</g>
		<g id="rebord_toit_27_">
			<rect x="129.35384" y="100.83475" fill="#555B65" width="42.27185" height="2.2876"/>
		</g>
		<g id="buisson_1_3_">
			<path fill="#96B556" d="M136.72383,163.43065c0,0-1.68597,2.94119-1.68597,5.43675c0,2.82236,1.68597,5.87497,1.68597,5.87497
				s1.68597-3.0229,1.68597-5.87497C138.40981,166.43126,136.72383,163.43065,136.72383,163.43065z"/>
		</g>
		<g id="ombre_buisson_1_3_" opacity="0.63">
			<path fill="#717D36" d="M138.42676,168.8674c0-2.43614-1.68604-5.43675-1.68604-5.43675v11.31171
				C136.74072,174.74236,138.42676,171.71947,138.42676,168.8674z"/>
		</g>
		<g id="buisson_2_3_">
			<path fill="#96B556" d="M141.70668,163.43065c0,0-1.68597,2.94119-1.68597,5.43675c0,2.82236,1.68597,5.87497,1.68597,5.87497
				s1.68596-3.0229,1.68596-5.87497C143.39264,166.43126,141.70668,163.43065,141.70668,163.43065z"/>
		</g>
		<g id="ombre_buisson_2_3_" opacity="0.63">
			<path fill="#717D36" d="M143.3927,168.8674c0-2.43614-1.68602-5.43675-1.68602-5.43675v11.31171
				C141.70668,174.74236,143.3927,171.71947,143.3927,168.8674z"/>
		</g>
		<g id="buisson_3_3_">
			<path fill="#96B556" d="M146.55,163.43065c0,0-1.68596,2.94119-1.68596,5.43675c0,2.82236,1.68596,5.87497,1.68596,5.87497
				s1.68597-3.0229,1.68597-5.87497C148.23598,166.43126,146.55,163.43065,146.55,163.43065z"/>
		</g>
		<g id="ombre_buisson_3_3_" opacity="0.63">
			<path fill="#717D36" d="M148.26712,168.8674c0-2.43614-1.68604-5.43675-1.68604-5.43675v11.31171
				C146.58109,174.74236,148.26712,171.71947,148.26712,168.8674z"/>
		</g>
		<g id="buisson_4_3_">
			<path fill="#96B556" d="M151.47154,163.43065c0,0-1.68597,2.94119-1.68597,5.43675c0,2.82236,1.68597,5.87497,1.68597,5.87497
				s1.68597-3.0229,1.68597-5.87497C153.15752,166.43126,151.47154,163.43065,151.47154,163.43065z"/>
		</g>
		<g id="ombre_buisson_4_3_" opacity="0.63">
			<path fill="#717D36" d="M153.15758,168.8674c0-2.43614-1.68604-5.43675-1.68604-5.43675v11.31171
				C151.47154,174.74236,153.15758,171.71947,153.15758,168.8674z"/>
		</g>
		<g id="buisson_5_3_">
			<path fill="#96B556" d="M156.31488,163.43065c0,0-1.68597,2.94119-1.68597,5.43675c0,2.82236,1.68597,5.87497,1.68597,5.87497
				s1.68596-3.0229,1.68596-5.87497C158.00084,166.43126,156.31488,163.43065,156.31488,163.43065z"/>
		</g>
		<g id="ombre_buisson_5_3_" opacity="0.63">
			<path fill="#717D36" d="M158.0009,168.8674c0-2.43614-1.68602-5.43675-1.68602-5.43675v11.31171
				C156.31488,174.74236,158.0009,171.71947,158.0009,168.8674z"/>
		</g>
		<g id="buisson_6_3_">
			<path fill="#96B556" d="M161.36964,163.43065c0,0-1.68597,2.94119-1.68597,5.43675c0,2.82236,1.68597,5.87497,1.68597,5.87497
				s1.68596-3.0229,1.68596-5.87497C163.0556,166.43126,161.36964,163.43065,161.36964,163.43065z"/>
		</g>
		<g id="ombre_buisson_6_3_" opacity="0.63">
			<path fill="#717D36" d="M163.05566,168.8674c0-2.43614-1.68602-5.43675-1.68602-5.43675v11.31171
				C161.36964,174.74236,163.05566,171.71947,163.05566,168.8674z"/>
		</g>
		<g id="buisson_7_3_">
			<path fill="#96B556" d="M166.21297,163.43065c0,0-1.68597,2.94119-1.68597,5.43675c0,2.82236,1.68597,5.87497,1.68597,5.87497
				s1.68597-3.0229,1.68597-5.87497C167.89894,166.43126,166.21297,163.43065,166.21297,163.43065z"/>
		</g>
		<g id="ombre_buisson_7_3_" opacity="0.63">
			<path fill="#717D36" d="M167.899,168.8674c0-2.43614-1.68604-5.43675-1.68604-5.43675v11.31171
				C166.21297,174.74236,167.899,171.71947,167.899,168.8674z"/>
		</g>
		<g id="base_buissons_3_">
			<rect x="134.3566" y="172.75769" fill="#96B556" width="34.57771" height="2.13905"/>
		</g>
		<g id="rebord_bas_mur_2_">
			<rect x="130.44205" y="174.15717" fill="#BAA18A" width="41.19897" height="1.85217"/>
		</g>
		<g id="mur_14_">
			<rect x="205.91592" y="118.22362" fill="#F9F9F9" width="38.6221" height="57.82018"/>
		</g>
		<g id="arriere_porte_4_">
			<rect x="214.4398" y="152.82954" fill="#555B65" width="20.7864" height="23.17057"/>
		</g>
		<g id="vitre_porte_gauche_2_">
			<rect x="214.99658" y="153.21451" fill="#CFCEC1" width="9.44143" height="22.40063"/>
		</g>
		<g id="ombre_porte_gauche_13_">
			<polyline fill="#A5BBB2" points="214.93527,175.61514 214.93527,153.21451 224.37669,153.21451 			"/>
		</g>
		<g id="vitre_porte_droite_3_">
			<rect x="225.35667" y="153.21451" fill="#CFCEC1" width="9.44143" height="22.40063"/>
		</g>
		<g id="ombre_porte_droite_13_">
			<polyline fill="#A5BBB2" points="225.35667,175.61514 225.35667,153.21451 234.79811,153.21451 			"/>
		</g>
		<g id="poignee_porte_gauche_7_">
			<path fill="#555B65" d="M222.93431,162.52196c-0.20316,0-0.36786,0.15962-0.36786,0.35651v3.38683
				c0,0.19688,0.1647,0.35652,0.36786,0.35652c0.20314,0,0.36784-0.15964,0.36784-0.35652v-3.38683
				C223.30215,162.68158,223.13745,162.52196,222.93431,162.52196z"/>
		</g>
		<g id="poignee_porte_droite_7_">
			<path fill="#555B65" d="M226.72011,162.52196c-0.20316,0-0.36786,0.15964-0.36786,0.35651v3.38684
				c0,0.19687,0.1647,0.35651,0.36786,0.35651c0.20314,0,0.36784-0.15964,0.36784-0.35651v-3.38684
				C227.08795,162.68159,226.92325,162.52196,226.72011,162.52196z"/>
		</g>
		<g id="fenetre_3_11_">
			<rect x="221.91954" y="125.12248" fill="#CFCEC1" width="6.99792" height="12.83363"/>
			<path fill="#474341" d="M228.99295,138.0316h-7.14891v-12.98463h7.14891V138.0316z M221.99503,137.88062h6.84694v-12.68266
				h-6.84694V137.88062z"/>
		</g>
		<g id="ombre_fenetre_3_14_">
			<polyline fill="#A5BBB2" points="222.08189,137.80035 222.08189,125.27823 228.7551,125.27823 			"/>
		</g>
		<g id="fenetre_2_14_">
			<rect x="233.53033" y="125.12248" fill="#CFCEC1" width="6.99792" height="12.83363"/>
			<path fill="#474341" d="M240.60376,138.0316h-7.14891v-12.98463h7.14891V138.0316z M233.60582,137.88062h6.84695v-12.68266
				h-6.84695V137.88062z"/>
		</g>
		<g id="ombre_fenetre_2_14_">
			<polyline fill="#A5BBB2" points="233.6927,137.80035 233.6927,125.27823 240.36589,125.27823 			"/>
		</g>
		<g id="fenetre_1_14_">
			<rect x="210.42931" y="125.12248" fill="#CFCEC1" width="6.99792" height="12.83363"/>
			<path fill="#474341" d="M217.50273,138.0316h-7.14893v-12.98463h7.14893V138.0316z M210.50479,137.88062h6.84695v-12.68266
				h-6.84695V137.88062z"/>
		</g>
		<g id="ombre_fenetre_1_14_">
			<polyline fill="#A5BBB2" points="210.59167,137.80035 210.59167,125.27822 217.26486,125.27822 			"/>
		</g>
		<g id="rebord_milieu_10_">
			<rect x="205.85088" y="144.52673" fill="#555B65" width="39.72757" height="3.11945"/>
		</g>
		<g id="rebord_toit_26_">
			<rect x="205.85088" y="116.06546" fill="#555B65" width="39.72757" height="3.11945"/>
		</g>
		<g id="rebord_mur_bas_3_">
			<rect x="170.73558" y="170.52216" fill="#EACF9E" width="35.92648" height="5.46647"/>
		</g>
		<g id="ombre_rebord_mur_bas_3_">
			<rect x="170.73558" y="170.52216" fill="#FFF0D9" width="35.92648" height="1.12894"/>
		</g>
		<g id="arriere_mur_3_">
			<rect x="171.64102" y="83.41521" fill="#375066" width="34.20985" height="87.10694"/>
		</g>
		<g id="vitre_1_1_">
			<rect x="171.73297" y="84.78183" fill="#16618D" width="4.90464" height="16.28056"/>
		</g>
		<g id="vitre_2_1_">
			<rect x="177.55724" y="84.78183" fill="#136997" width="4.90464" height="16.28056"/>
		</g>
		<g id="vitre_3_1_">
			<rect x="183.3815" y="84.78183" fill="#136997" width="4.90464" height="16.28056"/>
		</g>
		<g id="vitre_4_1_">
			<rect x="189.20575" y="84.78183" fill="#136997" width="4.90464" height="16.28056"/>
		</g>
		<g id="vitre_5_1_">
			<rect x="195.03001" y="84.78183" fill="#15628F" width="4.90464" height="16.28056"/>
		</g>
		<g id="vitre_6_1_">
			<rect x="200.85426" y="84.78183" fill="#15628F" width="4.90464" height="16.28056"/>
		</g>
		<g id="vitre_7_1_">
			<rect x="171.73297" y="101.98337" fill="#1773AF" width="4.90464" height="16.28056"/>
		</g>
		<g id="vitre_8_1_">
			<rect x="177.55724" y="101.98337" fill="#1773AF" width="4.90464" height="16.28056"/>
		</g>
		<g id="vitre_9_1_">
			<rect x="183.3815" y="101.98337" fill="#1773AF" width="4.90464" height="16.28056"/>
		</g>
		<g id="vitre_10_1_">
			<rect x="189.20575" y="101.98337" fill="#1773AF" width="4.90464" height="16.28056"/>
		</g>
		<g id="vitre_11_1_">
			<rect x="195.03001" y="101.98337" fill="#1773AF" width="4.90464" height="16.28056"/>
		</g>
		<g id="vitre_12_1_">
			<rect x="200.85426" y="101.98337" fill="#1773AF" width="4.90464" height="16.28056"/>
		</g>
		<g id="vitre_13_1_">
			<rect x="171.73297" y="119.18491" fill="#1B7AAF" width="4.90464" height="16.28056"/>
		</g>
		<g id="vitre_14_1_">
			<rect x="177.55724" y="119.18491" fill="#1B7AAF" width="4.90464" height="16.28056"/>
		</g>
		<g id="vitre_15_1_">
			<rect x="183.3815" y="119.18491" fill="#4F8DB8" width="4.90464" height="16.28056"/>
		</g>
		<g id="vitre_16_1_">
			<rect x="189.20575" y="119.18491" fill="#4F8DB8" width="4.90464" height="16.28056"/>
		</g>
		<g id="vitre__17_1_">
			<rect x="195.03001" y="119.18491" fill="#1B7AAF" width="4.90464" height="16.28056"/>
		</g>
		<g id="vitre_18_1_">
			<rect x="200.85426" y="119.18491" fill="#1B7AAF" width="4.90464" height="16.28056"/>
		</g>
		<g id="vitre_19_1_">
			<rect x="171.73297" y="136.38646" fill="#4185B4" width="4.90464" height="16.28056"/>
		</g>
		<g id="vitre_20_1_">
			<rect x="177.55724" y="136.38646" fill="#5795AD" width="4.90464" height="16.28056"/>
		</g>
		<g id="vitre_21_1_">
			<rect x="183.3815" y="136.38646" fill="#5795AD" width="4.90464" height="16.28056"/>
		</g>
		<g id="vitre_22_1_">
			<rect x="189.20575" y="136.38646" fill="#4F8DB8" width="4.90464" height="16.28056"/>
		</g>
		<g id="vitre_23_1_">
			<rect x="195.03001" y="136.38646" fill="#4F8DB8" width="4.90464" height="16.28056"/>
		</g>
		<g id="vitre_24_1_">
			<rect x="200.85426" y="136.38646" fill="#4185B4" width="4.90464" height="16.28056"/>
		</g>
		<g id="vitre_25_1_">
			<rect x="171.73297" y="153.588" fill="#5795AD" width="4.90464" height="16.28056"/>
		</g>
		<g id="vitre_26_1_">
			<rect x="177.55724" y="153.588" fill="#5795AD" width="4.90464" height="16.28056"/>
		</g>
		<g id="vitre_27_1_">
			<polyline fill="#64A6B2" points="183.3815,159.82683 183.3815,153.588 188.28613,153.588 188.28613,169.86856 
				183.3815,169.86856 183.3815,159.82683 			"/>
		</g>
		<g id="vitre_28_1_">
			<rect x="189.20575" y="153.588" fill="#629DB2" width="4.90464" height="16.28056"/>
		</g>
		<g id="vitre_29_1_">
			<rect x="195.03001" y="153.588" fill="#5795AD" width="4.90464" height="16.28056"/>
		</g>
		<g id="vitre_30_1_">
			<rect x="200.85426" y="153.588" fill="#5795AD" width="4.90464" height="16.28056"/>
		</g>
		<g id="rebord_toit_25_">
			<rect x="170.87466" y="81.24645" fill="#889AAC" width="35.58929" height="2.16876"/>
		</g>
		<g id="mur_13_">
			<rect x="59.59155" y="123.66069" fill="#F9F9F9" width="71.01793" height="52.3671"/>
		</g>
		<g id="rebord_toit_24_">
			<rect x="58.32245" y="122.81065" fill="#007953" width="73.98965" height="2.0559"/>
		</g>
		<g id="ombre_rebord_toit_12_" opacity="0.36">
			<g>
				<rect x="59.59155" y="124.86655" fill="#212222" width="71.01793" height="1.13623"/>
			</g>
		</g>
		<polygon id="toit_1_" fill="#009066" points="126.814,108.60566 118.49605,108.60566 72.1385,108.60566 63.82055,108.60566 
			58.32245,122.81065 72.1385,122.81065 118.49605,122.81065 132.3121,122.81065 		"/>
		<g id="arriere_3_">
			<rect x="85.30129" y="155.63428" fill="#7C7C7C" width="18.93382" height="20.39563"/>
		</g>
		<rect id="arriere_porte_gauche_6_" x="85.61102" y="155.98213" fill="#7C7C7C" width="9.15718" height="19.98729"/>
		<g id="porte_gauche_9_">
			<rect x="86.11005" y="156.37923" fill="#DFDFDF" width="8.25689" height="19.59019"/>
		</g>
		<g id="ombre_porte_gauche_12_">
			<polyline fill="#B6D0C2" points="86.05643,175.96942 86.05643,156.37923 94.31332,156.37923 			"/>
		</g>
		<rect id="arriere_porte_droite_6_" x="94.74699" y="155.98213" fill="#7C7C7C" width="9.15718" height="19.98729"/>
		<g id="porte_droite_9_">
			<rect x="95.19713" y="156.37923" fill="#DFDFDF" width="8.25689" height="19.59019"/>
		</g>
		<g id="ombre_porte_droite_12_">
			<polyline fill="#B6D0C2" points="95.19713,175.96942 95.19713,156.37923 103.45402,156.37923 			"/>
		</g>
		<g id="baie_6_1_">
			<rect x="119.38314" y="155.74786" fill="#DFDFDF" width="6.11995" height="19.30291"/>
			<path fill="#DFDFDF" d="M125.56908,175.16434h-6.25198v-19.53006h6.25198V175.16434z M119.44913,174.93726h5.98791v-19.0759
				h-5.98791V174.93726z"/>
		</g>
		<g id="ombre_baie_6_1_">
			<polyline fill="#B6D0C2" points="119.52514,174.81651 119.52514,155.98213 125.36109,155.98213 			"/>
		</g>
		<g id="baie_5_1_">
			<rect x="112.39552" y="155.74788" fill="#DFDFDF" width="6.11995" height="19.30291"/>
			<path fill="#DFDFDF" d="M118.58145,175.16435h-6.25198v-19.53004h6.25198V175.16435z M112.46151,174.93727h5.98791v-19.0759
				h-5.98791V174.93727z"/>
		</g>
		<g id="ombre_baie_5_1_">
			<polyline fill="#B6D0C2" points="112.53751,174.81654 112.53751,155.98215 118.37347,155.98215 			"/>
		</g>
		<g id="baie_4_1_">
			<rect x="105.22794" y="155.74791" fill="#DFDFDF" width="6.11995" height="19.30291"/>
			<path fill="#DFDFDF" d="M111.41388,175.16437h-6.25198v-19.53004h6.25198V175.16437z M105.29394,174.93729h5.98791V155.8614
				h-5.98791V174.93729z"/>
		</g>
		<g id="ombre_baie_4_1_">
			<polyline fill="#B6D0C2" points="105.36993,174.81656 105.36993,155.98216 111.20589,155.98216 			"/>
		</g>
		<g id="baie_3_1_">
			<rect x="77.88702" y="155.74786" fill="#DFDFDF" width="6.11995" height="19.30291"/>
			<path fill="#DFDFDF" d="M84.07295,175.16434h-6.25198v-19.53006h6.25198V175.16434z M77.95301,174.93726h5.98791v-19.0759
				h-5.98791V174.93726z"/>
		</g>
		<g id="ombre_baie_3_1_">
			<polyline fill="#B6D0C2" points="78.02901,174.81651 78.02901,155.98213 83.86497,155.98213 			"/>
		</g>
		<g id="baie_2_1_">
			<rect x="70.89938" y="155.74788" fill="#DFDFDF" width="6.11995" height="19.30291"/>
			<path fill="#DFDFDF" d="M77.08532,175.16435h-6.25197v-19.53004h6.25197V175.16435z M70.96538,174.93727h5.98792v-19.0759
				h-5.98792V174.93727z"/>
		</g>
		<g id="ombre_baie_2_1_">
			<polyline fill="#B6D0C2" points="71.04138,174.81654 71.04138,155.98215 76.87733,155.98215 			"/>
		</g>
		<g id="baie_1_1_">
			<rect x="63.73181" y="155.74791" fill="#DFDFDF" width="6.11995" height="19.30291"/>
			<path fill="#DFDFDF" d="M69.91775,175.16437h-6.25197v-19.53004h6.25197V175.16437z M63.79781,174.93729h5.9879V155.8614h-5.9879
				V174.93729z"/>
		</g>
		<g id="ombre_baie_1_1_">
			<polyline fill="#B6D0C2" points="63.87381,174.81656 63.87381,155.98216 69.70976,155.98216 			"/>
		</g>
		<g id="ombre_pancarte_3_" opacity="0.15">
			<g>
				<rect x="63.66578" y="153.71843" fill="#212222" width="62.50977" height="0.32852"/>
			</g>
		</g>
		<g id="pancarte_3_">
			<rect x="63.66578" y="145.73894" fill="#FFFFFF" width="62.50977" height="7.97948"/>
		</g>
		<g id="PHARMACIE_3_">
			<path fill="#56CC25" d="M82.72001,147.43884h1.54055c1.00137,0,1.73669,0.35013,1.73669,1.41449
				c0,1.01538-0.75634,1.48457-1.73669,1.48457h-0.72823v1.68062h-0.81232V147.43884z M84.19057,149.68668
				c0.68626,0,1.00838-0.27313,1.00838-0.83334c0-0.57423-0.34313-0.76328-1.00838-0.76328h-0.65823v1.59662H84.19057z"/>
			<path fill="#56CC25" d="M86.83778,147.43884h0.81232v1.84163h1.84864v-1.84163h0.81232v4.57968h-0.81232v-2.03076H87.6501
				v2.03076h-0.81232V147.43884z"/>
			<path fill="#56CC25" d="M93.58147,150.77905h-1.53354l-0.35715,1.23947h-0.83334l1.49859-4.57968h0.95231l1.49158,4.57968
				h-0.86129L93.58147,150.77905z M93.39943,150.14185l-0.16109-0.56021c-0.14008-0.4832-0.28006-1.00836-0.41312-1.5126h-0.02804
				c-0.12605,0.51125-0.25912,1.0294-0.40611,1.5126l-0.1611,0.56021H93.39943z"/>
			<path fill="#56CC25" d="M97.8393,152.01852l-0.98743-1.79266h-0.69318v1.79266h-0.81232v-4.57968h1.54055
				c0.95239,0,1.68763,0.33612,1.68763,1.35851c0,0.70029-0.36416,1.12042-0.91736,1.30946l1.09248,1.91171H97.8393z
				 M96.15868,149.58163h0.64422c0.6302,0,0.96632-0.26613,0.96632-0.78429c0-0.52525-0.33613-0.70729-0.96632-0.70729h-0.64422
				V149.58163z"/>
			<path fill="#56CC25" d="M99.5201,147.43884h0.88932l0.82634,2.25484l0.30109,0.8683h0.02803l0.30109-0.8683l0.80531-2.25484
				h0.89633v4.57968h-0.76327v-2.09375c0-0.42714,0.06299-1.03641,0.10503-1.45654h-0.02803l-0.37116,1.04333l-0.7913,2.07982
				h-0.37108l-0.79131-2.07982l-0.36415-1.04333h-0.02803c0.03503,0.42014,0.09802,1.0294,0.09802,1.45654v2.09375H99.5201
				V147.43884z"/>
			<path fill="#56CC25" d="M106.8381,150.77905h-1.53355l-0.35715,1.23947h-0.83334l1.49859-4.57968h0.95231l1.49158,4.57968
				h-0.86129L106.8381,150.77905z M106.65607,150.14185l-0.1611-0.56021c-0.14007-0.4832-0.28014-1.00836-0.41312-1.5126h-0.02803
				c-0.12606,0.51125-0.25912,1.0294-0.40612,1.5126l-0.16109,0.56021H106.65607z"/>
			<path fill="#56CC25" d="M110.40266,147.35483c0.56021,0,1.01538,0.27306,1.30254,0.58115l-0.44817,0.50423
				c-0.2381-0.23109-0.49722-0.37817-0.84736-0.37817c-0.74925,0-1.28844,0.63029-1.28844,1.65968
				c0,1.04333,0.49714,1.67361,1.26041,1.67361c0.4062,0,0.70728-0.16811,0.96641-0.45517l0.44817,0.49713
				c-0.37116,0.42715-0.84736,0.66525-1.4285,0.66525c-1.16247,0-2.07982-0.84027-2.07982-2.35988
				C108.2879,148.24416,109.22627,147.35483,110.40266,147.35483z"/>
			<path fill="#56CC25" d="M112.54573,147.43884h0.81232v4.57968h-0.81232V147.43884z"/>
			<path fill="#56CC25" d="M114.4995,147.43884h2.75198v0.68626h-1.93966v1.16937h1.64558v0.68628h-1.64558v1.3515h2.00974v0.68626
				h-2.82206V147.43884z"/>
		</g>
		<polygon id="logo_pharmacie_3_" fill="#56CC25" points="79.46297,148.48735 77.66424,148.48735 77.66424,146.68861 
			75.18161,146.68861 75.18161,148.48735 73.38287,148.48735 73.38287,150.97 75.18161,150.97 75.18161,152.76874 
			77.66424,152.76874 77.66424,150.97 79.46297,150.97 		"/>
		<g id="fenetre_5_7_">
			<rect x="108.95036" y="129.22456" fill="#DFDFDF" width="6.11995" height="11.22349"/>
			<path fill="#DFDFDF" d="M115.1363,140.51408h-6.25198v-11.35556h6.25198V140.51408z M109.01636,140.38205h5.98791v-11.09149
				h-5.98791V140.38205z"/>
		</g>
		<g id="ombre_fenetre_5_7_">
			<polyline fill="#B6D0C2" points="109.09235,140.31184 109.09235,129.36078 114.92831,129.36078 			"/>
		</g>
		<g id="fenetre_6_7_">
			<rect x="119.38314" y="129.22456" fill="#DFDFDF" width="6.11995" height="11.22349"/>
			<path fill="#DFDFDF" d="M125.56908,140.51408h-6.25198v-11.35556h6.25198V140.51408z M119.44914,140.38205h5.98791v-11.09149
				h-5.98791V140.38205z"/>
		</g>
		<g id="ombre_fenetre_6_7_">
			<polyline fill="#B6D0C2" points="119.52514,140.31184 119.52514,129.36078 125.36109,129.36078 			"/>
		</g>
		<g id="fenetre_4_2_">
			<rect x="98.00409" y="129.22459" fill="#DFDFDF" width="6.11995" height="11.22349"/>
			<path fill="#DFDFDF" d="M104.19003,140.5141h-6.25198v-11.35556h6.25198V140.5141z M98.07008,140.38206h5.98791v-11.09149
				h-5.98791V140.38206z"/>
		</g>
		<g id="ombre_fenetre_4_7_">
			<polyline fill="#B6D0C2" points="98.14606,140.31187 98.14606,129.36079 103.98202,129.36079 			"/>
		</g>
		<g id="fenetre_3_6_">
			<rect x="87.05782" y="129.22458" fill="#DFDFDF" width="6.11995" height="11.22349"/>
			<path fill="#DFDFDF" d="M93.24376,140.5141h-6.25198v-11.35556h6.25198V140.5141z M87.12382,140.38206h5.98791v-11.09149
				h-5.98791V140.38206z"/>
		</g>
		<g id="ombre_fenetre_3_13_">
			<polyline fill="#B6D0C2" points="87.1691,140.31186 87.1691,129.36079 93.00505,129.36079 			"/>
		</g>
		<g id="fenetre_2_13_">
			<rect x="76.11155" y="129.02234" fill="#DFDFDF" width="6.11995" height="11.22349"/>
			<path fill="#DFDFDF" d="M82.29749,140.31184h-6.25198V128.9563h6.25198V140.31184z M76.17755,140.17982h5.98791v-11.09149
				h-5.98791V140.17982z"/>
		</g>
		<g id="ombre_fenetre_2_13_">
			<polyline fill="#B6D0C2" points="76.25355,140.10962 76.25355,129.15854 82.0895,129.15854 			"/>
		</g>
		<g id="fenetre_1_13_">
			<rect x="65.16528" y="129.02234" fill="#DFDFDF" width="6.11995" height="11.22349"/>
			<path fill="#DFDFDF" d="M71.35122,140.31184h-6.25198V128.9563h6.25198V140.31184z M65.23128,140.17982h5.98791v-11.09149
				h-5.98791V140.17982z"/>
		</g>
		<g id="ombre_fenetre_1_13_">
			<polyline fill="#B6D0C2" points="65.30728,140.10962 65.30728,129.15854 71.14323,129.15854 			"/>
		</g>
		<rect id="mur_arriere_4_" x="8.47825" y="141.78032" fill="#FFFFFF" width="49.50138" height="28.20127"/>
		<polygon id="mur_avant_4_" fill="#A5ADA2" points="54.37227,169.92474 11.36345,169.92474 11.4033,144.00426 54.41212,144.00426 
					"/>
		<rect id="rebord_bas_4_" x="6.87633" y="169.91234" fill="#373538" width="52.70168" height="6.13763"/>
		
			<rect id="porte_3_" x="41.03659" y="152.39566" fill="#CFCEC1" stroke="#231F20" stroke-miterlimit="10" width="12.76109" height="23.29201"/>
		<g id="ombre_vitre_droite_16_">
			<polyline fill="#A5BBB2" points="41.38706,175.31833 41.44714,152.40422 53.74584,152.40422 			"/>
		</g>
		<rect id="pancarte_ouverture_porte_4_" x="45.19438" y="157.61836" fill="#E8E8E5" width="4.41485" height="2.62203"/>
		<rect id="poignee_porte_3_" x="41.0941" y="162.77219" fill="#E8E8E5" width="12.61669" height="1.99694"/>
		<rect id="ombre_poignee_porte_4_" x="41.11887" y="164.76913" opacity="0.33" fill="#303030" width="12.61669" height="0.22109"/>
		
			<rect id="vitrine_3_" x="12.14314" y="152.39566" fill="#CFCEC1" stroke="#231F20" stroke-miterlimit="10" width="28.25079" height="15.93037"/>
		<g id="ombre_vitre_droite_15_">
			<polyline fill="#A5BBB2" points="12.52915,167.95099 12.52915,152.40135 21.5169,152.40135 			"/>
		</g>
		<g id="ombre_vitre_droite_14_">
			<polyline fill="#A5BBB2" points="21.5169,168.32033 21.5169,152.40135 30.81243,152.40135 			"/>
		</g>
		<g id="ombre_vitre_droite_5_">
			<polyline fill="#A5BBB2" points="31.01547,168.32033 31.01547,152.40135 40.311,152.40135 			"/>
		</g>
		
			<line id="séparation_verticale_vitre_9_" fill="none" stroke="#231F20" stroke-miterlimit="10" x1="21.52589" y1="152.40422" x2="21.52589" y2="168.3232"/>
		
			<line id="séparation_verticale_vitre_6_" fill="none" stroke="#231F20" stroke-miterlimit="10" x1="31.01547" y1="152.43983" x2="31.01547" y2="168.35881"/>
		
			<line id="separation_horizontale_vitre_4_" fill="none" stroke="#231F20" stroke-miterlimit="10" x1="12.11489" y1="160.39932" x2="40.39393" y2="160.39932"/>
		<polygon id="base_store_blanche_4_" fill="#F4F4F4" points="11.78426,144.7581 5.61479,152.39566 59.58231,152.39566 
			53.41343,144.7581 		"/>
		<polygon id="bande_rouge_6_4_" fill="#E9582E" points="50.59543,152.40828 55.09341,152.39531 49.48609,144.75835 
			45.75635,144.75835 		"/>
		<polygon id="bande_rouge_5_4_" fill="#E9582E" points="41.59929,152.40196 46.09727,152.3884 42.32206,144.75145 
			39.0629,144.75145 		"/>
		<polygon id="bande_rouge_4_4_" fill="#E9582E" points="35.87372,144.75168 32.60327,144.75168 32.60327,152.4081 
			37.10125,152.4081 		"/>
		<polygon id="bande_rouge_3_4_" fill="#E9582E" points="28.07115,152.40828 23.57317,152.39531 25.4174,144.75717 
			29.05459,144.75186 		"/>
		<polygon id="bande_rouge_2_4_" fill="#E9582E" points="19.10897,152.40828 14.61099,152.39531 19.10897,144.75835 
			22.72256,144.75835 		"/>
		<polygon id="bande_rouge_1_4_" fill="#E9582E" points="11.78426,144.7581 5.61479,152.39566 10.11277,152.40804 15.514,144.7581 
					"/>
		<path fill="#E5E5E5" d="M59.59155,152.40797c0,1.09782-1.00702,1.98869-2.2487,1.98869
			c-1.24227,0-2.24929-0.89087-2.24929-1.98869"/>
		<path fill="#C24117" d="M55.09368,152.40797c0,1.09782-1.00702,1.98869-2.24929,1.98869c-1.24168,0-2.2487-0.89087-2.2487-1.98869
			"/>
		<path fill="#E5E5E5" d="M50.59558,152.40797c0,1.09782-1.00702,1.98869-2.2487,1.98869
			c-1.24227,0-2.24929-0.89087-2.24929-1.98869"/>
		<path fill="#C24117" d="M46.09753,152.40797c0,1.09782-1.00702,1.98869-2.2487,1.98869
			c-1.24226,0-2.24928-0.89087-2.24928-1.98869"/>
		<path fill="#E5E5E5" d="M41.59944,152.40797c0,1.09782-1.00702,1.98869-2.2487,1.98869
			c-1.24226,0-2.24928-0.89087-2.24928-1.98869"/>
		<path fill="#C24117" d="M37.10139,152.40797c0,1.09782-1.00702,1.98869-2.24929,1.98869c-1.24168,0-2.2487-0.89087-2.2487-1.98869
			"/>
		<path fill="#E5E5E5" d="M32.60329,152.40797c0,1.09782-1.00702,1.98869-2.24929,1.98869c-1.24167,0-2.2487-0.89087-2.2487-1.98869
			"/>
		<path fill="#C24117" d="M28.10526,152.40797c0,1.09782-1.00702,1.98869-2.2487,1.98869
			c-1.24227,0-2.24928-0.89087-2.24928-1.98869"/>
		<path fill="#E5E5E5" d="M23.60715,152.40797c0,1.09782-1.00702,1.98869-2.24929,1.98869c-1.24168,0-2.2487-0.89087-2.2487-1.98869
			"/>
		<path fill="#C24117" d="M19.10911,152.40797c0,1.09782-1.00702,1.98869-2.24929,1.98869c-1.24168,0-2.2487-0.89087-2.2487-1.98869
			"/>
		<path fill="#E5E5E5" d="M14.6109,152.40797c0,1.09782-1.00702,1.98869-2.2487,1.98869c-1.24227,0-2.24929-0.89087-2.24929-1.98869
			"/>
		<path fill="#C24117" d="M10.11297,152.40797c0,1.09782-1.00702,1.98869-2.24929,1.98869c-1.24168,0-2.2487-0.89087-2.2487-1.98869
			"/>
		<rect id="ombre_rebord_toit_1_" x="8.47825" y="141.78032" opacity="0.33" fill="#303030" width="49.50138" height="0.52029"/>
		<rect id="rebord_toit_1_" x="6.87633" y="138.56529" fill="#707070" width="52.70168" height="3.21504"/>
		
			<rect id="arriere_pancarte_3_" x="22.69655" y="135.0425" fill="#FFFFFF" stroke="#E9582E" stroke-miterlimit="10" width="20.26244" height="5.84461"/>
		<g id="epicerie_4_">
			<path fill="#E9582E" d="M25.34403,136.62932h1.54799v0.28668h-1.20398v0.84363h1.01561v0.29076h-1.01561v0.97467H26.933v0.29076
				h-1.58897V136.62932z M26.21632,136.42456h-0.28256l0.3604-0.45868h0.38495L26.21632,136.42456z"/>
			<path fill="#E9582E" d="M27.48194,136.62932h0.82723c0.59384,0,0.99106,0.20065,0.99106,0.79037
				c0,0.56517-0.40542,0.83134-0.99106,0.83134h-0.48322v1.06477h-0.34401V136.62932z M28.26415,137.97255
				c0.47094,0,0.69618-0.17198,0.69618-0.55286c0-0.38902-0.23343-0.51601-0.69618-0.51601h-0.4382v1.06886H28.26415z"/>
			<path fill="#E9582E" d="M29.82058,136.62932h0.34401v2.68649h-0.34401V136.62932z"/>
			<path fill="#E9582E" d="M31.92155,136.58018c0.31943,0,0.57333,0.15559,0.73304,0.33171l-0.19249,0.21704
				c-0.14332-0.15152-0.31531-0.24979-0.53647-0.24979c-0.51192,0-0.85181,0.41769-0.85181,1.08524
				c0,0.67572,0.32354,1.10161,0.83542,1.10161c0.2539,0,0.44232-0.10646,0.6143-0.29897l0.19249,0.20889
				c-0.20889,0.2457-0.47506,0.38902-0.81499,0.38902c-0.67571,0-1.17944-0.51599-1.17944-1.3924
				C30.7216,137.10846,31.23352,136.58018,31.92155,136.58018z"/>
			<path fill="#E9582E" d="M33.19537,136.62932h1.54799v0.28668h-1.20398v0.84363h1.01561v0.29076h-1.01561v0.97467h1.24496v0.29076
				h-1.58897V136.62932z"/>
			<path fill="#E9582E" d="M36.80758,139.31581l-0.64708-1.13438h-0.48322v1.13438h-0.34401v-2.68649h0.84362
				c0.54466,0,0.93781,0.19658,0.93781,0.75356c0,0.41769-0.23751,0.66751-0.60199,0.7617l0.68391,1.17123H36.80758z
				 M35.67728,137.90294h0.45047c0.41773,0,0.64705-0.17198,0.64705-0.52007c0-0.3522-0.22932-0.47919-0.64705-0.47919h-0.45047
				V137.90294z"/>
			<path fill="#E9582E" d="M37.69234,136.62932h0.34401v2.68649h-0.34401V136.62932z"/>
			<path fill="#E9582E" d="M38.749,136.62932h1.54799v0.28668h-1.20398v0.84363h1.0156v0.29076h-1.0156v0.97467h1.24496v0.29076
				H38.749V136.62932z"/>
		</g>
		<g id="trond_4_">
			<polygon fill="#AD6A15" points="300.6796,177.56769 298.14618,177.56769 298.14618,166.77237 298.14618,158.07564 
				300.6796,158.07564 			"/>
		</g>
		<g id="droite_6_">
			<path fill="#AD6A15" d="M300.36484,165.7664h3.09808c0,0,1.35541,0.06305,1.35541-1.53806c0-1.60112,0-6.51486,0-6.51486h1.98471
				v7.12218c0,0,0.0968,3.0918-2.61401,3.0918s-3.82419,0-3.82419,0V165.7664z"/>
		</g>
		<g id="branche_gauche_8_">
			<path fill="#AD6A15" d="M298.14618,162.91217h-2.91345c0,0-1.27463,0.15723-1.27463-0.98273s0-4.63844,0-4.63844h-1.86642
				v5.07085c0,0-0.09103,2.20129,2.45822,2.20129s3.59628,0,3.59628,0V162.91217z"/>
		</g>
		<g id="boule_arriere_plan_8_">
			<circle fill="#6F9738" cx="297.05222" cy="151.1058" r="9.65322"/>
		</g>
		<g id="boule_bas_gauche_9_">
			<ellipse fill="#A1C75D" cx="288.07016" cy="153.01384" rx="4.88759" ry="4.90984"/>
		</g>
		<g id="boule_second_plan_8_">
			<circle fill="#85B348" cx="302.65396" cy="147.31102" r="7.47201"/>
		</g>
		<g id="boule_haut_8_">
			<ellipse fill="#A1C75D" cx="301.23132" cy="138.66785" rx="6.04937" ry="6.07691"/>
		</g>
		<g id="boule_bas_droite_8_">
			<ellipse fill="#A1C75D" cx="306.70544" cy="155.49081" rx="6.40436" ry="6.43351"/>
		</g>
		<g id="trond_3_">
			<polygon fill="#AD6A15" points="134.38385,177.56769 131.85043,177.56769 131.85043,166.77237 131.85043,158.07564 
				134.38385,158.07564 			"/>
		</g>
		<g id="droite_3_">
			<path fill="#AD6A15" d="M134.06911,165.7664h3.09807c0,0,1.35541,0.06305,1.35541-1.53806c0-1.60112,0-6.51486,0-6.51486h1.98471
				v7.12218c0,0,0.09682,3.0918-2.614,3.0918s-3.82419,0-3.82419,0V165.7664z"/>
		</g>
		<g id="branche_gauche_7_">
			<path fill="#AD6A15" d="M132.3121,162.77367h-2.91345c0,0-1.27463,0.15724-1.27463-0.98273c0-1.13995,0-4.63844,0-4.63844
				h-1.86642v5.07085c0,0-0.09104,2.20129,2.45822,2.20129c2.54926,0,3.59628,0,3.59628,0V162.77367z"/>
		</g>
		<g id="boule_arriere_plan_7_">
			<circle fill="#6F9738" cx="131.21814" cy="150.96732" r="9.65322"/>
		</g>
		<g id="boule_bas_gauche_2_">
			<ellipse fill="#A1C75D" cx="122.23607" cy="152.87534" rx="4.88759" ry="4.90984"/>
		</g>
		<g id="boule_second_plan_7_">
			<circle fill="#85B348" cx="136.35822" cy="147.31102" r="7.47201"/>
		</g>
		<g id="boule_haut_7_">
			<ellipse fill="#A1C75D" cx="134.93556" cy="138.66785" rx="6.04937" ry="6.07691"/>
		</g>
		<g id="boule_bas_droite_7_">
			<ellipse fill="#A1C75D" cx="140.4097" cy="155.49081" rx="6.40436" ry="6.43351"/>
		</g>
	</g>
	<g id="Calque_74">
		<g id="illu_city_72_x25__2_">
			<g>
				<g>
					<path fill="none" stroke="#00A071" stroke-width="3" stroke-miterlimit="10" d="M375.7941,112.89824
						c0,0-0.65039-1.09497-1.896-2.9375"/>
					<path fill="none" stroke="#00A071" stroke-width="3" stroke-miterlimit="10" stroke-dasharray="6.88808,6.88808" d="
						M369.86856,104.37798c-8.62402-11.25317-26.12817-30.1311-48.9751-34.24463
						c-33.0354-5.94751-62.6936,1.89624-74.87488-11.32983c-12.56775-13.64575-18.41211-29.3999-7.1582-44.72803
						c6.12952-7.72754,19.47717-10.55737,28.19519,1.21973s3.67065,54.98852-42.09521,52.51904
						c-34.6189-1.86792-52.24866-9.13842-52.24866-9.13842s-14.74597-4.91528-25.26501-6.21313"/>
					<path fill="none" stroke="#00A071" stroke-width="3" stroke-miterlimit="10" d="M144.01981,52.17168
						c-1.30835-0.05005-2.48987-0.00903-3.4917,0.14697"/>
				</g>
			</g>
			<polygon fill="#CECECE" points="131.36064,49.95813 137.7883,54.8712 111.66231,76.33818 			"/>
			<polygon fill="#E0E0E0" points="131.64259,54.59454 137.88255,54.85962 111.66231,76.33818 			"/>
			<polygon fill="#EFEFEF" points="130.35965,41.00198 111.59534,76.51837 131.36064,49.95813 			"/>
			<polygon fill="#EFEFEF" points="133.12172,67.12167 111.59534,76.51837 131.64259,54.59454 			"/>
		</g>
	</g>
</g>
</svg>
