<svg xmlns="http://www.w3.org/2000/svg" xmlns:xlink="http://www.w3.org/1999/xlink" x="0" y="0" enable-background="new 0 0 44.833 45.167" version="1.1" viewBox="0 0 44.833 45.167" xml:space="preserve"><g id="click_to_call"><path id="icon_1_" fill="#FFF" d="M24.06524,43.92186c-2.1932-0.13708-4.20364-0.82245-6.1227-1.78198 c-4.29503-2.10182-7.95037-4.9804-11.05741-8.63575c-2.28459-2.69582-4.15795-5.66578-5.39163-8.95559 c-0.59399-1.59921-1.00522-3.24412-0.91384-4.98041c0.09138-1.0966,0.50261-2.01044,1.27937-2.74151 c0.86814-0.82245,1.6449-1.6449,2.51305-2.46736c1.0966-1.0966,2.46736-1.0966,3.56396,0 c0.68538,0.68538,1.32506,1.32506,2.01044,2.01044c0.63968,0.63968,1.32506,1.32506,1.96475,1.96475 c1.14229,1.14229,1.14229,2.51305,0,3.65534c-0.82245,0.82245-1.6449,1.6449-2.46736,2.46736 c-0.22846,0.22846-0.22846,0.36553-0.13708,0.63968c0.5483,1.32506,1.32506,2.46736,2.2389,3.56396 c1.78198,2.19321,3.83811,4.15795,6.21408,5.66578c0.50261,0.31984,1.0966,0.5483,1.6449,0.86814 c0.27415,0.13708,0.45692,0.09138,0.68538-0.13708c0.82245-0.82245,1.6449-1.69059,2.46736-2.51305 c1.0966-1.09661,2.46736-1.09661,3.56396,0c1.32506,1.32506,2.69581,2.65012,4.02088,4.02087 c1.0966,1.1423,1.0966,2.51305,0,3.60965c-0.77676,0.77676-1.55352,1.50783-2.28459,2.28459 C26.85244,43.64771,25.57307,44.01324,24.06524,43.92186z M20.13575,23.49763l-0.13708-0.13708 c-4.75194-5.34594-4.52348-13.52477,0.59399-18.64224c5.30024-5.30025,13.93599-5.30025,19.23624,0s5.30024,13.93599,0,19.23624 c-4.47779,4.47779-11.28587,5.16317-16.49473,2.10182l-0.04569-0.04569c-2.05613,1.55352-4.24933,1.82767-5.80285,1.59921 c-0.50261-0.09138-0.59399-0.77676-0.13708-1.00522C18.71931,25.96499,19.63314,24.59424,20.13575,23.49763z M28.54304,8.19089 c0,1.23368,1.00522,2.2389,2.2389,2.2389c1.18799,0,2.19321-1.00522,2.19321-2.2389s-0.95953-2.2389-2.19321-2.2389 S28.54304,6.95721,28.54304,8.19089z M26.85244,12.48592c0.22846,0.09138,0.26199,0.09138,0.49044,0.13708 c0.5483,0.09138,0.49045,0.27415,0.49045,0.86814c0,0.09138,0,0.18277,0,0.27415c0,1.37075-0.26199,2.7872-0.49045,4.15795 c-0.13708,0.77676-0.15384,1.59921-0.24522,2.37597c-0.18277,1.18799,1.01968,2.28459,1.93352,2.37597 c0.5483,0.09138,1.12668,0.09138,1.62929,0.09138c1.14229,0,2.11686-0.50261,2.93931-1.32506 c0.13708-0.13707,0.28167-0.31984,0.32736-0.5483c0.09138-0.31984-0.17901-0.5483-0.49885-0.41123 c-0.22846,0.09138-0.40935,0.22846-0.63781,0.31984c-0.27415,0.09138-0.54736,0.18277-0.82151,0.22846 c-0.31984,0.04569-0.59352-0.13708-0.68491-0.45692c-0.04569-0.22846-0.09115-0.50261-0.04546-0.77676 c0.04569-0.5483,0.18288-1.05091,0.27427-1.55352c0.27415-1.59921,0.59405-3.15273,0.8682-4.75194 c0.09138-0.41123,0.1371-0.50231,0.1371-0.91354c0-0.50261-0.31981-0.41093-0.82242-0.41093c-0.73107,0-1.46214,0-2.14751,0 c-0.68538,0-1.37075,0-2.05613,0c-0.18277,0-0.31984-0.36583-0.50261-0.32014c-0.31984,0.04569-0.45692,0.04554-0.50261,0.274 C26.44122,12.34899,26.5326,12.34884,26.85244,12.48592z"/></g></svg>