<?xml version="1.0" encoding="utf-8"?>
<!-- Generator: Adobe Illustrator 20.0.0, SVG Export Plug-In . SVG Version: 6.00 Build 0)  -->
<svg version="1.1" xmlns="http://www.w3.org/2000/svg" xmlns:xlink="http://www.w3.org/1999/xlink" x="0px" y="0px"
	 viewBox="0 0 251.75 65.75" enable-background="new 0 0 251.75 65.75" xml:space="preserve">
<g id="Guides" display="none">
</g>
<g id="footer">
	<g id="RS">
	</g>
</g>
<g id="contact">
	<g id="Réseaux_Sociaux">
	</g>
	<g id="form">
		<g id="btn_valider">
		</g>
	</g>
</g>
<g id="les_offres">
	<g id="personnalisation">
		<g id="thème_complet">
		</g>
		<g id="logo">
		</g>
		<g id="couleurs">
		</g>
		<g id="image_banniere">
		</g>
	</g>
	<g id="détail_flexiweb_plus">
		<g id="btn_voir_la_video">
		</g>
		<g id="timeline_1_">
			<g id="_x35__1_">
			</g>
			<g id="_x34__1_">
			</g>
			<g id="_x33__1_">
			</g>
			<g id="_x32__1_">
			</g>
			<g id="_x31__1_">
			</g>
		</g>
		<g id="etape_5">
		</g>
		<g id="etape_4">
		</g>
		<g id="etape_3">
		</g>
		<g id="etape_2">
		</g>
		<g id="etape_1">
		</g>
	</g>
	<g id="tableau">
		<g id="optiweb">
			<g id="btn_je_m_x27_inscris_3_">
			</g>
		</g>
		<g id="flexiweb__x2B_">
			<g id="btn_je_m_x27_inscris_2_">
			</g>
		</g>
		<g id="flexiweb">
			<g id="btn_je_m_x27_inscris_1_">
			</g>
		</g>
		<g id="ecoweb">
			<g id="btn_je_m_x27_inscris">
			</g>
		</g>
	</g>
</g>
<g id="photo_bkgd_pharma">
</g>
<g id="chiffres">
	<g id="_x35_0_x25_">
	</g>
	<g id="_x37_3_x25_">
	</g>
	<g id="_x37_2_x25_">
	</g>
	<g id="_x38_5_x25_">
	</g>
</g>
<g id="map__x2B__testimoniaux">
	<g id="testimoniaux">
	</g>
	<g id="map">
		<g id="cursor_clients">
		</g>
	</g>
</g>
<g id="_x36__bonnes_raisons_de_choisir">
	<g id="coût">
	</g>
	<g id="accompagnement">
	</g>
	<g id="satisfaction">
	</g>
	<g id="fidelisation">
	</g>
	<g id="expertise">
	</g>
	<g id="dev_service_de_proximité">
	</g>
	<g id="timeline">
	</g>
</g>
<g id="les_garanties">
	<g id="borders">
	</g>
</g>
<g id="les_objectifs">
	<g id="Augmenter">
	</g>
	<g id="Connecter">
	</g>
	<g id="Gagner">
	</g>
	<g id="Simplifier">
	</g>
	<g id="Aider">
	</g>
	<g id="Innover">
	</g>
</g>
<g id="actualités">
	<g id="btn_voir_toutes_les_actus">
	</g>
	<g id="hover_article">
	</g>
</g>
<g id="à_propos">
	<g id="btn_video_président">
	</g>
</g>
<g id="click_to_call">
</g>
<g id="home">
	<g id="bouton_téléchargez_le_livre_blanc">
	</g>
	<g id="header">
		<g>
			<polygon fill="#FFFFFF" points="43.24537,31.36953 32.8805,31.36953 32.8805,21.00463 30.41667,21.00463 30.41667,31.36953 
				20.05179,31.36953 20.05179,33.83333 30.41667,33.83333 30.41667,44.19823 32.8805,44.19823 32.8805,33.83333 43.24537,33.83333 
							"/>
		</g>
		<g>
			<path fill="#FFFFFF" d="M66.21874,17.88903c0-5.49518-3.51502-7.43466-9.45496-7.43466h-7.27306v26.62771h1.85867V25.64695
				h5.41439C62.66302,25.64695,66.21874,23.10166,66.21874,17.88903z M56.2789,24.07141h-4.9295V12.03048h4.9295
				c5.41439,0,8.04105,1.3738,8.04105,5.85855C64.31995,22.25285,61.73397,24.07141,56.2789,24.07141z"/>
			<path fill="#FFFFFF" d="M84.2403,24.87953v12.20254h1.77785V24.63709c0-5.01032-1.85925-7.43466-5.85912-7.43466
				c-2.66679,0-4.68709,1.49472-6.70736,3.51559v-4.28361V8.03002h-1.77785v29.05205h1.77785V22.45516
				c2.38422-2.42435,4.04057-3.63652,6.34341-3.63652C82.94731,18.81865,84.2403,20.75813,84.2403,24.87953z"/>
			<path fill="#FFFFFF" d="M91.91798,32.23338c0,3.67723,2.58597,5.33355,5.65681,5.33355
				c2.54529,0,4.88882-1.41449,6.86841-2.99002h0.08139l0.20174,2.50516h1.49473V24.67719
				c0-4.16151-1.53484-7.47477-6.14168-7.47477c-3.15108,0-5.81844,1.53541-7.19164,2.50516l0.8081,1.33367
				c1.29299-0.96973,3.55573-2.26272,6.18181-2.26272c3.79814,0,4.64695,3.19176,4.56556,6.14168
				C95.83705,25.88997,91.91798,27.95037,91.91798,32.23338z M104.4432,32.87988c-2.38366,2.06098-4.36382,3.15165-6.58585,3.15165
				s-4.08128-1.09067-4.08128-3.87896c0-3.07084,2.70747-4.9295,10.66713-5.85913V32.87988z"/>
			<path fill="#FFFFFF" d="M114.9487,23.8691c1.49532-3.63596,3.55573-4.96964,5.29287-4.96964
				c0.76801,0,1.13138,0.08081,1.77788,0.32326l0.40462-1.61624c-0.64649-0.32324-1.21275-0.40405-1.93948-0.40405
				c-2.30342,0-4.20219,1.69704-5.49518,4.0807h-0.1215l-0.16163-3.59583h-1.53543v19.39478h1.77785V23.8691z"/>
			<path fill="#FFFFFF" d="M145.85887,17.20243c-2.22261,0-4.36383,1.53541-6.58644,3.95975
				c-0.68663-2.38364-2.26274-3.95975-5.37369-3.95975c-2.1412,0-4.36382,1.49472-6.10156,3.47489h-0.12093l-0.16163-2.99002
				h-1.53543v19.39478h1.77785V22.45516c2.14122-2.42435,4.08069-3.63652,5.81844-3.63652
				c2.99002,0,4.36383,1.93948,4.36383,6.06088v12.20254h1.77785V22.45516c2.14122-2.42435,4.00049-3.63652,5.81844-3.63652
				c2.94934,0,4.32373,1.93948,4.32373,6.06088v12.20254h1.81795V24.63709
				C151.67728,19.62677,149.73782,17.20243,145.85887,17.20243z"/>
			<rect x="158.78929" y="17.68729" fill="#FFFFFF" width="1.77787" height="19.39478"/>
			<path fill="#FFFFFF" d="M159.71834,13.00021c0.88951,0,1.61624-0.64649,1.61624-1.57611
				c0-1.00986-0.72673-1.61622-1.61624-1.61622c-0.88834,0-1.61623,0.60636-1.61623,1.61622
				C158.10211,12.35371,158.83,13.00021,159.71834,13.00021z"/>
			<path fill="#FFFFFF" d="M176.52716,17.20243c-2.66679,0-4.68709,1.49472-6.66725,3.47489h-0.12094l-0.16161-2.99002h-1.53543
				v19.39478h1.77785V22.45516c2.38425-2.42435,4.04059-3.63652,6.34344-3.63652c3.15222,0,4.44521,1.93948,4.44521,6.06088
				v12.20254h1.77786V24.63709C182.38629,19.62677,180.52704,17.20243,176.52716,17.20243z"/>
			<path fill="#FFFFFF" d="M191.5988,13.48509c0-2.78771,0.96976-4.40396,3.03073-4.40396c0.72731,0,1.53543,0.16163,2.34354,0.5651
				l0.48488-1.45462c-0.88893-0.40347-1.93948-0.64649-2.82841-0.64649c-3.07083,0-4.80858,1.98019-4.80858,5.81844v4.32372
				l-2.6662,0.16163v1.3738h2.6662v17.85935h1.77785V19.22272h4.48535v-1.53543h-4.48535V13.48509z"/>
			<path fill="#FFFFFF" d="M206.83209,37.56693c4.68706,0,8.72765-3.71733,8.72765-10.14213
				c0-6.50504-4.04059-10.22237-8.72765-10.22237c-4.64697,0-8.68755,3.71733-8.68755,10.22237
				C198.14455,33.8496,202.18512,37.56693,206.83209,37.56693z M206.83209,18.77854c3.91907,0,6.86841,3.51502,6.86841,8.64626
				c0,5.09171-2.94934,8.56602-6.86841,8.56602c-3.91966,0-6.82887-3.47431-6.82887-8.56602
				C200.00322,22.29356,202.91243,18.77854,206.83209,18.77854z"/>
			<path fill="#FFFFFF" d="M221.70142,33.88973c-0.88893,0-1.73717,0.68718-1.73717,1.85924
				c0,1.13136,0.84824,1.81796,1.73717,1.81796c0.88895,0,1.69704-0.6866,1.69704-1.81796
				C223.39845,34.57691,222.59036,33.88973,221.70142,33.88973z"/>
			<path fill="#FFFFFF" d="M234.91382,9.08114c0.72731,0,1.53543,0.16163,2.34355,0.5651l0.48486-1.45462
				c-0.88893-0.40347-1.93948-0.64649-2.82841-0.64649c-3.07085,0-4.80798,1.98019-4.80798,5.81844v4.32372l-2.66737,0.16163v1.3738
				h2.66737v17.85935h1.77785V19.22272h4.48474v-1.53543h-4.48474v-4.2022C231.88368,10.69738,232.85341,9.08114,234.91382,9.08114z
				"/>
			<path fill="#FFFFFF" d="M247.52043,18.89946c0.76743,0,1.13138,0.08081,1.77786,0.32326l0.40347-1.61624
				c-0.64648-0.32324-1.21159-0.40405-1.93947-0.40405c-2.30286,0-4.20221,1.69704-5.49519,4.0807h-0.12094l-0.16161-3.59583
				h-1.53543v19.39478h1.77785V23.8691C243.72169,20.23313,245.7827,18.89946,247.52043,18.89946z"/>
			<path fill="#FFFFFF" d="M53.94467,50.93108c-0.34301,1.09822-0.5901,1.93542-0.96101,3.03364h-0.05467
				c-0.37091-1.09822-0.60403-1.93542-0.94704-3.03364L50.307,45.64636h-0.67208l2.97839,9.04567h0.68605l2.95107-9.04567h-0.63138
				L53.94467,50.93108z"/>
			<path fill="#FFFFFF" d="M59.75032,47.93873c-1.57845,0-2.9511,1.26276-2.9511,3.47258c0,2.1825,1.37265,3.44526,2.9511,3.44526
				c1.5918,0,2.96443-1.26276,2.96443-3.44526C62.71476,49.20148,61.34213,47.93873,59.75032,47.93873z M59.75032,54.32169
				c-1.33136,0-2.31972-1.18079-2.31972-2.91039c0-1.74298,0.98835-2.93713,2.31972-2.93713
				c1.33134,0,2.33305,1.19415,2.33305,2.93713C62.08338,53.14091,61.08167,54.32169,59.75032,54.32169z"/>
			<path fill="#FFFFFF" d="M66.57105,54.32169c-0.90638,0-1.11218-0.56277-1.11218-1.40055v-4.2958h1.90807v-0.52209h-1.90807
				v-1.90749h-0.52151l-0.08254,1.90749l-1.043,0.05523v0.46686h1.02963v4.24115c0,1.18019,0.37034,1.99007,1.64703,1.99007
				c0.27443,0,0.68602-0.10989,1.07032-0.2471l-0.16454-0.49417C67.16115,54.22519,66.81814,54.32169,66.57105,54.32169z"/>
			<path fill="#FFFFFF" d="M69.58955,49.32531h-0.04069l-0.05522-1.22205h-0.52151v6.58876h0.60406v-4.48825
				c0.50755-1.23541,1.20753-1.68831,1.7982-1.68831c0.26047,0,0.38429,0.02732,0.60406,0.10989l0.13719-0.54941
				c-0.21976-0.10989-0.4122-0.13721-0.65928-0.13721C70.67442,47.93873,70.0291,48.51546,69.58955,49.32531z"/>
			<path fill="#FFFFFF" d="M75.50508,47.93873c-1.46856,0-2.86851,1.31798-2.86851,3.47258c0,2.15518,1.35867,3.44526,3.047,3.44526
				c0.96101,0,1.55112-0.32907,2.07261-0.64476l-0.24709-0.46684c-0.49416,0.35698-1.05695,0.5901-1.77088,0.5901
				c-1.48193,0-2.4569-1.19415-2.48423-2.85514h4.74928c0.02733-0.16454,0.02733-0.32907,0.02733-0.49419
				C78.03059,49.05091,77.07016,47.93873,75.50508,47.93873z M73.25399,51.01365c0.13721-1.57845,1.1395-2.55341,2.26505-2.55341
				c1.18021,0,1.93542,0.86507,1.93542,2.55341H73.25399z"/>
			<path fill="#FFFFFF" d="M85.40015,47.93873c-0.80985,0-1.59241,0.4808-2.23772,0.98835h-0.0407l-0.05522-0.82382h-0.52151
				v9.56716h0.60406v-2.40166v-1.22207c0.68602,0.50813,1.35869,0.80988,1.9767,0.80988c1.55052,0,2.90979-1.31742,2.90979-3.55515
				C88.03554,49.25671,87.15707,47.93873,85.40015,47.93873z M85.09782,54.32169c-0.50752,0-1.19415-0.23372-1.94878-0.85114
				v-3.9121c0.79591-0.69999,1.4959-1.08428,2.15517-1.08428c1.50984,0,2.086,1.20811,2.086,2.82724
				C87.39022,53.08626,86.42976,54.32169,85.09782,54.32169z"/>
			<path fill="#FFFFFF" d="M92.89294,47.93873c-0.90578,0-1.59238,0.50813-2.2784,1.19415v-1.45459v-2.85516h-0.60406v9.86891
				h0.60406V49.723c0.80985-0.82324,1.37263-1.23486,2.15516-1.23486c1.07031,0,1.50983,0.6587,1.50983,2.05865v4.14524h0.60348
				v-4.22779C94.88301,48.76254,94.25163,47.93873,92.89294,47.93873z"/>
			<path fill="#FFFFFF" d="M99.65903,47.93873c-1.0709,0-1.97668,0.52151-2.44352,0.85114l0.2744,0.4529
				c0.43952-0.32965,1.20811-0.76859,2.10051-0.76859c1.29008,0,1.57845,1.08428,1.55112,2.08657
				c-2.92374,0.32907-4.25511,1.02903-4.25511,2.48423c0,1.2488,0.87846,1.81159,1.92146,1.81159
				c0.86452,0,1.66101-0.48023,2.33365-1.01567h0.02732l0.06861,0.85114h0.50755V50.4782
				C101.74503,49.06427,101.22352,47.93873,99.65903,47.93873z M101.14155,53.26474
				c-0.80985,0.69999-1.48251,1.07032-2.23772,1.07032c-0.75463,0-1.38601-0.37033-1.38601-1.3174
				c0-1.04358,0.91917-1.67495,3.62373-1.99064V53.26474z"/>
			<path fill="#FFFFFF" d="M104.72285,49.32531h-0.04069l-0.05524-1.22205h-0.52149v6.58876h0.60406v-4.48825
				c0.50753-1.23541,1.20809-1.68831,1.79821-1.68831c0.26044,0,0.38427,0.02732,0.60403,0.10989l0.13721-0.54941
				c-0.21976-0.10989-0.41219-0.13721-0.65928-0.13721C105.8077,47.93873,105.16236,48.51546,104.72285,49.32531z"/>
			<path fill="#FFFFFF" d="M115.20859,47.93873c-0.7552,0-1.48251,0.52151-2.23714,1.34533
				c-0.23372-0.80988-0.76917-1.34533-1.8261-1.34533c-0.72731,0-1.48194,0.50813-2.07263,1.18079h-0.04069l-0.05522-1.01625
				h-0.52151v6.58876h0.60406V49.723c0.7273-0.82324,1.38601-1.23486,1.97668-1.23486c1.01567,0,1.48194,0.6587,1.48194,2.05865
				v4.14524h0.60405V49.723c0.72789-0.82324,1.35927-1.23486,1.97668-1.23486c1.00171,0,1.46857,0.6587,1.46857,2.05865v4.14524
				h0.618v-4.22779C117.18527,48.76254,116.52599,47.93873,115.20859,47.93873z"/>
			<path fill="#FFFFFF" d="M122.002,47.93873c-1.0709,0-1.9767,0.52151-2.44354,0.85114l0.27441,0.4529
				c0.43954-0.32965,1.20811-0.76859,2.10053-0.76859c1.29008,0,1.57845,1.08428,1.55112,2.08657
				c-2.92374,0.32907-4.25511,1.02903-4.25511,2.48423c0,1.2488,0.87846,1.81159,1.92146,1.81159
				c0.86449,0,1.66099-0.48023,2.33365-1.01567h0.02733l0.0686,0.85114h0.50752V50.4782
				C124.08797,49.06427,123.56648,47.93873,122.002,47.93873z M123.48451,53.26474
				c-0.80988,0.69999-1.48251,1.07032-2.23772,1.07032c-0.75463,0-1.38601-0.37033-1.38601-1.3174
				c0-1.04358,0.91915-1.67495,3.62373-1.99064V53.26474z"/>
			<path fill="#FFFFFF" d="M128.91866,54.32169c-1.44125,0-2.3883-1.18079-2.3883-2.91039c0-1.74298,1.04298-2.93713,2.3883-2.93713
				c0.64474,0,1.1389,0.30175,1.56448,0.69999l0.35698-0.42556c-0.43895-0.41162-1.02963-0.80988-1.93542-0.80988
				c-1.60577,0-3.00571,1.26276-3.00571,3.47258c0,2.1825,1.29008,3.44526,2.99236,3.44526
				c0.83717,0,1.53716-0.37036,2.09993-0.87848l-0.31569-0.4116C130.22267,53.97808,129.61862,54.32169,128.91866,54.32169z"/>
			<rect x="132.60982" y="48.10326" fill="#FFFFFF" width="0.60406" height="6.58876"/>
			<path fill="#FFFFFF" d="M132.92551,45.42718c-0.30173,0-0.54881,0.20582-0.54881,0.54883
				c0,0.31569,0.24709,0.53545,0.54881,0.53545s0.54884-0.21976,0.54884-0.53545
				C133.47435,45.633,133.22723,45.42718,132.92551,45.42718z"/>
			<path fill="#FFFFFF" d="M138.07187,47.93873c-1.46855,0-2.8685,1.31798-2.8685,3.47258c0,2.15518,1.35866,3.44526,3.047,3.44526
				c0.961,0,1.5511-0.32907,2.0726-0.64476l-0.24707-0.46684c-0.49419,0.35698-1.05696,0.5901-1.77089,0.5901
				c-1.48193,0-2.45691-1.19415-2.48422-2.85514h4.74927c0.02733-0.16454,0.02733-0.32907,0.02733-0.49419
				C140.59738,49.05091,139.63695,47.93873,138.07187,47.93873z M135.82079,51.01365
				c0.13719-1.57845,1.1395-2.55341,2.26505-2.55341c1.18019,0,1.93541,0.86507,1.93541,2.55341H135.82079z"/>
			<path fill="#FFFFFF" d="M147.43149,47.93873c-1.46857,0-2.86852,1.31798-2.86852,3.47258
				c0,2.15518,1.35869,3.44526,3.047,3.44526c0.96103,0,1.55112-0.32907,2.07262-0.64476l-0.24709-0.46684
				c-0.49417,0.35698-1.05695,0.5901-1.77089,0.5901c-1.48193,0-2.45691-1.19415-2.48422-2.85514h4.74927
				c0.02733-0.16454,0.02733-0.32907,0.02733-0.49419C149.95699,49.05091,148.99655,47.93873,147.43149,47.93873z
				 M145.18039,51.01365c0.13721-1.57845,1.1395-2.55341,2.26505-2.55341c1.18021,0,1.93542,0.86507,1.93542,2.55341H145.18039z"/>
			<path fill="#FFFFFF" d="M154.62314,47.93873c-0.90578,0-1.59239,0.50813-2.26505,1.18079h-0.04071l-0.05522-1.01625h-0.52148
				v6.58876h0.60403V49.723c0.80988-0.82324,1.37265-1.23486,2.15517-1.23486c1.07033,0,1.50984,0.6587,1.50984,2.05865v4.14524
				h0.60349v-4.22779C156.6132,48.76254,155.98183,47.93873,154.62314,47.93873z"/>
			<path fill="#FFFFFF" d="M161.51248,54.32169c-1.44124,0-2.38831-1.18079-2.38831-2.91039
				c0-1.74298,1.043-2.93713,2.38831-2.93713c0.64473,0,1.13892,0.30175,1.56448,0.69999l0.35696-0.42556
				c-0.43893-0.41162-1.02963-0.80988-1.93541-0.80988c-1.60577,0-3.00572,1.26276-3.00572,3.47258
				c0,2.1825,1.29008,3.44526,2.99236,3.44526c0.83717,0,1.53716-0.37036,2.09993-0.87848l-0.31569-0.4116
				C162.8165,53.97808,162.21246,54.32169,161.51248,54.32169z"/>
			<path fill="#FFFFFF" d="M167.37277,47.93873c-1.57845,0-2.9511,1.26276-2.9511,3.47258c0,2.1825,1.37265,3.44526,2.9511,3.44526
				c1.59181,0,2.96443-1.26276,2.96443-3.44526C170.3372,49.20148,168.96458,47.93873,167.37277,47.93873z M167.37277,54.32169
				c-1.33136,0-2.31972-1.18079-2.31972-2.91039c0-1.74298,0.98836-2.93713,2.31972-2.93713
				c1.33134,0,2.33305,1.19415,2.33305,2.93713C169.70583,53.14091,168.70412,54.32169,167.37277,54.32169z"/>
			<path fill="#FFFFFF" d="M172.93018,49.32531h-0.04071l-0.05522-1.22205h-0.52151v6.58876h0.60406v-4.48825
				c0.50754-1.23541,1.2081-1.68831,1.7982-1.68831c0.26047,0,0.38429,0.02732,0.60405,0.10989l0.13719-0.54941
				c-0.21976-0.10989-0.41219-0.13721-0.65927-0.13721C174.01501,47.93873,173.36969,48.51546,172.93018,49.32531z"/>
			<path fill="#FFFFFF" d="M178.8457,47.93873c-1.46858,0-2.86853,1.31798-2.86853,3.47258c0,2.15518,1.35869,3.44526,3.047,3.44526
				c0.96101,0,1.55113-0.32907,2.07262-0.64476l-0.24709-0.46684c-0.49416,0.35698-1.05696,0.5901-1.77087,0.5901
				c-1.48195,0-2.45691-1.19415-2.48424-2.85514h4.74928c0.02731-0.16454,0.02731-0.32907,0.02731-0.49419
				C181.37119,49.05091,180.41077,47.93873,178.8457,47.93873z M176.59459,51.01365
				c0.13722-1.57845,1.13951-2.55341,2.26505-2.55341c1.18022,0,1.93542,0.86507,1.93542,2.55341H176.59459z"/>
			<path fill="#FFFFFF" d="M188.74075,47.93873c-0.80986,0-1.59241,0.4808-2.23772,0.98835h-0.04071l-0.05522-0.82382h-0.52151
				v9.56716h0.60405v-2.40166v-1.22207c0.68604,0.50813,1.35869,0.80988,1.97672,0.80988c1.55052,0,2.90977-1.31742,2.90977-3.55515
				C191.37613,49.25671,190.49768,47.93873,188.74075,47.93873z M188.43843,54.32169c-0.50754,0-1.19415-0.23372-1.94879-0.85114
				v-3.9121c0.79591-0.69999,1.49591-1.08428,2.15518-1.08428c1.50984,0,2.086,1.20811,2.086,2.82724
				C190.73082,53.08626,189.77037,54.32169,188.43843,54.32169z"/>
			<path fill="#FFFFFF" d="M194.2435,54.32169c-0.16512,0-0.28836-0.13779-0.28836-0.42558v-9.07299h-0.60405v8.99045
				c0,0.71392,0.2744,1.043,0.80984,1.043c0.19244,0,0.31569-0.02735,0.43951-0.06861l-0.10986-0.49419
				C194.35338,54.32169,194.29816,54.32169,194.2435,54.32169z"/>
			<path fill="#FFFFFF" d="M200.73517,52.96243c-0.76857,0.93368-1.34473,1.3453-2.12726,1.3453
				c-1.05696,0-1.49588-0.6587-1.49588-2.05865v-4.14582h-0.60405v4.22779c0,1.70227,0.63138,2.52551,1.99004,2.52551
				c0.90581,0,1.59241-0.50755,2.23715-1.26276h0.02791l0.06859,1.09822h0.50755v-6.58876h-0.60405V52.96243z"/>
			<path fill="#FFFFFF" d="M205.52457,50.98573c-0.78253-0.28777-1.55112-0.60345-1.55112-1.33134
				c0-0.60348,0.46684-1.19415,1.48251-1.19415c0.67265,0,1.13892,0.26102,1.57845,0.59067l0.32904-0.42556
				c-0.48019-0.39825-1.18018-0.68662-1.88017-0.68662c-1.37262,0-2.12724,0.79649-2.12724,1.75692
				c0,1.12557,1.09764,1.5238,2.09993,1.88078c0.75462,0.2744,1.60576,0.63138,1.60576,1.45462
				c0,0.69996-0.53545,1.30402-1.56448,1.30402c-0.94707,0-1.53775-0.37033-2.10052-0.83718l-0.35637,0.45288
				c0.59009,0.49419,1.44064,0.90581,2.41562,0.90581c1.42729,0,2.22318-0.86452,2.22318-1.85287
				C207.67914,51.71361,206.55418,51.3706,205.52457,50.98573z"/>
			<path fill="#FFFFFF" d="M215.008,47.93873c-0.80984,0-1.59238,0.4808-2.23772,0.98835h-0.04068l-0.05525-0.82382h-0.52148
				v9.56716h0.60405v-2.40166v-1.22207c0.68604,0.50813,1.35869,0.80988,1.97668,0.80988c1.55055,0,2.90981-1.31742,2.90981-3.55515
				C217.6434,49.25671,216.76494,47.93873,215.008,47.93873z M214.7057,54.32169c-0.50755,0-1.19415-0.23372-1.94879-0.85114
				v-3.9121c0.7959-0.69999,1.49588-1.08428,2.15517-1.08428c1.50983,0,2.08598,1.20811,2.08598,2.82724
				C216.99806,53.08626,216.03764,54.32169,214.7057,54.32169z"/>
			<path fill="#FFFFFF" d="M220.23634,49.32531h-0.0407l-0.05524-1.22205h-0.52148v6.58876h0.60403v-4.48825
				c0.50755-1.23541,1.20753-1.68831,1.7982-1.68831c0.26047,0,0.38431,0.02732,0.60406,0.10989l0.13721-0.54941
				c-0.21976-0.10989-0.4122-0.13721-0.65927-0.13721C221.32121,47.93873,220.67587,48.51546,220.23634,49.32531z"/>
			<path fill="#FFFFFF" d="M226.23442,47.93873c-1.57843,0-2.95108,1.26276-2.95108,3.47258
				c0,2.1825,1.37265,3.44526,2.95108,3.44526c1.59183,0,2.96445-1.26276,2.96445-3.44526
				C229.19887,49.20148,227.82625,47.93873,226.23442,47.93873z M226.23442,54.32169c-1.33134,0-2.31969-1.18079-2.31969-2.91039
				c0-1.74298,0.98834-2.93713,2.31969-2.93713c1.33136,0,2.33307,1.19415,2.33307,2.93713
				C228.56749,53.14091,227.56578,54.32169,226.23442,54.32169z"/>
			<path fill="#FFFFFF" d="M233.64526,54.32169c-1.44125,0-2.38832-1.18079-2.38832-2.91039
				c0-1.74298,1.043-2.93713,2.38832-2.93713c0.64474,0,1.1389,0.30175,1.56448,0.69999l0.35698-0.42556
				c-0.43895-0.41162-1.02963-0.80988-1.93542-0.80988c-1.60576,0-3.00571,1.26276-3.00571,3.47258
				c0,2.1825,1.29007,3.44526,2.99236,3.44526c0.83717,0,1.53716-0.37036,2.09993-0.87848l-0.31569-0.4116
				C234.94928,53.97808,234.34523,54.32169,233.64526,54.32169z"/>
			<path fill="#FFFFFF" d="M240.21892,47.93873c-0.90581,0-1.59241,0.50813-2.27843,1.19415v-1.45459v-2.85516h-0.60406v9.86891
				h0.60406V49.723c0.80984-0.82324,1.37262-1.23486,2.15517-1.23486c1.0703,0,1.50984,0.6587,1.50984,2.05865v4.14524h0.60345
				v-4.22779C242.20895,48.76254,241.57758,47.93873,240.21892,47.93873z"/>
			<path fill="#FFFFFF" d="M246.90244,47.93873c-1.46855,0-2.86853,1.31798-2.86853,3.47258
				c0,2.15518,1.35869,3.44526,3.047,3.44526c0.96103,0,1.55113-0.32907,2.07262-0.64476l-0.24709-0.46684
				c-0.49416,0.35698-1.05693,0.5901-1.77087,0.5901c-1.48192,0-2.45691-1.19415-2.48424-2.85514h4.7493
				c0.02733-0.16454,0.02733-0.32907,0.02733-0.49419C249.42795,49.05091,248.4675,47.93873,246.90244,47.93873z
				 M244.65132,51.01365c0.13722-1.57845,1.13951-2.55341,2.26508-2.55341c1.18019,0,1.93539,0.86507,1.93539,2.55341H244.65132z"/>
			<path fill="#FFFFFF" d="M16.96688,3.98839c7.42227,0,13.46095,6.03843,13.46095,13.46096h2.47087
				c0-8.78488-7.14694-15.93182-15.93182-15.93182S1.03506,8.66447,1.03506,17.44935V47.6886
				c0,8.78488,7.14694,15.93182,15.93182,15.93182S32.8987,56.47348,32.8987,47.6886h-2.47087
				c0,7.42253-6.03868,13.46096-13.46095,13.46096S3.50592,55.11113,3.50592,47.6886V33.78674h13.03803v-2.47087H3.50592V17.44935
				C3.50592,10.02682,9.54461,3.98839,16.96688,3.98839z"/>
		</g>
	</g>
</g>
<g id="illustration_72_x25_">
	<g id="Calque_73">
	</g>
	<g id="Calque_74">
	</g>
</g>
</svg>
