<?xml version="1.0" encoding="utf-8"?>
<!-- Generator: Adobe Illustrator 20.0.0, SVG Export Plug-In . SVG Version: 6.00 Build 0)  -->
<svg version="1.1" xmlns="http://www.w3.org/2000/svg" xmlns:xlink="http://www.w3.org/1999/xlink" x="0px" y="0px"
	 viewBox="0 0 172.60455 172.60455" enable-background="new 0 0 172.60455 172.60455" xml:space="preserve">
<g id="Calque_1">
</g>
<g id="garanties">
	<g id="responsive">
		<circle fill="#F5F5F5" cx="88.28525" cy="86.28525" r="82.65264"/>
		<g id="XMLID_26_">
			<path fill="#00A071" d="M143.93079,99.82779H62.9613c-0.82371,0-1.49157-0.66785-1.49157-1.49157
				s0.66786-1.49158,1.49157-1.49158h80.96949c0.82372,0,1.49158,0.66786,1.49158,1.49158S144.7545,99.82779,143.93079,99.82779z"/>
		</g>
		<g id="XMLID_25_">
			<path fill="#00A071" d="M107.83409,125.81268h-21.323c-0.44026,0-0.85831-0.19482-1.14162-0.53166
				c-0.28368-0.3372-0.40349-0.7822-0.32774-1.21627l2.91068-16.68551c0.12453-0.7141,0.74432-1.23521,1.46935-1.23521h15.50165
				c0.72503,0,1.34482,0.5211,1.46936,1.23521l2.91068,16.68551c0.07574,0.43407-0.04406,0.87907-0.32774,1.21627
				C108.6924,125.61786,108.27435,125.81268,107.83409,125.81268z M88.28525,122.82954h17.77469l-2.3903-13.70236H90.67555
				L88.28525,122.82954z"/>
		</g>
		<g id="XMLID_24_">
			<path fill="#00A071" d="M112.17808,125.81268H82.27745c-0.82372,0-1.49158-0.66785-1.49158-1.49157
				s0.66786-1.49157,1.49158-1.49157h29.90063c0.82372,0,1.49157,0.66785,1.49157,1.49157S113.00179,125.81268,112.17808,125.81268z
				"/>
		</g>
		<g id="XMLID_22_">
			<path fill="#00A071" d="M61.90453,125.50315H30.1489c-1.40527,0-2.54871-1.14344-2.54871-2.54871V69.69228
				c0-1.40527,1.14344-2.54871,2.54871-2.54871h31.75563c1.40527,0,2.54835,1.14344,2.54835,2.54871v53.26215
				C64.45287,124.35971,63.30979,125.50315,61.90453,125.50315z M30.58333,122.52h30.88639V70.12672H30.58333V122.52z"/>
		</g>
		<g id="XMLID_21_">
			<path fill="#00A071" d="M44.439,75.9539h-9.52589c-0.82372,0-1.49157-0.66785-1.49157-1.49157s0.66786-1.49157,1.49157-1.49157
				H44.439c0.82372,0,1.49157,0.66785,1.49157,1.49157S45.26272,75.9539,44.439,75.9539z"/>
		</g>
		<g id="XMLID_20_">
			<path fill="#00A071" d="M51.45114,77.27686c-1.55202,0-2.81454-1.26252-2.81454-2.81454
				c0-1.55202,1.26252-2.81454,2.81454-2.81454c1.55202,0,2.81454,1.26252,2.81454,2.81454
				C54.26568,76.01434,53.00316,77.27686,51.45114,77.27686z M51.45114,74.29372c-0.09286,0-0.1686,0.07574-0.1686,0.1686
				s0.07574,0.1686,0.1686,0.1686c0.09286,0,0.16861-0.07574,0.16861-0.1686S51.544,74.29372,51.45114,74.29372z"/>
		</g>
		<g id="XMLID_13_">
			<path fill="#00A071" d="M46.44549,122.15221c-1.92892,0-3.49806-1.56913-3.49806-3.49805
				c0-1.92892,1.56914-3.49805,3.49806-3.49805s3.49842,1.56914,3.49842,3.49805
				C49.94391,120.58308,48.37441,122.15221,46.44549,122.15221z M46.44549,118.13924c-0.28404,0-0.51491,0.23087-0.51491,0.51492
				s0.23087,0.51492,0.51491,0.51492s0.51528-0.23087,0.51528-0.51492S46.72953,118.13924,46.44549,118.13924z"/>
		</g>
		<g id="XMLID_1_">
			<path fill="#00A071" d="M140.93016,109.22695H62.9613c-0.82371,0-1.49157-0.66785-1.49157-1.49157
				s0.66786-1.49158,1.49157-1.49158h77.96886c0.83209,0,1.50906-0.67696,1.50906-1.50868v-53.788
				c0-0.83173-0.67697-1.50869-1.50906-1.50869H51.45223c-0.83173,0-1.50832,0.67696-1.50832,1.50869v17.34389
				c0,0.82372-0.66786,1.49158-1.49157,1.49158s-1.49157-0.66786-1.49157-1.49158V50.94712
				c0-2.47697,2.01486-4.49183,4.49147-4.49183h89.47793c2.47697,0,4.4922,2.01486,4.4922,4.49183v53.788
				C145.42236,107.21209,143.40714,109.22695,140.93016,109.22695z"/>
		</g>
	</g>
	<g id="référencement">
	</g>
	<g id="support_technique">
	</g>
	<g id="données_cryptées">
	</g>
	<g id="ars">
	</g>
	<g id="paiement">
	</g>
	<g id="hébergement">
	</g>
</g>
<g id="raisons">
	<g id="cout">
	</g>
	<g id="accompagnement">
	</g>
	<g id="satisfaction">
	</g>
	<g id="fidélisation">
	</g>
	<g id="expertise">
	</g>
	<g id="proximité">
	</g>
</g>
<g id="objectifs">
	<g id="augmenter">
	</g>
	<g id="gagner">
	</g>
	<g id="simplifier">
	</g>
	<g id="aider">
	</g>
	<g id="innover">
	</g>
	<g id="connecter">
	</g>
</g>
</svg>
