<?xml version="1.0" encoding="utf-8"?>
<!-- Generator: Adobe Illustrator 20.0.0, SVG Export Plug-In . SVG Version: 6.00 Build 0)  -->
<svg version="1.1" xmlns="http://www.w3.org/2000/svg" xmlns:xlink="http://www.w3.org/1999/xlink" x="0px" y="0px"
	 viewBox="0 0 172.60455 172.60455" enable-background="new 0 0 172.60455 172.60455" xml:space="preserve">
<g id="Calque_1">
</g>
<g id="garanties">
	<g id="responsive">
	</g>
	<g id="référencement">
	</g>
	<g id="support_technique">
	</g>
	<g id="données_cryptées">
	</g>
	<g id="ars">
	</g>
	<g id="paiement">
	</g>
	<g id="hébergement">
		<circle fill="#F5F5F5" cx="85.67809" cy="86.3512" r="82.65264"/>
		<g id="XMLID_105_">
			<path fill="#00A071" d="M76.28834,81.50977c-0.92902,0-1.73313-0.69341-1.84858-1.63881l-1.01825-8.33499
				c-0.45194-1.83801-0.10233-5.47435,4.31226-7.13974c0.96362-0.36309,2.03941,0.12345,2.40286,1.08671
				c0.36308,0.96362-0.12309,2.03941-1.08672,2.40286c-2.21712,0.83616-2.13227,2.24553-1.99279,2.81256
				c0.03933,0.11763,0.03569,0.13583,0.05062,0.25893l1.03354,8.46136c0.12492,1.02225-0.60235,1.952-1.6246,2.07692
				C76.43983,81.50503,76.36372,81.50977,76.28834,81.50977z"/>
		</g>
		<g id="XMLID_104_">
			<g>
				<path fill="#00A071" d="M78.64531,68.37416c-0.63477,0-1.18905-0.46251-1.28847-1.10602l-0.25493-1.64937
					c-0.0539-0.34779,0.03532-0.7025,0.24692-0.98365c0.21159-0.28151,0.52769-0.46542,0.87695-0.51022l1.61185-0.20685
					c0.05608-0.00729,0.11217-0.01056,0.16753-0.01056c0.63477,0,1.18905,0.46251,1.28847,1.10601l0.25493,1.64973
					c0.05389,0.34779-0.03533,0.70251-0.24692,0.98402c-0.21159,0.28115-0.52806,0.46506-0.87731,0.50985l-1.61185,0.2065
					C78.75639,68.37088,78.70066,68.37416,78.64531,68.37416z"/>
			</g>
			<g>
				<g>
					<path fill="#00A071" d="M80.00388,65.21276l0.25474,1.64958l-1.61185,0.20673l-0.25493-1.64958L80.00388,65.21276
						 M80.00697,62.60205c-0.11071,0-0.22251,0.00703-0.33522,0.02147l-1.61205,0.20673
						c-0.69814,0.08956-1.33071,0.45734-1.75389,1.01993c-0.42318,0.56258-0.60126,1.27225-0.49383,1.96799l0.25493,1.64958
						c0.19884,1.28671,1.30777,2.21202,2.57675,2.21202c0.11071,0,0.22251-0.00703,0.33523-0.02147l1.61186-0.20673
						c0.69813-0.08955,1.33071-0.45731,1.75389-1.01982c0.42317-0.56252,0.60126-1.27212,0.49383-1.96782l-0.25475-1.64958
						C82.38507,63.52753,81.27615,62.60205,80.00697,62.60205L80.00697,62.60205z"/>
				</g>
			</g>
		</g>
		<g id="XMLID_103_">
			<path fill="#00A071" d="M83.60326,92.07025c-0.01821,0-0.03642-0.00037-0.05463-0.00073
				c-6.41539-0.18464-7.43909-3.57661-7.77524-4.691c-0.00947-0.03059-0.01748-0.05863-0.02549-0.08376
				c-0.11982-0.28734-0.39805-1.19925-1.31615-7.4402c-0.15004-1.01861,0.55428-1.9662,1.57326-2.11588
				c1.01752-0.15222,1.96657,0.55428,2.11588,1.57326c0.40205,2.73026,0.9283,5.98748,1.09618,6.61205
				c0.05208,0.1311,0.08958,0.25565,0.12637,0.37692c0.18937,0.62785,0.58341,1.93343,4.31225,2.04086
				c1.02954,0.0295,1.83984,0.88824,1.81034,1.91741C85.4369,91.27051,84.60802,92.07025,83.60326,92.07025z"/>
		</g>
		<g id="XMLID_102_">
			<path fill="#00A071" d="M93.40843,81.50977c-0.07539,0-0.1515-0.00474-0.22834-0.01421
				c-1.02189-0.12455-1.74952-1.05466-1.62461-2.07692l1.03318-8.46136c0.01493-0.12309,0.02076-0.1748,0.05972-0.29243
				c0.13038-0.53352,0.2156-1.94289-2.00189-2.77905c-0.96362-0.36346-1.4498-1.43924-1.08672-2.40286
				c0.36382-0.96289,1.44033-1.44907,2.40286-1.08671c4.41459,1.66503,4.7642,5.30173,4.31225,7.13974l-1.01788,8.33499
				C95.14156,80.81636,94.33746,81.50977,93.40843,81.50977z"/>
		</g>
		<g id="XMLID_101_">
			<g>
				<path fill="#00A071" d="M91.05146,68.37416c-0.05536,0-0.11108-0.00328-0.16716-0.01056l-1.61222-0.2065
					c-0.34925-0.04479-0.66573-0.2287-0.87731-0.50985c-0.21159-0.28151-0.30081-0.63622-0.24692-0.98402l0.25493-1.64973
					c0.09942-0.6435,0.6537-1.10601,1.28847-1.10601c0.05536,0,0.11108,0.00328,0.16753,0.01056l1.61185,0.20685
					c0.34925,0.04479,0.66536,0.22871,0.87695,0.50985c0.21159,0.28115,0.30045,0.63622,0.24692,0.98402l-0.25456,1.64937
					C92.24051,67.91129,91.68623,68.37416,91.05146,68.37416z"/>
			</g>
			<g>
				<g>
					<path fill="#00A071" d="M89.69289,65.21276l1.61186,0.20673l-0.25493,1.64958l-1.61186-0.20673L89.69289,65.21276
						 M89.68979,62.60205c-1.26917,0-2.37791,0.92522-2.57675,2.21202l-0.25493,1.64958
						c-0.10743,0.69574,0.07047,1.4054,0.49383,1.96799c0.42318,0.56258,1.05558,0.93037,1.75389,1.01994l1.61186,0.20673
						c0.11253,0.01443,0.22452,0.02147,0.33523,0.02147c1.26917,0,2.37791-0.92522,2.57675-2.21202l0.25493-1.64958
						c0.10743-0.69573-0.07047-1.4054-0.49383-1.96798c-0.42318-0.56258-1.05558-0.93037-1.75389-1.01994l-1.61186-0.20673
						C89.91248,62.6091,89.8005,62.60205,89.68979,62.60205L89.68979,62.60205z"/>
				</g>
			</g>
		</g>
		<g id="XMLID_100_">
			<path fill="#00A071" d="M86.0946,92.07025h-2.86063c-1.0299,0-1.86459-0.8347-1.86459-1.8646s0.83469-1.8646,1.86459-1.8646
				h2.83296c3.70516-0.11253,4.09738-1.41375,4.28603-2.03977c0.03679-0.12127,0.0743-0.24619,0.12674-0.37766
				c0.16788-0.62384,0.69412-3.88143,1.09618-6.61169c0.14968-1.01897,1.09946-1.72621,2.11589-1.57326
				c1.01897,0.14968,1.7233,1.09727,1.57326,2.11588c-0.91773,6.23768-1.1967,7.1525-1.31651,7.43983
				c-0.00764,0.02477-0.01566,0.0528-0.02513,0.08303c-0.33577,1.11512-1.35875,4.50745-7.77524,4.69209
				C86.13029,92.06989,86.11245,92.07025,86.0946,92.07025z"/>
		</g>
		<g id="XMLID_99_">
			<path fill="#00A071" d="M68.47522,121.51674c-3.48957,0-6.32872-2.83878-6.32872-6.32835s2.83915-6.32872,6.32872-6.32872
				s6.32835,2.83915,6.32835,6.32872S71.96479,121.51674,68.47522,121.51674z M68.47522,112.21595
				c-1.63917,0-2.97243,1.33326-2.97243,2.97243c0,1.63881,1.33327,2.97207,2.97243,2.97207
				c1.63881,0,2.97208-1.33326,2.97208-2.97207C71.4473,113.54921,70.11403,112.21595,68.47522,112.21595z"/>
		</g>
		<g id="XMLID_98_">
			<path fill="#00A071" d="M47.15759,117.7056c-6.54649,0-11.84021-2.03577-15.7333-6.05048
				c-7.03231-7.25191-6.89028-18.33136-6.86989-19.14093c0.01202-12.09004,8.69771-22.38358,20.44469-24.5348
				c0.854-5.6823,4.29696-10.60637,9.4217-13.36613c5.08504-2.73827,11.01462-2.94694,16.18088-0.63695
				c7.90525-11.32527,21.48151-16.46384,35.05886-13.12796c13.75143,3.37886,23.4754,14.41242,25.06905,28.29313
				c9.75528,3.6367,16.22421,12.88796,16.22421,23.39855c0,13.77328-11.20509,24.97837-24.978,24.97837
				c-0.07138,0.00146-10.44067,0.18536-17.39979,0.18719c-0.29243,0.03059-1.03609,0.09541-2.08238,0.09541
				c-3.2117,0-9.27566-0.61-13.89127-4.69173c-3.89162-3.44186-5.86475-8.53091-5.86475-15.12657v-7.77706
				c0-1.0299,0.8347-1.8646,1.8646-1.8646s1.8646,0.8347,1.8646,1.8646v7.77706c0,5.46961,1.5434,9.61325,4.58758,12.31656
				c5.16479,4.58648,13.11448,3.69934,13.19387,3.6906c0.0732-0.00874,0.15077-0.01347,0.22433-0.01347
				c6.92597,0,17.36519-0.18501,17.47007-0.18682c11.7499-0.00037,21.28194-9.53278,21.28194-21.24953
				c0-9.29568-5.94778-17.43365-14.80028-20.25022c-0.72216-0.2298-1.23347-0.87366-1.29356-1.62934
				c-1.01824-12.82277-9.79498-23.1032-22.35991-26.19072c-9.98436-2.45238-23.61816-0.34961-31.95096,12.90836
				c-0.53024,0.84307-1.62897,1.12094-2.49645,0.63076c-4.38108-2.47679-9.6646-2.5194-14.13455-0.11217
				c-4.43607,2.38866-7.28942,6.81344-7.63284,11.83621c-0.06082,0.89188-0.7462,1.61514-1.63371,1.72366
				c-10.62568,1.30121-18.63872,10.36528-18.63872,21.08346c0,0.01894-0.00036,0.03824-0.00073,0.05717
				c-0.00291,0.09943-0.21377,10.25895,5.83452,16.47805c3.16254,3.25213,7.55018,4.90113,13.04019,4.90113h16.55635
				c1.02953,0,1.8646,0.8347,1.8646,1.8646s-0.83507,1.8646-1.8646,1.8646h-0.64314"/>
		</g>
	</g>
</g>
<g id="raisons">
	<g id="cout">
	</g>
	<g id="accompagnement">
	</g>
	<g id="satisfaction">
	</g>
	<g id="fidélisation">
	</g>
	<g id="expertise">
	</g>
	<g id="proximité">
	</g>
</g>
<g id="objectifs">
	<g id="augmenter">
	</g>
	<g id="gagner">
	</g>
	<g id="simplifier">
	</g>
	<g id="aider">
	</g>
	<g id="innover">
	</g>
	<g id="connecter">
	</g>
</g>
</svg>
