<?xml version="1.0" encoding="utf-8"?>
<!-- Generator: Adobe Illustrator 20.0.0, SVG Export Plug-In . SVG Version: 6.00 Build 0)  -->
<svg version="1.1" xmlns="http://www.w3.org/2000/svg" xmlns:xlink="http://www.w3.org/1999/xlink" x="0px" y="0px"
	 viewBox="0 0 172.60455 172.60455" enable-background="new 0 0 172.60455 172.60455" xml:space="preserve">
<g id="Calque_1">
</g>
<g id="garanties">
	<g id="responsive">
	</g>
	<g id="référencement">
	</g>
	<g id="support_technique">
	</g>
	<g id="données_cryptées">
		<circle fill="#F5F5F5" cx="85.95191" cy="86.66286" r="82.65264"/>
		<g id="base_1_">
			<path fill="#00A071" d="M118.63489,137.32674H54.07443c-3.21532,0-5.83128-2.61595-5.83128-5.83127V88.4147
				c0-3.21532,2.61596-5.83128,5.83128-5.83128h64.56046c3.21532,0,5.83128,2.61596,5.83128,5.83128v43.08076
				C124.46616,134.71078,121.8502,137.32674,118.63489,137.32674z M54.07443,85.49906c-1.60766,0-2.91564,1.30798-2.91564,2.91564
				v43.08076c0,1.60765,1.30798,2.91563,2.91564,2.91563h64.56046c1.60766,0,2.91563-1.30798,2.91563-2.91563V88.4147
				c0-1.60766-1.30798-2.91564-2.91563-2.91564H54.07443z"/>
		</g>
		<g id="XMLID_97_">
			<path fill="#00A071" d="M115.17612,85.49906h-10.09547c-0.38902,0-0.76201-0.15553-1.03606-0.43208
				c-0.2737-0.27654-0.42567-0.65132-0.42175-1.04034c0.00214-0.19682,0.19468-19.72433,0.00107-24.46046
				c-0.02954-0.72678-0.91292-17.79778-17.18455-17.81486C69.20358,41.76627,68.95123,58.7846,68.9491,59.50924v24.53201
				c0,0.80508-0.65275,1.45782-1.45782,1.45782H57.48656c-0.80507,0-1.45782-0.65274-1.45782-1.45782V58.24788
				c-0.02242-0.80258-0.20358-12.64843,8.11909-21.2601c5.50098-5.69176,13.38125-8.58426,23.4244-8.59636
				c0.0121-0.00036,0.02349-0.00036,0.0331-0.00036l0.03345,0.00036c7.61191,0.01459,14.78533,3.08149,20.19912,8.63623
				c5.67218,5.81989,8.79603,13.908,8.79603,22.77486v24.23874C116.63394,84.84632,115.9812,85.49906,115.17612,85.49906z
				 M106.552,82.58343h7.16631V59.80251c0-17.80561-13.26238-28.47089-26.08414-28.49545c-0.00961,0-0.01922,0-0.02918-0.00036
				c-9.24875,0.00997-16.42787,2.60315-21.36047,7.70729c-7.58557,7.84895-7.30476,19.0513-7.30084,19.16342
				c0.00036,0.01601,0.00071,0.03239,0.00071,0.0484v24.35761h7.08907V59.50675c0-0.20643,0.23384-20.65363,20.40591-20.67106
				c7.09441,0.00747,12.72353,2.93735,16.28266,8.47286c2.61382,4.06524,3.68477,8.93626,3.81538,12.13877
				C106.70433,63.53817,106.594,77.88858,106.552,82.58343z"/>
		</g>
		<g id="serrure_1_">
			<path fill="#00A071" d="M90.70854,125.26592h-8.70776c-0.40788,0-0.79725-0.17085-1.07343-0.47123
				c-0.27583-0.30039-0.41357-0.70293-0.37905-1.10938l0.98908-11.70455c-2.23158-1.56139-3.58298-4.11862-3.58298-6.88264
				c0-4.63184,3.76841-8.40025,8.40026-8.40025c4.6322,0,8.40061,3.76841,8.40061,8.40025c0,2.84517-1.40942,5.43977-3.73744,6.988
				l1.14141,11.57891c0.04057,0.40965-0.09396,0.81718-0.37051,1.12219C91.51255,125.09188,91.11997,125.26592,90.70854,125.26592z
				 M83.58708,122.35028h5.51273l-1.07521-10.90766c-0.05908-0.59936,0.25661-1.17345,0.7944-1.44465
				c1.8632-0.93961,3.02063-2.81705,3.02063-4.89986c0-3.02419-2.46043-5.48461-5.48497-5.48461
				c-3.02419,0-5.48462,2.46043-5.48462,5.48461c0,2.02052,1.10618,3.87198,2.88681,4.83152
				c0.51109,0.27547,0.81006,0.82785,0.76094,1.40621L83.58708,122.35028z"/>
		</g>
	</g>
	<g id="ars">
	</g>
	<g id="paiement">
	</g>
	<g id="hébergement">
	</g>
</g>
<g id="raisons">
	<g id="cout">
	</g>
	<g id="accompagnement">
	</g>
	<g id="satisfaction">
	</g>
	<g id="fidélisation">
	</g>
	<g id="expertise">
	</g>
	<g id="proximité">
	</g>
</g>
<g id="objectifs">
	<g id="augmenter">
	</g>
	<g id="gagner">
	</g>
	<g id="simplifier">
	</g>
	<g id="aider">
	</g>
	<g id="innover">
	</g>
	<g id="connecter">
	</g>
</g>
</svg>
