<?xml version="1.0" encoding="utf-8"?>
<!-- Generator: Adobe Illustrator 20.0.0, SVG Export Plug-In . SVG Version: 6.00 Build 0)  -->
<svg version="1.1" xmlns="http://www.w3.org/2000/svg" xmlns:xlink="http://www.w3.org/1999/xlink" x="0px" y="0px"
	 viewBox="0 0 172.60455 172.60455" enable-background="new 0 0 172.60455 172.60455" xml:space="preserve">
<g id="Calque_1">
</g>
<g id="garanties">
	<g id="responsive">
	</g>
	<g id="référencement">
	</g>
	<g id="support_technique">
	</g>
	<g id="données_cryptées">
	</g>
	<g id="ars">
	</g>
	<g id="paiement">
		<circle fill="#F5F5F5" cx="86.61858" cy="86.18446" r="82.65264"/>
		<g id="XMLID_95_">
			<g id="XMLID_96_">
				<path fill="#00A071" d="M132.23184,122.39724h-91.2265c-4.85886,0-8.81165-3.95279-8.81165-8.81165V63.04818
					c0-4.85886,3.95279-8.81165,8.81165-8.81165h91.2265c4.85886,0,8.81165,3.95279,8.81165,8.81165v50.53741
					C141.04349,118.44445,137.0907,122.39724,132.23184,122.39724z M41.00534,56.30986c-3.71564,0-6.73832,3.02268-6.73832,6.73832
					v50.53741c0,3.71564,3.02267,6.73832,6.73832,6.73832h91.2265c3.71564,0,6.73831-3.02267,6.73831-6.73832V63.04818
					c0-3.71564-3.02267-6.73832-6.73831-6.73832H41.00534z"/>
			</g>
		</g>
		<g id="XMLID_94_">
			<rect x="57.29211" y="77.01894" fill="#00A071" width="5.22401" height="4.17905"/>
		</g>
		<g id="XMLID_93_">
			<rect x="43.42413" y="100.49784" fill="#00A071" width="15.46367" height="4.92416"/>
		</g>
		<g id="XMLID_92_">
			<rect x="43.42413" y="77.01894" fill="#00A071" width="5.21572" height="4.17905"/>
		</g>
		<g id="XMLID_91_">
			<path fill="#00A071" d="M46.79329,87.62608h1.84656v-4.61393h-5.21572v1.24477
				C43.42413,86.11774,44.93248,87.62608,46.79329,87.62608z"/>
		</g>
		<g id="XMLID_90_">
			<path fill="#00A071" d="M48.63985,70.348h-1.84656c-1.86081,0-3.36916,1.50835-3.36916,3.36916v1.48761h5.21572V70.348z"/>
		</g>
		<g id="XMLID_89_">
			<path fill="#00A071" d="M59.14696,70.348h-8.69295v17.27808h5.02394V75.20477h7.03817v-1.48761
				C62.51612,71.85635,61.00777,70.348,59.14696,70.348z"/>
		</g>
		<g id="XMLID_88_">
			<path fill="#00A071" d="M57.29211,87.62608h1.85485c1.86081,0,3.36916-1.50835,3.36916-3.36916v-1.24477h-5.22401V87.62608z"/>
		</g>
		<g id="XMLID_87_">
			<rect x="111.58483" y="100.49784" fill="#00A071" width="15.46392" height="4.92416"/>
		</g>
		<g id="XMLID_86_">
			<circle fill="#00A071" cx="117.80489" cy="78.98711" r="9.15725"/>
		</g>
		<g id="XMLID_85_">
			<path fill="#00A071" d="M109.71366,71.21103c-1.4034-0.87444-3.05947-1.3811-4.83475-1.3811
				c-5.05737,0-9.15712,4.09975-9.15712,9.15712c0,5.05736,4.09975,9.15737,9.15712,9.15737
				c1.77528,0,3.43136-0.50668,4.83475-1.38134c-1.94169-2.01969-3.13929-4.75986-3.13929-7.77603
				S107.77197,73.23071,109.71366,71.21103z"/>
		</g>
		<g id="XMLID_84_">
			<rect x="88.90779" y="100.49784" fill="#00A071" width="15.46392" height="4.92416"/>
		</g>
		<g id="XMLID_83_">
			<rect x="66.23075" y="100.49784" fill="#00A071" width="15.46367" height="4.92416"/>
		</g>
		<g id="XMLID_82_">
			<path fill="#00A071" d="M43.42413,73.71716c0-1.86081,1.50835-3.36916,3.36916-3.36916h1.84656v4.85677h-5.21572V73.71716z"/>
		</g>
		<g id="XMLID_81_">
			<rect x="43.42413" y="77.01894" fill="#00A071" width="5.21572" height="4.17905"/>
		</g>
		<g id="XMLID_80_">
			<path fill="#00A071" d="M43.42413,83.01215h5.21572v4.61393h-1.84656c-1.86081,0-3.36916-1.50835-3.36916-3.36916V83.01215z"/>
		</g>
		<g id="XMLID_79_">
			<rect x="43.42413" y="100.49784" fill="#00A071" width="15.46367" height="4.92416"/>
		</g>
		<g id="XMLID_78_">
			<path fill="#00A071" d="M62.51612,84.25693c0,1.86081-1.50835,3.36916-3.36916,3.36916h-1.85485v-4.61393h5.22401V84.25693z"/>
		</g>
		<g id="XMLID_77_">
			<rect x="57.29211" y="77.01894" fill="#00A071" width="5.22401" height="4.17905"/>
		</g>
		<g id="XMLID_69_">
			<path fill="#00A071" d="M62.51612,75.20477h-7.03817v12.42131h-5.02394V70.348h8.69295
				c1.86081,0,3.36916,1.50835,3.36916,3.36916V75.20477z"/>
		</g>
		<g id="XMLID_50_">
			<rect x="66.23075" y="100.49784" fill="#00A071" width="15.46367" height="4.92416"/>
		</g>
		<g id="XMLID_49_">
			<rect x="88.90779" y="100.49784" fill="#00A071" width="15.46392" height="4.92416"/>
		</g>
		<g id="XMLID_48_">
			<path fill="#00A071" d="M104.87891,88.14442c-5.05737,0-9.15712-4.10001-9.15712-9.15737
				c0-5.05737,4.09975-9.15712,9.15712-9.15712c1.77528,0,3.43136,0.50667,4.83475,1.3811
				c-1.94169,2.01968-3.13929,4.75984-3.13929,7.77602s1.1976,5.75634,3.13929,7.77603
				C108.31026,87.63774,106.65419,88.14442,104.87891,88.14442z"/>
		</g>
		<g id="XMLID_47_">
			<circle fill="#00A071" cx="117.80489" cy="78.98711" r="9.15725"/>
		</g>
		<g id="XMLID_46_">
			<rect x="111.58483" y="100.49784" fill="#00A071" width="15.46392" height="4.92416"/>
		</g>
	</g>
	<g id="hébergement">
	</g>
</g>
<g id="raisons">
	<g id="cout">
	</g>
	<g id="accompagnement">
	</g>
	<g id="satisfaction">
	</g>
	<g id="fidélisation">
	</g>
	<g id="expertise">
	</g>
	<g id="proximité">
	</g>
</g>
<g id="objectifs">
	<g id="augmenter">
	</g>
	<g id="gagner">
	</g>
	<g id="simplifier">
	</g>
	<g id="aider">
	</g>
	<g id="innover">
	</g>
	<g id="connecter">
	</g>
</g>
</svg>
