<?xml version="1.0" encoding="utf-8"?>
<!-- Generator: Adobe Illustrator 20.0.0, SVG Export Plug-In . SVG Version: 6.00 Build 0)  -->
<svg version="1.1" xmlns="http://www.w3.org/2000/svg" xmlns:xlink="http://www.w3.org/1999/xlink" x="0px" y="0px"
	 viewBox="0 0 172.60455 172.60455" enable-background="new 0 0 172.60455 172.60455" xml:space="preserve">
<g id="Calque_1">
</g>
<g id="garanties">
	<g id="responsive">
	</g>
	<g id="référencement">
	</g>
	<g id="support_technique">
	</g>
	<g id="données_cryptées">
	</g>
	<g id="ars">
		<circle fill="#F5F5F5" cx="85.95191" cy="86.2854" r="82.65264"/>
		<path fill="#00A071" d="M35.9187,72.80266l-5.88672-3.16567c0,0,4.81964-10.73007,19.09479-10.35067
			s15.82375,11.02789,15.82375,11.02789s0.34843,0.26537,0.34843,7.94241c0,6.4499,0,15.93505,0,15.93505h-6.78188V82.71464
			c0,0-12.47297,2.27644-18.11664,6.02307c-3.5095,2.37128-4.17347,4.55287-4.50544,5.45396c-1.04337,0-7.11386,0-7.11386,0
			s0.1897-4.97971,4.93228-8.67892c4.74258-3.6992,9.3903-5.78594,24.75624-8.58406c0-3.3198,0-4.26832,0-4.26832
			s0.1897-4.6003-5.12198-6.73445c-2.18158-0.75881-7.69678-1.68333-12.37812,1.09079
			C36.96799,69.388,35.9187,72.80266,35.9187,72.80266z"/>
		<path fill="#00A071" d="M79.05241,70.22729V60.05447h-6.82931v33.98054h6.82931V82.32086
			c1.56505-4.90856,2.63213-8.4655,6.54475-12.37812c3.91263-3.91263,9.60371-3.69921,9.60371-3.69921v-6.75817
			C83.88984,58.56056,79.05241,70.22729,79.05241,70.22729z"/>
		<path fill="#00A071" d="M141.32706,98.89845c-2.69403-5.38802-10.37053-8.61514-15.47737-10.22791l0.02025-0.06329
			c0,0-0.33426-0.07378-0.90205-0.20818c-2.33813-0.69672-3.95361-1.01452-3.95361-1.01452
			c-3.78786-1.04499-8.80403-2.65106-11.27961-4.39149c-4.89883-3.44408-5.47086-8.06086-2.98101-12.61411
			c2.61053-4.7739,11.31104-7.37469,18.49604-4.19718c5.99937,2.561,9.46144,8.1098,9.46144,8.1098l5.47768-3.98376
			c0,0-4.45801-8.03756-14.01431-10.45738c-8.89813-2.25313-18.4249-1.14426-23.7603,4.83742
			c-4.12132,4.42724-5.40935,10.87626-3.20124,17.07327c2.2053,6.18906,8.18095,9.10574,18.85174,11.73788l0.00108,0.00027
			c0.01494,0.00382,0.25093,0.06364,3.94486,1.00063c0.01889,0.0049,0.03779,0.00983,0.0563,0.01462
			c3.96098,1.00817,9.0238,2.87594,11.57715,6.09125c4.93225,6.54475,1.99188,14.98656-7.39841,17.83211
			c-17.35783,3.41465-24.18713-9.95941-24.18713-9.95941l-5.31171,3.69921c1.70733,2.46613,3.785,5.02,7.77783,8.15722
			c5.31168,4.17345,20.01368,7.77782,29.78336,1.42277C144.07774,115.40262,144.5712,105.38676,141.32706,98.89845z"/>
	</g>
	<g id="paiement">
	</g>
	<g id="hébergement">
	</g>
</g>
<g id="raisons">
	<g id="cout">
	</g>
	<g id="accompagnement">
	</g>
	<g id="satisfaction">
	</g>
	<g id="fidélisation">
	</g>
	<g id="expertise">
	</g>
	<g id="proximité">
	</g>
</g>
<g id="objectifs">
	<g id="augmenter">
	</g>
	<g id="gagner">
	</g>
	<g id="simplifier">
	</g>
	<g id="aider">
	</g>
	<g id="innover">
	</g>
	<g id="connecter">
	</g>
</g>
</svg>
