<?xml version="1.0" encoding="utf-8"?>
<!-- Generator: Adobe Illustrator 20.0.0, SVG Export Plug-In . SVG Version: 6.00 Build 0)  -->
<svg version="1.1" xmlns="http://www.w3.org/2000/svg" xmlns:xlink="http://www.w3.org/1999/xlink" x="0px" y="0px"
	 viewBox="0 0 172.60455 172.60455" enable-background="new 0 0 172.60455 172.60455" xml:space="preserve">
<g id="Calque_1">
</g>
<g id="garanties">
	<g id="responsive">
	</g>
	<g id="référencement">
		<circle fill="#F5F5F5" cx="85.79807" cy="87.28525" r="82.65264"/>
		<g id="XMLID_45_">
			<g>
				<path fill="#00A071" d="M102.31921,112.26701c-0.37498,0-0.73532-0.14777-1.00262-0.41122l-9.74842-9.61704
					c-5.39678,3.48981-11.62891,5.32813-18.09974,5.32813c-18.41304,0-33.39341-14.98037-33.39341-33.39375
					S55.0554,40.77937,73.46844,40.77937c18.41338,0,33.39375,14.98037,33.39375,33.39375
					c0,6.7925-2.00837,13.28007-5.82055,18.84168l9.5592,9.4299c0.56107,0.55376,0.56735,1.45741,0.01359,2.01883l-7.27899,7.37866
					c-0.2659,0.26939-0.62799,0.42238-1.00645,0.42482H102.31921z M91.73998,98.97614c0.36487,0,0.7273,0.1394,1.00297,0.41122
					l9.56268,9.43373l5.27411-5.3466l-9.40899-9.28144c-0.50567-0.49905-0.56735-1.29465-0.14463-1.86584
					c3.9129-5.28387,5.98121-11.56165,5.98121-18.15411c0-16.83923-13.69965-30.53889-30.53889-30.53889
					c-16.83889,0-30.53854,13.69965-30.53854,30.53889s13.69965,30.53889,30.53854,30.53889
					c6.283,0,12.31892-1.89476,17.45502-5.47903C91.17054,99.06048,91.45596,98.97614,91.73998,98.97614z M73.46844,98.86602
					c-13.61567,0-24.69255-11.07723-24.69255-24.6929s11.07689-24.6929,24.69255-24.6929s24.69289,11.07724,24.69289,24.6929
					S87.0841,98.86602,73.46844,98.86602z M73.46844,52.33509c-12.04152,0-21.83769,9.79652-21.83769,21.83803
					s9.79617,21.83804,21.83769,21.83804s21.83804-9.79652,21.83804-21.83804S85.50995,52.33509,73.46844,52.33509z"/>
			</g>
		</g>
		<g id="manche_bois_2_">
			<path fill="#00A071" d="M120.40223,131.7771c-2.26277,0-4.5252-0.85973-6.24989-2.58025l-15.02602-14.99047
				c-0.26799-0.26765-0.41889-0.63042-0.41924-1.0089c-0.00035-0.37846,0.14951-0.74194,0.41679-1.00993l11.64737-11.6749
				c0.5569-0.55828,1.46054-0.55863,2.01883-0.00243l15.02567,14.99012c1.66755,1.66371,2.58756,3.88502,2.59035,6.25478
				c0.00279,2.36941-0.91165,4.5928-2.57537,6.26035l-1.16327,1.16606C124.94171,130.91144,122.67162,131.7771,120.40223,131.7771z
				 M102.15334,113.19331l14.01539,13.98228c2.33978,2.33421,6.14325,2.33038,8.47746-0.01011l1.16328-1.16606
				c1.12528-1.12807,1.74387-2.63392,1.74177-4.24117c-0.00174-1.6069-0.62415-3.1117-1.75188-4.23664l-14.01504-13.98193
				L102.15334,113.19331z"/>
		</g>
	</g>
	<g id="support_technique">
	</g>
	<g id="données_cryptées">
	</g>
	<g id="ars">
	</g>
	<g id="paiement">
	</g>
	<g id="hébergement">
	</g>
</g>
<g id="raisons">
	<g id="cout">
	</g>
	<g id="accompagnement">
	</g>
	<g id="satisfaction">
	</g>
	<g id="fidélisation">
	</g>
	<g id="expertise">
	</g>
	<g id="proximité">
	</g>
</g>
<g id="objectifs">
	<g id="augmenter">
	</g>
	<g id="gagner">
	</g>
	<g id="simplifier">
	</g>
	<g id="aider">
	</g>
	<g id="innover">
	</g>
	<g id="connecter">
	</g>
</g>
</svg>
