<?xml version="1.0" encoding="utf-8"?>
<!-- Generator: Adobe Illustrator 20.0.0, SVG Export Plug-In . SVG Version: 6.00 Build 0)  -->
<svg version="1.1" xmlns="http://www.w3.org/2000/svg" xmlns:xlink="http://www.w3.org/1999/xlink" x="0px" y="0px"
	 viewBox="0 0 172.60455 172.60455" enable-background="new 0 0 172.60455 172.60455" xml:space="preserve">
<g id="Calque_1">
</g>
<g id="garanties">
	<g id="responsive">
	</g>
	<g id="référencement">
	</g>
	<g id="support_technique">
		<circle fill="#F5F5F5" cx="86.65894" cy="86.51842" r="82.65264"/>
		<g id="XMLID_14_">
			<path fill="#00A071" d="M47.28125,102.64001c-5.69165,0-10.32183-4.63019-10.32183-10.32183V79.15424
				c0-5.69165,4.63018-10.32184,10.32183-10.32184s10.32183,4.63019,10.32183,10.32184v13.16393
				C57.60309,98.00982,52.9729,102.64001,47.28125,102.64001z M47.28125,72.42262c-3.71204,0-6.73163,3.01959-6.73163,6.73163
				v13.16393c0,3.71204,3.01959,6.73163,6.73163,6.73163c3.71204,0,6.73163-3.01959,6.73163-6.73163V79.15424
				C54.01289,75.44221,50.99329,72.42262,47.28125,72.42262z"/>
		</g>
		<g id="XMLID_18_">
			<path fill="#00A071" d="M130.3047,102.64001c-5.69165,0-10.32183-4.63019-10.32183-10.32183V79.15424
				c0-5.69165,4.63018-10.32184,10.32183-10.32184s10.32184,4.63019,10.32184,10.32184v13.16393
				C140.62654,98.00982,135.99635,102.64001,130.3047,102.64001z M130.3047,72.42262c-3.71204,0-6.73163,3.01959-6.73163,6.73163
				v13.16393c0,3.71204,3.01959,6.73163,6.73163,6.73163s6.73163-3.01959,6.73163-6.73163V79.15424
				C137.03633,75.44221,134.01674,72.42262,130.3047,72.42262z"/>
		</g>
		<g id="XMLID_19_">
			<path fill="#00A071" d="M130.3047,72.44759c-0.99133,0-1.7951-0.80376-1.7951-1.7951
				c0-21.08718-17.8169-38.2432-39.71662-38.2432s-39.71662,17.15602-39.71662,38.2432c0,0.99134-0.80376,1.7951-1.7951,1.7951
				c-0.99134,0-1.7951-0.80376-1.7951-1.7951c0-23.06723,19.42751-41.8334,43.30682-41.8334s43.30683,18.76617,43.30683,41.8334
				C132.09981,71.64383,131.29604,72.44759,130.3047,72.44759z"/>
		</g>
		<g id="XMLID_17_">
			<path fill="#00A071" d="M91.80556,147.69548h-7.97015c-3.75586,0-6.81183-3.05597-6.81183-6.81227
				c0-3.75586,3.05597-6.81183,6.81183-6.81183h7.97015c3.75587,0,6.81184,3.05597,6.81184,6.81183
				C98.61739,144.63951,95.56142,147.69548,91.80556,147.69548z M83.83541,137.66158c-1.77625,0-3.22163,1.44537-3.22163,3.22163
				c0,1.77669,1.44537,3.22206,3.22163,3.22206h7.97015c1.77626,0,3.22163-1.44537,3.22163-3.22206
				c0-1.77626-1.44537-3.22163-3.22163-3.22163H83.83541z"/>
		</g>
		<path fill="#00A071" d="M130.3047,99.0498c-0.99133,0-1.7951,0.80376-1.7951,1.7951
			c0,18.66033-13.95279,34.23964-32.33965,37.57903c0.41328,0.72827,0.65234,1.56665,0.65234,2.45947v0.00002
			c0,0.37598-0.04536,0.74132-0.12468,1.09419c20.11775-3.59904,35.4022-20.67292,35.4022-41.13271
			C132.09981,99.85357,131.29604,99.0498,130.3047,99.0498z"/>
	</g>
	<g id="données_cryptées">
	</g>
	<g id="ars">
	</g>
	<g id="paiement">
	</g>
	<g id="hébergement">
	</g>
</g>
<g id="raisons">
	<g id="cout">
	</g>
	<g id="accompagnement">
	</g>
	<g id="satisfaction">
	</g>
	<g id="fidélisation">
	</g>
	<g id="expertise">
	</g>
	<g id="proximité">
	</g>
</g>
<g id="objectifs">
	<g id="augmenter">
	</g>
	<g id="gagner">
	</g>
	<g id="simplifier">
	</g>
	<g id="aider">
	</g>
	<g id="innover">
	</g>
	<g id="connecter">
	</g>
</g>
</svg>
