<?xml version="1.0" encoding="utf-8"?>
<!-- Generator: Adobe Illustrator 20.0.0, SVG Export Plug-In . SVG Version: 6.00 Build 0)  -->
<svg version="1.1" xmlns="http://www.w3.org/2000/svg" xmlns:xlink="http://www.w3.org/1999/xlink" x="0px" y="0px"
	 viewBox="0 0 172.60455 172.60455" enable-background="new 0 0 172.60455 172.60455" xml:space="preserve">
<g id="Calque_1">
</g>
<g id="garanties">
	<g id="responsive">
	</g>
	<g id="référencement">
	</g>
	<g id="support_technique">
		<circle fill="#F5F5F5" cx="88.47885" cy="86.51842" r="82.65264"/>
	</g>
	<g id="données_cryptées">
	</g>
	<g id="ars">
	</g>
	<g id="paiement">
	</g>
	<g id="hébergement">
	</g>
</g>
<g id="raisons">
	<g id="cout">
	</g>
	<g id="accompagnement">
	</g>
	<g id="satisfaction">
	</g>
	<g id="fidélisation">
	</g>
	<g id="expertise">
	</g>
	<g id="proximité">
	</g>
</g>
<g id="objectifs">
	<g id="augmenter">
	</g>
	<g id="gagner">
	</g>
	<g id="simplifier">
	</g>
	<g id="aider">
		<path fill="#00A071" d="M103.67223,94.26486l0.45746-2.2543c6.48705-1.84637,12.51752-6.68748,17.11576-10.69856
			c7.86415-6.85962,15.62981-8.05987,17.62981-8.26501v-0.48739h-41v-1.95834h43v4.47366l-0.94902-0.02831
			c-0.0731-0.00943-8.26085-0.09196-17.31112,7.80284C117.85654,86.99966,110.93743,92.28881,103.67223,94.26486"/>
		<path fill="#00A071" d="M111.87526,151.60126H61.37982l-0.03065-3.04073l1.4337,0.16801
			c0.01887,0.00237,3.51117,0.5627,10.72449-3.47902c4.17849-2.34157,7.67786-3.29114,10.10196-3.71323l-2.50663-45.14365
			c-3.56776-0.70034-17.93074-3.98553-29.58431-13.67719c-10.11375-8.41595-16.82717-7.68987-16.89084-7.68515l-1.14366,0.27913
			l-0.00707-4.70818h53.39845v1.95834h-52v0.42371c3,0.0849,9.11387,1.0965,17.62886,8.17779
			c12.68876,10.55235,29.41214,13.36788,29.57721,13.39382l0.88898,0.13205l2.73771,48.66108l-0.91847,0.12025
			c-2.23309,0.2924-5.82384,1.24496-10.29473,3.74924c-3.69273,2.07039-6.31863,2.75873-8.36307,2.75873h42.68102
			c-2.04209,0-5.14807-0.68834-8.84317-2.75873c-4.43552-2.4854-8.01271-3.40265-10.23401-3.6974l-0.93851-0.14735l0.06367-1.07585
			c0.57536-9.47708,2.49483-40.91512,3.0702-47.47527l0.08018-0.89857l0.89606-0.03426
			c2.08218-0.08253,4.12426-0.31425,6.07203-0.68447l0.382,2.00169c-1.76384,0.3372-3.60077,0.56342-5.47308,0.67426
			c-0.62961,7.86651-2.34156,35.8166-2.94287,45.7252c2.40759,0.42682,5.88102,1.43367,10.02179,3.75401
			c7.21333,4.04408,10.21386,3.75401,10.25159,3.74695l0.65662,0.04242V151.60126z"/>
		<path fill="#00A071" d="M76.7391,62.03904c2.43116,3.46401,5.32922,6.52242,8.24615,9.56433
			c1.39834,1.45728,2.8226,2.88628,4.23509,4.33177c1.6082,1.64356,3.24941,3.26356,4.54635,5.17831
			c0.63432,0.9338,1.25685,1.87939,1.79921,2.86506c1.11536,2.02558,1.2993,4.24687,0.87956,6.44695
			c-0.34428,1.81336-1.43842,3.24706-3.15274,4.08653c-0.3372,0.16506-0.48105,0.34428-0.50935,0.71921
			c-0.19807,2.73772-0.41973,5.47308-0.63432,8.21079c-0.00943,0.12733,0,0.25703,0,0.4103
			c0.1179-0.02122,0.191-0.0283,0.26175-0.04716c2.78723-0.72864,5.04862-2.31798,6.82896-4.51334
			c2.02086-2.49248,3.3791-5.31272,3.60784-8.59987c0.1627-2.37222-0.04008-4.68548-0.91257-6.90443
			c-0.70978-1.81099-1.74496-3.45692-2.99711-4.92364c-2.60094-3.04662-5.25613-6.04844-7.95612-9.00782
			c-2.32977-2.55143-4.77981-4.99674-7.12373-7.53638c-2.29204-2.48069-4.32941-5.15238-5.96826-8.1259
			c-1.49738-2.71885-2.3793-5.63578-2.6599-8.6942c-0.27589-2.99946,0.13677-5.97298,0.86069-8.90405
			c0.89843-3.64322,2.49956-6.86906,5.30566-9.42756c0.03772-0.03537,0.06131-0.08961,0.09668-0.13913
			c-0.04716-0.01178-0.08018-0.03065-0.09904-0.02122c-0.1179,0.06131-0.23345,0.12734-0.34663,0.19808
			c-1.02105,0.62961-1.81572,1.50681-2.66462,2.3392c-1.96899,1.92654-3.41448,4.18085-4.38364,6.73228
			c-1.02576,2.7047-1.66716,5.51552-2.11047,8.3735c-0.29476,1.89352-0.33249,3.7847-0.01887,5.66879
			C72.58418,54.59933,74.24897,58.49015,76.7391,62.03904"/>
		<path fill="#00A071" d="M106.0388,84.28882c-0.4669-3.20225-1.78507-6.0956-3.63615-8.71542
			c-1.13422-1.6082-2.44296-3.09614-3.71159-4.60766c-1.33466-1.5917-2.64811-3.20698-4.08418-4.70671
			c-2.95701-3.0867-5.95882-6.12626-8.72484-9.38982c-1.8393-2.16943-3.54654-4.41431-4.61475-7.08599
			c-1.34174-3.34845-2.22837-6.74172-1.45021-10.39672c0.55179-2.59387,1.43842-4.98024,3.27064-6.98931
			c1.82986-2.00907,4.0323-2.66225,6.59552-2.03737c1.59405,0.38908,2.78487,1.4903,3.77762,2.75893
			c1.65773,2.11991,2.03502,4.63833,2.05152,7.21805c0.00707,1.05406-0.23817,2.11047-0.36078,3.11029
			c0.10611-0.17213,0.25938-0.40322,0.39615-0.64611c0.76402-1.37947,1.14367-2.87684,1.44314-4.41431
			c0.5683-2.924-0.00707-5.59097-1.67187-8.04101c-0.84891-1.24977-1.86759-2.34156-3.01125-3.32016
			c-1.90768-1.62942-4.15019-2.05387-6.54128-1.66243c-2.04681,0.33484-3.56776,1.59405-4.86469,3.14566
			c-3.32724,3.97806-4.54636,8.72485-4.95194,13.74282c-0.25703,3.16452,0.46454,6.18993,1.57282,9.13044
			c1.03992,2.75422,2.72358,5.117,4.5275,7.4114c2.40051,3.05606,5.21133,5.72539,7.89481,8.5197
			c2.8061,2.91929,5.68295,5.7749,8.23909,8.93c1.75204,2.16706,3.34373,4.42373,4.3695,7.03883
			c1.59641,4.05588,1.51859,8.08109-0.2641,12.05679c-0.45747,1.02105-1.02812,1.99021-1.58698,3.05841
			c0.11319-0.08724,0.16978-0.12261,0.21694-0.16978c1.43607-1.43134,2.61745-3.03011,3.57011-4.84347
			C106.00341,90.49525,106.50333,87.47221,106.0388,84.28882"/>
		<path fill="#00A071" d="M94.29514,27.88997c2.82967,3.16218,4.1384,6.77709,3.31779,11.05699
			c-0.45511,2.37929-1.64829,4.39308-2.96174,6.35499c-0.16742,0.25231-0.47161,0.45747-0.75458,0.57301
			c-1.26392,0.52113-2.05859,1.35588-2.22837,2.78016c-0.29005,2.46418-0.06602,4.87648,0.52585,7.27229
			c0.43153,1.74496,1.19318,3.3343,2.10576,4.89534c1.05169-0.65318,1.9454-1.44785,2.77779-2.31562
			c2.31327-2.40994,3.46165-5.4495,4.57937-8.50319c0.1462-0.39615,0.07074-0.80174-0.10611-1.20498
			c-0.26646-0.60603-0.60366-1.2262-0.67442-1.86523c-0.15091-1.35117-0.21929-2.72121-0.19335-4.07946
			c0.04244-2.29675,0.23816-4.59115-0.0849-6.88319c-0.6296-4.43317-2.69997-7.85237-6.89499-9.76948
			c-0.31126-0.14148-0.62724-0.27117-0.94557-0.38907c-0.3325-0.12498-0.67205-0.23581-1.01162-0.33957
			c-0.30891-0.09197-0.62253-0.16742-0.93615-0.24995C92.18938,25.84318,93.30946,26.78876,94.29514,27.88997"/>
		<path fill="#00A071" d="M78.36946,132.263c-2.09632-2.38873-2.59623-5.63815-1.5351-8.40415
			c0.28769,0.11554,0.54472,0.21929,0.76873,0.31126c-1.25921,5.27027,0.96916,8.56686,5.76547,10.4651
			C82.34988,134.81442,79.86211,133.96317,78.36946,132.263 M74.68852,112.82545c-0.91729-2.01379-0.80174-4.08653-0.32542-6.18521
			c0.77109-3.39561,3.01125-5.59334,5.88338-7.28407c0.03301-0.02122,0.08018-0.01886,0.12026-0.02593
			c0.0118,0.01886,0.02357,0.03772,0.03773,0.05894c-0.16271,0.12498-0.32542,0.25232-0.49048,0.3773
			c-2.36514,1.81571-4.1384,4.08652-4.8246,7.00817c-0.59423,2.53256-0.13677,5.02505,1.30872,7.18975
			c0.59424,0.89135,1.59877,1.52331,2.46654,2.20951c1.75204,1.38419,3.86015,1.81807,6.00364,2.11047
			c1.73554,0.23581,3.464-0.0165,5.19247-0.12969c0.10139-0.00707,0.20279-0.01887,0.30419-0.0283
			c0.00707,0.03537,0.01651,0.0731,0.02357,0.10847c-0.62253,0.12969-1.24034,0.2641-1.86287,0.38672
			c-2.78488,0.54-5.53674,0.40087-8.16835-0.66734C77.87191,116.94263,75.83926,115.34386,74.68852,112.82545 M94.52694,109.04075
			c1.06349,0.32305,2.02794,0.82297,2.83911,1.59877c0.74279,0.71449,0.93143,1.61056,0.77817,2.57265
			c-0.12263,0.76873-0.42445,1.50681-1.00925,2.03973c-0.70978,0.64846-1.47851,1.22855-2.23309,1.82278
			c-0.13914,0.10847-0.33485,0.13913-0.50463,0.20515c-0.01651-0.03066-0.03537-0.06367-0.05188-0.09433
			c0.10375-0.09431,0.20986-0.18628,0.31362-0.28061c0.5117-0.45274,1.0234-0.90078,1.53039-1.35825
			c0.76166-0.6862,1.05877-1.57755,1.1531-2.57029c0.11319-1.18847-0.45982-2.05859-1.30637-2.77309
			c-0.41738-0.349-0.91729-0.5966-1.37946-0.89135c-0.12027-0.07545-0.24053-0.1462-0.44569-0.27354
			C94.38545,109.03839,94.46327,109.02188,94.52694,109.04075 M95.93235,137.64174c-3.7116-1.23326-7.4232-2.47125-11.12065-3.74931
			c-1.01633-0.35136-2.06567-0.72629-2.94522-1.31816c-1.53746-1.03284-2.19772-2.66934-2.51842-4.44261
			c-0.17921-0.99274-0.20515-1.97605,0.42681-2.90749c0.16506,0.05894,0.30183,0.11082,0.44096,0.15563
			c2.24017,0.75458,4.5157,1.34882,6.88791,1.48558c1.77798,0.10375,3.52296-0.12262,5.25849-0.47161
			c3.40034-0.68856,6.4729-2.03738,8.91586-4.57701c2.03501-2.11755,2.88628-4.65011,2.09868-7.5128
			c-0.6744-2.45475-2.33448-4.11719-4.72793-5.08163c-2.1081-0.84655-4.29168-0.9503-6.51062-0.91965
			c-0.35136,0.00471-0.36078,0.22166-0.37729,0.4669c-0.08961,1.45257-0.18392,2.90278-0.26882,4.35535
			c-0.01887,0.34664-0.00236,0.69799-0.00236,1.06821c0.18865,0,0.35371-0.02122,0.5117,0.00236
			c0.4669,0.07546,0.95502,0.1014,1.38655,0.26646c0.80882,0.30891,0.9786,0.88191,0.55415,1.6365
			c-0.36786,0.66026-1.00453,0.95738-1.68838,1.13423c-1.71196,0.44331-3.45692,0.51642-5.21368,0.39616
			c-1.13188-0.07546-2.22838-0.31834-3.27772-0.76873c-0.3089-0.13206-0.45982-0.31362-0.46925-0.66261
			c-0.02122-0.8159-0.06838-1.63179-0.11319-2.44532c-0.05424-0.98331-0.1179-1.96427-0.17686-2.94759
			c-0.04244-0.03537-0.08488-0.07074-0.12498-0.10611c-1.19318,0.77816-2.384,1.55632-3.60077,2.35335
			c-0.382-0.72157-0.94558-1.39362-0.7758-2.2944c0.27589-1.46436,0.99982-2.61981,2.40523-3.2612
			c0.43153-0.19572,0.85834-0.41031,1.30873-0.55179c0.42445-0.13206,0.58244-0.33249,0.53764-0.79231
			c-0.12027-1.29929-0.19101-2.6033-0.28533-3.90496c-0.09431-1.3158-0.19336-2.6316-0.29004-3.96863
			c-0.12733,0.0283-0.24288,0.04716-0.35371,0.07782c-2.53963,0.66261-4.86941,1.76855-6.96337,3.35552
			c-4.31055,3.26593-6.03429,7.6425-5.24905,12.92693c0.37965,2.55614,1.60584,4.81989,3.3461,6.77001
			c0.09668,0.10847,0.12025,0.34663,0.08017,0.49755c-0.26881,1.01633-0.62253,2.01143-0.83475,3.03719
			c-0.44096,2.14112-0.44096,4.25867,0.49519,6.31255c1.07056,2.34628,2.55143,4.29875,4.89535,5.50844
			c2.31091,1.19554,4.69963,2.20715,7.25813,2.71414c2.5868,0.51405,5.1901,0.95737,7.80048,1.33939
			c3.66208,0.53291,7.12136,1.63649,10.36842,3.40033c0.47633,0.25938,0.89136,0.63196,1.33467,0.9503
			c-0.00943,0.02594,0.02593-0.02594,0.03301-0.08018c0.01651-0.10374,0.02122-0.2075,0.01887-0.31126
			c0-0.78287-0.36314-1.41956-0.8324-2.01143C101.5752,140.24034,98.95539,138.64629,95.93235,137.64174"/>
	</g>
	<g id="innover">
	</g>
	<g id="connecter">
	</g>
</g>
</svg>
