<?xml version="1.0" encoding="utf-8"?>
<!-- Generator: Adobe Illustrator 20.0.0, SVG Export Plug-In . SVG Version: 6.00 Build 0)  -->
<svg version="1.1" xmlns="http://www.w3.org/2000/svg" xmlns:xlink="http://www.w3.org/1999/xlink" x="0px" y="0px"
	 viewBox="0 0 158.08191 158.08191" enable-background="new 0 0 158.08191 158.08191" xml:space="preserve">
<g id="Calque_1">
</g>
<g id="garanties">
	<g id="responsive">
	</g>
	<g id="référencement">
	</g>
	<g id="support_technique">
	</g>
	<g id="données_cryptées">
	</g>
	<g id="ars">
	</g>
	<g id="paiement">
	</g>
	<g id="hébergement">
	</g>
</g>
<g id="raisons">
	<g id="cout">
	</g>
	<g id="accompagnement">
	</g>
	<g id="satisfaction">
	</g>
	<g id="fidélisation">
	</g>
	<g id="expertise">
	</g>
	<g id="proximité">
	</g>
</g>
<g id="objectifs">
	<g id="augmenter">
	</g>
	<g id="gagner">
	</g>
	<g id="simplifier">
	</g>
	<g id="aider">
	</g>
	<g id="innover">
	</g>
	<g id="connecter">
		<g>
			<g>
				<path fill="#00A071" d="M77.55084,60.93192c-14.07684,0-26.9848,6.79767-35.03692,17.7832l4.01886,4.31396
					C53.4585,72.9332,64.9469,66.73191,77.55084,66.73191c12.91858,0,24.60535,6.43311,31.48822,16.91815l4.01959-4.31476
					C105.03284,67.93998,91.927,60.93192,77.55084,60.93192z"/>
			</g>
			<g>
				<path fill="#00A071" d="M77.55084,46.93192c-17.68896,0-34.09979,7.85052-45.06622,21.01733l4.00549,4.29962
					c9.83783-12.21674,24.90631-19.51697,41.16076-19.51697c16.42615,0,31.76178,7.4646,41.57593,19.98218l3.93494-4.22388
					C112.22656,55.00156,95.55688,46.93192,77.55084,46.93192z"/>
			</g>
			<g>
				<path fill="#00A071" d="M77.55084,74.93192c-10.42938,0-19.95636,5.65204-25.23004,14.3103l4.16553,4.47144
					c3.99939-7.7417,12.05444-12.88171,21.06451-12.88171c9.29083,0,17.58136,5.45538,21.44061,13.60358l4.2356-4.54663
					C98.0556,80.83549,88.27612,74.93192,77.55084,74.93192z"/>
			</g>
			<g>
				<path fill="#00A071" d="M78.05087,92.4319c-5.19147,0-9.39996,4.2085-9.39996,9.40002
					c0,1.35815,0.29395,2.64575,0.81226,3.81158c0.85529,1.92383,2.33356,3.50714,4.18341,4.4906
					c1.31421,0.69867,2.81207,1.09778,4.4043,1.09778c1.62866,0,3.1601-0.41492,4.49567-1.14368
					c1.77301-0.96747,3.19214-2.49347,4.04016-4.33685c0.54944-1.19427,0.8642-2.51868,0.8642-3.91943
					C87.4509,96.6404,83.24234,92.4319,78.05087,92.4319z"/>
			</g>
		</g>
		<g>
			<g>
				<path fill="#00A071" d="M79.58191,155.08191c-41.90625,0-76-34.09375-76-76s34.09375-76,76-76s76,34.09375,76,76
					S121.48816,155.08191,79.58191,155.08191z M79.58191,9.08191c-38.59765,0-70,31.40235-70,70s31.40235,70,70,70
					s70-31.40234,70-70S118.17957,9.08191,79.58191,9.08191z"/>
			</g>
		</g>
	</g>
</g>
</svg>
