<?xml version="1.0" encoding="utf-8"?>
<!-- Generator: Adobe Illustrator 20.0.0, SVG Export Plug-In . SVG Version: 6.00 Build 0)  -->
<svg version="1.1" xmlns="http://www.w3.org/2000/svg" xmlns:xlink="http://www.w3.org/1999/xlink" x="0px" y="0px"
	 viewBox="0 0 158.08191 158.08191" enable-background="new 0 0 158.08191 158.08191" xml:space="preserve">
<g id="Calque_1">
</g>
<g id="garanties">
	<g id="responsive">
	</g>
	<g id="référencement">
	</g>
	<g id="support_technique">
	</g>
	<g id="données_cryptées">
	</g>
	<g id="ars">
	</g>
	<g id="paiement">
	</g>
	<g id="hébergement">
	</g>
</g>
<g id="raisons">
	<g id="cout">
	</g>
	<g id="accompagnement">
	</g>
	<g id="satisfaction">
	</g>
	<g id="fidélisation">
	</g>
	<g id="expertise">
	</g>
	<g id="proximité">
	</g>
</g>
<g id="objectifs">
	<g id="augmenter">
	</g>
	<g id="gagner">
	</g>
	<g id="simplifier">
	</g>
	<g id="aider">
	</g>
	<g id="innover">
		<g>
			<path fill="#00A071" d="M78.13438,27.30042c-16.603,0-30.109,13.507-30.109,30.108c0,6.883,5.89,17.807,6.173,18.323
				l7.005,11.246c0.199,0.393,2.082,4.203,2.082,7.613v5.155l0.047,0.154c0.033,0.107,0.769,2.415,2.629,3.525
				c-0.321,0.537-0.518,1.157-0.518,1.828v0.104c0,0.982,0.39799,2.874,1.041,3.523c-0.642,0.648-1.041,1.539-1.041,2.521v1.105
				c0,0.983,0.39799,1.874,1.041,2.523c-0.642,0.648-1.041,1.539-1.041,2.521v0.105c0,1.979,1.611,4.591,3.591,4.591h3.049
				c-0.19901,0.445-0.314,0.937-0.314,1.456v1.682c0,1.979,1.611,3.59,3.591,3.59h5.549c1.979,0,3.591-1.61,3.591-3.59v-1.682
				c0-0.52-0.11501-1.011-0.314-1.456h3.048c1.98,0,3.59-2.611,3.59-4.591v-0.105c0-0.982-0.397-1.873-1.04-2.521
				c0.643-0.649,1.04-1.54,1.04-2.523v-1.105c0-0.982-0.398-1.873-1.04-2.521c0.642-0.649,1.04-2.541,1.04-3.523v-0.104
				c0-0.671-0.195-1.292-0.51801-1.83c1.861-1.109,2.595-3.417,2.628-3.524l0.048-0.153v-5.155c0-3.397,1.885-7.222,2.083-7.614
				l7.036-11.299c0.252-0.461,6.143-11.38499,6.143-18.269C108.24338,40.80742,94.73737,27.30042,78.13438,27.30042z
				 M88.68938,105.25342v0.104c0,0.803-0.652,2.456-1.455,2.456h-18.2c-0.803,0-1.457-1.653-1.457-2.456v-0.104
				c0-0.804,0.653-1.456,1.457-1.456h18.2C88.03638,103.79742,88.68938,104.45042,88.68938,105.25342z M88.68938,111.40242v1.105
				c0,0.803-0.652,1.455-1.455,1.455h-18.2c-0.803,0-1.457-0.652-1.457-1.455v-1.105c0-0.801,0.653-1.455,1.457-1.455h18.2
				C88.03638,109.94742,88.68938,110.60142,88.68938,111.40242z M82.36438,123.70442v1.682c0,0.803-0.652,1.455-1.456,1.455h-5.549
				c-0.803,0-1.457-0.652-1.457-1.455v-1.682c0-0.803,0.653-1.456,1.457-1.456h5.549
				C81.71238,122.24842,82.36438,122.90242,82.36438,123.70442z M88.68938,117.65842c0,0.803-0.652,2.456-1.455,2.456h-6.325h-5.549
				h-6.326c-0.803,0-1.457-1.653-1.457-2.456v-0.105c0-0.802,0.653-1.455,1.457-1.455h18.2c0.803,0,1.455,0.653,1.455,1.455
				V117.65842z M100.25838,74.60342l-7.029,11.283l-0.04,0.071c-0.096,0.183-2.342,4.534-2.342,8.633v4.817
				c-0.217,0.584-0.818,1.776-1.752,2.254h-1.86101h-18.2h-1.863c-0.934-0.479-1.53699-1.672-1.751-2.254v-4.817
				c0-4.099-2.245-8.45-2.34-8.633l-7.038-11.3c-0.06-0.108-5.883-10.903-5.883-17.25c0-15.424,12.55-27.973,27.975-27.973
				c15.42599,0,27.975,12.548,27.975,27.973C106.10938,63.74842,100.28438,74.55042,100.25838,74.60342z"/>
			<path fill="#00A071" d="M80.90948,129.97383h-5.54883c-2.53125,0-4.59082-2.05956-4.59082-4.59081v-1.68164
				c0-0.15332,0.00781-0.30469,0.02246-0.45605h-1.75781c-2.54297,0-4.59082-3.05859-4.59082-5.59082v-0.10547
				c0-0.9082,0.26465-1.77832,0.75684-2.52051c-0.49219-0.74414-0.75684-1.61426-0.75684-2.52344v-1.10449
				c0-0.93457,0.28027-1.82813,0.7998-2.58496c-0.55859-1.09766-0.7998-2.66895-0.7998-3.45898v-0.10449
				c0-0.50781,0.08887-1.01465,0.26172-1.5c-1.59961-1.34375-2.25-3.30664-2.32813-3.55469l-0.0918-0.45215v-5.15527
				c0-3.2334-1.89355-7.00098-1.97363-7.16016l-6.96191-11.16992c-0.28516-0.5166-6.32422-11.61523-6.32422-18.85156
				c0-17.15332,13.95508-31.1084,31.1084-31.1084s31.10938,13.95508,31.11035,31.1084c0,7.24512-6.2041,18.63574-6.2666,18.75
				l-7.06348,11.34668c-0.03711,0.08301-1.93164,3.8623-1.93164,7.08496l-0.0957,5.6123
				c-0.02637,0.08691-0.66797,2.15332-2.3252,3.54785c0.17285,0.48535,0.2627,0.99316,0.2627,1.50195v0.10449
				c0,0.79004-0.24023,2.36133-0.7998,3.45898c0.52051,0.75684,0.7998,1.65137,0.7998,2.58496v1.10449
				c0,0.90918-0.26465,1.7793-0.75684,2.52246c0.49219,0.74219,0.75684,1.6123,0.75684,2.52148v0.10547
				c0,2.53223-2.04688,5.59082-4.58984,5.59082h-1.75781c0.01563,0.15137,0.02344,0.30273,0.02344,0.45605v1.68164
				C85.50031,127.91427,83.44073,129.97383,80.90948,129.97383z M64.28546,99.59689l0.00391,0.01172
				c0.00391,0.01367,0.65137,2.04297,2.18359,2.95703l0.86035,0.5127l-0.51367,0.85938
				c-0.25,0.41602-0.37598,0.8584-0.37598,1.31445v0.10449c0,0.94434,0.40723,2.47168,0.75098,2.81836l0.69824,0.70313
				l-0.69824,0.70508c-0.48438,0.48828-0.75098,1.13379-0.75098,1.81738v1.10449c0,0.68457,0.2666,1.33105,0.75098,1.81934
				l0.69824,0.70508l-0.69824,0.70313c-0.48438,0.48828-0.75098,1.13281-0.75098,1.81641v0.10547
				c0,1.53516,1.28125,3.59082,2.59082,3.59082h4.5918l-0.62988,1.4082c-0.15039,0.33594-0.22656,0.68848-0.22656,1.04785v1.68164
				c0,1.42871,1.16211,2.59082,2.59082,2.59082h5.54883c1.42871,0,2.59082-1.16211,2.59082-2.59082v-1.68164
				c0-0.35742-0.07617-0.71094-0.22656-1.0498l-0.62695-1.40625h4.58789c1.30957,0,2.58984-2.05566,2.58984-3.59082v-0.10547
				c0-0.68359-0.2666-1.3291-0.75-1.81641l-0.69824-0.70313l0.69727-0.7041c0.48438-0.48926,0.75098-1.13574,0.75098-1.82031
				v-1.10449c0-0.68262-0.2666-1.3291-0.75098-1.81836l-0.69629-0.70313l0.69629-0.70313
				c0.34375-0.34766,0.75098-1.87598,0.75098-2.81934v-0.10449c0-0.45801-0.12598-0.90039-0.37598-1.31543l-0.5166-0.86035
				l0.8623-0.51367c1.54004-0.91699,2.17676-2.93457,2.18262-2.95508l0.00586-0.01758v-5c0-3.63281,1.9668-7.62207,2.19043-8.06445
				l7.0791-11.37695c0.03223-0.0625,5.99219-11.00195,5.99219-17.74023c-0.00098-16.05078-13.05957-29.1084-29.11035-29.1084
				s-29.1084,13.05762-29.1084,29.1084c0,6.72949,5.98926,17.73242,6.0498,17.84277l6.97656,11.19824
				c0.26758,0.51758,2.2334,4.49707,2.2334,8.14063V99.59689z M80.90851,127.84103h-5.54883
				c-1.35449,0-2.45703-1.10156-2.45703-2.45508v-1.68164c0-1.35449,1.10254-2.45605,2.45703-2.45605h5.54883
				c1.35449,0,2.45605,1.10156,2.45605,2.45605v1.68164C83.36456,126.73946,82.263,127.84103,80.90851,127.84103z
				 M75.35968,123.24825c-0.25195,0-0.45703,0.2041-0.45703,0.45605v1.68164c0,0.25098,0.20508,0.45508,0.45703,0.45508h5.54883
				c0.25195,0,0.45605-0.2041,0.45605-0.45508v-1.68164c0-0.25195-0.2041-0.45605-0.45605-0.45605H75.35968z M87.23468,121.11446
				h-18.2002c-1.58984,0-2.45703-2.2832-2.45703-3.45605v-0.10547c0-1.35352,1.10254-2.4541,2.45703-2.4541h18.2002
				c1.35352,0,2.45508,1.10059,2.45508,2.4541v0.10547C89.68976,118.83126,88.82355,121.11446,87.23468,121.11446z
				 M69.14874,119.11446h17.9707c0.23047-0.21973,0.57031-1.01367,0.57031-1.45605v-0.10547c0-0.25-0.2041-0.4541-0.45508-0.4541
				h-18.2002c-0.25195,0-0.45703,0.2041-0.45703,0.4541v0.10547C68.57745,118.10079,68.91827,118.89474,69.14874,119.11446z
				 M87.23468,114.96212h-18.2002c-1.35449,0-2.45703-1.10156-2.45703-2.45508v-1.10449c0-1.35352,1.10254-2.45508,2.45703-2.45508
				h18.2002c1.35352,0,2.45508,1.10156,2.45508,2.45508v1.10449C89.68976,113.86056,88.5882,114.96212,87.23468,114.96212z
				 M69.03448,110.94747c-0.25195,0-0.45703,0.2041-0.45703,0.45508v1.10449c0,0.25098,0.20508,0.45508,0.45703,0.45508h18.2002
				c0.25098,0,0.45508-0.2041,0.45508-0.45508v-1.10449c0-0.25098-0.2041-0.45508-0.45508-0.45508H69.03448z M87.23468,108.81368
				h-18.2002c-1.58984,0-2.45703-2.2832-2.45703-3.45605v-0.10449c0-1.35449,1.10254-2.45605,2.45703-2.45605h18.2002
				c1.35352,0,2.45508,1.10156,2.45508,2.45605v0.10449C89.68976,106.53048,88.82355,108.81368,87.23468,108.81368z
				 M69.14874,106.81368h17.9707c0.23047-0.21973,0.57031-1.01367,0.57031-1.45605v-0.10449
				c0-0.25195-0.2041-0.45605-0.45508-0.45605h-18.2002c-0.25195,0-0.45703,0.2041-0.45703,0.45605v0.10449
				C68.57745,105.80001,68.91827,106.59396,69.14874,106.81368z M89.33527,102.66134H66.92999l-0.21484-0.11035
				c-1.41309-0.72363-2.1084-2.45801-2.2334-2.79883l-0.06152-0.16699v-4.99512c0-3.81152-2.1377-7.99805-2.22852-8.17383
				l-6.99805-11.23047c-0.08789-0.15625-6.03418-11.16113-6.03418-17.77832c0-15.97559,12.99805-28.97266,28.97461-28.97266
				c15.97754,0,28.97559,12.99707,28.97559,28.97266c0,6.25293-5.34668,16.49512-5.95605,17.6416l-0.04688,0.08301
				l-7.02832,11.28223c-0.02637,0.05078-2.23145,4.28418-2.23145,8.17578v4.99707l-0.0625,0.16797
				c-0.17773,0.47949-0.86426,2.09668-2.23438,2.79688L89.33527,102.66134z M67.4505,100.66134h21.36621
				c0.4248-0.30957,0.80762-0.91504,1.03027-1.44434v-4.62695c0-4.38086,2.35742-8.9082,2.45801-9.09863l0.05273-0.09473
				l7.0332-11.29199c0.60059-1.13184,5.71875-10.93945,5.71875-16.69727c0-14.87305-12.10156-26.97266-26.97559-26.97266
				S51.15948,42.53439,51.15948,57.40743c0,6.03516,5.70215,16.66406,5.75977,16.76953l7.00977,11.25195
				c0.29102,0.55566,2.49121,4.94238,2.49121,9.16113V99.217C66.61847,99.68575,67.00031,100.33321,67.4505,100.66134z"/>
		</g>
		<g>
			<g>
				<path fill="#00A071" d="M78.13486,155.79868c-41.90625,0-76-34.09374-76-75.99999s34.09375-76,76-76
					s76.00001,34.09375,76.00001,76S120.04111,155.79868,78.13486,155.79868z M78.13486,9.79868c-38.59766,0-70,31.40234-70,70
					s31.40234,69.99999,70,69.99999s70.00001-31.40234,70.00001-69.99999S116.73252,9.79868,78.13486,9.79868z"/>
			</g>
		</g>
		<g>
			<path fill="#00A071" d="M82.9339,103.91525h-9.73633c-0.7207,0-1.33984-0.5127-1.47363-1.2207l-8.75-46.125
				c-0.08301-0.43848,0.0332-0.8916,0.31836-1.23633c0.28516-0.34375,0.70801-0.54297,1.15527-0.54297h2.75
				c0.0459,0,0.09082,0.00195,0.13672,0.00586c0.02441,0.00195,1.65039,0.13086,3.29883-0.33594
				c-0.27344-0.53027-0.51367-1.12402-0.70898-1.79004c-1.35547-4.62598,0.24805-6.86426,1.00098-7.6123
				c0.91895-0.91309,2.15039-1.25781,3.28613-0.91309c1.15332,0.3457,2.13574,1.27148,2.69727,2.54102
				c0.48926,1.10742,1.07129,3.46191-0.52539,6.79395c-0.31445,0.65527-0.70703,1.21387-1.15234,1.6875
				c0.99219,0.60254,1.87109,0.66602,1.8877,0.66699c0.03711,0.00195,0.0752,0.00586,0.1123,0.01074
				c0.12207,0.01367,2.21777,0.25684,4.16113-0.73047c-0.19727-0.2002-0.38672-0.41113-0.56543-0.63184
				c-1.82129-2.24121-2.42285-5.20996-1.64941-8.14453c0.24805-0.94336,1.00391-3.81543,3.28906-4.0957
				c2.29785-0.27734,4.00781,2.39941,4.51855,3.31641c0.41504,0.65137,2.0957,3.79883-0.55469,8.6582
				c-0.06543,0.11914-0.13184,0.23633-0.2002,0.34961c0.70313,0.18945,1.46191,0.26367,2.26563,0.22559
				c0.02539-0.00098,0.05176-0.00195,0.07715-0.00195h3.25c0.44727,0,0.87207,0.2002,1.15625,0.54492
				c0.28516,0.34473,0.40137,0.7998,0.31641,1.23926l-8.88867,46.125C84.27081,103.40548,83.65265,103.91525,82.9339,103.91525z
				 M74.43976,100.91525h7.25586l8.31055-43.125h-1.39648c-1.6123,0.08496-3.16211-0.20996-4.52832-0.81934
				c-2.98633,2.26074-6.70703,1.91504-7.20313,1.85254c-0.4043-0.03516-2.44434-0.28809-4.29395-1.87109
				c-2.4043,1-4.94922,0.875-5.44629,0.83789h-0.87891L74.43976,100.91525z M82.85968,45.25607
				c-0.13672,0.15039-0.45703,0.61133-0.78223,1.8457c-0.52637,1.99902-0.13379,3.99902,1.07715,5.48926
				c0.14453,0.17773,0.29785,0.34473,0.45898,0.50195c0.06348-0.10059,0.12402-0.20508,0.18359-0.31348
				c1.95605-3.58691,0.72852-5.50391,0.6748-5.58398c-0.02344-0.03516-0.06934-0.10546-0.08984-0.14258
				C83.95245,46.27657,83.24249,45.44747,82.85968,45.25607z M73.32843,47.01485c-0.06152,0-0.17188,0.05469-0.28906,0.1709
				c-0.57031,0.56641-0.97461,2.12207-0.23633,4.64063c0.11719,0.39844,0.25684,0.75781,0.41406,1.08203
				c0.17676-0.2168,0.33203-0.45801,0.46094-0.72559c0.78711-1.6416,0.96387-3.20313,0.48633-4.28418
				c-0.23926-0.54102-0.57813-0.80957-0.81445-0.88086C73.34308,47.01583,73.33624,47.01485,73.32843,47.01485z"/>
		</g>
	</g>
	<g id="connecter">
	</g>
</g>
</svg>
