<?xml version="1.0" encoding="utf-8"?>
<!-- Generator: Adobe Illustrator 20.0.0, SVG Export Plug-In . SVG Version: 6.00 Build 0)  -->
<svg version="1.1" xmlns="http://www.w3.org/2000/svg" xmlns:xlink="http://www.w3.org/1999/xlink" x="0px" y="0px"
	 viewBox="0 0 158.08191 158.08191" enable-background="new 0 0 158.08191 158.08191" xml:space="preserve">
<g id="Calque_1">
</g>
<g id="garanties">
	<g id="responsive">
	</g>
	<g id="référencement">
	</g>
	<g id="support_technique">
	</g>
	<g id="données_cryptées">
	</g>
	<g id="ars">
	</g>
	<g id="paiement">
	</g>
	<g id="hébergement">
	</g>
</g>
<g id="raisons">
	<g id="cout">
	</g>
	<g id="accompagnement">
	</g>
	<g id="satisfaction">
	</g>
	<g id="fidélisation">
	</g>
	<g id="expertise">
	</g>
	<g id="proximité">
	</g>
</g>
<g id="objectifs">
	<g id="augmenter">
	</g>
	<g id="gagner">
	</g>
	<g id="simplifier">
	</g>
	<g id="aider">
		<g>
			<g>
				<g>
					<path fill="#00A071" d="M79.37953,155.11775c-41.90625,0-76-34.09375-76-76s34.09375-76,76-76s76,34.09375,76,76
						S121.28578,155.11775,79.37953,155.11775z M79.37953,9.11775c-38.59766,0-70,31.40234-70,70s31.40234,70,70,70
						s70-31.40234,70-70S117.97719,9.11775,79.37953,9.11775z"/>
				</g>
			</g>
		</g>
		<g>
			<g>
				<path fill="#00A071" d="M59.82914,122.86609c-10.25098,0-18.19336-4.36621-22.76953-10.71484
					c-13.26074-15.30469,0.66895-49.68457,6.62305-64.37988c0.89258-2.2041,1.66992-4.12207,1.90234-4.91797
					c0.22656-1.77051,1.03223-3.14355,1.57031-4.0625c1.79395-3.05859,4.63086-4.1875,7.60449-3.04102
					c2.27246,0.59766,4.16992,2.07324,5.49512,4.27441c1.86719,3.10449,2.38477,7.33398,1.38281,11.31641
					c-0.75977,3.02148-1.53516,5.74414-2.21875,8.14648c-0.99512,3.49316-1.93555,6.79785-1.88086,7.98437
					c0.08105-0.03906,0.18164-0.09277,0.30664-0.16797L98.1475,43.20008c6.53223-3.90527,11.18652-2.99316,13.36133-0.83691
					c1.92285,1.90625,2.16113,4.82617,0.66602,7.72168v0.24805c7.84961-4.62305,13.06836-3.88086,15.34863-1.62402
					c1.80663,1.78906,1.87304,4.58691,0.1748,7.48535l0,0c-0.58887,1.00293-1.55859,2.30566-3.14844,3.75781
					c3.55761-0.68652,6.05175,0.0957,7.41991,1.45215c1.83008,1.81738,1.87891,4.67968,0.13281,7.6582
					c-1.04492,1.78223-3.25586,4.4834-7.85546,7.23242l-1.21582,0.72656c2.39063-0.04688,4.16797,0.74219,5.29296,1.85938
					c2.02441,2.01465,2.17188,5.16211,0.38379,8.21289c-1.21386,2.07031-3.27929,4.01563-5.97265,5.625l-36.59668,21.8877
					C76.38383,120.44031,67.46586,122.86511,59.82914,122.86609z M114.41019,77.51648l7.78418-4.65527
					c3.87305-2.31445,5.64941-4.44336,6.45702-5.82227c0.71875-1.22559,0.9248-2.37402,0.50195-2.79492
					c-0.7832-0.77539-4.37402-1.21972-10.46386,2.37402L88.37113,84.75085c-1.46094,0.87012-3.35449,0.39258-4.22656-1.06348
					c-0.86914-1.45898-0.39258-3.35254,1.06152-4.22461l32.46973-19.42187c3.98145-2.37891,5.77148-4.50586,6.57129-5.87012
					c0.69336-1.18262,0.87402-2.21094,0.46094-2.61914c-0.83301-0.82813-4.54688-1.33594-10.70703,2.34863l-32.2998,19.31836
					c-0.70703,0.4209-1.5332,0.54297-2.33203,0.34375c-0.7998-0.20117-1.47266-0.70117-1.89453-1.40918
					c-0.86914-1.4541-0.39355-3.34863,1.06152-4.22168l25.43457-15.21289c2.04492-1.23535,3.58594-2.65918,4.45313-4.11621
					l0.02539-0.04297c0.81055-1.38184,0.90625-2.69824,0.24414-3.35547c-0.7959-0.78711-3.59277-1.50098-8.49316,1.42969
					l-40.2998,24.10157c-2.41797,1.45116-4.07227,0.67675-4.84473,0.08593c-2.48047-1.90527-1.60547-4.98145,0.51074-12.41308
					c0.68164-2.39063,1.44727-5.08105,2.19238-8.04297c0.73633-2.92773,0.37891-6.09961-0.93164-8.27832
					c-0.80176-1.33301-1.86621-2.16992-3.16211-2.48828l-0.27832-0.09082c-0.27539-0.1123-0.56738-0.20801-0.87695-0.20801
					c-0.57617,0-1.21094,0.33203-1.90332,1.51465c-0.4502,0.7666-0.95898,1.63574-1.06348,2.63086l-0.05273,0.28906
					c-0.24902,0.9707-0.98535,2.78809-2.10059,5.54004c-5.19727,12.82813-19.00391,46.90332-7.25488,60.31738l0.12207,0.1543
					c6.38379,8.93457,21.68945,14.66895,43.8291,1.42676l36.59668-21.8877c2.11816-1.26562,3.7002-2.72266,4.57422-4.21387
					c0.80957-1.38086,0.90625-2.69824,0.24609-3.35449c-0.78809-0.78418-3.55566-1.50098-8.41406,1.37793l-21.71484,12.9873
					c-1.45605,0.87012-3.35156,0.39551-4.22559-1.06348c-0.87109-1.45703-0.39551-3.35156,1.06055-4.22461L112.96,78.38367
					L114.41019,77.51648z"/>
			</g>
		</g>
	</g>
	<g id="innover">
	</g>
	<g id="connecter">
	</g>
</g>
</svg>
