<?xml version="1.0" encoding="utf-8"?>
<!-- Generator: Adobe Illustrator 20.0.0, SVG Export Plug-In . SVG Version: 6.00 Build 0)  -->
<svg version="1.1" xmlns="http://www.w3.org/2000/svg" xmlns:xlink="http://www.w3.org/1999/xlink" x="0px" y="0px"
	 viewBox="0 0 158.08191 158.08191" enable-background="new 0 0 158.08191 158.08191" xml:space="preserve">
<g id="Calque_1">
</g>
<g id="garanties">
	<g id="responsive">
	</g>
	<g id="référencement">
	</g>
	<g id="support_technique">
	</g>
	<g id="données_cryptées">
	</g>
	<g id="ars">
	</g>
	<g id="paiement">
	</g>
	<g id="hébergement">
	</g>
</g>
<g id="raisons">
	<g id="cout">
	</g>
	<g id="accompagnement">
	</g>
	<g id="satisfaction">
	</g>
	<g id="fidélisation">
	</g>
	<g id="expertise">
	</g>
	<g id="proximité">
	</g>
</g>
<g id="objectifs">
	<g id="augmenter">
	</g>
	<g id="gagner">
		<g>
			<path fill="#00A071" d="M78.00002,47.58191c18.752,0,34,15.252,34,34s-15.248,34-34,34c-18.748,0-34-15.252-34-34
				S59.25202,47.58191,78.00002,47.58191z M78.00002,43.58191c-20.988,0-38,17.012-38,38s17.012,38,38,38s38-17.012,38-38
				S98.98802,43.58191,78.00002,43.58191L78.00002,43.58191z"/>
		</g>
		<g>
			<path fill="#00A071" d="M88.00002,39.58191h-20c-1.104,0-2-0.9-2-2v-12c0-1.1,0.896-2,2-2h20c1.1,0,2,0.9,2,2v12
				C90.00002,38.68191,89.10002,39.58191,88.00002,39.58191z M70.00002,35.58191h16v-8h-16V35.58191z"/>
		</g>
		<g>
			<path fill="#00A071" d="M70.00002,39.58191h4v8h-4V39.58191z"/>
		</g>
		<g>
			<path fill="#00A071" d="M82.00002,39.58191h4v8h-4V39.58191z"/>
		</g>
		<g>
			<path fill="#00A071" d="M78.85699,88.98684c-0.68709,0-1.37418-0.26303-1.90023-0.78371
				c-1.04673-1.036-1.04673-2.74835,0-3.79508l16.10362-16.10362c1.04137-1.036,2.74835-1.036,3.79508,0
				c1.04137,1.04674,1.04137,2.75909,0,3.79509L80.75185,88.20313C80.23116,88.72381,79.54407,88.98684,78.85699,88.98684z"/>
		</g>
		<g>
			<path fill="#00A071" d="M81.77378,85.73443c0.02667,0.80926-0.25626,1.62872-0.84875,2.2685
				c-1.17886,1.27305-3.19451,1.33949-4.46729,0.14726l-19.5812-18.34206c-1.25993-1.18633-1.58006-2.87988-0.4012-4.15292
				c1.57778-1.80888,3.44285-0.82854,4.70278,0.35779l19.58119,18.34205C81.39244,84.94812,81.7471,84.92518,81.77378,85.73443z"/>
		</g>
		<g>
			<g>
				<path fill="#00A071" d="M78,154.80467c-41.90625,0-76-34.09375-76-76s34.09375-76,76-76s76,34.09375,76,76
					S119.90625,154.80467,78,154.80467z M78,8.80467c-38.59766,0-70,31.40235-70,70s31.40234,70,70,70s70-31.40234,70-70
					S116.59766,8.80467,78,8.80467z"/>
			</g>
		</g>
	</g>
	<g id="simplifier">
	</g>
	<g id="aider">
	</g>
	<g id="innover">
	</g>
	<g id="connecter">
	</g>
</g>
</svg>
