<?xml version="1.0" encoding="utf-8"?>
<!-- Generator: Adobe Illustrator 20.0.0, SVG Export Plug-In . SVG Version: 6.00 Build 0)  -->
<svg version="1.1" xmlns="http://www.w3.org/2000/svg" xmlns:xlink="http://www.w3.org/1999/xlink" x="0px" y="0px"
	 viewBox="0 0 158.08191 158.08191" enable-background="new 0 0 158.08191 158.08191" xml:space="preserve">
<g id="Calque_1">
</g>
<g id="garanties">
	<g id="responsive">
	</g>
	<g id="référencement">
	</g>
	<g id="support_technique">
	</g>
	<g id="données_cryptées">
	</g>
	<g id="ars">
	</g>
	<g id="paiement">
	</g>
	<g id="hébergement">
	</g>
</g>
<g id="raisons">
	<g id="cout">
	</g>
	<g id="accompagnement">
	</g>
	<g id="satisfaction">
	</g>
	<g id="fidélisation">
	</g>
	<g id="expertise">
	</g>
	<g id="proximité">
	</g>
</g>
<g id="objectifs">
	<g id="augmenter">
		<g>
			<g>
				<path fill="#00A071" d="M119.11843,108.51448H43.71846V41.21449c0-0.60004-0.40002-1-1-1c-0.60004,0-1,0.39996-1,1v67.29999
					c0,0.19305,0.05402,0.35504,0.13019,0.5c-0.07617,0.14496-0.13019,0.30695-0.13019,0.5c0,0.59998,0.39996,1,1,1h76.39996
					c0.5,0,1-0.40002,1-1S119.71847,108.51448,119.11843,108.51448z"/>
				<path fill="#00A071" d="M119.11805,112.01453H42.71863c-1.4248,0-2.5-1.0752-2.5-2.5c0-0.16895,0.0166-0.33594,0.05078-0.5
					c-0.03418-0.16406-0.05078-0.33105-0.05078-0.5v-67.2998c0-1.4248,1.0752-2.5,2.5-2.5s2.5,1.0752,2.5,2.5v65.7998h73.89941
					c1.4248,0,2.5,1.0752,2.5,2.5C121.61805,110.89343,120.49696,112.01453,119.11805,112.01453z"/>
			</g>
			<g>
				<path fill="#00A071" d="M115.93102,50.91931c-0.27206-0.09332-0.57061-0.09375-0.83421,0.02521l-12.28388,5.20277
					c-0.55384,0.20001-0.77539,0.79999-0.55384,1.29999c0.08154,0.18402,0.23412,0.31165,0.40808,0.40942
					c0.07153,0.05994,0.13338,0.12427,0.225,0.17462l4.87765,2.89147L86.10389,89.84454L71.59325,75.24451
					c-0.22155-0.20001-0.55384-0.29999-0.88613-0.29999s-0.66465,0.20001-0.88614,0.40002l-27.02754,32.5
					c-0.33229,0.39996-0.22155,1.09998,0.22155,1.39996c0.22155,0.10004,0.44304,0.20001,0.66459,0.20001
					c0.33229,0,0.66465-0.09998,0.88614-0.40002l26.25215-31.59998l14.62145,14.59998
					c0.22155,0.20001,0.55384,0.30005,0.88614,0.30005c0.33229,0,0.66465-0.10004,0.88613-0.40002l22.51243-29.94727
					l5.63414,3.38165c0.12582,0.06915,0.25238,0.10712,0.37779,0.13782c0.02218,0.00854,0.04354,0.01703,0.06673,0.02435
					c0.00805,0.00159,0.01589,0.00238,0.02393,0.00378c0.12149,0.03595,0.25049,0.06268,0.39537,0.06268
					c0.66459,0,1.10769-0.40002,1.10769-1l-0.5-12.72137C116.82966,51.35535,116.4712,50.99854,115.93102,50.91931z
					 M105.58247,57.16883l8.9835-3.91067l0.5,9.54632L105.58247,57.16883z"/>
				<path fill="#00A071" d="M43.67957,110.94421c-0.54785,0-0.99121-0.20117-1.28516-0.33398l-0.22168-0.12402
					c-0.56641-0.38477-0.94824-1.00879-1.04688-1.71289c-0.09766-0.69043,0.09082-1.3789,0.51563-1.88965l27.17481-32.65234
					c0.3252-0.29395,1.00391-0.78711,1.89063-0.78711c0.72754,0,1.39844,0.24316,1.88965,0.68457l13.34766,13.42773
					l19.62305-26.19531l-3.43945-2.04004c-0.13867-0.07324-0.26465-0.17578-0.35059-0.25
					c-0.4082-0.26367-0.70703-0.60449-0.88965-1.01465c-0.27832-0.63086-0.2832-1.35059-0.01563-1.97656
					c0.27051-0.63086,0.77832-1.10742,1.43262-1.34375l12.20703-5.17285c0.53027-0.24219,1.16406-0.28125,1.77246-0.10547
					c1.21191,0.23828,2.0459,1.21973,2.0459,2.42871l0.49902,12.66211c0.00098,1.72656-1.56152,2.93652-3.34473,2.45801
					l-0.20801-0.05957c-0.1748-0.04688-0.40137-0.12207-0.6416-0.25391l-4.52441-2.71484L88.41102,92.84558
					c-0.47363,0.64063-1.2168,0.99902-2.08594,0.99902c-0.72656,0-1.39746-0.24316-1.88867-0.68457L70.92176,79.66687
					l-25.20313,30.33691C45.29383,110.58582,44.55066,110.94421,43.67957,110.94421z M108.8661,57.37488l4.55566,2.70703
					l-0.24023-4.58496L108.8661,57.37488z"/>
			</g>
		</g>
		<g>
			<g>
				<path fill="#00A071" d="M79.71843,155.58727c-41.90625,0-76-34.09375-76-76s34.09375-76,76-76s76,34.09375,76,76
					S121.62468,155.58727,79.71843,155.58727z M79.71843,9.58726c-38.59766,0-70,31.40235-70,70s31.40234,70,70,70
					s70-31.40234,70-70S118.31609,9.58726,79.71843,9.58726z"/>
			</g>
		</g>
	</g>
	<g id="gagner">
	</g>
	<g id="simplifier">
	</g>
	<g id="aider">
	</g>
	<g id="innover">
	</g>
	<g id="connecter">
	</g>
</g>
</svg>
