<?xml version="1.0" encoding="utf-8"?>
<!-- Generator: Adobe Illustrator 20.0.0, SVG Export Plug-In . SVG Version: 6.00 Build 0)  -->
<svg version="1.1" xmlns="http://www.w3.org/2000/svg" xmlns:xlink="http://www.w3.org/1999/xlink" x="0px" y="0px"
	 viewBox="0 0 158.08191 158.08191" enable-background="new 0 0 158.08191 158.08191" xml:space="preserve">
<g id="Calque_1">
</g>
<g id="garanties">
	<g id="responsive">
	</g>
	<g id="référencement">
	</g>
	<g id="support_technique">
	</g>
	<g id="données_cryptées">
	</g>
	<g id="ars">
	</g>
	<g id="paiement">
	</g>
	<g id="hébergement">
	</g>
</g>
<g id="raisons">
	<g id="cout">
	</g>
	<g id="accompagnement">
	</g>
	<g id="satisfaction">
	</g>
	<g id="fidélisation">
	</g>
	<g id="expertise">
	</g>
	<g id="proximité">
	</g>
</g>
<g id="objectifs">
	<g id="augmenter">
	</g>
	<g id="gagner">
	</g>
	<g id="simplifier">
		<g>
			<path fill="#00A071" d="M39.86227,97.72099c-0.808,0-1.536-0.492-1.848-1.24s-0.14-1.604,0.432-2.18
				c1.516-1.52,4.212-5.172,6.116-9.172c-9.572-4.36-15.428-11.872-15.428-19.956c0-13.132,15.252-23.82,34-23.82
				c18.752,0,34,10.688,34,23.82s-15.252,23.816-34,23.816c-1.12,0-2.22-0.052-3.308-0.128
				C54.27828,94.73699,47.56228,97.72099,39.86227,97.72099z M63.13428,45.35299c-16.544,0-30,8.892-30,19.82
				c0,6.924,5.672,13.456,14.804,17.048c0.496,0.2,0.896,0.584,1.104,1.076c0.208,0.488,0.22,1.044,0.02,1.536
				c-1.188,2.964-2.948,6.008-4.668,8.46c4.952-0.976,9.348-3.584,13.12-7.824c0.416-0.468,1.032-0.708,1.664-0.66
				c1.296,0.112,2.608,0.192,3.952,0.192c16.544,0,30-8.892,30-19.816C93.13428,54.245,79.67828,45.35299,63.13428,45.35299z"/>
		</g>
		<g>
			<g>
				<path fill="#00A071" d="M78.58191,154.97375c-41.90625,0-76-34.09375-76-76s34.09375-76,76-76s76,34.09375,76,76
					S120.48816,154.97375,78.58191,154.97375z M78.58191,8.97376c-38.59765,0-70,31.40235-70,70s31.40235,70,70,70
					s70-31.40234,70-70S117.17957,8.97376,78.58191,8.97376z"/>
			</g>
		</g>
		<g>
			<path fill="#00A071" d="M127.01955,85.85388c0-12.224-14.15601-22.15197-31.55615-22.15197c-1.104,0-2,0.89996-2,2
				c0,1.09998,0.896,2,2,2c15.19604,0,27.55615,8.14398,27.55615,18.15198c0,6.33203-5.2041,12.31201-13.58008,15.58801
				c-0.49194,0.20398-0.89185,0.59198-1.09985,1.08002c-0.21216,0.48798-0.22021,1.04401-0.02002,1.53601
				c1.04395,2.62396,2.57983,5.31598,4.104,7.53601c-4.39209-0.94403-8.29614-3.32404-11.66406-7.09601
				c-0.41602-0.46802-1.052-0.724-1.66406-0.66003c-7.66406,0.672-15.86401-0.90399-21.83203-4.38397
				c-0.12769-0.07513-0.26099-0.1319-0.39648-0.17603c-8.25952-5.01715-11.86133-13.01672-11.8999-13.10394l-1.833,0.7998
				l-1.83496,0.79688c0.19238,0.44141,4.82129,10.86621,16.04296,16.33398l0.03711-0.07599
				c6.12549,2.97784,13.77393,4.388,21.07617,3.87329c5.14819,5.42798,11.36816,8.17999,18.5,8.17999
				c0.81616,0,1.54004-0.5,1.85205-1.25201c0.31616-0.75598,0.14404-1.604-0.43188-2.17999
				c-1.33594-1.336-3.80396-4.68402-5.552-8.29199C121.62746,100.28589,127.01955,93.34192,127.01955,85.85388z"/>
		</g>
	</g>
	<g id="aider">
	</g>
	<g id="innover">
	</g>
	<g id="connecter">
	</g>
</g>
</svg>
