<?xml version="1.0" encoding="utf-8"?>
<!-- Generator: Adobe Illustrator 20.0.0, SVG Export Plug-In . SVG Version: 6.00 Build 0)  -->
<svg version="1.1" xmlns="http://www.w3.org/2000/svg" xmlns:xlink="http://www.w3.org/1999/xlink" x="0px" y="0px"
	 viewBox="0 0 55.66667 39.66667" enable-background="new 0 0 55.66667 39.66667" xml:space="preserve">
<g id="Guides" display="none">
</g>
<g id="footer">
	<g id="RS">
	</g>
</g>
<g id="contact">
	<g id="Réseaux_Sociaux">
	</g>
	<g id="form">
		<g id="btn_valider">
		</g>
	</g>
</g>
<g id="les_offres">
	<g id="personnalisation">
		<g id="thème_complet">
		</g>
		<g id="logo">
		</g>
		<g id="couleurs">
		</g>
		<g id="image_banniere">
			<g id="icone_navigateur_1_">
				<g>
					<circle fill="#00A071" cx="6.03382" cy="5.96875" r="0.03058"/>
					<circle fill="#00A071" cx="7.60352" cy="5.96875" r="0.03058"/>
					<circle fill="#00A071" cx="9.1834" cy="5.96875" r="0.03058"/>
					<path fill="#00A071" d="M6.03382,6.58032c0.33636,0,0.60138-0.27521,0.60138-0.60138
						c0-0.33636-0.27521-0.60138-0.60138-0.60138c-0.33636,0-0.60138,0.27521-0.60138,0.60138
						C5.43245,6.30511,5.70766,6.58032,6.03382,6.58032z M6.03382,5.93817c0.02039,0,0.03058,0.01019,0.03058,0.03058
						c0,0.02039-0.01019,0.03058-0.03058,0.03058c-0.02039,0-0.03058-0.01019-0.03058-0.03058
						C6.00325,5.95856,6.02363,5.93817,6.03382,5.93817z"/>
					<path fill="#00A071" d="M7.78039,6.58032c0.33636,0,0.60138-0.27521,0.60138-0.60138
						c0-0.33636-0.27521-0.60138-0.60138-0.60138S7.17902,5.65277,7.17902,5.97894C7.17902,6.30511,7.45422,6.58032,7.78039,6.58032
						z M7.78039,5.93817c0.02039,0,0.03058,0.01019,0.03058,0.03058c0,0.02039-0.01019,0.03058-0.03058,0.03058
						c-0.02039,0-0.03058-0.01019-0.03058-0.03058C7.76001,5.95856,7.7702,5.93817,7.78039,5.93817z"/>
					<path fill="#00A071" d="M9.53715,6.58032c0.33636,0,0.60138-0.27521,0.60138-0.60138
						c0-0.33636-0.27521-0.60138-0.60138-0.60138S8.93577,5.65277,8.93577,5.97894C8.92558,6.30511,9.20079,6.58032,9.53715,6.58032
						z M9.53715,5.93817c0.02039,0,0.03058,0.01019,0.03058,0.03058c0,0.02039-0.01019,0.03058-0.03058,0.03058
						c-0.02038,0-0.03058-0.01019-0.03058-0.03058C9.50657,5.95856,9.51676,5.93817,9.53715,5.93817z"/>
				</g>
				<path fill="none" stroke="#00A071" stroke-linecap="round" stroke-linejoin="round" stroke-miterlimit="10" d="M51.5,34.5
					c0,0.55228-0.44772,1-1,1h-45c-0.55228,0-1-0.44772-1-1v-29c0-0.55228,0.44772-1,1-1h45c0.55228,0,1,0.44772,1,1V34.5z"/>
				
					<line fill="none" stroke="#00A071" stroke-linecap="round" stroke-linejoin="round" stroke-miterlimit="10" x1="4.69794" y1="7.30984" x2="51.01851" y2="7.32449"/>
			</g>
		</g>
	</g>
	<g id="détail_flexiweb_plus">
		<g id="btn_voir_la_video">
		</g>
		<g id="timeline_1_">
			<g id="_x35__1_">
			</g>
			<g id="_x34__1_">
			</g>
			<g id="_x33__1_">
			</g>
			<g id="_x32__1_">
			</g>
			<g id="_x31__1_">
			</g>
		</g>
		<g id="etape_5">
		</g>
		<g id="etape_4">
		</g>
		<g id="etape_3">
		</g>
		<g id="etape_2">
		</g>
		<g id="etape_1">
		</g>
	</g>
	<g id="tableau">
		<g id="optiweb">
			<g id="btn_je_m_x27_inscris_3_">
			</g>
		</g>
		<g id="flexiweb__x2B_">
			<g id="btn_je_m_x27_inscris_2_">
			</g>
		</g>
		<g id="flexiweb">
			<g id="btn_je_m_x27_inscris_1_">
			</g>
		</g>
		<g id="ecoweb">
			<g id="btn_je_m_x27_inscris">
			</g>
		</g>
	</g>
</g>
<g id="photo_bkgd_pharma">
</g>
<g id="chiffres">
	<g id="_x35_0_x25_">
	</g>
	<g id="_x37_3_x25_">
	</g>
	<g id="_x37_2_x25_">
	</g>
	<g id="_x38_5_x25_">
	</g>
</g>
<g id="map__x2B__testimoniaux">
	<g id="testimoniaux">
	</g>
	<g id="map">
		<g id="cursor_clients">
		</g>
	</g>
</g>
<g id="_x36__bonnes_raisons_de_choisir">
	<g id="coût">
	</g>
	<g id="accompagnement">
	</g>
	<g id="satisfaction">
	</g>
	<g id="fidelisation">
	</g>
	<g id="expertise">
	</g>
	<g id="dev_service_de_proximité">
	</g>
	<g id="timeline">
	</g>
</g>
<g id="les_garanties">
	<g id="borders">
	</g>
</g>
<g id="les_objectifs">
	<g id="Augmenter">
	</g>
	<g id="Connecter">
	</g>
	<g id="Gagner">
	</g>
	<g id="Simplifier">
	</g>
	<g id="Aider">
	</g>
	<g id="Innover">
	</g>
</g>
<g id="actualités">
	<g id="btn_voir_toutes_les_actus">
	</g>
	<g id="hover_article">
	</g>
</g>
<g id="à_propos">
	<g id="btn_video_président">
	</g>
</g>
<g id="click_to_call">
</g>
<g id="home">
	<g id="bouton_téléchargez_le_livre_blanc">
	</g>
	<g id="header">
	</g>
</g>
<g id="illustration_72_x25_">
	<g id="Calque_73">
	</g>
	<g id="Calque_74">
	</g>
</g>
</svg>
