<svg xmlns="http://www.w3.org/2000/svg" xmlns:xlink="http://www.w3.org/1999/xlink" x="0" y="0" enable-background="new 0 0 55.667 39.667" version="1.1" viewBox="0 0 55.667 39.667" xml:space="preserve"><g id="les_offres"><g id="personnalisation"><g id="image_banniere"><g><path fill="#00A071" d="M45.7319,6.60901V5.63922c0-0.84856-0.72025-1.53904-1.60532-1.53904h-5.30086 c-0.88507,0-1.60532,0.69048-1.60532,1.53904v0.96979H16.0368V5.01822c0-1.15056-0.74506-2.08632-1.66062-2.08632H8.83926 c-0.91555,0-1.66062,0.93576-1.66062,2.08632v1.59079h-4.0227v30.3122h48.99902V6.60901H45.7319z M36.35606,23.33924h15.07298 v3.8593H36.37835c0.13159-0.60873,0.20474-1.23886,0.20474-1.88641C36.58308,24.63349,36.50019,23.97491,36.35606,23.33924z M37.94632,5.63922c0-0.44803,0.39451-0.81312,0.8794-0.81312h5.30086c0.48489,0,0.8794,0.36509,0.8794,0.81312v0.96979 h-7.05966V5.63922z M7.90456,5.01822c0-0.73726,0.42818-1.36039,0.9347-1.36039h5.53693 c0.50652,0,0.9347,0.62313,0.9347,1.36039v1.59079H7.90456V5.01822z M7.17864,7.33493h8.85816h21.18359h8.51151h5.69714 v15.27839H36.16386c-1.14693-3.60728-4.52634-6.22918-8.50841-6.22918s-7.36148,2.6219-8.5084,6.22918H3.88186V7.33493H7.17864z M18.93256,27.19854H3.88186v-3.8593h15.07298c-0.14413,0.63567-0.22703,1.29424-0.22703,1.97289 C18.72782,25.95968,18.80097,26.58981,18.93256,27.19854z M19.45374,25.31213c0-4.52283,3.67923-8.20207,8.20171-8.20207 s8.20171,3.67923,8.20171,8.20207c0,4.52213-3.67923,8.20136-8.20171,8.20136S19.45374,29.83426,19.45374,25.31213z M3.88186,36.19529v-8.27083h15.2378c1.11994,3.65172,4.5219,6.31495,8.53579,6.31495s7.41584-2.66324,8.53579-6.31495h15.2378 v8.27083H3.88186z"/><path fill="#00A071" d="M42.08138,17.13204h5.45008c0.95135,0,1.72548-0.76066,1.72548-1.69571v-4.70928 c0-0.93505-0.77413-1.69571-1.72548-1.69571h-5.45008c-0.95135,0-1.72513,0.76066-1.72513,1.69571v4.70928 C40.35625,16.37138,41.13002,17.13204,42.08138,17.13204z M41.08217,10.72706c0-0.53452,0.44838-0.96979,0.99921-0.96979 h5.45008c0.55117,0,0.99956,0.43527,0.99956,0.96979v4.70928c0,0.53452-0.44839,0.96979-0.99956,0.96979h-5.45008 c-0.55082,0-0.99921-0.43527-0.99921-0.96979V10.72706z"/><path fill="#00A071" d="M27.65545,31.40165c3.3581,0,6.08988-2.73142,6.08988-6.08952s-2.73178-6.09023-6.08988-6.09023 s-6.09023,2.73213-6.09023,6.09023S24.29735,31.40165,27.65545,31.40165z M27.65545,19.94782 c2.95757,0,5.36395,2.40674,5.36395,5.36431s-2.40639,5.3636-5.36395,5.3636c-2.95792,0-5.36431-2.40603-5.36431-5.3636 S24.69753,19.94782,27.65545,19.94782z"/><path fill="#00A071" d="M35.46656,12.78431h2.50386c0.54515,0,0.98893-0.3977,0.98893-0.88614v-1.85096 c0-0.48915-0.44378-0.88684-0.98893-0.88684h-2.50386c-0.54515,0-0.98893,0.3977-0.98893,0.88684v1.85096 C34.47763,12.38661,34.92141,12.78431,35.46656,12.78431z M35.20355,10.04721c0-0.07444,0.11484-0.16092,0.263-0.16092h2.50386 c0.15064,0,0.263,0.08507,0.263,0.16092v1.85096c0,0.07585-0.11236,0.16021-0.263,0.16021h-2.50386 c-0.14816,0-0.263-0.08578-0.263-0.16021V10.04721z"/></g></g></g></g></svg>