<svg xmlns="http://www.w3.org/2000/svg" xmlns:xlink="http://www.w3.org/1999/xlink" x="0" y="0" enable-background="new 0 0 55.667 39.667" version="1.1" viewBox="0 0 55.667 39.667" xml:space="preserve"><g id="les_offres"><g id="personnalisation"><g id="image_banniere"><g id="icone_navigateur_1_"><g><circle cx="6.034" cy="5.969" r=".031" fill="#00A071"/><circle cx="7.604" cy="5.969" r=".031" fill="#00A071"/><circle cx="9.183" cy="5.969" r=".031" fill="#00A071"/><path fill="#00A071" d="M6.03382,6.58032c0.33636,0,0.60138-0.27521,0.60138-0.60138 c0-0.33636-0.27521-0.60138-0.60138-0.60138c-0.33636,0-0.60138,0.27521-0.60138,0.60138 C5.43245,6.30511,5.70766,6.58032,6.03382,6.58032z M6.03382,5.93817c0.02039,0,0.03058,0.01019,0.03058,0.03058 c0,0.02039-0.01019,0.03058-0.03058,0.03058c-0.02039,0-0.03058-0.01019-0.03058-0.03058 C6.00325,5.95856,6.02363,5.93817,6.03382,5.93817z"/><path fill="#00A071" d="M7.78039,6.58032c0.33636,0,0.60138-0.27521,0.60138-0.60138 c0-0.33636-0.27521-0.60138-0.60138-0.60138S7.17902,5.65277,7.17902,5.97894C7.17902,6.30511,7.45422,6.58032,7.78039,6.58032 z M7.78039,5.93817c0.02039,0,0.03058,0.01019,0.03058,0.03058c0,0.02039-0.01019,0.03058-0.03058,0.03058 c-0.02039,0-0.03058-0.01019-0.03058-0.03058C7.76001,5.95856,7.7702,5.93817,7.78039,5.93817z"/><path fill="#00A071" d="M9.53715,6.58032c0.33636,0,0.60138-0.27521,0.60138-0.60138 c0-0.33636-0.27521-0.60138-0.60138-0.60138S8.93577,5.65277,8.93577,5.97894C8.92558,6.30511,9.20079,6.58032,9.53715,6.58032 z M9.53715,5.93817c0.02039,0,0.03058,0.01019,0.03058,0.03058c0,0.02039-0.01019,0.03058-0.03058,0.03058 c-0.02038,0-0.03058-0.01019-0.03058-0.03058C9.50657,5.95856,9.51676,5.93817,9.53715,5.93817z"/></g><path fill="none" stroke="#00A071" stroke-linecap="round" stroke-linejoin="round" stroke-miterlimit="10" d="M51.5,34.5 c0,0.55228-0.44772,1-1,1h-45c-0.55228,0-1-0.44772-1-1v-29c0-0.55228,0.44772-1,1-1h45c0.55228,0,1,0.44772,1,1V34.5z"/><line x1="4.698" x2="51.019" y1="7.31" y2="7.324" fill="none" stroke="#00A071" stroke-linecap="round" stroke-linejoin="round" stroke-miterlimit="10"/></g></g></g></g></svg>