<?xml version="1.0" encoding="utf-8"?>
<!-- Generator: Adobe Illustrator 20.1.0, SVG Export Plug-In . SVG Version: 6.00 Build 0)  -->
<svg version="1.1" id="Calque_1" xmlns="http://www.w3.org/2000/svg" xmlns:xlink="http://www.w3.org/1999/xlink" x="0px" y="0px" width="1000px"
	 viewBox="0 0 534.8 302.5" xml:space="preserve">
<style type="text/css">
	.st0{fill:#494D4D;}
	.st1{fill:#F1F1F1;}
</style>
<rect class="st0" width="535.8" height="303.5"/>
<g>
	<g>
		<polygon class="st1" points="301.7,150.4 284.9,150.4 284.9,133.4 280.9,133.4 280.9,150.4 264,150.4 264,154.3 280.9,154.3
			280.9,171.3 284.9,171.3 284.9,154.3 301.7,154.3 		"/>
	</g>
	<path class="st1" d="M259,105.8c12.1,0,21.9,9.8,21.9,21.9h4c0-14.3-11.6-25.9-25.9-25.9c-14.3,0-26,11.6-26,25.9v49.2
		c0,14.3,11.6,25.9,25.9,25.9c14.3,0,26-11.6,26-25.9h-4c0,12.1-9.8,21.9-21.9,21.9c-12.1,0-21.9-9.8-21.9-21.9v-22.6h21.2v-4H237
		v-22.6C237,115.6,246.9,105.8,259,105.8z"/>
</g>
</svg>
