<?xml version="1.0" encoding="utf-8"?>
<!-- Generator: Adobe Illustrator 20.0.0, SVG Export Plug-In . SVG Version: 6.00 Build 0)  -->
<svg version="1.1" xmlns="http://www.w3.org/2000/svg" xmlns:xlink="http://www.w3.org/1999/xlink" x="0px" y="0px"
	 viewBox="0 0 23 23" enable-background="new 0 0 23 23" xml:space="preserve">
<g id="Guides" display="none">
</g>
<g id="footer">
	<g id="RS">
		<g id="google_plus_2_">
			<rect x="0" y="-0.08255" fill="#515151" width="23.14585" height="23.29088"/>
			<g id="g_x2B__4_">
				<g>
					<path fill="#FCFCFC" d="M14.41105,2.913H9.84233c-0.60632,0-1.25598,0.07068-1.94898,0.21185
						c-0.70007,0.16357-1.37488,0.5127-2.02441,1.04749C4.92326,5.08634,4.4506,6.10398,4.4506,7.22587
						c0,0.92883,0.3335,1.74231,1.00098,2.44067c0.63757,0.75043,1.5647,1.13293,2.78064,1.14777
						c0.22986,0,0.47449-0.01483,0.73401-0.04456c-0.04297,0.11932-0.08936,0.25-0.13965,0.39197
						c-0.05713,0.13446-0.08569,0.30273-0.08569,0.50421c0,0.33643,0.07495,0.62415,0.22534,0.86298
						c0.12891,0.24664,0.27576,0.47839,0.44043,0.69501c-0.53296,0.01483-1.20288,0.08142-2.00928,0.2002
						c-0.81421,0.14087-1.59155,0.42267-2.33154,0.84558c-0.65881,0.39282-1.11401,0.849-1.36548,1.36816
						c-0.25903,0.51923-0.38855,0.99011-0.38855,1.4129c0,0.86774,0.39832,1.61292,1.19482,2.23627
						c0.78906,0.66724,1.98389,1.00842,3.58411,1.02344c1.91138-0.02985,3.37415-0.48669,4.38782-1.37091
						c0.97754-0.85474,1.46631-1.83533,1.46631-2.9425c-0.01392-0.78027-0.19202-1.41187-0.53418-1.89478
						c-0.36304-0.47565-0.78552-0.91016-1.26709-1.30414L11.36857,12.163c-0.11182-0.11157-0.22705-0.24139-0.34558-0.39014
						c-0.13977-0.15613-0.20947-0.35278-0.20947-0.59076c0-0.24518,0.06812-0.46057,0.20422-0.64648
						c0.11572-0.17834,0.24146-0.33795,0.37769-0.47925c0.23816-0.20795,0.46277-0.41241,0.67383-0.61292
						c0.19043-0.20081,0.37085-0.41986,0.54114-0.65765c0.34729-0.49042,0.52759-1.1441,0.54114-1.96167
						c0-0.44586-0.05029-0.83594-0.15063-1.17023c-0.12207-0.33441-0.26172-0.62427-0.41956-0.86945
						c-0.16504-0.25989-0.33386-0.47925-0.50574-0.65765c-0.17944-0.17072-0.34082-0.30078-0.48425-0.39001h1.40881L14.41105,2.913z
						 M11.90641,15.37431c0.37817,0.43085,0.5675,0.93622,0.5675,1.51593c0,0.71338-0.27649,1.29681-0.82922,1.75031
						c-0.56738,0.46082-1.3894,0.69849-2.46594,0.7135c-1.20032-0.01501-2.14587-0.28253-2.83691-0.80273
						C5.6143,18.03092,5.2509,17.36949,5.2509,16.567c0-0.40887,0.0835-0.75799,0.25085-1.04791
						c0.14551-0.27502,0.32361-0.50549,0.53467-0.69116c0.21814-0.17828,0.43274-0.31586,0.64368-0.41241
						c0.21094-0.08923,0.37451-0.15613,0.49109-0.20081c0.49451-0.14862,0.97815-0.25623,1.45105-0.32312
						c0.4801-0.04456,0.77832-0.05951,0.89478-0.04456c0.19641,0,0.36719,0.00726,0.5127,0.02222
						C10.8809,14.46385,11.50627,14.96537,11.90641,15.37431z M11.16496,8.65104c-0.05518,0.3053-0.17969,0.60303-0.37292,0.89319
						c-0.40088,0.40979-0.90198,0.62573-1.50342,0.64807c-0.47595,0-0.89929-0.14508-1.26941-0.43555
						C7.64909,9.46635,7.34684,9.11271,7.11283,8.69572C6.62907,7.80235,6.38737,6.94218,6.38737,6.1157
						C6.37248,5.49046,6.538,4.92472,6.8842,4.41819C7.29435,3.93437,7.80924,3.68492,8.42839,3.6699
						C8.8964,3.68492,9.31022,3.82261,9.67045,4.08323c0.35278,0.27545,0.63708,0.63293,0.85315,1.07196
						c0.46069,0.91602,0.69116,1.82434,0.69116,2.72522C11.21476,8.08897,11.19792,8.34587,11.16496,8.65104z M18.98966,10.153
						V7.75511h-1.16125V10.153h-2.39722v1.16144h2.39722v2.39789h1.16125v-2.39789h2.39746V10.153H18.98966z"/>
				</g>
			</g>
		</g>
	</g>
</g>
<g id="contact">
	<g id="Réseaux_Sociaux">
	</g>
	<g id="form">
		<g id="btn_valider">
		</g>
	</g>
</g>
<g id="les_offres">
	<g id="personnalisation">
		<g id="thème_complet">
		</g>
		<g id="logo">
		</g>
		<g id="couleurs">
		</g>
		<g id="image_banniere">
		</g>
	</g>
	<g id="détail_flexiweb_plus">
		<g id="btn_voir_la_video">
		</g>
		<g id="timeline_1_">
			<g id="_x35__1_">
			</g>
			<g id="_x34__1_">
			</g>
			<g id="_x33__1_">
			</g>
			<g id="_x32__1_">
			</g>
			<g id="_x31__1_">
			</g>
		</g>
		<g id="etape_5">
		</g>
		<g id="etape_4">
		</g>
		<g id="etape_3">
		</g>
		<g id="etape_2">
		</g>
		<g id="etape_1">
		</g>
	</g>
	<g id="tableau">
		<g id="optiweb">
			<g id="btn_je_m_x27_inscris_3_">
			</g>
		</g>
		<g id="flexiweb__x2B_">
			<g id="btn_je_m_x27_inscris_2_">
			</g>
		</g>
		<g id="flexiweb">
			<g id="btn_je_m_x27_inscris_1_">
			</g>
		</g>
		<g id="ecoweb">
			<g id="btn_je_m_x27_inscris">
			</g>
		</g>
	</g>
</g>
<g id="photo_bkgd_pharma">
</g>
<g id="chiffres">
	<g id="_x35_0_x25_">
	</g>
	<g id="_x37_3_x25_">
	</g>
	<g id="_x37_2_x25_">
	</g>
	<g id="_x38_5_x25_">
	</g>
</g>
<g id="map__x2B__testimoniaux">
	<g id="testimoniaux">
	</g>
	<g id="map">
		<g id="cursor_clients">
		</g>
	</g>
</g>
<g id="_x36__bonnes_raisons_de_choisir">
	<g id="coût">
	</g>
	<g id="accompagnement">
	</g>
	<g id="satisfaction">
	</g>
	<g id="fidelisation">
	</g>
	<g id="expertise">
	</g>
	<g id="dev_service_de_proximité">
	</g>
	<g id="timeline">
	</g>
</g>
<g id="les_garanties">
	<g id="borders">
	</g>
</g>
<g id="les_objectifs">
	<g id="Augmenter">
	</g>
	<g id="Connecter">
	</g>
	<g id="Gagner">
	</g>
	<g id="Simplifier">
	</g>
	<g id="Aider">
	</g>
	<g id="Innover">
	</g>
</g>
<g id="actualités">
	<g id="btn_voir_toutes_les_actus">
	</g>
	<g id="hover_article">
	</g>
</g>
<g id="à_propos">
	<g id="btn_video_président">
	</g>
</g>
<g id="click_to_call">
</g>
<g id="home">
	<g id="bouton_téléchargez_le_livre_blanc">
	</g>
	<g id="header">
	</g>
</g>
<g id="illustration_72_x25_">
	<g id="Calque_73">
	</g>
	<g id="Calque_74">
	</g>
</g>
</svg>
