<?xml version="1.0" encoding="utf-8"?>
<!-- Generator: Adobe Illustrator 20.0.0, SVG Export Plug-In . SVG Version: 6.00 Build 0)  -->
<svg version="1.1" xmlns="http://www.w3.org/2000/svg" xmlns:xlink="http://www.w3.org/1999/xlink" x="0px" y="0px"
	 viewBox="0 0 23 23" enable-background="new 0 0 23 23" xml:space="preserve">
<g id="Guides" display="none">
</g>
<g id="footer">
	<g id="RS">
		<g id="twitter_2_">
			<rect x="-0.27081" y="-0.1875" fill="#FFFFFF" width="23.41665" height="23.35417"/>
			<path id="twitter-icon_4_" fill="#515151" d="M21.13053,6.05698c-0.65201,0.28846-1.35275,0.48343-2.08821,0.57099
				c0.75055-0.44877,1.32716-1.15935,1.59858-2.00614c-0.70255,0.41557-1.48063,0.71732-2.30882,0.87991
				c-0.66319-0.70475-1.60813-1.14503-2.65388-1.14503c-2.34685,0-4.07206,2.18426-3.54165,4.45239
				C9.1148,8.65793,6.43571,7.21423,4.6425,5.02049C3.69008,6.64994,4.14848,8.78238,5.76766,9.86168
				C5.17174,9.84289,4.61097,9.67974,4.12086,9.40806c-0.03944,1.68002,1.16766,3.25095,2.91614,3.60136
				c-0.5117,0.13886-1.07217,0.17065-1.64185,0.06207c0.46257,1.44056,1.80539,2.48893,3.39639,2.51815
				c-1.52859,1.1947-3.45382,1.72833-5.38283,1.50161c1.60899,1.02881,3.52014,1.62919,5.57338,1.62919
				c6.75029,0,10.56405-5.68635,10.33418-10.78639C20.02675,7.42281,20.6431,6.78417,21.13053,6.05698z"/>
		</g>
	</g>
</g>
<g id="contact">
	<g id="Réseaux_Sociaux">
	</g>
	<g id="form">
		<g id="btn_valider">
		</g>
	</g>
</g>
<g id="les_offres">
	<g id="personnalisation">
		<g id="thème_complet">
		</g>
		<g id="logo">
		</g>
		<g id="couleurs">
		</g>
		<g id="image_banniere">
		</g>
	</g>
	<g id="détail_flexiweb_plus">
		<g id="btn_voir_la_video">
		</g>
		<g id="timeline_1_">
			<g id="_x35__1_">
			</g>
			<g id="_x34__1_">
			</g>
			<g id="_x33__1_">
			</g>
			<g id="_x32__1_">
			</g>
			<g id="_x31__1_">
			</g>
		</g>
		<g id="etape_5">
		</g>
		<g id="etape_4">
		</g>
		<g id="etape_3">
		</g>
		<g id="etape_2">
		</g>
		<g id="etape_1">
		</g>
	</g>
	<g id="tableau">
		<g id="optiweb">
			<g id="btn_je_m_x27_inscris_3_">
			</g>
		</g>
		<g id="flexiweb__x2B_">
			<g id="btn_je_m_x27_inscris_2_">
			</g>
		</g>
		<g id="flexiweb">
			<g id="btn_je_m_x27_inscris_1_">
			</g>
		</g>
		<g id="ecoweb">
			<g id="btn_je_m_x27_inscris">
			</g>
		</g>
	</g>
</g>
<g id="photo_bkgd_pharma">
</g>
<g id="chiffres">
	<g id="_x35_0_x25_">
	</g>
	<g id="_x37_3_x25_">
	</g>
	<g id="_x37_2_x25_">
	</g>
	<g id="_x38_5_x25_">
	</g>
</g>
<g id="map__x2B__testimoniaux">
	<g id="testimoniaux">
	</g>
	<g id="map">
		<g id="cursor_clients">
		</g>
	</g>
</g>
<g id="_x36__bonnes_raisons_de_choisir">
	<g id="coût">
	</g>
	<g id="accompagnement">
	</g>
	<g id="satisfaction">
	</g>
	<g id="fidelisation">
	</g>
	<g id="expertise">
	</g>
	<g id="dev_service_de_proximité">
	</g>
	<g id="timeline">
	</g>
</g>
<g id="les_garanties">
	<g id="borders">
	</g>
</g>
<g id="les_objectifs">
	<g id="Augmenter">
	</g>
	<g id="Connecter">
	</g>
	<g id="Gagner">
	</g>
	<g id="Simplifier">
	</g>
	<g id="Aider">
	</g>
	<g id="Innover">
	</g>
</g>
<g id="actualités">
	<g id="btn_voir_toutes_les_actus">
	</g>
	<g id="hover_article">
	</g>
</g>
<g id="à_propos">
	<g id="btn_video_président">
	</g>
</g>
<g id="click_to_call">
</g>
<g id="home">
	<g id="bouton_téléchargez_le_livre_blanc">
	</g>
	<g id="header">
	</g>
</g>
<g id="illustration_72_x25_">
	<g id="Calque_73">
	</g>
	<g id="Calque_74">
	</g>
</g>
</svg>
