<?xml version="1.0" encoding="utf-8"?>
<!-- Generator: Adobe Illustrator 16.0.0, SVG Export Plug-In . SVG Version: 6.00 Build 0)  -->
<!DOCTYPE svg PUBLIC "-//W3C//DTD SVG 1.1//EN" "http://www.w3.org/Graphics/SVG/1.1/DTD/svg11.dtd">
<svg version="1.1" id="Layer_1" xmlns="http://www.w3.org/2000/svg" xmlns:xlink="http://www.w3.org/1999/xlink" x="0px" y="0px"
	 width="23px" height="23px" viewBox="0 0 23 23" enable-background="new 0 0 23 23" xml:space="preserve">
<rect fill="#FFFFFF" width="23" height="23"/>
<g>
	<path fill-rule="evenodd" clip-rule="evenodd" fill="#525252" d="M11.958,6.964C11.466,7.502,11,8.011,10.495,8.564
		C9.542,7.777,8.492,7.476,7.327,7.695C6.514,7.849,5.823,8.247,5.258,8.859c-1.12,1.215-1.346,3.045-0.552,4.489
		c0.803,1.459,2.409,2.239,4.021,1.949c1.469-0.263,2.523-1.247,2.724-2.64c-0.808,0-1.603,0.006-2.398,0
		c-1.093-0.009-0.993,0.129-0.998-0.989c-0.004-1.033-0.001-1.033,1.049-1.033c1.387,0.001,2.772,0.012,4.159-0.006
		c0.354-0.005,0.51,0.103,0.535,0.459c0.203,2.889-1.223,5.606-4.434,6.316c-3.232,0.713-6.518-1.356-7.22-4.591
		c-0.72-3.316,1.343-6.543,4.62-7.226C8.696,5.185,10.68,5.714,11.958,6.964z"/>
	<path fill-rule="evenodd" clip-rule="evenodd" fill="#525252" d="M19.192,14.034c-0.54,0-1.039,0-1.6,0c0-0.547,0-1.079,0-1.699
		c-0.587,0-1.115,0-1.686,0c0-0.599,0-1.111,0-1.694c0.541,0,1.073,0,1.65,0c0-0.584,0-1.101,0-1.663c0.561,0,1.073,0,1.672,0
		c0,0.528,0,1.058,0,1.645c0.618,0,1.152,0,1.764,0c0,0.5,0.021,0.943-0.013,1.384c-0.004,0.051,0.013,0.284,0.013,0.284
		l-1.771,0.047C19.222,12.338,19.214,13.898,19.192,14.034z"/>
</g>
</svg>
