<svg xmlns="http://www.w3.org/2000/svg" xmlns:xlink="http://www.w3.org/1999/xlink" x="0" y="0" enable-background="new 0 0 23 23" version="1.1" viewBox="0 0 23 23" xml:space="preserve"><g id="footer"><g id="RS"><g id="twitter_2_"><rect width="23.417" height="23.354" x="-.271" y="-.188" fill="#FFF"/><path id="twitter-icon_4_" fill="#515151" d="M21.13053,6.05698c-0.65201,0.28846-1.35275,0.48343-2.08821,0.57099 c0.75055-0.44877,1.32716-1.15935,1.59858-2.00614c-0.70255,0.41557-1.48063,0.71732-2.30882,0.87991 c-0.66319-0.70475-1.60813-1.14503-2.65388-1.14503c-2.34685,0-4.07206,2.18426-3.54165,4.45239 C9.1148,8.65793,6.43571,7.21423,4.6425,5.02049C3.69008,6.64994,4.14848,8.78238,5.76766,9.86168 C5.17174,9.84289,4.61097,9.67974,4.12086,9.40806c-0.03944,1.68002,1.16766,3.25095,2.91614,3.60136 c-0.5117,0.13886-1.07217,0.17065-1.64185,0.06207c0.46257,1.44056,1.80539,2.48893,3.39639,2.51815 c-1.52859,1.1947-3.45382,1.72833-5.38283,1.50161c1.60899,1.02881,3.52014,1.62919,5.57338,1.62919 c6.75029,0,10.56405-5.68635,10.33418-10.78639C20.02675,7.42281,20.6431,6.78417,21.13053,6.05698z"/></g></g></g></svg>