<?xml version="1.0" encoding="utf-8"?>
<!-- Generator: Adobe Illustrator 20.0.0, SVG Export Plug-In . SVG Version: 6.00 Build 0)  -->
<svg version="1.1" xmlns="http://www.w3.org/2000/svg" xmlns:xlink="http://www.w3.org/1999/xlink" x="0px" y="0px"
	 viewBox="0 0 23 23" enable-background="new 0 0 23 23" xml:space="preserve">
<g id="Guides" display="none">
</g>
<g id="footer">
	<g id="RS">
		<g id="SCOOP_IT_1_">
			<rect x="-0.16667" y="-0.15625" fill="#515151" width="23.20836" height="23.41667"/>
			<g>
				<path fill="#FCFCFC" d="M11.8538,17.05144c0,0-0.09295,0.08043,0.10625-0.91551C12.15922,15.14,13.10203,11.25,13.10203,11.25
					h2.47655l0.23237-1h-2.48316l0.65067-3h-3.00771l-0.6573,3H8.627l-0.26557,1h1.65988l-1.18184,4.96561
					c0,0-0.21246,0.68349-0.09296,1.32088c0,0-0.79673,0.35172-1.50052,0.15252C7.2327,17.6492,6.59531,17.5163,6.71482,16.74612
					c0.11951-0.77018,1.07561-4.28917,1.07561-4.28917s0.51788-1.99853-0.73036-2.67577
					C5.83002,9.11381,4.3246,9.5322,2.89709,10.16959l-0.17926,0.85484c0,0,1.83528-0.76848,2.06488,0.17843
					c0.2324,0.95831-0.67722,3.57828-0.77016,3.8638c-0.08856,0.27199-0.71709,2.15098-0.01994,3.10044
					c0.48393,0.65904,1.96531,1.50043,5.01949-0.02666c0,0,0.94113,1.17332,2.90146,0.80333
					c2.00515-0.37845,2.34375-0.71045,2.34375-0.71045l0.22576-0.83661C14.48306,17.39671,12.07956,18.20672,11.8538,17.05144z"/>
				<path fill="#FCFCFC" d="M19.75484,5.57835c-1.51382-0.53116-2.49455,0.86799-2.61597,1.22167
					c-0.15271,0.44485-0.17263,0.59777-0.17263,0.59777L16.86001,14.25h0.71707l2.84171-6.50696
					C20.41879,7.74304,21.26864,6.10953,19.75484,5.57835z"/>
				<circle fill="#FCFCFC" cx="16.61212" cy="17.32145" r="1.75283"/>
				<ellipse fill="#FCFCFC" cx="7.2991" cy="6.23876" rx="1.80595" ry="1.71654"/>
			</g>
		</g>
	</g>
</g>
<g id="contact">
	<g id="Réseaux_Sociaux">
	</g>
	<g id="form">
		<g id="btn_valider">
		</g>
	</g>
</g>
<g id="les_offres">
	<g id="personnalisation">
		<g id="thème_complet">
		</g>
		<g id="logo">
		</g>
		<g id="couleurs">
		</g>
		<g id="image_banniere">
		</g>
	</g>
	<g id="détail_flexiweb_plus">
		<g id="btn_voir_la_video">
		</g>
		<g id="timeline_1_">
			<g id="_x35__1_">
			</g>
			<g id="_x34__1_">
			</g>
			<g id="_x33__1_">
			</g>
			<g id="_x32__1_">
			</g>
			<g id="_x31__1_">
			</g>
		</g>
		<g id="etape_5">
		</g>
		<g id="etape_4">
		</g>
		<g id="etape_3">
		</g>
		<g id="etape_2">
		</g>
		<g id="etape_1">
		</g>
	</g>
	<g id="tableau">
		<g id="optiweb">
			<g id="btn_je_m_x27_inscris_3_">
			</g>
		</g>
		<g id="flexiweb__x2B_">
			<g id="btn_je_m_x27_inscris_2_">
			</g>
		</g>
		<g id="flexiweb">
			<g id="btn_je_m_x27_inscris_1_">
			</g>
		</g>
		<g id="ecoweb">
			<g id="btn_je_m_x27_inscris">
			</g>
		</g>
	</g>
</g>
<g id="photo_bkgd_pharma">
</g>
<g id="chiffres">
	<g id="_x35_0_x25_">
	</g>
	<g id="_x37_3_x25_">
	</g>
	<g id="_x37_2_x25_">
	</g>
	<g id="_x38_5_x25_">
	</g>
</g>
<g id="map__x2B__testimoniaux">
	<g id="testimoniaux">
	</g>
	<g id="map">
		<g id="cursor_clients">
		</g>
	</g>
</g>
<g id="_x36__bonnes_raisons_de_choisir">
	<g id="coût">
	</g>
	<g id="accompagnement">
	</g>
	<g id="satisfaction">
	</g>
	<g id="fidelisation">
	</g>
	<g id="expertise">
	</g>
	<g id="dev_service_de_proximité">
	</g>
	<g id="timeline">
	</g>
</g>
<g id="les_garanties">
	<g id="borders">
	</g>
</g>
<g id="les_objectifs">
	<g id="Augmenter">
	</g>
	<g id="Connecter">
	</g>
	<g id="Gagner">
	</g>
	<g id="Simplifier">
	</g>
	<g id="Aider">
	</g>
	<g id="Innover">
	</g>
</g>
<g id="actualités">
	<g id="btn_voir_toutes_les_actus">
	</g>
	<g id="hover_article">
	</g>
</g>
<g id="à_propos">
	<g id="btn_video_président">
	</g>
</g>
<g id="click_to_call">
</g>
<g id="home">
	<g id="bouton_téléchargez_le_livre_blanc">
	</g>
	<g id="header">
	</g>
</g>
<g id="illustration_72_x25_">
	<g id="Calque_73">
	</g>
	<g id="Calque_74">
	</g>
</g>
</svg>
