<?xml version="1.0" encoding="utf-8"?>
<!-- Generator: Adobe Illustrator 20.0.0, SVG Export Plug-In . SVG Version: 6.00 Build 0)  -->
<svg version="1.1" xmlns="http://www.w3.org/2000/svg" xmlns:xlink="http://www.w3.org/1999/xlink" x="0px" y="0px"
	 viewBox="0 0 24 24" enable-background="new 0 0 24 24" xml:space="preserve">
<g id="Guides">
</g>
<g id="TELECHARGEMENT_LIVRE_BLANC">
	<g id="footer_2_">
	</g>
	<g id="form_1_">
		<g id="btn_telecharger">
		</g>
	</g>
	<g id="header_1_">
		<g id="nav_2_">
		</g>
	</g>
</g>
<g id="SOUSCRIPTION_PHARMINFO.FR">
	<g id="footer_1_">
		<g id="RS">
		</g>
	</g>
	<g id="form">
		<g id="btn_valider">
		</g>
	</g>
	<g id="header">
		<g id="nav_1_">
		</g>
	</g>
</g>
<g id="ACTUALITES">
	<g id="footer">
	</g>
	<g id="flux_RS">
		<g id="post_4">
		</g>
		<g id="post_3">
		</g>
		<g id="post_2">
			<path id="twitter-icon_2_" fill="#FFFFFF" d="M23.29175,5.04379c-0.81186,0.36014-1.6844,0.60356-2.60016,0.71288
				c0.93456-0.56029,1.65253-1.44745,1.99049-2.50466c-0.87479,0.51883-1.84363,0.89557-2.87486,1.09856
				c-0.82578-0.87988-2.00238-1.42956-3.30452-1.42956c-2.92221,0-5.07038,2.72704-4.40994,5.55879
				C8.3302,8.29105,4.99429,6.48861,2.76145,3.74974c-1.18592,2.03435-0.61513,4.6967,1.40101,6.0442
				C3.42044,9.77048,2.72219,9.56679,2.11193,9.2276c-0.04911,2.0975,1.45393,4.0588,3.63107,4.49627
				c-0.63714,0.17337-1.33503,0.21306-2.04437,0.0775c0.57598,1.79853,2.248,3.10742,4.22907,3.1439
				c-1.90335,1.49158-4.30057,2.15781-6.7025,1.87475c2.00345,1.28447,4.38316,2.03403,6.93977,2.03403
				c8.40521,0,13.15397-7.09938,12.86775-13.46676C21.91736,6.74902,22.68481,5.95168,23.29175,5.04379z"/>
		</g>
		<g id="post_1">
		</g>
	</g>
	<g id="btn_voir_tout">
	</g>
	<g id="article_4">
	</g>
	<g id="article_3">
	</g>
	<g id="article_2">
	</g>
	<g id="article_1">
	</g>
	<g id="Header">
		<g id="nav">
		</g>
	</g>
</g>
</svg>
