<svg xmlns="http://www.w3.org/2000/svg" xmlns:xlink="http://www.w3.org/1999/xlink" id="Layer_1" x="0" y="0" version="1.1" viewBox="0 0 23 23" xml:space="preserve" style="enable-background:new 0 0 23 23"><style type="text/css">.st0{fill:#515251}</style><g><path d="M15.8,1.9H7.2c-2.9,0-5.3,2.4-5.3,5.3v8.6c0,2.9,2.4,5.3,5.3,5.3h8.6c2.9,0,5.3-2.4,5.3-5.3V7.2 C21.1,4.3,18.7,1.9,15.8,1.9z M19.4,15.8c0,2-1.6,3.6-3.6,3.6H7.2c-2,0-3.6-1.6-3.6-3.6V7.2c0-2,1.6-3.6,3.6-3.6h8.6 c2,0,3.6,1.6,3.6,3.6L19.4,15.8L19.4,15.8z" class="st0"/><path d="M11.5,6.6c-2.7,0-4.9,2.2-4.9,4.9c0,2.7,2.2,4.9,4.9,4.9s4.9-2.2,4.9-4.9C16.4,8.8,14.2,6.6,11.5,6.6z M11.5,14.7c-1.8,0-3.2-1.4-3.2-3.2c0-1.8,1.4-3.2,3.2-3.2s3.2,1.4,3.2,3.2C14.7,13.3,13.3,14.7,11.5,14.7z" class="st0"/><path d="M16.6,5.1c-0.3,0-0.6,0.1-0.9,0.4c-0.2,0.2-0.4,0.6-0.4,0.9c0,0.3,0.1,0.6,0.4,0.9c0.2,0.2,0.6,0.4,0.9,0.4 c0.3,0,0.6-0.1,0.9-0.4c0.2-0.2,0.4-0.6,0.4-0.9c0-0.3-0.1-0.6-0.4-0.9C17.3,5.3,17,5.1,16.6,5.1z" class="st0"/></g></svg>