<?xml version="1.0" encoding="utf-8"?>
<!-- Generator: Adobe Illustrator 20.0.0, SVG Export Plug-In . SVG Version: 6.00 Build 0)  -->
<svg version="1.1" xmlns="http://www.w3.org/2000/svg" xmlns:xlink="http://www.w3.org/1999/xlink" x="0px" y="0px"
	 viewBox="0 0 23 23" enable-background="new 0 0 23 23" xml:space="preserve">
<g id="Guides" display="none">
</g>
<g id="footer">
	<g id="RS">
		<g id="SCOOP_IT_2_">
			<rect x="-0.04167" y="-0.23958" fill="#FFFFFF" width="23.20836" height="23.41667"/>
			<g>
				<path fill="#515151" d="M11.9788,16.96811c0,0-0.09295,0.08043,0.10625-0.91551
					c0.19917-0.99594,1.14198-4.88594,1.14198-4.88594h2.47655l0.23237-1h-2.48316l0.65067-3h-3.00771l-0.6573,3H8.752l-0.26557,1
					h1.65988l-1.18184,4.96561c0,0-0.21246,0.68349-0.09296,1.32089c0,0-0.79673,0.35172-1.50052,0.15251
					c-0.01328-0.03981-0.65067-0.17271-0.53116-0.94289c0.11951-0.77018,1.07561-4.28917,1.07561-4.28917
					s0.51788-1.99853-0.73036-2.67577C5.95502,9.03048,4.4496,9.44887,3.02209,10.08626L2.84282,10.9411
					c0,0,1.83528-0.76848,2.06488,0.17843c0.2324,0.95831-0.67722,3.57828-0.77016,3.8638
					c-0.08856,0.27199-0.71709,2.15098-0.01994,3.10044c0.48393,0.65904,1.96531,1.50044,5.01949-0.02666
					c0,0,0.94113,1.17332,2.90146,0.80333c2.00515-0.37845,2.34375-0.71045,2.34375-0.71045l0.22576-0.83661
					C14.60806,17.31337,12.20456,18.12338,11.9788,16.96811z"/>
				<path fill="#515151" d="M19.87984,5.49502c-1.51382-0.53116-2.49455,0.86799-2.61597,1.22168
					c-0.15271,0.44485-0.17263,0.59777-0.17263,0.59777l-0.10623,6.85221h0.71707l2.84171-6.50696
					C20.54379,7.65971,21.39364,6.02619,19.87984,5.49502z"/>
				<circle fill="#515151" cx="16.73712" cy="17.23811" r="1.75283"/>
				<ellipse fill="#515151" cx="7.4241" cy="6.15542" rx="1.80595" ry="1.71654"/>
			</g>
		</g>
	</g>
</g>
<g id="contact">
	<g id="Réseaux_Sociaux">
	</g>
	<g id="form">
		<g id="btn_valider">
		</g>
	</g>
</g>
<g id="les_offres">
	<g id="personnalisation">
		<g id="thème_complet">
		</g>
		<g id="logo">
		</g>
		<g id="couleurs">
		</g>
		<g id="image_banniere">
		</g>
	</g>
	<g id="détail_flexiweb_plus">
		<g id="btn_voir_la_video">
		</g>
		<g id="timeline_1_">
			<g id="_x35__1_">
			</g>
			<g id="_x34__1_">
			</g>
			<g id="_x33__1_">
			</g>
			<g id="_x32__1_">
			</g>
			<g id="_x31__1_">
			</g>
		</g>
		<g id="etape_5">
		</g>
		<g id="etape_4">
		</g>
		<g id="etape_3">
		</g>
		<g id="etape_2">
		</g>
		<g id="etape_1">
		</g>
	</g>
	<g id="tableau">
		<g id="optiweb">
			<g id="btn_je_m_x27_inscris_3_">
			</g>
		</g>
		<g id="flexiweb__x2B_">
			<g id="btn_je_m_x27_inscris_2_">
			</g>
		</g>
		<g id="flexiweb">
			<g id="btn_je_m_x27_inscris_1_">
			</g>
		</g>
		<g id="ecoweb">
			<g id="btn_je_m_x27_inscris">
			</g>
		</g>
	</g>
</g>
<g id="photo_bkgd_pharma">
</g>
<g id="chiffres">
	<g id="_x35_0_x25_">
	</g>
	<g id="_x37_3_x25_">
	</g>
	<g id="_x37_2_x25_">
	</g>
	<g id="_x38_5_x25_">
	</g>
</g>
<g id="map__x2B__testimoniaux">
	<g id="testimoniaux">
	</g>
	<g id="map">
		<g id="cursor_clients">
		</g>
	</g>
</g>
<g id="_x36__bonnes_raisons_de_choisir">
	<g id="coût">
	</g>
	<g id="accompagnement">
	</g>
	<g id="satisfaction">
	</g>
	<g id="fidelisation">
	</g>
	<g id="expertise">
	</g>
	<g id="dev_service_de_proximité">
	</g>
	<g id="timeline">
	</g>
</g>
<g id="les_garanties">
	<g id="borders">
	</g>
</g>
<g id="les_objectifs">
	<g id="Augmenter">
	</g>
	<g id="Connecter">
	</g>
	<g id="Gagner">
	</g>
	<g id="Simplifier">
	</g>
	<g id="Aider">
	</g>
	<g id="Innover">
	</g>
</g>
<g id="actualités">
	<g id="btn_voir_toutes_les_actus">
	</g>
	<g id="hover_article">
	</g>
</g>
<g id="à_propos">
	<g id="btn_video_président">
	</g>
</g>
<g id="click_to_call">
</g>
<g id="home">
	<g id="bouton_téléchargez_le_livre_blanc">
	</g>
	<g id="header">
	</g>
</g>
<g id="illustration_72_x25_">
	<g id="Calque_73">
	</g>
	<g id="Calque_74">
	</g>
</g>
</svg>
