<svg xmlns="http://www.w3.org/2000/svg" xmlns:xlink="http://www.w3.org/1999/xlink" id="Layer_1" x="0" y="0" version="1.1" viewBox="0 0 23 23" xml:space="preserve" style="enable-background:new 0 0 23 23"><style type="text/css">.st0{fill:#515251}</style><g id="XMLID_822_"><path id="XMLID_823_" d="M21.3,5.4c-0.8-0.9-2.2-1.3-4.8-1.3H6.8c-2.7,0-4.2,0.4-4.9,1.3C1.2,6.4,1.2,7.8,1.2,9.7v3.6 c0,3.7,0.9,5.6,5.6,5.6h9.7c2.3,0,3.6-0.3,4.4-1.1c0.9-0.8,1.2-2.1,1.2-4.4V9.7C22.1,7.7,22.1,6.3,21.3,5.4z M14.6,12l-4.4,2.3 c-0.1,0.1-0.2,0.1-0.3,0.1c-0.1,0-0.2,0-0.4-0.1c-0.2-0.1-0.3-0.3-0.3-0.6V9.1c0-0.2,0.1-0.5,0.3-0.6c0.2-0.1,0.5-0.1,0.7,0 l4.4,2.3c0.2,0.1,0.4,0.3,0.4,0.6C15,11.7,14.8,11.9,14.6,12z" class="st0"/></g></svg>