<svg xmlns="http://www.w3.org/2000/svg" xmlns:xlink="http://www.w3.org/1999/xlink" x="0" y="0" enable-background="new 0 0 23 23" version="1.1" viewBox="0 0 23 23" xml:space="preserve"><g id="footer"><g id="RS"><g id="linkedin_3_"><rect width="23.208" height="23.208" x="-.167" y="-.083" fill="#FFF"/></g><path id="linkedin-icon_3_" fill="#515151" d="M7.827,5.11389c0,1.11256-0.89459,2.01443-1.99813,2.01443 S3.83074,6.22645,3.83074,5.11389c0-1.11252,0.89459-2.01439,1.99813-2.01439C6.93245,3.0995,7.827,4.00137,7.827,5.11389z M7.53463,8.55789H4.15558V19.4747h3.37906V8.55789z M12.9361,8.55789H9.6952V19.4747h3.2409c0,0,0-4.04917,0-5.73057 c0-1.53514,0.70664-2.44893,2.0591-2.44893c1.24277,0,1.83979,0.87723,1.83979,2.44893c0,1.57174,0,5.73057,0,5.73057h3.36268 c0,0,0-3.98824,0-6.91236s-1.65696-4.33748-3.97194-4.33748s-3.28967,1.80322-3.28967,1.80322V8.55789H12.9361z"/></g></g></svg>