<svg xmlns="http://www.w3.org/2000/svg" xmlns:xlink="http://www.w3.org/1999/xlink" x="0" y="0" enable-background="new 0 0 98.75 101.333" version="1.1" viewBox="0 0 98.75 101.333" xml:space="preserve"><g id="les_offres"><g id="détail_flexiweb_plus"><g id="etape_5"><g id="paume_3_"><path fill="#E9CDA0" d="M70.29723,59.20944l-1.29797,7.67067c0,0-3.60498,7.29916-11.55089,6.69315 c-0.72113,1.18265-3.5191,5.53825-3.5191,5.53825L34.0262,66.27546l6.20168-9.86501l18.34545,1.26918L70.29723,59.20944z"/></g><g id="pouce_3_"><path fill="#E9CDA0" d="M44.68921,50.58375c0,0,1.49994-7.12473,1.24034-13.49948s-3.54794-6.46129-3.54794-6.46129 s-1.97588,0.08653-2.50952,1.64417c-0.34614,0.86535-0.02885,2.52875-0.99035,6.41322 c-0.9615,3.88446-1.51917,5.69209-1.51917,5.69209s-1.57686,5.30749-1.38456,7.05742 c0.1923,1.74993,0.51921,4.59598,2.76912,7.32664c-0.23076,0.63459-4.44214,7.05743-4.44214,7.05743L44.7469,64.8909 L44.68921,50.58375z"/></g><g id="chemise_7_"><rect width="10.554" height="27.096" x="37.319" y="60.813" fill="#FFF" transform="matrix(0.54282 -0.83985 0.83985 0.54282 -42.97815 69.77035)"/></g><g id="ombre_chemise_8_"><rect width="9.709" height="13.497" x="43.682" y="70.948" fill="#E6E8E8" transform="matrix(0.54282 -0.83985 0.83985 0.54282 -43.06402 76.28413)"/></g><g id="veste_3_"><polygon fill="#009E71" points="26.763 68.478 54.463 86.381 46.833 98.333 7.509 98.441"/></g><g id="ombre_veste_3_" opacity=".31"><polygon fill="#525252" points="40.613 77.446 54.463 86.397 46.802 98.365 27.677 98.396"/></g><g id="boutonnier_2_"><ellipse cx="51.339" cy="79.327" fill="#F0C03D" rx="1.661" ry="1.661" transform="matrix(0.54282 -0.83985 0.83985 0.54282 -43.15185 79.38354)"/></g><rect id="feuille_ordonnance_2_" width="27.188" height="37.47" x="47.507" y="15.382" fill="#FFF" stroke="#1D1D1B" stroke-miterlimit="10"/><path id="signature_2_" fill="none" stroke="#231F20" stroke-miterlimit="10" d="M66.32619,44.9498 c-0.37659-1.48691-0.3253-3.07963,0.14618-4.53923c0.04195-0.12986,0.11183-0.27996,0.24717-0.29745 c0.12435-0.01608,0.22707,0.09127,0.30302,0.19104c0.47044,0.61794,0.81059,1.33459,0.99187,2.08978 c-0.01748-0.4524,0.15692-0.90911,0.47149-1.23471c0.17478,0.46045,0.39908,0.90208,0.66777,1.31484 c0.02428-0.44148,0.14198-0.87761,0.34312-1.27136c0.53568,0.88543,1.08962,1.94037,0.71219,2.90395 c-0.18918,0.48294-0.5863,0.85032-0.98253,1.18502c-0.73931,0.62451-1.5209,1.19896-2.33765,1.71812 c-0.26115,0.166-0.53299,0.3292-0.83646,0.38972s-0.64866,0.00009-0.8587-0.22716"/><g id="nom_signature_2_"><path d="M65.7293,39.27592h0.10917c0.14581,0,0.21546,0.09193,0.21546,0.23486c0,0.14367-0.06966,0.23846-0.21475,0.23846 H65.7293V39.27592z M65.83488,39.72124c0.12856,0,0.18459-0.08691,0.18459-0.21046c0-0.12281-0.05602-0.20686-0.18459-0.20686 h-0.07254v0.41731H65.83488z"/><path d="M66.15817,39.40449h0.0273l0.00287,0.06393h0.00216c0.02299-0.04238,0.05674-0.07256,0.09768-0.07256 c0.01292,0,0.02299,0.00144,0.03448,0.00719l-0.00719,0.02873c-0.01149-0.00431-0.01796-0.00574-0.0316-0.00574 c-0.03088,0-0.06751,0.0237-0.09409,0.08835v0.23486h-0.03161V39.40449z"/><path d="M66.53027,39.27592h0.04597l0.09912,0.27797l0.03735,0.10487h0.00288l0.03663-0.10487l0.0984-0.27797h0.04668v0.47333 h-0.03233v-0.311c0-0.03878,0.00215-0.08835,0.00431-0.12785h-0.00287l-0.03664,0.10415l-0.10198,0.28299h-0.02873 l-0.102-0.28299l-0.03735-0.10415h-0.00288c0.00144,0.0395,0.00359,0.08907,0.00359,0.12785v0.311h-0.03017V39.27592z"/><path d="M67.23425,39.53307c0.00144-0.05243-0.01364-0.10917-0.08115-0.10917c-0.04669,0-0.08691,0.02298-0.10989,0.04022 l-0.01437-0.0237c0.02441-0.01724,0.07182-0.04455,0.12785-0.04455c0.08188,0,0.10917,0.0589,0.10917,0.13288v0.22051h-0.02657 l-0.00359-0.04453h-0.00144c-0.03519,0.02801-0.07685,0.05315-0.12209,0.05315c-0.05459,0-0.10056-0.02945-0.10056-0.09482 C67.0116,39.58692,67.08126,39.5503,67.23425,39.53307z M67.11718,39.73057c0.03951,0,0.0747-0.01938,0.11707-0.05602v-0.11708 c-0.14149,0.01654-0.18961,0.04957-0.18961,0.10415C67.04464,39.71119,67.07768,39.73057,67.11718,39.73057z"/><path d="M67.38947,39.40449h0.02729l0.00288,0.06393h0.00215c0.02298-0.04238,0.05673-0.07256,0.09768-0.07256 c0.01292,0,0.02298,0.00144,0.03448,0.00719l-0.00719,0.02873c-0.0115-0.00431-0.01795-0.00574-0.03161-0.00574 c-0.03088,0-0.0675,0.0237-0.09409,0.08835v0.23486h-0.0316V39.40449z"/><path d="M67.62508,39.43178h-0.05386v-0.02443l0.05459-0.00286l0.00431-0.09984h0.02729v0.09984h0.09983v0.02729H67.6574 v0.22481c0,0.04383,0.01077,0.07326,0.05818,0.07326c0.01292,0,0.03088-0.00503,0.04309-0.01077l0.00862,0.02587 c-0.02011,0.00717-0.04166,0.01293-0.05603,0.01293c-0.0668,0-0.08619-0.04238-0.08619-0.10415V39.43178z"/><path d="M67.8291,39.29316c0-0.01794,0.01293-0.02873,0.02873-0.02873s0.02872,0.01079,0.02872,0.02873 c0,0.01654-0.01292,0.02803-0.02872,0.02803S67.8291,39.3097,67.8291,39.29316z M67.84132,39.40449h0.0316v0.34476h-0.0316 V39.40449z"/><path d="M68.00581,39.40449h0.0273l0.00286,0.05316h0.00217c0.03519-0.0352,0.0711-0.06179,0.1185-0.06179 c0.07111,0,0.10415,0.04311,0.10415,0.13218v0.22121h-0.0316v-0.2169c0-0.07325-0.02299-0.10773-0.079-0.10773 c-0.04095,0-0.0704,0.02154-0.11277,0.06462v0.26001h-0.0316V39.40449z"/><path d="M68.50938,39.39586c0.08188,0,0.13216,0.05818,0.13216,0.15947c0,0.00861,0,0.01724-0.00143,0.02585h-0.24851 c0.00143,0.08691,0.05243,0.14939,0.13,0.14939c0.03734,0,0.06679-0.01221,0.09264-0.03087l0.01294,0.0244 c-0.0273,0.01652-0.05818,0.03378-0.10847,0.03378c-0.08834,0-0.15944-0.06753-0.15944-0.18029 C68.35928,39.46481,68.43253,39.39586,68.50938,39.39586z M68.61137,39.55675c0-0.08833-0.03951-0.13358-0.10126-0.13358 c-0.0589,0-0.11134,0.05099-0.11852,0.13358H68.61137z"/><path d="M68.87935,39.27592h0.10918c0.14581,0,0.21548,0.09193,0.21548,0.23486c0,0.14367-0.06967,0.23846-0.21477,0.23846 h-0.10989V39.27592z M68.98494,39.72124c0.12856,0,0.18459-0.08691,0.18459-0.21046c0-0.12281-0.05603-0.20686-0.18459-0.20686 H68.9124v0.41731H68.98494z"/><path d="M69.30322,39.40449h0.0316v0.21691c0,0.07325,0.02298,0.10773,0.07829,0.10773 c0.04093,0,0.0711-0.02155,0.11132-0.07037v-0.25426h0.03161v0.34476h-0.02658l-0.00359-0.05746h-0.00143 c-0.03376,0.0395-0.06967,0.06609-0.11707,0.06609c-0.07111,0-0.10415-0.0431-0.10415-0.13218V39.40449z"/><path d="M69.68826,39.40449h0.0273l0.00286,0.06393h0.00217c0.02298-0.04238,0.05674-0.07256,0.09768-0.07256 c0.01292,0,0.02298,0.00144,0.03448,0.00719l-0.00719,0.02873c-0.0115-0.00431-0.01796-0.00574-0.03161-0.00574 c-0.03088,0-0.0675,0.0237-0.09409,0.08835v0.23486h-0.0316V39.40449z"/><path d="M70.10272,39.53307c0.00144-0.05243-0.01364-0.10917-0.08116-0.10917c-0.04668,0-0.0869,0.02298-0.10989,0.04022 l-0.01437-0.0237c0.02441-0.01724,0.07182-0.04455,0.12785-0.04455c0.08189,0,0.10917,0.0589,0.10917,0.13288v0.22051h-0.02657 l-0.00359-0.04453h-0.00144c-0.03519,0.02801-0.07685,0.05315-0.12209,0.05315c-0.05459,0-0.10056-0.02945-0.10056-0.09482 C69.88007,39.58692,69.94975,39.5503,70.10272,39.53307z M69.98565,39.73057c0.03951,0,0.0747-0.01938,0.11707-0.05602v-0.11708 c-0.14149,0.01654-0.18961,0.04957-0.18961,0.10415C69.91311,39.71119,69.94615,39.73057,69.98565,39.73057z"/><path d="M70.25793,39.40449h0.0273l0.00286,0.05316h0.00217c0.03519-0.0352,0.0711-0.06179,0.1185-0.06179 c0.07111,0,0.10415,0.04311,0.10415,0.13218v0.22121h-0.0316v-0.2169c0-0.07325-0.02299-0.10773-0.079-0.10773 c-0.04095,0-0.0704,0.02154-0.11277,0.06462v0.26001h-0.0316V39.40449z"/><path d="M70.76438,39.39586c0.04165,0,0.06966,0.01582,0.10413,0.04239l-0.00143-0.06321v-0.14221h0.0316v0.51641H70.8714 l-0.00288-0.04453h-0.00215c-0.02801,0.02801-0.06608,0.05315-0.11205,0.05315c-0.08691,0-0.14293-0.06393-0.14293-0.18029 C70.61139,39.46626,70.6825,39.39586,70.76438,39.39586z M70.75864,39.72985c0.03807,0,0.07182-0.0201,0.10845-0.05674v-0.20469 c-0.03663-0.03231-0.0668-0.04453-0.10056-0.04453c-0.06895,0-0.12138,0.06679-0.12138,0.1537 C70.64515,39.66881,70.68537,39.72985,70.75864,39.72985z"/></g><g id="indications_medicaments_2_"><path d="M49.47342,29.30086h0.10774v-0.38067h-0.08189v-0.02154c0.03735-0.00647,0.0668-0.01652,0.08834-0.02873h0.02586 v0.43094h0.09985v0.02801h-0.2399V29.30086z"/><path d="M49.92886,29.13567h0.15801v0.02801h-0.15801V29.13567z"/><path d="M50.32539,28.85554h0.12927c0.10559,0,0.16808,0.03448,0.16808,0.13216c0,0.09266-0.06321,0.1379-0.16808,0.1379 h-0.09624v0.20327h-0.03304V28.85554z M50.44606,29.09759c0.09696,0,0.14293-0.03231,0.14293-0.10989 c0-0.07972-0.04669-0.10415-0.14293-0.10415h-0.08763v0.21404H50.44606z"/><path d="M50.88857,29.11269c0.00144-0.05243-0.01365-0.10917-0.08115-0.10917c-0.04669,0-0.08691,0.02298-0.10989,0.04022 l-0.01437-0.0237c0.02441-0.01724,0.07182-0.04455,0.12784-0.04455c0.08189,0,0.10917,0.0589,0.10917,0.13288v0.22051H50.8936 l-0.00359-0.04453h-0.00144c-0.03519,0.02801-0.07685,0.05315-0.1221,0.05315c-0.05459,0-0.10056-0.02945-0.10056-0.09482 C50.66591,29.16654,50.73558,29.12993,50.88857,29.11269z M50.77149,29.31019c0.0395,0,0.0747-0.01938,0.11707-0.05602v-0.11708 c-0.1415,0.01654-0.18962,0.04957-0.18962,0.10415C50.69895,29.29081,50.73199,29.31019,50.77149,29.31019z"/><path d="M51.04378,28.98412h0.02729l0.00288,0.06393h0.00215c0.02298-0.04238,0.05674-0.07256,0.09768-0.07256 c0.01292,0,0.02298,0.00144,0.03447,0.00719l-0.00719,0.02873c-0.01149-0.0043-0.01795-0.00574-0.0316-0.00574 c-0.03088,0-0.06751,0.0237-0.09409,0.08835v0.23486h-0.0316V28.98412z"/><path d="M51.45824,29.11269c0.00144-0.05243-0.01365-0.10917-0.08115-0.10917c-0.04669,0-0.08691,0.02298-0.10989,0.04022 l-0.01437-0.0237c0.02442-0.01724,0.07183-0.04455,0.12784-0.04455c0.08189,0,0.10917,0.0589,0.10917,0.13288v0.22051h-0.02657 l-0.00359-0.04453h-0.00144c-0.03519,0.02801-0.07685,0.05315-0.1221,0.05315c-0.05458,0-0.10056-0.02945-0.10056-0.09482 C51.23558,29.16654,51.30525,29.12993,51.45824,29.11269z M51.34116,29.31019c0.0395,0,0.0747-0.01938,0.11707-0.05602v-0.11708 c-0.1415,0.01654-0.18962,0.04957-0.18962,0.10415C51.26862,29.29081,51.30166,29.31019,51.34116,29.31019z"/><path d="M51.74201,28.97549c0.04741,0,0.07829,0.02084,0.10127,0.04239l-0.01868,0.02226 c-0.02226-0.02082-0.04812-0.03662-0.08187-0.03662c-0.07038,0-0.12498,0.06248-0.12498,0.1537 c0,0.09049,0.04956,0.15226,0.12498,0.15226c0.03663,0,0.06823-0.01794,0.09193-0.0395l0.01652,0.02156 c-0.02944,0.02657-0.06608,0.04597-0.10988,0.04597c-0.08907,0-0.15658-0.06609-0.15658-0.18029 C51.58472,29.04158,51.65797,28.97549,51.74201,28.97549z"/><path d="M52.04518,28.97549c0.08187,0,0.13216,0.05818,0.13216,0.15947c0,0.00861,0,0.01724-0.00144,0.02585h-0.24851 c0.00143,0.08691,0.05243,0.14939,0.13,0.14939c0.03734,0,0.06679-0.01221,0.09265-0.03087l0.01293,0.0244 c-0.0273,0.01652-0.05818,0.03378-0.10846,0.03378c-0.08834,0-0.15944-0.06753-0.15944-0.18029 C51.89506,29.04444,51.96832,28.97549,52.04518,28.97549z M52.14716,29.13637c0-0.08833-0.0395-0.13358-0.10126-0.13358 c-0.0589,0-0.11134,0.05099-0.11852,0.13358H52.14716z M52.03224,28.91803h-0.02657l0.06536-0.09766h0.03807L52.03224,28.91803z"/><path d="M52.27077,29.0114h-0.05386v-0.02443l0.05458-0.00286l0.00431-0.09984h0.0273v0.09984h0.09983v0.02729H52.3031v0.22481 c0,0.04383,0.01077,0.07326,0.05818,0.07326c0.01292,0,0.03088-0.00503,0.04309-0.01077l0.00862,0.02587 c-0.02011,0.00717-0.04166,0.01293-0.05603,0.01293c-0.06679,0-0.08619-0.04238-0.08619-0.10415V29.0114z"/><path d="M52.67518,29.11269c0.00144-0.05243-0.01365-0.10917-0.08115-0.10917c-0.04669,0-0.08691,0.02298-0.10989,0.04022 l-0.01437-0.0237c0.02441-0.01724,0.07182-0.04455,0.12784-0.04455c0.08189,0,0.10917,0.0589,0.10917,0.13288v0.22051h-0.02657 l-0.00359-0.04453h-0.00144c-0.03519,0.02801-0.07685,0.05315-0.1221,0.05315c-0.05459,0-0.10056-0.02945-0.10056-0.09482 C52.45253,29.16654,52.52219,29.12993,52.67518,29.11269z M52.55811,29.31019c0.0395,0,0.0747-0.01938,0.11707-0.05602v-0.11708 c-0.1415,0.01654-0.18962,0.04957-0.18962,0.10415C52.48557,29.29081,52.51861,29.31019,52.55811,29.31019z"/><path d="M52.83039,28.98412h0.02729l0.00288,0.05316h0.00215c0.03088-0.0352,0.07038-0.06178,0.10845-0.06178 c0.05531,0,0.08332,0.02803,0.09553,0.07039c0.0395-0.04308,0.07757-0.07039,0.11707-0.07039 c0.06895,0,0.10343,0.0431,0.10343,0.13218v0.22121h-0.03233v-0.2169c0-0.07326-0.02441-0.10773-0.07685-0.10773 c-0.03233,0-0.06536,0.02154-0.10343,0.06462v0.26001h-0.0316v-0.2169c0-0.07326-0.02443-0.10773-0.07757-0.10773 c-0.03088,0-0.06536,0.02154-0.10343,0.06462v0.26001h-0.0316V28.98412z"/><path d="M53.53942,28.97549c0.08332,0,0.15514,0.06609,0.15514,0.18173c0,0.1142-0.07182,0.18029-0.15514,0.18029 c-0.0826,0-0.15442-0.06609-0.15442-0.18029C53.385,29.04158,53.45683,28.97549,53.53942,28.97549z M53.53942,29.30947 c0.06967,0,0.1221-0.06176,0.1221-0.15226c0-0.09122-0.05243-0.1537-0.1221-0.1537c-0.06966,0-0.12138,0.06248-0.12138,0.1537 C53.41805,29.24771,53.46976,29.30947,53.53942,29.30947z"/><path d="M53.79806,28.81246h0.0316v0.47475c0,0.0151,0.00647,0.02226,0.01509,0.02226c0.00287,0,0.00574,0,0.01292-0.00142 l0.00575,0.02585c-0.00646,0.00216-0.01292,0.0036-0.02298,0.0036c-0.02801,0-0.04238-0.01726-0.04238-0.0546V28.81246z"/><path d="M54.10552,29.30086h0.10773v-0.38067h-0.08187v-0.02154c0.03735-0.00647,0.0668-0.01652,0.08834-0.02873h0.02586 v0.43094h0.09983v0.02801h-0.23989V29.30086z"/><path d="M54.42376,29.09759c0-0.15226,0.04956-0.23631,0.13718-0.23631c0.08763,0,0.13719,0.08405,0.13719,0.23631 c0,0.153-0.04956,0.23991-0.13719,0.23991C54.47332,29.3375,54.42376,29.25059,54.42376,29.09759z M54.66581,29.09759 c0-0.14005-0.04094-0.209-0.10487-0.209c-0.06321,0-0.10486,0.06895-0.10486,0.209c0,0.14006,0.04165,0.2126,0.10486,0.2126 C54.62487,29.31019,54.66581,29.23766,54.66581,29.09759z"/><path d="M54.76786,29.09759c0-0.15226,0.04956-0.23631,0.13718-0.23631c0.08763,0,0.1372,0.08405,0.1372,0.23631 c0,0.153-0.04956,0.23991-0.1372,0.23991C54.81742,29.3375,54.76786,29.25059,54.76786,29.09759z M55.00991,29.09759 c0-0.14005-0.04094-0.209-0.10487-0.209c-0.0632,0-0.10486,0.06895-0.10486,0.209c0,0.14006,0.04166,0.2126,0.10486,0.2126 C54.96896,29.31019,55.00991,29.23766,55.00991,29.09759z"/><path d="M55.11195,29.09759c0-0.15226,0.04956-0.23631,0.13718-0.23631c0.08763,0,0.13719,0.08405,0.13719,0.23631 c0,0.153-0.04956,0.23991-0.13719,0.23991C55.16151,29.3375,55.11195,29.25059,55.11195,29.09759z M55.354,29.09759 c0-0.14005-0.04094-0.209-0.10487-0.209c-0.06321,0-0.10486,0.06895-0.10486,0.209c0,0.14006,0.04165,0.2126,0.10486,0.2126 C55.31306,29.31019,55.354,29.23766,55.354,29.09759z"/><path d="M55.6306,28.98412h0.02729l0.00288,0.05316h0.00215c0.03088-0.0352,0.07038-0.06178,0.10845-0.06178 c0.05531,0,0.08332,0.02803,0.09553,0.07039c0.0395-0.04308,0.07757-0.07039,0.11707-0.07039 c0.06895,0,0.10343,0.0431,0.10343,0.13218v0.22121h-0.03233v-0.2169c0-0.07326-0.02441-0.10773-0.07685-0.10773 c-0.03233,0-0.06536,0.02154-0.10343,0.06462v0.26001h-0.0316v-0.2169c0-0.07326-0.02443-0.10773-0.07757-0.10773 c-0.03088,0-0.06536,0.02154-0.10343,0.06462v0.26001h-0.0316V28.98412z"/><path d="M56.2362,29.31594v-0.00286c-0.01724-0.01005-0.03016-0.02873-0.03016-0.05532 c0-0.03087,0.02227-0.05243,0.03735-0.06321v-0.00286c-0.02155-0.01868-0.04309-0.05315-0.04309-0.09482 c0-0.07109,0.05387-0.12139,0.12139-0.12139c0.01867,0,0.03447,0.00433,0.04525,0.00863H56.484v0.02657h-0.08044 c0.02226,0.0194,0.03807,0.05029,0.03807,0.08691c0,0.07039-0.05243,0.12139-0.11994,0.12139 c-0.0194,0-0.04166-0.00503-0.05746-0.01435c-0.01509,0.01219-0.02802,0.02657-0.02802,0.04955 c0,0.02515,0.01437,0.04525,0.06608,0.04525h0.07397c0.07758,0,0.11349,0.02443,0.11349,0.079 c0,0.05962-0.06393,0.11636-0.16304,0.11636c-0.08691,0-0.14149-0.03734-0.14149-0.09552 C56.18521,29.36909,56.2046,29.33892,56.2362,29.31594z M56.33029,29.46894c0.07758,0,0.12713-0.04383,0.12713-0.08691 c0-0.03808-0.02801-0.05243-0.07972-0.05243h-0.07397c-0.00719,0-0.02515-0.00144-0.04309-0.00575 c-0.0316,0.02154-0.04526,0.04813-0.04526,0.07253C56.21537,29.43949,56.25703,29.46894,56.33029,29.46894z M56.41073,29.09687 c0-0.05816-0.04022-0.09552-0.08905-0.09552c-0.04885,0-0.08978,0.03664-0.08978,0.09552 c0,0.05818,0.04165,0.09696,0.08978,0.09696C56.36908,29.19383,56.41073,29.15505,56.41073,29.09687z"/><path d="M50.18816,30.16294h0.10774v-0.38067h-0.08189v-0.02154c0.03735-0.00647,0.0668-0.01652,0.08834-0.02873h0.02586 v0.43095h0.09984v0.02801h-0.2399V30.16294z"/><path d="M50.80951,29.83758c0.04741,0,0.07829,0.02082,0.10128,0.04236l-0.01867,0.02226 c-0.02227-0.02082-0.04813-0.03662-0.08189-0.03662c-0.07039,0-0.12497,0.06248-0.12497,0.1537 c0,0.09049,0.04955,0.15226,0.12497,0.15226c0.03663,0,0.06823-0.01796,0.09194-0.0395l0.01652,0.02154 c-0.02945,0.02659-0.06608,0.04597-0.10989,0.04597c-0.08905,0-0.15657-0.06607-0.15657-0.18027 C50.65222,29.90365,50.72548,29.83758,50.80951,29.83758z"/><path d="M51.03511,30.22112v0.12569h-0.0316v-0.50062h0.0273l0.00286,0.04308h0.00216 c0.03375-0.02657,0.0747-0.05169,0.11707-0.05169c0.09194,0,0.13791,0.06895,0.13791,0.17596 c0,0.11706-0.07111,0.18601-0.15227,0.18601c-0.03233,0-0.06751-0.0158-0.10343-0.04236V30.22112z M51.13709,30.17155 c0.06967,0,0.11995-0.06463,0.11995-0.158c0-0.08475-0.03017-0.14795-0.10917-0.14795c-0.03448,0-0.0711,0.0201-0.11277,0.05674 v0.20469C51.07461,30.15936,51.11052,30.17155,51.13709,30.17155z"/><path d="M51.51067,30.11267c0.0273,0.03015,0.06393,0.05888,0.12713,0.05888c0.06178,0,0.10702-0.04022,0.10702-0.10126 c0-0.06321-0.04597-0.10629-0.16017-0.10629v-0.02803c0.10629,0,0.14365-0.04453,0.14365-0.09982 c0-0.05171-0.03664-0.08547-0.09266-0.08547c-0.04239,0-0.07901,0.02226-0.10559,0.05027l-0.01867-0.02154 c0.0316-0.03089,0.0711-0.05604,0.12426-0.05604c0.0711,0,0.12569,0.04022,0.12569,0.11061 c0,0.06034-0.03735,0.09624-0.08763,0.11348v0.00288c0.05675,0.01221,0.10415,0.05458,0.10415,0.11922 c0,0.07972-0.06104,0.13-0.14005,0.13c-0.07327,0-0.11635-0.03376-0.1458-0.06463L51.51067,30.11267z"/><path d="M52.04079,29.681h0.0273l-0.21835,0.62487h-0.02801L52.04079,29.681z"/><path d="M52.28076,29.84619h0.03232v0.40868c0,0.06751-0.02443,0.10054-0.07757,0.10054 c-0.01651,0-0.03375-0.0043-0.04453-0.00861l0.0079-0.02587c0.00863,0.00288,0.02227,0.00719,0.03592,0.00719 c0.03878,0,0.04597-0.03159,0.04597-0.07542V29.84619z M52.26855,29.73486c0-0.01796,0.01366-0.02873,0.02873-0.02873 c0.01581,0,0.02945,0.01077,0.02945,0.02873c0,0.01652-0.01365,0.02801-0.02945,0.02801 C52.2822,29.76287,52.26855,29.75138,52.26855,29.73486z"/><path d="M52.57095,29.83758c0.08332,0,0.15514,0.06607,0.15514,0.18171c0,0.1142-0.07182,0.18027-0.15514,0.18027 c-0.0826,0-0.15442-0.06607-0.15442-0.18027C52.41653,29.90365,52.48835,29.83758,52.57095,29.83758z M52.57095,30.17155 c0.06967,0,0.12211-0.06176,0.12211-0.15226c0-0.09121-0.05244-0.1537-0.12211-0.1537 c-0.06966,0-0.12137,0.06248-0.12137,0.1537C52.44958,30.10979,52.50129,30.17155,52.57095,30.17155z"/><path d="M52.82457,29.84619h0.0316v0.2169c0,0.07328,0.02298,0.10775,0.07829,0.10775c0.04093,0,0.0711-0.02156,0.11132-0.07039 v-0.25426h0.0316v0.34476h-0.02658l-0.00359-0.05746h-0.00143c-0.03376,0.0395-0.06967,0.06607-0.11707,0.06607 c-0.07112,0-0.10415-0.04309-0.10415-0.13214V29.84619z"/><path d="M53.20961,29.84619h0.0273l0.00286,0.06392h0.00216c0.02298-0.04238,0.05674-0.07253,0.09768-0.07253 c0.01292,0,0.02298,0.00142,0.03448,0.00717l-0.00719,0.02873c-0.01149-0.0043-0.01796-0.00574-0.0316-0.00574 c-0.03088,0-0.06751,0.0237-0.09409,0.08835v0.23486h-0.0316V29.84619z"/><path d="M49.44253,32.75706c0.15083-0.153,0.22625-0.23847,0.22625-0.31819c0-0.05746-0.03088-0.10199-0.09983-0.10199 c-0.04166,0-0.07901,0.02584-0.10702,0.06032l-0.02083-0.0201c0.03447-0.03808,0.0747-0.06753,0.13072-0.06753 c0.08187,0,0.12928,0.05099,0.12928,0.12857c0,0.09121-0.08332,0.17884-0.21045,0.31386 c0.02514-0.00142,0.05171-0.00358,0.07685-0.00358h0.15658v0.02873h-0.28155V32.75706z"/><path d="M49.92886,32.58396h0.15801v0.02801h-0.15801V32.58396z"/><path d="M50.32539,32.30383h0.10917c0.1458,0,0.21546,0.09193,0.21546,0.23488c0,0.14363-0.06966,0.23845-0.21475,0.23845 h-0.10988V32.30383z M50.43097,32.74915c0.12856,0,0.18458-0.08691,0.18458-0.21044c0-0.12283-0.05602-0.20685-0.18458-0.20685 h-0.07254v0.41729H50.43097z"/><path d="M50.74205,32.32107c0-0.01796,0.01293-0.02873,0.02873-0.02873c0.01581,0,0.02873,0.01077,0.02873,0.02873 c0,0.01651-0.01292,0.02801-0.02873,0.02801C50.75499,32.34908,50.74205,32.33758,50.74205,32.32107z M50.75426,32.4324h0.0316 v0.34476h-0.0316V32.4324z"/><path d="M51.04446,32.42379c0.08332,0,0.15514,0.06607,0.15514,0.18171c0,0.1142-0.07182,0.18027-0.15514,0.18027 c-0.0826,0-0.15442-0.06607-0.15442-0.18027C50.89004,32.48986,50.96186,32.42379,51.04446,32.42379z M51.04446,32.75776 c0.06967,0,0.1221-0.06176,0.1221-0.15226c0-0.09121-0.05243-0.1537-0.1221-0.1537s-0.12139,0.06248-0.12139,0.1537 C50.92307,32.696,50.97478,32.75776,51.04446,32.75776z"/><path d="M51.27868,32.71467c0.02944,0.02443,0.06033,0.04381,0.10989,0.04381c0.05386,0,0.08188-0.03159,0.08188-0.06823 c0-0.04308-0.04454-0.06176-0.08403-0.07614c-0.05244-0.01866-0.10989-0.0395-0.10989-0.09838 c0-0.05029,0.0395-0.09193,0.11133-0.09193c0.03663,0,0.07326,0.01508,0.09839,0.0359l-0.01724,0.02226 c-0.02298-0.01724-0.0474-0.03087-0.08259-0.03087c-0.05316,0-0.07757,0.03087-0.07757,0.06248 c0,0.03806,0.04022,0.05458,0.08117,0.06967c0.05386,0.0201,0.11277,0.03806,0.11277,0.10557 c0,0.05172-0.04166,0.09696-0.11636,0.09696c-0.05099,0-0.09553-0.02154-0.12641-0.04739L51.27868,32.71467z"/><path d="M51.59405,32.4324h0.02729l0.00288,0.05316h0.00216c0.03088-0.0352,0.07038-0.06176,0.10845-0.06176 c0.05531,0,0.08331,0.02801,0.09553,0.07037c0.0395-0.04308,0.07757-0.07037,0.11707-0.07037 c0.06895,0,0.10343,0.04308,0.10343,0.13213v0.22123h-0.03232v-0.2169c0-0.07328-0.02442-0.10775-0.07685-0.10775 c-0.03232,0-0.06536,0.02156-0.10343,0.06464v0.26001h-0.0316v-0.2169c0-0.07328-0.02443-0.10775-0.07757-0.10775 c-0.03088,0-0.06536,0.02156-0.10342,0.06464v0.26001h-0.0316V32.4324z"/><path d="M52.16517,32.32107c0-0.01796,0.01293-0.02873,0.02873-0.02873c0.01581,0,0.02873,0.01077,0.02873,0.02873 c0,0.01651-0.01292,0.02801-0.02873,0.02801C52.1781,32.34908,52.16517,32.33758,52.16517,32.32107z M52.17738,32.4324h0.0316 v0.34476h-0.0316V32.4324z"/><path d="M52.34188,32.4324h0.02729l0.00288,0.05316h0.00216c0.03519-0.0352,0.0711-0.06176,0.11851-0.06176 c0.0711,0,0.10414,0.04308,0.10414,0.13213v0.22123h-0.0316v-0.2169c0-0.07328-0.02298-0.10775-0.079-0.10775 c-0.04094,0-0.07039,0.02156-0.11277,0.06464v0.26001h-0.0316V32.4324z"/><path d="M52.84546,32.42379c0.08187,0,0.13216,0.05816,0.13216,0.15944c0,0.00861,0,0.01724-0.00144,0.02585h-0.24851 c0.00143,0.08691,0.05244,0.14939,0.13,0.14939c0.03736,0,0.0668-0.01221,0.09266-0.03087l0.01293,0.0244 c-0.0273,0.01654-0.05818,0.03376-0.10845,0.03376c-0.08835,0-0.15945-0.06751-0.15945-0.18027 C52.69534,32.49274,52.76861,32.42379,52.84546,32.42379z M52.94744,32.58468c0-0.08835-0.0395-0.1336-0.10128-0.1336 c-0.05889,0-0.11132,0.05099-0.1185,0.1336H52.94744z"/><path d="M53.43162,32.37566c-0.02011-0.02515-0.04812-0.03808-0.07757-0.03808c-0.07254,0-0.13503,0.05746-0.13646,0.22626 c0.0316-0.03878,0.07325-0.06393,0.11563-0.06393c0.08044,0,0.12785,0.04957,0.12785,0.14223 c0,0.08331-0.05746,0.14363-0.12569,0.14363c-0.09193,0-0.15012-0.07756-0.15012-0.2169 c0-0.19248,0.08044-0.25929,0.16879-0.25929c0.04309,0,0.07327,0.01796,0.09697,0.04455L53.43162,32.37566z M53.42875,32.64214 c0-0.06609-0.02944-0.11492-0.09911-0.11492c-0.03233,0-0.07398,0.01866-0.11134,0.06895 c0.00574,0.09696,0.04311,0.16231,0.1178,0.16231C53.38924,32.75848,53.42875,32.70749,53.42875,32.64214z"/><path d="M53.52649,32.54588c0-0.15226,0.04956-0.23631,0.13718-0.23631c0.08763,0,0.13719,0.08405,0.13719,0.23631 c0,0.153-0.04956,0.23989-0.13719,0.23989C53.57605,32.78577,53.52649,32.69888,53.52649,32.54588z M53.76854,32.54588 c0-0.14005-0.04094-0.209-0.10487-0.209c-0.06321,0-0.10486,0.06895-0.10486,0.209c0,0.14006,0.04165,0.2126,0.10486,0.2126 C53.7276,32.75848,53.76854,32.68594,53.76854,32.54588z"/><path d="M53.87058,32.54588c0-0.15226,0.04956-0.23631,0.13718-0.23631c0.08763,0,0.13719,0.08405,0.13719,0.23631 c0,0.153-0.04956,0.23989-0.13719,0.23989C53.92015,32.78577,53.87058,32.69888,53.87058,32.54588z M54.11263,32.54588 c0-0.14005-0.04094-0.209-0.10487-0.209c-0.06321,0-0.10486,0.06895-0.10486,0.209c0,0.14006,0.04165,0.2126,0.10486,0.2126 C54.07169,32.75848,54.11263,32.68594,54.11263,32.54588z"/><path d="M54.38923,32.4324h0.02729l0.00288,0.05316h0.00215c0.03088-0.0352,0.07038-0.06176,0.10845-0.06176 c0.05531,0,0.08332,0.02801,0.09553,0.07037c0.0395-0.04308,0.07757-0.07037,0.11707-0.07037 c0.06895,0,0.10343,0.04308,0.10343,0.13213v0.22123h-0.03233v-0.2169c0-0.07328-0.02441-0.10775-0.07685-0.10775 c-0.03233,0-0.06536,0.02156-0.10343,0.06464v0.26001h-0.0316v-0.2169c0-0.07328-0.02443-0.10775-0.07757-0.10775 c-0.03088,0-0.06536,0.02156-0.10343,0.06464v0.26001h-0.0316V32.4324z"/><path d="M54.99483,32.76423v-0.00286c-0.01724-0.01007-0.03016-0.02873-0.03016-0.05532 c0-0.03087,0.02226-0.05241,0.03735-0.06321v-0.00286c-0.02155-0.01868-0.04309-0.05315-0.04309-0.09482 c0-0.07109,0.05387-0.12136,0.12139-0.12136c0.01867,0,0.03447,0.0043,0.04525,0.00861h0.11707v0.02657h-0.08044 c0.02226,0.0194,0.03807,0.05029,0.03807,0.08691c0,0.07039-0.05243,0.12138-0.11994,0.12138 c-0.0194,0-0.04166-0.00502-0.05746-0.01435c-0.01508,0.01221-0.02802,0.02657-0.02802,0.04955 c0,0.02515,0.01437,0.04525,0.06608,0.04525h0.07398c0.07758,0,0.11349,0.02443,0.11349,0.079 c0,0.05962-0.06393,0.11636-0.16304,0.11636c-0.08691,0-0.14149-0.03734-0.14149-0.09552 C54.94384,32.81738,54.96323,32.78721,54.99483,32.76423z M55.08892,32.91722c0.07758,0,0.12713-0.04382,0.12713-0.08691 c0-0.03808-0.02801-0.05244-0.07972-0.05244h-0.07398c-0.00719,0-0.02515-0.00144-0.04309-0.00574 c-0.0316,0.02154-0.04526,0.04811-0.04526,0.07254C54.974,32.88777,55.01566,32.91722,55.08892,32.91722z M55.16936,32.54516 c0-0.05818-0.04022-0.09552-0.08905-0.09552c-0.04885,0-0.08978,0.03664-0.08978,0.09552 c0,0.05818,0.04165,0.09698,0.08978,0.09698C55.12771,32.64214,55.16936,32.60334,55.16936,32.54516z"/><path d="M50.3311,33.61123h0.10774v-0.38067h-0.08189v-0.02154c0.03735-0.00647,0.0668-0.01652,0.08834-0.02873h0.02586v0.43095 H50.571v0.02801h-0.2399V33.61123z"/><path d="M50.95246,33.28585c0.04741,0,0.07829,0.02084,0.10127,0.04238l-0.01867,0.02226 c-0.02227-0.02082-0.04813-0.03662-0.08189-0.03662c-0.07039,0-0.12497,0.06248-0.12497,0.1537 c0,0.0905,0.04955,0.15226,0.12497,0.15226c0.03663,0,0.06823-0.01794,0.09194-0.0395l0.01652,0.02156 c-0.02945,0.02657-0.06608,0.04597-0.10989,0.04597c-0.08905,0-0.15657-0.06609-0.15657-0.18029 C50.79517,33.35194,50.86843,33.28585,50.95246,33.28585z"/><path d="M51.17805,33.66941v0.12569h-0.0316v-0.50062h0.0273l0.00286,0.0431h0.00216 c0.03376-0.02659,0.0747-0.05173,0.11707-0.05173c0.09194,0,0.13791,0.06895,0.13791,0.17598 c0,0.11708-0.07111,0.18604-0.15227,0.18604c-0.03233,0-0.06751-0.01582-0.10343-0.04239V33.66941z M51.28004,33.61983 c0.06967,0,0.11995-0.06463,0.11995-0.158c0-0.08475-0.03017-0.14795-0.10917-0.14795c-0.03448,0-0.0711,0.0201-0.11277,0.05674 v0.20469C51.21756,33.60762,51.25347,33.61983,51.28004,33.61983z"/><path d="M51.83964,33.12929h0.0273l-0.21835,0.62487h-0.02801L51.83964,33.12929z"/><path d="M51.93666,33.29448h0.03232v0.40868c0,0.06751-0.02443,0.10054-0.07757,0.10054 c-0.01651,0-0.03375-0.0043-0.04453-0.00861l0.0079-0.02587c0.00863,0.00288,0.02227,0.00719,0.03592,0.00719 c0.03878,0,0.04597-0.03159,0.04597-0.07542V33.29448z M51.92445,33.18314c0-0.01794,0.01365-0.02873,0.02873-0.02873 c0.01581,0,0.02945,0.01079,0.02945,0.02873c0,0.01654-0.01365,0.02803-0.02945,0.02803 C51.9381,33.21117,51.92445,33.19968,51.92445,33.18314z"/><path d="M52.22685,33.28585c0.08332,0,0.15514,0.06609,0.15514,0.18172c0,0.1142-0.07182,0.18029-0.15514,0.18029 c-0.0826,0-0.15442-0.06609-0.15442-0.18029C52.07243,33.35194,52.14426,33.28585,52.22685,33.28585z M52.22685,33.61983 c0.06967,0,0.12211-0.06176,0.12211-0.15226c0-0.09121-0.05244-0.1537-0.12211-0.1537 c-0.06966,0-0.12138,0.06248-0.12138,0.1537C52.10548,33.55807,52.15719,33.61983,52.22685,33.61983z"/><path d="M52.48047,33.29448h0.0316v0.2169c0,0.07325,0.02298,0.10773,0.07829,0.10773c0.04093,0,0.0711-0.02154,0.11132-0.07037 v-0.25426h0.0316v0.34475h-0.02658l-0.00359-0.05746h-0.00143c-0.03376,0.0395-0.06967,0.06609-0.11707,0.06609 c-0.07111,0-0.10415-0.04311-0.10415-0.13218V33.29448z"/><path d="M52.86552,33.29448h0.0273l0.00286,0.06392h0.00216c0.02298-0.04238,0.05674-0.07255,0.09768-0.07255 c0.01292,0,0.02298,0.00144,0.03448,0.00719l-0.00719,0.02873c-0.01149-0.0043-0.01796-0.00574-0.0316-0.00574 c-0.03088,0-0.06751,0.0237-0.09409,0.08835v0.23486h-0.0316V33.29448z"/><path d="M53.03362,33.72901c0.03232-0.01724,0.05459-0.04739,0.05531-0.08691c-0.00287,0.00072-0.00574,0.00072-0.00862,0.00072 c-0.01652,0-0.03017-0.01077-0.03017-0.03015c0-0.0194,0.01508-0.03017,0.03089-0.03017 c0.02154,0,0.03663,0.0194,0.03663,0.05099c0,0.05244-0.03088,0.0941-0.07399,0.11708L53.03362,33.72901z"/><path d="M53.3655,33.12282h0.0316v0.47475c0,0.01509,0.00647,0.02226,0.01509,0.02226c0.00287,0,0.00574,0,0.01292-0.00142 l0.00574,0.02585c-0.00647,0.00216-0.01292,0.0036-0.02298,0.0036c-0.02801,0-0.04237-0.01726-0.04237-0.0546V33.12282z"/><path d="M53.65714,33.28585c0.08187,0,0.13216,0.05818,0.13216,0.15946c0,0.00861,0,0.01724-0.00144,0.02585h-0.2485 c0.00143,0.08691,0.05243,0.14939,0.12999,0.14939c0.03736,0,0.0668-0.01221,0.09266-0.03087l0.01294,0.02441 c-0.0273,0.01651-0.05818,0.03378-0.10845,0.03378c-0.08835,0-0.15946-0.06753-0.15946-0.18029 C53.50702,33.3548,53.58029,33.28585,53.65714,33.28585z M53.75912,33.44674c0-0.08833-0.0395-0.13358-0.10128-0.13358 c-0.05889,0-0.11132,0.05099-0.1185,0.13358H53.75912z"/><path d="M54.02567,33.29448h0.02729l0.00288,0.05315h0.00215c0.03088-0.0352,0.07038-0.06178,0.10845-0.06178 c0.05531,0,0.08332,0.02803,0.09553,0.07039c0.0395-0.04309,0.07757-0.07039,0.11707-0.07039 c0.06895,0,0.10343,0.0431,0.10343,0.13218v0.22121h-0.03232v-0.2169c0-0.07325-0.02442-0.10773-0.07685-0.10773 c-0.03232,0-0.06536,0.02154-0.10343,0.06463v0.26001h-0.0316v-0.2169c0-0.07325-0.02443-0.10773-0.07757-0.10773 c-0.03088,0-0.06536,0.02154-0.10343,0.06463v0.26001h-0.0316V33.29448z"/><path d="M54.81227,33.42305c0.00144-0.05243-0.01365-0.10917-0.08117-0.10917c-0.04668,0-0.0869,0.02298-0.10988,0.04022 l-0.01437-0.0237c0.02441-0.01724,0.07182-0.04454,0.12784-0.04454c0.08189,0,0.10917,0.0589,0.10917,0.13288v0.2205H54.8173 l-0.00359-0.04453h-0.00144c-0.0352,0.02801-0.07685,0.05316-0.1221,0.05316c-0.05459,0-0.10056-0.02945-0.10056-0.09482 C54.58962,33.47691,54.65929,33.44029,54.81227,33.42305z M54.6952,33.62056c0.0395,0,0.0747-0.01938,0.11707-0.05602v-0.11708 c-0.14149,0.01654-0.18962,0.04957-0.18962,0.10415C54.62265,33.60117,54.6557,33.62056,54.6952,33.62056z"/><path d="M54.97538,33.32177h-0.05387v-0.02443l0.05459-0.00286l0.0043-0.09985h0.0273v0.09985h0.09983v0.02729H55.0077v0.22481 c0,0.04383,0.01077,0.07326,0.05818,0.07326c0.01292,0,0.03088-0.00503,0.04309-0.01077l0.00862,0.02587 c-0.02011,0.00717-0.04166,0.01294-0.05603,0.01294c-0.06679,0-0.08619-0.04239-0.08619-0.10415V33.32177z"/><path d="M55.1794,33.18314c0-0.01794,0.01294-0.02873,0.02873-0.02873c0.0158,0,0.02873,0.01079,0.02873,0.02873 c0,0.01654-0.01292,0.02803-0.02873,0.02803C55.19234,33.21117,55.1794,33.19968,55.1794,33.18314z M55.19162,33.29448h0.0316 v0.34475h-0.0316V33.29448z"/><path d="M55.35612,33.29448h0.02729l0.00288,0.05315h0.00215c0.03519-0.0352,0.0711-0.06178,0.11851-0.06178 c0.07111,0,0.10414,0.0431,0.10414,0.13218v0.22121h-0.0316v-0.2169c0-0.07325-0.02298-0.10773-0.079-0.10773 c-0.04094,0-0.07039,0.02154-0.11277,0.06463v0.26001h-0.0316V33.29448z"/><path d="M56.08451,33.42305c0.00144-0.05243-0.01365-0.10917-0.08117-0.10917c-0.04668,0-0.0869,0.02298-0.10988,0.04022 l-0.01436-0.0237c0.02441-0.01724,0.07182-0.04454,0.12784-0.04454c0.08188,0,0.10917,0.0589,0.10917,0.13288v0.2205h-0.02658 l-0.00358-0.04453h-0.00144c-0.03519,0.02801-0.07685,0.05316-0.1221,0.05316c-0.05458,0-0.10055-0.02945-0.10055-0.09482 C55.86186,33.47691,55.93153,33.44029,56.08451,33.42305z M55.96744,33.62056c0.0395,0,0.0747-0.01938,0.11707-0.05602v-0.11708 c-0.14149,0.01654-0.18962,0.04957-0.18962,0.10415C55.89489,33.60117,55.92794,33.62056,55.96744,33.62056z"/><path d="M56.18227,33.29448h0.03447l0.07757,0.21618c0.01077,0.03305,0.0237,0.06753,0.03447,0.09912h0.00287 c0.01149-0.03159,0.0237-0.06607,0.0352-0.09912l0.07757-0.21618h0.03231l-0.12784,0.34475h-0.03735L56.18227,33.29448z"/><path d="M56.7404,33.42305c0.00144-0.05243-0.01364-0.10917-0.08115-0.10917c-0.04669,0-0.08691,0.02298-0.10989,0.04022 l-0.01436-0.0237c0.02441-0.01724,0.07182-0.04454,0.12784-0.04454c0.08188,0,0.10917,0.0589,0.10917,0.13288v0.2205h-0.02657 l-0.00359-0.04453H56.7404c-0.03519,0.02801-0.07685,0.05316-0.12209,0.05316c-0.05459,0-0.10056-0.02945-0.10056-0.09482 C56.51775,33.47691,56.58741,33.44029,56.7404,33.42305z M56.62333,33.62056c0.0395,0,0.0747-0.01938,0.11707-0.05602v-0.11708 c-0.14149,0.01654-0.18961,0.04957-0.18961,0.10415C56.55079,33.60117,56.58383,33.62056,56.62333,33.62056z"/><path d="M56.89561,33.29448h0.02729l0.00288,0.05315h0.00215c0.03519-0.0352,0.0711-0.06178,0.11851-0.06178 c0.0711,0,0.10414,0.0431,0.10414,0.13218v0.22121h-0.0316v-0.2169c0-0.07325-0.02298-0.10773-0.079-0.10773 c-0.04094,0-0.07039,0.02154-0.11277,0.06463v0.26001h-0.0316V33.29448z"/><path d="M57.2857,33.32177h-0.05387v-0.02443l0.05459-0.00286l0.0043-0.09985h0.0273v0.09985h0.09983v0.02729h-0.09983v0.22481 c0,0.04383,0.01077,0.07326,0.05818,0.07326c0.01292,0,0.03088-0.00503,0.04309-0.01077l0.00862,0.02587 c-0.02011,0.00717-0.04166,0.01294-0.05603,0.01294c-0.06679,0-0.08619-0.04239-0.08619-0.10415V33.32177z"/><path d="M57.67649,33.66941v0.12569h-0.0316v-0.50062h0.0273l0.00286,0.0431h0.00216 c0.03376-0.02659,0.0747-0.05173,0.11707-0.05173c0.09194,0,0.13791,0.06895,0.13791,0.17598 c0,0.11708-0.07111,0.18604-0.15227,0.18604c-0.03233,0-0.06751-0.01582-0.10343-0.04239V33.66941z M57.77847,33.61983 c0.06967,0,0.11995-0.06463,0.11995-0.158c0-0.08475-0.03017-0.14795-0.10917-0.14795c-0.03447,0-0.0711,0.0201-0.11277,0.05674 v0.20469C57.71599,33.60762,57.7519,33.61983,57.77847,33.61983z"/><path d="M58.15707,33.28585c0.08187,0,0.13216,0.05818,0.13216,0.15946c0,0.00861,0,0.01724-0.00144,0.02585h-0.2485 c0.00143,0.08691,0.05242,0.14939,0.13,0.14939c0.03734,0,0.06679-0.01221,0.09265-0.03087l0.01293,0.02441 c-0.0273,0.01651-0.05818,0.03378-0.10846,0.03378c-0.08834,0-0.15945-0.06753-0.15945-0.18029 C58.00695,33.3548,58.08021,33.28585,58.15707,33.28585z M58.25905,33.44674c0-0.08833-0.0395-0.13358-0.10126-0.13358 c-0.0589,0-0.11134,0.05099-0.11851,0.13358H58.25905z"/><path d="M58.38265,33.32177h-0.05387v-0.02443l0.05459-0.00286l0.00431-0.09985h0.02729v0.09985h0.09983v0.02729h-0.09983 v0.22481c0,0.04383,0.01077,0.07326,0.05818,0.07326c0.01292,0,0.03088-0.00503,0.04309-0.01077l0.00862,0.02587 c-0.02011,0.00717-0.04166,0.01294-0.05603,0.01294c-0.0668,0-0.08619-0.04239-0.08619-0.10415V33.32177z"/><path d="M58.58667,33.18314c0-0.01794,0.01293-0.02873,0.02873-0.02873c0.01581,0,0.02873,0.01079,0.02873,0.02873 c0,0.01654-0.01292,0.02803-0.02873,0.02803C58.59961,33.21117,58.58667,33.19968,58.58667,33.18314z M58.59888,33.29448h0.0316 v0.34475h-0.0316V33.29448z"/><path d="M58.77129,33.32177h-0.05387v-0.02443l0.05459-0.00286l0.0043-0.09985h0.0273v0.09985h0.09983v0.02729h-0.09983v0.22481 c0,0.04383,0.01077,0.07326,0.05818,0.07326c0.01292,0,0.03088-0.00503,0.04309-0.01077l0.00862,0.02587 c-0.02011,0.00717-0.04166,0.01294-0.05603,0.01294c-0.06679,0-0.08619-0.04239-0.08619-0.10415V33.32177z"/><path d="M58.93582,33.44603h0.15801v0.02801h-0.15801V33.44603z"/><path d="M59.31222,33.28585c0.04165,0,0.06966,0.01582,0.10414,0.04238l-0.00143-0.06321v-0.1422h0.0316v0.51641h-0.02729 l-0.00288-0.04453H59.4142c-0.02801,0.02801-0.06608,0.05316-0.11205,0.05316c-0.08691,0-0.14293-0.06393-0.14293-0.18029 C59.15923,33.35624,59.23033,33.28585,59.31222,33.28585z M59.30647,33.61983c0.03807,0,0.07183-0.0201,0.10845-0.05674V33.3584 c-0.03662-0.03231-0.0668-0.04453-0.10055-0.04453c-0.06895,0-0.12139,0.06679-0.12139,0.1537 C59.19298,33.55879,59.2332,33.61983,59.30647,33.61983z"/><path d="M59.70014,33.28585c0.08187,0,0.13216,0.05818,0.13216,0.15946c0,0.00861,0,0.01724-0.00144,0.02585h-0.24851 c0.00143,0.08691,0.05243,0.14939,0.12999,0.14939c0.03736,0,0.0668-0.01221,0.09266-0.03087l0.01294,0.02441 c-0.0273,0.01651-0.05818,0.03378-0.10845,0.03378c-0.08835,0-0.15945-0.06753-0.15945-0.18029 C59.55003,33.3548,59.62329,33.28585,59.70014,33.28585z M59.80212,33.44674c0-0.08833-0.0395-0.13358-0.10127-0.13358 c-0.05889,0-0.11133,0.05099-0.1185,0.13358H59.80212z M59.68721,33.22839h-0.02658l0.06537-0.09766h0.03806L59.68721,33.22839z"/><path d="M59.92572,33.29448h0.03232v0.40868c0,0.06751-0.02443,0.10054-0.07757,0.10054 c-0.01652,0-0.03376-0.0043-0.04454-0.00861l0.0079-0.02587c0.00863,0.00288,0.02227,0.00719,0.03592,0.00719 c0.03878,0,0.04597-0.03159,0.04597-0.07542V33.29448z M59.91351,33.18314c0-0.01794,0.01365-0.02873,0.02873-0.02873 c0.0158,0,0.02945,0.01079,0.02945,0.02873c0,0.01654-0.01365,0.02803-0.02945,0.02803 C59.92717,33.21117,59.91351,33.19968,59.91351,33.18314z"/><path d="M60.21161,33.28585c0.08187,0,0.13216,0.05818,0.13216,0.15946c0,0.00861,0,0.01724-0.00144,0.02585h-0.24851 c0.00143,0.08691,0.05243,0.14939,0.12999,0.14939c0.03736,0,0.0668-0.01221,0.09266-0.03087l0.01294,0.02441 c-0.0273,0.01651-0.05818,0.03378-0.10845,0.03378c-0.08835,0-0.15945-0.06753-0.15945-0.18029 C60.0615,33.3548,60.13476,33.28585,60.21161,33.28585z M60.31359,33.44674c0-0.08833-0.0395-0.13358-0.10127-0.13358 c-0.05889,0-0.11132,0.05099-0.1185,0.13358H60.31359z"/><path d="M60.43217,33.29448h0.0316v0.2169c0,0.07325,0.02298,0.10773,0.07829,0.10773c0.04093,0,0.0711-0.02154,0.11132-0.07037 v-0.25426h0.0316v0.34475h-0.02658l-0.00359-0.05746h-0.00143c-0.03376,0.0395-0.06967,0.06609-0.11707,0.06609 c-0.07111,0-0.10415-0.04311-0.10415-0.13218V33.29448z"/><path d="M60.81722,33.29448h0.0273l0.00286,0.05315h0.00216c0.03519-0.0352,0.0711-0.06178,0.1185-0.06178 c0.07112,0,0.10415,0.0431,0.10415,0.13218v0.22121h-0.0316v-0.2169c0-0.07325-0.02298-0.10773-0.079-0.10773 c-0.04094,0-0.07039,0.02154-0.11277,0.06463v0.26001h-0.0316V33.29448z"/><path d="M61.32079,33.28585c0.08187,0,0.13216,0.05818,0.13216,0.15946c0,0.00861,0,0.01724-0.00144,0.02585H61.203 c0.00143,0.08691,0.05242,0.14939,0.13,0.14939c0.03734,0,0.06679-0.01221,0.09264-0.03087l0.01293,0.02441 c-0.0273,0.01651-0.05818,0.03378-0.10846,0.03378c-0.08834,0-0.15945-0.06753-0.15945-0.18029 C61.17068,33.3548,61.24393,33.28585,61.32079,33.28585z M61.42278,33.44674c0-0.08833-0.0395-0.13358-0.10126-0.13358 c-0.0589,0-0.11134,0.05099-0.11851,0.13358H61.42278z"/><path d="M61.54638,33.29448h0.0273l0.00286,0.06392h0.00216c0.02298-0.04238,0.05674-0.07255,0.09768-0.07255 c0.01292,0,0.02298,0.00144,0.03447,0.00719l-0.00719,0.02873c-0.01149-0.0043-0.01796-0.00574-0.0316-0.00574 c-0.03088,0-0.06751,0.0237-0.09409,0.08835v0.23486h-0.0316V33.29448z"/></g><g id="ORDONNANCE_3_"><path d="M57.56298,24.98519c0-0.23206,0.12819-0.37239,0.31052-0.37239c0.18122,0,0.30941,0.14145,0.30941,0.37239 c0,0.23315-0.12819,0.37903-0.30941,0.37903C57.69117,25.36421,57.56298,25.21834,57.56298,24.98519z M58.08788,24.98519 c0-0.18012-0.08509-0.29172-0.21438-0.29172c-0.1304,0-0.21548,0.1116-0.21548,0.29172 c0,0.18121,0.08509,0.29836,0.21548,0.29836C58.00279,25.28354,58.08788,25.1664,58.08788,24.98519z"/><path d="M58.73112,25.35095l-0.1746-0.3061h-0.1304v0.3061h-0.09282v-0.72492h0.22765 c0.14696,0,0.25305,0.05305,0.25305,0.20333c0,0.11271-0.06409,0.18012-0.16244,0.20554l0.18454,0.31605H58.73112z M58.42612,24.96972h0.12156c0.11271,0,0.17459-0.04642,0.17459-0.14035c0-0.09502-0.06188-0.12929-0.17459-0.12929h-0.12156 V24.96972z"/><path d="M58.9699,24.62604h0.18122c0.22323,0,0.34256,0.1293,0.34256,0.35915c0,0.23095-0.11934,0.36576-0.33813,0.36576 H58.9699V24.62604z M59.1445,25.2758c0.17017,0,0.25415-0.10717,0.25415-0.29061c0-0.18233-0.08397-0.284-0.25415-0.284 h-0.08178v0.57461H59.1445z"/><path d="M59.6043,24.98519c0-0.23206,0.12819-0.37239,0.31052-0.37239c0.18122,0,0.30942,0.14145,0.30942,0.37239 c0,0.23315-0.12819,0.37903-0.30942,0.37903C59.73249,25.36421,59.6043,25.21834,59.6043,24.98519z M60.1292,24.98519 c0-0.18012-0.08509-0.29172-0.21438-0.29172c-0.13039,0-0.21548,0.1116-0.21548,0.29172 c0,0.18121,0.08509,0.29836,0.21548,0.29836C60.04411,25.28354,60.1292,25.1664,60.1292,24.98519z"/><path d="M60.37463,24.62604h0.09503l0.263,0.45529l0.07846,0.15028h0.00442c-0.00442-0.07293-0.01216-0.15471-0.01216-0.23095 v-0.37462h0.0873v0.72492h-0.09504l-0.26189-0.45638l-0.07845-0.14919h-0.00442c0.00442,0.07295,0.01105,0.1503,0.01105,0.22654 v0.37903h-0.0873V24.62604z"/><path d="M61.08418,24.62604h0.09504l0.263,0.45529l0.07846,0.15028h0.00442c-0.00442-0.07293-0.01216-0.15471-0.01216-0.23095 v-0.37462h0.0873v0.72492H61.5052l-0.26189-0.45638l-0.07846-0.14919h-0.00442c0.00442,0.07295,0.01105,0.1503,0.01105,0.22654 v0.37903h-0.0873V24.62604z"/><path d="M62.12524,25.12995h-0.26411l-0.06961,0.221h-0.09393l0.24532-0.72492h0.10388l0.24531,0.72492h-0.09724 L62.12524,25.12995z M62.10204,25.05591l-0.03425-0.11051c-0.02542-0.08067-0.04863-0.16023-0.07183-0.24421h-0.00442 c-0.0232,0.08398-0.04641,0.16354-0.07183,0.24421l-0.03536,0.11051H62.10204z"/><path d="M62.38833,24.62604h0.09504l0.263,0.45529l0.07846,0.15028h0.00442c-0.00442-0.07293-0.01216-0.15471-0.01216-0.23095 v-0.37462h0.0873v0.72492h-0.09504l-0.26189-0.45638L62.469,24.74538h-0.00442c0.00442,0.07295,0.01105,0.1503,0.01105,0.22654 v0.37903h-0.0873V24.62604z"/><path d="M63.37967,24.61279c0.08619,0,0.15471,0.04199,0.1978,0.08951l-0.05194,0.05857 c-0.03868-0.0409-0.08509-0.06741-0.14476-0.06741c-0.13813,0-0.22985,0.11269-0.22985,0.29282 c0,0.18235,0.0873,0.29726,0.22543,0.29726c0.06851,0,0.11935-0.02873,0.16576-0.08067l0.05194,0.05637 c-0.05636,0.06629-0.12819,0.10497-0.21991,0.10497c-0.18232,0-0.31825-0.13924-0.31825-0.37571 C63.05589,24.75533,63.19402,24.61279,63.37967,24.61279z"/><path d="M63.72343,24.62604h0.41771v0.07735h-0.32489v0.22766h0.27406v0.07845h-0.27406v0.26299h0.33593v0.07847h-0.42875 V24.62604z"/></g><g id="en-tete_2_"><path d="M49.47557,17.70681h0.11779c0.14509,0,0.22266,0.08403,0.22266,0.23342c0,0.15011-0.07757,0.23775-0.21979,0.23775 h-0.12067V17.70681z M49.58905,18.12913c0.1106,0,0.16519-0.06965,0.16519-0.18889c0-0.1185-0.05459-0.18457-0.16519-0.18457 H49.5359v0.37346H49.58905z"/><path d="M49.91164,17.82892h0.04883l0.00504,0.0632h0.00215c0.0237-0.04383,0.05961-0.07183,0.09912-0.07183 c0.01508,0,0.02585,0.00216,0.03734,0.00719l-0.01149,0.05171c-0.01149-0.00358-0.01939-0.00575-0.03376-0.00575 c-0.02945,0-0.06464,0.02154-0.08834,0.08044v0.22409h-0.05889V17.82892z"/><path d="M50.3096,17.70681h0.0711l0.09122,0.25282l0.03376,0.09624h0.00287l0.03304-0.09624l0.0905-0.25282h0.07038v0.47117 h-0.05674v-0.25929c0-0.04166,0.00503-0.09768,0.00791-0.13934h-0.00288l-0.03734,0.10487l-0.0905,0.24636h-0.03448 l-0.0905-0.24636l-0.03734-0.10487h-0.00288c0.00288,0.04166,0.00719,0.09768,0.00719,0.13934v0.25929H50.3096V17.70681z"/><path d="M51.02221,17.95675c0-0.04453-0.01509-0.08761-0.07183-0.08761c-0.04094,0-0.07686,0.01866-0.10415,0.03734 l-0.0237-0.04094c0.03232-0.02082,0.08116-0.04525,0.13718-0.04525c0.08548,0,0.12138,0.05674,0.12138,0.14365v0.21404h-0.04884 l-0.00502-0.04166H51.0258c-0.03377,0.02729-0.07255,0.05027-0.11564,0.05027c-0.0589,0-0.1027-0.03662-0.1027-0.0991 C50.80745,18.01135,50.87352,17.97329,51.02221,17.95675z M50.92667,18.1392c0.03376,0,0.06176-0.01652,0.09553-0.04669 v-0.09696c-0.11707,0.01435-0.15658,0.04309-0.15658,0.08761C50.86562,18.12268,50.8922,18.1392,50.92667,18.1392z"/><path d="M51.19249,17.82892h0.04885l0.00503,0.0632h0.00215c0.0237-0.04383,0.05961-0.07183,0.09911-0.07183 c0.01508,0,0.02586,0.00216,0.03736,0.00719l-0.01149,0.05171c-0.01149-0.00358-0.0194-0.00575-0.03376-0.00575 c-0.02944,0-0.06464,0.02154-0.08834,0.08044v0.22409h-0.0589V17.82892z"/><path d="M51.45182,17.87703h-0.05171V17.8325l0.05458-0.00358l0.00718-0.09768h0.04956v0.09768h0.09409v0.04811h-0.09409 v0.19394c0,0.04308,0.01365,0.06751,0.05386,0.06751c0.01221,0,0.02802-0.00502,0.03951-0.00935l0.01149,0.04455 c-0.01939,0.00647-0.04309,0.01291-0.06465,0.01291c-0.0747,0-0.09983-0.04739-0.09983-0.11634V17.87703z"/><path d="M51.6738,17.71902c0-0.02298,0.01796-0.03808,0.04094-0.03808s0.04094,0.0151,0.04094,0.03808 c0,0.02226-0.01796,0.03806-0.04094,0.03806S51.6738,17.74129,51.6738,17.71902z M51.68458,17.82892h0.05889v0.34906h-0.05889 V17.82892z"/><path d="M51.86129,17.82892h0.04885l0.00502,0.05027h0.00215c0.03305-0.03304,0.06895-0.0589,0.11707-0.0589 c0.07327,0,0.1063,0.04741,0.1063,0.13646v0.22123h-0.05889v-0.21332c0-0.06537-0.02011-0.09338-0.06608-0.09338 c-0.03592,0-0.06033,0.01868-0.09553,0.05388v0.25282h-0.0589V17.82892z"/><path d="M52.38497,17.82029c0.08906,0,0.13934,0.06393,0.13934,0.16377c0,0.01221-0.00072,0.0237-0.00216,0.03231h-0.23558 c0.00431,0.07542,0.04956,0.12283,0.11636,0.12283c0.03304,0,0.06104-0.01077,0.08691-0.02729l0.02082,0.03878 c-0.03016,0.01938-0.06751,0.0359-0.11492,0.0359c-0.09336,0-0.16735-0.06823-0.16735-0.18243 C52.22839,17.88996,52.30525,17.82029,52.38497,17.82029z M52.4726,17.97759c0-0.07111-0.03161-0.11061-0.08619-0.11061 c-0.04885,0-0.09338,0.04022-0.10056,0.11061H52.4726z"/><path d="M52.75926,17.70681h0.11779c0.14509,0,0.22266,0.08403,0.22266,0.23342c0,0.15011-0.07757,0.23775-0.21979,0.23775 h-0.12067V17.70681z M52.87275,18.12913c0.11061,0,0.16519-0.06965,0.16519-0.18889c0-0.1185-0.05458-0.18457-0.16519-0.18457 h-0.05315v0.37346H52.87275z"/><path d="M53.1903,17.82892h0.05961v0.21332c0,0.06535,0.0194,0.09336,0.06537,0.09336 c0.03591,0,0.06104-0.01796,0.09409-0.05888v-0.2478h0.05889v0.34906h-0.04883l-0.00504-0.05458h-0.00216 c-0.03232,0.03806-0.0668,0.06318-0.11492,0.06318c-0.07397,0-0.10702-0.04739-0.10702-0.13646V17.82892z"/><path d="M53.58612,17.82892h0.04885l0.00503,0.0632h0.00215c0.0237-0.04383,0.05961-0.07183,0.09911-0.07183 c0.01508,0,0.02586,0.00216,0.03736,0.00719l-0.01149,0.05171c-0.01149-0.00358-0.0194-0.00575-0.03376-0.00575 c-0.02944,0-0.06464,0.02154-0.08834,0.08044v0.22409h-0.0589V17.82892z"/><path d="M54.01495,17.95675c0-0.04453-0.01509-0.08761-0.07182-0.08761c-0.04094,0-0.07686,0.01866-0.10415,0.03734 l-0.0237-0.04094c0.03232-0.02082,0.08117-0.04525,0.13718-0.04525c0.08548,0,0.12139,0.05674,0.12139,0.14365v0.21404h-0.04884 l-0.00503-0.04166h-0.00143c-0.03376,0.02729-0.07254,0.05027-0.11564,0.05027c-0.0589,0-0.10271-0.03662-0.10271-0.0991 C53.8002,18.01135,53.86627,17.97329,54.01495,17.95675z M53.91943,18.1392c0.03375,0,0.06176-0.01652,0.09553-0.04669v-0.09696 c-0.11707,0.01435-0.15658,0.04309-0.15658,0.08761C53.85837,18.12268,53.88495,18.1392,53.91943,18.1392z"/><path d="M54.18524,17.82892h0.04885l0.00502,0.05027h0.00215c0.03305-0.03304,0.06895-0.0589,0.11707-0.0589 c0.07327,0,0.1063,0.04741,0.1063,0.13646v0.22123h-0.05889v-0.21332c0-0.06537-0.02011-0.09338-0.06608-0.09338 c-0.03592,0-0.06033,0.01868-0.09553,0.05388v0.25282h-0.0589V17.82892z"/><path d="M54.70462,17.82029c0.04022,0,0.06679,0.0151,0.09768,0.04022l-0.00288-0.0596v-0.13432h0.05962v0.51139H54.8102 l-0.00504-0.04094h-0.00215c-0.02729,0.02657-0.06464,0.04955-0.10558,0.04955c-0.08763,0-0.14437-0.06607-0.14437-0.18243 C54.55306,17.89068,54.62489,17.82029,54.70462,17.82029z M54.71037,18.13704c0.03231,0,0.06032-0.01579,0.08905-0.04811 v-0.18245c-0.02944-0.02657-0.05602-0.03662-0.08475-0.03662c-0.05602,0-0.10056,0.05386-0.10056,0.13358 C54.61412,18.08676,54.64931,18.13704,54.71037,18.13704z"/><path d="M49.47916,18.6953h0.0273l0.00286,0.05315h0.00216c0.03088-0.0352,0.07038-0.06178,0.10845-0.06178 c0.05531,0,0.08331,0.02803,0.09553,0.07039c0.0395-0.04309,0.07757-0.07039,0.11707-0.07039 c0.06895,0,0.10343,0.0431,0.10343,0.13218v0.22121h-0.03232v-0.2169c0-0.07326-0.02441-0.10773-0.07685-0.10773 c-0.03232,0-0.06536,0.02154-0.10343,0.06463v0.26001h-0.0316v-0.2169c0-0.07326-0.02441-0.10773-0.07757-0.10773 c-0.03088,0-0.06536,0.02154-0.10342,0.06463v0.26001h-0.0316V18.6953z"/><path d="M50.18388,18.68667c0.08187,0,0.13216,0.05818,0.13216,0.15946c0,0.00861,0,0.01724-0.00144,0.02585h-0.24851 c0.00143,0.08691,0.05243,0.14939,0.13,0.14939c0.03734,0,0.06679-0.01221,0.09265-0.03087l0.01293,0.02441 c-0.0273,0.01652-0.05818,0.03378-0.10846,0.03378c-0.08834,0-0.15945-0.06753-0.15945-0.18029 C50.03377,18.75562,50.10703,18.68667,50.18388,18.68667z M50.28587,18.84756c0-0.08833-0.0395-0.13358-0.10126-0.13358 c-0.0589,0-0.11134,0.05099-0.11852,0.13358H50.28587z M50.17095,18.62921h-0.02657l0.06536-0.09766h0.03807L50.17095,18.62921z"/><path d="M50.53373,18.68667c0.04165,0,0.06967,0.01582,0.10415,0.04238l-0.00144-0.06321v-0.14221h0.0316v0.51641h-0.0273 l-0.00286-0.04453h-0.00216c-0.02801,0.02801-0.06608,0.05316-0.11205,0.05316c-0.0869,0-0.14293-0.06393-0.14293-0.18029 C50.38074,18.75706,50.45184,18.68667,50.53373,18.68667z M50.52798,19.02065c0.03806,0,0.07182-0.0201,0.10845-0.05674 v-0.20469c-0.03663-0.03231-0.0668-0.04453-0.10056-0.04453c-0.06895,0-0.12138,0.06679-0.12138,0.1537 C50.41449,18.95961,50.45472,19.02065,50.52798,19.02065z"/><path d="M50.92165,18.68667c0.08187,0,0.13216,0.05818,0.13216,0.15946c0,0.00861,0,0.01724-0.00144,0.02585h-0.2485 c0.00143,0.08691,0.05242,0.14939,0.13,0.14939c0.03734,0,0.06679-0.01221,0.09265-0.03087l0.01293,0.02441 c-0.0273,0.01652-0.05818,0.03378-0.10846,0.03378c-0.08834,0-0.15945-0.06753-0.15945-0.18029 C50.77153,18.75562,50.84479,18.68667,50.92165,18.68667z M51.02364,18.84756c0-0.08833-0.0395-0.13358-0.10126-0.13358 c-0.0589,0-0.11134,0.05099-0.11851,0.13358H51.02364z"/><path d="M51.2758,18.68667c0.04741,0,0.07829,0.02084,0.10127,0.04238l-0.01867,0.02226 c-0.02227-0.02082-0.04813-0.03662-0.08188-0.03662c-0.0704,0-0.12497,0.06248-0.12497,0.1537 c0,0.09049,0.04955,0.15226,0.12497,0.15226c0.03662,0,0.06823-0.01794,0.09193-0.0395l0.01652,0.02156 c-0.02945,0.02657-0.06608,0.04597-0.10989,0.04597c-0.08905,0-0.15657-0.06609-0.15657-0.18029 C51.1185,18.75276,51.19177,18.68667,51.2758,18.68667z"/><path d="M51.45758,18.58396c0-0.01794,0.01294-0.02873,0.02873-0.02873c0.01581,0,0.02873,0.01079,0.02873,0.02873 c0,0.01654-0.01292,0.02803-0.02873,0.02803C51.47051,18.61199,51.45758,18.6005,51.45758,18.58396z M51.46979,18.6953h0.0316 v0.34476h-0.0316V18.6953z"/><path d="M51.63429,18.6953h0.02729l0.00288,0.05315h0.00215c0.03519-0.0352,0.0711-0.06178,0.11851-0.06178 c0.07111,0,0.10414,0.0431,0.10414,0.13218v0.22121h-0.0316v-0.2169c0-0.07326-0.02298-0.10773-0.079-0.10773 c-0.04094,0-0.07039,0.02154-0.11277,0.06463v0.26001h-0.0316V18.6953z"/><path d="M52.13786,18.68667c0.08187,0,0.13216,0.05818,0.13216,0.15946c0,0.00861,0,0.01724-0.00144,0.02585h-0.2485 c0.00143,0.08691,0.05243,0.14939,0.12999,0.14939c0.03736,0,0.0668-0.01221,0.09266-0.03087l0.01293,0.02441 c-0.0273,0.01652-0.05818,0.03378-0.10845,0.03378c-0.08835,0-0.15945-0.06753-0.15945-0.18029 C51.98775,18.75562,52.06101,18.68667,52.13786,18.68667z M52.23985,18.84756c0-0.08833-0.0395-0.13358-0.10128-0.13358 c-0.05889,0-0.11132,0.05099-0.1185,0.13358H52.23985z"/><path d="M52.52866,19.02712v-0.00286c-0.01724-0.01005-0.03016-0.02873-0.03016-0.05532 c0-0.03087,0.02226-0.05243,0.03735-0.06321v-0.00286c-0.02155-0.01868-0.04309-0.05316-0.04309-0.09482 c0-0.07109,0.05387-0.12139,0.12138-0.12139c0.01868,0,0.03448,0.00432,0.04526,0.00863h0.11707v0.02657h-0.08044 c0.02226,0.0194,0.03807,0.05029,0.03807,0.08691c0,0.07039-0.05243,0.12139-0.11995,0.12139 c-0.01939,0-0.04165-0.00502-0.05746-0.01435c-0.01508,0.01219-0.02801,0.02657-0.02801,0.04955 c0,0.02514,0.01437,0.04525,0.06608,0.04525h0.07399c0.07756,0,0.11348,0.02443,0.11348,0.079 c0,0.05962-0.06392,0.11636-0.16304,0.11636c-0.08691,0-0.14149-0.03734-0.14149-0.09552 C52.47767,19.08028,52.49706,19.05011,52.52866,19.02712z M52.62276,19.18012c0.07756,0,0.12712-0.04383,0.12712-0.08691 c0-0.03808-0.02801-0.05243-0.07972-0.05243h-0.07397c-0.00719,0-0.02514-0.00144-0.04309-0.00574 c-0.0316,0.02154-0.04525,0.04813-0.04525,0.07253C52.50784,19.15067,52.54949,19.18012,52.62276,19.18012z M52.7032,18.80806 c0-0.05816-0.04022-0.09552-0.08907-0.09552c-0.04883,0-0.08977,0.03664-0.08977,0.09552 c0,0.05818,0.04165,0.09696,0.08977,0.09696C52.66154,18.90502,52.7032,18.86624,52.7032,18.80806z"/><path d="M52.96975,18.68667c0.08187,0,0.13216,0.05818,0.13216,0.15946c0,0.00861,0,0.01724-0.00144,0.02585h-0.24851 c0.00143,0.08691,0.05244,0.14939,0.12999,0.14939c0.03736,0,0.0668-0.01221,0.09266-0.03087l0.01293,0.02441 c-0.0273,0.01652-0.05818,0.03378-0.10845,0.03378c-0.08835,0-0.15945-0.06753-0.15945-0.18029 C52.81963,18.75562,52.8929,18.68667,52.96975,18.68667z M53.07173,18.84756c0-0.08833-0.0395-0.13358-0.10127-0.13358 c-0.05889,0-0.11132,0.05099-0.1185,0.13358H53.07173z M52.95681,18.62921h-0.02658l0.06537-0.09766h0.03806L52.95681,18.62921z"/><path d="M53.19533,18.6953h0.02729l0.00288,0.05315h0.00215c0.03519-0.0352,0.0711-0.06178,0.11851-0.06178 c0.0711,0,0.10414,0.0431,0.10414,0.13218v0.22121h-0.0316v-0.2169c0-0.07326-0.02298-0.10773-0.079-0.10773 c-0.04094,0-0.07039,0.02154-0.11277,0.06463v0.26001h-0.0316V18.6953z"/><path d="M53.69891,18.68667c0.08187,0,0.13216,0.05818,0.13216,0.15946c0,0.00861,0,0.01724-0.00144,0.02585h-0.2485 c0.00143,0.08691,0.05243,0.14939,0.12999,0.14939c0.03736,0,0.0668-0.01221,0.09266-0.03087l0.01293,0.02441 c-0.0273,0.01652-0.05818,0.03378-0.10845,0.03378c-0.08835,0-0.15945-0.06753-0.15945-0.18029 C53.54879,18.75562,53.62206,18.68667,53.69891,18.68667z M53.80089,18.84756c0-0.08833-0.0395-0.13358-0.10128-0.13358 c-0.05889,0-0.11132,0.05099-0.1185,0.13358H53.80089z M53.68597,18.62921h-0.02658l0.06537-0.09766h0.03806L53.68597,18.62921z"/><path d="M53.92449,18.6953h0.02729l0.00288,0.06392h0.00215c0.02298-0.04238,0.05674-0.07255,0.09768-0.07255 c0.01292,0,0.02298,0.00144,0.03447,0.00719l-0.00719,0.02873c-0.01149-0.0043-0.01795-0.00575-0.0316-0.00575 c-0.03088,0-0.06751,0.0237-0.09409,0.08835v0.23486h-0.0316V18.6953z"/><path d="M54.33894,18.82387c0.00144-0.05243-0.01365-0.10917-0.08117-0.10917c-0.04668,0-0.0869,0.02298-0.10988,0.04022 l-0.01437-0.0237c0.02442-0.01724,0.07183-0.04455,0.12784-0.04455c0.08189,0,0.10917,0.0589,0.10917,0.13288v0.22051h-0.02658 l-0.00358-0.04453h-0.00144c-0.03519,0.02801-0.07685,0.05316-0.1221,0.05316c-0.05458,0-0.10055-0.02945-0.10055-0.09482 C54.11629,18.87773,54.18596,18.84111,54.33894,18.82387z M54.22187,19.02138c0.0395,0,0.0747-0.01938,0.11707-0.05602v-0.11708 c-0.14149,0.01654-0.18962,0.04957-0.18962,0.10415C54.14932,19.002,54.18237,19.02138,54.22187,19.02138z"/><path d="M54.49415,18.52364h0.0316v0.47475c0,0.01509,0.00647,0.02226,0.01508,0.02226c0.00287,0,0.00574,0,0.01292-0.00142 l0.00574,0.02585c-0.00647,0.00216-0.01292,0.0036-0.02298,0.0036c-0.02801,0-0.04237-0.01726-0.04237-0.0546V18.52364z"/><path d="M54.78579,18.68667c0.08187,0,0.13216,0.05818,0.13216,0.15946c0,0.00861,0,0.01724-0.00144,0.02585H54.668 c0.00143,0.08691,0.05243,0.14939,0.12999,0.14939c0.03736,0,0.0668-0.01221,0.09266-0.03087l0.01294,0.02441 c-0.0273,0.01652-0.05818,0.03378-0.10845,0.03378c-0.08835,0-0.15945-0.06753-0.15945-0.18029 C54.63568,18.75562,54.70895,18.68667,54.78579,18.68667z M54.88778,18.84756c0-0.08833-0.0395-0.13358-0.10127-0.13358 c-0.05889,0-0.11133,0.05099-0.1185,0.13358H54.88778z"/><path d="M49.69248,19.73978h-0.18747l-0.05531,0.16233h-0.03376l0.16735-0.47333h0.03304l0.16663,0.47333h-0.03519 L49.69248,19.73978z M49.68314,19.71177l-0.03017-0.08833c-0.01867-0.05604-0.0359-0.10559-0.05242-0.16377h-0.00287 c-0.01652,0.05818-0.03305,0.10773-0.05244,0.16377l-0.03017,0.08833H49.68314z"/><path d="M49.85201,19.55735h0.0273l0.00286,0.05316h0.00216c0.0352-0.0352,0.07111-0.06178,0.1185-0.06178 c0.07111,0,0.10415,0.0431,0.10415,0.13218v0.22121h-0.0316v-0.2169c0-0.07326-0.02298-0.10773-0.079-0.10773 c-0.04094,0-0.0704,0.02154-0.11277,0.06463v0.26001h-0.0316V19.55735z"/><path d="M50.36276,19.54873c0.04741,0,0.07829,0.02084,0.10128,0.04239l-0.01868,0.02226 c-0.02226-0.02082-0.04812-0.03662-0.08187-0.03662c-0.07038,0-0.12498,0.06248-0.12498,0.1537 c0,0.09049,0.04956,0.15226,0.12498,0.15226c0.03663,0,0.06823-0.01794,0.09193-0.0395l0.01652,0.02156 c-0.02944,0.02657-0.06608,0.04597-0.10988,0.04597c-0.08907,0-0.15658-0.06609-0.15658-0.18029 C50.20547,19.61481,50.27872,19.54873,50.36276,19.54873z"/><path d="M50.54454,19.44602c0-0.01794,0.01293-0.02873,0.02873-0.02873c0.0158,0,0.02873,0.01079,0.02873,0.02873 c0,0.01654-0.01292,0.02803-0.02873,0.02803C50.55747,19.47405,50.54454,19.46256,50.54454,19.44602z M50.55675,19.55735h0.0316 v0.34476h-0.0316V19.55735z"/><path d="M50.84264,19.54873c0.08187,0,0.13216,0.05818,0.13216,0.15947c0,0.00861,0,0.01724-0.00144,0.02585h-0.24851 c0.00143,0.08691,0.05243,0.14939,0.12999,0.14939c0.03736,0,0.0668-0.01221,0.09266-0.03087l0.01294,0.0244 c-0.0273,0.01652-0.05818,0.03378-0.10845,0.03378c-0.08835,0-0.15945-0.06753-0.15945-0.18029 C50.69252,19.61768,50.76579,19.54873,50.84264,19.54873z M50.94462,19.70961c0-0.08833-0.0395-0.13358-0.10127-0.13358 c-0.05889,0-0.11132,0.05099-0.1185,0.13358H50.94462z"/><path d="M51.06822,19.55735h0.02729l0.00288,0.05316h0.00216c0.03518-0.0352,0.0711-0.06178,0.11851-0.06178 c0.0711,0,0.10414,0.0431,0.10414,0.13218v0.22121h-0.0316v-0.2169c0-0.07326-0.02298-0.10773-0.079-0.10773 c-0.04094,0-0.07039,0.02154-0.11277,0.06463v0.26001h-0.0316V19.55735z"/><path d="M51.59479,19.42878h0.03304v0.47333h-0.03304V19.42878z"/><path d="M51.76073,19.55735h0.0273l0.00286,0.05316h0.00216c0.03519-0.0352,0.0711-0.06178,0.1185-0.06178 c0.07111,0,0.10415,0.0431,0.10415,0.13218v0.22121h-0.0316v-0.2169c0-0.07326-0.02298-0.10773-0.079-0.10773 c-0.04094,0-0.07039,0.02154-0.11277,0.06463v0.26001h-0.0316V19.55735z"/><path d="M52.15082,19.58464h-0.05387v-0.02443l0.05459-0.00286l0.00431-0.09984h0.02729v0.09984h0.09983v0.02729h-0.09983 v0.22481c0,0.04383,0.01077,0.07326,0.05818,0.07326c0.01292,0,0.03088-0.00503,0.04309-0.01077l0.00862,0.02587 c-0.02011,0.00717-0.04166,0.01293-0.05603,0.01293c-0.0668,0-0.08619-0.04238-0.08619-0.10415V19.58464z"/><path d="M52.48126,19.54873c0.08187,0,0.13216,0.05818,0.13216,0.15947c0,0.00861,0,0.01724-0.00144,0.02585h-0.24851 c0.00143,0.08691,0.05244,0.14939,0.12999,0.14939c0.03736,0,0.0668-0.01221,0.09266-0.03087l0.01293,0.0244 c-0.0273,0.01652-0.05818,0.03378-0.10845,0.03378c-0.08835,0-0.15945-0.06753-0.15945-0.18029 C52.33115,19.61768,52.40441,19.54873,52.48126,19.54873z M52.58324,19.70961c0-0.08833-0.0395-0.13358-0.10127-0.13358 c-0.05889,0-0.11132,0.05099-0.1185,0.13358H52.58324z"/><path d="M52.70684,19.55735h0.02729l0.00288,0.06393h0.00215c0.02298-0.04238,0.05674-0.07256,0.09768-0.07256 c0.01292,0,0.02298,0.00144,0.03448,0.00719l-0.00719,0.02873c-0.01149-0.0043-0.01795-0.00574-0.0316-0.00574 c-0.03088,0-0.06751,0.0237-0.09409,0.08835v0.23486h-0.0316V19.55735z"/><path d="M52.93456,19.55735h0.02729l0.00288,0.05316h0.00215c0.03519-0.0352,0.07111-0.06178,0.11852-0.06178 c0.0711,0,0.10414,0.0431,0.10414,0.13218v0.22121h-0.0316v-0.2169c0-0.07326-0.02298-0.10773-0.079-0.10773 c-0.04094,0-0.07039,0.02154-0.11277,0.06463v0.26001h-0.0316V19.55735z"/><path d="M53.43813,19.54873c0.08187,0,0.13216,0.05818,0.13216,0.15947c0,0.00861,0,0.01724-0.00144,0.02585h-0.24851 c0.00143,0.08691,0.05243,0.14939,0.12999,0.14939c0.03736,0,0.0668-0.01221,0.09266-0.03087l0.01294,0.0244 c-0.0273,0.01652-0.05818,0.03378-0.10845,0.03378c-0.08835,0-0.15945-0.06753-0.15945-0.18029 C53.28802,19.61768,53.36129,19.54873,53.43813,19.54873z M53.54012,19.70961c0-0.08833-0.0395-0.13358-0.10127-0.13358 c-0.05889,0-0.11132,0.05099-0.1185,0.13358H53.54012z"/><path d="M53.93093,19.54873c0.04165,0,0.06966,0.01582,0.10414,0.04239l-0.00143-0.06321V19.3857h0.0316v0.51641h-0.02729 l-0.00288-0.04453h-0.00215c-0.02801,0.02801-0.06608,0.05315-0.11205,0.05315c-0.08691,0-0.14293-0.06393-0.14293-0.18029 C53.77794,19.61912,53.84904,19.54873,53.93093,19.54873z M53.92518,19.88271c0.03807,0,0.07182-0.0201,0.10845-0.05674 v-0.20469c-0.03663-0.03231-0.0668-0.04453-0.10056-0.04453c-0.06895,0-0.12139,0.06679-0.12139,0.1537 C53.81169,19.82167,53.85191,19.88271,53.92518,19.88271z"/><path d="M54.31885,19.54873c0.08187,0,0.13216,0.05818,0.13216,0.15947c0,0.00861,0,0.01724-0.00144,0.02585h-0.24851 c0.00143,0.08691,0.05243,0.14939,0.12999,0.14939c0.03736,0,0.0668-0.01221,0.09266-0.03087l0.01294,0.0244 c-0.0273,0.01652-0.05818,0.03378-0.10845,0.03378c-0.08835,0-0.15945-0.06753-0.15945-0.18029 C54.16874,19.61768,54.242,19.54873,54.31885,19.54873z M54.42083,19.70961c0-0.08833-0.0395-0.13358-0.10127-0.13358 c-0.05889,0-0.11132,0.05099-0.1185,0.13358H54.42083z"/><path d="M54.52001,19.83963c0.02945,0.02443,0.06034,0.04381,0.10989,0.04381c0.05387,0,0.08189-0.03159,0.08189-0.06823 c0-0.04308-0.04454-0.06176-0.08404-0.07614c-0.05243-0.01866-0.10989-0.0395-0.10989-0.0984 c0-0.05027,0.03951-0.09194,0.11132-0.09194c0.03664,0,0.07327,0.0151,0.0984,0.03592l-0.01724,0.02226 c-0.02298-0.01724-0.0474-0.03087-0.0826-0.03087c-0.05315,0-0.07757,0.03087-0.07757,0.06248 c0,0.03806,0.04022,0.05457,0.08117,0.06967c0.05387,0.0201,0.11276,0.03806,0.11276,0.10557 c0,0.05171-0.04166,0.09698-0.11635,0.09698c-0.05099,0-0.09553-0.02156-0.12641-0.04741L54.52001,19.83963z"/><path d="M54.97977,19.42878h0.03304v0.20757h0.25282v-0.20757h0.03304v0.47333h-0.03304v-0.23703h-0.25282v0.23703h-0.03304 V19.42878z"/><path d="M55.55804,19.54873c0.08332,0,0.15514,0.06609,0.15514,0.18173c0,0.1142-0.07182,0.18029-0.15514,0.18029 c-0.0826,0-0.15442-0.06609-0.15442-0.18029C55.40362,19.61481,55.47544,19.54873,55.55804,19.54873z M55.55804,19.88271 c0.06967,0,0.1221-0.06176,0.1221-0.15226c0-0.09122-0.05243-0.1537-0.1221-0.1537c-0.06966,0-0.12138,0.06248-0.12138,0.1537 C55.43666,19.82095,55.48838,19.88271,55.55804,19.88271z M55.54439,19.39361h0.02801l0.06752,0.09766h-0.02658 l-0.05387-0.07109h-0.00287l-0.05387,0.07109h-0.02585L55.54439,19.39361z"/><path d="M55.84828,19.93228v0.12569h-0.0316v-0.50062h0.02729l0.00288,0.04311H55.849 c0.03376-0.02659,0.0747-0.05173,0.11707-0.05173c0.09193,0,0.1379,0.06895,0.1379,0.17598 c0,0.11708-0.0711,0.18603-0.15227,0.18603c-0.03232,0-0.06752-0.01582-0.10343-0.04238V19.93228z M55.95028,19.88271 c0.06966,0,0.11994-0.06463,0.11994-0.158c0-0.08475-0.03017-0.14795-0.10917-0.14795 c-0.03447,0-0.07111,0.0201-0.11277,0.05674v0.20469C55.88778,19.8705,55.9237,19.88271,55.95028,19.88271z"/><path d="M56.19526,19.44602c0-0.01794,0.01294-0.02873,0.02873-0.02873c0.01581,0,0.02873,0.01079,0.02873,0.02873 c0,0.01654-0.01292,0.02803-0.02873,0.02803C56.20819,19.47405,56.19526,19.46256,56.19526,19.44602z M56.20747,19.55735h0.0316 v0.34476h-0.0316V19.55735z"/><path d="M56.37987,19.58464H56.326v-0.02443l0.05459-0.00286l0.00431-0.09984h0.02729v0.09984h0.09983v0.02729h-0.09983v0.22481 c0,0.04383,0.01077,0.07326,0.05818,0.07326c0.01292,0,0.03088-0.00503,0.04309-0.01077l0.00862,0.02587 c-0.02011,0.00717-0.04166,0.01293-0.05603,0.01293c-0.0668,0-0.08619-0.04238-0.08619-0.10415V19.58464z"/><path d="M56.78428,19.68593c0.00144-0.05243-0.01364-0.10917-0.08116-0.10917c-0.04668,0-0.0869,0.02298-0.10989,0.04022 l-0.01436-0.0237c0.02441-0.01724,0.07182-0.04455,0.12784-0.04455c0.08188,0,0.10917,0.0589,0.10917,0.13288v0.22051h-0.02658 l-0.00359-0.04453h-0.00144c-0.03519,0.02801-0.07685,0.05315-0.12209,0.05315c-0.05459,0-0.10056-0.02945-0.10056-0.09482 C56.56163,19.73978,56.6313,19.70317,56.78428,19.68593z M56.66721,19.88343c0.0395,0,0.0747-0.01938,0.11707-0.05602v-0.11708 c-0.14148,0.01654-0.18961,0.04957-0.18961,0.10415C56.59467,19.86405,56.62771,19.88343,56.66721,19.88343z"/><path d="M56.93447,19.55735h0.0316v0.2169c0,0.07326,0.02298,0.10773,0.07828,0.10773 c0.04094,0,0.07111-0.02154,0.11134-0.07037v-0.25426h0.0316v0.34476h-0.02658l-0.00359-0.05746h-0.00143 c-0.03375,0.0395-0.06967,0.06609-0.11708,0.06609c-0.0711,0-0.10414-0.0431-0.10414-0.13218V19.55735z"/><path d="M57.38057,19.72182l-0.10774-0.16447h0.03519l0.05602,0.08763c0.01149,0.01866,0.0237,0.03806,0.03664,0.05674h0.00287 c0.0122-0.01868,0.02299-0.03808,0.03519-0.05674l0.05388-0.08763h0.03303l-0.10701,0.16735l0.11707,0.1774h-0.0352 l-0.06105-0.0941c-0.01292-0.02154-0.02657-0.04309-0.04094-0.06321h-0.00286c-0.01365,0.02012-0.02587,0.04166-0.03951,0.06321 l-0.05889,0.0941H57.2635L57.38057,19.72182z"/><path d="M57.87911,19.54873c0.04165,0,0.06966,0.01582,0.10414,0.04239l-0.00143-0.06321V19.3857h0.0316v0.51641h-0.02729 l-0.00288-0.04453h-0.00215c-0.02801,0.02801-0.06608,0.05315-0.11205,0.05315c-0.08691,0-0.14293-0.06393-0.14293-0.18029 C57.72612,19.61912,57.79722,19.54873,57.87911,19.54873z M57.87336,19.88271c0.03807,0,0.07182-0.0201,0.10845-0.05674 v-0.20469c-0.03663-0.03231-0.0668-0.04453-0.10056-0.04453c-0.06895,0-0.12138,0.06679-0.12138,0.1537 C57.75988,19.82167,57.8001,19.88271,57.87336,19.88271z"/><path d="M58.26703,19.54873c0.08187,0,0.13216,0.05818,0.13216,0.15947c0,0.00861,0,0.01724-0.00144,0.02585h-0.24851 c0.00143,0.08691,0.05244,0.14939,0.13,0.14939c0.03736,0,0.0668-0.01221,0.09266-0.03087l0.01293,0.0244 c-0.0273,0.01652-0.05818,0.03378-0.10845,0.03378c-0.08835,0-0.15945-0.06753-0.15945-0.18029 C58.11692,19.61768,58.19018,19.54873,58.26703,19.54873z M58.36902,19.70961c0-0.08833-0.0395-0.13358-0.10128-0.13358 c-0.05889,0-0.11132,0.05099-0.1185,0.13358H58.36902z"/><path d="M58.637,19.42878h0.03304v0.4446h0.21762v0.02873H58.637V19.42878z"/><path d="M58.9337,20.02996c0.04237,0,0.07111-0.03878,0.08834-0.09121l0.00934-0.03017l-0.1415-0.35122h0.03448l0.08332,0.2169 c0.01077,0.02873,0.02441,0.06609,0.03735,0.09624h0.00288c0.01077-0.03015,0.02226-0.06751,0.0316-0.09624l0.07397-0.2169 h0.03233l-0.13647,0.38786c-0.01939,0.05746-0.05387,0.1142-0.11563,0.1142c-0.01293,0-0.02586-0.00288-0.03519-0.00719 l0.00718-0.02801C58.91287,20.02708,58.92365,20.02996,58.9337,20.02996z"/><path d="M59.38625,19.54873c0.08332,0,0.15514,0.06609,0.15514,0.18173c0,0.1142-0.07182,0.18029-0.15514,0.18029 c-0.0826,0-0.15442-0.06609-0.15442-0.18029C59.23183,19.61481,59.30366,19.54873,59.38625,19.54873z M59.38625,19.88271 c0.06967,0,0.12211-0.06176,0.12211-0.15226c0-0.09122-0.05244-0.1537-0.12211-0.1537 c-0.06966,0-0.12137,0.06248-0.12137,0.1537C59.26488,19.82095,59.31659,19.88271,59.38625,19.88271z"/><path d="M59.64489,19.55735h0.02729l0.00288,0.05316h0.00215c0.03519-0.0352,0.07111-0.06178,0.11852-0.06178 c0.0711,0,0.10414,0.0431,0.10414,0.13218v0.22121h-0.0316v-0.2169c0-0.07326-0.02298-0.10773-0.079-0.10773 c-0.04094,0-0.07039,0.02154-0.11277,0.06463v0.26001h-0.0316V19.55735z"/><path d="M49.65226,20.28225c0.05531,0,0.09768,0.02729,0.12282,0.05674l-0.01939,0.02154 c-0.02586-0.02873-0.06033-0.04811-0.10343-0.04811c-0.10343,0-0.16807,0.08259-0.16807,0.21402s0.06392,0.2162,0.1652,0.2162 c0.04884,0,0.08547-0.0194,0.11995-0.05818l0.01939,0.02082c-0.0359,0.04166-0.079,0.06751-0.14077,0.06751 c-0.11635,0-0.19823-0.09552-0.19823-0.24636C49.44971,20.37635,49.5316,20.28225,49.65226,20.28225z"/><path d="M49.8793,20.24777h0.0316v0.14939v0.07614c0.03592-0.03592,0.07182-0.06248,0.11922-0.06248 c0.07112,0,0.10415,0.04309,0.10415,0.13214v0.22123h-0.0316v-0.2169c0-0.07328-0.02298-0.10775-0.079-0.10775 c-0.04094,0-0.07039,0.02156-0.11277,0.06465v0.26001h-0.0316V20.24777z"/><path d="M50.38,20.41082c0.08187,0,0.13216,0.05816,0.13216,0.15944c0,0.00861,0,0.01724-0.00144,0.02585H50.2622 c0.00143,0.08691,0.05244,0.14939,0.13,0.14939c0.03736,0,0.0668-0.01221,0.09266-0.03087l0.01293,0.0244 c-0.0273,0.01654-0.05818,0.03376-0.10845,0.03376c-0.08835,0-0.15945-0.06751-0.15945-0.18027 C50.22988,20.47977,50.30315,20.41082,50.38,20.41082z M50.48198,20.57171c0-0.08835-0.0395-0.1336-0.10128-0.1336 c-0.05889,0-0.11132,0.05099-0.1185,0.1336H50.48198z"/><path d="M50.73774,20.2765c-0.01437-0.00719-0.02873-0.01005-0.04166-0.01005c-0.03663,0-0.05387,0.02873-0.05387,0.07828 v0.0747h0.07973v0.02729h-0.07973v0.31747h-0.0316v-0.31747h-0.0474v-0.0244l0.0474-0.00288v-0.07686 c0-0.06823,0.03089-0.10343,0.08547-0.10343c0.0158,0,0.03448,0.00433,0.05028,0.01149L50.73774,20.2765z"/><path d="M51.06171,20.41082c0.04165,0,0.06967,0.0158,0.10415,0.04236l-0.00144-0.06321v-0.14221h0.0316v0.51641h-0.0273 l-0.00286-0.04453H51.1637c-0.02801,0.02801-0.06608,0.05313-0.11205,0.05313c-0.0869,0-0.14293-0.06391-0.14293-0.18027 C50.90873,20.4812,50.97983,20.41082,51.06171,20.41082z M51.05597,20.74479c0.03806,0,0.07182-0.0201,0.10845-0.05674v-0.20469 c-0.03663-0.03233-0.0668-0.04453-0.10056-0.04453c-0.06895,0-0.12138,0.06679-0.12138,0.1537 C50.94248,20.68374,50.9827,20.74479,51.05597,20.74479z"/><path d="M51.44964,20.41082c0.08187,0,0.13216,0.05816,0.13216,0.15944c0,0.00861,0,0.01724-0.00144,0.02585h-0.24851 c0.00143,0.08691,0.05243,0.14939,0.13,0.14939c0.03734,0,0.06679-0.01221,0.09265-0.03087l0.01293,0.0244 c-0.0273,0.01654-0.05818,0.03376-0.10846,0.03376c-0.08834,0-0.15944-0.06751-0.15944-0.18027 C51.29952,20.47977,51.37278,20.41082,51.44964,20.41082z M51.55162,20.57171c0-0.08835-0.0395-0.1336-0.10126-0.1336 c-0.0589,0-0.11134,0.05099-0.11852,0.1336H51.55162z"/><path d="M51.94674,20.41082c0.04741,0,0.07829,0.02082,0.10127,0.04236l-0.01867,0.02226 c-0.02227-0.02082-0.04813-0.03662-0.08188-0.03662c-0.0704,0-0.12497,0.06248-0.12497,0.1537 c0,0.09049,0.04955,0.15226,0.12497,0.15226c0.03662,0,0.06823-0.01796,0.09193-0.0395l0.01652,0.02154 c-0.02945,0.02659-0.06608,0.04597-0.10989,0.04597c-0.08905,0-0.15657-0.06607-0.15657-0.18027 C51.78944,20.47689,51.86271,20.41082,51.94674,20.41082z"/><path d="M52.14073,20.24777h0.0316v0.47475c0,0.01509,0.00647,0.02226,0.01509,0.02226c0.00287,0,0.00574,0,0.01292-0.00142 l0.00575,0.02585c-0.00647,0.00216-0.01292,0.00358-0.02298,0.00358c-0.02801,0-0.04237-0.01722-0.04237-0.05458V20.24777z"/><path d="M52.29877,20.3081c0-0.01796,0.01293-0.02873,0.02873-0.02873c0.01581,0,0.02873,0.01077,0.02873,0.02873 c0,0.01652-0.01292,0.02801-0.02873,0.02801C52.3117,20.33611,52.29877,20.32461,52.29877,20.3081z M52.31098,20.41943h0.0316 v0.34476h-0.0316V20.41943z"/><path d="M52.47548,20.41943h0.02729l0.00288,0.05315h0.00216c0.03518-0.0352,0.0711-0.06176,0.11851-0.06176 c0.0711,0,0.10414,0.04309,0.10414,0.13214v0.22123h-0.0316v-0.2169c0-0.07328-0.02298-0.10775-0.079-0.10775 c-0.04094,0-0.07039,0.02156-0.11277,0.06465v0.26001h-0.0316V20.41943z"/><path d="M52.84546,20.3081c0-0.01796,0.01293-0.02873,0.02873-0.02873c0.01581,0,0.02873,0.01077,0.02873,0.02873 c0,0.01652-0.01292,0.02801-0.02873,0.02801C52.85839,20.33611,52.84546,20.32461,52.84546,20.3081z M52.85767,20.41943h0.0316 v0.34476h-0.0316V20.41943z"/><path d="M53.14643,20.41082c0.04165,0,0.07038,0.01508,0.10271,0.0402h0.00143l0.00359-0.03159h0.02658v0.50062h-0.0316 v-0.13288l0.00143-0.06679c-0.03088,0.02801-0.06895,0.05241-0.1142,0.05241c-0.08691,0-0.14293-0.06391-0.14293-0.18027 C52.99344,20.4812,53.06454,20.41082,53.14643,20.41082z M53.14069,20.74479c0.03807,0,0.07182-0.0201,0.10845-0.05674v-0.20469 c-0.03663-0.03233-0.0668-0.04453-0.10056-0.04453c-0.06895,0-0.12138,0.06679-0.12138,0.1537 C53.0272,20.68374,53.06742,20.74479,53.14069,20.74479z"/><path d="M53.40292,20.41943h0.0316v0.2169c0,0.07328,0.02298,0.10775,0.07828,0.10775 c0.04094,0,0.07111-0.02156,0.11134-0.07039v-0.25426h0.0316v0.34476h-0.02658l-0.00359-0.05746h-0.00143 c-0.03376,0.0395-0.06967,0.06607-0.11708,0.06607c-0.07111,0-0.10414-0.04309-0.10414-0.13214V20.41943z"/><path d="M53.90936,20.41082c0.08187,0,0.13216,0.05816,0.13216,0.15944c0,0.00861,0,0.01724-0.00144,0.02585h-0.24851 c0.00143,0.08691,0.05243,0.14939,0.13,0.14939c0.03734,0,0.06679-0.01221,0.09265-0.03087l0.01293,0.0244 c-0.0273,0.01654-0.05818,0.03376-0.10846,0.03376c-0.08834,0-0.15944-0.06751-0.15944-0.18027 C53.75924,20.47977,53.83249,20.41082,53.90936,20.41082z M54.01134,20.57171c0-0.08835-0.0395-0.1336-0.10126-0.1336 c-0.0589,0-0.11134,0.05099-0.11852,0.1336H54.01134z"/><path d="M54.40215,20.41082c0.04165,0,0.06967,0.0158,0.10415,0.04236l-0.00144-0.06321v-0.14221h0.0316v0.51641h-0.0273 l-0.00286-0.04453h-0.00216c-0.02801,0.02801-0.06608,0.05313-0.11205,0.05313c-0.0869,0-0.14293-0.06391-0.14293-0.18027 C54.24916,20.4812,54.32026,20.41082,54.40215,20.41082z M54.3964,20.74479c0.03806,0,0.07182-0.0201,0.10845-0.05674v-0.20469 c-0.03663-0.03233-0.0668-0.04453-0.10056-0.04453c-0.06895,0-0.12138,0.06679-0.12138,0.1537 C54.28291,20.68374,54.32313,20.74479,54.3964,20.74479z"/><path d="M54.79007,20.41082c0.08187,0,0.13216,0.05816,0.13216,0.15944c0,0.00861,0,0.01724-0.00144,0.02585h-0.24851 c0.00143,0.08691,0.05243,0.14939,0.13,0.14939c0.03734,0,0.06679-0.01221,0.09265-0.03087l0.01293,0.0244 c-0.0273,0.01654-0.05818,0.03376-0.10846,0.03376c-0.08834,0-0.15944-0.06751-0.15944-0.18027 C54.63995,20.47977,54.71321,20.41082,54.79007,20.41082z M54.89205,20.57171c0-0.08835-0.0395-0.1336-0.10126-0.1336 c-0.0589,0-0.11134,0.05099-0.11852,0.1336H54.89205z"/><path d="M55.1586,20.24777h0.0316v0.47475c0,0.01509,0.00647,0.02226,0.01508,0.02226c0.00288,0,0.00575,0,0.01292-0.00142 l0.00574,0.02585c-0.00647,0.00216-0.01292,0.00358-0.02298,0.00358c-0.02801,0-0.04237-0.01722-0.04237-0.05458V20.24777z"/><path d="M55.53212,20.548c0.00144-0.05243-0.01365-0.10917-0.08117-0.10917c-0.04668,0-0.0869,0.02298-0.10988,0.04022 l-0.01437-0.0237c0.02441-0.01724,0.07182-0.04453,0.12784-0.04453c0.08189,0,0.10917,0.05888,0.10917,0.13286v0.22051h-0.02658 l-0.00358-0.04453h-0.00144c-0.0352,0.02801-0.07685,0.05313-0.1221,0.05313c-0.05459,0-0.10056-0.02943-0.10056-0.0948 C55.30947,20.60186,55.37914,20.56524,55.53212,20.548z M55.41505,20.74551c0.0395,0,0.0747-0.01938,0.11707-0.05602v-0.11708 c-0.14149,0.01652-0.18962,0.04957-0.18962,0.10415C55.3425,20.72613,55.37555,20.74551,55.41505,20.74551z"/><path d="M55.96244,20.2765c-0.01437-0.00719-0.02873-0.01005-0.04165-0.01005c-0.03664,0-0.05388,0.02873-0.05388,0.07828 v0.0747h0.07972v0.02729h-0.07972v0.31747h-0.0316v-0.31747h-0.0474v-0.0244l0.0474-0.00288v-0.07686 c0-0.06823,0.03088-0.10343,0.08548-0.10343c0.0158,0,0.03447,0.00433,0.05027,0.01149L55.96244,20.2765z"/><path d="M56.2081,20.548c0.00144-0.05243-0.01364-0.10917-0.08116-0.10917c-0.04668,0-0.0869,0.02298-0.10989,0.04022 l-0.01436-0.0237c0.02441-0.01724,0.07182-0.04453,0.12784-0.04453c0.08188,0,0.10917,0.05888,0.10917,0.13286v0.22051h-0.02658 l-0.00359-0.04453H56.2081c-0.03519,0.02801-0.07685,0.05313-0.12209,0.05313c-0.05459,0-0.10056-0.02943-0.10056-0.0948 C55.98545,20.60186,56.05512,20.56524,56.2081,20.548z M56.09103,20.74551c0.0395,0,0.0747-0.01938,0.11707-0.05602v-0.11708 c-0.14148,0.01652-0.18961,0.04957-0.18961,0.10415C56.01849,20.72613,56.05153,20.74551,56.09103,20.74551z"/><path d="M56.49187,20.41082c0.04741,0,0.07829,0.02082,0.10128,0.04236l-0.01867,0.02226 c-0.02227-0.02082-0.04813-0.03662-0.08189-0.03662c-0.07039,0-0.12497,0.06248-0.12497,0.1537 c0,0.09049,0.04955,0.15226,0.12497,0.15226c0.03663,0,0.06823-0.01796,0.09193-0.0395l0.01652,0.02154 c-0.02945,0.02659-0.06608,0.04597-0.10989,0.04597c-0.08905,0-0.15657-0.06607-0.15657-0.18027 C56.33458,20.47689,56.40785,20.41082,56.49187,20.41082z"/><path d="M56.68084,20.41943h0.0316v0.2169c0,0.07328,0.02298,0.10775,0.07828,0.10775 c0.04094,0,0.07111-0.02156,0.11134-0.07039v-0.25426h0.0316v0.34476h-0.02658l-0.00359-0.05746h-0.00143 c-0.03376,0.0395-0.06967,0.06607-0.11708,0.06607c-0.0711,0-0.10414-0.04309-0.10414-0.13214V20.41943z"/><path d="M57.0659,20.24777h0.0316v0.47475c0,0.01509,0.00647,0.02226,0.01508,0.02226c0.00287,0,0.00575,0,0.01292-0.00142 l0.00574,0.02585c-0.00647,0.00216-0.01292,0.00358-0.02298,0.00358c-0.02801,0-0.04237-0.01722-0.04237-0.05458V20.24777z"/><path d="M57.24406,20.44672h-0.05387v-0.0244l0.05458-0.00288l0.00431-0.09984h0.0273v0.09984h0.09983v0.02729h-0.09983v0.22481 c0,0.0438,0.01077,0.07326,0.05818,0.07326c0.01292,0,0.03088-0.00503,0.04309-0.01077l0.00862,0.02587 c-0.02011,0.00719-0.04166,0.01291-0.05603,0.01291c-0.06679,0-0.08619-0.04236-0.08619-0.10413V20.44672z"/><path d="M57.57449,20.41082c0.08187,0,0.13216,0.05816,0.13216,0.15944c0,0.00861,0,0.01724-0.00144,0.02585H57.4567 c0.00143,0.08691,0.05243,0.14939,0.12999,0.14939c0.03736,0,0.0668-0.01221,0.09266-0.03087l0.01294,0.0244 c-0.0273,0.01654-0.05818,0.03376-0.10845,0.03376c-0.08835,0-0.15945-0.06751-0.15945-0.18027 C57.42438,20.47977,57.49764,20.41082,57.57449,20.41082z M57.67648,20.57171c0-0.08835-0.0395-0.1336-0.10127-0.1336 c-0.05889,0-0.11132,0.05099-0.1185,0.1336H57.67648z M57.56156,20.35336h-0.02658l0.06537-0.0977h0.03806L57.56156,20.35336z"/></g><g id="Samsung_Galaxy_S4_6_"><path fill="#525252" d="M77.91712,16.79434V7.25036c0-1.69653-1.51542-5.28705-7.18745-5.28705H51.59702 c-5.71447,0-7.17791,3.42119-7.17791,5.28705v4.69768c-0.05643,0.02933-0.08464,0.08387-0.08464,0.14649v10.58276 c0,0.06264,0.02821,0.1172,0.08464,0.14649v37.5022c0,6.1498,4.76527,7.16576,10.12718,7.16576h13.26369 c5.8135,0,10.10713-1.29816,10.10713-7.16576V22.3517c0.02821-0.03098,0.05643-0.07585,0.05643-0.12595v-5.30549 C77.97356,16.8702,77.94534,16.82533,77.91712,16.79434z M74.32951,45.96058H48.37247V15.29446h25.95703V45.96058z"/><path id="ecran_bkgd_telephone_6_" fill="#F7F7F7" d="M46.20602,7.63567v54.18373h30.47832V7.63567H46.20602z M74.15594,45.70659H48.53005V15.53718h25.62589V45.70659z"/><g id="haut_parleur_6_"><path fill="#FFF" d="M64.91634,4.1802h-6.94232c-0.38206,0-0.69292-0.3109-0.69292-0.693s0.31086-0.69292,0.69292-0.69292 h6.94232c0.38206,0,0.69292,0.31082,0.69292,0.69292S65.2984,4.1802,64.91634,4.1802z M57.97402,3.27712 c-0.11584,0-0.21007,0.09423-0.21007,0.21007s0.09423,0.21015,0.21007,0.21015h6.94232 c0.11584,0,0.21008-0.09431,0.21008-0.21015s-0.09423-0.21007-0.21008-0.21007H57.97402z"/></g><g id="bouton_téléphone_6_"><path fill="#FFF" d="M64.85987,65.47552h-6.82938c-0.52215,0-0.94696-0.42477-0.94696-0.94692v-0.9595 c0-0.52215,0.42481-0.947,0.94696-0.947h6.82938c0.52215,0,0.94697,0.42485,0.94697,0.947v0.9595 C65.80684,65.05074,65.38202,65.47552,64.85987,65.47552z M58.03049,63.10494c-0.25593,0-0.46411,0.20818-0.46411,0.46415 v0.9595c0,0.25588,0.20818,0.46407,0.46411,0.46407h6.82938c0.25593,0,0.46411-0.20818,0.46411-0.46407v-0.9595 c0-0.25597-0.20818-0.46415-0.46411-0.46415H58.03049z"/></g></g><rect id="bouton_choisir_une_pharma_4_" width="28.2" height="6.991" x="47.345" y="53.578" fill="#06BABE"/><g id="CHOISIR_MA_PHARMACIE_4_"><path fill="#FFF" d="M49.88337,56.24268c0.18093,0,0.32467,0.08812,0.41505,0.18788l-0.10898,0.12288 c-0.08117-0.08569-0.1785-0.14148-0.30365-0.14148c-0.29007,0-0.48248,0.23671-0.48248,0.61474 c0,0.38255,0.18319,0.62379,0.4731,0.62379c0.1439,0,0.25045-0.06031,0.34795-0.16929l0.10897,0.11819 c-0.11835,0.13921-0.26905,0.22038-0.46146,0.22038c-0.38288,0-0.66809-0.29217-0.66809-0.78855 C49.2038,56.54197,49.49386,56.24268,49.88337,56.24268z"/><path fill="#FFF" d="M50.60402,56.27049h0.19467v0.63786h0.70739v-0.63786h0.19257v1.52149h-0.19257v-0.7166h-0.70739v0.7166 h-0.19467V56.27049z"/><path fill="#FFF" d="M52.01555,57.02428c0-0.487,0.26889-0.7816,0.6516-0.7816c0.38029,0,0.64934,0.29686,0.64934,0.7816 c0,0.48943-0.26905,0.79551-0.64934,0.79551C52.28444,57.81979,52.01555,57.51371,52.01555,57.02428z M53.11697,57.02428 c0-0.37803-0.1785-0.61231-0.44982-0.61231c-0.27357,0-0.45224,0.23429-0.45224,0.61231 c0,0.38045,0.17867,0.62622,0.45224,0.62622C52.93847,57.65051,53.11697,57.40474,53.11697,57.02428z"/><path fill="#FFF" d="M53.63114,56.27049h0.19484v1.52149h-0.19484V56.27049z"/><path fill="#FFF" d="M54.23618,57.46036c0.10898,0.11367,0.25967,0.19015,0.41974,0.19015 c0.19936,0,0.31772-0.09976,0.31772-0.24819c0-0.15538-0.1114-0.20405-0.25515-0.26905l-0.21812-0.09507 c-0.14132-0.06031-0.30834-0.16929-0.30834-0.39193c0-0.23186,0.20405-0.40358,0.48005-0.40358 c0.18093,0,0.34084,0.07664,0.44755,0.18788l-0.10186,0.12531c-0.09281-0.08812-0.20664-0.1439-0.34569-0.1439 c-0.17171,0-0.28522,0.08586-0.28522,0.22264c0,0.14616,0.13452,0.20179,0.25272,0.25288l0.21812,0.09281 c0.17624,0.07648,0.31303,0.18077,0.31303,0.40584c0,0.24124-0.19952,0.43365-0.5195,0.43365 c-0.21327,0-0.39888-0.08812-0.53115-0.22491L54.23618,57.46036z"/><path fill="#FFF" d="M55.45531,56.27049h0.19483v1.52149h-0.19483V56.27049z"/><path fill="#FFF" d="M56.88819,57.79198l-0.36639-0.64239h-0.27357v0.64239h-0.195v-1.52149h0.47779 c0.3085,0,0.53115,0.1114,0.53115,0.42686c0,0.23655-0.13453,0.37803-0.34084,0.43139l0.38725,0.66325H56.88819z M56.24823,56.99179h0.25498c0.23655,0,0.36655-0.09734,0.36655-0.29444c0-0.19952-0.13-0.27131-0.36655-0.27131h-0.25498 V56.99179z"/><path fill="#FFF" d="M57.84975,56.27049h0.19484v0.89769c0,0.36639,0.15538,0.48232,0.35248,0.48232 c0.20179,0,0.36186-0.11593,0.36186-0.48232v-0.89769h0.18546v0.89301c0,0.48927-0.23655,0.65629-0.54732,0.65629 c-0.31076,0-0.54731-0.16702-0.54731-0.65629V56.27049z"/><path fill="#FFF" d="M59.34019,56.27049h0.19936l0.55201,0.95558l0.1646,0.31546h0.00938 c-0.00938-0.15312-0.02555-0.32467-0.02555-0.48474v-0.78629h0.18335v1.52149h-0.19952l-0.54974-0.95784l-0.1646-0.31303 H59.5001c0.00938,0.15296,0.02328,0.31529,0.02328,0.47536v0.79551h-0.18319V56.27049z"/><path fill="#FFF" d="M60.82821,56.27049h0.87667v0.1625h-0.68167v0.47763h0.57496v0.16476h-0.57496v0.552h0.70496v0.1646 h-0.89996V56.27049z"/><path fill="#FFF" d="M62.50653,56.27049h0.46841c0.33615,0,0.56122,0.11367,0.56122,0.44772 c0,0.31998-0.2296,0.47084-0.56122,0.47084h-0.27374v0.60294h-0.19467V56.27049z M62.9494,57.03124 c0.26662,0,0.39436-0.09734,0.39436-0.31303c0-0.22038-0.13226-0.29217-0.39436-0.29217h-0.24819v0.6052H62.9494z"/><path fill="#FFF" d="M63.83012,56.27049h0.19467v0.63786h0.70738v-0.63786h0.19257v1.52149h-0.19257v-0.7166h-0.70738v0.7166 h-0.19467V56.27049z"/><path fill="#FFF" d="M66.02552,57.3281h-0.55427l-0.14617,0.46388h-0.19726l0.51498-1.52149h0.21796l0.51498,1.52149 h-0.20421L66.02552,57.3281z M65.97668,57.17271l-0.07178-0.23186c-0.05336-0.16929-0.10219-0.33631-0.1507-0.51255h-0.00938 c-0.04883,0.17624-0.09734,0.34326-0.1507,0.51255l-0.07437,0.23186H65.97668z"/><path fill="#FFF" d="M67.41151,57.79198l-0.36638-0.64239h-0.27358v0.64239h-0.19483v-1.52149h0.47779 c0.3085,0,0.53098,0.1114,0.53098,0.42686c0,0.23655-0.13453,0.37803-0.34084,0.43139l0.38741,0.66325H67.41151z M66.77155,56.99179h0.25515c0.23638,0,0.36638-0.09734,0.36638-0.29444c0-0.19952-0.13-0.27131-0.36638-0.27131h-0.25515 V56.99179z"/><path fill="#FFF" d="M67.91177,56.27049h0.2296l0.29459,0.81653l0.10898,0.31076h0.00938l0.10671-0.31076l0.29218-0.81653 h0.22717v1.52149h-0.18304v-0.83722c0-0.13453,0.01617-0.31545,0.02539-0.44998h-0.00922l-0.12062,0.33858l-0.29234,0.79551 h-0.11124l-0.29234-0.79551l-0.12046-0.33858h-0.00922c0.00922,0.13453,0.02312,0.31545,0.02312,0.44998v0.83722h-0.17867 V56.27049z"/><path fill="#FFF" d="M70.28115,57.3281h-0.55427l-0.14616,0.46388h-0.1971l0.51498-1.52149h0.21796l0.51482,1.52149h-0.20405 L70.28115,57.3281z M70.23248,57.17271l-0.07195-0.23186c-0.05335-0.16929-0.10202-0.33631-0.15069-0.51255h-0.00938 c-0.04867,0.17624-0.09734,0.34326-0.1507,0.51255l-0.07422,0.23186H70.23248z"/><path fill="#FFF" d="M71.40068,56.24268c0.18077,0,0.32467,0.08812,0.41505,0.18788l-0.10898,0.12288 c-0.08117-0.08569-0.17867-0.14148-0.30381-0.14148c-0.28991,0-0.48248,0.23671-0.48248,0.61474 c0,0.38255,0.18335,0.62379,0.4731,0.62379c0.1439,0,0.25062-0.06031,0.34795-0.16929l0.10898,0.11819 c-0.11835,0.13921-0.26905,0.22038-0.46146,0.22038c-0.38271,0-0.66793-0.29217-0.66793-0.78855 C70.72111,56.54197,71.01102,56.24268,71.40068,56.24268z"/><path fill="#FFF" d="M72.12116,56.27049H72.316v1.52149h-0.19484V56.27049z"/><path fill="#FFF" d="M72.71909,56.27049h0.87668v0.1625h-0.68168v0.47763h0.57497v0.16476h-0.57497v0.552h0.70496v0.1646 h-0.89996V56.27049z"/></g><g id="bas_droite_4_"><polygon fill="#353535" points="74.156 38.942 74.487 38.942 74.487 46.079 67.35 46.079 67.35 45.748 74.156 45.748"/></g><g id="bas_gauche_4_"><polygon fill="#353535" points="48.461 38.942 48.13 38.942 48.13 46.079 55.267 46.079 55.267 45.748 48.461 45.748"/></g><g id="haut_droite_4_"><polygon fill="#353535" points="74.156 22.386 74.487 22.386 74.487 15.249 67.35 15.249 67.35 15.58 74.156 15.58"/></g><g id="haut_gauche_4_"><polygon fill="#353535" points="48.53 22.386 48.199 22.386 48.199 15.249 55.336 15.249 55.336 15.58 48.53 15.58"/></g><rect id="header_2_" width="30.478" height="4.838" x="46.206" y="7.511" fill="#01A072"/><g id="check_4_" opacity=".22"><polygon fill="#FFF" points="73.412 11.251 72.392 10.19 72.63 9.96 73.416 10.778 75.483 8.711 75.717 8.945"/></g><g id="annulaire_arriere_7_" opacity=".87"><g><path fill="#D9A878" d="M78.04942,52.53809v1.39709l0.65011-0.67305c0,0,2.53837-2.09607,2.24992-4.6729 c-0.26004-2.32301-2.69292-2.79803-2.69292-2.79803l-0.2071,0.00006V52.53809z"/></g></g><g id="annulaire_arriere_4_" opacity=".87"><g><path fill="#D9A878" d="M78.01096,44.59339v0.59213l0.70301-0.50862c0,0,2.18259-1.55413,1.88934-3.81814 c-0.33875-2.61528-2.25067-3.38276-2.25067-3.38276l-0.34167-0.12962V44.59339z"/></g></g><g id="majeur_arriere_2_" opacity=".87"><g><path fill="#D9A878" d="M78.01096,34.0915v0.74516l0.70301-0.66165c0,0,1.9892-1.70364,1.66968-3.74202 c-0.354-2.25837-2.1656-3.08837-2.1656-3.08837l-0.20709-0.08915V34.0915z"/></g></g><g id="index_7_"><path fill="#E9CDA0" d="M77.95998,18.01199c0,0,2.34106-1.80762,4.59097-0.15384 c1.23072,0.92304,1.80762,3.13449,0.11538,5.11519c-0.90177,1.05548-1.6945,1.6402-2.57682,2.34606 c-0.88233,0.70586-2.12953,1.73293-2.12953,1.73293V18.01199z"/></g><g id="annulaire_12_"><path fill="#E9CDA0" d="M70.89143,48.16461l4.94489-2.0413c0,0,3.43204-1.65662,4.87713,1.60057 c1.21149,2.73067-1.48071,4.33157-1.48071,4.33157s-4.32676,1.84128-4.98058,2.09127c0,0-3.55888,1.78839-5.13442-1.09611 C67.71447,50.48151,69.59848,48.78153,70.89143,48.16461z"/></g><g id="ongle_auriculaire_7_" opacity=".88"><g><path fill="#EEDEBF" d="M72.04924,53.82483l1.5486-0.82351c0,0,2.22506-1.21212,1.3327-3.02694s-3.1966-0.76375-3.1966-0.76375 l-2.02283,0.89647c0,0-0.80264,0.9097-0.00471,2.53247c0.62793,1.27705,1.6733,1.35895,2.08652,1.3113 C72.16484,53.76799,72.04924,53.82483,72.04924,53.82483z"/></g></g><g id="pliure_phalange_auriculaire_2_" opacity=".44"><g><path fill="#D9A878" d="M78.79352,46.45741c0,0,0.06168,0.01043,0.15989,0.05835 c0.04882,0.02405,0.10719,0.05592,0.16975,0.09908c0.06251,0.04295,0.13157,0.0944,0.20065,0.15716 c0.06988,0.06201,0.1422,0.1328,0.21362,0.21227c0.03451,0.04063,0.06998,0.08238,0.10622,0.12506 c0.03371,0.0445,0.06814,0.08997,0.10315,0.1362c0.06654,0.09456,0.13483,0.19339,0.19474,0.2985 c0.06403,0.10325,0.11858,0.21312,0.17533,0.32198c0.05382,0.1167,0.10289,0.21559,0.14742,0.33359 c0.04712,0.11386,0.08433,0.22801,0.11829,0.3385c0.06503,0.22284,0.10433,0.43853,0.1132,0.62593 c0.00713,0.09319,0.00404,0.17977-0.00229,0.25569c-0.005,0.07595-0.01855,0.14174-0.0306,0.19474 c-0.0265,0.1067-0.06026,0.15965-0.06026,0.15965s0.00201-0.01529,0.00214-0.04364 c0.00144-0.02806-0.00227-0.06967-0.00572-0.12095c-0.0056-0.05173-0.01517-0.11356-0.02858-0.18361 c-0.01428-0.06998-0.03354-0.1479-0.05708-0.23199c-0.01211-0.04203-0.02419-0.08556-0.0405-0.13008 c-0.0154-0.0446-0.02831-0.09103-0.04703-0.13779c-0.03252-0.09437-0.07255-0.19225-0.1127-0.29351 c-0.02139-0.0503-0.04311-0.10142-0.06512-0.15319c-0.02293-0.05075-0.04614-0.10215-0.06954-0.15394 c-0.04459-0.10073-0.10236-0.21698-0.15039-0.3174c-0.05264-0.10466-0.10386-0.21025-0.15844-0.31137 c-0.05239-0.10272-0.1087-0.20036-0.16167-0.29622c-0.02757-0.04721-0.05469-0.09364-0.08122-0.13906 c-0.02776-0.04464-0.05492-0.08829-0.08136-0.13079c-0.05456-0.08377-0.10624-0.16344-0.15754-0.23457 c-0.05216-0.0702-0.10085-0.13443-0.14649-0.18989c-0.04678-0.05391-0.08803-0.10172-0.12484-0.13842 C78.84348,46.4936,78.79352,46.45741,78.79352,46.45741z"/></g></g><g id="majeur_8_"><path fill="#E9CDA0" d="M70.23832,29.43783l4.94489-2.0413c0,0,3.40095-1.49702,4.86243,1.75285 c1.46148,3.24987-1.84608,4.96135-1.84608,4.96135S73.8728,35.952,73.21898,36.202c0,0-3.33111,0.84091-4.45657-2.03358 C67.69514,31.44256,69.29124,30.00031,70.23832,29.43783z"/></g><g id="ongle_majeur_7_" opacity=".88"><g><path fill="#EEDEBF" d="M72.02316,35.69369l1.54388-0.83311c0,0,2.21607-1.23039,1.15227-3.39389 c-1.06381-2.16351-3.37429-1.12511-3.37429-1.12511l-2.0303,0.88128c0,0-0.76345,0.98939,0.18778,2.92395 c0.74857,1.52241,1.83928,1.69652,2.26433,1.67293C72.13876,35.63685,72.02316,35.69369,72.02316,35.69369z"/></g></g><g id="pliure_phalange_majeur_2_" opacity=".44"><g><path fill="#D9A878" d="M78.08681,27.96972c0,0,0.0617,0.01043,0.1599,0.05835 c0.04882,0.02405,0.10719,0.05592,0.16975,0.09908c0.06251,0.04295,0.13157,0.09441,0.20065,0.15718 c0.06987,0.06199,0.14221,0.13278,0.21362,0.21225c0.03452,0.04063,0.06998,0.08238,0.10622,0.12506 c0.03371,0.0445,0.06814,0.08996,0.10315,0.13619c0.06654,0.09456,0.13483,0.19339,0.19474,0.2985 c0.06403,0.10325,0.11858,0.21311,0.17534,0.32198c0.05381,0.1167,0.10288,0.21559,0.14741,0.33359 c0.04711,0.11386,0.08433,0.22801,0.11829,0.3385c0.06502,0.22284,0.10432,0.43853,0.1132,0.62595 c0.00713,0.09317,0.00404,0.17975-0.00229,0.25567c-0.00499,0.07596-0.01855,0.14174-0.0306,0.19475 c-0.0265,0.1067-0.06026,0.15965-0.06026,0.15965s0.002-0.01529,0.00214-0.04364 c0.00145-0.02806-0.00227-0.06965-0.00572-0.12095c-0.00562-0.05173-0.01518-0.11356-0.02859-0.18361 c-0.01427-0.06998-0.03353-0.14791-0.05709-0.232c-0.01209-0.04202-0.02417-0.08556-0.04049-0.13008 c-0.0154-0.0446-0.02831-0.09103-0.04703-0.13779c-0.03252-0.09437-0.07255-0.19225-0.11269-0.29351 c-0.02139-0.0503-0.04312-0.10142-0.06512-0.15317c-0.02294-0.05077-0.04614-0.10217-0.06954-0.15396 c-0.04459-0.10073-0.10236-0.21699-0.15039-0.3174c-0.05264-0.10466-0.10386-0.21025-0.15844-0.31137 c-0.05238-0.10272-0.1087-0.20036-0.16167-0.29622c-0.02757-0.04721-0.05469-0.09364-0.08122-0.13906 c-0.02776-0.04464-0.05492-0.08829-0.08136-0.13079c-0.05456-0.08378-0.10624-0.16345-0.15754-0.23457 c-0.05216-0.0702-0.10085-0.13443-0.14649-0.18989C78.2879,28.1645,78.24665,28.1167,78.20983,28.08 C78.13679,28.00591,78.08681,27.96972,78.08681,27.96972z"/></g></g><g id="annulaire_11_"><path fill="#E9CDA0" d="M70.37293,39.57515l4.94488-2.0413c0,0,3.40096-1.49702,4.86243,1.75285 c1.46149,3.24987-1.84608,4.96135-1.84608,4.96135s-4.32676,1.84127-4.98058,2.09127c0,0-3.3311,0.84091-4.45656-2.03358 C67.82976,41.57989,69.42585,40.13763,70.37293,39.57515z"/></g><g id="ongle_annulaire_7_" opacity=".88"><g><path fill="#EEDEBF" d="M72.25392,45.72094l1.54388-0.83311c0,0,2.21607-1.23039,1.15227-3.39389 s-3.37428-1.12511-3.37428-1.12511l-2.0303,0.88128c0,0-0.76345,0.98939,0.18778,2.92395 c0.74858,1.52241,1.83928,1.69652,2.26433,1.67293C72.36952,45.6641,72.25392,45.72094,72.25392,45.72094z"/></g></g><g id="pliure_phalange_annulaire_2_" opacity=".44"><g><path fill="#D9A878" d="M78.39404,38.05973c0,0,0.06168,0.01043,0.1599,0.05835 c0.04882,0.02402,0.10719,0.05592,0.16975,0.09908c0.0625,0.04295,0.13156,0.09439,0.20065,0.15716 c0.06986,0.06199,0.1422,0.13279,0.21361,0.21227c0.03452,0.04063,0.06997,0.08238,0.10622,0.12503 c0.0337,0.0445,0.06812,0.08998,0.10315,0.13622c0.06654,0.09456,0.13482,0.19339,0.19474,0.2985 c0.06402,0.10323,0.11858,0.2131,0.17532,0.32198c0.05382,0.11669,0.1029,0.21559,0.14742,0.3336 c0.04711,0.11386,0.08433,0.22799,0.11829,0.3385c0.06503,0.22282,0.10433,0.43851,0.1132,0.62592 c0.00713,0.09319,0.00405,0.17978-0.00229,0.25567c-0.00499,0.07598-0.01854,0.14176-0.03059,0.19476 c-0.02652,0.1067-0.06026,0.15966-0.06026,0.15966s0.002-0.01529,0.00214-0.04364 c0.00144-0.02806-0.00227-0.06967-0.00572-0.12095c-0.00561-0.05173-0.01517-0.11356-0.02859-0.18361 c-0.01427-0.07-0.03353-0.14791-0.05708-0.23202c-0.0121-0.042-0.02418-0.08554-0.04049-0.13007 c-0.0154-0.0446-0.02833-0.09103-0.04703-0.13779c-0.03254-0.09436-0.07255-0.19225-0.11271-0.29353 c-0.02138-0.05028-0.04311-0.10142-0.06512-0.15317c-0.02293-0.05077-0.04614-0.10215-0.06953-0.15394 c-0.04459-0.10075-0.10236-0.217-0.1504-0.3174c-0.05264-0.10466-0.10385-0.21027-0.15843-0.31137 c-0.05239-0.10272-0.1087-0.20039-0.16167-0.29625c-0.02757-0.04719-0.05469-0.09362-0.08123-0.13904 c-0.02776-0.04464-0.05492-0.08829-0.08136-0.13081c-0.05457-0.08376-0.10623-0.16343-0.15753-0.23455 c-0.05217-0.07022-0.10085-0.13443-0.14649-0.18989c-0.04679-0.05393-0.08804-0.10172-0.12485-0.13844 C78.44402,38.09592,78.39404,38.05973,78.39404,38.05973z"/></g></g><g id="ongle_pouce_9_" opacity=".88"><g><path fill="#EEDEBF" d="M39.86225,32.23285c-0.30283,0.75707-0.09789,2.12498-0.68568,5.05656l0,0 c1.99632,0.32336,2.69677-1.88365,2.69677-1.88365l0.84065-2.58448c0,0-0.32178-1.08772-2.10685-1.37686 c-0.08054-0.01304-0.1582-0.02141-0.23367-0.02643C40.15904,31.63077,39.97712,31.89755,39.86225,32.23285z"/></g></g><g id="pliure_peau_pouce_4_" opacity=".61"><g><path fill="#D9A878" d="M37.98566,42.16191c0.15265,0.05323,0.20229,0.06962,0.35282,0.12439 c0.07652,0.02757,0.15245,0.05492,0.22746,0.08194c0.07504,0.0283,0.14918,0.05626,0.2221,0.08376 c0.14491,0.05669,0.28614,0.10996,0.41725,0.16581c0.06678,0.02591,0.13009,0.05404,0.19157,0.08088 c0.0623,0.02565,0.12197,0.05146,0.17801,0.07836c0.05703,0.02554,0.11048,0.0521,0.16132,0.07732 c0.0519,0.02395,0.10016,0.04819,0.14466,0.07242c0.08984,0.04758,0.16707,0.09138,0.22971,0.12996 c0.06157,0.03955,0.11079,0.07125,0.1418,0.09601c0.03197,0.02388,0.04767,0.03873,0.04767,0.03873 s-0.03606-0.08049-0.13667-0.19584c-0.05025-0.05704-0.11304-0.12638-0.193-0.19581 c-0.07824-0.07201-0.17068-0.14863-0.27704-0.22352c-0.10506-0.07719-0.2221-0.15657-0.35044-0.23143 c-0.12748-0.07715-0.26578-0.15029-0.41051-0.22269c-0.14494-0.07083-0.29687-0.14105-0.45554-0.20456 c-0.15921-0.06763-0.22031-0.08734-0.3863-0.14763"/></g><g><path fill="#D9A878" d="M37.58508,43.61196c0.12405,0.04183,0.08925,0.03083,0.21045,0.06799 c0.12005,0.03845,0.23943,0.07278,0.35523,0.10522c0.23167,0.06464,0.45065,0.11702,0.64044,0.15589 c0.19,0.03826,0.35039,0.06421,0.46385,0.07895c0.11328,0.01527,0.17957,0.01948,0.17957,0.01948 s-0.0547-0.0377-0.15313-0.09579c-0.09825-0.05862-0.24032-0.13747-0.41326-0.22496 c-0.17315-0.08689-0.3776-0.18122-0.59961-0.27376c-0.11104-0.04616-0.22606-0.09304-0.34418-0.13712 c-0.11698-0.04536-0.11419-0.03395-0.2321-0.07596"/></g><g><path fill="#D9A878" d="M37.16772,45.05413c0.16771,0.05532,0.03471,0.01443,0.20164,0.0598 c0.16395,0.04827,0.32676,0.08711,0.48444,0.12114c0.15851,0.03266,0.31241,0.06077,0.4603,0.07902 c0.14715,0.0206,0.2882,0.03064,0.4185,0.035c0.12988,0.00695,0.24992,0.00395,0.35594-0.00421 c0.10577-0.00508,0.19801-0.0207,0.27278-0.03443c0.15039-0.02838,0.22853-0.0693,0.22853-0.0693 s-0.02152,0.00195-0.06141,0.00093c-0.03968,0.00027-0.09795-0.00528-0.1708-0.0123 c-0.07309-0.00845-0.16086-0.02182-0.26087-0.04002c-0.04996-0.00849-0.10287-0.01931-0.15846-0.0326 c-0.05556-0.01165-0.11397-0.02384-0.17458-0.03907c-0.06067-0.01353-0.12352-0.03018-0.18833-0.04856 c-0.0649-0.01697-0.13205-0.03402-0.20054-0.05499c-0.13756-0.03724-0.28148-0.08278-0.43039-0.12789 c-0.07431-0.02351-0.14985-0.04741-0.22631-0.07161c-0.07565-0.02518-0.15221-0.05067-0.22939-0.07635 c-0.15214-0.05011-0.05889-0.01883-0.21175-0.07146"/></g></g></g></g></g></svg>