<svg xmlns="http://www.w3.org/2000/svg" xmlns:xlink="http://www.w3.org/1999/xlink" x="0" y="0" enable-background="new 0 0 98.75 101.333" version="1.1" viewBox="0 0 98.75 101.333" xml:space="preserve"><g id="illustration_72_x25_"><path fill="#545454" d="M90.81349,74.50044H8.74791c-2.15133,0-3.89532-1.744-3.89532-3.89532V10.24296 c0-2.15133,1.74399-3.89532,3.89532-3.89532h82.06558c2.15133,0,3.89532,1.74399,3.89532,3.89532v60.36216 C94.70881,72.75645,92.96482,74.50044,90.81349,74.50044z"/><polygon fill="#545454" points="62.813 88.293 59.365 74.5 52.57 74.5 46.586 74.5 39.791 74.5 36.343 88.293 32.692 88.293 32.692 89.916 46.586 89.916 52.57 89.916 66.87 89.916 66.87 88.293"/><polygon fill="#3A3A3A" fill-opacity=".33" points="64.884 88.327 64.884 88.293 62.813 88.293 59.365 74.5 52.57 74.5 46.586 74.5 39.886 74.5 50.08 89.916 52.57 89.916 66.87 89.916 66.87 88.327"/><path fill="#BBBBBA" d="M90.38825,11.72278c-0.05269-0.67992-0.61485-1.21701-1.30833-1.21701H10.48148 c-0.69348,0-1.25564,0.5371-1.30833,1.21701h-0.0103v1.42025h1.31863h78.59845h1.31863v-1.42025H90.38825z"/><circle cx="10.633" cy="11.841" r=".456" fill="#E74344"/><circle cx="12.231" cy="11.841" r=".456" fill="#F7EA51"/><circle cx="14.04" cy="11.841" r=".456" fill="#62B12F"/><rect width="81.236" height="52.737" x="9.163" y="13.143" fill="#FFF"/><rect id="fond_vert_popup" width="51.48" height="29.93" x="24.795" y="24.777" fill="#009F71"/><polygon id="cross_close" fill="#FFF" points="73.428 26.541 73.285 26.397 72.353 27.33 71.42 26.397 71.277 26.541 72.209 27.473 71.277 28.406 71.42 28.549 72.353 27.617 73.285 28.549 73.428 28.406 72.496 27.473"/><path id="enveloppe" fill="#FFF" d="M43.45422,29.17853v9.91809h14.16066v-9.91809H43.45422z M43.96523,38.34929v-8.34835 l4.42981,3.91881L43.96523,38.34929z M50.55019,35.82622l1.75657-1.55827l4.31779,4.31766H44.45159l4.32687-4.32674 L50.55019,35.82622z M44.38394,29.68953h12.31324l-6.14747,5.45393L44.38394,29.68953z M52.68956,33.92828l4.41432-3.91622v8.33026 L52.68956,33.92828z"/><g id="vous_avez_une_nouvelle_ordonnance"><path fill="#FFF" d="M27.44073,42.59459h0.54518l0.3635,1.18834c0.06063,0.22366,0.13051,0.45665,0.19107,0.68963h0.01864 c0.06526-0.23298,0.13051-0.46597,0.1957-0.68963l0.3635-1.18834h0.51728l-0.77823,2.28809h-0.61975L27.44073,42.59459z"/><path fill="#FFF" d="M30.9405,42.53866c0.57314,0,1.09042,0.43808,1.09042,1.20229c0,0.75959-0.51728,1.19767-1.09042,1.19767 c-0.56852,0-1.0858-0.43808-1.0858-1.19767C29.85471,42.97673,30.37199,42.53866,30.9405,42.53866z M30.9405,44.50054 c0.33553,0,0.54055-0.30287,0.54055-0.75959c0-0.46135-0.20502-0.76421-0.54055-0.76421 c-0.33553,0-0.53592,0.30287-0.53592,0.76421C30.40458,44.19767,30.60497,44.50054,30.9405,44.50054z"/><path fill="#FFF" d="M32.53903,42.59459h0.53593v1.36539c0,0.37745,0.10717,0.51728,0.3541,0.51728 c0.20039,0,0.33553-0.09322,0.50796-0.31689v-1.56579h0.53592v2.28809h-0.43808l-0.04192-0.33553H33.979 c-0.20039,0.23768-0.42406,0.39146-0.73632,0.39146c-0.48932,0-0.70366-0.33091-0.70366-0.90874V42.59459z"/><path fill="#FFF" d="M35.17674,44.27687c0.20502,0.15848,0.40071,0.25633,0.63377,0.25633 c0.24693,0,0.36343-0.11649,0.36343-0.27497c0-0.19107-0.24693-0.2749-0.48924-0.36812 c-0.30294-0.11187-0.6431-0.28429-0.6431-0.66637c0-0.40079,0.32151-0.68508,0.8341-0.68508 c0.31689,0,0.57321,0.13051,0.75959,0.27497l-0.24693,0.32621c-0.15848-0.11649-0.32158-0.19577-0.50333-0.19577 c-0.22829,0-0.33546,0.10724-0.33546,0.2517c0,0.17705,0.22829,0.25163,0.47529,0.34016 c0.31219,0.11649,0.65704,0.26565,0.65704,0.69433c0,0.39146-0.31219,0.70835-0.89003,0.70835 c-0.31226,0-0.6431-0.13514-0.86676-0.31689L35.17674,44.27687z"/><path fill="#FFF" d="M39.36615,43.41944c-0.00462-0.24231-0.10717-0.4474-0.41473-0.4474 c-0.22836,0-0.4427,0.10255-0.6431,0.22374l-0.19569-0.35888c0.25163-0.15841,0.57314-0.29824,0.93664-0.29824 c0.57322,0,0.85281,0.34955,0.85281,0.98795v1.35607H39.464l-0.04192-0.25163h-0.01395 c-0.20509,0.17243-0.43808,0.30756-0.70835,0.30756c-0.40079,0-0.68039-0.27028-0.68039-0.67106 C38.0194,43.77824,38.42951,43.52198,39.36615,43.41944z M38.86752,44.51918c0.18645,0,0.33091-0.09315,0.49863-0.25163v-0.51258 c-0.61975,0.0792-0.82484,0.24231-0.82484,0.47067C38.54131,44.43066,38.67645,44.51918,38.86752,44.51918z"/><path fill="#FFF" d="M40.27035,42.59459h0.54517l0.3635,1.18834c0.06063,0.22366,0.13051,0.45665,0.19107,0.68963h0.01865 c0.06525-0.23298,0.13051-0.46597,0.19569-0.68963l0.3635-1.18834h0.51728l-0.77823,2.28809h-0.61975L40.27035,42.59459z"/><path fill="#FFF" d="M43.73753,42.53866c0.61983,0,0.94604,0.4474,0.94604,1.0858c0,0.10255-0.00932,0.19577-0.02334,0.25163 H43.2063c0.04661,0.41473,0.30757,0.64779,0.67569,0.64779c0.19577,0,0.3635-0.06063,0.5313-0.1678l0.18167,0.33553 c-0.21896,0.14446-0.49394,0.24701-0.78286,0.24701c-0.63377,0-1.12771-0.4427-1.12771-1.19767 C42.68439,42.99538,43.20168,42.53866,43.73753,42.53866z M44.21752,43.53593c0-0.3635-0.15378-0.58254-0.46597-0.58254 c-0.27028,0-0.50333,0.20039-0.54987,0.58254H44.21752z"/><path fill="#FFF" d="M45.01447,44.59376l1.08117-1.57511h-0.95998v-0.42406h1.63104v0.28429l-1.07647,1.57504h1.11369v0.42875 h-1.78945V44.59376z"/><path fill="#FFF" d="M48.19273,42.59459h0.53592v1.36539c0,0.37745,0.10717,0.51728,0.3541,0.51728 c0.20039,0,0.33553-0.09322,0.50796-0.31689v-1.56579h0.53593v2.28809h-0.43808l-0.04192-0.33553h-0.01395 c-0.20039,0.23768-0.42406,0.39146-0.73632,0.39146c-0.48931,0-0.70365-0.33091-0.70365-0.90874V42.59459z"/><path fill="#FFF" d="M50.8071,42.59459h0.4427l0.03729,0.30756h0.01864c0.20509-0.20039,0.43808-0.3635,0.75027-0.3635 c0.48932,0,0.70366,0.33091,0.70366,0.90874v1.43528H52.2238v-1.36539C52.2238,43.13984,52.11656,43,51.86493,43 c-0.20039,0-0.33083,0.09785-0.5219,0.2843v1.59838H50.8071V42.59459z"/><path fill="#FFF" d="M54.3209,42.53866c0.61983,0,0.94603,0.4474,0.94603,1.0858c0,0.10255-0.00932,0.19577-0.02334,0.25163 h-1.45392c0.04661,0.41473,0.30756,0.64779,0.67569,0.64779c0.19577,0,0.3635-0.06063,0.5313-0.1678l0.18168,0.33553 c-0.21897,0.14446-0.49394,0.24701-0.78286,0.24701c-0.63377,0-1.12771-0.4427-1.12771-1.19767 C53.26776,42.99538,53.78504,42.53866,54.3209,42.53866z M54.80089,43.53593c0-0.3635-0.15378-0.58254-0.46597-0.58254 c-0.27028,0-0.50333,0.20039-0.54987,0.58254H54.80089z"/><path fill="#FFF" d="M56.73487,42.59459h0.4427l0.03729,0.30756h0.01864c0.20502-0.20039,0.43808-0.3635,0.75027-0.3635 c0.48932,0,0.70366,0.33091,0.70366,0.90874v1.43528h-0.53585v-1.36539C58.15158,43.13984,58.04433,43,57.7927,43 c-0.20039,0-0.33083,0.09785-0.5219,0.2843v1.59838h-0.53593V42.59459z"/><path fill="#FFF" d="M60.28133,42.53866c0.57314,0,1.09042,0.43808,1.09042,1.20229c0,0.75959-0.51728,1.19767-1.09042,1.19767 c-0.56852,0-1.0858-0.43808-1.0858-1.19767C59.19553,42.97673,59.71281,42.53866,60.28133,42.53866z M60.28133,44.50054 c0.33553,0,0.54055-0.30287,0.54055-0.75959c0-0.46135-0.20502-0.76421-0.54055-0.76421 c-0.33553,0-0.53593,0.30287-0.53593,0.76421C59.7454,44.19767,59.9458,44.50054,60.28133,44.50054z"/><path fill="#FFF" d="M61.87986,42.59459h0.53593v1.36539c0,0.37745,0.10717,0.51728,0.3541,0.51728 c0.20039,0,0.33553-0.09322,0.50796-0.31689v-1.56579h0.53592v2.28809h-0.43808l-0.04192-0.33553h-0.01395 c-0.20039,0.23768-0.42406,0.39146-0.73632,0.39146c-0.48932,0-0.70366-0.33091-0.70366-0.90874V42.59459z"/><path fill="#FFF" d="M64.21001,42.59459h0.54517l0.36349,1.18834c0.06063,0.22366,0.13052,0.45665,0.19107,0.68963h0.01865 c0.06525-0.23298,0.13052-0.46597,0.19569-0.68963l0.3635-1.18834h0.51728l-0.77824,2.28809h-0.61975L64.21001,42.59459z"/><path fill="#FFF" d="M67.67711,42.53866c0.61983,0,0.94604,0.4474,0.94604,1.0858c0,0.10255-0.00932,0.19577-0.02334,0.25163 h-1.45393c0.04662,0.41473,0.30757,0.64779,0.67569,0.64779c0.19577,0,0.3635-0.06063,0.5313-0.1678l0.18167,0.33553 c-0.21896,0.14446-0.49393,0.24701-0.78285,0.24701c-0.63377,0-1.12772-0.4427-1.12772-1.19767 C66.62398,42.99538,67.14126,42.53866,67.67711,42.53866z M68.1571,43.53593c0-0.3635-0.15379-0.58254-0.46597-0.58254 c-0.27027,0-0.50333,0.20039-0.54987,0.58254H68.1571z"/><path fill="#FFF" d="M69.1358,41.5927h0.53593v2.73079c0,0.13044,0.06055,0.17705,0.11649,0.17705 c0.02334,0,0.04198,0,0.0839-0.00932L69.942,44.892c-0.06525,0.02797-0.1584,0.04661-0.28422,0.04661 c-0.38214,0-0.52198-0.24701-0.52198-0.6431V41.5927z"/><path fill="#FFF" d="M70.39873,41.5927h0.53593v2.73079c0,0.13044,0.06055,0.17705,0.11649,0.17705 c0.02334,0,0.04198,0,0.0839-0.00932l0.06988,0.40079c-0.06525,0.02797-0.15841,0.04661-0.28422,0.04661 c-0.38215,0-0.52198-0.24701-0.52198-0.6431V41.5927z"/><path fill="#FFF" d="M72.5657,42.53866c0.61983,0,0.94604,0.4474,0.94604,1.0858c0,0.10255-0.00932,0.19577-0.02335,0.25163 h-1.45392c0.04661,0.41473,0.30756,0.64779,0.67569,0.64779c0.19576,0,0.36349-0.06063,0.5313-0.1678l0.18168,0.33553 c-0.21896,0.14446-0.49394,0.24701-0.78286,0.24701c-0.63377,0-1.12771-0.4427-1.12771-1.19767 C71.51257,42.99538,72.02985,42.53866,72.5657,42.53866z M73.04568,43.53593c0-0.3635-0.15378-0.58254-0.46597-0.58254 c-0.27028,0-0.50333,0.20039-0.54987,0.58254H73.04568z"/><path fill="#FFF" d="M39.75762,48.13104c0.57314,0,1.09042,0.43808,1.09042,1.20229c0,0.75959-0.51728,1.19767-1.09042,1.19767 c-0.56852,0-1.0858-0.43808-1.0858-1.19767C38.67182,48.56912,39.1891,48.13104,39.75762,48.13104z M39.75762,50.09292 c0.33553,0,0.54055-0.30287,0.54055-0.75959c0-0.46135-0.20502-0.76421-0.54055-0.76421 c-0.33553,0-0.53593,0.30286-0.53593,0.76421C39.22169,49.79005,39.42208,50.09292,39.75762,50.09292z"/><path fill="#FFF" d="M41.37941,48.18698h0.4427l0.03729,0.40541h0.01864c0.16311-0.29824,0.40541-0.46135,0.64779-0.46135 c0.11649,0,0.191,0.01402,0.26095,0.04661l-0.09322,0.46605c-0.0792-0.02334-0.13984-0.03729-0.23768-0.03729 c-0.18175,0-0.40071,0.12581-0.54055,0.47067v1.39798h-0.53592V48.18698z"/><path fill="#FFF" d="M43.90056,48.13104c0.26095,0,0.42406,0.09792,0.60111,0.25171l-0.01865-0.3682v-0.82947h0.53593v3.28998 h-0.4427l-0.03729-0.24701h-0.01864c-0.16773,0.1678-0.40079,0.30294-0.64772,0.30294c-0.57322,0-0.94134-0.4427-0.94134-1.19767 C42.93126,48.58776,43.40192,48.13104,43.90056,48.13104z M44.00303,50.0883c0.17712,0,0.32621-0.0792,0.47999-0.25633v-1.06715 c-0.15841-0.13976-0.31219-0.19107-0.46597-0.19107c-0.29362,0-0.5313,0.27497-0.5313,0.75496 C43.48575,49.82265,43.6722,50.0883,44.00303,50.0883z"/><path fill="#FFF" d="M46.63612,48.13104c0.57314,0,1.09042,0.43808,1.09042,1.20229c0,0.75959-0.51728,1.19767-1.09042,1.19767 c-0.56852,0-1.0858-0.43808-1.0858-1.19767C45.55032,48.56912,46.0676,48.13104,46.63612,48.13104z M46.63612,50.09292 c0.33553,0,0.54055-0.30287,0.54055-0.75959c0-0.46135-0.20502-0.76421-0.54055-0.76421 c-0.33553,0-0.53593,0.30286-0.53593,0.76421C46.10019,49.79005,46.30059,50.09292,46.63612,50.09292z"/><path fill="#FFF" d="M48.25792,48.18698h0.4427l0.03729,0.30756h0.01864c0.20509-0.20039,0.43808-0.3635,0.75027-0.3635 c0.48932,0,0.70366,0.33091,0.70366,0.90875v1.43527h-0.53585v-1.36539c0-0.37745-0.10724-0.51728-0.35887-0.51728 c-0.20039,0-0.33083,0.09785-0.5219,0.2843v1.59838h-0.53593V48.18698z"/><path fill="#FFF" d="M50.86766,48.18698h0.4427l0.03729,0.30756h0.01864c0.20502-0.20039,0.43808-0.3635,0.75027-0.3635 c0.48932,0,0.70366,0.33091,0.70366,0.90875v1.43527h-0.53585v-1.36539c0-0.37745-0.10724-0.51728-0.35887-0.51728 c-0.20039,0-0.33083,0.09785-0.5219,0.2843v1.59838h-0.53593V48.18698z"/><path fill="#FFF" d="M54.72631,49.01182c-0.00462-0.24231-0.10717-0.4474-0.41473-0.4474 c-0.22836,0-0.4427,0.10255-0.6431,0.22374l-0.19569-0.35887c0.25163-0.15841,0.57314-0.29824,0.93664-0.29824 c0.57322,0,0.85281,0.34955,0.85281,0.98795v1.35607h-0.43808l-0.04191-0.25163H54.7683 c-0.20509,0.17243-0.43808,0.30756-0.70835,0.30756c-0.40079,0-0.68039-0.27028-0.68039-0.67106 C53.37956,49.37062,53.78967,49.11437,54.72631,49.01182z M54.22767,50.11156c0.18645,0,0.33091-0.09315,0.49863-0.25163v-0.51258 c-0.61975,0.0792-0.82484,0.24231-0.82484,0.47067C53.90146,50.02304,54.0366,50.11156,54.22767,50.11156z"/><path fill="#FFF" d="M55.91472,48.18698h0.4427l0.03729,0.30756h0.01865c0.20509-0.20039,0.43808-0.3635,0.75027-0.3635 c0.48931,0,0.70365,0.33091,0.70365,0.90875v1.43527h-0.53585v-1.36539c0-0.37745-0.10724-0.51728-0.35888-0.51728 c-0.20039,0-0.33083,0.09785-0.5219,0.2843v1.59838h-0.53593V48.18698z"/><path fill="#FFF" d="M59.52174,48.13104c0.29362,0,0.51728,0.11649,0.67106,0.26565l-0.25632,0.34016 c-0.12112-0.10717-0.24231-0.16773-0.38677-0.16773c-0.36812,0-0.62445,0.30286-0.62445,0.76421 c0,0.45672,0.25163,0.75959,0.61043,0.75959c0.18645,0,0.34486-0.09315,0.47067-0.1957l0.22374,0.34016 c-0.21442,0.19107-0.48932,0.29362-0.75027,0.29362c-0.62445,0-1.10444-0.43808-1.10444-1.19767 C58.37539,48.56912,58.91131,48.13104,59.52174,48.13104z"/><path fill="#FFF" d="M61.46982,48.13104c0.61983,0,0.94604,0.4474,0.94604,1.0858c0,0.10255-0.00932,0.19577-0.02334,0.25163 h-1.45392c0.04661,0.41473,0.30756,0.64779,0.67569,0.64779c0.19577,0,0.3635-0.06063,0.5313-0.1678l0.18167,0.33553 c-0.21896,0.14446-0.49394,0.24701-0.78286,0.24701c-0.63377,0-1.12771-0.4427-1.12771-1.19767 C60.41669,48.58776,60.93397,48.13104,61.46982,48.13104z M61.94981,49.12831c0-0.3635-0.15378-0.58254-0.46597-0.58254 c-0.27028,0-0.50333,0.20039-0.54987,0.58254H61.94981z"/></g></g></svg>