<?xml version="1.0" encoding="utf-8"?>
<!-- Generator: Adobe Illustrator 20.0.0, SVG Export Plug-In . SVG Version: 6.00 Build 0)  -->
<svg version="1.1" xmlns="http://www.w3.org/2000/svg" xmlns:xlink="http://www.w3.org/1999/xlink" x="0px" y="0px"
	 viewBox="0 0 98.75 101.33334" enable-background="new 0 0 98.75 101.33334" xml:space="preserve">
<g id="Guides" display="none">
</g>
<g id="footer">
	<g id="RS">
	</g>
</g>
<g id="contact">
	<g id="Réseaux_Sociaux">
	</g>
	<g id="form">
		<g id="btn_valider">
		</g>
	</g>
</g>
<g id="les_offres">
	<g id="personnalisation">
		<g id="thème_complet">
		</g>
		<g id="logo">
		</g>
		<g id="couleurs">
		</g>
		<g id="image_banniere">
		</g>
	</g>
	<g id="détail_flexiweb_plus">
		<g id="btn_voir_la_video">
		</g>
		<g id="timeline_1_">
			<g id="_x35__1_">
			</g>
			<g id="_x34__1_">
			</g>
			<g id="_x33__1_">
			</g>
			<g id="_x32__1_">
			</g>
			<g id="_x31__1_">
			</g>
		</g>
		<g id="etape_5">
		</g>
		<g id="etape_4">
		</g>
		<g id="etape_3">
		</g>
		<g id="etape_2">
		</g>
		<g id="etape_1">
		</g>
	</g>
	<g id="tableau">
		<g id="optiweb">
			<g id="btn_je_m_x27_inscris_3_">
			</g>
		</g>
		<g id="flexiweb__x2B_">
			<g id="btn_je_m_x27_inscris_2_">
			</g>
		</g>
		<g id="flexiweb">
			<g id="btn_je_m_x27_inscris_1_">
			</g>
		</g>
		<g id="ecoweb">
			<g id="btn_je_m_x27_inscris">
			</g>
		</g>
	</g>
</g>
<g id="photo_bkgd_pharma">
</g>
<g id="chiffres">
	<g id="_x35_0_x25_">
	</g>
	<g id="_x37_3_x25_">
	</g>
	<g id="_x37_2_x25_">
	</g>
	<g id="_x38_5_x25_">
	</g>
</g>
<g id="map__x2B__testimoniaux">
	<g id="testimoniaux">
	</g>
	<g id="map">
		<g id="cursor_clients">
		</g>
	</g>
</g>
<g id="_x36__bonnes_raisons_de_choisir">
	<g id="coût">
	</g>
	<g id="accompagnement">
	</g>
	<g id="satisfaction">
	</g>
	<g id="fidelisation">
	</g>
	<g id="expertise">
	</g>
	<g id="dev_service_de_proximité">
	</g>
	<g id="timeline">
	</g>
</g>
<g id="les_garanties">
	<g id="borders">
	</g>
</g>
<g id="les_objectifs">
	<g id="Augmenter">
	</g>
	<g id="Connecter">
	</g>
	<g id="Gagner">
	</g>
	<g id="Simplifier">
	</g>
	<g id="Aider">
	</g>
	<g id="Innover">
	</g>
</g>
<g id="actualités">
	<g id="btn_voir_toutes_les_actus">
	</g>
	<g id="hover_article">
	</g>
</g>
<g id="à_propos">
	<g id="btn_video_président">
	</g>
</g>
<g id="click_to_call">
</g>
<g id="home">
	<g id="bouton_téléchargez_le_livre_blanc">
	</g>
	<g id="header">
	</g>
</g>
<g id="illustration_72_x25_">
	<g id="Calque_73">
		<g id="illu_etape_1_1_">
			<rect id="plaque_médecin_4_" x="2" y="18.33333" fill="#F4DA6E" width="95" height="65"/>
			<rect id="ombre_plaque_médecin_4_" x="2" y="82.33334" opacity="0.35" fill="#424242" width="95" height="2"/>
			<circle opacity="0.35" fill="#424242" cx="90.21633" cy="78.44093" r="1.31676"/>
			<circle opacity="0.35" fill="#424242" cx="90.49638" cy="23.07897" r="1.31676"/>
			<circle opacity="0.5" fill="#FFFFFF" cx="90.21633" cy="78.44093" r="0.89089"/>
			<circle opacity="0.5" fill="#FFFFFF" cx="90.49638" cy="23.07897" r="0.89089"/>
			<circle opacity="0.35" fill="#424242" cx="7.5213" cy="78.44093" r="1.31676"/>
			<circle opacity="0.35" fill="#424242" cx="7.80135" cy="23.07897" r="1.31676"/>
			<circle opacity="0.5" fill="#FFFFFF" cx="7.5213" cy="78.44093" r="0.89089"/>
			<circle opacity="0.5" fill="#FFFFFF" cx="7.80135" cy="23.07897" r="0.89089"/>
		</g>
		<g id="médecin_5_">
			<path fill="#565656" d="M23.03596,44.26108h1.5153l1.94324,5.38831l0.71997,2.0509h0.06056l0.70516-2.0509l1.92844-5.38831
				h1.50049v10.04185H30.1993v-5.52558c0-0.88818,0.10766-2.08185,0.16822-2.97003h-0.06056l-0.79667,2.23526l-1.92843,5.2497
				h-0.73477l-1.92843-5.2497l-0.79667-2.23526h-0.06056c0.06056,0.88818,0.15341,2.08185,0.15341,2.97003v5.52558h-1.17886
				V44.26108z"/>
			<path fill="#565656" d="M36.79742,46.67936c1.89748,0,2.97003,1.36323,2.97003,3.49083
				c0,0.25973-0.01615,0.50465-0.04576,0.68901h-5.02093c0.09151,1.6068,1.05506,2.61745,2.47884,2.61745
				c0.70517,0,1.30132-0.23012,1.85307-0.58136l0.44409,0.82628c-0.64326,0.41314-1.43993,0.76438-2.44923,0.76438
				c-1.99034,0-3.56754-1.45339-3.56754-3.88782C33.46001,48.16505,35.09776,46.67936,36.79742,46.67936z M38.6653,50.03158
				c0-1.51529-0.67421-2.35638-1.83693-2.35638c-1.0416,0-1.99034,0.85723-2.14375,2.35638H38.6653z M36.76647,45.53145h-0.96354
				l1.39283-2.15855h1.30133L36.76647,45.53145z"/>
			<path fill="#565656" d="M44.29853,46.67936c0.85723,0,1.42379,0.32163,2.08185,0.85723l-0.0619-1.27037v-2.86237h1.27037
				v10.89909H46.5486l-0.10766-0.87203h-0.04575c-0.58136,0.5652-1.37803,1.05505-2.25006,1.05505
				c-1.86788,0-3.07634-1.40764-3.07634-3.88782C41.06878,48.17986,42.59888,46.67936,44.29853,46.67936z M44.421,53.4309
				c0.68901,0,1.28518-0.33778,1.89748-1.02545v-3.88917c-0.62711-0.56656-1.19366-0.78053-1.80597-0.78053
				c-1.19366,0-2.14375,1.14791-2.14375,2.84757C42.36876,52.35835,43.11967,53.4309,44.421,53.4309z"/>
			<path fill="#565656" d="M52.88565,46.67936c1.89883,0,2.97003,1.36323,2.97003,3.49083
				c0,0.25973-0.01615,0.50465-0.04575,0.68901h-5.02093c0.09151,1.6068,1.0564,2.61745,2.47884,2.61745
				c0.70517,0,1.30132-0.23012,1.85307-0.58136l0.44409,0.82628c-0.64326,0.41314-1.43993,0.76438-2.44923,0.76438
				c-1.99034,0-3.56754-1.45339-3.56754-3.88782C49.54824,48.16505,51.18599,46.67936,52.88565,46.67936z M54.75353,50.03158
				c0-1.51529-0.67421-2.35638-1.83693-2.35638c-1.0416,0-1.99034,0.85723-2.14375,2.35638H54.75353z"/>
			<path fill="#565656" d="M60.7232,46.67936c0.97969,0,1.66871,0.41314,2.17336,0.88818l-0.62711,0.81148
				c-0.44409-0.38219-0.90299-0.65807-1.50049-0.65807c-1.34708,0-2.32677,1.16272-2.32677,2.87718
				c0,1.69966,0.93394,2.84757,2.29582,2.84757c0.70516,0,1.30132-0.35258,1.74541-0.74957l0.56656,0.82628
				c-0.67287,0.59751-1.53144,0.96355-2.41828,0.96355c-1.97554,0-3.49083-1.42244-3.49083-3.88782
				C57.14086,48.10315,58.80957,46.67936,60.7232,46.67936z"/>
			<path fill="#565656" d="M64.4428,44.52081c0-0.48985,0.38354-0.81148,0.87338-0.81148s0.87203,0.32163,0.87203,0.81148
				c0,0.47504-0.38219,0.81148-0.87203,0.81148S64.4428,44.99585,64.4428,44.52081z M64.67293,46.86373h1.25422v7.43921h-1.25422
				V46.86373z"/>
			<path fill="#565656" d="M68.43829,46.86373h1.04025l0.10767,1.07121h0.04575c0.70382-0.70382,1.46954-1.25557,2.49499-1.25557
				c1.56105,0,2.26621,1.01065,2.26621,2.90813v4.71545h-1.25557v-4.54588c0-1.39418-0.42929-1.99034-1.40898-1.99034
				c-0.76437,0-1.28517,0.39833-2.03609,1.14791v5.38831h-1.25422V46.86373z"/>
		</g>
	</g>
	<g id="Calque_74">
	</g>
</g>
</svg>
