<svg xmlns="http://www.w3.org/2000/svg" xmlns:xlink="http://www.w3.org/1999/xlink" x="0" y="0" enable-background="new 0 0 98.75 101.333" version="1.1" viewBox="0 0 98.75 101.333" xml:space="preserve"><g id="les_offres"><g id="détail_flexiweb_plus"><g id="etape_5"><g id="illu_etape_5_1_"><path id="lannière_arriere_4_" fill="#F9F9F9" d="M60.45433,30.91992c-6.5643,0-11.99635,9.18949-11.807,22.058 c0.00402,0.27322,0.00335,0.54561,0.00898,0.81665c-0.02964,0.21639,0.01761,0.66993-0.35712,0.69477 c-0.31334,0.02076-0.28499-0.41788-0.32772-0.56791c-0.0484-0.76245,0.06861-1.51208,0.06861-2.2965 c0-11.82565,5.48529-21.43561,12.43032-21.43561c0,0,1.61112,0.06866,2.68838,1.09298 c1.07725,1.02432-0.53037,0.83563-0.53037,0.83563"/><rect id="arriere_sac_4_" width="37" height="4" x="40.75" y="47.333" fill="#059367"/><path id="main_4_" fill="#E9CDA0" d="M64.59356,47.49909c0,0-3.92579-4.91233-4.62782-8.42345 c-0.70203-3.51112,1.36514-5.7423,1.36514-5.7423h3.25962c0.01096-1,2.01591-1.67259,2.01591-1.67259l2.59334-0.62815 c0,0-1.37443-0.73405-2.34024-0.98563c-0.74294,0-1.70875-0.27717-1.70875-0.27717s-3.15747-1.48637-3.08318-3.6069 c0.0743-2.12052,1.89448-1.33621,1.89448-1.33621l2.48883,0.95105c0,0,0.48291-0.0016,2.04307,0.01456 c1.52302-0.14376,2.82315,0.71802,2.82315,0.71802s0-0.03723,3.38035,1.68794s5.68344,5.13508,5.68344,5.13508h1.08312 c0,0,3.00874,0,3.25946,0l-0.62791,13h-4.49475l-2.786,0.83447c0,0-2.56312,1.0462-5.72059,1.01026 C67.93676,48.14212,64.59356,47.49909,64.59356,47.49909"/><path id="ombre_paume_2_" fill="#D9A878" d="M69.12205,30.8981c0,0,1.00296,0.39535,1.07726,0.86259 s0,2.73152,0.96581,4.24104s1.15155,2.19241,3.9004,3.70193c-0.85437,0.75476-2.37738,1.90488-2.11736,3.88163 c0.26003,1.97676,1.76604,3.17539,1.76604,3.17539s0.36682,0.43129,1.54001,0.59842c0,0-2.5796,0.99156-5.82555,0.80981 c-3.24595-0.18174-5.6262-0.64895-5.6262-0.64895s-1.99377-1.75665-3.41463-5.16655 c-0.72026-0.99736-1.07261-2.11603-1.07261-2.11603s-0.47362-1.23997-0.76615-2.47993 c-0.29253-1.23996,1.42086-4.55553,1.42086-4.55553l5.22375-1.71169L69.12205,30.8981z" opacity=".31"/><polygon id="sac_pliure_arriere_gauche_3_" fill="#068255" points="40.738 47.337 40.738 50.139 43.632 48.846"/><polyline id="sac_pliure_arriere_dorite_4_" fill="#068255" points="74.798 48.972 77.75 47.395 77.75 50.333"/><polygon id="sac_pliure_1er_plan_gauche_3_" fill="#1BBF80" points="37.746 50.216 43.609 48.834 43.609 52.068"/><polygon id="sac_pliure_1er_plan_droite_4_" fill="#1BBF80" points="80.711 50.227 74.797 48.952 74.797 52.185"/><polyline id="sac_face_4_" fill="#00A071" points="37.746 50.205 37.746 99.205 80.746 99.205 80.746 50.205 37.746 50.205"/><ellipse id="trou_1_4_" cx="47.06" cy="54.24" fill="#494949" rx=".836" ry=".808"/><ellipse id="trou_2_4_" cx="71.402" cy="54.24" fill="#494949" rx=".836" ry=".808"/><path id="lannière_4_" fill="#FCFCFC" d="M46.73207,53.86752c0.04273,0.15004,0.01439,0.58867,0.32772,0.56792 c0.37474-0.02484,0.32748-0.47838,0.35712-0.69477c-0.00564-0.27104-0.0069-0.54341-0.00899-0.81665 c-0.09496-12.41405,5.32145-22.15656,11.88575-22.15656c6.56433,0,11.67126,9.29178,11.88578,22.15656 c0.00465,0.279-0.00368,0.55666-0.00954,0.83311c0,0.14297-0.07001,0.67876,0.23235,0.67898 c0.34591,0.00033,0.27861-0.36654,0.33442-0.66695c0.04439-0.73054,0.06945-1.47091,0.06945-2.22154 c0-11.82565-5.63005-21.4122-12.57512-21.4122c-6.94504,0-12.57508,9.58656-12.57508,21.4122 C46.65592,52.33202,46.68367,53.10507,46.73207,53.86752z"/><polygon id="croix_pharmacie_4_" fill="#FFF" points="68.75 80.333 62.75 80.333 62.75 74.333 56.75 74.333 56.75 80.333 50.75 80.333 50.75 86.333 56.75 86.333 56.75 91.333 62.75 91.333 62.75 86.333 68.75 86.333"/><path id="auriculaire_5_" fill="#E9CDA0" d="M60.75211,46.4715c0,0-0.14859-2.13816,2.00592-2.13816 c2.15451,0,5.38627,0,5.38627,0s1.82019-0.34177,2.00592,1.31152c0.18574,1.65329-1.37614,1.69601-1.37614,1.69601 l-5.82676,0.47516C62.94731,47.81602,61.04928,47.72943,60.75211,46.4715z"/><path id="ongle_auriculaire_3_" fill="#EEDEBF" d="M67.53561,44.46268l1.20288-0.02098c0,0,0.9994,0.05564,1.07767,1.02495 c0.07827,0.9693-0.4603,1.16357-0.4603,1.16357s-1.09103,0.24406-1.59769,0.144c-0.50666-0.10006-0.61587-1.0779-0.61587-1.0779 S67.11651,44.64618,67.53561,44.46268z"/><path id="annulaire_4_" fill="#E9CDA0" d="M58.42721,41.74852c0,0,0.03715-1.76111,1.59731-1.86893 c1.56016-0.10782,7.51459-0.35941,7.51459-0.35941s2.09404-0.02105,2.42119,1.5306 c0.36938,1.75195-1.42407,2.39799-1.42407,2.39799s-0.45087,0.31246-5.39138,0.42028 C60.09881,43.86904,58.83582,44.08469,58.42721,41.74852z"/><path id="ongle_annulaire_3_" fill="#EEDEBF" d="M67.07181,40.13339l1.37475-0.02398c0,0,1.1422,0.06359,1.23164,1.17139 c0.08945,1.10779-0.52607,1.32981-0.52607,1.32981s-1.24692,0.27893-1.82596,0.16458 c-0.57905-0.11435-0.70387-1.23191-0.70387-1.23191S66.59282,40.34311,67.07181,40.13339z"/><path id="majeur_6_" fill="#E9CDA0" d="M57.27566,37.50747c0,0-0.14859-2.12052,2.19165-2.15646 c2.34024-0.03594,6.98357,0,6.98357,0s2.33923-0.30948,2.786,1.32982c0.59129,2.16957-1.37443,2.6237-1.37443,2.6237 l-7.64598,0.37512C60.21648,39.67965,57.34995,39.48423,57.27566,37.50747z"/><path id="ongle_majeur_3_" fill="#EEDEBF" d="M66.18163,35.95769l1.48979-0.02599c0,0,1.23779,0.06892,1.33472,1.26942 c0.09693,1.2005-0.57009,1.44111-0.57009,1.44111s-1.35127,0.30228-1.97878,0.17835 c-0.62751-0.12392-0.76276-1.33501-0.76276-1.33501S65.66254,36.18496,66.18163,35.95769z"/><path id="index_3_" fill="#E9CDA0" d="M57.72142,32.73689c0,0-0.07429-1.94082,2.45168-1.86893s4.86621,0.21565,4.86621,0.21565 s2.34024,0.03594,2.48883,1.97676c0.14858,1.94081-1.26299,2.08458-1.26299,2.08458l-6.21584,0.10048 C60.04932,35.24542,57.60998,34.85741,57.72142,32.73689z"/><path id="ongle_index_4_" fill="#EEDEBF" d="M64.5186,31.73826l1.48787,0.07789c0,0,1.22944,0.15499,1.23676,1.35913 c0.00732,1.20414-0.67588,1.39764-0.67588,1.39764s-1.37026,0.20733-1.98692,0.04 c-0.61665-0.16732-0.66142-1.38469-0.66142-1.38469S63.98396,31.92877,64.5186,31.73826z"/><path id="ongle_pouce_6_" fill="#EEDEBF" d="M63.42069,24.67599c0,0-0.092,1.4017,1.83033,2.0756 C67.17336,27.42548,67.75,26.1316,67.75,26.1316v-0.32058L63.42069,24.67599z"/><rect id="chemise_2_" width="5" height="14" x="83.75" y="33.333" fill="#E5E5E5"/><rect id="blouse_2_" width="9" height="16" x="88.75" y="32.333" fill="#FCFCFC"/><rect id="ombre_blouse_2_" width="9" height="8" x="88.75" y="40.333" fill="#525252" opacity=".05"/><rect id="ombre_chemise_2_" width="5" height="7" x="83.75" y="40.333" fill="#525252" opacity=".16"/><path id="auriculaire_4_" fill="#E0C399" d="M28.22465,27.71497l3.31968,1.54973c0,0,1.18624,2.50806,2.32446,2.65266 s1.15334-0.21995,1.15334-0.21995l-1.6938-3.77072l-3.79946-2.8833l-1.95983,0.2829L28.22465,27.71497z"/><path id="annulaire_3_" fill="#E0C399" d="M35.36758,26.89142l2.59111,4.44092l0.79883,1.77836 c0,0-1.62663,1.1574-2.79351-0.64385c-1.16687-1.80125-1.86068-2.68211-1.86068-2.68211l-0.31202-0.69461l-3.69563-3.05038 l-2.52664-0.71345c0,0,0.9586-1.98088,2.42396-1.50622C31.45837,24.29474,35.36758,26.89142,35.36758,26.89142z"/><path id="majeur_3_" fill="#E0C399" d="M36.59867,25.38441l4.35787,2.93178c0,0,1.88881,1.41734,3.38574,2.89145 s1.50914,1.76676,1.50914,1.76676s-0.98819,1.63641-2.60697,0.69404c-1.61877-0.94238-3.9634-3.10898-3.9634-3.10898 l-3.13847-1.81001l-8.14531-5.92105L36.59867,25.38441z"/><path id="main__x28__pouce_et_index_1_" fill="#E9CDA0" d="M14.436,23.83202c0,0,4.7065,4.50433,8.66109,6.00737 c2.03261,1.47199,7.6473,5.21061,7.6473,5.21061l3.40591,2.40539c0,0,1.54655,1.45183,2.98113-0.26585 c1.43459-1.71768-1.49322-3.32419-1.49322-3.32419l-6.16682-5.10051c0,0-1.88297-2.73173-0.89784-3.59163 c0.57813-0.43857,2.11595-1.18899,4.25599-0.48076s5.81182,1.92092,5.81182,1.92092l6.58258,2.70759l2.87103,1.21463 c0,0,1.63232,0.96887,3.09635-0.28503c0.96284-0.90952-0.29272-1.57062-0.29272-1.57062l-7.75741-3.73013 c0,0-6.99382-3.35762-9.55999-4.29181c-2.56617-0.93419-3.48577-1.654-5.91822-2.2905 c-2.43245-0.6365-11.45543-3.20188-11.45543-3.20188L14.436,23.83202z"/><g id="ongle_pouce_3_" opacity=".88"><g><path fill="#EEDEBF" d="M36.96834,35.28908l-0.8813-0.72552c0,0-1.28448-1.03432-2.22058,0.02676 c-0.93609,1.06109,0.26532,2.18958,0.26532,2.18958l1.03814,0.99804c0,0,0.76133,0.24041,1.59837-0.7084 c0.65871-0.74666,0.46607-1.41556,0.33945-1.65749C36.90547,35.23362,36.96834,35.28908,36.96834,35.28908z"/></g></g><g id="pliure_bas_1_" opacity=".44"><g><path fill="#D9A878" d="M30.398,34.03014c0,0,0.00972-0.00462,0.02679-0.01491 c0.01735-0.00964,0.0414-0.02642,0.07191-0.04685c0.06038-0.04248,0.14231-0.10808,0.23609-0.19139 c0.0469-0.04165,0.09595-0.08878,0.14814-0.13801c0.05187-0.04969,0.1043-0.1045,0.15946-0.16011 c0.05387-0.05709,0.11038-0.11499,0.16581-0.17609c0.05635-0.06005,0.11181-0.12299,0.16795-0.18521 c0.05402-0.0614,0.11261-0.12711,0.16496-0.1888c0.02659-0.03115,0.05296-0.06205,0.07903-0.09258 c0.02564-0.03112,0.05098-0.06187,0.07589-0.09212c0.04874-0.06121,0.09738-0.1195,0.14018-0.17701 c0.02224-0.02828,0.04239-0.05669,0.06215-0.08402c0.0204-0.027,0.03963-0.0534,0.05701-0.07937 c0.01812-0.02562,0.03456-0.05072,0.04999-0.0747c0.01619-0.02367,0.03074-0.04654,0.04367-0.06846 c0.02655-0.04358,0.04821-0.08247,0.06506-0.11523c0.01622-0.03291,0.02877-0.05928,0.03559-0.0779 c0.00739-0.0185,0.01012-0.02889,0.01012-0.02889s0.00219,0.0437-0.01552,0.11767 c-0.00896,0.03674-0.02066,0.08166-0.03952,0.13088c-0.01761,0.04986-0.04037,0.10507-0.06927,0.16307 c-0.02787,0.05862-0.0605,0.12103-0.09933,0.18408c-0.03746,0.06409-0.07985,0.12967-0.1259,0.19598 c-0.04634,0.06587-0.09578,0.13316-0.14942,0.19933c-0.05285,0.06784-0.10701,0.12885-0.16427,0.1953 c-0.05809,0.06304-0.11514,0.12697-0.17563,0.18613c-0.05874,0.06065-0.12042,0.11687-0.18001,0.17104 c-0.03066,0.02629-0.06035,0.05259-0.09034,0.07725c-0.03051,0.02412-0.06035,0.04772-0.08941,0.07069 c-0.05844,0.04553-0.11607,0.08563-0.17069,0.12055c-0.054,0.0357-0.10601,0.06485-0.15275,0.08917 c-0.04644,0.02484-0.08905,0.04269-0.124,0.0569c-0.03533,0.01373-0.06385,0.02218-0.08344,0.02723 C30.40874,34.029,30.398,34.03014,30.398,34.03014z"/></g></g><g id="pliure_milieu_1_" opacity=".44"><g><path fill="#D9A878" d="M30.20781,33.41526c0,0,0.01615-0.02861,0.04684-0.07651 c0.03067-0.0479,0.07536-0.11556,0.13235-0.19373c0.11215-0.15798,0.27338-0.3581,0.44395-0.54982 c0.04211-0.04688,0.0853-0.09543,0.12836-0.14131c0.04276-0.04649,0.08595-0.09126,0.12799-0.13437 c0.08422-0.08609,0.165-0.16452,0.2369-0.22939c0.0709-0.06575,0.13288-0.11798,0.17686-0.15402 c0.04396-0.03605,0.0705-0.05539,0.0705-0.05539s-0.016,0.02868-0.04648,0.07667 c-0.03046,0.04801-0.07484,0.11583-0.13155,0.19415c-0.05573,0.0792-0.12384,0.16885-0.19914,0.26284 c-0.03772,0.04693-0.07696,0.09521-0.11795,0.14326c-0.04069,0.04866-0.08257,0.09616-0.12554,0.14533 c-0.17098,0.19136-0.3513,0.37433-0.49532,0.50367c-0.0711,0.06549-0.13314,0.11755-0.17719,0.15344 C30.23436,33.39599,30.20781,33.41526,30.20781,33.41526z"/></g></g><g id="pliure_haut_1_" opacity=".44"><g><path fill="#D9A878" d="M29.57943,33.30504c0,0-0.00016-0.0108,0.00267-0.03082 c0.00265-0.02005,0.0076-0.04939,0.01697-0.08612c0.00988-0.03641,0.02247-0.08086,0.04152-0.12996 c0.0185-0.04933,0.04117-0.10448,0.07009-0.1624c0.02807-0.05843,0.06092-0.12048,0.09907-0.18399 c0.0193-0.03161,0.03912-0.06409,0.05938-0.09728c0.02086-0.03275,0.04339-0.0654,0.06578-0.09901 c0.04658-0.0657,0.09495-0.13371,0.14807-0.19934c0.05142-0.06718,0.108-0.13153,0.16358-0.1968 c0.05905-0.06486,0.11308-0.12598,0.17405-0.18663c0.05921-0.06124,0.12004-0.11843,0.17984-0.17238 c0.06027-0.05371,0.12025-0.10371,0.17936-0.14863c0.05791-0.04616,0.11592-0.08608,0.17076-0.12082 c0.05409-0.03569,0.10615-0.06494,0.15352-0.08844c0.04659-0.02467,0.08977-0.0417,0.12515-0.05503 c0.07129-0.02651,0.11494-0.02961,0.11494-0.02961s-0.00998,0.00397-0.02746,0.01354 c-0.01767,0.00901-0.04233,0.02465-0.07305,0.04473c-0.03048,0.02069-0.06647,0.04688-0.10653,0.0785 c-0.0202,0.01549-0.04115,0.03269-0.06269,0.05161c-0.02194,0.01821-0.04487,0.03756-0.06812,0.05864 c-0.02368,0.0204-0.04757,0.04267-0.07191,0.06618c-0.02474,0.02291-0.05052,0.04634-0.07591,0.07183 c-0.05192,0.04943-0.10392,0.10475-0.1588,0.16052c-0.02702,0.02838-0.05448,0.05724-0.08228,0.08645 c-0.02716,0.02955-0.05466,0.05947-0.08237,0.08962c-0.05492,0.05941-0.11308,0.1255-0.16752,0.18653 c-0.05499,0.06323-0.11078,0.12589-0.16359,0.18907c-0.05397,0.06239-0.10463,0.12547-0.15479,0.18584 c-0.04855,0.06146-0.09663,0.12012-0.1397,0.17761c-0.04258,0.05775-0.08344,0.11213-0.11913,0.16371 c-0.07138,0.10314-0.12662,0.19239-0.1615,0.25745c-0.0166,0.03275-0.03035,0.05864-0.03783,0.07703 C29.58284,33.29483,29.57943,33.30504,29.57943,33.30504z"/></g></g><g id="chemise_1_"><rect width="13.433" height="5.232" x="6.962" y="15.784" fill="#FFF" transform="matrix(0.22867 -0.9735 0.9735 0.22867 -7.36225 27.50857)"/></g><rect id="ombre_chemise_1_" width="6.686" height="5.206" x="9.542" y="19.083" fill="#E6E8E8" transform="matrix(0.22867 -0.97351 0.97351 0.22867 -11.17269 29.27124)"/><g id="bouton_1_"><ellipse cx="12.818" cy="23.31" fill="#F0C03D" rx=".823" ry=".823" transform="matrix(0.22867 -0.9735 0.9735 0.22867 -12.80582 30.45815)"/></g><g id="veste_1_"><polygon fill="#00A071" points="13.784 10.027 10.046 25.945 1.528 23.877 5.267 7.959"/></g><g id="ombre_veste_1_"><polygon fill="#009066" points="11.888 17.985 10.019 25.944 1.507 23.852 3.376 15.893"/></g></g></g></g></g></svg>