<svg xmlns="http://www.w3.org/2000/svg" xmlns:xlink="http://www.w3.org/1999/xlink" x="0" y="0" enable-background="new 0 0 98.75 101.333" version="1.1" viewBox="0 0 98.75 101.333" xml:space="preserve"><g id="illustration_72_x25_"><g id="Samsung_Galaxy_S4_1_"><path fill="#525252" d="M69.03351,23.9737l-1.79285-13.22467c-0.3187-2.35081-3.09305-7.04137-10.95253-5.97586L29.77683,8.36728 c-7.91829,1.07348-9.30344,6.08899-8.95293,8.67443l0.88247,6.50937c-0.07268,0.05124-0.10153,0.13211-0.08977,0.21889 l1.988,14.66407c0.01177,0.0868,0.06111,0.15709,0.14481,0.18708l7.04489,51.96519 c1.15525,8.52151,7.94915,9.03412,15.37891,8.02687l18.37893-2.49162c8.05552-1.09208,13.76116-3.69745,12.65891-11.82793 L70.07748,31.6743c0.03328-0.04823,0.06394-0.11571,0.05453-0.18512l-0.99665-7.35159 C69.12595,24.06822,69.07843,24.01135,69.03351,23.9737z"/><g id="haut_parleur_4_"><path fill="#FFF" d="M48.64928,8.93706l-9.61967,1.30413c-0.52941,0.07177-1.01855-0.30063-1.09034-0.8301 c-0.07178-0.52946,0.30058-1.01855,0.82999-1.09032l9.61967-1.30413c0.52941-0.07177,1.01854,0.30052,1.09032,0.82999 C49.55104,8.37609,49.17869,8.86529,48.64928,8.93706z M38.85997,8.98985c-0.16051,0.02176-0.27338,0.17003-0.25162,0.33055 c0.02176,0.16052,0.17004,0.27349,0.33056,0.25173l9.61967-1.30413c0.16052-0.02176,0.27337-0.17014,0.25161-0.33066 c-0.02176-0.16052-0.17003-0.27338-0.33055-0.25162L38.85997,8.98985z"/></g><g id="bouton_téléphone_4_"><path fill="#FFF" d="M60.08553,93.88196l-9.46319,1.28291c-0.72352,0.09809-1.39196-0.41071-1.49005-1.13422l-0.18024-1.32954 c-0.09809-0.72352,0.41075-1.39202,1.13427-1.49011l9.46319-1.28291c0.72352-0.09809,1.39198,0.41081,1.49007,1.13433 l0.18024,1.32954C61.3179,93.11547,60.80905,93.78387,60.08553,93.88196z M50.17702,91.88007 c-0.35463,0.04807-0.60399,0.37566-0.5559,0.73033l0.18024,1.32954c0.04807,0.35458,0.37565,0.60394,0.73027,0.55586 l9.46319-1.28292c0.35463-0.04807,0.60399-0.37566,0.55592-0.73022l-0.18024-1.32954 c-0.04808-0.35468-0.37566-0.60404-0.73029-0.55597L50.17702,91.88007z"/></g></g><path id="ecran_bkgd_telephone_1_" fill="#00A071" d="M23.37232,17.23994L33.55088,92.32l42.23249-5.72543L65.60481,11.51451 L23.37232,17.23994z"/><g id="Votre_commande_est_prête"><path fill="#FFF" d="M39.24358,28.11462l0.53764-0.07289l0.94082,2.07496c0.20513,0.4575,0.35424,0.82305,0.56464,1.27361 l0.02444-0.00331c0.08285-0.49032,0.13535-0.8832,0.20517-1.37798l0.34829-2.24973l0.51931-0.0704l-0.72744,4.18012 l-0.59262,0.08034L39.24358,28.11462z"/><path fill="#FFF" d="M44.06659,28.44382c0.72704-0.09856,1.45167,0.38184,1.58667,1.37768 c0.13335,0.98363-0.43722,1.63962-1.16426,1.73818s-1.45166-0.38184-1.58501-1.36547 C42.76899,29.19838,43.33955,28.54239,44.06659,28.44382z M44.43269,31.14425c0.5132-0.06957,0.79321-0.57419,0.70127-1.25235 c-0.09277-0.68427-0.49785-1.10222-1.01105-1.03265c-0.50709,0.06875-0.79238,0.5803-0.69962,1.26456 C43.51523,30.80198,43.92559,31.213,44.43269,31.14425z"/><path fill="#FFF" d="M46.37422,28.62251l-0.43988,0.05964l-0.05135-0.3788l0.46019-0.09347l-0.05154-0.83921l0.42155-0.05715 l0.11265,0.83093l0.80035-0.1085l0.05549,0.40932l-0.80035,0.1085l0.22363,1.64958 c0.04969,0.36652,0.19394,0.55857,0.53608,0.51218c0.10386-0.01408,0.23245-0.07511,0.32524-0.12499l0.14911,0.36555 c-0.15751,0.07731-0.35167,0.15966-0.53494,0.18451c-0.63539,0.08614-0.90389-0.28809-0.98341-0.8746L46.37422,28.62251z"/><path fill="#FFF" d="M48.29823,27.94482l0.41547-0.05632l0.11563,0.53181l0.01833-0.00249 c0.15108-0.40003,0.42427-0.67968,0.76028-0.72523c0.12831-0.0174,0.22244-0.01151,0.32599,0.01798l-0.03811,0.45317 c-0.10189-0.01727-0.17159-0.02655-0.29379-0.00998c-0.25048,0.03396-0.52501,0.25784-0.6587,0.78621l0.25842,1.90613 l-0.50099,0.06792L48.29823,27.94482z"/><path fill="#FFF" d="M51.45913,27.44162c0.75758-0.1027,1.25895,0.38303,1.37408,1.23227 c0.01408,0.10386,0.02123,0.20244,0.01896,0.27743l-2.00392,0.27167c0.12362,0.63656,0.56319,0.9876,1.13137,0.91057 c0.28104-0.0381,0.5069-0.16205,0.70777-0.33242l0.22192,0.30594c-0.23425,0.1997-0.53289,0.38332-0.93611,0.43799 c-0.79424,0.10768-1.5022-0.38742-1.63389-1.35884C50.2076,28.2148,50.78096,27.53356,51.45913,27.44162z M52.38587,28.67858 c-0.082-0.6049-0.39635-0.90445-0.86069-0.8415c-0.41543,0.05632-0.74785,0.44977-0.72776,1.05684L52.38587,28.67858z"/><path fill="#FFF" d="M34.34128,37.22858c0.39101-0.05301,0.6883,0.0747,0.91557,0.2367l-0.20658,0.35781 c-0.19788-0.12875-0.39606-0.21386-0.63434-0.18156c-0.53764,0.07289-0.86569,0.59024-0.77293,1.2745 c0.09193,0.67816,0.52673,1.0858,1.07047,1.01208c0.28104-0.0381,0.50026-0.21089,0.65591-0.39378l0.27078,0.29931 c-0.23652,0.27468-0.55877,0.46773-0.91311,0.51577c-0.78814,0.10685-1.47002-0.37935-1.60336-1.36298 C32.98867,37.99059,33.57759,37.33211,34.34128,37.22858z"/><path fill="#FFF" d="M36.94397,36.87573c0.72704-0.09856,1.45166,0.38184,1.58667,1.37767 c0.13335,0.98363-0.43722,1.63962-1.16426,1.73818c-0.72704,0.09856-1.45166-0.38184-1.58501-1.36546 C35.64637,37.63029,36.21694,36.9743,36.94397,36.87573z M37.31006,39.57609c0.5132-0.06957,0.79322-0.57412,0.70128-1.25228 c-0.09276-0.68427-0.49784-1.10222-1.01104-1.03265c-0.5071,0.06874-0.79238,0.5803-0.69962,1.26456 C36.39261,39.23388,36.80296,39.64484,37.31006,39.57609z"/><path fill="#FFF" d="M39.11057,36.65668l0.41547-0.05632l0.10073,0.42184l0.01833-0.00248 c0.21849-0.31583,0.50026-0.578,0.85463-0.62604c0.4521-0.06129,0.72546,0.1194,0.89569,0.45721 c0.26603-0.3783,0.54003-0.65185,0.90049-0.70072c0.61095-0.08282,0.95887,0.28064,1.06158,1.03823l0.2551,1.88171 l-0.50097,0.06792l-0.246-1.81456c-0.07537-0.55592-0.28486-0.77021-0.65754-0.71968 c-0.23215,0.03147-0.44971,0.21654-0.68323,0.55928l0.29155,2.15055l-0.50099,0.06792l-0.246-1.81456 c-0.07537-0.55592-0.28485-0.77021-0.66363-0.71886c-0.21996,0.02982-0.44973,0.21655-0.68325,0.55928l0.29155,2.15055 l-0.50099,0.06792L39.11057,36.65668z"/><path fill="#FFF" d="M44.1754,35.97005l0.41546-0.05632l0.10073,0.42184l0.01833-0.00249 c0.21849-0.31583,0.50027-0.578,0.85463-0.62604c0.4521-0.06129,0.72546,0.1194,0.89569,0.45721 c0.26603-0.3783,0.54003-0.65185,0.90049-0.70072c0.61095-0.08283,0.95887,0.28064,1.06158,1.03823l0.2551,1.88171 l-0.50097,0.06791l-0.246-1.81455c-0.07536-0.55592-0.28486-0.77021-0.65754-0.71968 c-0.23215,0.03148-0.44972,0.21655-0.68323,0.55928l0.29155,2.15055l-0.50099,0.06792l-0.246-1.81456 c-0.07537-0.55592-0.28484-0.77021-0.66362-0.71886c-0.21996,0.02982-0.44974,0.21655-0.68325,0.55928l0.29155,2.15055 l-0.50099,0.06792L44.1754,35.97005z"/><path fill="#FFF" d="M51.06778,36.14313c-0.05135-0.3788-0.22935-0.72799-0.712-0.66256 c-0.34824,0.04721-0.63217,0.2475-0.84281,0.43777l-0.24881-0.32087c0.2509-0.21446,0.63819-0.4785,1.11474-0.5431 c0.72702-0.09856,1.09794,0.34268,1.19815,1.08189l0.24683,1.82066l-0.41545,0.05632l-0.09081-0.34858l-0.01223,0.00166 c-0.25565,0.27113-0.55907,0.51136-0.92564,0.56106c-0.50097,0.06792-0.9159-0.19313-0.98797-0.7247 C49.30398,36.85512,49.82217,36.45506,51.06778,36.14313z M50.4656,37.80511c0.28715-0.03893,0.50637-0.21179,0.75872-0.50727 l-0.11182-0.82482c-0.97929,0.25718-1.28217,0.54715-1.23081,0.92595C49.92724,37.73495,50.17234,37.84486,50.4656,37.80511z"/><path fill="#FFF" d="M52.36834,34.85934l0.41543-0.05632l0.10075,0.42184l0.01833-0.00248 c0.24293-0.31915,0.5186-0.58049,0.92794-0.63598c0.62316-0.08448,0.95887,0.28064,1.06158,1.03823l0.2551,1.88171 l-0.50099,0.06792l-0.246-1.81456c-0.07536-0.55592-0.27874-0.77103-0.66975-0.71803 c-0.30547,0.04141-0.49166,0.22845-0.75044,0.56839l0.29155,2.15055l-0.50097,0.06792L52.36834,34.85934z"/><path fill="#FFF" d="M56.77559,34.18717c0.34213-0.04638,0.58559,0.05125,0.87727,0.22945l-0.09316-0.50377l-0.15488-1.14243 l0.50708-0.06874l0.58972,4.34994l-0.41545,0.05632l-0.08997-0.34248l-0.01833,0.00248 c-0.20152,0.25758-0.49271,0.49615-0.84095,0.54336c-0.74535,0.10104-1.30421-0.39561-1.43839-1.38535 C55.56767,34.96066,56.09745,34.27911,56.77559,34.18717z M57.18973,36.8748c0.27494-0.03727,0.495-0.20396,0.7021-0.51203 l-0.21038-1.55183c-0.28114-0.19207-0.51879-0.24696-0.76317-0.21383c-0.47655,0.06461-0.79321,0.57419-0.70127,1.25235 C56.31309,36.55815,56.67042,36.9452,57.18973,36.8748z"/><path fill="#FFF" d="M60.20306,33.72251c0.75758-0.1027,1.25895,0.38303,1.37408,1.23227 c0.01408,0.10386,0.02122,0.20244,0.01896,0.27742l-2.00392,0.27167c0.12361,0.63649,0.56319,0.9876,1.13137,0.91057 c0.28105-0.0381,0.5069-0.16205,0.70777-0.33242l0.22192,0.30593c-0.23425,0.1997-0.53289,0.38332-0.93611,0.43799 c-0.79425,0.10767-1.5022-0.38742-1.63389-1.35884S59.5249,33.81445,60.20306,33.72251z M61.1298,34.95947 c-0.082-0.6049-0.39636-0.90445-0.8607-0.8415c-0.41543,0.05632-0.74785,0.44977-0.72776,1.05685L61.1298,34.95947z"/><path fill="#FFF" d="M37.81271,44.22419c0.75758-0.1027,1.25895,0.38303,1.37408,1.23227 c0.01408,0.10386,0.02123,0.20244,0.01896,0.27742l-2.00392,0.27167c0.12361,0.63649,0.56319,0.9876,1.13137,0.91057 c0.28104-0.0381,0.5069-0.16205,0.70777-0.33242l0.22192,0.30594c-0.23425,0.1997-0.53289,0.38332-0.93611,0.43799 c-0.79424,0.10767-1.5022-0.38742-1.63389-1.35884C36.56118,44.99736,37.13454,44.31612,37.81271,44.22419z M38.73945,45.46114 c-0.082-0.6049-0.39635-0.90445-0.86069-0.8415c-0.41543,0.05632-0.74785,0.44977-0.72776,1.05685L38.73945,45.46114z"/><path fill="#FFF" d="M39.97299,46.34536c0.28477,0.17293,0.56735,0.28398,0.92171,0.23594 c0.39101-0.05301,0.55835-0.28723,0.52356-0.54385c-0.04141-0.30547-0.41399-0.39181-0.75436-0.47015 c-0.44225-0.09555-0.93391-0.23421-1.00183-0.73518c-0.06461-0.47655,0.26448-0.89449,0.90599-0.98146 c0.37268-0.05052,0.71717,0.05828,0.96807,0.21093l-0.19518,0.35005c-0.22234-0.12543-0.45107-0.20641-0.71378-0.17079 c-0.37268,0.05052-0.51641,0.27532-0.48577,0.50135c0.03727,0.27494,0.37598,0.341,0.7294,0.42373 c0.4492,0.10089,0.94977,0.21348,1.02597,0.77557c0.06543,0.48266-0.26481,0.93806-0.96741,1.03331 c-0.42155,0.05715-0.84881-0.06537-1.16131-0.25941L39.97299,46.34536z"/><path fill="#FFF" d="M42.44189,44.08813l-0.43988,0.05964l-0.05135-0.3788l0.46019-0.09347l-0.05154-0.83921l0.42155-0.05715 l0.11265,0.83093l0.80035-0.1085l0.05549,0.40932l-0.80035,0.10851l0.22363,1.64957 c0.04969,0.36652,0.19394,0.55857,0.53608,0.51218c0.10386-0.01408,0.23245-0.07511,0.32524-0.12499l0.14911,0.36554 c-0.15751,0.07731-0.35166,0.15966-0.53494,0.18451c-0.63539,0.08614-0.90389-0.28809-0.98341-0.8746L42.44189,44.08813z"/><path fill="#FFF" d="M46.5375,46.39494l0.13583,1.00194l-0.50099,0.06792l-0.57233-4.22166l0.41546-0.05632l0.08913,0.3363 l0.01833-0.00248c0.23817-0.26247,0.5424-0.4966,0.89066-0.54381c0.76368-0.10353,1.25337,0.43359,1.37843,1.3561 c0.13667,1.00812-0.38783,1.68273-1.06599,1.77467c-0.27493,0.03727-0.56725-0.0538-0.87117-0.23035L46.5375,46.39494z M47.18336,45.69759c0.48876-0.06626,0.78877-0.56108,0.68937-1.29426c-0.08862-0.65367-0.36822-1.06377-0.93027-0.98757 c-0.2505,0.03396-0.48193,0.20848-0.73958,0.51089l0.21121,1.55793C46.71355,45.67423,46.98785,45.72409,47.18336,45.69759z"/><path fill="#FFF" d="M48.99081,42.78345l0.41547-0.05632l0.11563,0.53181l0.01833-0.00249 c0.15108-0.40002,0.42427-0.67968,0.76028-0.72523c0.12831-0.0174,0.22244-0.01151,0.326,0.01805l-0.03812,0.45311 c-0.10189-0.01728-0.17159-0.02648-0.29377-0.00991c-0.25048,0.03396-0.52502,0.25777-0.65872,0.78607l0.25842,1.9062 l-0.50099,0.06792L48.99081,42.78345z"/><path fill="#FFF" d="M52.1517,42.28026c0.75758-0.1027,1.25896,0.38302,1.37409,1.23227 c0.01408,0.10386,0.02121,0.20244,0.01894,0.27743l-2.00392,0.27167c0.12361,0.63649,0.56319,0.9876,1.13137,0.91057 c0.28105-0.0381,0.50688-0.16205,0.70779-0.33242l0.2219,0.30594c-0.23425,0.1997-0.53289,0.38332-0.93611,0.43799 c-0.79425,0.10767-1.50222-0.38742-1.63391-1.35884C50.90016,43.05344,51.47354,42.3722,52.1517,42.28026z M53.07846,43.51721 c-0.08201-0.6049-0.39639-0.90444-0.8607-0.8415c-0.41546,0.05632-0.74787,0.44978-0.72779,1.05685L53.07846,43.51721z M51.77118,40.9879l0.40934-0.05549l0.69718,0.78277l-0.36657,0.0497l-0.4847-0.5005l-0.02446,0.00331l-0.33395,0.61148 l-0.36047,0.04887L51.77118,40.9879z"/><path fill="#FFF" d="M54.13552,42.50284l-0.43988,0.05964l-0.05135-0.3788l0.46019-0.09347l-0.05154-0.83921l0.42155-0.05715 l0.11265,0.83093l0.80035-0.10851l0.05549,0.40932l-0.80035,0.1085l0.22363,1.64958 c0.04969,0.36652,0.19394,0.55857,0.53608,0.51218c0.10386-0.01408,0.23245-0.07511,0.32524-0.12499l0.14911,0.36555 c-0.15751,0.07731-0.35167,0.15966-0.53494,0.18451c-0.63539,0.08614-0.90389-0.28809-0.98341-0.8746L54.13552,42.50284z"/><path fill="#FFF" d="M57.10048,41.60936c0.75758-0.10271,1.25895,0.38303,1.37408,1.23227 c0.01408,0.10386,0.02123,0.20243,0.01896,0.27742l-2.00392,0.27167c0.12361,0.63649,0.56319,0.9876,1.13137,0.91057 c0.28104-0.0381,0.5069-0.16205,0.70777-0.33242l0.22192,0.30593c-0.23425,0.1997-0.53289,0.38333-0.93611,0.43799 c-0.79424,0.10768-1.5022-0.38742-1.63389-1.35884C55.84896,42.38253,56.42232,41.70129,57.10048,41.60936z M58.02722,42.84631 c-0.082-0.6049-0.39635-0.90445-0.86069-0.8415c-0.41543,0.05632-0.74785,0.44977-0.72776,1.05684L58.02722,42.84631z"/><path fill="#FFF" d="M59.31853,45.16619c0.32142-0.19915,0.49352-0.49004,0.4488-0.81993 c-0.01749,0.00859-0.04194,0.0119-0.06026,0.01439c-0.19551,0.0265-0.37703-0.0733-0.40768-0.2994 c-0.02982-0.21992,0.12303-0.3775,0.32464-0.40483c0.26271-0.03562,0.45221,0.16888,0.50191,0.53547 c0.07122,0.52539-0.17877,0.97613-0.64546,1.251L59.31853,45.16619z"/><path fill="#FFF" d="M33.31495,52.37492l0.5193-0.0704l0.79067,1.61001c0.1253,0.28166,0.26364,0.56777,0.39338,0.83639 l0.02442-0.00331c0.04744-0.29264,0.10461-0.60526,0.15039-0.91011l0.33346-1.76241l0.49488-0.06709l-0.6483,3.11166 l-0.58651,0.07951L33.31495,52.37492z"/><path fill="#FFF" d="M37.71612,51.70358c0.72702-0.09856,1.45166,0.38184,1.58667,1.37767 c0.13335,0.98363-0.43724,1.63962-1.16426,1.73819c-0.72704,0.09856-1.45168-0.38184-1.58503-1.36546 C36.4185,52.45814,36.98908,51.80214,37.71612,51.70358z M38.08221,54.40401c0.5132-0.06957,0.79321-0.57419,0.70127-1.25235 c-0.09276-0.68427-0.49785-1.10222-1.01105-1.03265c-0.50709,0.06875-0.79238,0.5803-0.69962,1.26456 C37.16476,54.06173,37.57512,54.47276,38.08221,54.40401z"/><path fill="#FFF" d="M39.83996,51.49033l0.50708-0.06874l0.24599,1.81449c0.07537,0.55598,0.27264,0.77186,0.66364,0.71885 c0.30548-0.04141,0.4986-0.2231,0.73243-0.60947l-0.28574-2.10774l0.50097-0.06791l0.40253,2.96919l-0.41543,0.05632 l-0.10572-0.45854l-0.01833,0.00249c-0.23102,0.36112-0.49529,0.6147-0.90463,0.67019 c-0.62928,0.08531-0.96498-0.27981-1.06768-1.0374L39.83996,51.49033z"/><path fill="#FFF" d="M43.43829,53.34187c0.28477,0.17293,0.56737,0.28397,0.92171,0.23594 c0.39101-0.05301,0.55835-0.28723,0.52356-0.54385c-0.04141-0.30547-0.41398-0.39188-0.75436-0.47016 c-0.44225-0.09555-0.93391-0.23421-1.00183-0.73525c-0.0646-0.47648,0.2645-0.89442,0.906-0.98139 c0.37268-0.05052,0.71718,0.05828,0.96809,0.21093l-0.1952,0.35005c-0.22232-0.12543-0.45107-0.20641-0.71378-0.17079 c-0.37267,0.05052-0.51641,0.27533-0.48577,0.50135c0.03727,0.27494,0.37598,0.34101,0.72941,0.4238 c0.44919,0.10083,0.94976,0.21341,1.02596,0.77551c0.06543,0.48265-0.26481,0.93805-0.9674,1.03331 c-0.42155,0.05715-0.84879-0.06538-1.16131-0.25941L43.43829,53.34187z"/><path fill="#FFF" d="M47.93776,53.67141l0.13583,1.00194l-0.50097,0.06792l-0.57233-4.22166l0.41543-0.05632l0.08915,0.3363 l0.01833-0.00248c0.23818-0.26247,0.54242-0.4966,0.89066-0.54381c0.76368-0.10353,1.25337,0.43359,1.37843,1.3561 c0.13667,1.00812-0.38783,1.68274-1.06599,1.77467c-0.27492,0.03727-0.56725-0.0538-0.87116-0.23035L47.93776,53.67141z M48.58361,52.97405c0.48876-0.06626,0.78875-0.56108,0.68935-1.29426c-0.08862-0.65367-0.36818-1.06377-0.93027-0.98757 c-0.25048,0.03396-0.48191,0.20847-0.73956,0.51089l0.21121,1.55793C48.11381,52.9507,48.38811,53.00056,48.58361,52.97405z"/><path fill="#FFF" d="M51.53582,49.83005c0.72704-0.09856,1.45167,0.38184,1.58667,1.37767 c0.13335,0.98363-0.43722,1.63962-1.16426,1.73818s-1.45167-0.38184-1.58501-1.36546 C50.23822,50.58461,50.80879,49.92862,51.53582,49.83005z M51.90192,52.53048c0.5132-0.06957,0.79321-0.57419,0.70127-1.25235 c-0.09277-0.68427-0.49785-1.10222-1.01105-1.03265c-0.50709,0.06874-0.79238,0.5803-0.69962,1.26456 C50.98447,52.1882,51.39483,52.59923,51.90192,52.53048z"/><path fill="#FFF" d="M53.65967,49.6168l0.50709-0.06875l0.24599,1.81449c0.07537,0.55599,0.27261,0.77187,0.66362,0.71886 c0.30548-0.04141,0.49862-0.2231,0.73243-0.60947l-0.28574-2.10774l0.50099-0.06792l0.40253,2.9692l-0.41546,0.05632 l-0.10571-0.45855l-0.01833,0.00249c-0.23102,0.36112-0.49529,0.6147-0.90463,0.67019 c-0.62928,0.08531-0.96498-0.27981-1.06768-1.03741L53.65967,49.6168z"/><path fill="#FFF" d="M56.59834,49.21841l0.51931-0.0704l0.79067,1.61001c0.1253,0.28166,0.26363,0.56777,0.39336,0.83639 l0.02446-0.00331c0.04742-0.29264,0.10459-0.60526,0.15036-0.91011l0.3335-1.76241l0.49487-0.06709l-0.6483,3.11166 l-0.58651,0.07951L56.59834,49.21841z"/><path fill="#FFF" d="M60.95673,48.55286c0.75758-0.10271,1.25895,0.38303,1.37408,1.23227 c0.01408,0.10386,0.02123,0.20244,0.01896,0.27742l-2.00392,0.27167c0.12362,0.63656,0.56319,0.9876,1.13137,0.91057 c0.28105-0.0381,0.5069-0.16205,0.70777-0.33242l0.22192,0.30593c-0.23425,0.1997-0.53289,0.38333-0.93611,0.43799 c-0.79424,0.10767-1.5022-0.38742-1.63389-1.35884C59.70521,49.32604,60.27858,48.6448,60.95673,48.55286z M61.88348,49.78982 c-0.08201-0.6049-0.39636-0.90445-0.8607-0.8415c-0.41543,0.05632-0.74785,0.44977-0.72776,1.05684L61.88348,49.78982z"/><path fill="#FFF" d="M62.96395,51.10542l1.25344-2.50307l-1.39297,0.18884l-0.05549-0.40932l2.02836-0.27498l0.03643,0.26877 l-1.25343,2.50314l1.61291-0.21866l0.0555,0.40932l-2.2483,0.3048L62.96395,51.10542z"/><path fill="#FFF" d="M32.75324,58.51125l0.50099-0.06792l0.51352,3.78784c0.02154,0.15887,0.09702,0.21082,0.17034,0.20087 c0.03054-0.00414,0.05498-0.00745,0.10831-0.02711l0.11856,0.36969c-0.06306,0.03971-0.1461,0.06961-0.28052,0.08784 c-0.37878,0.05135-0.56384-0.16625-0.62264-0.59999L32.75324,58.51125z"/><path fill="#FFF" d="M36.32587,60.5405c-0.05135-0.3788-0.22934-0.72799-0.712-0.66256 c-0.34824,0.04721-0.63216,0.24749-0.84281,0.43777l-0.24881-0.32087c0.2509-0.21446,0.63819-0.4785,1.11474-0.5431 c0.72702-0.09856,1.09794,0.34268,1.19815,1.08189l0.24683,1.82066l-0.41545,0.05632l-0.09081-0.34858l-0.01223,0.00166 c-0.25566,0.27113-0.55907,0.51136-0.92564,0.56106c-0.50097,0.06792-0.9159-0.19313-0.98797-0.7247 C34.56207,61.25249,35.08026,60.85244,36.32587,60.5405z M35.72369,62.20248c0.28715-0.03893,0.50637-0.21179,0.75872-0.50727 l-0.11182-0.82482c-0.97929,0.25718-1.28217,0.54715-1.23081,0.92595C35.18533,62.13233,35.43043,62.24224,35.72369,62.20248z"/><path fill="#FFF" d="M38.86053,59.08941l0.41543-0.05632l0.11565,0.5318l0.01833-0.00248 c0.15108-0.40002,0.42427-0.67968,0.7603-0.72523c0.1283-0.0174,0.22241-0.0115,0.32596,0.01805l-0.03812,0.45311 c-0.10189-0.01728-0.17157-0.02648-0.29376-0.00992c-0.2505,0.03396-0.52502,0.25777-0.65872,0.78608l0.25842,1.9062 l-0.50097,0.06792L38.86053,59.08941z"/><path fill="#FFF" d="M42.02138,58.58622c0.75758-0.10271,1.25896,0.38302,1.3741,1.23227 c0.01408,0.10386,0.02121,0.20244,0.01894,0.27743l-2.00392,0.27167c0.12361,0.63649,0.56319,0.9876,1.13137,0.91057 c0.28105-0.0381,0.50688-0.16205,0.70779-0.33242l0.2219,0.30594c-0.23425,0.1997-0.53289,0.38332-0.93611,0.43799 c-0.79425,0.10767-1.50222-0.38742-1.63391-1.35884S41.34322,58.67815,42.02138,58.58622z M42.94814,59.82317 c-0.082-0.6049-0.39639-0.90444-0.86069-0.8415c-0.41547,0.05632-0.74787,0.44978-0.72779,1.05685L42.94814,59.82317z"/><path fill="#FFF" d="M44.00521,58.8088l-0.43988,0.05964l-0.05135-0.3788l0.46019-0.09347l-0.05155-0.83921l0.42155-0.05715 l0.11265,0.83093l0.80035-0.10851l0.05549,0.40932l-0.80035,0.1085l0.22363,1.64958 c0.04969,0.36652,0.19394,0.55857,0.53608,0.51218c0.10386-0.01408,0.23246-0.07511,0.32524-0.12499l0.14911,0.36555 c-0.15751,0.07731-0.35167,0.15966-0.53494,0.18451c-0.63539,0.08614-0.90389-0.28809-0.9834-0.8746L44.00521,58.8088z"/><path fill="#FFF" d="M45.71086,57.20875c-0.0265-0.1955,0.10884-0.34449,0.30434-0.37099 c0.19551-0.0265,0.36563,0.08107,0.39214,0.27657c0.02568,0.1894-0.10884,0.34449-0.30434,0.37099 S45.73654,57.39815,45.71086,57.20875z M45.92922,58.13111l0.50099-0.06792l0.40253,2.9692l-0.50099,0.06792L45.92922,58.13111z"/><path fill="#FFF" d="M47.4321,57.92737l0.41546-0.05632l0.11563,0.53181l0.01833-0.00249 c0.15108-0.40002,0.42427-0.67968,0.76028-0.72523c0.12831-0.0174,0.22244-0.01151,0.326,0.01805l-0.03812,0.4531 c-0.10189-0.01727-0.17158-0.02648-0.29377-0.00991c-0.25048,0.03396-0.52502,0.25777-0.65872,0.78607l0.25842,1.9062 l-0.50099,0.06792L47.4321,57.92737z"/><path fill="#FFF" d="M50.59299,57.42417c0.75758-0.1027,1.25895,0.38303,1.37408,1.23227 c0.01408,0.10386,0.02122,0.20244,0.01896,0.27742l-2.00392,0.27167c0.12361,0.63649,0.56319,0.9876,1.13137,0.91057 c0.28105-0.0381,0.5069-0.16205,0.70777-0.33242l0.22192,0.30594c-0.23425,0.1997-0.53289,0.38332-0.93611,0.43799 c-0.79425,0.10767-1.5022-0.38742-1.63389-1.35884S49.91484,57.51611,50.59299,57.42417z M51.51974,58.66113 c-0.082-0.6049-0.39636-0.90445-0.8607-0.8415c-0.41543,0.05632-0.74785,0.44977-0.72776,1.05685L51.51974,58.66113z"/><path fill="#FFF" d="M52.52128,57.23743l0.41546-0.05632l0.11563,0.53181l0.01833-0.00249 c0.15108-0.40002,0.42427-0.67968,0.76028-0.72523c0.12831-0.0174,0.22244-0.01151,0.326,0.01805l-0.03812,0.4531 c-0.10189-0.01727-0.17158-0.02648-0.29377-0.00991c-0.25048,0.03396-0.52502,0.25777-0.65872,0.78607l0.25842,1.9062 l-0.50099,0.06792L52.52128,57.23743z"/><path fill="#FFF" d="M56.94068,56.56362c0.34213-0.04638,0.58559,0.05125,0.87727,0.22945l-0.09317-0.50377l-0.15488-1.14243 l0.50708-0.06874l0.58972,4.34994l-0.41545,0.05632l-0.08997-0.34248l-0.01833,0.00249 c-0.20152,0.25758-0.49271,0.49615-0.84095,0.54336c-0.74535,0.10105-1.30421-0.39561-1.43839-1.38534 C55.73275,57.3371,56.26254,56.65555,56.94068,56.56362z M57.35481,59.25124c0.27494-0.03727,0.495-0.20396,0.70211-0.51203 l-0.21038-1.55183c-0.28115-0.19207-0.51879-0.24697-0.76317-0.21384c-0.47655,0.06461-0.79321,0.57419-0.70127,1.25235 C56.47817,58.93459,56.83551,59.32165,57.35481,59.25124z"/><path fill="#FFF" d="M61.0937,57.18274c-0.05135-0.3788-0.22935-0.72799-0.71201-0.66256 c-0.34824,0.04721-0.63216,0.2475-0.8428,0.43777l-0.24882-0.32087c0.2509-0.21446,0.63819-0.4785,1.11474-0.5431 c0.72702-0.09856,1.09793,0.34268,1.19815,1.08189l0.24682,1.82066l-0.41544,0.05632l-0.09082-0.34858l-0.01223,0.00166 c-0.25565,0.27113-0.55907,0.51136-0.92564,0.56106c-0.50097,0.06792-0.9159-0.19313-0.98797-0.7247 C59.3299,57.89474,59.84809,57.49468,61.0937,57.18274z M60.49152,58.84473c0.28715-0.03893,0.50637-0.21179,0.75872-0.50727 l-0.11182-0.82483c-0.97929,0.25718-1.28217,0.54715-1.23081,0.92595C59.95316,58.77457,60.19826,58.88448,60.49152,58.84473z"/><path fill="#FFF" d="M62.39425,55.89896l0.41543-0.05632l0.10075,0.42184l0.01833-0.00249 c0.24293-0.31915,0.5186-0.58048,0.92794-0.63598c0.62316-0.08448,0.95887,0.28064,1.06158,1.03823l0.2551,1.88171 l-0.50099,0.06792l-0.24599-1.81456c-0.07536-0.55592-0.27874-0.77103-0.66975-0.71803 c-0.30547,0.04141-0.49166,0.22845-0.75043,0.56839l0.29155,2.15055l-0.50097,0.06791L62.39425,55.89896z"/><path fill="#FFF" d="M65.96818,57.7538c0.28477,0.17293,0.56734,0.28398,0.92171,0.23594 c0.39101-0.05301,0.55835-0.28723,0.52356-0.54385c-0.04141-0.30547-0.41399-0.39181-0.75436-0.47015 c-0.44225-0.09555-0.93391-0.23421-1.00183-0.73518c-0.06461-0.47655,0.26448-0.89449,0.90599-0.98146 c0.37268-0.05052,0.71718,0.05828,0.96807,0.21093l-0.19518,0.35005c-0.22234-0.12543-0.45107-0.20641-0.71378-0.17079 c-0.37267,0.05052-0.51641,0.27532-0.48576,0.50135c0.03727,0.27494,0.37598,0.341,0.7294,0.42373 c0.4492,0.10089,0.94977,0.21348,1.02597,0.77557c0.06543,0.48266-0.26481,0.93806-0.96741,1.03331 c-0.42155,0.05715-0.84881-0.06537-1.16131-0.25941L65.96818,57.7538z"/><path fill="#FFF" d="M36.98908,66.80942l0.51931-0.0704l0.79067,1.61c0.1253,0.28166,0.26363,0.56777,0.39336,0.8364 l0.02446-0.00331c0.04742-0.29264,0.10459-0.60526,0.15036-0.91011l0.33349-1.76241l0.49487-0.06709l-0.6483,3.11166 l-0.58651,0.07951L36.98908,66.80942z"/><path fill="#FFF" d="M41.39025,66.13808c0.72704-0.09856,1.45167,0.38184,1.58667,1.37768 c0.13335,0.98363-0.43722,1.63962-1.16425,1.73818c-0.72704,0.09856-1.45167-0.38184-1.58502-1.36546 C40.09264,66.89263,40.66321,66.23664,41.39025,66.13808z M41.75634,68.83851c0.5132-0.06957,0.79321-0.5742,0.70127-1.25236 c-0.09277-0.68427-0.49785-1.10222-1.01105-1.03265c-0.5071,0.06875-0.79238,0.5803-0.69962,1.26456 C40.83889,68.49623,41.24925,68.90725,41.75634,68.83851z"/><path fill="#FFF" d="M43.69788,66.31676l-0.43988,0.05964l-0.05135-0.3788l0.46018-0.09348l-0.05154-0.83921l0.42155-0.05715 l0.11265,0.83093l0.80035-0.10851l0.05549,0.40932l-0.80035,0.10851l0.22363,1.64957 c0.04969,0.36652,0.19394,0.55856,0.53608,0.51218c0.10386-0.01408,0.23246-0.07511,0.32524-0.12499l0.14911,0.36555 c-0.15751,0.07731-0.35166,0.15966-0.53494,0.1845c-0.63539,0.08614-0.90389-0.28809-0.9834-0.8746L43.69788,66.31676z"/><path fill="#FFF" d="M45.62188,65.63908l0.41546-0.05633l0.11564,0.53181l0.01833-0.00248 c0.15108-0.40003,0.42427-0.67968,0.76028-0.72523c0.12831-0.0174,0.22244-0.01151,0.32599,0.01798l-0.03811,0.45317 c-0.10189-0.01727-0.17159-0.02655-0.29378-0.00999c-0.25048,0.03396-0.52502,0.25784-0.6587,0.78622l0.25841,1.90613 l-0.50099,0.06792L45.62188,65.63908z"/><path fill="#FFF" d="M48.78276,65.13588c0.75758-0.10271,1.25896,0.38302,1.3741,1.23227 c0.01408,0.10385,0.02121,0.20244,0.01894,0.27742l-2.00392,0.27168c0.12362,0.63656,0.56319,0.98759,1.13137,0.91057 c0.28104-0.0381,0.50688-0.16205,0.70778-0.33243l0.2219,0.30594c-0.23425,0.1997-0.53289,0.38332-0.93611,0.43799 c-0.79424,0.10767-1.50221-0.38742-1.63391-1.35883C47.53122,65.90906,48.1046,65.22781,48.78276,65.13588z M49.70953,66.37283 c-0.082-0.6049-0.39639-0.90444-0.8607-0.8415c-0.41546,0.05633-0.74787,0.44978-0.72779,1.05685L49.70953,66.37283z"/><path fill="#FFF" d="M52.88264,67.93363l0.13583,1.00194l-0.50097,0.06792l-0.57233-4.22166l0.41543-0.05632l0.08915,0.3363 l0.01833-0.00249c0.23817-0.26247,0.54242-0.4966,0.89066-0.54381c0.76368-0.10354,1.25337,0.43359,1.37843,1.35609 c0.13667,1.00812-0.38784,1.68273-1.06599,1.77467c-0.27493,0.03727-0.56725-0.05381-0.87116-0.23035L52.88264,67.93363z M53.5285,67.23627c0.48876-0.06626,0.78875-0.56108,0.68935-1.29426c-0.08862-0.65367-0.36818-1.06377-0.93027-0.98757 c-0.25048,0.03396-0.48191,0.20847-0.73956,0.51089l0.21121,1.55793C53.0587,67.21292,53.333,67.26278,53.5285,67.23627z"/><path fill="#FFF" d="M55.14878,62.94133l0.50097-0.06792l0.16069,1.18531l0.06449,0.61342 c0.2446-0.30694,0.51415-0.56745,0.92349-0.62294c0.62316-0.08448,0.95887,0.28063,1.06158,1.03823l0.2551,1.88171 l-0.50099,0.06792l-0.246-1.81455c-0.07536-0.55592-0.27874-0.77104-0.66975-0.71803 c-0.30547,0.04141-0.49166,0.22845-0.75044,0.5684l0.29155,2.15054l-0.50097,0.06792L55.14878,62.94133z"/><path fill="#FFF" d="M60.48708,64.73128c-0.05135-0.37879-0.22935-0.72799-0.712-0.66256 c-0.34824,0.04721-0.63218,0.2475-0.84281,0.43777l-0.24881-0.32087c0.2509-0.21446,0.63819-0.4785,1.11472-0.5431 c0.72704-0.09856,1.09795,0.34268,1.19817,1.08189l0.24683,1.82066l-0.41545,0.05632l-0.09081-0.34858l-0.01221,0.00166 c-0.25567,0.27113-0.55909,0.51137-0.92566,0.56107c-0.50097,0.06792-0.91589-0.19314-0.98795-0.7247 C58.72329,65.4432,59.24146,65.04322,60.48708,64.73128z M59.8849,66.39326c0.28715-0.03893,0.50636-0.21178,0.75872-0.50727 l-0.11182-0.82482c-0.97927,0.25717-1.28217,0.54714-1.23081,0.92594C59.34655,66.3231,59.59165,66.43302,59.8849,66.39326z"/><path fill="#FFF" d="M61.78762,63.4475l0.41547-0.05632l0.11563,0.5318l0.01833-0.00248 c0.15108-0.40002,0.42427-0.67968,0.76028-0.72523c0.12831-0.0174,0.22244-0.0115,0.32599,0.01798l-0.03811,0.45317 c-0.10189-0.01727-0.17159-0.02655-0.29378-0.00998c-0.25049,0.03396-0.52502,0.25784-0.6587,0.78621l0.25841,1.90614 l-0.50099,0.06792L61.78762,63.4475z"/><path fill="#FFF" d="M63.82603,64.44035l1.40519-0.1905l0.05219,0.3849l-1.4052,0.1905L63.82603,64.44035z"/><path fill="#FFF" d="M44.85007,73.21001l0.41547-0.05632l0.10073,0.42184l0.01833-0.00249 c0.21849-0.31583,0.50026-0.578,0.85462-0.62604c0.4521-0.06129,0.72546,0.1194,0.8957,0.45721 c0.26603-0.3783,0.54002-0.65185,0.90049-0.70071c0.61095-0.08283,0.95887,0.28063,1.06158,1.03823l0.2551,1.88171 l-0.50097,0.06792l-0.246-1.81456c-0.07537-0.55592-0.28486-0.7702-0.65754-0.71968 c-0.23215,0.03147-0.44971,0.21655-0.68323,0.55928l0.29155,2.15055l-0.50099,0.06792l-0.246-1.81455 c-0.07536-0.55592-0.28484-0.77021-0.66362-0.71886c-0.21996,0.02982-0.44973,0.21655-0.68325,0.55929l0.29155,2.15055 l-0.50099,0.06792L44.85007,73.21001z"/><path fill="#FFF" d="M51.74245,73.38309c-0.05135-0.3788-0.22935-0.728-0.712-0.66256 c-0.34824,0.04721-0.63217,0.24749-0.84281,0.43777l-0.24882-0.32088c0.2509-0.21445,0.63819-0.47849,1.11474-0.5431 c0.72702-0.09856,1.09793,0.34268,1.19815,1.08189l0.24682,1.82066L52.0831,75.2532l-0.09082-0.34858l-0.01223,0.00166 c-0.25565,0.27113-0.55907,0.51136-0.92564,0.56106c-0.50097,0.06792-0.9159-0.19313-0.98797-0.7247 C49.97865,74.09508,50.49684,73.69502,51.74245,73.38309z M51.14027,75.04507c0.28715-0.03893,0.50637-0.21179,0.75872-0.50727 l-0.11182-0.82482c-0.97929,0.25718-1.28217,0.54714-1.23081,0.92594C50.60191,74.97491,50.84701,75.08482,51.14027,75.04507z"/><path fill="#FFF" d="M54.24274,71.86197c0.39101-0.05301,0.6883,0.0747,0.91558,0.2367l-0.20658,0.3578 c-0.19788-0.12875-0.39607-0.21386-0.63434-0.18156c-0.53764,0.07288-0.8657,0.59023-0.77293,1.2745 c0.09194,0.67816,0.52673,1.0858,1.07047,1.01209c0.28104-0.0381,0.50026-0.21089,0.65591-0.39379l0.27078,0.29932 c-0.23652,0.27468-0.55877,0.46773-0.91311,0.51576c-0.78814,0.10685-1.47002-0.37935-1.60337-1.36298 C52.89013,72.62399,53.47905,71.96551,54.24274,71.86197z"/><path fill="#FFF" d="M55.61058,70.79925c-0.0265-0.1955,0.10884-0.34449,0.30434-0.37099 c0.19551-0.0265,0.36563,0.08107,0.39214,0.27657c0.02568,0.1894-0.10884,0.34449-0.30434,0.37099 S55.63626,70.98865,55.61058,70.79925z M55.82894,71.72161l0.50099-0.06792l0.40253,2.96919l-0.50099,0.06792L55.82894,71.72161z"/><path fill="#FFF" d="M58.43382,71.29379c0.75758-0.10271,1.25895,0.38303,1.37408,1.23227 c0.01408,0.10385,0.02123,0.20243,0.01896,0.27742l-2.00392,0.27167c0.12361,0.6365,0.56319,0.9876,1.13137,0.91058 c0.28104-0.0381,0.5069-0.16206,0.70777-0.33243l0.22192,0.30594c-0.23425,0.1997-0.53289,0.38332-0.93611,0.43799 c-0.79424,0.10767-1.5022-0.38742-1.63389-1.35884C57.18229,72.06697,57.75566,71.38573,58.43382,71.29379z M59.36056,72.53075 c-0.082-0.6049-0.39635-0.90445-0.86069-0.8415c-0.41543,0.05632-0.74785,0.44977-0.72776,1.05685L59.36056,72.53075z"/></g></g></svg>