<?xml version="1.0" encoding="utf-8"?>
<!-- Generator: Adobe Illustrator 20.0.0, SVG Export Plug-In . SVG Version: 6.00 Build 0)  -->
<svg version="1.1" xmlns="http://www.w3.org/2000/svg" xmlns:xlink="http://www.w3.org/1999/xlink" x="0px" y="0px"
	 viewBox="0 0 300 300" enable-background="new 0 0 300 300" xml:space="preserve">
<g id="Calque_1">
</g>
<g id="garanties">
	<g id="responsive">
	</g>
	<g id="référencement">
	</g>
	<g id="support_technique">
	</g>
	<g id="données_cryptées">
	</g>
	<g id="ars">
	</g>
	<g id="paiement">
	</g>
	<g id="hébergement">
		<circle fill="#FFFFFF" cx="150.96541" cy="150.19177" r="148.06613"/>
	</g>
</g>
<g id="raisons">
	<g id="cout">
	</g>
	<g id="accompagnement">
	</g>
	<g id="satisfaction">
		
			<polyline fill="none" stroke="#00A071" stroke-width="5" stroke-linecap="round" stroke-linejoin="round" stroke-miterlimit="10" points="
			44.73627,65.58367 76.36563,70.82871 97.98051,210.97043 245.24983,210.97043 		"/>
		
			<polyline fill="none" stroke="#00A071" stroke-width="5" stroke-linecap="round" stroke-linejoin="round" stroke-miterlimit="10" points="
			78.23218,82.9306 243.23245,100.02119 236.89209,173.32385 94.77248,190.17096 		"/>
		
			<circle fill="none" stroke="#00A071" stroke-width="5" stroke-linecap="round" stroke-linejoin="round" stroke-miterlimit="10" cx="109.80553" cy="221.89217" r="10.38404"/>
		
			<circle fill="none" stroke="#00A071" stroke-width="5" stroke-linecap="round" stroke-linejoin="round" stroke-miterlimit="10" cx="222.77037" cy="221.89217" r="10.38404"/>
		
			<polygon fill="none" stroke="#00A071" stroke-width="5" stroke-linecap="round" stroke-linejoin="round" stroke-miterlimit="10" points="
			142.17455,150.74445 152.42116,152.34349 144.91922,159.50388 146.56482,169.74312 137.43666,164.82104 128.20708,169.5502 
			130.0675,159.34779 122.71771,152.03134 132.99567,150.64798 137.68283,141.397 		"/>
		
			<polygon fill="none" stroke="#00A071" stroke-width="5" stroke-linecap="round" stroke-linejoin="round" stroke-miterlimit="10" points="
			188.66759,150.74445 198.9142,152.34349 191.41226,159.50388 193.05786,169.74312 183.92972,164.82104 174.70013,169.5502 
			176.56055,159.34779 169.21075,152.03134 179.48871,150.64798 184.17587,141.397 		"/>
		
			<polygon fill="none" stroke="#00A071" stroke-width="5" stroke-linecap="round" stroke-linejoin="round" stroke-miterlimit="10" points="
			118.92802,113.44849 129.17464,115.04754 121.6727,122.20792 123.3183,132.44716 114.19014,127.52509 104.96056,132.25424 
			106.82098,122.05184 99.47119,114.73538 109.74915,113.35203 114.43631,104.10105 		"/>
		
			<polygon fill="none" stroke="#00A071" stroke-width="5" stroke-linecap="round" stroke-linejoin="round" stroke-miterlimit="10" points="
			165.42107,113.44849 175.66768,115.04754 168.16574,122.20792 169.81134,132.44716 160.68318,127.52509 151.45361,132.25424 
			153.31403,122.05184 145.96423,114.73538 156.24219,113.35203 160.92935,104.10105 		"/>
		
			<polygon fill="none" stroke="#00A071" stroke-width="5" stroke-linecap="round" stroke-linejoin="round" stroke-miterlimit="10" points="
			211.91411,113.44849 222.16072,115.04754 214.6588,122.20792 216.30438,132.44716 207.17624,127.52509 197.94666,132.25424 
			199.80707,122.05184 192.45728,114.73538 202.73524,113.35203 207.42239,104.10105 		"/>
	</g>
	<g id="fidélisation">
	</g>
	<g id="expertise">
	</g>
	<g id="proximité">
	</g>
</g>
<g id="objectifs">
	<g id="augmenter">
	</g>
	<g id="gagner">
	</g>
	<g id="simplifier">
	</g>
	<g id="aider">
	</g>
	<g id="innover">
	</g>
	<g id="connecter">
	</g>
</g>
</svg>
