<?xml version="1.0" encoding="utf-8"?>
<!-- Generator: Adobe Illustrator 22.1.0, SVG Export Plug-In . SVG Version: 6.00 Build 0)  -->
<svg version="1.1" id="Calque_1" xmlns="http://www.w3.org/2000/svg" xmlns:xlink="http://www.w3.org/1999/xlink" x="0px" y="0px"
	 viewBox="0 0 300 300" style="enable-background:new 0 0 300 300;" xml:space="preserve">
<style type="text/css">
	.st0{fill:#F5F4F4;}
	.st1{fill:#009F71;}
</style>
<g id="Calque_1_1_">
</g>
<g id="garanties">
	<g id="responsive">
	</g>
	<g id="référencement">
	</g>
	<g id="support_technique">
	</g>
	<g id="données_cryptées">
	</g>
	<g id="ars">
	</g>
	<g id="paiement">
	</g>
	<g id="hébergement">
		<circle class="st0" cx="150" cy="149.9" r="148.1"/>
	</g>
</g>
<g>
	<path class="st1" d="M42.9,172.7c14.7-13.8,25-23.7,25-31.9c0-5.6-3.2-8.7-8.1-8.7c-4.2,0-7.3,2.8-10.2,5.9l-7.2-7.1
		c5.7-6.1,11-9.1,19.3-9.1c11.3,0,19,7.2,19,18.3c0,9.7-9.1,20-18.4,29.8c2.9-0.4,6.9-0.7,9.6-0.7h11.6v11.2H42.9V172.7z"/>
	<path class="st1" d="M133,166.5h-6.6v13.8H114v-13.8H89.1v-9.1l21-34.6h16.3v33.6h6.6V166.5z M114,156.4v-9.3
		c0-3.7,0.4-9.2,0.5-12.8h-0.4c-1.4,3.2-3.1,6.4-4.7,9.7l-7.6,12.5H114z"/>
</g>
<g>
	<path class="st1" d="M138.6,113.1h7.8v9.1l-0.4,4.7c2-1.7,4.5-3.6,8.1-3.6c5.7,0,8.1,4,8.1,10.6v16.3h-7.8v-15.3c0-3.8-1-5-3.2-5
		c-2,0-3.2,0.9-4.9,2.5v17.7h-7.8V113.1z"/>
</g>
<g>
	<path class="st1" d="M184.7,116h8.7l-18.2,78.7h-8.7L184.7,116z"/>
	<path class="st1" d="M225.8,134H200v-11.2h40v8.1c-13.3,16.1-15.2,26.9-16.2,49.3h-13.4C211.5,161.2,214.9,149,225.8,134z"/>
</g>
<g>
	<path class="st1" d="M247.3,123.9h7.8V150c0,5.7-2.2,10.5-9.4,10.5c-2.2,0-3.5-0.3-4.6-0.7l1.4-5.7c0.7,0.2,1.3,0.4,2.1,0.4
		c2.1,0,2.7-1.3,2.7-4.2V123.9z M246.7,116c0-2.4,1.9-4,4.5-4s4.5,1.6,4.5,4s-1.9,4.1-4.5,4.1S246.7,118.3,246.7,116z"/>
</g>
</svg>
