<?xml version="1.0" encoding="utf-8"?>
<!-- Generator: Adobe Illustrator 20.0.0, SVG Export Plug-In . SVG Version: 6.00 Build 0)  -->
<svg version="1.1" xmlns="http://www.w3.org/2000/svg" xmlns:xlink="http://www.w3.org/1999/xlink" x="0px" y="0px"
	 viewBox="0 0 300 300" enable-background="new 0 0 300 300" xml:space="preserve">
<g id="Calque_1">
</g>
<g id="garanties">
	<g id="responsive">
	</g>
	<g id="référencement">
	</g>
	<g id="support_technique">
	</g>
	<g id="données_cryptées">
	</g>
	<g id="ars">
	</g>
	<g id="paiement">
	</g>
	<g id="hébergement">
		<circle fill="#FFFFFF" cx="151.75148" cy="151.85814" r="148.06613"/>
	</g>
</g>
<g id="raisons">
	<g id="cout">
	</g>
	<g id="accompagnement">
	</g>
	<g id="satisfaction">
	</g>
	<g id="fidélisation">
	</g>
	<g id="expertise">
	</g>
	<g id="proximité">
		<path fill="none" stroke="#00A071" stroke-width="5" stroke-linecap="round" stroke-linejoin="round" stroke-miterlimit="10" d="
			M89.15453,117.20148l12.96503,6.61102l14.53416-4.66682l46.79234-3.33701l7.34119,29.32419l27.43198,32.31805l2.79279,4.27138
			c0,0,3.05293,15.94121-14.95543,12.10648c-13.59972-16.39874-15.46104-18.61212-15.46104-18.61212"/>
		
			<path fill="#FFFFFF" stroke="#00A071" stroke-width="5" stroke-linecap="round" stroke-linejoin="round" stroke-miterlimit="10" d="
			M199.18668,177.46417l32.9178-14.97835l-20.15048-44.09834l-15.3343,6.30269l-16.48442-11.78371l-34.8587,3.85785
			l-23.23545,16.17548c0,0,15.3276,9.30737,30.63552,0.47919l16.90862,3.06136l2.16943,8.66577L199.18668,177.46417z"/>
		<path fill="none" stroke="#00A071" stroke-width="5" stroke-linecap="round" stroke-linejoin="round" stroke-miterlimit="10" d="
			M157.14291,183.36212l14.75818,18.23148c0,0,11.31793,5.00623,14.15549-7.76483"/>
		<path fill="none" stroke="#00A071" stroke-width="5" stroke-linecap="round" stroke-linejoin="round" stroke-miterlimit="10" d="
			M68.30791,158.02339l51.34786,24.8253l26.22807,8.28511l9.41989,11.93962c0,0,7.15858,11.2066,16.59735-1.47983"/>
		
			<rect x="220.36757" y="99.31133" transform="matrix(0.90954 -0.41561 0.41561 0.90954 -33.74933 110.9042)" fill="none" stroke="#00A071" stroke-width="5" stroke-linecap="round" stroke-linejoin="round" stroke-miterlimit="10" width="35.07061" height="67.34458"/>
		
			<rect x="44.70323" y="96.9054" transform="matrix(-0.89782 -0.44036 0.44036 -0.89782 60.61575 275.22049)" fill="none" stroke="#00A071" stroke-width="5" stroke-linecap="round" stroke-linejoin="round" stroke-miterlimit="10" width="35.07061" height="67.34458"/>
		<g>
			<path fill="#FFFFFF" d="M107.09885,194.66856c-2.50195,0-4.84668-1.09961-6.43164-3.01758
				c-2.92773-3.54199-2.42773-8.80566,1.11426-11.7334l16.63086-13.74707c1.48535-1.22754,3.36816-1.90332,5.30176-1.90332
				c2.50293,0,4.84668,1.09961,6.43164,3.01758c2.92773,3.54102,2.42773,8.80469-1.11328,11.7334l-16.63184,13.74707
				C110.91525,193.99278,109.03244,194.66856,107.09885,194.66856z"/>
			<g>
				<path fill="#00A071" d="M123.71408,166.76677c1.68359-0.00012,3.35498,0.71954,4.50488,2.11041
					c2.04443,2.47321,1.69336,6.16943-0.77979,8.21375l-16.63135,13.74738c-1.08252,0.89465-2.39941,1.33069-3.70898,1.33069
					c-1.68311,0-3.35498-0.71954-4.50439-2.11041v-0.00006c-2.04443-2.47321-1.69385-6.16937,0.77979-8.21375l16.63086-13.74731
					C121.08762,167.2028,122.40451,166.76683,123.71408,166.76677 M123.71457,161.76677c0,0,0,0-0.00049,0
					c-2.51416,0.00018-4.9624,0.87982-6.89453,2.47693l-16.63086,13.74725c-2.22559,1.83936-3.60254,4.44177-3.87646,7.32745
					c-0.27344,2.88544,0.58887,5.7002,2.42822,7.92578c2.06152,2.49402,5.10791,3.9248,8.3584,3.9248
					c2.51367,0,4.9624-0.87964,6.89453-2.47687l16.63135-13.74731c2.22559-1.83966,3.60205-4.44183,3.87598-7.32727
					c0.27393-2.88562-0.58838-5.70044-2.42773-7.92603C130.01096,163.19725,126.96457,161.76677,123.71457,161.76677
					L123.71457,161.76677z"/>
			</g>
		</g>
		<g>
			<path fill="#FFFFFF" d="M121.96603,204.02794c-2.50195,0-4.8457-1.09863-6.43164-3.0166
				c-2.92773-3.54297-2.42773-8.80664,1.11426-11.7334l16.63086-13.74805c1.48535-1.22754,3.36816-1.90332,5.30176-1.90332
				c2.50293,0,4.84668,1.09961,6.43164,3.01758c2.92773,3.54102,2.42773,8.80469-1.11328,11.7334l-16.63184,13.74707
				C125.78244,203.35216,123.89963,204.02794,121.96603,204.02794z"/>
			<g>
				<path fill="#00A071" d="M138.58127,176.12639c1.68359-0.00012,3.35498,0.71954,4.50488,2.11041
					c2.04443,2.47321,1.69336,6.16943-0.77979,8.21375l-16.63135,13.74731c-1.08252,0.89465-2.39893,1.33069-3.70898,1.33069
					c-1.68311,0-3.35449-0.71954-4.50439-2.11041c-2.04443-2.47321-1.69385-6.16937,0.77979-8.21375l16.63086-13.74731
					C135.9548,176.56242,137.2717,176.12645,138.58127,176.12639 M138.58176,171.12639c0,0,0,0-0.00049,0
					c-2.51416,0.00018-4.9624,0.87982-6.89453,2.47693l-16.63086,13.74725c-2.22559,1.83936-3.60254,4.44177-3.87646,7.32745
					c-0.27344,2.88544,0.58887,5.7002,2.42822,7.92578c2.06201,2.4942,5.1084,3.92474,8.3584,3.92474
					c2.51367,0,4.9624-0.87964,6.89453-2.47693l16.63135-13.74719c2.22559-1.83966,3.60205-4.44183,3.87598-7.32727
					c0.27393-2.88562-0.58838-5.70044-2.42773-7.92603C144.87814,172.55687,141.83176,171.12639,138.58176,171.12639
					L138.58176,171.12639z"/>
			</g>
		</g>
		<g>
			<path fill="#FFFFFF" d="M141.79807,208.56212c-2.50195,0-4.84668-1.09961-6.43164-3.01758
				c-2.92773-3.54199-2.42773-8.80566,1.11426-11.7334l6.97852-5.76855c1.48535-1.22754,3.36816-1.90332,5.30176-1.90332
				c2.50195,0,4.84668,1.09961,6.43164,3.01758c1.41406,1.71094,2.07715,3.87598,1.86621,6.09668s-1.26953,4.22266-2.98047,5.63574
				l-6.97852,5.76953C145.61447,207.88634,143.73166,208.56212,141.79807,208.56212z"/>
			<g>
				<path fill="#00A071" d="M148.76096,188.63872c1.68359-0.00012,3.35498,0.71954,4.50488,2.11041
					c2.04443,2.47321,1.69336,6.16943-0.77979,8.21375l-6.979,5.7688c-1.08252,0.89465-2.39941,1.33069-3.70898,1.33069
					c-1.68359,0-3.35498-0.71954-4.50488-2.11041c-2.04443-2.47321-1.69336-6.16937,0.77979-8.21375l6.979-5.7688
					C146.13449,189.07475,147.45139,188.63878,148.76096,188.63872 M148.76144,183.63872c0,0,0,0-0.00049,0
					c-2.51416,0.00018-4.9624,0.87982-6.89453,2.47693l-6.979,5.76874c-2.22559,1.83966-3.60205,4.44183-3.87598,7.32727
					c-0.27393,2.88556,0.58838,5.70038,2.42773,7.92596c2.06201,2.4942,5.1084,3.92474,8.35889,3.92474
					c2.51367,0,4.9624-0.87964,6.89453-2.47693l6.979-5.76874c2.22559-1.8396,3.60205-4.44177,3.87598-7.32721
					c0.27393-2.88562-0.58838-5.70044-2.42773-7.92603C155.05783,185.06926,152.01144,183.63872,148.76144,183.63872
					L148.76144,183.63872z"/>
			</g>
		</g>
		<g>
			<path fill="#FFFFFF" d="M95.12424,181.64317c-2.50293,0-4.84668-1.09961-6.43164-3.01758
				c-1.41406-1.71094-2.07715-3.87598-1.86621-6.09668s1.26855-4.22266,2.97949-5.63672l6.97949-5.76855
				c1.48438-1.22754,3.36719-1.9043,5.30176-1.9043c2.50195,0,4.8457,1.09961,6.43164,3.01758
				c1.41406,1.71094,2.07715,3.87695,1.86621,6.09668c-0.21094,2.22168-1.26953,4.22363-2.98047,5.63672l-6.97852,5.76855
				C98.94064,180.96642,97.05783,181.64317,95.12424,181.64317z"/>
			<g>
				<path fill="#00A071" d="M102.08664,161.71947c1.68359-0.00012,3.35498,0.71954,4.50488,2.11041v0.00006
					c2.04443,2.47321,1.69336,6.16937-0.77979,8.21375l-6.979,5.7688c-1.08252,0.89465-2.39941,1.33069-3.70898,1.33069
					c-1.68311,0-3.35498-0.71954-4.50439-2.11041v-0.00006c-2.04443-2.47321-1.69385-6.16937,0.7793-8.21375l6.979-5.7688
					C99.46017,162.1555,100.77707,161.71959,102.08664,161.71947 M102.08713,156.71947c0,0,0,0-0.00049,0
					c-2.51367,0.00018-4.9624,0.87982-6.89453,2.47687l-6.979,5.7688c-2.22559,1.83972-3.60205,4.44208-3.87598,7.32764
					c-0.27344,2.88544,0.58887,5.70007,2.42822,7.9256c2.06152,2.49402,5.10791,3.9248,8.3584,3.9248
					c2.51367,0,4.9624-0.87964,6.89453-2.47687l6.979-5.7688c4.60449-3.80627,5.25439-10.6488,1.44824-15.25323
					C108.38351,158.15007,105.33713,156.71947,102.08713,156.71947L102.08713,156.71947z"/>
			</g>
		</g>
	</g>
</g>
<g id="objectifs">
	<g id="augmenter">
	</g>
	<g id="gagner">
	</g>
	<g id="simplifier">
	</g>
	<g id="aider">
	</g>
	<g id="innover">
	</g>
	<g id="connecter">
	</g>
</g>
</svg>
