<svg xmlns="http://www.w3.org/2000/svg" xmlns:xlink="http://www.w3.org/1999/xlink" id="Calque_1" x="0" y="0" version="1.1" viewBox="0 0 300 300" xml:space="preserve" style="enable-background:new 0 0 300 300"><style type="text/css">.st0{fill:#f5f4f4}.st1,.st2,.st3{fill:none;stroke:#00a071;stroke-linecap:round;stroke-linejoin:round}.st1{stroke-width:5;stroke-miterlimit:10}.st2,.st3{stroke-width:4}.st3{stroke-dasharray:23.5324,23.5324}</style><g id="garanties"><g id="hébergement"><circle cx="150" cy="149.9" r="148.1" class="st0"/></g></g><g id="raisons"><g id="fidélisation"><g><g><path d="M147.8,79.8c-6.6,0-12-5.4-12-12s5.4-12,12-12s12,4.7,12,12C159.8,74.4,154.4,79.8,147.8,79.8z" class="st1"/></g><g><path d="M120.6,112.1H175c-0.3-17.4-12.4-26.9-27.2-26.9C133,85.2,120.9,94.8,120.6,112.1z" class="st1"/></g></g><g><g><path d="M148.4,184.3c-6.6,0-12-5.4-12-12c0-6.6,5.4-12,12-12c6.6,0,12,4.7,12,12C160.4,179,155,184.3,148.4,184.3z" class="st1"/></g><g><path d="M121.3,217.7h54.4c-0.3-17.4-12.4-27.9-27.2-27.9C133.6,189.8,121.5,200.4,121.3,217.7z" class="st1"/></g></g><g><g><path d="M231.6,184.3c-6.6,0-12-5.4-12-12c0-6.6,5.4-12,12-12c6.6,0,12,4.7,12,12 C243.5,179,238.2,184.3,231.6,184.3z" class="st1"/></g><g><path d="M204.4,217.7h54.4c-0.3-17.4-12.4-27.9-27.2-27.9C216.7,189.8,204.6,200.4,204.4,217.7z" class="st1"/></g></g><g><g><path d="M64.9,184.3c-6.6,0-12-5.4-12-12c0-6.6,5.4-12,12-12s12,4.7,12,12C76.9,179,71.5,184.3,64.9,184.3z" class="st1"/></g><g><path d="M37.7,217.7h54.4c-0.3-17.4-12.4-27.9-27.2-27.9S38,200.4,37.7,217.7z" class="st1"/></g></g><g><g><path d="M148.4,131.1c-3.4,0-6.5-0.4-9.4-1" class="st2"/><path d="M117.1,123.6c-6.5,1.3-19.8,4.5-33,12" class="st3"/><path d="M74.1,142c-2.5,1.9-4.9,3.9-7.2,6.2" class="st2"/></g></g><g><g><path d="M230,148.1c-2.3-2.2-4.7-4.3-7.2-6.2" class="st2"/><path d="M202.3,130.4c-14.5-6.1-26.7-7.5-26.7-7.5s-2.4,1.7-6.6,3.6" class="st3"/><path d="M157.9,130.1c-2.9,0.6-6.1,1-9.4,1v9.5" class="st2"/><line x1="148.4" x2="148.4" y1="140.8" y2="150.3" class="st2"/></g></g></g></g></svg>