<?xml version="1.0" encoding="utf-8"?>
<!-- Generator: Adobe Illustrator 20.0.0, SVG Export Plug-In . SVG Version: 6.00 Build 0)  -->
<svg version="1.1" xmlns="http://www.w3.org/2000/svg" xmlns:xlink="http://www.w3.org/1999/xlink" x="0px" y="0px"
	 viewBox="0 0 300 300" enable-background="new 0 0 300 300" xml:space="preserve">
<g id="Calque_1">
</g>
<g id="garanties">
	<g id="responsive">
	</g>
	<g id="référencement">
	</g>
	<g id="support_technique">
	</g>
	<g id="données_cryptées">
	</g>
	<g id="ars">
	</g>
	<g id="paiement">
	</g>
	<g id="hébergement">
		<circle fill="#FFFFFF" cx="148.59157" cy="150.19177" r="148.06613"/>
	</g>
</g>
<g id="raisons">
	<g id="cout">
	</g>
	<g id="accompagnement">
		<g>
			<g>
				
					<path fill="none" stroke="#00A071" stroke-width="5" stroke-linecap="round" stroke-linejoin="round" stroke-miterlimit="10" d="
					M148.28065,101.4306c-11.49619,0-20.84992-9.35374-20.84992-20.84993s9.35374-20.84612,20.84992-20.84612
					s20.84993,8.20351,20.84993,20.84612C169.13058,92.07687,159.77684,101.4306,148.28065,101.4306z"/>
			</g>
			<g>
				
					<path fill="none" stroke="#00A071" stroke-width="5" stroke-linecap="round" stroke-linejoin="round" stroke-miterlimit="10" d="
					M100.90691,157.84358h94.74368c-0.43762-30.2341-21.51968-46.90472-47.36993-46.90472S101.34454,127.60948,100.90691,157.84358z
					"/>
			</g>
		</g>
		<path fill="none" stroke="#00A071" stroke-width="5" stroke-linecap="round" stroke-linejoin="round" stroke-miterlimit="10" d="
			M239.33008,171.78595c-6.85921-8.14528-22.7211-0.42871-22.7211-0.42871s-36.65379,11.36055-48.07762,14.79015
			c-11.42383,3.42958-25.44437,3.07874-25.44437,3.07874s-20.51175-0.05708-23.88998,0c-2.27277-1.70334,0-3.32109,0-3.32109
			h23.88998c0,0,19.2915,1.3141,20.60555-9.18904c1.31406-10.50313-5.9994-10.64822-5.9994-10.64822l-23.43231-0.29852
			c0,0-2.78374-0.06874-16.02314,0c-30.89204-0.94423-50.78665,8.36777-50.78665,8.36777l-16.04092,6.00815v47.20212h16.04092
			c0,0,0.80158,0,2.24205,0c12.21241,0,70.52959,0,78.95632,0c9.42075,0,10.84712-1.6489,10.84712-1.6489l78.51445-39.40572
			C238.01097,186.29266,246.18929,179.93124,239.33008,171.78595z"/>
	</g>
	<g id="satisfaction">
	</g>
	<g id="fidélisation">
	</g>
	<g id="expertise">
	</g>
	<g id="proximité">
	</g>
</g>
<g id="objectifs">
	<g id="augmenter">
	</g>
	<g id="gagner">
	</g>
	<g id="simplifier">
	</g>
	<g id="aider">
	</g>
	<g id="innover">
	</g>
	<g id="connecter">
	</g>
</g>
</svg>
