<?xml version="1.0" encoding="utf-8"?>
<!-- Generator: Adobe Illustrator 22.1.0, SVG Export Plug-In . SVG Version: 6.00 Build 0)  -->
<svg version="1.1" id="Calque_1" xmlns="http://www.w3.org/2000/svg" xmlns:xlink="http://www.w3.org/1999/xlink" x="0px" y="0px"
	 viewBox="0 0 300 300" style="enable-background:new 0 0 300 300;" xml:space="preserve">
<style type="text/css">
	.st0{fill:#F5F4F4;}
	.st1{clip-path:url(#SVGID_2_);fill:#00A070;}
</style>
<g id="Calque_1_1_">
</g>
<g id="garanties">
	<g id="responsive">
	</g>
	<g id="référencement">
	</g>
	<g id="support_technique">
	</g>
	<g id="données_cryptées">
	</g>
	<g id="ars">
	</g>
	<g id="paiement">
	</g>
	<g id="hébergement">
		<circle class="st0" cx="149" cy="148.9" r="148.1"/>
	</g>
</g>
<g>
	<defs>
		<rect id="SVGID_1_" x="89.2" y="59.4" width="117.1" height="185.5"/>
	</defs>
	<clipPath id="SVGID_2_">
		<use xlink:href="#SVGID_1_"  style="overflow:visible;"/>
	</clipPath>
	<path class="st1" d="M98.7,235.4h98.2V68.9H98.7V235.4z M198.3,244.9H97.4c-4.5,0-8.1-3.6-8.1-8.1V67.5c0-4.5,3.6-8.1,8.1-8.1
		h100.9c4.5,0,8.1,3.6,8.1,8.1v169.3C206.4,241.2,202.7,244.9,198.3,244.9"/>
	<path class="st1" d="M142.8,87.4h-30.3c-2.6,0-4.7-2.1-4.7-4.7c0-2.6,2.1-4.7,4.7-4.7h30.3c2.6,0,4.7,2.1,4.7,4.7
		C147.5,85.2,145.4,87.4,142.8,87.4"/>
	<path class="st1" d="M165.1,82.1c-0.3,0-0.5,0.2-0.5,0.5c0,0.3,0.2,0.5,0.5,0.5c0.3,0,0.5-0.2,0.5-0.5
		C165.6,82.3,165.4,82.1,165.1,82.1 M165.1,91.6c-4.9,0-8.9-4-8.9-8.9c0-4.9,4-8.9,8.9-8.9s8.9,4,8.9,8.9
		C174,87.6,170,91.6,165.1,91.6"/>
	<path class="st1" d="M149.1,221.5c-0.9,0-1.6,0.7-1.6,1.6c0,0.9,0.7,1.6,1.6,1.6c0.9,0,1.6-0.7,1.6-1.6
		C150.8,222.2,150.1,221.5,149.1,221.5 M149.1,234.2c-6.1,0-11.1-5-11.1-11.1c0-6.1,5-11.1,11.1-11.1c6.1,0,11.1,5,11.1,11.1
		C160.3,229.2,155.3,234.2,149.1,234.2"/>
</g>
</svg>
