<?xml version="1.0" encoding="utf-8"?>
<!-- Generator: Adobe Illustrator 20.0.0, SVG Export Plug-In . SVG Version: 6.00 Build 0)  -->
<svg version="1.1" xmlns="http://www.w3.org/2000/svg" xmlns:xlink="http://www.w3.org/1999/xlink" x="0px" y="0px"
	 viewBox="0 0 300 300" enable-background="new 0 0 300 300" xml:space="preserve">
<g id="Calque_1">
</g>
<g id="garanties">
	<g id="responsive">
	</g>
	<g id="référencement">
	</g>
	<g id="support_technique">
	</g>
	<g id="données_cryptées">
	</g>
	<g id="ars">
	</g>
	<g id="paiement">
	</g>
	<g id="hébergement">
		<circle fill="#FFFFFF" cx="150.04491" cy="151.85814" r="148.06613"/>
	</g>
</g>
<g id="raisons">
	<g id="cout">
	</g>
	<g id="accompagnement">
	</g>
	<g id="satisfaction">
	</g>
	<g id="fidélisation">
	</g>
	<g id="expertise">
		
			<ellipse transform="matrix(1 -0.00146 0.00146 1 -0.17305 0.2186)" fill="none" stroke="#00A071" stroke-width="4" stroke-miterlimit="10" cx="149.69116" cy="118.67371" rx="52.69944" ry="52.69944"/>
		<path fill="none" stroke="#00A071" stroke-width="4" stroke-miterlimit="10" d="M219.07698,127.70554
			c4.22507-0.89857,7.39279-4.65185,7.38623-9.14388c-0.00655-4.49203-3.18521-8.23605-7.41289-9.12228
			c3.8486-1.9615,5.93669-6.40668,4.76784-10.74397s-5.20818-7.13104-9.52126-6.89288
			c3.20961-2.89072,4.07642-7.72494,1.82462-11.61189c-2.25179-3.88695-6.87648-5.54005-10.98082-4.19371
			c2.35225-3.62299,1.9382-8.51678-1.24277-11.68852c-3.18097-3.1717-8.07599-3.5715-11.69223-1.20874
			c1.33453-4.10832-0.33208-8.7282-4.22562-10.96854c-3.89354-2.24037-8.72533-1.3596-11.60648,1.85854
			c0.22546-4.31369-2.58-8.34482-6.92082-9.5011c-4.34055-1.15628-8.77963,0.94501-10.72989,4.79925
			c-0.89865-4.22507-4.65196-7.39273-9.14392-7.38617c-4.49197,0.00656-8.23602,3.18515-9.12231,7.41283
			c-1.9615-3.84854-6.40672-5.93686-10.74387-4.76791c-4.33743,1.16895-7.13112,5.20825-6.89279,9.52126
			c-2.89079-3.20971-7.72514-4.07638-11.61211-1.82466c-3.88698,2.2517-5.53985,6.87642-4.19358,10.98083
			c-3.62313-2.3522-8.51695-1.93811-11.68865,1.24286c-3.1717,3.18101-3.57146,8.07599-1.20864,11.6921
			c-4.10825-1.33434-8.7281,0.33224-10.96854,4.22575c-2.24044,3.89351-1.35954,8.72517,1.85851,11.60651
			c-4.31376-0.22557-8.34492,2.57996-9.5011,6.92065c-1.15618,4.34068,0.94514,8.77978,4.79919,10.73003
			c-4.22507,0.89861-7.39253,4.65182-7.38598,9.14385c0.00655,4.49203,3.18496,8.23598,7.41264,9.12225
			c-3.84834,1.9615-5.93669,6.40671-4.76785,10.744c1.16885,4.33728,5.20818,7.13101,9.52126,6.89285
			c-3.20962,2.89075-4.07642,7.72496-1.82462,11.61191s6.87649,5.54008,10.98083,4.19371
			c-2.35226,3.623-1.9382,8.5168,1.24277,11.68849c3.18098,3.17171,8.07598,3.5715,11.69223,1.20874
			c-1.33428,4.10835,0.33208,8.72824,4.22562,10.96857c3.89354,2.24034,8.72533,1.35957,11.60674-1.85857
			c-0.22574,4.31366,2.57973,8.34482,6.92055,9.5011c4.34055,1.15628,8.77965-0.94498,10.7299-4.79921
			c0.89864,4.22507,4.65195,7.39272,9.14391,7.38617c4.49197-0.00656,8.23602-3.18515,9.12233-7.41284
			c1.9615,3.84854,6.40671,5.93683,10.74387,4.76788c4.33742-1.16895,7.1311-5.20828,6.89304-9.52127
			c2.89053,3.20972,7.72488,4.07639,11.61186,1.82469s5.54012-6.87642,4.19357-10.98087
			c3.62314,2.3522,8.51695,1.93811,11.68866-1.24286c3.17169-3.18097,3.57146-8.07594,1.20863-11.69206
			c4.10826,1.33438,8.7281-0.33224,10.96854-4.22575c2.24045-3.89349,1.35954-8.72516-1.85851-11.60654
			c4.31377,0.22557,8.34492-2.57993,9.5011-6.92061C225.03235,134.09486,222.93129,129.65579,219.07698,127.70554z
			 M149.78642,184.03841c-36.19835,0.05283-65.58567-29.2489-65.6385-65.44722s29.24883-65.58568,65.44719-65.63851
			s65.58568,29.24886,65.6385,65.44719C215.28645,154.59819,185.98479,183.98557,149.78642,184.03841z"/>
		<g>
			<path stroke="#00A071" stroke-width="4" stroke-miterlimit="10" d="M143.14198,140.40242
				c-0.36633,0.00053-0.73431-0.13412-1.02109-0.40265l-27.21568-25.54976c-0.59975-0.56316-0.62874-1.50512-0.06703-2.10486
				c0.56606-0.59975,1.50511-0.62875,2.10486-0.06704l26.18504,24.58311l41.53069-39.89491
				c0.59082-0.57071,1.5314-0.55173,2.10503,0.04199c0.56926,0.59228,0.55028,1.53431-0.04346,2.10357l-42.54974,40.8762
				C143.88316,140.26323,143.51266,140.40187,143.14198,140.40242z"/>
		</g>
		<g>
			<path fill="none" stroke="#00A071" stroke-width="4" stroke-miterlimit="10" d="M208.85788,231.37773l-16.64932-57.77415
				c-0.12521-0.07309-0.25264-0.14149-0.37517-0.22101c1.32909,4.05078-0.30243,8.61508-4.13869,10.8374
				c-3.83627,2.22217-8.60741,1.36687-11.46019-1.80086c0.235,4.25656-2.52223,8.24315-6.80286,9.39682
				c-2.03874,0.54945-4.0984,0.36273-5.90915-0.38655l14.1058,48.94801l0.49518,1.71858l3.13138,10.86586l12.28783-16.04439
				l18.94173,7.04472l-3.13138-10.86586L208.85788,231.37773z"/>
		</g>
		<g>
			<path fill="none" stroke="#00A071" stroke-width="4" stroke-miterlimit="10" d="M130.29164,192.52338
				c-4.28413-1.14117-7.05299-5.11969-6.8301-9.37692c-2.84383,3.17604-7.61246,4.04527-11.45504,1.8343
				c-3.84273-2.21112-5.48724-6.77063-4.17046-10.82529c-1.69071,1.10472-3.66445,1.58971-5.60764,1.46965l-16.12708,56.58209
				l-0.49015,1.72002l-3.09965,10.87495l18.92107-7.09998l12.33478,16.00844l3.09949-10.87495l0.49031-1.72002l13.79716-48.40811
				C130.86691,192.65956,130.57913,192.59996,130.29164,192.52338z"/>
		</g>
	</g>
	<g id="proximité">
	</g>
</g>
<g id="objectifs">
	<g id="augmenter">
	</g>
	<g id="gagner">
	</g>
	<g id="simplifier">
	</g>
	<g id="aider">
	</g>
	<g id="innover">
	</g>
	<g id="connecter">
	</g>
</g>
</svg>
