<?xml version="1.0" encoding="utf-8"?>
<!-- Generator: Adobe Illustrator 20.0.0, SVG Export Plug-In . SVG Version: 6.00 Build 0)  -->
<svg version="1.1" xmlns="http://www.w3.org/2000/svg" xmlns:xlink="http://www.w3.org/1999/xlink" x="0px" y="0px"
	 viewBox="0 0 300 300" enable-background="new 0 0 300 300" xml:space="preserve">
<g id="Calque_1">
</g>
<g id="garanties">
	<g id="responsive">
	</g>
	<g id="référencement">
	</g>
	<g id="support_technique">
	</g>
	<g id="données_cryptées">
	</g>
	<g id="ars">
	</g>
	<g id="paiement">
	</g>
	<g id="hébergement">
		<circle fill="#FFFFFF" cx="151.21744" cy="150.19177" r="148.06613"/>
	</g>
</g>
<g id="raisons">
	<g id="cout">
		<g>
			<path fill="#00A071" d="M166.5233,93.71812H76.55735c-2.54275,0-4.61117-2.06843-4.61117-4.61118V67.92436
				c0-2.54276,2.06842-4.61118,4.61117-4.61118h89.96595c2.54276,0,4.61118,2.06842,4.61118,4.61118v21.18259
				C171.13448,91.6497,169.06606,93.71812,166.5233,93.71812z M166.5233,89.10695v2.30559l0.00075-2.30559H166.5233
				L166.5233,89.10695z M76.55735,67.92436v21.18259h89.95919l0.00676-21.18259H76.55735z"/>
		</g>
		<g>
			<path fill="#00A071" d="M145.0285,119.51189H55.06255c-2.54275,0-4.61118-2.06843-4.61118-4.61118V93.71812
				c0-2.54276,2.06842-4.61118,4.61118-4.61118h89.96595c2.54276,0,4.61118,2.06842,4.61118,4.61118v21.18259
				C149.63968,117.44346,147.57126,119.51189,145.0285,119.51189z M145.0285,114.90071v2.30559l0.00075-2.30559H145.0285
				L145.0285,114.90071z M55.06255,93.71812v21.18259h89.95919l0.00676-21.18259H55.06255z"/>
		</g>
		<g>
			<path fill="#00A071" d="M157.92538,145.30565H67.95943c-2.54276,0-4.61118-2.06844-4.61118-4.61118v-21.18259
				c0-2.54276,2.06842-4.61118,4.61118-4.61118h89.96595c2.54276,0,4.61118,2.06842,4.61118,4.61118v21.18259
				C162.53656,143.23721,160.46814,145.30565,157.92538,145.30565z M157.92538,140.69447v2.30559l0.00075-2.30559H157.92538
				L157.92538,140.69447z M67.95943,119.51189v21.18259h89.95919l0.00676-21.18259H67.95943z"/>
		</g>
		<g>
			<path fill="#00A071" d="M158.69391,171.09941H68.72797c-2.54276,0-4.61118-2.06844-4.61118-4.61118v-21.18259
				c0-2.54276,2.06842-4.61118,4.61118-4.61118h89.96594c2.54276,0,4.61118,2.06842,4.61118,4.61118v21.18259
				C163.30508,169.03098,161.23666,171.09941,158.69391,171.09941z M158.69391,166.48824v2.30559l0.00075-2.30559H158.69391
				L158.69391,166.48824z M68.72797,145.30565v21.18259h89.9592l0.00674-21.18259H68.72797z"/>
		</g>
		<g>
			<path fill="#00A071" d="M162.99287,196.89317H73.02692c-2.54276,0-4.61118-2.06844-4.61118-4.61118v-21.18259
				c0-2.54276,2.06842-4.61118,4.61118-4.61118h89.96595c2.54276,0,4.61118,2.06842,4.61118,4.61118V192.282
				C167.60405,194.82474,165.53563,196.89317,162.99287,196.89317z M162.99287,192.282v2.30559l0.00075-2.30559H162.99287
				L162.99287,192.282z M73.02692,171.09941V192.282h89.95919l0.00676-21.18259H73.02692z"/>
		</g>
		<g>
			<path fill="#00A071" d="M155.03021,222.99345H65.06426c-2.54276,0-4.61118-2.06842-4.61118-4.61118v-21.18259
				c0-2.54274,2.06842-4.61118,4.61118-4.61118h89.96595c2.54274,0,4.61118,2.06844,4.61118,4.61118v21.18259
				C159.64139,220.92503,157.57295,222.99345,155.03021,222.99345z M155.03021,218.38228v2.30559l0.00075-2.30559
				C155.03021,218.38228,155.03021,218.38228,155.03021,218.38228L155.03021,218.38228z M65.06426,197.19969v21.18259h89.95919
				l0.00676-21.18259H65.06426z"/>
		</g>
		<g>
			<path fill="#00A071" d="M224.83321,231.14075c-27.34659,0-49.59415-22.24757-49.59415-49.59415
				s22.24756-49.59415,49.59415-49.59415s49.59416,22.24756,49.59416,49.59415S252.17978,231.14075,224.83321,231.14075z
				 M224.83321,136.56363c-24.80383,0-44.98297,20.17914-44.98297,44.98297s20.17914,44.98297,44.98297,44.98297
				s44.98299-20.17914,44.98299-44.98297S249.63704,136.56363,224.83321,136.56363z"/>
		</g>
		<g>
			<circle fill="none" cx="224.83298" cy="181.54639" r="34.32764"/>
			<path fill="#00A071" d="M224.83321,218.17932c-20.19942,0-36.63348-16.43332-36.63348-36.63272
				s16.43407-36.63347,36.63348-36.63347s36.63274,16.43405,36.63274,36.63347S245.03261,218.17932,224.83321,218.17932z
				 M224.83321,149.52431c-17.65741,0-32.02231,14.36488-32.02231,32.02229c0,17.65666,14.3649,32.02155,32.02231,32.02155
				c17.65666,0,32.02156-14.36488,32.02156-32.02155C256.85477,163.88919,242.48987,149.52431,224.83321,149.52431z"/>
		</g>
		<g>
			<path fill="#00A071" d="M69.54453,119.51189c-1.27363,0-2.30559-1.03196-2.30559-2.30559V91.41254
				c0-1.27363,1.03196-2.30559,2.30559-2.30559s2.30559,1.03196,2.30559,2.30559v25.79376
				C71.85011,118.47993,70.81815,119.51189,69.54453,119.51189z"/>
		</g>
		<g>
			<path fill="#00A071" d="M89.52628,119.51189c-1.27363,0-2.30559-1.03196-2.30559-2.30559V91.41254
				c0-1.27363,1.03196-2.30559,2.30559-2.30559s2.30559,1.03196,2.30559,2.30559v25.79376
				C91.83187,118.47993,90.79991,119.51189,89.52628,119.51189z"/>
		</g>
		<g>
			<path fill="#00A071" d="M109.50804,119.51189c-1.27363,0-2.30559-1.03196-2.30559-2.30559V91.41254
				c0-1.27363,1.03196-2.30559,2.30559-2.30559s2.30559,1.03196,2.30559,2.30559v25.79376
				C111.81363,118.47993,110.78167,119.51189,109.50804,119.51189z"/>
		</g>
		<g>
			<path fill="#00A071" d="M129.48981,119.51189c-1.27364,0-2.3056-1.03196-2.3056-2.30559V91.41254
				c0-1.27363,1.03196-2.30559,2.3056-2.30559c1.27362,0,2.30559,1.03196,2.30559,2.30559v25.79376
				C131.79539,118.47993,130.76343,119.51189,129.48981,119.51189z"/>
		</g>
		<g>
			<path fill="#00A071" d="M91.83187,93.71812c-1.27363,0-2.30559-1.03196-2.30559-2.30559V65.61877
				c0-1.27363,1.03196-2.30559,2.30559-2.30559s2.30559,1.03196,2.30559,2.30559v25.79376
				C94.13746,92.68616,93.1055,93.71812,91.83187,93.71812z"/>
		</g>
		<g>
			<path fill="#00A071" d="M111.81363,93.71812c-1.27363,0-2.30559-1.03196-2.30559-2.30559V65.61877
				c0-1.27363,1.03196-2.30559,2.30559-2.30559s2.30559,1.03196,2.30559,2.30559v25.79376
				C114.11922,92.68616,113.08726,93.71812,111.81363,93.71812z"/>
		</g>
		<g>
			<path fill="#00A071" d="M131.79539,93.71812c-1.27364,0-2.30559-1.03196-2.30559-2.30559V65.61877
				c0-1.27363,1.03195-2.30559,2.30559-2.30559c1.27362,0,2.30559,1.03196,2.30559,2.30559v25.79376
				C134.10098,92.68616,133.06902,93.71812,131.79539,93.71812z"/>
		</g>
		<g>
			<path fill="#00A071" d="M151.77715,93.71812c-1.27362,0-2.30559-1.03196-2.30559-2.30559V65.61877
				c0-1.27363,1.03197-2.30559,2.30559-2.30559c1.27364,0,2.30559,1.03196,2.30559,2.30559v25.79376
				C154.08273,92.68616,153.05078,93.71812,151.77715,93.71812z"/>
		</g>
		<g>
			<path fill="#00A071" d="M83.37805,145.30565c-1.27363,0-2.30559-1.03197-2.30559-2.30559V117.2063
				c0-1.27363,1.03196-2.30559,2.30559-2.30559s2.30559,1.03196,2.30559,2.30559v25.79376
				C85.68364,144.27368,84.65168,145.30565,83.37805,145.30565z"/>
		</g>
		<g>
			<path fill="#00A071" d="M103.35981,145.30565c-1.27363,0-2.30559-1.03197-2.30559-2.30559V117.2063
				c0-1.27363,1.03196-2.30559,2.30559-2.30559s2.30559,1.03196,2.30559,2.30559v25.79376
				C105.6654,144.27368,104.63344,145.30565,103.35981,145.30565z"/>
		</g>
		<g>
			<path fill="#00A071" d="M123.34157,145.30565c-1.27363,0-2.30559-1.03197-2.30559-2.30559V117.2063
				c0-1.27363,1.03196-2.30559,2.30559-2.30559s2.30559,1.03196,2.30559,2.30559v25.79376
				C125.64716,144.27368,124.6152,145.30565,123.34157,145.30565z"/>
		</g>
		<g>
			<path fill="#00A071" d="M143.32333,145.30565c-1.27364,0-2.30559-1.03197-2.30559-2.30559V117.2063
				c0-1.27363,1.03195-2.30559,2.30559-2.30559c1.27362,0,2.30559,1.03196,2.30559,2.30559v25.79376
				C145.62892,144.27368,144.59695,145.30565,143.32333,145.30565z"/>
		</g>
		<g>
			<path fill="#00A071" d="M84.14658,171.09941c-1.27362,0-2.30559-1.03197-2.30559-2.30559v-25.79376
				c0-1.27364,1.03197-2.30559,2.30559-2.30559c1.27363,0,2.30559,1.03195,2.30559,2.30559v25.79376
				C86.45216,170.06744,85.4202,171.09941,84.14658,171.09941z"/>
		</g>
		<g>
			<path fill="#00A071" d="M104.12834,171.09941c-1.27363,0-2.30559-1.03197-2.30559-2.30559v-25.79376
				c0-1.27364,1.03196-2.30559,2.30559-2.30559c1.27362,0,2.30559,1.03195,2.30559,2.30559v25.79376
				C106.43393,170.06744,105.40196,171.09941,104.12834,171.09941z"/>
		</g>
		<g>
			<path fill="#00A071" d="M124.1101,171.09941c-1.27363,0-2.30559-1.03197-2.30559-2.30559v-25.79376
				c0-1.27364,1.03196-2.30559,2.30559-2.30559s2.30559,1.03195,2.30559,2.30559v25.79376
				C126.41569,170.06744,125.38373,171.09941,124.1101,171.09941z"/>
		</g>
		<g>
			<path fill="#00A071" d="M144.09186,171.09941c-1.27364,0-2.30559-1.03197-2.30559-2.30559v-25.79376
				c0-1.27364,1.03195-2.30559,2.30559-2.30559c1.27362,0,2.30559,1.03195,2.30559,2.30559v25.79376
				C146.39745,170.06744,145.36548,171.09941,144.09186,171.09941z"/>
		</g>
		<g>
			<path fill="#00A071" d="M88.03726,196.88234c-1.27363,0-2.30559-1.01039-2.30559-2.25742v-25.25485
				c0-1.24701,1.03196-2.25742,2.30559-2.25742c1.27362,0,2.30559,1.01041,2.30559,2.25742v25.25485
				C90.34285,195.87195,89.31088,196.88234,88.03726,196.88234z"/>
		</g>
		<g>
			<path fill="#00A071" d="M108.01902,196.88234c-1.27363,0-2.30559-1.01039-2.30559-2.25742v-25.25485
				c0-1.24701,1.03196-2.25742,2.30559-2.25742s2.30559,1.01041,2.30559,2.25742v25.25485
				C110.32461,195.87195,109.29265,196.88234,108.01902,196.88234z"/>
		</g>
		<g>
			<path fill="#00A071" d="M128.00078,196.88234c-1.27363,0-2.30559-1.01039-2.30559-2.25742v-25.25485
				c0-1.24701,1.03196-2.25742,2.30559-2.25742c1.27362,0,2.30559,1.01041,2.30559,2.25742v25.25485
				C130.30637,195.87195,129.2744,196.88234,128.00078,196.88234z"/>
		</g>
		<g>
			<path fill="#00A071" d="M147.98253,196.88234c-1.27362,0-2.30559-1.01039-2.30559-2.25742v-25.25485
				c0-1.24701,1.03197-2.25742,2.30559-2.25742c1.27364,0,2.30559,1.01041,2.30559,2.25742v25.25485
				C150.28812,195.87195,149.25616,196.88234,147.98253,196.88234z"/>
		</g>
		<g>
			<path fill="#00A071" d="M81.75575,222.99345c-1.27363,0-2.30559-1.03195-2.30559-2.30559V194.8941
				c0-1.27362,1.03196-2.30559,2.30559-2.30559s2.30559,1.03197,2.30559,2.30559v25.79376
				C84.06134,221.9615,83.02938,222.99345,81.75575,222.99345z"/>
		</g>
		<g>
			<path fill="#00A071" d="M101.73751,222.99345c-1.27363,0-2.30559-1.03195-2.30559-2.30559V194.8941
				c0-1.27362,1.03196-2.30559,2.30559-2.30559s2.30559,1.03197,2.30559,2.30559v25.79376
				C104.0431,221.9615,103.01114,222.99345,101.73751,222.99345z"/>
		</g>
		<g>
			<path fill="#00A071" d="M121.71927,222.99345c-1.27363,0-2.30559-1.03195-2.30559-2.30559V194.8941
				c0-1.27362,1.03196-2.30559,2.30559-2.30559s2.30559,1.03197,2.30559,2.30559v25.79376
				C124.02486,221.9615,122.9929,222.99345,121.71927,222.99345z"/>
		</g>
		<g>
			<path fill="#00A071" d="M141.70103,222.99345c-1.27364,0-2.30559-1.03195-2.30559-2.30559V194.8941
				c0-1.27362,1.03195-2.30559,2.30559-2.30559c1.27362,0,2.30559,1.03197,2.30559,2.30559v25.79376
				C144.00662,221.9615,142.97466,222.99345,141.70103,222.99345z"/>
		</g>
		<g>
			<path fill="#00A071" d="M235.65941,202.11526c-2.12096,1.43649-5.67766,2.87297-10.19202,2.87297
				c-5.54106,0-10.46596-2.12096-13.88606-6.08818c-2.59904-2.87299-4.30946-6.84021-4.9249-11.76511h-4.24117v-3.35181h3.89894
				c0-0.34224,0-0.68372,0-1.02596c0-1.09425,0.06905-2.12096,0.13734-3.07787h-4.03629v-3.42087h4.51511
				c0.82031-4.78754,2.87299-8.75552,5.60861-11.55945c3.4884-3.62575,7.93521-5.67767,13.54382-5.67767
				c4.03554,0,7.18245,1.16255,9.09776,2.18927l-1.36818,4.51436c-1.71043-1.02596-4.58266-1.91533-7.66129-1.91533
				c-3.69328,0-6.70361,1.2999-9.02872,3.76234c-2.05266,1.98361-3.4201,5.06149-4.10457,8.68648h19.08414v3.42087h-19.69957
				c-0.0683,0.88861-0.1366,1.91457-0.1366,2.87222c0,0.41054,0,0.75276,0,1.2316h19.83617v3.35181h-19.35733
				c0.54713,3.96722,1.91531,6.90851,3.7616,8.96042c2.53149,2.66809,5.9516,3.96724,9.64488,3.96724
				c3.62575,0,6.77191-1.36745,8.345-2.25681L235.65941,202.11526z"/>
		</g>
	</g>
	<g id="accompagnement">
	</g>
	<g id="satisfaction">
	</g>
	<g id="fidélisation">
	</g>
	<g id="expertise">
	</g>
	<g id="proximité">
	</g>
</g>
<g id="objectifs">
	<g id="augmenter">
	</g>
	<g id="gagner">
	</g>
	<g id="simplifier">
	</g>
	<g id="aider">
	</g>
	<g id="innover">
	</g>
	<g id="connecter">
	</g>
</g>
</svg>
