<svg xmlns="http://www.w3.org/2000/svg" xmlns:xlink="http://www.w3.org/1999/xlink" id="Calque_1" x="0" y="0" version="1.1" viewBox="0 0 300 300" xml:space="preserve" style="enable-background:new 0 0 300 300"><style type="text/css">.st0{fill:#f5f4f4}.st1{clip-path:url(#SVGID_2_);fill:#00a070}</style><g id="garanties"><g id="hébergement"><circle cx="150" cy="150" r="148.1" class="st0"/></g></g><g><defs><rect id="SVGID_1_" width="166.8" height="191.3" x="68.3" y="56.9"/></defs><clipPath id="SVGID_2_"><use xlink:href="#SVGID_1_" style="overflow:visible"/></clipPath><path d="M85,127.1c-6,0-10.8,4.9-10.8,10.8v21.2c0,6,4.9,10.8,10.8,10.8s10.8-4.9,10.8-10.8V138 C95.8,132,90.9,127.1,85,127.1 M85,175.8c-9.2,0-16.6-7.5-16.6-16.6V138c0-9.2,7.5-16.6,16.6-16.6s16.6,7.5,16.6,16.6v21.2 C101.6,168.3,94.1,175.8,85,175.8" class="st1"/><path d="M218.6,127.1c-6,0-10.8,4.9-10.8,10.8v21.2c0,6,4.9,10.8,10.8,10.8c6,0,10.8-4.9,10.8-10.8V138 C229.4,132,224.6,127.1,218.6,127.1 M218.6,175.8c-9.2,0-16.6-7.5-16.6-16.6V138c0-9.2,7.5-16.6,16.6-16.6 c9.2,0,16.6,7.5,16.6,16.6v21.2C235.2,168.3,227.7,175.8,218.6,175.8" class="st1"/><path d="M218.6,127.2c-1.6,0-2.9-1.3-2.9-2.9c0-33.9-28.7-61.6-63.9-61.6s-63.9,27.6-63.9,61.6c0,1.6-1.3,2.9-2.9,2.9 c-1.6,0-2.9-1.3-2.9-2.9c0-37.1,31.3-67.3,69.7-67.3c38.4,0,69.7,30.2,69.7,67.3C221.5,125.9,220.2,127.2,218.6,127.2" class="st1"/><path d="M143.8,232.1c-2.9,0-5.2,2.3-5.2,5.2c0,2.9,2.3,5.2,5.2,5.2h12.8c2.9,0,5.2-2.3,5.2-5.2c0-2.9-2.3-5.2-5.2-5.2 H143.8z M156.6,248.3h-12.8c-6,0-11-4.9-11-11c0-6,4.9-11,11-11h12.8c6,0,11,4.9,11,11C167.6,243.4,162.7,248.3,156.6,248.3" class="st1"/><path d="M218.6,170c-1.6,0-2.9,1.3-2.9,2.9c0,30-22.5,55.1-52.1,60.5c0.7,1.2,1,2.5,1,4c0,0.6-0.1,1.2-0.2,1.8 c32.4-5.8,57-33.3,57-66.2C221.5,171.3,220.2,170,218.6,170" class="st1"/></g></svg>