<svg xmlns="http://www.w3.org/2000/svg" xmlns:xlink="http://www.w3.org/1999/xlink" id="Calque_1" x="0" y="0" version="1.1" viewBox="0 0 300 300" xml:space="preserve" style="enable-background:new 0 0 300 300"><style type="text/css">.st0{fill:#f5f4f4}.st1{clip-path:url(#SVGID_2_)}.st2{fill:#00a070}.st3{fill:#f4f3f3}.st4{fill:#fff}</style><g id="garanties"><g id="hébergement"><circle cx="150" cy="150" r="148.1" class="st0"/></g></g><g><defs><rect id="SVGID_1_" width="213.6" height="107.1" x="42.6" y="99.5"/></defs><clipPath id="SVGID_2_"><use xlink:href="#SVGID_1_" style="overflow:visible"/></clipPath><g class="st1"><path d="M186.1,194c-1.5,0-3.2-0.2-5-0.6c-0.5-0.1-0.9-0.4-1.2-0.8c-12-14.5-13.7-16.5-13.7-16.5 c-0.8-0.9-0.7-2.3,0.3-3.1c0.9-0.8,2.3-0.7,3.1,0.3c0,0,1.6,1.9,13.2,15.9c2.8,0.5,6.3,0.6,8.2-1.2c2-2,1.8-5.5,1.7-6.7l-2.2-3.4 l-24.1-28.4c-0.2-0.3-0.4-0.6-0.5-0.9l-6-24.2l-39.6,2.8l-12.3,4c-0.6,0.2-1.1,0.1-1.7-0.1l-11.5-5.8c-1.1-0.6-1.5-1.9-1-3 c0.6-1.1,1.9-1.5,3-1l10.7,5.4l12-3.9l42-3.1c1,0,2,0.6,2.3,1.7l6.4,25.5l24,28.2l2.6,4c0.1,0.2,0.3,0.5,0.3,0.8 c0.1,0.3,1.3,7-2.9,11C192.2,193.1,189.5,194,186.1,194z" class="st2"/></g><g class="st1"><path d="M193.2,176.8l29.1-13.3l-17.8-39l-13.6,5.6l-14.6-10.4l-30.9,3.4l-20.6,14.3c0,0,13.6,8.2,27.1,0.4l15,2.7 l1.9,7.7L193.2,176.8z" class="st3"/></g><g class="st1"><path d="M193.2,179c-0.6,0-1.3-0.3-1.7-0.8l-24.3-28.6c-0.2-0.3-0.4-0.6-0.5-0.9l-1.6-6.3l-12.8-2.3 c-14.2,7.7-28.1-0.5-28.7-0.8c-0.6-0.4-1-1.1-1.1-1.8c0-0.7,0.3-1.5,1-1.9l20.6-14.3c0.3-0.2,0.7-0.3,1-0.4l30.9-3.4 c0.5-0.1,1.1,0.1,1.5,0.4l13.6,9.7l12.4-5.1c1.1-0.5,2.4,0.1,2.9,1.1l17.8,39c0.2,0.5,0.3,1.1,0.1,1.7c-0.2,0.5-0.6,1-1.2,1.2 l-29.1,13.3C193.8,178.9,193.5,179,193.2,179z M170.9,147.1l22.9,26.9l25.6-11.6l-16-35.1l-11.6,4.8c-0.7,0.3-1.5,0.2-2.1-0.3 l-13.9-9.9l-29.5,3.3l-17,11.8c4.5,1.8,13,3.8,21.6-1.1c0.5-0.3,1-0.4,1.5-0.3l15,2.7c0.9,0.2,1.5,0.8,1.8,1.6L170.9,147.1z" class="st2"/></g><g class="st1"><path d="M161,205.7c-0.1,0-0.2,0-0.3,0c-5-0.2-8.1-4.9-8.2-5.1l-7.8-9.9l-22.6-7.1l-43.8-21.1l-3.6,7.3 c-0.3,0.5-0.7,0.9-1.3,1.1c-0.5,0.2-1.2,0.1-1.7-0.1l-27.9-13.7c-1.1-0.5-1.5-1.9-1-3l26.3-53.5c0.5-1.1,1.9-1.5,3-1l27.9,13.7 c1.1,0.5,1.5,1.9,1,3l-20.7,42.2l43.5,21l22.9,7.2c0.4,0.1,0.8,0.4,1.1,0.7l8.3,10.6c0.1,0.2,2.1,3.1,4.8,3.2 c2.1,0.1,3.9-1.5,5.3-3.1l-11.9-14.8c-0.8-1-0.6-2.3,0.3-3.1c1-0.8,2.3-0.6,3.1,0.3l12.7,15.7c1,0.3,3.6,1,5.6-0.1 c1.6-0.8,2.8-2.7,3.4-5.4c0.3-1.2,1.5-2,2.6-1.7c1.2,0.3,1.9,1.4,1.7,2.6c-0.9,4.1-2.8,6.9-5.7,8.4c-3,1.5-6.3,1.1-8.2,0.6 C167,204.1,164,205.7,161,205.7z M47.8,154.2l23.9,11.7l3.5-7.2c0,0,0-0.1,0.1-0.1c0-0.1,0.1-0.1,0.1-0.2L96,116.4l-23.9-11.7 L47.8,154.2z M225.7,173.2c-0.8,0-1.6-0.5-2-1.3l-24.8-54.2c-0.5-1.1,0-2.4,1.1-2.9l28.2-12.9c0.5-0.2,1.2-0.3,1.7-0.1 c0.6,0.2,1,0.6,1.2,1.2l24.8,54.2c0.2,0.5,0.3,1.1,0.1,1.7c-0.2,0.5-0.6,1-1.2,1.2L226.6,173C226.3,173.1,226,173.2,225.7,173.2z M203.9,117.8l22.9,50.2L251,157l-22.9-50.2L203.9,117.8z" class="st2"/></g><g class="st1"><path d="M111.6,192c-2.2,0-4.3-1-5.7-2.7c-2.6-3.1-2.2-7.8,1-10.4l14.7-12.2c1.3-1.1,3-1.7,4.7-1.7 c2.2,0,4.3,1,5.7,2.7c2.6,3.1,2.1,7.8-1,10.4l-14.7,12.2C115,191.4,113.4,192,111.6,192" class="st3"/></g><g class="st1"><path d="M126.4,162.9L126.4,162.9c-2.2,0-4.4,0.8-6.1,2.2l-14.7,12.2c-2,1.6-3.2,3.9-3.4,6.5c-0.2,2.5,0.5,5,2.2,7 c1.8,2.2,4.5,3.5,7.4,3.5c2.2,0,4.4-0.8,6.1-2.2l14.7-12.2c2-1.6,3.2-3.9,3.4-6.5c0.2-2.6-0.5-5.1-2.2-7 C131.9,164.2,129.2,162.9,126.4,162.9 M126.4,167.3c1.5,0,3,0.6,4,1.9c1.8,2.2,1.5,5.5-0.7,7.3l-14.7,12.2c-1,0.8-2.1,1.2-3.3,1.2 c-1.5,0-3-0.6-4-1.9c-1.8-2.2-1.5-5.5,0.7-7.3l14.7-12.2C124,167.7,125.2,167.3,126.4,167.3" class="st2"/></g><g class="st1"><path d="M124.8,200.3c-2.2,0-4.3-1-5.7-2.7c-2.6-3.1-2.2-7.8,1-10.4l14.7-12.2c1.3-1.1,3-1.7,4.7-1.7 c2.2,0,4.3,1,5.7,2.7c2.6,3.1,2.1,7.8-1,10.4l-14.7,12.2C128.2,199.7,126.5,200.3,124.8,200.3" class="st3"/></g><g class="st1"><path d="M139.5,171.2L139.5,171.2c-2.2,0-4.4,0.8-6.1,2.2l-14.7,12.2c-2,1.6-3.2,3.9-3.4,6.5c-0.2,2.5,0.5,5,2.2,7 c1.8,2.2,4.5,3.5,7.4,3.5c2.2,0,4.4-0.8,6.1-2.2l14.7-12.2c2-1.6,3.2-3.9,3.4-6.5c0.2-2.6-0.5-5.1-2.2-7 C145.1,172.4,142.4,171.2,139.5,171.2 M139.5,175.6c1.5,0,3,0.6,4,1.9c1.8,2.2,1.5,5.5-0.7,7.3l-14.7,12.2c-1,0.8-2.1,1.2-3.3,1.2 c-1.5,0-3-0.6-4-1.9c-1.8-2.2-1.5-5.5,0.7-7.3l14.7-12.2C137.2,176,138.4,175.6,139.5,175.6" class="st2"/></g><g class="st1"><path d="M142.4,204.3c-2.2,0-4.3-1-5.7-2.7c-2.6-3.1-2.2-7.8,1-10.4l6.2-5.1c1.3-1.1,3-1.7,4.7-1.7 c2.2,0,4.3,1,5.7,2.7c1.2,1.5,1.8,3.4,1.7,5.4c-0.2,2-1.1,3.7-2.6,5l-6.2,5.1C145.7,203.7,144.1,204.3,142.4,204.3" class="st4"/></g><g class="st1"><path d="M148.5,182.3L148.5,182.3c-2.2,0-4.4,0.8-6.1,2.2l-6.2,5.1c-2,1.6-3.2,3.9-3.4,6.5c-0.2,2.6,0.5,5.1,2.2,7 c1.8,2.2,4.5,3.5,7.4,3.5c2.2,0,4.4-0.8,6.1-2.2l6.2-5.1c2-1.6,3.2-3.9,3.4-6.5c0.2-2.6-0.5-5.1-2.2-7 C154.1,183.5,151.4,182.3,148.5,182.3 M148.5,186.7c1.5,0,3,0.6,4,1.9c1.8,2.2,1.5,5.5-0.7,7.3l-6.2,5.1c-1,0.8-2.1,1.2-3.3,1.2 c-1.5,0-3-0.6-4-1.9c-1.8-2.2-1.5-5.5,0.7-7.3l6.2-5.1C146.2,187.1,147.4,186.7,148.5,186.7" class="st2"/></g><g class="st1"><path d="M101,180.5c-2.2,0-4.3-1-5.7-2.7c-1.2-1.5-1.8-3.4-1.7-5.4c0.2-2,1.1-3.7,2.6-5l6.2-5.1 c1.3-1.1,3-1.7,4.7-1.7c2.2,0,4.3,1,5.7,2.7c1.3,1.5,1.8,3.4,1.7,5.4c-0.2,2-1.1,3.7-2.6,5l-6.2,5.1 C104.4,179.9,102.8,180.5,101,180.5" class="st3"/></g><g class="st1"><path d="M107.2,158.4L107.2,158.4c-2.2,0-4.4,0.8-6.1,2.2l-6.2,5.1c-2,1.6-3.2,3.9-3.4,6.5c-0.2,2.6,0.5,5.1,2.2,7 c1.8,2.2,4.5,3.5,7.4,3.5c2.2,0,4.4-0.8,6.1-2.2l6.2-5.1c4.1-3.4,4.6-9.4,1.3-13.5C112.8,159.7,110.1,158.4,107.2,158.4 M107.2,162.9c1.5,0,3,0.6,4,1.9c1.8,2.2,1.5,5.5-0.7,7.3l-6.2,5.1c-1,0.8-2.1,1.2-3.3,1.2c-1.5,0-3-0.6-4-1.9 c-1.8-2.2-1.5-5.5,0.7-7.3l6.2-5.1C104.9,163.2,106,162.9,107.2,162.9" class="st2"/></g></g></svg>