<?xml version="1.0" encoding="utf-8"?>
<!-- Generator: Adobe Illustrator 22.1.0, SVG Export Plug-In . SVG Version: 6.00 Build 0)  -->
<svg version="1.1" id="Calque_1" xmlns="http://www.w3.org/2000/svg" xmlns:xlink="http://www.w3.org/1999/xlink" x="0px" y="0px"
	 viewBox="0 0 300 300" style="enable-background:new 0 0 300 300;" xml:space="preserve">
<style type="text/css">
	.st0{fill:#F5F4F4;}
	.st1{clip-path:url(#SVGID_2_);fill:#009F71;}
</style>
<g id="Calque_1_1_">
</g>
<g id="garanties">
	<g id="responsive">
	</g>
	<g id="référencement">
	</g>
	<g id="support_technique">
	</g>
	<g id="données_cryptées">
	</g>
	<g id="ars">
	</g>
	<g id="paiement">
	</g>
	<g id="hébergement">
		<circle class="st0" cx="150" cy="150" r="148.1"/>
	</g>
</g>
<g id="objectifs">
	<g id="augmenter">
	</g>
	<g id="gagner">
	</g>
	<g id="simplifier">
	</g>
	<g id="aider">
	</g>
	<g id="innover">
	</g>
	<g id="connecter">
	</g>
</g>
<g>
	<defs>
		<rect id="SVGID_1_" x="54.7" y="93.5" width="193.3" height="118.6"/>
	</defs>
	<clipPath id="SVGID_2_">
		<use xlink:href="#SVGID_1_"  style="overflow:visible;"/>
	</clipPath>
	<path class="st1" d="M247.6,89.4c-0.1-0.1-0.6-0.4-1.7-0.4h-0.6c-5.9,0.3-11.8,0.6-17.7,0.9c-5.9,0.3-11.9,0.6-17.8,0.9h-0.1
		c-1.1,0.1-1.8,0.1-2.1,0.4c0,0.1-0.1,0.1-0.3,0.4l0,0.1c-0.2,0.5-0.3,0.6,0.9,1.9l3,3.2c2,2.2,4.1,4.3,6.2,6.4l3.6,3.7l-78.8,82.1
		l-35.8-37.2c-1-1-2.3-1.6-3.7-1.6c-1.4,0-2.7,0.6-3.7,1.6l-42.9,44.6c-1,1-1.5,2.4-1.5,3.9c0,1.5,0.6,2.8,1.5,3.9l1.9,2
		c1,1,2.3,1.6,3.7,1.6c1.4,0,2.7-0.6,3.7-1.6l37.3-38.8l35.8,37.2c1,1,2.3,1.6,3.7,1.6c1.4,0,2.7-0.6,3.7-1.6l84.4-87.9l12.7,13.2
		c0.4,0.4,1.1,1.1,1.3,1.2c0.1,0,0.3-0.1,0.5-0.2c0.3-0.2,0.5-0.3,0.6-0.5c0.5-0.5,0.7-1.3,0.7-2.7c0.3-7.7,0.7-15.5,1-23.1l0-0.9
		l0.5-12C248,90.5,247.9,89.7,247.6,89.4L247.6,89.4z"/>
</g>
</svg>
